<svg xmlns="http://www.w3.org/2000/svg" xmlns:xlink="http://www.w3.org/1999/xlink" contentStyleType="text/css" data-diagram-type="CLASS" height="435px" preserveAspectRatio="none" style="width:329px;height:435px;background:#FFFFFF;" version="1.1" viewBox="0 0 329 435" width="329px" zoomAndPan="magnify"><?plantuml 1.2026.6?><defs/><g><!--class Species--><g class="entity" data-qualified-name="Species" data-source-line="1" id="ent0001"><rect fill="#F1F1F1" height="113.9531" rx="2.5" ry="2.5" style="stroke:#181818;stroke-width:0.5;" width="82.3057" x="217.04" y="306.47"/><ellipse cx="232.04" cy="322.47" fill="#EB937F" rx="11" ry="11" style="stroke:#181818;stroke-width:1;"/><path d="M235.6543,328.97 L227.9345,328.97 L227.9345,316.5769 L235.6543,316.5769 L235.6543,318.7351 L230.3833,318.7351 L230.3833,321.408 L235.1562,321.408 L235.1562,323.5662 L230.3833,323.5662 L230.3833,326.8118 L235.6543,326.8118 Z " fill="#000000"/><text fill="#000000" font-family="sans-serif" font-size="14" lengthAdjust="spacing" textLength="50.3057" x="246.04" y="327.761">Species</text><line style="stroke:#181818;stroke-width:0.5;" x1="218.04" x2="298.3457" y1="338.47" y2="338.47"/><text fill="#000000" font-family="sans-serif" font-size="14" lengthAdjust="spacing" textLength="27.8154" x="223.04" y="356.0052">Dog</text><text fill="#000000" font-family="sans-serif" font-size="14" lengthAdjust="spacing" textLength="22.6543" x="223.04" y="372.4934">Cat</text><text fill="#000000" font-family="sans-serif" font-size="14" lengthAdjust="spacing" textLength="26.6396" x="223.04" y="388.9817">Bird</text><text fill="#000000" font-family="sans-serif" font-size="14" lengthAdjust="spacing" textLength="46.5938" x="223.04" y="405.47">Reptile</text><line style="stroke:#181818;stroke-width:0.5;" x1="218.04" x2="298.3457" y1="412.4231" y2="412.4231"/></g><!--class Owner--><g class="entity" data-qualified-name="Owner" data-source-line="8" id="ent0002"><rect fill="#F1F1F1" height="48" rx="2.5" ry="2.5" style="stroke:#181818;stroke-width:0.5;" width="75.8799" x="205.25" y="7"/><ellipse cx="220.25" cy="23" fill="#ADD1B2" rx="11" ry="11" style="stroke:#181818;stroke-width:1;"/><path d="M222.7231,29.1431 Q222.1421,29.4419 221.5029,29.5913 Q220.8638,29.7407 220.1582,29.7407 Q217.6514,29.7407 216.3315,28.0889 Q215.0117,26.437 215.0117,23.3159 Q215.0117,20.1865 216.3315,18.5347 Q217.6514,16.8828 220.1582,16.8828 Q220.8638,16.8828 221.5112,17.0322 Q222.1587,17.1816 222.7231,17.4805 L222.7231,20.2031 Q222.0923,19.6221 221.4988,19.3523 Q220.9053,19.0825 220.2744,19.0825 Q218.9297,19.0825 218.2449,20.1492 Q217.5601,21.2158 217.5601,23.3159 Q217.5601,25.4077 218.2449,26.4744 Q218.9297,27.541 220.2744,27.541 Q220.9053,27.541 221.4988,27.2712 Q222.0923,27.0015 222.7231,26.4204 Z " fill="#000000"/><text fill="#000000" font-family="sans-serif" font-size="14" lengthAdjust="spacing" textLength="43.8799" x="234.25" y="28.291">Owner</text><line style="stroke:#181818;stroke-width:0.5;" x1="206.25" x2="280.1299" y1="39" y2="39"/><line style="stroke:#181818;stroke-width:0.5;" x1="206.25" x2="280.1299" y1="47" y2="47"/></g><!--class Animal--><g class="entity" data-qualified-name="Animal" data-source-line="11" id="ent0003"><rect fill="#F1F1F1" height="97.4648" rx="2.5" ry="2.5" style="stroke:#181818;stroke-width:0.5;" width="143.4688" x="171.46" y="132"/><ellipse cx="215.3615" cy="148" fill="#ADD1B2" rx="11" ry="11" style="stroke:#181818;stroke-width:1;"/><path d="M217.8347,154.1431 Q217.2536,154.4419 216.6144,154.5913 Q215.9753,154.7407 215.2697,154.7407 Q212.7629,154.7407 211.4431,153.0889 Q210.1232,151.437 210.1232,148.3159 Q210.1232,145.1865 211.4431,143.5347 Q212.7629,141.8828 215.2697,141.8828 Q215.9753,141.8828 216.6227,142.0322 Q217.2702,142.1816 217.8347,142.4805 L217.8347,145.2031 Q217.2038,144.6221 216.6103,144.3523 Q216.0168,144.0825 215.3859,144.0825 Q214.0412,144.0825 213.3564,145.1492 Q212.6716,146.2158 212.6716,148.3159 Q212.6716,150.4077 213.3564,151.4744 Q214.0412,152.541 215.3859,152.541 Q216.0168,152.541 216.6103,152.2712 Q217.2038,152.0015 217.8347,151.4204 Z " fill="#000000"/><text fill="#000000" font-family="sans-serif" font-size="14" lengthAdjust="spacing" textLength="47.2432" x="235.7841" y="153.291">Animal</text><line style="stroke:#181818;stroke-width:0.5;" x1="172.46" x2="313.9288" y1="164" y2="164"/><g data-visibility-modifier="PUBLIC_FIELD"><ellipse cx="182.46" cy="177.7441" fill="none" rx="3" ry="3" style="stroke:#038048;stroke-width:1;"/></g><text fill="#000000" font-family="sans-serif" font-size="14" lengthAdjust="spacing" textLength="86.1191" x="191.46" y="181.5352">name: String</text><g data-visibility-modifier="PUBLIC_FIELD"><ellipse cx="182.46" cy="194.2324" fill="none" rx="3" ry="3" style="stroke:#038048;stroke-width:1;"/></g><text fill="#000000" font-family="sans-serif" font-size="14" lengthAdjust="spacing" textLength="117.4688" x="191.46" y="198.0234">dateOfBirth: Date</text><g data-visibility-modifier="PUBLIC_FIELD"><ellipse cx="182.46" cy="210.7207" fill="none" rx="3" ry="3" style="stroke:#038048;stroke-width:1;"/></g><text fill="#000000" font-family="sans-serif" font-size="14" lengthAdjust="spacing" textLength="109.0674" x="191.46" y="214.5117">species: Species</text><line style="stroke:#181818;stroke-width:0.5;" x1="172.46" x2="313.9288" y1="221.4648" y2="221.4648"/></g><!--class Treatment--><g class="entity" data-qualified-name="Treatment" data-source-line="17" id="ent0004"><rect fill="#F1F1F1" height="97.4648" rx="2.5" ry="2.5" style="stroke:#181818;stroke-width:0.5;" width="130.125" x="26.13" y="314.71"/><ellipse cx="53.7217" cy="330.71" fill="#ADD1B2" rx="11" ry="11" style="stroke:#181818;stroke-width:1;"/><path d="M56.1948,336.8531 Q55.6137,337.1519 54.9746,337.3013 Q54.3354,337.4507 53.6299,337.4507 Q51.123,337.4507 49.8032,335.7989 Q48.4834,334.147 48.4834,331.0259 Q48.4834,327.8965 49.8032,326.2447 Q51.123,324.5928 53.6299,324.5928 Q54.3354,324.5928 54.9829,324.7422 Q55.6303,324.8916 56.1948,325.1905 L56.1948,327.9131 Q55.5639,327.3321 54.9704,327.0623 Q54.3769,326.7925 53.7461,326.7925 Q52.4013,326.7925 51.7165,327.8592 Q51.0317,328.9258 51.0317,331.0259 Q51.0317,333.1177 51.7165,334.1844 Q52.4013,335.251 53.7461,335.251 Q54.3769,335.251 54.9704,334.9812 Q55.5639,334.7115 56.1948,334.1304 Z " fill="#000000"/><text fill="#000000" font-family="sans-serif" font-size="14" lengthAdjust="spacing" textLength="70.1436" x="70.5198" y="336.001">Treatment</text><line style="stroke:#181818;stroke-width:0.5;" x1="27.13" x2="155.255" y1="346.71" y2="346.71"/><g data-visibility-modifier="PUBLIC_FIELD"><ellipse cx="37.13" cy="360.4541" fill="none" rx="3" ry="3" style="stroke:#038048;stroke-width:1;"/></g><text fill="#000000" font-family="sans-serif" font-size="14" lengthAdjust="spacing" textLength="69.6924" x="46.13" y="364.2452">date: Date</text><g data-visibility-modifier="PUBLIC_FIELD"><ellipse cx="37.13" cy="376.9424" fill="none" rx="3" ry="3" style="stroke:#038048;stroke-width:1;"/></g><text fill="#000000" font-family="sans-serif" font-size="14" lengthAdjust="spacing" textLength="104.125" x="46.13" y="380.7334">findings: String</text><g data-visibility-modifier="PUBLIC_FIELD"><ellipse cx="37.13" cy="393.4307" fill="none" rx="3" ry="3" style="stroke:#038048;stroke-width:1;"/></g><text fill="#000000" font-family="sans-serif" font-size="14" lengthAdjust="spacing" textLength="85.4355" x="46.13" y="397.2217">cost: Double</text><line style="stroke:#181818;stroke-width:0.5;" x1="27.13" x2="155.255" y1="404.1748" y2="404.1748"/></g><!--class Veterinarian--><g class="entity" data-qualified-name="Veterinarian" data-source-line="23" id="ent0005"><rect fill="#F1F1F1" height="48" rx="2.5" ry="2.5" style="stroke:#181818;stroke-width:0.5;" width="114.3799" x="7" y="156.73"/><ellipse cx="22" cy="172.73" fill="#ADD1B2" rx="11" ry="11" style="stroke:#181818;stroke-width:1;"/><path d="M24.4731,178.8731 Q23.8921,179.1719 23.2529,179.3213 Q22.6138,179.4707 21.9082,179.4707 Q19.4014,179.4707 18.0815,177.8189 Q16.7617,176.167 16.7617,173.0459 Q16.7617,169.9165 18.0815,168.2647 Q19.4014,166.6128 21.9082,166.6128 Q22.6138,166.6128 23.2612,166.7622 Q23.9087,166.9116 24.4731,167.2105 L24.4731,169.9331 Q23.8423,169.3521 23.2488,169.0823 Q22.6553,168.8125 22.0244,168.8125 Q20.6797,168.8125 19.9949,169.8792 Q19.3101,170.9458 19.3101,173.0459 Q19.3101,175.1377 19.9949,176.2044 Q20.6797,177.271 22.0244,177.271 Q22.6553,177.271 23.2488,177.0012 Q23.8423,176.7315 24.4731,176.1504 Z " fill="#000000"/><text fill="#000000" font-family="sans-serif" font-size="14" lengthAdjust="spacing" textLength="82.3799" x="36" y="178.021">Veterinarian</text><line style="stroke:#181818;stroke-width:0.5;" x1="8" x2="120.3799" y1="188.73" y2="188.73"/><line style="stroke:#181818;stroke-width:0.5;" x1="8" x2="120.3799" y1="196.73" y2="196.73"/></g><!--reverse link Owner to Animal--><g class="link" data-entity-1="ent0002" data-entity-2="ent0003" data-link-type="composition" data-source-line="26" id="lnk6"><path codeLine="26" d="M243.19,67.41 C243.19,87.83 243.19,106.11 243.19,131.67" fill="none" id="Owner-backto-Animal" style="stroke:#181818;stroke-width:1;"/><polygon fill="#181818" points="243.19,55.41,239.19,61.41,243.19,67.41,247.19,61.41,243.19,55.41" style="stroke:#181818;stroke-width:1;stroke-linejoin:miter;stroke-miterlimit:10;"/><text fill="#000000" font-family="sans-serif" font-size="13" lengthAdjust="spacing" textLength="32.6968" x="244.19" y="98.5684">owns</text><text fill="#000000" font-family="sans-serif" font-size="13" lengthAdjust="spacing" textLength="8.2202" x="234.2905" y="75.3935">1</text><text fill="#000000" font-family="sans-serif" font-size="13" lengthAdjust="spacing" textLength="22.7119" x="219.6926" y="121.3061">1..*</text></g><!--link Animal to Treatment--><g class="link" data-entity-1="ent0003" data-entity-2="ent0004" data-link-type="association" data-source-line="27" id="lnk7"><path codeLine="27" d="M202.86,229.69 C180.87,255.83 153.73,288.09 131.71,314.27" fill="none" id="Animal-Treatment" style="stroke:#181818;stroke-width:1;"/><text fill="#000000" font-family="sans-serif" font-size="13" lengthAdjust="spacing" textLength="53.4917" x="177.29" y="273.0384">refers to</text><text fill="#000000" font-family="sans-serif" font-size="13" lengthAdjust="spacing" textLength="8.2202" x="188.9174" y="249.8657">1</text><text fill="#000000" font-family="sans-serif" font-size="13" lengthAdjust="spacing" textLength="22.7119" x="113.911" y="303.8906">0..*</text></g><!--link Veterinarian to Treatment--><g class="link" data-entity-1="ent0005" data-entity-2="ent0004" data-link-type="association" data-source-line="28" id="lnk8"><path codeLine="28" d="M60.91,204.88 C58.78,224.17 57.09,252.29 61.19,276.47 C63.33,289.09 67.12,302.34 71.3,314.54" fill="none" id="Veterinarian-Treatment" style="stroke:#181818;stroke-width:1;"/><text fill="#000000" font-family="sans-serif" font-size="13" lengthAdjust="spacing" textLength="57.5923" x="62.19" y="273.0384">performs</text><text fill="#000000" font-family="sans-serif" font-size="13" lengthAdjust="spacing" textLength="8.2202" x="51.1624" y="225.2009">1</text><text fill="#000000" font-family="sans-serif" font-size="13" lengthAdjust="spacing" textLength="22.7119" x="44.8149" y="303.8471">0..*</text></g><!--link Animal to Species--><g class="link" data-entity-1="ent0003" data-entity-2="ent0001" data-link-type="dependency" data-source-line="29" id="lnk9"><path codeLine="29" d="M247.17,229.69 C249.12,253.21 251.0758,276.7172 253.1158,301.2572" fill="none" id="Animal-to-Species" style="stroke:#181818;stroke-width:1;stroke-dasharray:7,7;"/><polygon fill="#181818" points="253.53,306.24,256.7707,296.9396,253.1158,301.2572,248.7982,297.6023,253.53,306.24" style="stroke:#181818;stroke-width:1;stroke-linejoin:miter;stroke-miterlimit:10;"/><text fill="#000000" font-family="sans-serif" font-size="13" lengthAdjust="spacing" textLength="28.5645" x="251.69" y="273.0384">uses</text></g><?plantuml-src TP0nQyD038Nt-nN2Oq9CkjvGQ9eza9JkLrjE3tmw8yba2FdlrSMDdGvT92JU-_GGqfZWD60JKU3g0FRvRFKzgDLTvDRQ4GUDFRgRSqqVHE1m8MHJpuitYYdqT_-QGa8F9-L8XRHkW-AXCvH-UzZRK9OoNVIFqmlgWp5eGjA9LjoBhOlK6bQU-KqMDKKUlvuZVgAYAGB7G5FIANJrKi5gix5Urwlg4Tn3lf2utwbeYcHxboo1F31so0AQtH_-_uO1kSkSPdHTlyxVzZ0AoWy0?></g></svg>