<svg xmlns="http://www.w3.org/2000/svg" xmlns:xlink="http://www.w3.org/1999/xlink" contentStyleType="text/css" data-diagram-type="CLASS" height="293px" preserveAspectRatio="none" style="width:887px;height:293px;background:#FFFFFF;" version="1.1" viewBox="0 0 887 293" width="887px" zoomAndPan="magnify"><?plantuml 1.2026.6?><defs/><g><!--class Vehicle--><g class="entity" data-qualified-name="Vehicle" data-source-line="1" id="ent0001"><rect fill="#F1F1F1" height="97.4648" rx="2.5" ry="2.5" style="stroke:#181818;stroke-width:0.5;" width="166.3008" x="304.32" y="7"/><ellipse cx="358.8674" cy="23" fill="#A9DCDF" rx="11" ry="11" style="stroke:#181818;stroke-width:1;"/><path d="M358.7306,18.3481 L357.5768,23.4199 L359.8928,23.4199 Z M357.2365,16.1069 L360.2331,16.1069 L363.5783,28.5 L361.1296,28.5 L360.3659,25.437 L357.0871,25.437 L356.34,28.5 L353.8913,28.5 Z " fill="#000000"/><text fill="#000000" font-family="sans-serif" font-size="14" font-style="italic" lengthAdjust="spacing" textLength="48.7061" x="379.3674" y="28.291">Vehicle</text><line style="stroke:#181818;stroke-width:0.5;" x1="305.32" x2="469.6208" y1="39" y2="39"/><g data-visibility-modifier="PUBLIC_FIELD"><ellipse cx="315.32" cy="52.7441" fill="none" rx="3" ry="3" style="stroke:#038048;stroke-width:1;"/></g><text fill="#000000" font-family="sans-serif" font-size="14" lengthAdjust="spacing" textLength="128.0713" x="324.32" y="56.5352">licensePlate: String</text><g data-visibility-modifier="PUBLIC_FIELD"><ellipse cx="315.32" cy="69.2324" fill="none" rx="3" ry="3" style="stroke:#038048;stroke-width:1;"/></g><text fill="#000000" font-family="sans-serif" font-size="14" lengthAdjust="spacing" textLength="80.042" x="324.32" y="73.0234">mileage: Int</text><g data-visibility-modifier="PUBLIC_FIELD"><ellipse cx="315.32" cy="85.7207" fill="none" rx="3" ry="3" style="stroke:#038048;stroke-width:1;"/></g><text fill="#000000" font-family="sans-serif" font-size="14" lengthAdjust="spacing" textLength="140.3008" x="324.32" y="89.5117">status: VehicleStatus</text><line style="stroke:#181818;stroke-width:0.5;" x1="305.32" x2="469.6208" y1="96.4648" y2="96.4648"/></g><!--class VehicleStatus--><g class="entity" data-qualified-name="VehicleStatus" data-source-line="7" id="ent0002"><rect fill="#F1F1F1" height="97.4648" rx="2.5" ry="2.5" style="stroke:#181818;stroke-width:0.5;" width="133.5293" x="738.7" y="7"/><ellipse cx="758.7643" cy="23" fill="#EB937F" rx="11" ry="11" style="stroke:#181818;stroke-width:1;"/><path d="M762.3785,29.5 L754.6588,29.5 L754.6588,17.1069 L762.3785,17.1069 L762.3785,19.2651 L757.1075,19.2651 L757.1075,21.938 L761.8805,21.938 L761.8805,24.0962 L757.1075,24.0962 L757.1075,27.3418 L762.3785,27.3418 Z " fill="#000000"/><text fill="#000000" font-family="sans-serif" font-size="14" lengthAdjust="spacing" textLength="90.2754" x="773.8896" y="28.291">VehicleStatus</text><line style="stroke:#181818;stroke-width:0.5;" x1="739.7" x2="871.2293" y1="39" y2="39"/><text fill="#000000" font-family="sans-serif" font-size="14" lengthAdjust="spacing" textLength="72.7344" x="744.7" y="56.5352">AVAILABLE</text><text fill="#000000" font-family="sans-serif" font-size="14" lengthAdjust="spacing" textLength="101.8213" x="744.7" y="73.0234">ON_THE_ROAD</text><text fill="#000000" font-family="sans-serif" font-size="14" lengthAdjust="spacing" textLength="121.5293" x="744.7" y="89.5117">IN_MAINTENANCE</text><line style="stroke:#181818;stroke-width:0.5;" x1="739.7" x2="871.2293" y1="96.4648" y2="96.4648"/></g><!--class Car--><g class="entity" data-qualified-name="Car" data-source-line="13" id="ent0003"><rect fill="#F1F1F1" height="64.4883" rx="2.5" ry="2.5" style="stroke:#181818;stroke-width:0.5;" width="121.6211" x="243.66" y="197.95"/><ellipse cx="288.6473" cy="213.95" fill="#ADD1B2" rx="11" ry="11" style="stroke:#181818;stroke-width:1;"/><path d="M291.1204,220.0931 Q290.5394,220.3919 289.9002,220.5413 Q289.2611,220.6907 288.5555,220.6907 Q286.0487,220.6907 284.7288,219.0389 Q283.409,217.387 283.409,214.2659 Q283.409,211.1365 284.7288,209.4847 Q286.0487,207.8328 288.5555,207.8328 Q289.2611,207.8328 289.9085,207.9822 Q290.556,208.1316 291.1204,208.4305 L291.1204,211.1531 Q290.4896,210.5721 289.8961,210.3023 Q289.3026,210.0325 288.6717,210.0325 Q287.327,210.0325 286.6422,211.0992 Q285.9574,212.1658 285.9574,214.2659 Q285.9574,216.3577 286.6422,217.4244 Q287.327,218.491 288.6717,218.491 Q289.3026,218.491 289.8961,218.2212 Q290.4896,217.9515 291.1204,217.3704 Z " fill="#000000"/><text fill="#000000" font-family="sans-serif" font-size="14" lengthAdjust="spacing" textLength="23.1465" x="309.1473" y="219.241">Car</text><line style="stroke:#181818;stroke-width:0.5;" x1="244.66" x2="364.2811" y1="229.95" y2="229.95"/><g data-visibility-modifier="PUBLIC_FIELD"><ellipse cx="254.66" cy="243.6941" fill="none" rx="3" ry="3" style="stroke:#038048;stroke-width:1;"/></g><text fill="#000000" font-family="sans-serif" font-size="14" lengthAdjust="spacing" textLength="95.6211" x="263.66" y="247.4852">seatCount: Int</text><line style="stroke:#181818;stroke-width:0.5;" x1="244.66" x2="364.2811" y1="254.4383" y2="254.4383"/></g><!--class Truck--><g class="entity" data-qualified-name="Truck" data-source-line="17" id="ent0004"><rect fill="#F1F1F1" height="64.4883" rx="2.5" ry="2.5" style="stroke:#181818;stroke-width:0.5;" width="136.3389" x="400.3" y="197.95"/><ellipse cx="444.9079" cy="213.95" fill="#ADD1B2" rx="11" ry="11" style="stroke:#181818;stroke-width:1;"/><path d="M447.3811,220.0931 Q446.8,220.3919 446.1608,220.5413 Q445.5217,220.6907 444.8161,220.6907 Q442.3093,220.6907 440.9895,219.0389 Q439.6696,217.387 439.6696,214.2659 Q439.6696,211.1365 440.9895,209.4847 Q442.3093,207.8328 444.8161,207.8328 Q445.5217,207.8328 446.1691,207.9822 Q446.8166,208.1316 447.3811,208.4305 L447.3811,211.1531 Q446.7502,210.5721 446.1567,210.3023 Q445.5632,210.0325 444.9323,210.0325 Q443.5876,210.0325 442.9028,211.0992 Q442.218,212.1658 442.218,214.2659 Q442.218,216.3577 442.9028,217.4244 Q443.5876,218.491 444.9323,218.491 Q445.5632,218.491 446.1567,218.2212 Q446.7502,217.9515 447.3811,217.3704 Z " fill="#000000"/><text fill="#000000" font-family="sans-serif" font-size="14" lengthAdjust="spacing" textLength="38.623" x="465.4079" y="219.241">Truck</text><line style="stroke:#181818;stroke-width:0.5;" x1="401.3" x2="535.6389" y1="229.95" y2="229.95"/><g data-visibility-modifier="PUBLIC_FIELD"><ellipse cx="411.3" cy="243.6941" fill="none" rx="3" ry="3" style="stroke:#038048;stroke-width:1;"/></g><text fill="#000000" font-family="sans-serif" font-size="14" lengthAdjust="spacing" textLength="110.3389" x="420.3" y="247.4852">payload: Double</text><line style="stroke:#181818;stroke-width:0.5;" x1="401.3" x2="535.6389" y1="254.4383" y2="254.4383"/></g><!--class Driver--><g class="entity" data-qualified-name="Driver" data-source-line="21" id="ent0005"><rect fill="#F1F1F1" height="48" rx="2.5" ry="2.5" style="stroke:#181818;stroke-width:0.5;" width="73.0361" x="64.95" y="31.73"/><ellipse cx="79.95" cy="47.73" fill="#ADD1B2" rx="11" ry="11" style="stroke:#181818;stroke-width:1;"/><path d="M82.4231,53.8731 Q81.8421,54.1719 81.2029,54.3213 Q80.5638,54.4707 79.8582,54.4707 Q77.3514,54.4707 76.0315,52.8189 Q74.7117,51.167 74.7117,48.0459 Q74.7117,44.9165 76.0315,43.2647 Q77.3514,41.6128 79.8582,41.6128 Q80.5638,41.6128 81.2112,41.7622 Q81.8587,41.9116 82.4231,42.2105 L82.4231,44.9331 Q81.7923,44.3521 81.1988,44.0823 Q80.6053,43.8125 79.9744,43.8125 Q78.6297,43.8125 77.9449,44.8792 Q77.2601,45.9458 77.2601,48.0459 Q77.2601,50.1377 77.9449,51.2044 Q78.6297,52.271 79.9744,52.271 Q80.6053,52.271 81.1988,52.0012 Q81.7923,51.7315 82.4231,51.1504 Z " fill="#000000"/><text fill="#000000" font-family="sans-serif" font-size="14" lengthAdjust="spacing" textLength="41.0361" x="93.95" y="53.021">Driver</text><line style="stroke:#181818;stroke-width:0.5;" x1="65.95" x2="136.9861" y1="63.73" y2="63.73"/><line style="stroke:#181818;stroke-width:0.5;" x1="65.95" x2="136.9861" y1="71.73" y2="71.73"/></g><!--class Trip--><g class="entity" data-qualified-name="Trip" data-source-line="24" id="ent0006"><rect fill="#F1F1F1" height="97.4648" rx="2.5" ry="2.5" style="stroke:#181818;stroke-width:0.5;" width="198.9355" x="7" y="181.47"/><ellipse cx="88.498" cy="197.47" fill="#ADD1B2" rx="11" ry="11" style="stroke:#181818;stroke-width:1;"/><path d="M90.9712,203.6131 Q90.3901,203.9119 89.751,204.0613 Q89.1118,204.2107 88.4063,204.2107 Q85.8994,204.2107 84.5796,202.5589 Q83.2598,200.907 83.2598,197.7859 Q83.2598,194.6565 84.5796,193.0047 Q85.8994,191.3528 88.4063,191.3528 Q89.1118,191.3528 89.7593,191.5022 Q90.4067,191.6516 90.9712,191.9505 L90.9712,194.6731 Q90.3403,194.0921 89.7468,193.8223 Q89.1533,193.5525 88.5225,193.5525 Q87.1777,193.5525 86.4929,194.6192 Q85.8081,195.6858 85.8081,197.7859 Q85.8081,199.8777 86.4929,200.9444 Q87.1777,202.011 88.5225,202.011 Q89.1533,202.011 89.7468,201.7412 Q90.3403,201.4715 90.9712,200.8904 Z " fill="#000000"/><text fill="#000000" font-family="sans-serif" font-size="14" lengthAdjust="spacing" textLength="27.4395" x="108.998" y="202.761">Trip</text><line style="stroke:#181818;stroke-width:0.5;" x1="8" x2="204.9355" y1="213.47" y2="213.47"/><g data-visibility-modifier="PUBLIC_FIELD"><ellipse cx="18" cy="227.2141" fill="none" rx="3" ry="3" style="stroke:#038048;stroke-width:1;"/></g><text fill="#000000" font-family="sans-serif" font-size="14" lengthAdjust="spacing" textLength="79.8984" x="27" y="231.0052">start: String</text><g data-visibility-modifier="PUBLIC_FIELD"><ellipse cx="18" cy="243.7024" fill="none" rx="3" ry="3" style="stroke:#038048;stroke-width:1;"/></g><text fill="#000000" font-family="sans-serif" font-size="14" lengthAdjust="spacing" textLength="124.8516" x="27" y="247.4934">destination: String</text><g data-visibility-modifier="PUBLIC_FIELD"><ellipse cx="18" cy="260.1907" fill="none" rx="3" ry="3" style="stroke:#038048;stroke-width:1;"/></g><text fill="#000000" font-family="sans-serif" font-size="14" lengthAdjust="spacing" textLength="172.9355" x="27" y="263.9817">kilometersDriven: Double</text><line style="stroke:#181818;stroke-width:0.5;" x1="8" x2="204.9355" y1="270.9348" y2="270.9348"/></g><!--class MaintenanceRecord--><g class="entity" data-qualified-name="MaintenanceRecord" data-source-line="30" id="ent0007"><rect fill="#F1F1F1" height="80.9766" rx="2.5" ry="2.5" style="stroke:#181818;stroke-width:0.5;" width="164.6035" x="571.17" y="189.71"/><ellipse cx="586.17" cy="205.71" fill="#ADD1B2" rx="11" ry="11" style="stroke:#181818;stroke-width:1;"/><path d="M588.6431,211.8531 Q588.0621,212.1519 587.4229,212.3013 Q586.7838,212.4507 586.0782,212.4507 Q583.5714,212.4507 582.2515,210.7989 Q580.9317,209.147 580.9317,206.0259 Q580.9317,202.8965 582.2515,201.2447 Q583.5714,199.5928 586.0782,199.5928 Q586.7838,199.5928 587.4312,199.7422 Q588.0787,199.8916 588.6431,200.1905 L588.6431,202.9131 Q588.0123,202.3321 587.4188,202.0623 Q586.8253,201.7925 586.1944,201.7925 Q584.8497,201.7925 584.1649,202.8592 Q583.4801,203.9258 583.4801,206.0259 Q583.4801,208.1177 584.1649,209.1844 Q584.8497,210.251 586.1944,210.251 Q586.8253,210.251 587.4188,209.9812 Q588.0123,209.7115 588.6431,209.1304 Z " fill="#000000"/><text fill="#000000" font-family="sans-serif" font-size="14" lengthAdjust="spacing" textLength="132.6035" x="600.17" y="211.001">MaintenanceRecord</text><line style="stroke:#181818;stroke-width:0.5;" x1="572.17" x2="734.7735" y1="221.71" y2="221.71"/><g data-visibility-modifier="PUBLIC_FIELD"><ellipse cx="582.17" cy="235.4541" fill="none" rx="3" ry="3" style="stroke:#038048;stroke-width:1;"/></g><text fill="#000000" font-family="sans-serif" font-size="14" lengthAdjust="spacing" textLength="69.6924" x="591.17" y="239.2452">date: Date</text><g data-visibility-modifier="PUBLIC_FIELD"><ellipse cx="582.17" cy="251.9424" fill="none" rx="3" ry="3" style="stroke:#038048;stroke-width:1;"/></g><text fill="#000000" font-family="sans-serif" font-size="14" lengthAdjust="spacing" textLength="85.4355" x="591.17" y="255.7334">cost: Double</text><line style="stroke:#181818;stroke-width:0.5;" x1="572.17" x2="734.7735" y1="262.6866" y2="262.6866"/></g><!--class Workshop--><g class="entity" data-qualified-name="Workshop" data-source-line="35" id="ent0008"><rect fill="#F1F1F1" height="48" rx="2.5" ry="2.5" style="stroke:#181818;stroke-width:0.5;" width="99.7236" x="603.61" y="31.73"/><ellipse cx="618.61" cy="47.73" fill="#ADD1B2" rx="11" ry="11" style="stroke:#181818;stroke-width:1;"/><path d="M621.0831,53.8731 Q620.5021,54.1719 619.8629,54.3213 Q619.2238,54.4707 618.5182,54.4707 Q616.0114,54.4707 614.6915,52.8189 Q613.3717,51.167 613.3717,48.0459 Q613.3717,44.9165 614.6915,43.2647 Q616.0114,41.6128 618.5182,41.6128 Q619.2238,41.6128 619.8712,41.7622 Q620.5187,41.9116 621.0831,42.2105 L621.0831,44.9331 Q620.4523,44.3521 619.8588,44.0823 Q619.2653,43.8125 618.6344,43.8125 Q617.2897,43.8125 616.6049,44.8792 Q615.9201,45.9458 615.9201,48.0459 Q615.9201,50.1377 616.6049,51.2044 Q617.2897,52.271 618.6344,52.271 Q619.2653,52.271 619.8588,52.0012 Q620.4523,51.7315 621.0831,51.1504 Z " fill="#000000"/><text fill="#000000" font-family="sans-serif" font-size="14" lengthAdjust="spacing" textLength="67.7236" x="632.61" y="53.021">Workshop</text><line style="stroke:#181818;stroke-width:0.5;" x1="604.61" x2="702.3336" y1="63.73" y2="63.73"/><line style="stroke:#181818;stroke-width:0.5;" x1="604.61" x2="702.3336" y1="71.73" y2="71.73"/></g><!--reverse link Vehicle to Car--><g class="link" data-entity-1="ent0001" data-entity-2="ent0003" data-link-type="extension" data-source-line="38" id="lnk9"><path codeLine="38" d="M356.5443,120.9895 C342.2943,150.5995 332.23,171.5 319.74,197.46" fill="none" id="Vehicle-backto-Car" style="stroke:#181818;stroke-width:1;"/><polygon fill="none" points="364.35,104.77,351.1378,118.3876,361.9508,123.5914,364.35,104.77" style="stroke:#181818;stroke-width:1;stroke-linejoin:miter;stroke-miterlimit:10;"/></g><!--reverse link Vehicle to Truck--><g class="link" data-entity-1="ent0001" data-entity-2="ent0004" data-link-type="extension" data-source-line="39" id="lnk10"><path codeLine="39" d="M417.679,121.064 C431.579,150.674 441.37,171.5 453.56,197.46" fill="none" id="Vehicle-backto-Truck" style="stroke:#181818;stroke-width:1;"/><polygon fill="none" points="410.03,104.77,412.2477,123.6136,423.1103,118.5143,410.03,104.77" style="stroke:#181818;stroke-width:1;stroke-linejoin:miter;stroke-miterlimit:10;"/></g><!--link Driver to Trip--><g class="link" data-entity-1="ent0005" data-entity-2="ent0006" data-link-type="association" data-source-line="41" id="lnk11"><path codeLine="41" d="M99.65,80.1 C98.42,99.28 97.22,127.14 98.47,151.47 C98.96,161.08 99.8,171.35 100.75,181.16" fill="none" id="Driver-Trip" style="stroke:#181818;stroke-width:1;"/><text fill="#000000" font-family="sans-serif" font-size="13" lengthAdjust="spacing" textLength="70.3892" x="99.47" y="148.0384">undertakes</text><text fill="#000000" font-family="sans-serif" font-size="13" lengthAdjust="spacing" textLength="8.2202" x="90.2587" y="100.4745">1</text><text fill="#000000" font-family="sans-serif" font-size="13" lengthAdjust="spacing" textLength="22.7119" x="76.4491" y="170.7989">0..*</text></g><!--link Vehicle to Trip--><g class="link" data-entity-1="ent0001" data-entity-2="ent0006" data-link-type="association" data-source-line="42" id="lnk12"><path codeLine="42" d="M309.19,104.77 C270.38,128.59 223.63,157.29 184.81,181.12" fill="none" id="Vehicle-Trip" style="stroke:#181818;stroke-width:1;"/><text fill="#000000" font-family="sans-serif" font-size="13" lengthAdjust="spacing" textLength="69.8306" x="256.39" y="148.0384">documents</text><text fill="#000000" font-family="sans-serif" font-size="13" lengthAdjust="spacing" textLength="8.2202" x="290.1484" y="124.9565">1</text><text fill="#000000" font-family="sans-serif" font-size="13" lengthAdjust="spacing" textLength="22.7119" x="172.3301" y="170.7533">0..*</text></g><!--reverse link Vehicle to MaintenanceRecord--><g class="link" data-entity-1="ent0001" data-entity-2="ent0007" data-link-type="composition" data-source-line="44" id="lnk13"><path codeLine="44" d="M471.6283,111.2991 C512.6783,137.9191 553.03,164.08 591.89,189.27" fill="none" id="Vehicle-backto-MaintenanceRecord" style="stroke:#181818;stroke-width:1;"/><polygon fill="#181818" points="461.56,104.77,464.4178,111.3906,471.6283,111.2991,468.7705,104.6784,461.56,104.77" style="stroke:#181818;stroke-width:1;stroke-linejoin:miter;stroke-miterlimit:10;"/><text fill="#000000" font-family="sans-serif" font-size="13" lengthAdjust="spacing" textLength="21.874" x="529.44" y="148.0384">has</text><text fill="#000000" font-family="sans-serif" font-size="13" lengthAdjust="spacing" textLength="8.2202" x="462.9931" y="124.9565">1</text><text fill="#000000" font-family="sans-serif" font-size="13" lengthAdjust="spacing" textLength="22.7119" x="557.9276" y="178.8431">0..*</text></g><!--link Workshop to MaintenanceRecord--><g class="link" data-entity-1="ent0008" data-entity-2="ent0007" data-link-type="association" data-source-line="45" id="lnk14"><path codeLine="45" d="M653.47,79.99 C653.47,108.04 653.47,155.61 653.47,189.5" fill="none" id="Workshop-MaintenanceRecord" style="stroke:#181818;stroke-width:1;"/><text fill="#000000" font-family="sans-serif" font-size="13" lengthAdjust="spacing" textLength="57.5923" x="654.47" y="148.0384">performs</text><text fill="#000000" font-family="sans-serif" font-size="13" lengthAdjust="spacing" textLength="8.2202" x="644.5214" y="100.3377">1</text><text fill="#000000" font-family="sans-serif" font-size="13" lengthAdjust="spacing" textLength="22.7119" x="629.7068" y="179.1112">0..*</text></g><?plantuml-src RL7BQiCm4BphAuIFAGdjrVJYneOQ4gSa8Js6ZRn9X6N9QDU5qlRVwqTU9ha8pJ0xEoF1ZjY3OgaC4CaD7hKoA7-4b4z6AxI47mOOGxbYh-sXvKjj40uDbLfkCJ5mJU5vUDL1yIS4sheSifrnj8dIMVGsIvhx8jkktvFjSX753KgpxJnAitMIHTaqQItwM5FmVIH2uAchBVVBBuArhrNHIohuDWxoKCQktXcyQcAllx3rkPdIrScNmVDjnno9jGNMpjxIXJQkH4PFdPkztp87RHajM8LBLCxd_OAyUyEuELka7F7zwAVp1HrTrKSyVyNhxtZSFi2Gw0eBSUeKl0Io8OFdoMGKzBL2MTiSFKE1T1bzgCkTgakqJ6AW6rs5zvr2UGGIby13tqVo2ltU-PB-0G00?></g></svg>