<svg xmlns="http://www.w3.org/2000/svg" xmlns:xlink="http://www.w3.org/1999/xlink" contentStyleType="text/css" data-diagram-type="CLASS" height="543px" preserveAspectRatio="none" style="width:1298px;height:543px;background:#FFFFFF;" version="1.1" viewBox="0 0 1298 543" width="1298px" zoomAndPan="magnify"><?plantuml 1.2026.6?><defs/><g><!--class Category--><g class="entity" data-qualified-name="Category" data-source-line="2" id="ent0001"><rect fill="#F1F1F1" height="64.4883" rx="2.5" ry="2.5" style="stroke:#181818;stroke-width:0.5;" width="112.1191" x="7" y="132"/><ellipse cx="30.6818" cy="148" fill="#ADD1B2" rx="11" ry="11" style="stroke:#181818;stroke-width:1;"/><path d="M33.155,154.1431 Q32.5739,154.4419 31.9348,154.5913 Q31.2956,154.7407 30.59,154.7407 Q28.0832,154.7407 26.7634,153.0889 Q25.4436,151.437 25.4436,148.3159 Q25.4436,145.1865 26.7634,143.5347 Q28.0832,141.8828 30.59,141.8828 Q31.2956,141.8828 31.9431,142.0322 Q32.5905,142.1816 33.155,142.4805 L33.155,145.2031 Q32.5241,144.6221 31.9306,144.3523 Q31.3371,144.0825 30.7063,144.0825 Q29.3615,144.0825 28.6767,145.1492 Q27.9919,146.2158 27.9919,148.3159 Q27.9919,150.4077 28.6767,151.4744 Q29.3615,152.541 30.7063,152.541 Q31.3371,152.541 31.9306,152.2712 Q32.5241,152.0015 33.155,151.4204 Z " fill="#000000"/><text fill="#000000" font-family="sans-serif" font-size="14" lengthAdjust="spacing" textLength="60.8262" x="46.6111" y="153.291">Category</text><line style="stroke:#181818;stroke-width:0.5;" x1="8" x2="118.1191" y1="164" y2="164"/><g data-visibility-modifier="PUBLIC_FIELD"><ellipse cx="18" cy="177.7441" fill="none" rx="3" ry="3" style="stroke:#038048;stroke-width:1;"/></g><text fill="#000000" font-family="sans-serif" font-size="14" lengthAdjust="spacing" textLength="86.1191" x="27" y="181.5352">name: String</text><line style="stroke:#181818;stroke-width:0.5;" x1="8" x2="118.1191" y1="188.4883" y2="188.4883"/></g><!--class Product--><g class="entity" data-qualified-name="Product" data-source-line="6" id="ent0002"><rect fill="#F1F1F1" height="64.4883" rx="2.5" ry="2.5" style="stroke:#181818;stroke-width:0.5;" width="112.1191" x="135" y="281.73"/><ellipse cx="162.6655" cy="297.73" fill="#ADD1B2" rx="11" ry="11" style="stroke:#181818;stroke-width:1;"/><path d="M165.1386,303.8731 Q164.5576,304.1719 163.9184,304.3213 Q163.2792,304.4707 162.5737,304.4707 Q160.0668,304.4707 158.747,302.8189 Q157.4272,301.167 157.4272,298.0459 Q157.4272,294.9165 158.747,293.2647 Q160.0668,291.6128 162.5737,291.6128 Q163.2792,291.6128 163.9267,291.7622 Q164.5742,291.9116 165.1386,292.2105 L165.1386,294.9331 Q164.5078,294.3521 163.9143,294.0823 Q163.3208,293.8125 162.6899,293.8125 Q161.3452,293.8125 160.6604,294.8792 Q159.9755,295.9458 159.9755,298.0459 Q159.9755,300.1377 160.6604,301.2044 Q161.3452,302.271 162.6899,302.271 Q163.3208,302.271 163.9143,302.0012 Q164.5078,301.7315 165.1386,301.1504 Z " fill="#000000"/><text fill="#000000" font-family="sans-serif" font-size="14" lengthAdjust="spacing" textLength="51.9736" x="179.48" y="303.021">Product</text><line style="stroke:#181818;stroke-width:0.5;" x1="136" x2="246.1191" y1="313.73" y2="313.73"/><g data-visibility-modifier="PUBLIC_FIELD"><ellipse cx="146" cy="327.4741" fill="none" rx="3" ry="3" style="stroke:#038048;stroke-width:1;"/></g><text fill="#000000" font-family="sans-serif" font-size="14" lengthAdjust="spacing" textLength="86.1191" x="155" y="331.2652">name: String</text><line style="stroke:#181818;stroke-width:0.5;" x1="136" x2="246.1191" y1="338.2183" y2="338.2183"/></g><!--class ProductVariant--><g class="entity" data-qualified-name="ProductVariant" data-source-line="10" id="ent0003"><rect fill="#F1F1F1" height="97.4648" rx="2.5" ry="2.5" style="stroke:#181818;stroke-width:0.5;" width="171.0313" x="297.54" y="431.47"/><ellipse cx="329.9735" cy="447.47" fill="#ADD1B2" rx="11" ry="11" style="stroke:#181818;stroke-width:1;"/><path d="M332.4467,453.6131 Q331.8656,453.9119 331.2265,454.0613 Q330.5873,454.2107 329.8817,454.2107 Q327.3749,454.2107 326.0551,452.5589 Q324.7353,450.907 324.7353,447.7859 Q324.7353,444.6565 326.0551,443.0047 Q327.3749,441.3528 329.8817,441.3528 Q330.5873,441.3528 331.2348,441.5022 Q331.8822,441.6516 332.4467,441.9505 L332.4467,444.6731 Q331.8158,444.0921 331.2223,443.8223 Q330.6288,443.5525 329.998,443.5525 Q328.6532,443.5525 327.9684,444.6192 Q327.2836,445.6858 327.2836,447.7859 Q327.2836,449.8777 327.9684,450.9444 Q328.6532,452.011 329.998,452.011 Q330.6288,452.011 331.2223,451.7412 Q331.8158,451.4715 332.4467,450.8904 Z " fill="#000000"/><text fill="#000000" font-family="sans-serif" font-size="14" lengthAdjust="spacing" textLength="100.29" x="347.8477" y="452.761">ProductVariant</text><line style="stroke:#181818;stroke-width:0.5;" x1="298.54" x2="467.5713" y1="463.47" y2="463.47"/><g data-visibility-modifier="PUBLIC_FIELD"><ellipse cx="308.54" cy="477.2141" fill="none" rx="3" ry="3" style="stroke:#038048;stroke-width:1;"/></g><text fill="#000000" font-family="sans-serif" font-size="14" lengthAdjust="spacing" textLength="145.0313" x="317.54" y="481.0052">articleNumber: String</text><g data-visibility-modifier="PUBLIC_FIELD"><ellipse cx="308.54" cy="493.7024" fill="none" rx="3" ry="3" style="stroke:#038048;stroke-width:1;"/></g><text fill="#000000" font-family="sans-serif" font-size="14" lengthAdjust="spacing" textLength="75.8379" x="317.54" y="497.4934">size: String</text><g data-visibility-modifier="PUBLIC_FIELD"><ellipse cx="308.54" cy="510.1907" fill="none" rx="3" ry="3" style="stroke:#038048;stroke-width:1;"/></g><text fill="#000000" font-family="sans-serif" font-size="14" lengthAdjust="spacing" textLength="82.9746" x="317.54" y="513.9817">color: String</text><line style="stroke:#181818;stroke-width:0.5;" x1="298.54" x2="467.5713" y1="520.9348" y2="520.9348"/></g><!--class Customer--><g class="entity" data-qualified-name="Customer" data-source-line="16" id="ent0004"><rect fill="#F1F1F1" height="48" rx="2.5" ry="2.5" style="stroke:#181818;stroke-width:0.5;" width="97.9463" x="451.09" y="7"/><ellipse cx="466.09" cy="23" fill="#ADD1B2" rx="11" ry="11" style="stroke:#181818;stroke-width:1;"/><path d="M468.5631,29.1431 Q467.9821,29.4419 467.3429,29.5913 Q466.7038,29.7407 465.9982,29.7407 Q463.4914,29.7407 462.1715,28.0889 Q460.8517,26.437 460.8517,23.3159 Q460.8517,20.1865 462.1715,18.5347 Q463.4914,16.8828 465.9982,16.8828 Q466.7038,16.8828 467.3512,17.0322 Q467.9987,17.1816 468.5631,17.4805 L468.5631,20.2031 Q467.9323,19.6221 467.3388,19.3523 Q466.7453,19.0825 466.1144,19.0825 Q464.7697,19.0825 464.0849,20.1492 Q463.4001,21.2158 463.4001,23.3159 Q463.4001,25.4077 464.0849,26.4744 Q464.7697,27.541 466.1144,27.541 Q466.7453,27.541 467.3388,27.2712 Q467.9323,27.0015 468.5631,26.4204 Z " fill="#000000"/><text fill="#000000" font-family="sans-serif" font-size="14" lengthAdjust="spacing" textLength="65.9463" x="480.09" y="28.291">Customer</text><line style="stroke:#181818;stroke-width:0.5;" x1="452.09" x2="548.0363" y1="39" y2="39"/><line style="stroke:#181818;stroke-width:0.5;" x1="452.09" x2="548.0363" y1="47" y2="47"/></g><!--class Address--><g class="entity" data-qualified-name="Address" data-source-line="19" id="ent0005"><rect fill="#F1F1F1" height="48" rx="2.5" ry="2.5" style="stroke:#181818;stroke-width:0.5;" width="87.084" x="605.52" y="456.2"/><ellipse cx="620.52" cy="472.2" fill="#ADD1B2" rx="11" ry="11" style="stroke:#181818;stroke-width:1;"/><path d="M622.9931,478.3431 Q622.4121,478.6419 621.7729,478.7913 Q621.1338,478.9407 620.4282,478.9407 Q617.9214,478.9407 616.6015,477.2889 Q615.2817,475.637 615.2817,472.5159 Q615.2817,469.3865 616.6015,467.7347 Q617.9214,466.0828 620.4282,466.0828 Q621.1338,466.0828 621.7812,466.2322 Q622.4287,466.3816 622.9931,466.6805 L622.9931,469.4031 Q622.3623,468.8221 621.7688,468.5523 Q621.1753,468.2825 620.5444,468.2825 Q619.1997,468.2825 618.5149,469.3492 Q617.8301,470.4158 617.8301,472.5159 Q617.8301,474.6077 618.5149,475.6744 Q619.1997,476.741 620.5444,476.741 Q621.1753,476.741 621.7688,476.4712 Q622.3623,476.2015 622.9931,475.6204 Z " fill="#000000"/><text fill="#000000" font-family="sans-serif" font-size="14" lengthAdjust="spacing" textLength="55.084" x="634.52" y="477.491">Address</text><line style="stroke:#181818;stroke-width:0.5;" x1="606.52" x2="691.604" y1="488.2" y2="488.2"/><line style="stroke:#181818;stroke-width:0.5;" x1="606.52" x2="691.604" y1="496.2" y2="496.2"/></g><!--class ShoppingCart--><g class="entity" data-qualified-name="ShoppingCart" data-source-line="22" id="ent0006"><rect fill="#F1F1F1" height="64.4883" rx="2.5" ry="2.5" style="stroke:#181818;stroke-width:0.5;" width="127.6094" x="319.25" y="132"/><ellipse cx="335.7397" cy="148" fill="#ADD1B2" rx="11" ry="11" style="stroke:#181818;stroke-width:1;"/><path d="M338.2129,154.1431 Q337.6318,154.4419 336.9927,154.5913 Q336.3535,154.7407 335.6479,154.7407 Q333.1411,154.7407 331.8213,153.0889 Q330.5015,151.437 330.5015,148.3159 Q330.5015,145.1865 331.8213,143.5347 Q333.1411,141.8828 335.6479,141.8828 Q336.3535,141.8828 337.001,142.0322 Q337.6484,142.1816 338.2129,142.4805 L338.2129,145.2031 Q337.582,144.6221 336.9885,144.3523 Q336.395,144.0825 335.7642,144.0825 Q334.4194,144.0825 333.7346,145.1492 Q333.0498,146.2158 333.0498,148.3159 Q333.0498,150.4077 333.7346,151.4744 Q334.4194,152.541 335.7642,152.541 Q336.395,152.541 336.9885,152.2712 Q337.582,152.0015 338.2129,151.4204 Z " fill="#000000"/><text fill="#000000" font-family="sans-serif" font-size="14" lengthAdjust="spacing" textLength="92.2988" x="350.0708" y="153.291">ShoppingCart</text><line style="stroke:#181818;stroke-width:0.5;" x1="320.25" x2="445.8594" y1="164" y2="164"/><g data-visibility-modifier="PUBLIC_FIELD"><ellipse cx="330.25" cy="177.7441" fill="none" rx="3" ry="3" style="stroke:#038048;stroke-width:1;"/></g><text fill="#000000" font-family="sans-serif" font-size="14" lengthAdjust="spacing" textLength="101.6094" x="339.25" y="181.5352">active: Boolean</text><line style="stroke:#181818;stroke-width:0.5;" x1="320.25" x2="445.8594" y1="188.4883" y2="188.4883"/></g><!--class CartLineItem--><g class="entity" data-qualified-name="CartLineItem" data-source-line="26" id="ent0007"><rect fill="#F1F1F1" height="64.4883" rx="2.5" ry="2.5" style="stroke:#181818;stroke-width:0.5;" width="118.5225" x="323.8" y="281.73"/><ellipse cx="338.8" cy="297.73" fill="#ADD1B2" rx="11" ry="11" style="stroke:#181818;stroke-width:1;"/><path d="M341.2731,303.8731 Q340.6921,304.1719 340.0529,304.3213 Q339.4138,304.4707 338.7082,304.4707 Q336.2014,304.4707 334.8815,302.8189 Q333.5617,301.167 333.5617,298.0459 Q333.5617,294.9165 334.8815,293.2647 Q336.2014,291.6128 338.7082,291.6128 Q339.4138,291.6128 340.0612,291.7622 Q340.7087,291.9116 341.2731,292.2105 L341.2731,294.9331 Q340.6423,294.3521 340.0488,294.0823 Q339.4553,293.8125 338.8244,293.8125 Q337.4797,293.8125 336.7949,294.8792 Q336.1101,295.9458 336.1101,298.0459 Q336.1101,300.1377 336.7949,301.2044 Q337.4797,302.271 338.8244,302.271 Q339.4553,302.271 340.0488,302.0012 Q340.6423,301.7315 341.2731,301.1504 Z " fill="#000000"/><text fill="#000000" font-family="sans-serif" font-size="14" lengthAdjust="spacing" textLength="86.5225" x="352.8" y="303.021">CartLineItem</text><line style="stroke:#181818;stroke-width:0.5;" x1="324.8" x2="441.3225" y1="313.73" y2="313.73"/><g data-visibility-modifier="PUBLIC_FIELD"><ellipse cx="334.8" cy="327.4741" fill="none" rx="3" ry="3" style="stroke:#038048;stroke-width:1;"/></g><text fill="#000000" font-family="sans-serif" font-size="14" lengthAdjust="spacing" textLength="82.5713" x="343.8" y="331.2652">quantity: Int</text><line style="stroke:#181818;stroke-width:0.5;" x1="324.8" x2="441.3225" y1="338.2183" y2="338.2183"/></g><!--class Order--><g class="entity" data-qualified-name="Order" data-source-line="30" id="ent0008"><rect fill="#F1F1F1" height="64.4883" rx="2.5" ry="2.5" style="stroke:#181818;stroke-width:0.5;" width="115.9951" x="652.06" y="132"/><ellipse cx="687.3329" cy="148" fill="#ADD1B2" rx="11" ry="11" style="stroke:#181818;stroke-width:1;"/><path d="M689.806,154.1431 Q689.2249,154.4419 688.5858,154.5913 Q687.9466,154.7407 687.2411,154.7407 Q684.7342,154.7407 683.4144,153.0889 Q682.0946,151.437 682.0946,148.3159 Q682.0946,145.1865 683.4144,143.5347 Q684.7342,141.8828 687.2411,141.8828 Q687.9466,141.8828 688.5941,142.0322 Q689.2415,142.1816 689.806,142.4805 L689.806,145.2031 Q689.1751,144.6221 688.5816,144.3523 Q687.9881,144.0825 687.3573,144.0825 Q686.0125,144.0825 685.3277,145.1492 Q684.6429,146.2158 684.6429,148.3159 Q684.6429,150.4077 685.3277,151.4744 Q686.0125,152.541 687.3573,152.541 Q687.9881,152.541 688.5816,152.2712 Q689.1751,152.0015 689.806,151.4204 Z " fill="#000000"/><text fill="#000000" font-family="sans-serif" font-size="14" lengthAdjust="spacing" textLength="38.9443" x="705.8379" y="153.291">Order</text><line style="stroke:#181818;stroke-width:0.5;" x1="653.06" x2="767.0551" y1="164" y2="164"/><g data-visibility-modifier="PUBLIC_FIELD"><ellipse cx="663.06" cy="177.7441" fill="none" rx="3" ry="3" style="stroke:#038048;stroke-width:1;"/></g><text fill="#000000" font-family="sans-serif" font-size="14" lengthAdjust="spacing" textLength="89.9951" x="672.06" y="181.5352">status: String</text><line style="stroke:#181818;stroke-width:0.5;" x1="653.06" x2="767.0551" y1="188.4883" y2="188.4883"/></g><!--class OrderLineItem--><g class="entity" data-qualified-name="OrderLineItem" data-source-line="34" id="ent0009"><rect fill="#F1F1F1" height="64.4883" rx="2.5" ry="2.5" style="stroke:#181818;stroke-width:0.5;" width="129.084" x="553.52" y="281.73"/><ellipse cx="568.52" cy="297.73" fill="#ADD1B2" rx="11" ry="11" style="stroke:#181818;stroke-width:1;"/><path d="M570.9931,303.8731 Q570.4121,304.1719 569.7729,304.3213 Q569.1338,304.4707 568.4282,304.4707 Q565.9214,304.4707 564.6015,302.8189 Q563.2817,301.167 563.2817,298.0459 Q563.2817,294.9165 564.6015,293.2647 Q565.9214,291.6128 568.4282,291.6128 Q569.1338,291.6128 569.7812,291.7622 Q570.4287,291.9116 570.9931,292.2105 L570.9931,294.9331 Q570.3623,294.3521 569.7688,294.0823 Q569.1753,293.8125 568.5444,293.8125 Q567.1997,293.8125 566.5149,294.8792 Q565.8301,295.9458 565.8301,298.0459 Q565.8301,300.1377 566.5149,301.2044 Q567.1997,302.271 568.5444,302.271 Q569.1753,302.271 569.7688,302.0012 Q570.3623,301.7315 570.9931,301.1504 Z " fill="#000000"/><text fill="#000000" font-family="sans-serif" font-size="14" lengthAdjust="spacing" textLength="97.084" x="582.52" y="303.021">OrderLineItem</text><line style="stroke:#181818;stroke-width:0.5;" x1="554.52" x2="681.604" y1="313.73" y2="313.73"/><g data-visibility-modifier="PUBLIC_FIELD"><ellipse cx="564.52" cy="327.4741" fill="none" rx="3" ry="3" style="stroke:#038048;stroke-width:1;"/></g><text fill="#000000" font-family="sans-serif" font-size="14" lengthAdjust="spacing" textLength="82.5713" x="573.52" y="331.2652">quantity: Int</text><line style="stroke:#181818;stroke-width:0.5;" x1="554.52" x2="681.604" y1="338.2183" y2="338.2183"/></g><!--class Payment--><g class="entity" data-qualified-name="Payment" data-source-line="38" id="ent0010"><rect fill="#F1F1F1" height="80.9766" rx="2.5" ry="2.5" style="stroke:#181818;stroke-width:0.5;" width="175.0508" x="937.53" y="273.49"/><ellipse cx="992.0158" cy="289.49" fill="#A9DCDF" rx="11" ry="11" style="stroke:#181818;stroke-width:1;"/><path d="M991.8791,284.8381 L990.7253,289.9099 L993.0412,289.9099 Z M990.385,282.5969 L993.3816,282.5969 L996.7268,294.99 L994.278,294.99 L993.5144,291.927 L990.2356,291.927 L989.4885,294.99 L987.0398,294.99 Z " fill="#000000"/><text fill="#000000" font-family="sans-serif" font-size="14" font-style="italic" lengthAdjust="spacing" textLength="57.5791" x="1012.5158" y="294.781">Payment</text><line style="stroke:#181818;stroke-width:0.5;" x1="938.53" x2="1111.5808" y1="305.49" y2="305.49"/><g data-visibility-modifier="PUBLIC_FIELD"><ellipse cx="948.53" cy="319.2341" fill="none" rx="3" ry="3" style="stroke:#038048;stroke-width:1;"/></g><text fill="#000000" font-family="sans-serif" font-size="14" lengthAdjust="spacing" textLength="109.3066" x="957.53" y="323.0252">amount: Double</text><g data-visibility-modifier="PUBLIC_FIELD"><ellipse cx="948.53" cy="335.7224" fill="none" rx="3" ry="3" style="stroke:#038048;stroke-width:1;"/></g><text fill="#000000" font-family="sans-serif" font-size="14" lengthAdjust="spacing" textLength="149.0508" x="957.53" y="339.5134">paymentStatus: String</text><line style="stroke:#181818;stroke-width:0.5;" x1="938.53" x2="1111.5808" y1="346.4666" y2="346.4666"/></g><!--class CreditCardPayment--><g class="entity" data-qualified-name="CreditCardPayment" data-source-line="43" id="ent0011"><rect fill="#F1F1F1" height="48" rx="2.5" ry="2.5" style="stroke:#181818;stroke-width:0.5;" width="162.8467" x="1120.64" y="140.24"/><ellipse cx="1135.64" cy="156.24" fill="#ADD1B2" rx="11" ry="11" style="stroke:#181818;stroke-width:1;"/><path d="M1138.1131,162.3831 Q1137.5321,162.6819 1136.8929,162.8313 Q1136.2538,162.9807 1135.5482,162.9807 Q1133.0414,162.9807 1131.7215,161.3289 Q1130.4017,159.677 1130.4017,156.5559 Q1130.4017,153.4265 1131.7215,151.7747 Q1133.0414,150.1228 1135.5482,150.1228 Q1136.2538,150.1228 1136.9012,150.2722 Q1137.5487,150.4216 1138.1131,150.7205 L1138.1131,153.4431 Q1137.4823,152.8621 1136.8888,152.5923 Q1136.2953,152.3225 1135.6644,152.3225 Q1134.3197,152.3225 1133.6349,153.3892 Q1132.9501,154.4558 1132.9501,156.5559 Q1132.9501,158.6477 1133.6349,159.7144 Q1134.3197,160.781 1135.6644,160.781 Q1136.2953,160.781 1136.8888,160.5112 Q1137.4823,160.2415 1138.1131,159.6604 Z " fill="#000000"/><text fill="#000000" font-family="sans-serif" font-size="14" lengthAdjust="spacing" textLength="130.8467" x="1149.64" y="161.531">CreditCardPayment</text><line style="stroke:#181818;stroke-width:0.5;" x1="1121.64" x2="1282.4867" y1="172.24" y2="172.24"/><line style="stroke:#181818;stroke-width:0.5;" x1="1121.64" x2="1282.4867" y1="180.24" y2="180.24"/></g><!--class PayPalPayment--><g class="entity" data-qualified-name="PayPalPayment" data-source-line="46" id="ent0012"><rect fill="#F1F1F1" height="48" rx="2.5" ry="2.5" style="stroke:#181818;stroke-width:0.5;" width="131.8799" x="954.12" y="140.24"/><ellipse cx="969.12" cy="156.24" fill="#ADD1B2" rx="11" ry="11" style="stroke:#181818;stroke-width:1;"/><path d="M971.5931,162.3831 Q971.0121,162.6819 970.3729,162.8313 Q969.7338,162.9807 969.0282,162.9807 Q966.5214,162.9807 965.2015,161.3289 Q963.8817,159.677 963.8817,156.5559 Q963.8817,153.4265 965.2015,151.7747 Q966.5214,150.1228 969.0282,150.1228 Q969.7338,150.1228 970.3812,150.2722 Q971.0287,150.4216 971.5931,150.7205 L971.5931,153.4431 Q970.9623,152.8621 970.3688,152.5923 Q969.7753,152.3225 969.1444,152.3225 Q967.7997,152.3225 967.1149,153.3892 Q966.4301,154.4558 966.4301,156.5559 Q966.4301,158.6477 967.1149,159.7144 Q967.7997,160.781 969.1444,160.781 Q969.7753,160.781 970.3688,160.5112 Q970.9623,160.2415 971.5931,159.6604 Z " fill="#000000"/><text fill="#000000" font-family="sans-serif" font-size="14" lengthAdjust="spacing" textLength="99.8799" x="983.12" y="161.531">PayPalPayment</text><line style="stroke:#181818;stroke-width:0.5;" x1="955.12" x2="1084.9999" y1="172.24" y2="172.24"/><line style="stroke:#181818;stroke-width:0.5;" x1="955.12" x2="1084.9999" y1="180.24" y2="180.24"/></g><!--class Shipment--><g class="entity" data-qualified-name="Shipment" data-source-line="49" id="ent0013"><rect fill="#F1F1F1" height="64.4883" rx="2.5" ry="2.5" style="stroke:#181818;stroke-width:0.5;" width="184.7852" x="717.67" y="281.73"/><ellipse cx="773.8717" cy="297.73" fill="#ADD1B2" rx="11" ry="11" style="stroke:#181818;stroke-width:1;"/><path d="M776.3448,303.8731 Q775.7638,304.1719 775.1246,304.3213 Q774.4854,304.4707 773.7799,304.4707 Q771.273,304.4707 769.9532,302.8189 Q768.6334,301.167 768.6334,298.0459 Q768.6334,294.9165 769.9532,293.2647 Q771.273,291.6128 773.7799,291.6128 Q774.4854,291.6128 775.1329,291.7622 Q775.7804,291.9116 776.3448,292.2105 L776.3448,294.9331 Q775.7139,294.3521 775.1204,294.0823 Q774.5269,293.8125 773.8961,293.8125 Q772.5513,293.8125 771.8665,294.8792 Q771.1817,295.9458 771.1817,298.0459 Q771.1817,300.1377 771.8665,301.2044 Q772.5513,302.271 773.8961,302.271 Q774.5269,302.271 775.1204,302.0012 Q775.7139,301.7315 776.3448,301.1504 Z " fill="#000000"/><text fill="#000000" font-family="sans-serif" font-size="14" lengthAdjust="spacing" textLength="63.8818" x="794.3717" y="303.021">Shipment</text><line style="stroke:#181818;stroke-width:0.5;" x1="718.67" x2="901.4552" y1="313.73" y2="313.73"/><g data-visibility-modifier="PUBLIC_FIELD"><ellipse cx="728.67" cy="327.4741" fill="none" rx="3" ry="3" style="stroke:#038048;stroke-width:1;"/></g><text fill="#000000" font-family="sans-serif" font-size="14" lengthAdjust="spacing" textLength="158.7852" x="737.67" y="331.2652">trackingNumber: String</text><line style="stroke:#181818;stroke-width:0.5;" x1="718.67" x2="901.4552" y1="338.2183" y2="338.2183"/></g><!--link Category to Category--><g class="link" data-entity-1="ent0001" data-entity-2="ent0001" data-link-type="association" data-source-line="53" id="lnk14"><path codeLine="53" d="M119.53,150.98 C138.7,150.91 154.12,155.33 154.12,164.24 C154.12,173.16 138.7,177.58 119.53,177.51" fill="none" id="Category-Category" style="stroke:#181818;stroke-width:1;"/><text fill="#000000" font-family="sans-serif" font-size="13" lengthAdjust="spacing" textLength="135.5288" x="160.12" y="169.3084">parent/subcategories</text><text fill="#000000" font-family="sans-serif" font-size="13" lengthAdjust="spacing" textLength="24.667" x="127.0554" y="146.2943">0..1</text><text fill="#000000" font-family="sans-serif" font-size="13" lengthAdjust="spacing" textLength="22.7119" x="126.9485" y="175.726">0..*</text></g><!--reverse link Category to Product--><g class="link" data-entity-1="ent0001" data-entity-2="ent0002" data-link-type="composition" data-source-line="54" id="lnk15"><path codeLine="54" d="M98.3797,206.0078 C119.9797,230.9278 142.06,256.42 163.65,281.34" fill="none" id="Category-backto-Product" style="stroke:#181818;stroke-width:1;"/><polygon fill="#181818" points="90.52,196.94,91.4273,204.0938,98.3797,206.0078,97.4725,198.854,90.52,196.94" style="stroke:#181818;stroke-width:1;stroke-linejoin:miter;stroke-miterlimit:10;"/><text fill="#000000" font-family="sans-serif" font-size="13" lengthAdjust="spacing" textLength="53.2061" x="128.06" y="240.0584">contains</text><text fill="#000000" font-family="sans-serif" font-size="13" lengthAdjust="spacing" textLength="8.2202" x="86.8658" y="216.9481">1</text><text fill="#000000" font-family="sans-serif" font-size="13" lengthAdjust="spacing" textLength="22.7119" x="134.1582" y="271.0375">0..*</text></g><!--reverse link Product to ProductVariant--><g class="link" data-entity-1="ent0002" data-entity-2="ent0003" data-link-type="composition" data-source-line="55" id="lnk16"><path codeLine="55" d="M237.1991,354.4401 C265.1991,378.3901 295.02,403.9 326.86,431.13" fill="none" id="Product-backto-ProductVariant" style="stroke:#181818;stroke-width:1;"/><polygon fill="#181818" points="228.08,346.64,230.0395,353.5798,237.1991,354.4401,235.2396,347.5003,228.08,346.64" style="stroke:#181818;stroke-width:1;stroke-linejoin:miter;stroke-miterlimit:10;"/><text fill="#000000" font-family="sans-serif" font-size="13" lengthAdjust="spacing" textLength="49.7212" x="288.06" y="398.0384">variants</text><text fill="#000000" font-family="sans-serif" font-size="13" lengthAdjust="spacing" textLength="8.2202" x="226.3955" y="366.8946">1</text><text fill="#000000" font-family="sans-serif" font-size="13" lengthAdjust="spacing" textLength="22.7119" x="295.4607" y="420.7647">1..*</text></g><!--reverse link Customer to Address--><g class="link" data-entity-1="ent0004" data-entity-2="ent0005" data-link-type="composition" data-source-line="57" id="lnk17"><path codeLine="57" d="M492.0389,67.0743 C478.8289,128.8043 453.78,287.69 522.06,401.47 C540.55,432.28 576.4,452.54 605.31,464.64" fill="none" id="Customer-backto-Address" style="stroke:#181818;stroke-width:1;"/><polygon fill="#181818" points="494.55,55.34,489.383,60.3701,492.0389,67.0743,497.2059,62.0442,494.55,55.34" style="stroke:#181818;stroke-width:1;stroke-linejoin:miter;stroke-miterlimit:10;"/><text fill="#000000" font-family="sans-serif" font-size="13" lengthAdjust="spacing" textLength="61.6357" x="479.59" y="240.0584">maintains</text><text fill="#000000" font-family="sans-serif" font-size="13" lengthAdjust="spacing" textLength="8.2202" x="484.258" y="75.7072">1</text><text fill="#000000" font-family="sans-serif" font-size="13" lengthAdjust="spacing" textLength="22.7119" x="574.6406" y="458.5579">0..*</text></g><!--reverse link Customer to ShoppingCart--><g class="link" data-entity-1="ent0004" data-entity-2="ent0006" data-link-type="aggregation" data-source-line="58" id="lnk18"><path codeLine="58" d="M440.4908,58.5289 C425.6808,66.7589 420.96,71.66 410.06,85 C399.14,98.35 392.53,116.38 388.58,131.76" fill="none" id="Customer-backto-ShoppingCart" style="stroke:#181818;stroke-width:1;"/><polygon fill="none" points="450.98,52.7,443.7924,52.1181,440.4908,58.5289,447.6784,59.1109,450.98,52.7" style="stroke:#181818;stroke-width:1;stroke-linejoin:miter;stroke-miterlimit:10;"/><text fill="#000000" font-family="sans-serif" font-size="13" lengthAdjust="spacing" textLength="62.7847" x="411.06" y="98.5684">activeCart</text><text fill="#000000" font-family="sans-serif" font-size="13" lengthAdjust="spacing" textLength="8.2202" x="434.8685" y="52.4665">1</text><text fill="#000000" font-family="sans-serif" font-size="13" lengthAdjust="spacing" textLength="24.667" x="363.3134" y="121.1137">0..1</text></g><!--reverse link Customer to Order--><g class="link" data-entity-1="ent0004" data-entity-2="ent0008" data-link-type="aggregation" data-source-line="59" id="lnk19"><path codeLine="59" d="M547.7756,61.8205 C581.7556,83.0605 621.9,108.15 659.43,131.6" fill="none" id="Customer-backto-Order" style="stroke:#181818;stroke-width:1;"/><polygon fill="none" points="537.6,55.46,540.5676,62.0321,547.7756,61.8205,544.808,55.2484,537.6,55.46" style="stroke:#181818;stroke-width:1;stroke-linejoin:miter;stroke-miterlimit:10;"/><text fill="#000000" font-family="sans-serif" font-size="13" lengthAdjust="spacing" textLength="39.6475" x="612.36" y="98.5684">places</text><text fill="#000000" font-family="sans-serif" font-size="13" lengthAdjust="spacing" textLength="8.2202" x="537.3809" y="75.455">1</text><text fill="#000000" font-family="sans-serif" font-size="13" lengthAdjust="spacing" textLength="22.7119" x="625.3672" y="121.2956">0..*</text></g><!--reverse link ShoppingCart to CartLineItem--><g class="link" data-entity-1="ent0006" data-entity-2="ent0007" data-link-type="composition" data-source-line="61" id="lnk20"><path codeLine="61" d="M383.06,208.94 C383.06,233.86 383.06,256.42 383.06,281.34" fill="none" id="ShoppingCart-backto-CartLineItem" style="stroke:#181818;stroke-width:1;"/><polygon fill="#181818" points="383.06,196.94,379.06,202.94,383.06,208.94,387.06,202.94,383.06,196.94" style="stroke:#181818;stroke-width:1;stroke-linejoin:miter;stroke-miterlimit:10;"/><text fill="#000000" font-family="sans-serif" font-size="13" lengthAdjust="spacing" textLength="57.4399" x="384.06" y="240.0584">lineItems</text><text fill="#000000" font-family="sans-serif" font-size="13" lengthAdjust="spacing" textLength="8.2202" x="374.3438" y="216.9481">1</text><text fill="#000000" font-family="sans-serif" font-size="13" lengthAdjust="spacing" textLength="22.7119" x="358.9642" y="271.0375">0..*</text></g><!--link CartLineItem to ProductVariant--><g class="link" data-entity-1="ent0007" data-entity-2="ent0003" data-link-type="dependency" data-source-line="62" id="lnk21"><path codeLine="62" d="M383.06,346.64 C383.06,370.59 383.06,398.9 383.06,426.13" fill="none" id="CartLineItem-to-ProductVariant" style="stroke:#181818;stroke-width:1;"/><polygon fill="#181818" points="383.06,431.13,387.06,422.13,383.06,426.13,379.06,422.13,383.06,431.13" style="stroke:#181818;stroke-width:1;stroke-linejoin:miter;stroke-miterlimit:10;"/><text fill="#000000" font-family="sans-serif" font-size="13" lengthAdjust="spacing" textLength="65.7427" x="384.06" y="398.0384">references</text><text fill="#000000" font-family="sans-serif" font-size="13" lengthAdjust="spacing" textLength="22.7119" x="359.0307" y="366.8946">0..*</text><text fill="#000000" font-family="sans-serif" font-size="13" lengthAdjust="spacing" textLength="8.2202" x="374.5136" y="420.7647">1</text></g><!--reverse link Order to OrderLineItem--><g class="link" data-entity-1="ent0008" data-entity-2="ent0009" data-link-type="composition" data-source-line="64" id="lnk22"><path codeLine="64" d="M671.7374,205.9853 C663.8274,215.1053 663.57,216.3 657.06,226.49 C646.06,243.7 636.57,264.53 629.7,281.43" fill="none" id="Order-backto-OrderLineItem" style="stroke:#181818;stroke-width:1;"/><polygon fill="#181818" points="679.6,196.92,672.6469,198.8318,671.7374,205.9853,678.6905,204.0735,679.6,196.92" style="stroke:#181818;stroke-width:1;stroke-linejoin:miter;stroke-miterlimit:10;"/><text fill="#000000" font-family="sans-serif" font-size="13" lengthAdjust="spacing" textLength="57.4399" x="658.06" y="240.0584">lineItems</text><text fill="#000000" font-family="sans-serif" font-size="13" lengthAdjust="spacing" textLength="8.2202" x="665.0525" y="217.1765">1</text><text fill="#000000" font-family="sans-serif" font-size="13" lengthAdjust="spacing" textLength="22.7119" x="607.905" y="270.7713">1..*</text></g><!--link OrderLineItem to ProductVariant--><g class="link" data-entity-1="ent0009" data-entity-2="ent0003" data-link-type="dependency" data-source-line="65" id="lnk23"><path codeLine="65" d="M572.75,346.64 C538.47,370.59 494.9086,401.0361 455.9386,428.2661" fill="none" id="OrderLineItem-to-ProductVariant" style="stroke:#181818;stroke-width:1;"/><polygon fill="#181818" points="451.84,431.13,461.5085,429.2539,455.9386,428.2661,456.9264,422.6962,451.84,431.13" style="stroke:#181818;stroke-width:1;stroke-linejoin:miter;stroke-miterlimit:10;"/><text fill="#000000" font-family="sans-serif" font-size="13" lengthAdjust="spacing" textLength="65.7427" x="515.63" y="398.0384">references</text><text fill="#000000" font-family="sans-serif" font-size="13" lengthAdjust="spacing" textLength="22.7119" x="540.0834" y="366.8946">0..*</text><text fill="#000000" font-family="sans-serif" font-size="13" lengthAdjust="spacing" textLength="8.2202" x="452.9658" y="420.7647">1</text></g><!--reverse link Order to Payment--><g class="link" data-entity-1="ent0008" data-entity-2="ent0010" data-link-type="composition" data-source-line="67" id="lnk24"><path codeLine="67" d="M779.0642,197.6061 C827.2442,220.2061 885.51,247.53 939.93,273.05" fill="none" id="Order-backto-Payment" style="stroke:#181818;stroke-width:1;"/><polygon fill="#181818" points="768.2,192.51,771.9334,198.6794,779.0642,197.6061,775.3308,191.4367,768.2,192.51" style="stroke:#181818;stroke-width:1;stroke-linejoin:miter;stroke-miterlimit:10;"/><text fill="#000000" font-family="sans-serif" font-size="13" lengthAdjust="spacing" textLength="108.3926" x="868.56" y="240.0584">paymentContract</text><text fill="#000000" font-family="sans-serif" font-size="13" lengthAdjust="spacing" textLength="8.2202" x="776.1761" y="192.7589">1</text><text fill="#000000" font-family="sans-serif" font-size="13" lengthAdjust="spacing" textLength="8.2202" x="921.0813" y="264.7351">1</text></g><!--reverse link Order to Shipment--><g class="link" data-entity-1="ent0008" data-entity-2="ent0013" data-link-type="aggregation" data-source-line="68" id="lnk25"><path codeLine="68" d="M738.2371,206.8771 C755.1071,231.7971 771.78,256.42 788.64,281.34" fill="none" id="Order-backto-Shipment" style="stroke:#181818;stroke-width:1;"/><polygon fill="none" points="731.51,196.94,731.5612,204.1509,738.2371,206.8771,738.1859,199.6662,731.51,196.94" style="stroke:#181818;stroke-width:1;stroke-linejoin:miter;stroke-miterlimit:10;"/><text fill="#000000" font-family="sans-serif" font-size="13" lengthAdjust="spacing" textLength="58.9443" x="761.06" y="240.0584">shipment</text><text fill="#000000" font-family="sans-serif" font-size="13" lengthAdjust="spacing" textLength="8.2202" x="726.7481" y="216.9481">1</text><text fill="#000000" font-family="sans-serif" font-size="13" lengthAdjust="spacing" textLength="24.667" x="758.1256" y="271.0375">0..1</text></g><!--link CreditCardPayment to Payment--><g class="link" data-entity-1="ent0011" data-entity-2="ent0010" data-link-type="extension" data-source-line="70" id="lnk26"><path codeLine="70" d="M1174.01,188.65 C1146.82,211.35 1118.8496,234.6966 1086.4496,261.7366" fill="none" id="CreditCardPayment-to-Payment" style="stroke:#181818;stroke-width:1;"/><polygon fill="none" points="1072.63,273.27,1090.2941,266.3431,1082.6051,257.1301,1072.63,273.27" style="stroke:#181818;stroke-width:1;stroke-linejoin:miter;stroke-miterlimit:10;"/></g><!--link PayPalPayment to Payment--><g class="link" data-entity-1="ent0012" data-entity-2="ent0010" data-link-type="extension" data-source-line="71" id="lnk27"><path codeLine="71" d="M1020.85,188.65 C1021.62,211.35 1022.1879,228.2404 1023.1079,255.2804" fill="none" id="PayPalPayment-to-Payment" style="stroke:#181818;stroke-width:1;"/><polygon fill="none" points="1023.72,273.27,1029.1045,255.0764,1017.1114,255.4844,1023.72,273.27" style="stroke:#181818;stroke-width:1;stroke-linejoin:miter;stroke-miterlimit:10;"/></g><!--link Shipment to Address--><g class="link" data-entity-1="ent0013" data-entity-2="ent0005" data-link-type="dependency" data-source-line="73" id="lnk28"><path codeLine="73" d="M779.02,346.64 C747.68,378.61 703.5004,423.6697 675.4504,452.2797" fill="none" id="Shipment-to-Address" style="stroke:#181818;stroke-width:1;"/><polygon fill="#181818" points="671.95,455.85,681.107,452.2238,675.4504,452.2797,675.3945,446.6231,671.95,455.85" style="stroke:#181818;stroke-width:1;stroke-linejoin:miter;stroke-miterlimit:10;"/><text fill="#000000" font-family="sans-serif" font-size="13" lengthAdjust="spacing" textLength="65.0635" x="740.2" y="398.0384">deliversTo</text><text fill="#000000" font-family="sans-serif" font-size="13" lengthAdjust="spacing" textLength="22.7119" x="749.0735" y="366.8946">0..*</text><text fill="#000000" font-family="sans-serif" font-size="13" lengthAdjust="spacing" textLength="8.2202" x="668.8183" y="445.2966">1</text></g><?plantuml-src fL9DJyCm3BtdLqGz3XNODOT9K2wJ44mgufwcPej8avAaayh7VyVzRheXa3ZLjP_VS-md57UE9jp3tjYQVX1ABpGlWD7KMwdtv8iGqM9srkILy7-0F7ChkUwHt7ef53nKHGPsRC62a-ym_nT66NlAcLJEcm8iiesvcpotWDzPAZsOiiJ61FLwOU7b4HLkZL70zOmH8VTImzP3qK7VAXnN-fhHhVOJyD7chMuphEU-SgVJjP1Vo7ZclCLfQByaNXSmRgSmbVQCtfagKz1aogwS_Y2OMCYbnoVa4y-qVrxlk3fJI0-od4IRQLwHTN4JH8y-YAulBzSHZUCsMaMJGnWjkKMgArTbeajASBDER5jDVODh61L6Uowr8qDgHAxdoC4yZ1wxoE5OWmSMv8CF62sGkMCFiAR7OXWOXD7E7StF-GvaxywFxrLSu0j9mB2O9F0KeweFcxtC2ZquZZTj_ycBBRm0xhPLwzGNEmhjDjS9A_yHYaQ7DgTkemHFrpXuXWqssvkBKTU7UB8JdyRnvsQW9g5JWn8P-HQlcAwTWyBZMVTao3S0?></g></svg>