<svg xmlns="http://www.w3.org/2000/svg" xmlns:xlink="http://www.w3.org/1999/xlink" contentStyleType="text/css" data-diagram-type="CLASS" height="576px" preserveAspectRatio="none" style="width:513px;height:576px;background:#FFFFFF;" version="1.1" viewBox="0 0 513 576" width="513px" zoomAndPan="magnify"><?plantuml 1.2026.6?><defs/><g><!--class Customer--><g class="entity" data-qualified-name="Customer" data-source-line="1" id="ent0001"><rect fill="#F1F1F1" height="64.4883" rx="2.5" ry="2.5" style="stroke:#181818;stroke-width:0.5;" width="151.1045" x="169.86" y="7"/><ellipse cx="208.7812" cy="23" fill="#ADD1B2" rx="11" ry="11" style="stroke:#181818;stroke-width:1;"/><path d="M211.2543,29.1431 Q210.6733,29.4419 210.0341,29.5913 Q209.395,29.7407 208.6894,29.7407 Q206.1826,29.7407 204.8627,28.0889 Q203.5429,26.437 203.5429,23.3159 Q203.5429,20.1865 204.8627,18.5347 Q206.1826,16.8828 208.6894,16.8828 Q209.395,16.8828 210.0424,17.0322 Q210.6899,17.1816 211.2543,17.4805 L211.2543,20.2031 Q210.6235,19.6221 210.03,19.3523 Q209.4365,19.0825 208.8056,19.0825 Q207.4609,19.0825 206.7761,20.1492 Q206.0913,21.2158 206.0913,23.3159 Q206.0913,25.4077 206.7761,26.4744 Q207.4609,27.541 208.8056,27.541 Q209.4365,27.541 210.03,27.2712 Q210.6235,27.0015 211.2543,26.4204 Z " fill="#000000"/><text fill="#000000" font-family="sans-serif" font-size="14" lengthAdjust="spacing" textLength="65.9463" x="228.097" y="28.291">Customer</text><line style="stroke:#181818;stroke-width:0.5;" x1="170.86" x2="319.9645" y1="39" y2="39"/><g data-visibility-modifier="PUBLIC_FIELD"><ellipse cx="180.86" cy="52.7441" fill="none" rx="3" ry="3" style="stroke:#038048;stroke-width:1;"/></g><text fill="#000000" font-family="sans-serif" font-size="14" lengthAdjust="spacing" textLength="125.1045" x="189.86" y="56.5352">customerId: String</text><line style="stroke:#181818;stroke-width:0.5;" x1="170.86" x2="319.9645" y1="63.4883" y2="63.4883"/></g><!--class Address--><g class="entity" data-qualified-name="Address" data-source-line="5" id="ent0002"><rect fill="#F1F1F1" height="64.4883" rx="2.5" ry="2.5" style="stroke:#181818;stroke-width:0.5;" width="140.8301" x="7" y="156.74"/><ellipse cx="46.1857" cy="172.74" fill="#ADD1B2" rx="11" ry="11" style="stroke:#181818;stroke-width:1;"/><path d="M48.6589,178.8831 Q48.0778,179.1819 47.4387,179.3313 Q46.7995,179.4807 46.0939,179.4807 Q43.5871,179.4807 42.2673,177.8289 Q40.9475,176.177 40.9475,173.0559 Q40.9475,169.9265 42.2673,168.2747 Q43.5871,166.6228 46.0939,166.6228 Q46.7995,166.6228 47.447,166.7722 Q48.0944,166.9216 48.6589,167.2205 L48.6589,169.9431 Q48.028,169.3621 47.4345,169.0923 Q46.841,168.8225 46.2102,168.8225 Q44.8654,168.8225 44.1806,169.8892 Q43.4958,170.9558 43.4958,173.0559 Q43.4958,175.1477 44.1806,176.2144 Q44.8654,177.281 46.2102,177.281 Q46.841,177.281 47.4345,177.0112 Q48.028,176.7415 48.6589,176.1604 Z " fill="#000000"/><text fill="#000000" font-family="sans-serif" font-size="14" lengthAdjust="spacing" textLength="55.084" x="65.5604" y="178.031">Address</text><line style="stroke:#181818;stroke-width:0.5;" x1="8" x2="146.8301" y1="188.74" y2="188.74"/><g data-visibility-modifier="PUBLIC_FIELD"><ellipse cx="18" cy="202.4841" fill="none" rx="3" ry="3" style="stroke:#038048;stroke-width:1;"/></g><text fill="#000000" font-family="sans-serif" font-size="14" lengthAdjust="spacing" textLength="114.8301" x="27" y="206.2752">addressId: String</text><line style="stroke:#181818;stroke-width:0.5;" x1="8" x2="146.8301" y1="213.2283" y2="213.2283"/></g><!--class ShoppingCart--><g class="entity" data-qualified-name="ShoppingCart" data-source-line="9" id="ent0003"><rect fill="#F1F1F1" height="64.4883" rx="2.5" ry="2.5" style="stroke:#181818;stroke-width:0.5;" width="124.2988" x="183.27" y="156.74"/><ellipse cx="198.27" cy="172.74" fill="#ADD1B2" rx="11" ry="11" style="stroke:#181818;stroke-width:1;"/><path d="M200.7431,178.8831 Q200.1621,179.1819 199.5229,179.3313 Q198.8838,179.4807 198.1782,179.4807 Q195.6714,179.4807 194.3515,177.8289 Q193.0317,176.177 193.0317,173.0559 Q193.0317,169.9265 194.3515,168.2747 Q195.6714,166.6228 198.1782,166.6228 Q198.8838,166.6228 199.5312,166.7722 Q200.1787,166.9216 200.7431,167.2205 L200.7431,169.9431 Q200.1123,169.3621 199.5188,169.0923 Q198.9253,168.8225 198.2944,168.8225 Q196.9497,168.8225 196.2649,169.8892 Q195.5801,170.9558 195.5801,173.0559 Q195.5801,175.1477 196.2649,176.2144 Q196.9497,177.281 198.2944,177.281 Q198.9253,177.281 199.5188,177.0112 Q200.1123,176.7415 200.7431,176.1604 Z " fill="#000000"/><text fill="#000000" font-family="sans-serif" font-size="14" lengthAdjust="spacing" textLength="92.2988" x="212.27" y="178.031">ShoppingCart</text><line style="stroke:#181818;stroke-width:0.5;" x1="184.27" x2="306.5688" y1="188.74" y2="188.74"/><g data-visibility-modifier="PUBLIC_FIELD"><ellipse cx="194.27" cy="202.4841" fill="none" rx="3" ry="3" style="stroke:#038048;stroke-width:1;"/></g><text fill="#000000" font-family="sans-serif" font-size="14" lengthAdjust="spacing" textLength="87.541" x="203.27" y="206.2752">cartId: String</text><line style="stroke:#181818;stroke-width:0.5;" x1="184.27" x2="306.5688" y1="213.2283" y2="213.2283"/></g><!--class LineItem--><g class="entity" data-qualified-name="LineItem" data-source-line="13" id="ent0004"><rect fill="#F1F1F1" height="64.4883" rx="2.5" ry="2.5" style="stroke:#181818;stroke-width:0.5;" width="108.5713" x="191.13" y="331.2"/><ellipse cx="214.4242" cy="347.2" fill="#ADD1B2" rx="11" ry="11" style="stroke:#181818;stroke-width:1;"/><path d="M216.8974,353.3431 Q216.3163,353.6419 215.6772,353.7913 Q215.038,353.9407 214.3324,353.9407 Q211.8256,353.9407 210.5058,352.2889 Q209.186,350.637 209.186,347.5159 Q209.186,344.3865 210.5058,342.7347 Q211.8256,341.0828 214.3324,341.0828 Q215.038,341.0828 215.6855,341.2322 Q216.3329,341.3816 216.8974,341.6805 L216.8974,344.4031 Q216.2665,343.8221 215.673,343.5523 Q215.0795,343.2825 214.4487,343.2825 Q213.1039,343.2825 212.4191,344.3492 Q211.7343,345.4158 211.7343,347.5159 Q211.7343,349.6077 212.4191,350.6744 Q213.1039,351.741 214.4487,351.741 Q215.0795,351.741 215.673,351.4712 Q216.2665,351.2015 216.8974,350.6204 Z " fill="#000000"/><text fill="#000000" font-family="sans-serif" font-size="14" lengthAdjust="spacing" textLength="58.1396" x="230.2674" y="352.491">LineItem</text><line style="stroke:#181818;stroke-width:0.5;" x1="192.13" x2="298.7013" y1="363.2" y2="363.2"/><g data-visibility-modifier="PUBLIC_FIELD"><ellipse cx="202.13" cy="376.9441" fill="none" rx="3" ry="3" style="stroke:#038048;stroke-width:1;"/></g><text fill="#000000" font-family="sans-serif" font-size="14" lengthAdjust="spacing" textLength="82.5713" x="211.13" y="380.7352">quantity: Int</text><line style="stroke:#181818;stroke-width:0.5;" x1="192.13" x2="298.7013" y1="387.6883" y2="387.6883"/></g><!--class Product--><g class="entity" data-qualified-name="Product" data-source-line="17" id="ent0005"><rect fill="#F1F1F1" height="64.4883" rx="2.5" ry="2.5" style="stroke:#181818;stroke-width:0.5;" width="140.7207" x="175.05" y="497.42"/><ellipse cx="215.5862" cy="513.42" fill="#ADD1B2" rx="11" ry="11" style="stroke:#181818;stroke-width:1;"/><path d="M218.0593,519.5631 Q217.4783,519.8619 216.8391,520.0113 Q216.2,520.1607 215.4944,520.1607 Q212.9875,520.1607 211.6677,518.5089 Q210.3479,516.857 210.3479,513.7359 Q210.3479,510.6065 211.6677,508.9547 Q212.9875,507.3028 215.4944,507.3028 Q216.2,507.3028 216.8474,507.4522 Q217.4949,507.6016 218.0593,507.9005 L218.0593,510.6231 Q217.4285,510.0421 216.835,509.7723 Q216.2415,509.5025 215.6106,509.5025 Q214.2659,509.5025 213.5811,510.5692 Q212.8962,511.6358 212.8962,513.7359 Q212.8962,515.8277 213.5811,516.8944 Q214.2659,517.961 215.6106,517.961 Q216.2415,517.961 216.835,517.6912 Q217.4285,517.4215 218.0593,516.8404 Z " fill="#000000"/><text fill="#000000" font-family="sans-serif" font-size="14" lengthAdjust="spacing" textLength="51.9736" x="235.2609" y="518.711">Product</text><line style="stroke:#181818;stroke-width:0.5;" x1="176.05" x2="314.7707" y1="529.42" y2="529.42"/><g data-visibility-modifier="PUBLIC_FIELD"><ellipse cx="186.05" cy="543.1641" fill="none" rx="3" ry="3" style="stroke:#038048;stroke-width:1;"/></g><text fill="#000000" font-family="sans-serif" font-size="14" lengthAdjust="spacing" textLength="114.7207" x="195.05" y="546.9552">productId: String</text><line style="stroke:#181818;stroke-width:0.5;" x1="176.05" x2="314.7707" y1="553.9083" y2="553.9083"/></g><!--class Order--><g class="entity" data-qualified-name="Order" data-source-line="21" id="ent0006"><rect fill="#F1F1F1" height="80.9766" rx="2.5" ry="2.5" style="stroke:#181818;stroke-width:0.5;" width="156.5391" x="342.15" y="148.49"/><ellipse cx="396.6974" cy="164.49" fill="#ADD1B2" rx="11" ry="11" style="stroke:#181818;stroke-width:1;"/><path d="M399.1705,170.6331 Q398.5895,170.9319 397.9503,171.0813 Q397.3111,171.2307 396.6056,171.2307 Q394.0987,171.2307 392.7789,169.5789 Q391.4591,167.927 391.4591,164.8059 Q391.4591,161.6765 392.7789,160.0247 Q394.0987,158.3728 396.6056,158.3728 Q397.3111,158.3728 397.9586,158.5222 Q398.6061,158.6716 399.1705,158.9705 L399.1705,161.6931 Q398.5396,161.1121 397.9461,160.8423 Q397.3526,160.5725 396.7218,160.5725 Q395.3771,160.5725 394.6922,161.6392 Q394.0074,162.7058 394.0074,164.8059 Q394.0074,166.8977 394.6922,167.9644 Q395.3771,169.031 396.7218,169.031 Q397.3526,169.031 397.9461,168.7612 Q398.5396,168.4915 399.1705,167.9104 Z " fill="#000000"/><text fill="#000000" font-family="sans-serif" font-size="14" lengthAdjust="spacing" textLength="38.9443" x="417.1974" y="169.781">Order</text><line style="stroke:#181818;stroke-width:0.5;" x1="343.15" x2="497.6891" y1="180.49" y2="180.49"/><g data-visibility-modifier="PUBLIC_FIELD"><ellipse cx="353.15" cy="194.2341" fill="none" rx="3" ry="3" style="stroke:#038048;stroke-width:1;"/></g><text fill="#000000" font-family="sans-serif" font-size="14" lengthAdjust="spacing" textLength="98.3418" x="362.15" y="198.0252">orderId: String</text><g data-visibility-modifier="PUBLIC_FIELD"><ellipse cx="353.15" cy="210.7224" fill="none" rx="3" ry="3" style="stroke:#038048;stroke-width:1;"/></g><text fill="#000000" font-family="sans-serif" font-size="14" lengthAdjust="spacing" textLength="130.5391" x="362.15" y="214.5134">status: OrderStatus</text><line style="stroke:#181818;stroke-width:0.5;" x1="343.15" x2="497.6891" y1="221.4666" y2="221.4666"/></g><!--class OrderStatus--><g class="entity" data-qualified-name="OrderStatus" data-source-line="26" id="ent0007"><rect fill="#F1F1F1" height="113.9531" rx="2.5" ry="2.5" style="stroke:#181818;stroke-width:0.5;" width="112.5137" x="364.16" y="306.47"/><ellipse cx="379.16" cy="322.47" fill="#EB937F" rx="11" ry="11" style="stroke:#181818;stroke-width:1;"/><path d="M382.7743,328.97 L375.0545,328.97 L375.0545,316.5769 L382.7743,316.5769 L382.7743,318.7351 L377.5033,318.7351 L377.5033,321.408 L382.2762,321.408 L382.2762,323.5662 L377.5033,323.5662 L377.5033,326.8118 L382.7743,326.8118 Z " fill="#000000"/><text fill="#000000" font-family="sans-serif" font-size="14" lengthAdjust="spacing" textLength="80.5137" x="393.16" y="327.761">OrderStatus</text><line style="stroke:#181818;stroke-width:0.5;" x1="365.16" x2="475.6737" y1="338.47" y2="338.47"/><text fill="#000000" font-family="sans-serif" font-size="14" lengthAdjust="spacing" textLength="62.7129" x="370.16" y="356.0052">CREATED</text><text fill="#000000" font-family="sans-serif" font-size="14" lengthAdjust="spacing" textLength="31.917" x="370.16" y="372.4934">PAID</text><text fill="#000000" font-family="sans-serif" font-size="14" lengthAdjust="spacing" textLength="55.4121" x="370.16" y="388.9817">SHIPPED</text><text fill="#000000" font-family="sans-serif" font-size="14" lengthAdjust="spacing" textLength="79.9668" x="370.16" y="405.47">CANCELLED</text><line style="stroke:#181818;stroke-width:0.5;" x1="365.16" x2="475.6737" y1="412.4231" y2="412.4231"/></g><!--reverse link Customer to Address--><g class="link" data-entity-1="ent0001" data-entity-2="ent0002" data-link-type="composition" data-source-line="33" id="lnk8"><path codeLine="33" d="M158.7113,72.4554 C140.7613,81.3654 133.52,87.39 119.42,101.49 C104.19,116.72 93.65,138.56 86.93,156.49" fill="none" id="Customer-backto-Address" style="stroke:#181818;stroke-width:1;"/><polygon fill="#181818" points="169.46,67.12,162.3072,66.2048,158.7113,72.4554,165.8641,73.3706,169.46,67.12" style="stroke:#181818;stroke-width:1;stroke-linejoin:miter;stroke-miterlimit:10;"/><text fill="#000000" font-family="sans-serif" font-size="13" lengthAdjust="spacing" textLength="116.3652" x="120.42" y="115.0584">delivery addresses</text><text fill="#000000" font-family="sans-serif" font-size="13" lengthAdjust="spacing" textLength="8.2202" x="153.6005" y="66.7094">1</text><text fill="#000000" font-family="sans-serif" font-size="13" lengthAdjust="spacing" textLength="22.7119" x="64.6971" y="145.8416">1..*</text></g><!--reverse link Customer to ShoppingCart--><g class="link" data-entity-1="ent0001" data-entity-2="ent0003" data-link-type="composition" data-source-line="34" id="lnk9"><path codeLine="34" d="M245.42,83.94 C245.42,108.87 245.42,131.43 245.42,156.34" fill="none" id="Customer-backto-ShoppingCart" style="stroke:#181818;stroke-width:1;"/><polygon fill="#181818" points="245.42,71.94,241.42,77.94,245.42,83.94,249.42,77.94,245.42,71.94" style="stroke:#181818;stroke-width:1;stroke-linejoin:miter;stroke-miterlimit:10;"/><text fill="#000000" font-family="sans-serif" font-size="13" lengthAdjust="spacing" textLength="64.562" x="246.42" y="115.0584">active cart</text><text fill="#000000" font-family="sans-serif" font-size="13" lengthAdjust="spacing" textLength="8.2202" x="236.7042" y="91.9481">1</text><text fill="#000000" font-family="sans-serif" font-size="13" lengthAdjust="spacing" textLength="24.667" x="219.1233" y="146.0356">0..1</text></g><!--reverse link ShoppingCart to LineItem--><g class="link" data-entity-1="ent0003" data-entity-2="ent0004" data-link-type="composition" data-source-line="35" id="lnk10"><path codeLine="35" d="M245.42,233.61 C245.42,264.63 245.42,299.67 245.42,330.72" fill="none" id="ShoppingCart-backto-LineItem" style="stroke:#181818;stroke-width:1;"/><polygon fill="#181818" points="245.42,221.61,241.42,227.61,245.42,233.61,249.42,227.61,245.42,221.61" style="stroke:#181818;stroke-width:1;stroke-linejoin:miter;stroke-miterlimit:10;"/><text fill="#000000" font-family="sans-serif" font-size="13" lengthAdjust="spacing" textLength="61.5659" x="246.42" y="273.0384">line items</text><text fill="#000000" font-family="sans-serif" font-size="13" lengthAdjust="spacing" textLength="8.2202" x="236.6786" y="241.857">1</text><text fill="#000000" font-family="sans-serif" font-size="13" lengthAdjust="spacing" textLength="22.7119" x="221.3253" y="320.3998">1..*</text></g><!--link LineItem to Product--><g class="link" data-entity-1="ent0004" data-entity-2="ent0005" data-link-type="dependency" data-source-line="36" id="lnk11"><path codeLine="36" d="M245.42,396.11 C245.42,425.19 245.42,463.05 245.42,492.1" fill="none" id="LineItem-to-Product" style="stroke:#181818;stroke-width:1;"/><polygon fill="#181818" points="245.42,497.1,249.42,488.1,245.42,492.1,241.42,488.1,245.42,497.1" style="stroke:#181818;stroke-width:1;stroke-linejoin:miter;stroke-miterlimit:10;"/><text fill="#000000" font-family="sans-serif" font-size="13" lengthAdjust="spacing" textLength="65.7427" x="246.42" y="463.9884">references</text><text fill="#000000" font-family="sans-serif" font-size="13" lengthAdjust="spacing" textLength="22.7119" x="221.3918" y="416.3646">0..*</text><text fill="#000000" font-family="sans-serif" font-size="13" lengthAdjust="spacing" textLength="8.2202" x="236.6197" y="486.4372">1</text></g><!--link Customer to Order--><g class="link" data-entity-1="ent0001" data-entity-2="ent0006" data-link-type="association" data-source-line="37" id="lnk12"><path codeLine="37" d="M283.92,71.91 C295.38,81.39 307.93,91.83 319.42,101.49 C337.43,116.66 357.12,133.47 374.3,148.2" fill="none" id="Customer-Order" style="stroke:#181818;stroke-width:1;"/><text fill="#000000" font-family="sans-serif" font-size="13" lengthAdjust="spacing" textLength="39.6475" x="339.84" y="115.0584">places</text><text fill="#000000" font-family="sans-serif" font-size="13" lengthAdjust="spacing" textLength="8.2202" x="282.519" y="92.1646">1</text><text fill="#000000" font-family="sans-serif" font-size="13" lengthAdjust="spacing" textLength="22.7119" x="342.8985" y="137.798">0..*</text></g><!--link Order to OrderStatus--><g class="link" data-entity-1="ent0006" data-entity-2="ent0007" data-link-type="dependency" data-source-line="38" id="lnk13"><path codeLine="38" d="M420.42,229.55 C420.42,252.22 420.42,276.06 420.42,301.07" fill="none" id="Order-to-OrderStatus" style="stroke:#181818;stroke-width:1;"/><polygon fill="#181818" points="420.42,306.07,424.42,297.07,420.42,301.07,416.42,297.07,420.42,306.07" style="stroke:#181818;stroke-width:1;stroke-linejoin:miter;stroke-miterlimit:10;"/><text fill="#000000" font-family="sans-serif" font-size="13" lengthAdjust="spacing" textLength="38.2256" x="421.42" y="273.0384">status</text><text fill="#000000" font-family="sans-serif" font-size="13" lengthAdjust="spacing" textLength="8.2202" x="411.7758" y="250.106">1</text><text fill="#000000" font-family="sans-serif" font-size="13" lengthAdjust="spacing" textLength="8.2202" x="411.9463" y="295.7505">1</text></g><?plantuml-src RP31QeGm48RlUOh1unQbUysX85POGRPI-m8XcRQ2Hfl4mbBwxfqahdKNJ_FFvFidoIzxOIqKitNZW0P-6C23NBfASMYTwVG7-sLC1Z9NoY3L08hOx77jvpXDD2c4SSjMKdjatMci70wH-fg5TfsxSAYq-uSQCwfPBfkcsEmjUp7g-elHomr38-k4cosFL1iQRqKz3zjPy1UlPVvMFfDgyigNzbGrJHWK-RaewveqcTVeacC2XpIbccM7P0sAWyA--qPpWIKkj3kcnomZUPCQ1o4TES4dnswExkvQ8-JGauIEj6Nhr2ydAasVWl6Q9GU3xsXGo_iNBGyYJyoJmzGBJyKs8d7PDZOECU0_?></g></svg>