<svg xmlns="http://www.w3.org/2000/svg" xmlns:xlink="http://www.w3.org/1999/xlink" contentStyleType="text/css" data-diagram-type="CLASS" height="652px" preserveAspectRatio="none" style="width:346px;height:652px;background:#FFFFFF;" version="1.1" viewBox="0 0 346 652" width="346px" zoomAndPan="magnify"><?plantuml 1.2026.6?><defs/><g><!--class Instructor--><g class="entity" data-qualified-name="Instructor" data-source-line="1" id="ent0001"><rect fill="#F1F1F1" height="64.4883" rx="2.5" ry="2.5" style="stroke:#181818;stroke-width:0.5;" width="112.1191" x="39.78" y="7"/><ellipse cx="61.0224" cy="23" fill="#ADD1B2" rx="11" ry="11" style="stroke:#181818;stroke-width:1;"/><path d="M63.4956,29.1431 Q62.9145,29.4419 62.2754,29.5913 Q61.6362,29.7407 60.9306,29.7407 Q58.4238,29.7407 57.104,28.0889 Q55.7842,26.437 55.7842,23.3159 Q55.7842,20.1865 57.104,18.5347 Q58.4238,16.8828 60.9306,16.8828 Q61.6362,16.8828 62.2837,17.0322 Q62.9311,17.1816 63.4956,17.4805 L63.4956,20.2031 Q62.8647,19.6221 62.2712,19.3523 Q61.6777,19.0825 61.0468,19.0825 Q59.7021,19.0825 59.0173,20.1492 Q58.3325,21.2158 58.3325,23.3159 Q58.3325,25.4077 59.0173,26.4744 Q59.7021,27.541 61.0468,27.541 Q61.6777,27.541 62.2712,27.2712 Q62.8647,27.0015 63.4956,26.4204 Z " fill="#000000"/><text fill="#000000" font-family="sans-serif" font-size="14" lengthAdjust="spacing" textLength="66.2471" x="76.4096" y="28.291">Instructor</text><line style="stroke:#181818;stroke-width:0.5;" x1="40.78" x2="150.8991" y1="39" y2="39"/><g data-visibility-modifier="PUBLIC_FIELD"><ellipse cx="50.78" cy="52.7441" fill="none" rx="3" ry="3" style="stroke:#038048;stroke-width:1;"/></g><text fill="#000000" font-family="sans-serif" font-size="14" lengthAdjust="spacing" textLength="86.1191" x="59.78" y="56.5352">name: String</text><line style="stroke:#181818;stroke-width:0.5;" x1="40.78" x2="150.8991" y1="63.4883" y2="63.4883"/></g><!--class Course--><g class="entity" data-qualified-name="Course" data-source-line="5" id="ent0002"><rect fill="#F1F1F1" height="64.4883" rx="2.5" ry="2.5" style="stroke:#181818;stroke-width:0.5;" width="101.1953" x="45.25" y="148.49"/><ellipse cx="69.95" cy="164.49" fill="#ADD1B2" rx="11" ry="11" style="stroke:#181818;stroke-width:1;"/><path d="M72.4232,170.6331 Q71.8421,170.9319 71.203,171.0813 Q70.5638,171.2307 69.8583,171.2307 Q67.3514,171.2307 66.0316,169.5789 Q64.7118,167.927 64.7118,164.8059 Q64.7118,161.6765 66.0316,160.0247 Q67.3514,158.3728 69.8583,158.3728 Q70.5638,158.3728 71.2113,158.5222 Q71.8587,158.6716 72.4232,158.9705 L72.4232,161.6931 Q71.7923,161.1121 71.1988,160.8423 Q70.6053,160.5725 69.9745,160.5725 Q68.6297,160.5725 67.9449,161.6392 Q67.2601,162.7058 67.2601,164.8059 Q67.2601,166.8977 67.9449,167.9644 Q68.6297,169.031 69.9745,169.031 Q70.6053,169.031 71.1988,168.7612 Q71.7923,168.4915 72.4232,167.9104 Z " fill="#000000"/><text fill="#000000" font-family="sans-serif" font-size="14" lengthAdjust="spacing" textLength="47.6396" x="86.1056" y="169.781">Course</text><line style="stroke:#181818;stroke-width:0.5;" x1="46.25" x2="145.4453" y1="180.49" y2="180.49"/><g data-visibility-modifier="PUBLIC_FIELD"><ellipse cx="56.25" cy="194.2341" fill="none" rx="3" ry="3" style="stroke:#038048;stroke-width:1;"/></g><text fill="#000000" font-family="sans-serif" font-size="14" lengthAdjust="spacing" textLength="75.1953" x="65.25" y="198.0252">title: String</text><line style="stroke:#181818;stroke-width:0.5;" x1="46.25" x2="145.4453" y1="204.9783" y2="204.9783"/></g><!--class Lesson--><g class="entity" data-qualified-name="Lesson" data-source-line="9" id="ent0003"><rect fill="#F1F1F1" height="64.4883" rx="2.5" ry="2.5" style="stroke:#181818;stroke-width:0.5;" width="101.1953" x="7.25" y="289.98"/><ellipse cx="32.3161" cy="305.98" fill="#ADD1B2" rx="11" ry="11" style="stroke:#181818;stroke-width:1;"/><path d="M34.7893,312.1231 Q34.2082,312.4219 33.569,312.5713 Q32.9299,312.7207 32.2243,312.7207 Q29.7175,312.7207 28.3977,311.0689 Q27.0778,309.417 27.0778,306.2959 Q27.0778,303.1665 28.3977,301.5147 Q29.7175,299.8628 32.2243,299.8628 Q32.9299,299.8628 33.5773,300.0122 Q34.2248,300.1616 34.7893,300.4605 L34.7893,303.1831 Q34.1584,302.6021 33.5649,302.3323 Q32.9714,302.0625 32.3405,302.0625 Q30.9958,302.0625 30.311,303.1292 Q29.6262,304.1958 29.6262,306.2959 Q29.6262,308.3877 30.311,309.4544 Q30.9958,310.521 32.3405,310.521 Q32.9714,310.521 33.5649,310.2512 Q34.1584,309.9815 34.7893,309.4004 Z " fill="#000000"/><text fill="#000000" font-family="sans-serif" font-size="14" lengthAdjust="spacing" textLength="46.8262" x="48.553" y="311.271">Lesson</text><line style="stroke:#181818;stroke-width:0.5;" x1="8.25" x2="107.4453" y1="321.98" y2="321.98"/><g data-visibility-modifier="PUBLIC_FIELD"><ellipse cx="18.25" cy="335.7241" fill="none" rx="3" ry="3" style="stroke:#038048;stroke-width:1;"/></g><text fill="#000000" font-family="sans-serif" font-size="14" lengthAdjust="spacing" textLength="75.1953" x="27.25" y="339.5152">title: String</text><line style="stroke:#181818;stroke-width:0.5;" x1="8.25" x2="107.4453" y1="346.4683" y2="346.4683"/></g><!--class Quiz--><g class="entity" data-qualified-name="Quiz" data-source-line="13" id="ent0004"><rect fill="#F1F1F1" height="64.4883" rx="2.5" ry="2.5" style="stroke:#181818;stroke-width:0.5;" width="101.1953" x="7.25" y="431.46"/><ellipse cx="39.1514" cy="447.46" fill="#ADD1B2" rx="11" ry="11" style="stroke:#181818;stroke-width:1;"/><path d="M41.6245,453.6031 Q41.0435,453.9019 40.4043,454.0513 Q39.7651,454.2007 39.0596,454.2007 Q36.5527,454.2007 35.2329,452.5489 Q33.9131,450.897 33.9131,447.7759 Q33.9131,444.6465 35.2329,442.9947 Q36.5527,441.3428 39.0596,441.3428 Q39.7651,441.3428 40.4126,441.4922 Q41.0601,441.6416 41.6245,441.9405 L41.6245,444.6631 Q40.9937,444.0821 40.4001,443.8123 Q39.8066,443.5425 39.1758,443.5425 Q37.8311,443.5425 37.1462,444.6092 Q36.4614,445.6758 36.4614,447.7759 Q36.4614,449.8677 37.1462,450.9344 Q37.8311,452.001 39.1758,452.001 Q39.8066,452.001 40.4001,451.7312 Q40.9937,451.4615 41.6245,450.8804 Z " fill="#000000"/><text fill="#000000" font-family="sans-serif" font-size="14" lengthAdjust="spacing" textLength="31.6367" x="56.9072" y="452.751">Quiz</text><line style="stroke:#181818;stroke-width:0.5;" x1="8.25" x2="107.4453" y1="463.46" y2="463.46"/><g data-visibility-modifier="PUBLIC_FIELD"><ellipse cx="18.25" cy="477.2041" fill="none" rx="3" ry="3" style="stroke:#038048;stroke-width:1;"/></g><text fill="#000000" font-family="sans-serif" font-size="14" lengthAdjust="spacing" textLength="75.1953" x="27.25" y="480.9952">title: String</text><line style="stroke:#181818;stroke-width:0.5;" x1="8.25" x2="107.4453" y1="487.9483" y2="487.9483"/></g><!--class Question--><g class="entity" data-qualified-name="Question" data-source-line="17" id="ent0005"><rect fill="#F1F1F1" height="64.4883" rx="2.5" ry="2.5" style="stroke:#181818;stroke-width:0.5;" width="101.6875" x="7" y="572.95"/><ellipse cx="25.8769" cy="588.95" fill="#ADD1B2" rx="11" ry="11" style="stroke:#181818;stroke-width:1;"/><path d="M28.35,595.0931 Q27.7689,595.3919 27.1298,595.5413 Q26.4906,595.6907 25.7851,595.6907 Q23.2782,595.6907 21.9584,594.0389 Q20.6386,592.387 20.6386,589.2659 Q20.6386,586.1365 21.9584,584.4847 Q23.2782,582.8328 25.7851,582.8328 Q26.4906,582.8328 27.1381,582.9822 Q27.7855,583.1316 28.35,583.4305 L28.35,586.1531 Q27.7191,585.5721 27.1256,585.3023 Q26.5321,585.0325 25.9013,585.0325 Q24.5565,585.0325 23.8717,586.0992 Q23.1869,587.1658 23.1869,589.2659 Q23.1869,591.3577 23.8717,592.4244 Q24.5565,593.491 25.9013,593.491 Q26.5321,593.491 27.1256,593.2212 Q27.7191,592.9515 28.35,592.3704 Z " fill="#000000"/><text fill="#000000" font-family="sans-serif" font-size="14" lengthAdjust="spacing" textLength="61.0723" x="40.7384" y="594.241">Question</text><line style="stroke:#181818;stroke-width:0.5;" x1="8" x2="107.6875" y1="604.95" y2="604.95"/><g data-visibility-modifier="PUBLIC_FIELD"><ellipse cx="18" cy="618.6941" fill="none" rx="3" ry="3" style="stroke:#038048;stroke-width:1;"/></g><text fill="#000000" font-family="sans-serif" font-size="14" lengthAdjust="spacing" textLength="75.6875" x="27" y="622.4852">text: String</text><line style="stroke:#181818;stroke-width:0.5;" x1="8" x2="107.6875" y1="629.4383" y2="629.4383"/></g><!--class Participant--><g class="entity" data-qualified-name="Participant" data-source-line="21" id="ent0006"><rect fill="#F1F1F1" height="64.4883" rx="2.5" ry="2.5" style="stroke:#181818;stroke-width:0.5;" width="112.1191" x="219.78" y="148.49"/><ellipse cx="238.3585" cy="164.49" fill="#ADD1B2" rx="11" ry="11" style="stroke:#181818;stroke-width:1;"/><path d="M240.8316,170.6331 Q240.2506,170.9319 239.6114,171.0813 Q238.9722,171.2307 238.2667,171.2307 Q235.7598,171.2307 234.44,169.5789 Q233.1202,167.927 233.1202,164.8059 Q233.1202,161.6765 234.44,160.0247 Q235.7598,158.3728 238.2667,158.3728 Q238.9722,158.3728 239.6197,158.5222 Q240.2672,158.6716 240.8316,158.9705 L240.8316,161.6931 Q240.2008,161.1121 239.6072,160.8423 Q239.0137,160.5725 238.3829,160.5725 Q237.0382,160.5725 236.3533,161.6392 Q235.6685,162.7058 235.6685,164.8059 Q235.6685,166.8977 236.3533,167.9644 Q237.0382,169.031 238.3829,169.031 Q239.0137,169.031 239.6072,168.7612 Q240.2008,168.4915 240.8316,167.9104 Z " fill="#000000"/><text fill="#000000" font-family="sans-serif" font-size="14" lengthAdjust="spacing" textLength="72.167" x="253.1537" y="169.781">Participant</text><line style="stroke:#181818;stroke-width:0.5;" x1="220.78" x2="330.8991" y1="180.49" y2="180.49"/><g data-visibility-modifier="PUBLIC_FIELD"><ellipse cx="230.78" cy="194.2341" fill="none" rx="3" ry="3" style="stroke:#038048;stroke-width:1;"/></g><text fill="#000000" font-family="sans-serif" font-size="14" lengthAdjust="spacing" textLength="86.1191" x="239.78" y="198.0252">name: String</text><line style="stroke:#181818;stroke-width:0.5;" x1="220.78" x2="330.8991" y1="204.9783" y2="204.9783"/></g><!--class Enrollment--><g class="entity" data-qualified-name="Enrollment" data-source-line="25" id="ent0007"><rect fill="#F1F1F1" height="64.4883" rx="2.5" ry="2.5" style="stroke:#181818;stroke-width:0.5;" width="162.6504" x="168.52" y="289.98"/><ellipse cx="209.2408" cy="305.98" fill="#ADD1B2" rx="11" ry="11" style="stroke:#181818;stroke-width:1;"/><path d="M211.7139,312.1231 Q211.1328,312.4219 210.4937,312.5713 Q209.8545,312.7207 209.149,312.7207 Q206.6421,312.7207 205.3223,311.0689 Q204.0025,309.417 204.0025,306.2959 Q204.0025,303.1665 205.3223,301.5147 Q206.6421,299.8628 209.149,299.8628 Q209.8545,299.8628 210.502,300.0122 Q211.1494,300.1616 211.7139,300.4605 L211.7139,303.1831 Q211.083,302.6021 210.4895,302.3323 Q209.896,302.0625 209.2652,302.0625 Q207.9204,302.0625 207.2356,303.1292 Q206.5508,304.1958 206.5508,306.2959 Q206.5508,308.3877 207.2356,309.4544 Q207.9204,310.521 209.2652,310.521 Q209.896,310.521 210.4895,310.2512 Q211.083,309.9815 211.7139,309.4004 Z " fill="#000000"/><text fill="#000000" font-family="sans-serif" font-size="14" lengthAdjust="spacing" textLength="73.4932" x="228.9565" y="311.271">Enrollment</text><line style="stroke:#181818;stroke-width:0.5;" x1="169.52" x2="330.1704" y1="321.98" y2="321.98"/><g data-visibility-modifier="PUBLIC_FIELD"><ellipse cx="179.52" cy="335.7241" fill="none" rx="3" ry="3" style="stroke:#038048;stroke-width:1;"/></g><text fill="#000000" font-family="sans-serif" font-size="14" lengthAdjust="spacing" textLength="136.6504" x="188.52" y="339.5152">progressPercent: Int</text><line style="stroke:#181818;stroke-width:0.5;" x1="169.52" x2="330.1704" y1="346.4683" y2="346.4683"/></g><!--class Certificate--><g class="entity" data-qualified-name="Certificate" data-source-line="29" id="ent0008"><rect fill="#F1F1F1" height="64.4883" rx="2.5" ry="2.5" style="stroke:#181818;stroke-width:0.5;" width="133.3447" x="183.17" y="431.46"/><ellipse cx="212.4412" cy="447.46" fill="#ADD1B2" rx="11" ry="11" style="stroke:#181818;stroke-width:1;"/><path d="M214.9144,453.6031 Q214.3333,453.9019 213.6942,454.0513 Q213.055,454.2007 212.3494,454.2007 Q209.8426,454.2007 208.5228,452.5489 Q207.203,450.897 207.203,447.7759 Q207.203,444.6465 208.5228,442.9947 Q209.8426,441.3428 212.3494,441.3428 Q213.055,441.3428 213.7025,441.4922 Q214.3499,441.6416 214.9144,441.9405 L214.9144,444.6631 Q214.2835,444.0821 213.69,443.8123 Q213.0965,443.5425 212.4657,443.5425 Q211.1209,443.5425 210.4361,444.6092 Q209.7513,445.6758 209.7513,447.7759 Q209.7513,449.8677 210.4361,450.9344 Q211.1209,452.001 212.4657,452.001 Q213.0965,452.001 213.69,451.7312 Q214.2835,451.4615 214.9144,450.8804 Z " fill="#000000"/><text fill="#000000" font-family="sans-serif" font-size="14" lengthAdjust="spacing" textLength="69.6309" x="229.6126" y="452.751">Certificate</text><line style="stroke:#181818;stroke-width:0.5;" x1="184.17" x2="315.5147" y1="463.46" y2="463.46"/><g data-visibility-modifier="PUBLIC_FIELD"><ellipse cx="194.17" cy="477.2041" fill="none" rx="3" ry="3" style="stroke:#038048;stroke-width:1;"/></g><text fill="#000000" font-family="sans-serif" font-size="14" lengthAdjust="spacing" textLength="107.3447" x="203.17" y="480.9952">issuedAt: String</text><line style="stroke:#181818;stroke-width:0.5;" x1="184.17" x2="315.5147" y1="487.9483" y2="487.9483"/></g><!--link Instructor to Course--><g class="link" data-entity-1="ent0001" data-entity-2="ent0002" data-link-type="association" data-source-line="33" id="lnk9"><path codeLine="33" d="M95.84,71.89 C95.84,94.72 95.84,125.4 95.84,148.2" fill="none" id="Instructor-Course" style="stroke:#181818;stroke-width:1;"/><text fill="#000000" font-family="sans-serif" font-size="13" lengthAdjust="spacing" textLength="45.1318" x="96.84" y="115.0584">creates</text><text fill="#000000" font-family="sans-serif" font-size="13" lengthAdjust="spacing" textLength="8.2202" x="87.0986" y="92.1408">1</text><text fill="#000000" font-family="sans-serif" font-size="13" lengthAdjust="spacing" textLength="22.7119" x="71.6431" y="137.5433">0..*</text></g><!--reverse link Course to Lesson--><g class="link" data-entity-1="ent0002" data-entity-2="ent0003" data-link-type="composition" data-source-line="34" id="lnk10"><path codeLine="34" d="M62.9685,223.2512 C56.9285,232.3012 58.01,232.57 54.84,242.98 C50.3,257.93 50.44,275.24 51.98,289.77" fill="none" id="Course-backto-Lesson" style="stroke:#181818;stroke-width:1;"/><polygon fill="#181818" points="69.63,213.27,62.9722,216.0401,62.9685,223.2512,69.6263,220.4811,69.63,213.27" style="stroke:#181818;stroke-width:1;stroke-linejoin:miter;stroke-miterlimit:10;"/><text fill="#000000" font-family="sans-serif" font-size="13" lengthAdjust="spacing" textLength="68.0913" x="55.84" y="256.5484">consists of</text><text fill="#000000" font-family="sans-serif" font-size="13" lengthAdjust="spacing" textLength="8.2202" x="55.8907" y="233.4998">1</text><text fill="#000000" font-family="sans-serif" font-size="13" lengthAdjust="spacing" textLength="22.7119" x="26.5745" y="279.1298">1..*</text></g><!--reverse link Lesson to Quiz--><g class="link" data-entity-1="ent0003" data-entity-2="ent0004" data-link-type="composition" data-source-line="35" id="lnk11"><path codeLine="35" d="M57.84,366.87 C57.84,389.7 57.84,408.38 57.84,431.18" fill="none" id="Lesson-backto-Quiz" style="stroke:#181818;stroke-width:1;"/><polygon fill="#181818" points="57.84,354.87,53.84,360.87,57.84,366.87,61.84,360.87,57.84,354.87" style="stroke:#181818;stroke-width:1;stroke-linejoin:miter;stroke-miterlimit:10;"/><text fill="#000000" font-family="sans-serif" font-size="13" lengthAdjust="spacing" textLength="53.2061" x="58.84" y="398.0284">contains</text><text fill="#000000" font-family="sans-serif" font-size="13" lengthAdjust="spacing" textLength="8.2202" x="49.097" y="375.1208">1</text><text fill="#000000" font-family="sans-serif" font-size="13" lengthAdjust="spacing" textLength="24.667" x="31.4322" y="420.5254">0..1</text></g><!--reverse link Quiz to Question--><g class="link" data-entity-1="ent0004" data-entity-2="ent0005" data-link-type="composition" data-source-line="36" id="lnk12"><path codeLine="36" d="M57.84,508.36 C57.84,531.19 57.84,549.87 57.84,572.67" fill="none" id="Quiz-backto-Question" style="stroke:#181818;stroke-width:1;"/><polygon fill="#181818" points="57.84,496.36,53.84,502.36,57.84,508.36,61.84,502.36,57.84,496.36" style="stroke:#181818;stroke-width:1;stroke-linejoin:miter;stroke-miterlimit:10;"/><text fill="#000000" font-family="sans-serif" font-size="13" lengthAdjust="spacing" textLength="71.9824" x="58.84" y="539.5184">made up of</text><text fill="#000000" font-family="sans-serif" font-size="13" lengthAdjust="spacing" textLength="8.2202" x="49.097" y="516.6127">1</text><text fill="#000000" font-family="sans-serif" font-size="13" lengthAdjust="spacing" textLength="22.7119" x="33.6439" y="562.0154">1..*</text></g><!--link Participant to Enrollment--><g class="link" data-entity-1="ent0006" data-entity-2="ent0007" data-link-type="association" data-source-line="38" id="lnk13"><path codeLine="38" d="M269.94,213.38 C265.69,236.21 259.97,266.89 255.72,289.69" fill="none" id="Participant-Enrollment" style="stroke:#181818;stroke-width:1;"/><text fill="#000000" font-family="sans-serif" font-size="13" lengthAdjust="spacing" textLength="64.5366" x="265.4" y="256.5484">enrolls via</text><text fill="#000000" font-family="sans-serif" font-size="13" lengthAdjust="spacing" textLength="8.2202" x="260.0739" y="233.6308">1</text><text fill="#000000" font-family="sans-serif" font-size="13" lengthAdjust="spacing" textLength="22.7119" x="232.7363" y="279.0333">0..*</text></g><!--link Course to Enrollment--><g class="link" data-entity-1="ent0002" data-entity-2="ent0007" data-link-type="association" data-source-line="39" id="lnk14"><path codeLine="39" d="M130.79,213.38 C155.99,236.21 189.87,266.89 215.04,289.69" fill="none" id="Course-Enrollment" style="stroke:#181818;stroke-width:1;"/><text fill="#000000" font-family="sans-serif" font-size="13" lengthAdjust="spacing" textLength="66.1299" x="183.06" y="256.5484">tracked by</text><text fill="#000000" font-family="sans-serif" font-size="13" lengthAdjust="spacing" textLength="8.2202" x="128.7094" y="233.6308">1</text><text fill="#000000" font-family="sans-serif" font-size="13" lengthAdjust="spacing" textLength="22.7119" x="183.6661" y="279.0333">0..*</text></g><!--link Enrollment to Certificate--><g class="link" data-entity-1="ent0007" data-entity-2="ent0008" data-link-type="association" data-source-line="40" id="lnk15"><path codeLine="40" d="M249.84,354.87 C249.84,377.7 249.84,408.38 249.84,431.18" fill="none" id="Enrollment-Certificate" style="stroke:#181818;stroke-width:1;"/><text fill="#000000" font-family="sans-serif" font-size="13" lengthAdjust="spacing" textLength="38.9492" x="250.84" y="398.0284">issues</text><text fill="#000000" font-family="sans-serif" font-size="13" lengthAdjust="spacing" textLength="8.2202" x="241.0975" y="375.1208">1</text><text fill="#000000" font-family="sans-serif" font-size="13" lengthAdjust="spacing" textLength="24.667" x="223.4333" y="420.5254">0..1</text></g><?plantuml-src XP3FJiCm38VlUGghnw5Dx9eRcZWWSHZY2KBgJHPjKjaEuezuzwLPLsK3nissllnYVxvp8l0GH3bvZGnV1k0ck1ujF2jJs9jlOtoXDZ6nu95GqkuNv155OhYAF2Nw_0T0KPfJy5r_Cbl7Ifu65_JQnlU1OzVrUA86ZdlEAswHVHxQVBXMzs4EtP5tEXr98WdRkxF_ArNDke7b4fhRrMhHdEnOy8mvGSmq6Ad5YAqBDXdAM0n2eW9nPwRXZER4N1PJ1LH7GKpfB-9cMHPwroAaOSmpjP_pDIib5h0q0c_awdN_e9MTVyKMNZvCDQyUvAfsQA48b0C0?></g></svg>