<svg xmlns="http://www.w3.org/2000/svg" xmlns:xlink="http://www.w3.org/1999/xlink" contentStyleType="text/css" data-diagram-type="CLASS" height="685px" preserveAspectRatio="none" style="width:527px;height:685px;background:#FFFFFF;" version="1.1" viewBox="0 0 527 685" width="527px" zoomAndPan="magnify"><?plantuml 1.2026.6?><defs/><g><!--class Employee--><g class="entity" data-qualified-name="Employee" data-source-line="2" id="ent0001"><rect fill="#F1F1F1" height="64.4883" rx="2.5" ry="2.5" style="stroke:#181818;stroke-width:0.5;" width="112.1191" x="164.54" y="273.98"/><ellipse cx="186.33" cy="289.98" fill="#ADD1B2" rx="11" ry="11" style="stroke:#181818;stroke-width:1;"/><path d="M188.8031,296.1231 Q188.2221,296.4219 187.5829,296.5713 Q186.9438,296.7207 186.2382,296.7207 Q183.7314,296.7207 182.4115,295.0689 Q181.0917,293.417 181.0917,290.2959 Q181.0917,287.1665 182.4115,285.5147 Q183.7314,283.8628 186.2382,283.8628 Q186.9438,283.8628 187.5912,284.0122 Q188.2387,284.1616 188.8031,284.4605 L188.8031,287.1831 Q188.1723,286.6021 187.5788,286.3323 Q186.9853,286.0625 186.3544,286.0625 Q185.0097,286.0625 184.3249,287.1292 Q183.64,288.1958 183.64,290.2959 Q183.64,292.3877 184.3249,293.4544 Q185.0097,294.521 186.3544,294.521 Q186.9853,294.521 187.5788,294.2512 Q188.1723,293.9815 188.8031,293.4004 Z " fill="#000000"/><text fill="#000000" font-family="sans-serif" font-size="14" lengthAdjust="spacing" textLength="65.0303" x="201.8389" y="295.271">Employee</text><line style="stroke:#181818;stroke-width:0.5;" x1="165.54" x2="275.6591" y1="305.98" y2="305.98"/><g data-visibility-modifier="PUBLIC_FIELD"><ellipse cx="175.54" cy="319.7241" fill="none" rx="3" ry="3" style="stroke:#038048;stroke-width:1;"/></g><text fill="#000000" font-family="sans-serif" font-size="14" lengthAdjust="spacing" textLength="86.1191" x="184.54" y="323.5152">name: String</text><line style="stroke:#181818;stroke-width:0.5;" x1="165.54" x2="275.6591" y1="330.4683" y2="330.4683"/></g><!--class Manager--><g class="entity" data-qualified-name="Manager" data-source-line="6" id="ent0002"><rect fill="#F1F1F1" height="64.4883" rx="2.5" ry="2.5" style="stroke:#181818;stroke-width:0.5;" width="217.4814" x="250.86" y="148.49"/><ellipse cx="326.1168" cy="164.49" fill="#ADD1B2" rx="11" ry="11" style="stroke:#181818;stroke-width:1;"/><path d="M328.59,170.6331 Q328.0089,170.9319 327.3698,171.0813 Q326.7306,171.2307 326.025,171.2307 Q323.5182,171.2307 322.1984,169.5789 Q320.8786,167.927 320.8786,164.8059 Q320.8786,161.6765 322.1984,160.0247 Q323.5182,158.3728 326.025,158.3728 Q326.7306,158.3728 327.3781,158.5222 Q328.0255,158.6716 328.59,158.9705 L328.59,161.6931 Q327.9591,161.1121 327.3656,160.8423 Q326.7721,160.5725 326.1413,160.5725 Q324.7965,160.5725 324.1117,161.6392 Q323.4269,162.7058 323.4269,164.8059 Q323.4269,166.8977 324.1117,167.9644 Q324.7965,169.031 326.1413,169.031 Q326.7721,169.031 327.3656,168.7612 Q327.9591,168.4915 328.59,167.9104 Z " fill="#000000"/><text fill="#000000" font-family="sans-serif" font-size="14" lengthAdjust="spacing" textLength="58.4678" x="346.6168" y="169.781">Manager</text><line style="stroke:#181818;stroke-width:0.5;" x1="251.86" x2="467.3414" y1="180.49" y2="180.49"/><g data-visibility-modifier="PUBLIC_FIELD"><ellipse cx="261.86" cy="194.2341" fill="none" rx="3" ry="3" style="stroke:#038048;stroke-width:1;"/></g><text fill="#000000" font-family="sans-serif" font-size="14" lengthAdjust="spacing" textLength="191.4814" x="270.86" y="198.0252">budgetResponsibility: String</text><line style="stroke:#181818;stroke-width:0.5;" x1="251.86" x2="467.3414" y1="204.9783" y2="204.9783"/></g><!--class Department--><g class="entity" data-qualified-name="Department" data-source-line="10" id="ent0003"><rect fill="#F1F1F1" height="64.4883" rx="2.5" ry="2.5" style="stroke:#181818;stroke-width:0.5;" width="112.5889" x="134.3" y="7"/><ellipse cx="149.3" cy="23" fill="#ADD1B2" rx="11" ry="11" style="stroke:#181818;stroke-width:1;"/><path d="M151.7731,29.1431 Q151.1921,29.4419 150.5529,29.5913 Q149.9138,29.7407 149.2082,29.7407 Q146.7014,29.7407 145.3815,28.0889 Q144.0617,26.437 144.0617,23.3159 Q144.0617,20.1865 145.3815,18.5347 Q146.7014,16.8828 149.2082,16.8828 Q149.9138,16.8828 150.5612,17.0322 Q151.2087,17.1816 151.7731,17.4805 L151.7731,20.2031 Q151.1423,19.6221 150.5488,19.3523 Q149.9553,19.0825 149.3244,19.0825 Q147.9797,19.0825 147.2949,20.1492 Q146.6101,21.2158 146.6101,23.3159 Q146.6101,25.4077 147.2949,26.4744 Q147.9797,27.541 149.3244,27.541 Q149.9553,27.541 150.5488,27.2712 Q151.1423,27.0015 151.7731,26.4204 Z " fill="#000000"/><text fill="#000000" font-family="sans-serif" font-size="14" lengthAdjust="spacing" textLength="80.5889" x="163.3" y="28.291">Department</text><line style="stroke:#181818;stroke-width:0.5;" x1="135.3" x2="245.8889" y1="39" y2="39"/><g data-visibility-modifier="PUBLIC_FIELD"><ellipse cx="145.3" cy="52.7441" fill="none" rx="3" ry="3" style="stroke:#038048;stroke-width:1;"/></g><text fill="#000000" font-family="sans-serif" font-size="14" lengthAdjust="spacing" textLength="86.1191" x="154.3" y="56.5352">name: String</text><line style="stroke:#181818;stroke-width:0.5;" x1="135.3" x2="245.8889" y1="63.4883" y2="63.4883"/></g><!--class Position--><g class="entity" data-qualified-name="Position" data-source-line="14" id="ent0004"><rect fill="#F1F1F1" height="64.4883" rx="2.5" ry="2.5" style="stroke:#181818;stroke-width:0.5;" width="101.1953" x="7" y="423.71"/><ellipse cx="28.7961" cy="439.71" fill="#ADD1B2" rx="11" ry="11" style="stroke:#181818;stroke-width:1;"/><path d="M31.2693,445.8531 Q30.6882,446.1519 30.0491,446.3013 Q29.4099,446.4507 28.7043,446.4507 Q26.1975,446.4507 24.8777,444.7989 Q23.5579,443.147 23.5579,440.0259 Q23.5579,436.8965 24.8777,435.2447 Q26.1975,433.5928 28.7043,433.5928 Q29.4099,433.5928 30.0574,433.7422 Q30.7048,433.8916 31.2693,434.1905 L31.2693,436.9131 Q30.6384,436.3321 30.0449,436.0623 Q29.4514,435.7925 28.8206,435.7925 Q27.4758,435.7925 26.791,436.8592 Q26.1062,437.9258 26.1062,440.0259 Q26.1062,442.1177 26.791,443.1844 Q27.4758,444.251 28.8206,444.251 Q29.4514,444.251 30.0449,443.9812 Q30.6384,443.7115 31.2693,443.1304 Z " fill="#000000"/><text fill="#000000" font-family="sans-serif" font-size="14" lengthAdjust="spacing" textLength="54.0928" x="44.3064" y="445.001">Position</text><line style="stroke:#181818;stroke-width:0.5;" x1="8" x2="107.1953" y1="455.71" y2="455.71"/><g data-visibility-modifier="PUBLIC_FIELD"><ellipse cx="18" cy="469.4541" fill="none" rx="3" ry="3" style="stroke:#038048;stroke-width:1;"/></g><text fill="#000000" font-family="sans-serif" font-size="14" lengthAdjust="spacing" textLength="75.1953" x="27" y="473.2452">title: String</text><line style="stroke:#181818;stroke-width:0.5;" x1="8" x2="107.1953" y1="480.1983" y2="480.1983"/></g><!--class LeaveRequest--><g class="entity" data-qualified-name="LeaveRequest" data-source-line="18" id="ent0005"><rect fill="#F1F1F1" height="80.9766" rx="2.5" ry="2.5" style="stroke:#181818;stroke-width:0.5;" width="155.6367" x="142.78" y="415.47"/><ellipse cx="171.8513" cy="431.47" fill="#ADD1B2" rx="11" ry="11" style="stroke:#181818;stroke-width:1;"/><path d="M174.3244,437.6131 Q173.7434,437.9119 173.1042,438.0613 Q172.4651,438.2107 171.7595,438.2107 Q169.2527,438.2107 167.9328,436.5589 Q166.613,434.907 166.613,431.7859 Q166.613,428.6565 167.9328,427.0047 Q169.2527,425.3528 171.7595,425.3528 Q172.4651,425.3528 173.1125,425.5022 Q173.76,425.6516 174.3244,425.9505 L174.3244,428.6731 Q173.6936,428.0921 173.1001,427.8223 Q172.5066,427.5525 171.8757,427.5525 Q170.531,427.5525 169.8462,428.6192 Q169.1613,429.6858 169.1613,431.7859 Q169.1613,433.8777 169.8462,434.9444 Q170.531,436.011 171.8757,436.011 Q172.5066,436.011 173.1001,435.7412 Q173.6936,435.4715 174.3244,434.8904 Z " fill="#000000"/><text fill="#000000" font-family="sans-serif" font-size="14" lengthAdjust="spacing" textLength="92.3672" x="188.9782" y="436.761">LeaveRequest</text><line style="stroke:#181818;stroke-width:0.5;" x1="143.78" x2="297.4167" y1="447.47" y2="447.47"/><g data-visibility-modifier="PUBLIC_FIELD"><ellipse cx="153.78" cy="461.2141" fill="none" rx="3" ry="3" style="stroke:#038048;stroke-width:1;"/></g><text fill="#000000" font-family="sans-serif" font-size="14" lengthAdjust="spacing" textLength="92.627" x="162.78" y="465.0052">period: String</text><g data-visibility-modifier="PUBLIC_FIELD"><ellipse cx="153.78" cy="477.7024" fill="none" rx="3" ry="3" style="stroke:#038048;stroke-width:1;"/></g><text fill="#000000" font-family="sans-serif" font-size="14" lengthAdjust="spacing" textLength="129.6367" x="162.78" y="481.4934">status: LeaveStatus</text><line style="stroke:#181818;stroke-width:0.5;" x1="143.78" x2="297.4167" y1="488.4466" y2="488.4466"/></g><!--class LeaveStatus--><g class="entity" data-qualified-name="LeaveStatus" data-source-line="23" id="ent0006"><rect fill="#F1F1F1" height="97.4648" rx="2.5" ry="2.5" style="stroke:#181818;stroke-width:0.5;" width="111.6113" x="81.79" y="573.45"/><ellipse cx="96.79" cy="589.45" fill="#EB937F" rx="11" ry="11" style="stroke:#181818;stroke-width:1;"/><path d="M100.4043,595.95 L92.6845,595.95 L92.6845,583.5569 L100.4043,583.5569 L100.4043,585.7151 L95.1333,585.7151 L95.1333,588.388 L99.9062,588.388 L99.9062,590.5462 L95.1333,590.5462 L95.1333,593.7918 L100.4043,593.7918 Z " fill="#000000"/><text fill="#000000" font-family="sans-serif" font-size="14" lengthAdjust="spacing" textLength="79.6113" x="110.79" y="594.741">LeaveStatus</text><line style="stroke:#181818;stroke-width:0.5;" x1="82.79" x2="192.4013" y1="605.45" y2="605.45"/><text fill="#000000" font-family="sans-serif" font-size="14" lengthAdjust="spacing" textLength="68.8379" x="87.79" y="622.9852">submitted</text><text fill="#000000" font-family="sans-serif" font-size="14" lengthAdjust="spacing" textLength="63.54" x="87.79" y="639.4734">approved</text><text fill="#000000" font-family="sans-serif" font-size="14" lengthAdjust="spacing" textLength="54.6055" x="87.79" y="655.9617">rejected</text><line style="stroke:#181818;stroke-width:0.5;" x1="82.79" x2="192.4013" y1="662.9148" y2="662.9148"/></g><!--class ApprovalContract--><g class="entity" data-qualified-name="ApprovalContract" data-source-line="29" id="ent0007"><rect fill="#F1F1F1" height="80.9766" rx="2.5" ry="2.5" style="stroke:#181818;stroke-width:0.5;" width="150.7129" x="228.24" y="581.69"/><ellipse cx="243.24" cy="597.69" fill="#B4A7E5" rx="11" ry="11" style="stroke:#181818;stroke-width:1;"/><path d="M239.6677,593.9551 L239.6677,591.7969 L247.0471,591.7969 L247.0471,593.9551 L244.5818,593.9551 L244.5818,602.0318 L247.0471,602.0318 L247.0471,604.19 L239.6677,604.19 L239.6677,602.0318 L242.1331,602.0318 L242.1331,593.9551 Z " fill="#000000"/><text fill="#000000" font-family="sans-serif" font-size="14" font-style="italic" lengthAdjust="spacing" textLength="118.7129" x="257.24" y="602.981">ApprovalContract</text><line style="stroke:#181818;stroke-width:0.5;" x1="229.24" x2="377.9529" y1="613.69" y2="613.69"/><line style="stroke:#181818;stroke-width:0.5;" x1="229.24" x2="377.9529" y1="621.69" y2="621.69"/><g data-visibility-modifier="PUBLIC_METHOD"><ellipse cx="239.24" cy="635.4341" fill="#84BE84" rx="3" ry="3" style="stroke:#038048;stroke-width:1;"/></g><text fill="#000000" font-family="sans-serif" font-size="14" lengthAdjust="spacing" textLength="101.3975" x="248.24" y="639.2252">approve(): void</text><g data-visibility-modifier="PUBLIC_METHOD"><ellipse cx="239.24" cy="651.9224" fill="#84BE84" rx="3" ry="3" style="stroke:#038048;stroke-width:1;"/></g><text fill="#000000" font-family="sans-serif" font-size="14" lengthAdjust="spacing" textLength="84.6631" x="248.24" y="655.7134">reject(): void</text></g><!--class MonthlyPayrollRecord--><g class="entity" data-qualified-name="MonthlyPayrollRecord" data-source-line="34" id="ent0008"><rect fill="#F1F1F1" height="80.9766" rx="2.5" ry="2.5" style="stroke:#181818;stroke-width:0.5;" width="178.8018" x="333.2" y="415.47"/><ellipse cx="348.2" cy="431.47" fill="#ADD1B2" rx="11" ry="11" style="stroke:#181818;stroke-width:1;"/><path d="M350.6731,437.6131 Q350.0921,437.9119 349.4529,438.0613 Q348.8138,438.2107 348.1082,438.2107 Q345.6014,438.2107 344.2815,436.5589 Q342.9617,434.907 342.9617,431.7859 Q342.9617,428.6565 344.2815,427.0047 Q345.6014,425.3528 348.1082,425.3528 Q348.8138,425.3528 349.4612,425.5022 Q350.1087,425.6516 350.6731,425.9505 L350.6731,428.6731 Q350.0423,428.0921 349.4488,427.8223 Q348.8553,427.5525 348.2244,427.5525 Q346.8797,427.5525 346.1949,428.6192 Q345.5101,429.6858 345.5101,431.7859 Q345.5101,433.8777 346.1949,434.9444 Q346.8797,436.011 348.2244,436.011 Q348.8553,436.011 349.4488,435.7412 Q350.0423,435.4715 350.6731,434.8904 Z " fill="#000000"/><text fill="#000000" font-family="sans-serif" font-size="14" lengthAdjust="spacing" textLength="146.8018" x="362.2" y="436.761">MonthlyPayrollRecord</text><line style="stroke:#181818;stroke-width:0.5;" x1="334.2" x2="511.0018" y1="447.47" y2="447.47"/><g data-visibility-modifier="PUBLIC_FIELD"><ellipse cx="344.2" cy="461.2141" fill="none" rx="3" ry="3" style="stroke:#038048;stroke-width:1;"/></g><text fill="#000000" font-family="sans-serif" font-size="14" lengthAdjust="spacing" textLength="93.1123" x="353.2" y="465.0052">month: String</text><g data-visibility-modifier="PUBLIC_FIELD"><ellipse cx="344.2" cy="477.7024" fill="none" rx="3" ry="3" style="stroke:#038048;stroke-width:1;"/></g><text fill="#000000" font-family="sans-serif" font-size="14" lengthAdjust="spacing" textLength="109.3066" x="353.2" y="481.4934">amount: Double</text><line style="stroke:#181818;stroke-width:0.5;" x1="334.2" x2="511.0018" y1="488.4466" y2="488.4466"/></g><!--link Manager to Employee--><g class="link" data-entity-1="ent0002" data-entity-2="ent0001" data-link-type="extension" data-source-line="39" id="lnk9"><path codeLine="39" d="M324.16,213.22 C303.25,231.8 290.3259,243.2742 269.4259,261.8442" fill="none" id="Manager-to-Employee" style="stroke:#181818;stroke-width:1;"/><polygon fill="none" points="255.97,273.8,273.4111,266.3295,265.4406,257.359,255.97,273.8" style="stroke:#181818;stroke-width:1;stroke-linejoin:miter;stroke-miterlimit:10;"/></g><!--reverse link Department to Employee--><g class="link" data-entity-1="ent0003" data-entity-2="ent0001" data-link-type="composition" data-source-line="41" id="lnk10"><path codeLine="41" d="M181.2619,83.6075 C174.6019,118.5275 169.3,164.48 179.6,212.98 C184.11,234.24 193.87,256.54 202.74,273.9" fill="none" id="Department-backto-Employee" style="stroke:#181818;stroke-width:1;"/><polygon fill="#181818" points="183.51,71.82,178.4568,76.9644,181.2619,83.6075,186.3151,78.4631,183.51,71.82" style="stroke:#181818;stroke-width:1;stroke-linejoin:miter;stroke-miterlimit:10;"/><text fill="#000000" font-family="sans-serif" font-size="13" lengthAdjust="spacing" textLength="52.7236" x="180.6" y="185.8084">employs</text><text fill="#000000" font-family="sans-serif" font-size="13" lengthAdjust="spacing" textLength="8.2202" x="173.418" y="92.0574">1</text><text fill="#000000" font-family="sans-serif" font-size="13" lengthAdjust="spacing" textLength="22.7119" x="174.8611" y="263.2867">1..*</text></g><!--link Department to Manager--><g class="link" data-entity-1="ent0003" data-entity-2="ent0002" data-link-type="association" data-source-line="42" id="lnk11"><path codeLine="42" d="M228.95,71.9 C256.6,94.73 293.78,125.41 321.4,148.21" fill="none" id="Department-Manager" style="stroke:#181818;stroke-width:1;"/><text fill="#000000" font-family="sans-serif" font-size="13" lengthAdjust="spacing" textLength="38.27" x="286.22" y="115.0584">led by</text><text fill="#000000" font-family="sans-serif" font-size="13" lengthAdjust="spacing" textLength="8.2202" x="227.52" y="92.1527">1</text><text fill="#000000" font-family="sans-serif" font-size="13" lengthAdjust="spacing" textLength="8.2202" x="304.7188" y="137.5554">1</text></g><!--link Employee to Position--><g class="link" data-entity-1="ent0001" data-entity-2="ent0004" data-link-type="association" data-source-line="44" id="lnk12"><path codeLine="44" d="M185.63,338.92 C158.13,363.84 119.99,398.4 92.51,423.32" fill="none" id="Employee-Position" style="stroke:#181818;stroke-width:1;"/><text fill="#000000" font-family="sans-serif" font-size="13" lengthAdjust="spacing" textLength="34.6201" x="149.86" y="382.0384">holds</text><text fill="#000000" font-family="sans-serif" font-size="13" lengthAdjust="spacing" textLength="8.2202" x="170.4653" y="358.9281">1</text><text fill="#000000" font-family="sans-serif" font-size="13" lengthAdjust="spacing" textLength="8.2202" x="90.6175" y="413.0175">1</text></g><!--reverse link Employee to LeaveRequest--><g class="link" data-entity-1="ent0001" data-entity-2="ent0005" data-link-type="composition" data-source-line="46" id="lnk13"><path codeLine="46" d="M220.6,350.92 C220.6,373.21 220.6,391.22 220.6,415.14" fill="none" id="Employee-backto-LeaveRequest" style="stroke:#181818;stroke-width:1;"/><polygon fill="#181818" points="220.6,338.92,216.6,344.92,220.6,350.92,224.6,344.92,220.6,338.92" style="stroke:#181818;stroke-width:1;stroke-linejoin:miter;stroke-miterlimit:10;"/><text fill="#000000" font-family="sans-serif" font-size="13" lengthAdjust="spacing" textLength="50.2607" x="221.6" y="382.0384">submits</text><text fill="#000000" font-family="sans-serif" font-size="13" lengthAdjust="spacing" textLength="8.2202" x="211.8829" y="358.9281">1</text><text fill="#000000" font-family="sans-serif" font-size="13" lengthAdjust="spacing" textLength="22.7119" x="196.8374" y="404.7314">0..*</text></g><!--link LeaveRequest to LeaveStatus--><g class="link" data-entity-1="ent0005" data-entity-2="ent0006" data-link-type="association" data-source-line="47" id="lnk14"><path codeLine="47" d="M200.51,496.71 C188.9,519.68 174.21,548.74 161.94,573.01" fill="none" id="LeaveRequest-LeaveStatus" style="stroke:#181818;stroke-width:1;"/><text fill="#000000" font-family="sans-serif" font-size="13" lengthAdjust="spacing" textLength="21.874" x="185.07" y="540.0184">has</text></g><!--link LeaveRequest to ApprovalContract--><g class="link" data-entity-1="ent0005" data-entity-2="ent0007" data-link-type="extension" data-source-line="48" id="lnk15"><path codeLine="48" d="M240.69,496.71 C253.64,522.34 262.3126,539.4842 275.2826,565.1542" fill="none" id="LeaveRequest-to-ApprovalContract" style="stroke:#181818;stroke-width:1;stroke-dasharray:7,7;"/><polygon fill="none" points="283.4,581.22,280.6379,562.4485,269.9274,567.86,283.4,581.22" style="stroke:#181818;stroke-width:1;stroke-linejoin:miter;stroke-miterlimit:10;"/></g><!--reverse link Employee to MonthlyPayrollRecord--><g class="link" data-entity-1="ent0001" data-entity-2="ent0008" data-link-type="composition" data-source-line="50" id="lnk16"><path codeLine="50" d="M273.6174,346.002 C304.1074,368.292 335.45,391.22 368.15,415.14" fill="none" id="Employee-backto-MonthlyPayrollRecord" style="stroke:#181818;stroke-width:1;"/><polygon fill="#181818" points="263.93,338.92,266.413,345.6901,273.6174,346.002,271.1344,339.2319,263.93,338.92" style="stroke:#181818;stroke-width:1;stroke-linejoin:miter;stroke-miterlimit:10;"/><text fill="#000000" font-family="sans-serif" font-size="13" lengthAdjust="spacing" textLength="21.874" x="322.6" y="382.0384">has</text><text fill="#000000" font-family="sans-serif" font-size="13" lengthAdjust="spacing" textLength="8.2202" x="263.2018" y="358.9281">1</text><text fill="#000000" font-family="sans-serif" font-size="13" lengthAdjust="spacing" textLength="22.7119" x="335.3687" y="404.7314">0..*</text></g><?plantuml-src VP7DJiCm48JlVWeh9sYL2Au-827A3QIgVO9DihIk_1FiTQG8U7SS9wHfA9pYRBwPZMSg1TxpPzqeso7o3yRvse16mVVaf3cmByQgnBo2WGEw0Ib3VK3QeM-iyRAKIbBtMxB11XnfDFIVyTPwITAQWI59wWhqWj3Y3jy3-j6iGITjFP5nuWaeU36m-_JI6w09UZvBSXzABOcmZcTe6cVRT7HumggVHfqqXEuDAkIF2G3rP0qvgCOV66KtjuAtLlRgzI2V9kViel2ekYrqpYgrmygwUZ3H_PVv9K3RO4ZmZGsbmjxY9_Wy_toOcc9i5cvsd_5LdiTdKQooSvk2Ophw9PpORAfKS8KrBpl69kcCcleH_6XLxHTKMdoN5b-K9CQCFRiOHthUHVI41L4KyPxBoFzUUZNRmVOR?></g></svg>