<svg xmlns="http://www.w3.org/2000/svg" xmlns:xlink="http://www.w3.org/1999/xlink" contentStyleType="text/css" data-diagram-type="CLASS" height="502px" preserveAspectRatio="none" style="width:1472px;height:502px;background:#FFFFFF;" version="1.1" viewBox="0 0 1472 502" width="1472px" zoomAndPan="magnify"><?plantuml 1.2026.6?><defs/><g><!--class ECU--><g class="entity" data-qualified-name="ECU" data-source-line="2" id="ent0001"><rect fill="#F1F1F1" height="48" rx="2.5" ry="2.5" style="stroke:#181818;stroke-width:0.5;" width="58.9746" x="952.2" y="7"/><ellipse cx="967.2" cy="23" fill="#ADD1B2" rx="11" ry="11" style="stroke:#181818;stroke-width:1;"/><path d="M969.6731,29.1431 Q969.0921,29.4419 968.4529,29.5913 Q967.8138,29.7407 967.1082,29.7407 Q964.6014,29.7407 963.2815,28.0889 Q961.9617,26.437 961.9617,23.3159 Q961.9617,20.1865 963.2815,18.5347 Q964.6014,16.8828 967.1082,16.8828 Q967.8138,16.8828 968.4612,17.0322 Q969.1087,17.1816 969.6731,17.4805 L969.6731,20.2031 Q969.0423,19.6221 968.4488,19.3523 Q967.8553,19.0825 967.2244,19.0825 Q965.8797,19.0825 965.1949,20.1492 Q964.5101,21.2158 964.5101,23.3159 Q964.5101,25.4077 965.1949,26.4744 Q965.8797,27.541 967.2244,27.541 Q967.8553,27.541 968.4488,27.2712 Q969.0423,27.0015 969.6731,26.4204 Z " fill="#000000"/><text fill="#000000" font-family="sans-serif" font-size="14" lengthAdjust="spacing" textLength="26.9746" x="981.2" y="28.291">ECU</text><line style="stroke:#181818;stroke-width:0.5;" x1="953.2" x2="1010.1746" y1="39" y2="39"/><line style="stroke:#181818;stroke-width:0.5;" x1="953.2" x2="1010.1746" y1="47" y2="47"/></g><!--class HardwareLayer--><g class="entity" data-qualified-name="HardwareLayer" data-source-line="3" id="ent0002"><rect fill="#F1F1F1" height="48" rx="2.5" ry="2.5" style="stroke:#181818;stroke-width:0.5;" width="137.0752" x="541.15" y="115"/><ellipse cx="556.15" cy="131" fill="#ADD1B2" rx="11" ry="11" style="stroke:#181818;stroke-width:1;"/><path d="M558.6231,137.1431 Q558.0421,137.4419 557.4029,137.5913 Q556.7638,137.7407 556.0582,137.7407 Q553.5514,137.7407 552.2315,136.0889 Q550.9117,134.437 550.9117,131.3159 Q550.9117,128.1865 552.2315,126.5347 Q553.5514,124.8828 556.0582,124.8828 Q556.7638,124.8828 557.4112,125.0322 Q558.0587,125.1816 558.6231,125.4805 L558.6231,128.2031 Q557.9923,127.6221 557.3988,127.3523 Q556.8053,127.0825 556.1744,127.0825 Q554.8297,127.0825 554.1449,128.1492 Q553.4601,129.2158 553.4601,131.3159 Q553.4601,133.4077 554.1449,134.4744 Q554.8297,135.541 556.1744,135.541 Q556.8053,135.541 557.3988,135.2712 Q557.9923,135.0015 558.6231,134.4204 Z " fill="#000000"/><text fill="#000000" font-family="sans-serif" font-size="14" lengthAdjust="spacing" textLength="105.0752" x="570.15" y="136.291">Hardware Layer</text><line style="stroke:#181818;stroke-width:0.5;" x1="542.15" x2="677.2252" y1="147" y2="147"/><line style="stroke:#181818;stroke-width:0.5;" x1="542.15" x2="677.2252" y1="155" y2="155"/></g><!--class BSWLayer--><g class="entity" data-qualified-name="BSWLayer" data-source-line="4" id="ent0003"><rect fill="#F1F1F1" height="48" rx="2.5" ry="2.5" style="stroke:#181818;stroke-width:0.5;" width="169.6074" x="896.88" y="115"/><ellipse cx="911.88" cy="131" fill="#ADD1B2" rx="11" ry="11" style="stroke:#181818;stroke-width:1;"/><path d="M914.3531,137.1431 Q913.7721,137.4419 913.1329,137.5913 Q912.4938,137.7407 911.7882,137.7407 Q909.2814,137.7407 907.9615,136.0889 Q906.6417,134.437 906.6417,131.3159 Q906.6417,128.1865 907.9615,126.5347 Q909.2814,124.8828 911.7882,124.8828 Q912.4938,124.8828 913.1412,125.0322 Q913.7887,125.1816 914.3531,125.4805 L914.3531,128.2031 Q913.7223,127.6221 913.1288,127.3523 Q912.5353,127.0825 911.9044,127.0825 Q910.5597,127.0825 909.8749,128.1492 Q909.1901,129.2158 909.1901,131.3159 Q909.1901,133.4077 909.8749,134.4744 Q910.5597,135.541 911.9044,135.541 Q912.5353,135.541 913.1288,135.2712 Q913.7223,135.0015 914.3531,134.4204 Z " fill="#000000"/><text fill="#000000" font-family="sans-serif" font-size="14" lengthAdjust="spacing" textLength="137.6074" x="925.88" y="136.291">AUTOSAR BSW Layer</text><line style="stroke:#181818;stroke-width:0.5;" x1="897.88" x2="1065.4874" y1="147" y2="147"/><line style="stroke:#181818;stroke-width:0.5;" x1="897.88" x2="1065.4874" y1="155" y2="155"/></g><!--class ApplicationLayer--><g class="entity" data-qualified-name="ApplicationLayer" data-source-line="5" id="ent0004"><rect fill="#F1F1F1" height="48" rx="2.5" ry="2.5" style="stroke:#181818;stroke-width:0.5;" width="149.3184" x="1101.03" y="115"/><ellipse cx="1116.03" cy="131" fill="#ADD1B2" rx="11" ry="11" style="stroke:#181818;stroke-width:1;"/><path d="M1118.5031,137.1431 Q1117.9221,137.4419 1117.2829,137.5913 Q1116.6438,137.7407 1115.9382,137.7407 Q1113.4314,137.7407 1112.1115,136.0889 Q1110.7917,134.437 1110.7917,131.3159 Q1110.7917,128.1865 1112.1115,126.5347 Q1113.4314,124.8828 1115.9382,124.8828 Q1116.6438,124.8828 1117.2912,125.0322 Q1117.9387,125.1816 1118.5031,125.4805 L1118.5031,128.2031 Q1117.8723,127.6221 1117.2788,127.3523 Q1116.6853,127.0825 1116.0544,127.0825 Q1114.7097,127.0825 1114.0249,128.1492 Q1113.3401,129.2158 1113.3401,131.3159 Q1113.3401,133.4077 1114.0249,134.4744 Q1114.7097,135.541 1116.0544,135.541 Q1116.6853,135.541 1117.2788,135.2712 Q1117.8723,135.0015 1118.5031,134.4204 Z " fill="#000000"/><text fill="#000000" font-family="sans-serif" font-size="14" lengthAdjust="spacing" textLength="117.3184" x="1130.03" y="136.291">Application Layer</text><line style="stroke:#181818;stroke-width:0.5;" x1="1102.03" x2="1249.3484" y1="147" y2="147"/><line style="stroke:#181818;stroke-width:0.5;" x1="1102.03" x2="1249.3484" y1="155" y2="155"/></g><!--class Microcontroller--><g class="entity" data-qualified-name="Microcontroller" data-source-line="7" id="ent0005"><rect fill="#F1F1F1" height="48" rx="2.5" ry="2.5" style="stroke:#181818;stroke-width:0.5;" width="135.25" x="230.06" y="223"/><ellipse cx="245.06" cy="239" fill="#ADD1B2" rx="11" ry="11" style="stroke:#181818;stroke-width:1;"/><path d="M247.5331,245.1431 Q246.9521,245.4419 246.3129,245.5913 Q245.6738,245.7407 244.9682,245.7407 Q242.4614,245.7407 241.1415,244.0889 Q239.8217,242.437 239.8217,239.3159 Q239.8217,236.1865 241.1415,234.5347 Q242.4614,232.8828 244.9682,232.8828 Q245.6738,232.8828 246.3212,233.0322 Q246.9687,233.1816 247.5331,233.4805 L247.5331,236.2031 Q246.9023,235.6221 246.3088,235.3523 Q245.7153,235.0825 245.0844,235.0825 Q243.7397,235.0825 243.0549,236.1492 Q242.3701,237.2158 242.3701,239.3159 Q242.3701,241.4077 243.0549,242.4744 Q243.7397,243.541 245.0844,243.541 Q245.7153,243.541 246.3088,243.2712 Q246.9023,243.0015 247.5331,242.4204 Z " fill="#000000"/><text fill="#000000" font-family="sans-serif" font-size="14" lengthAdjust="spacing" textLength="103.25" x="259.06" y="244.291">Microcontroller</text><line style="stroke:#181818;stroke-width:0.5;" x1="231.06" x2="364.31" y1="255" y2="255"/><line style="stroke:#181818;stroke-width:0.5;" x1="231.06" x2="364.31" y1="263" y2="263"/></g><!--class CPUCore--><g class="entity" data-qualified-name="CPUCore" data-source-line="8" id="ent0006"><rect fill="#F1F1F1" height="48" rx="2.5" ry="2.5" style="stroke:#181818;stroke-width:0.5;" width="95.3691" x="7" y="331"/><ellipse cx="22" cy="347" fill="#ADD1B2" rx="11" ry="11" style="stroke:#181818;stroke-width:1;"/><path d="M24.4731,353.1431 Q23.8921,353.4419 23.2529,353.5913 Q22.6138,353.7407 21.9082,353.7407 Q19.4014,353.7407 18.0815,352.0889 Q16.7617,350.437 16.7617,347.3159 Q16.7617,344.1865 18.0815,342.5347 Q19.4014,340.8828 21.9082,340.8828 Q22.6138,340.8828 23.2612,341.0322 Q23.9087,341.1816 24.4731,341.4805 L24.4731,344.2031 Q23.8423,343.6221 23.2488,343.3523 Q22.6553,343.0825 22.0244,343.0825 Q20.6797,343.0825 19.9949,344.1492 Q19.3101,345.2158 19.3101,347.3159 Q19.3101,349.4077 19.9949,350.4744 Q20.6797,351.541 22.0244,351.541 Q22.6553,351.541 23.2488,351.2712 Q23.8423,351.0015 24.4731,350.4204 Z " fill="#000000"/><text fill="#000000" font-family="sans-serif" font-size="14" lengthAdjust="spacing" textLength="63.3691" x="36" y="352.291">CPU Core</text><line style="stroke:#181818;stroke-width:0.5;" x1="8" x2="101.3691" y1="363" y2="363"/><line style="stroke:#181818;stroke-width:0.5;" x1="8" x2="101.3691" y1="371" y2="371"/></g><!--class RAM--><g class="entity" data-qualified-name="RAM" data-source-line="9" id="ent0007"><rect fill="#F1F1F1" height="48" rx="2.5" ry="2.5" style="stroke:#181818;stroke-width:0.5;" width="62.5703" x="137.4" y="331"/><ellipse cx="152.4" cy="347" fill="#ADD1B2" rx="11" ry="11" style="stroke:#181818;stroke-width:1;"/><path d="M154.8731,353.1431 Q154.2921,353.4419 153.6529,353.5913 Q153.0138,353.7407 152.3082,353.7407 Q149.8014,353.7407 148.4815,352.0889 Q147.1617,350.437 147.1617,347.3159 Q147.1617,344.1865 148.4815,342.5347 Q149.8014,340.8828 152.3082,340.8828 Q153.0138,340.8828 153.6612,341.0322 Q154.3087,341.1816 154.8731,341.4805 L154.8731,344.2031 Q154.2423,343.6221 153.6488,343.3523 Q153.0553,343.0825 152.4244,343.0825 Q151.0797,343.0825 150.3949,344.1492 Q149.7101,345.2158 149.7101,347.3159 Q149.7101,349.4077 150.3949,350.4744 Q151.0797,351.541 152.4244,351.541 Q153.0553,351.541 153.6488,351.2712 Q154.2423,351.0015 154.8731,350.4204 Z " fill="#000000"/><text fill="#000000" font-family="sans-serif" font-size="14" lengthAdjust="spacing" textLength="30.5703" x="166.4" y="352.291">RAM</text><line style="stroke:#181818;stroke-width:0.5;" x1="138.4" x2="198.9703" y1="363" y2="363"/><line style="stroke:#181818;stroke-width:0.5;" x1="138.4" x2="198.9703" y1="371" y2="371"/></g><!--class FlashMemory--><g class="entity" data-qualified-name="FlashMemory" data-source-line="10" id="ent0008"><rect fill="#F1F1F1" height="48" rx="2.5" ry="2.5" style="stroke:#181818;stroke-width:0.5;" width="126.1104" x="234.63" y="331"/><ellipse cx="249.63" cy="347" fill="#ADD1B2" rx="11" ry="11" style="stroke:#181818;stroke-width:1;"/><path d="M252.1031,353.1431 Q251.5221,353.4419 250.8829,353.5913 Q250.2438,353.7407 249.5382,353.7407 Q247.0314,353.7407 245.7115,352.0889 Q244.3917,350.437 244.3917,347.3159 Q244.3917,344.1865 245.7115,342.5347 Q247.0314,340.8828 249.5382,340.8828 Q250.2438,340.8828 250.8912,341.0322 Q251.5387,341.1816 252.1031,341.4805 L252.1031,344.2031 Q251.4723,343.6221 250.8788,343.3523 Q250.2853,343.0825 249.6544,343.0825 Q248.3097,343.0825 247.6249,344.1492 Q246.9401,345.2158 246.9401,347.3159 Q246.9401,349.4077 247.6249,350.4744 Q248.3097,351.541 249.6544,351.541 Q250.2853,351.541 250.8788,351.2712 Q251.4723,351.0015 252.1031,350.4204 Z " fill="#000000"/><text fill="#000000" font-family="sans-serif" font-size="14" lengthAdjust="spacing" textLength="94.1104" x="263.63" y="352.291">Flash Memory</text><line style="stroke:#181818;stroke-width:0.5;" x1="235.63" x2="359.7404" y1="363" y2="363"/><line style="stroke:#181818;stroke-width:0.5;" x1="235.63" x2="359.7404" y1="371" y2="371"/></g><!--class CommunicationController--><g class="entity" data-qualified-name="CommunicationController" data-source-line="12" id="ent0009"><rect fill="#F1F1F1" height="48" rx="2.5" ry="2.5" style="stroke:#181818;stroke-width:0.5;" width="211.915" x="395.73" y="331"/><ellipse cx="410.73" cy="347" fill="#A9DCDF" rx="11" ry="11" style="stroke:#181818;stroke-width:1;"/><path d="M410.5933,342.3481 L409.4395,347.4199 L411.7554,347.4199 Z M409.0991,340.1069 L412.0957,340.1069 L415.4409,352.5 L412.9922,352.5 L412.2285,349.437 L408.9497,349.437 L408.2027,352.5 L405.7539,352.5 Z " fill="#000000"/><text fill="#000000" font-family="sans-serif" font-size="14" font-style="italic" lengthAdjust="spacing" textLength="179.915" x="424.73" y="352.291">Communication Controller</text><line style="stroke:#181818;stroke-width:0.5;" x1="396.73" x2="606.645" y1="363" y2="363"/><line style="stroke:#181818;stroke-width:0.5;" x1="396.73" x2="606.645" y1="371" y2="371"/></g><!--class CANController--><g class="entity" data-qualified-name="CANController" data-source-line="13" id="ent0010"><rect fill="#F1F1F1" height="48" rx="2.5" ry="2.5" style="stroke:#181818;stroke-width:0.5;" width="134.2793" x="269.54" y="439"/><ellipse cx="284.54" cy="455" fill="#ADD1B2" rx="11" ry="11" style="stroke:#181818;stroke-width:1;"/><path d="M287.0131,461.1431 Q286.4321,461.4419 285.7929,461.5913 Q285.1538,461.7407 284.4482,461.7407 Q281.9414,461.7407 280.6215,460.0889 Q279.3017,458.437 279.3017,455.3159 Q279.3017,452.1865 280.6215,450.5347 Q281.9414,448.8828 284.4482,448.8828 Q285.1538,448.8828 285.8012,449.0322 Q286.4487,449.1816 287.0131,449.4805 L287.0131,452.2031 Q286.3823,451.6221 285.7888,451.3523 Q285.1953,451.0825 284.5644,451.0825 Q283.2197,451.0825 282.5349,452.1492 Q281.8501,453.2158 281.8501,455.3159 Q281.8501,457.4077 282.5349,458.4744 Q283.2197,459.541 284.5644,459.541 Q285.1953,459.541 285.7888,459.2712 Q286.3823,459.0015 287.0131,458.4204 Z " fill="#000000"/><text fill="#000000" font-family="sans-serif" font-size="14" lengthAdjust="spacing" textLength="102.2793" x="298.54" y="460.291">CAN Controller</text><line style="stroke:#181818;stroke-width:0.5;" x1="270.54" x2="402.8193" y1="471" y2="471"/><line style="stroke:#181818;stroke-width:0.5;" x1="270.54" x2="402.8193" y1="479" y2="479"/></g><!--class LINController--><g class="entity" data-qualified-name="LINController" data-source-line="14" id="ent0011"><rect fill="#F1F1F1" height="48" rx="2.5" ry="2.5" style="stroke:#181818;stroke-width:0.5;" width="126.4316" x="438.47" y="439"/><ellipse cx="453.47" cy="455" fill="#ADD1B2" rx="11" ry="11" style="stroke:#181818;stroke-width:1;"/><path d="M455.9431,461.1431 Q455.3621,461.4419 454.7229,461.5913 Q454.0838,461.7407 453.3782,461.7407 Q450.8714,461.7407 449.5515,460.0889 Q448.2317,458.437 448.2317,455.3159 Q448.2317,452.1865 449.5515,450.5347 Q450.8714,448.8828 453.3782,448.8828 Q454.0838,448.8828 454.7312,449.0322 Q455.3787,449.1816 455.9431,449.4805 L455.9431,452.2031 Q455.3123,451.6221 454.7188,451.3523 Q454.1253,451.0825 453.4944,451.0825 Q452.1497,451.0825 451.4649,452.1492 Q450.7801,453.2158 450.7801,455.3159 Q450.7801,457.4077 451.4649,458.4744 Q452.1497,459.541 453.4944,459.541 Q454.1253,459.541 454.7188,459.2712 Q455.3123,459.0015 455.9431,458.4204 Z " fill="#000000"/><text fill="#000000" font-family="sans-serif" font-size="14" lengthAdjust="spacing" textLength="94.4316" x="467.47" y="460.291">LIN Controller</text><line style="stroke:#181818;stroke-width:0.5;" x1="439.47" x2="563.9016" y1="471" y2="471"/><line style="stroke:#181818;stroke-width:0.5;" x1="439.47" x2="563.9016" y1="479" y2="479"/></g><!--class EthernetController--><g class="entity" data-qualified-name="EthernetController" data-source-line="15" id="ent0012"><rect fill="#F1F1F1" height="48" rx="2.5" ry="2.5" style="stroke:#181818;stroke-width:0.5;" width="161.3564" x="600.01" y="439"/><ellipse cx="615.01" cy="455" fill="#ADD1B2" rx="11" ry="11" style="stroke:#181818;stroke-width:1;"/><path d="M617.4831,461.1431 Q616.9021,461.4419 616.2629,461.5913 Q615.6238,461.7407 614.9182,461.7407 Q612.4114,461.7407 611.0915,460.0889 Q609.7717,458.437 609.7717,455.3159 Q609.7717,452.1865 611.0915,450.5347 Q612.4114,448.8828 614.9182,448.8828 Q615.6238,448.8828 616.2712,449.0322 Q616.9187,449.1816 617.4831,449.4805 L617.4831,452.2031 Q616.8523,451.6221 616.2588,451.3523 Q615.6653,451.0825 615.0344,451.0825 Q613.6897,451.0825 613.0049,452.1492 Q612.3201,453.2158 612.3201,455.3159 Q612.3201,457.4077 613.0049,458.4744 Q613.6897,459.541 615.0344,459.541 Q615.6653,459.541 616.2588,459.2712 Q616.8523,459.0015 617.4831,458.4204 Z " fill="#000000"/><text fill="#000000" font-family="sans-serif" font-size="14" lengthAdjust="spacing" textLength="129.3564" x="629.01" y="460.291">Ethernet Controller</text><line style="stroke:#181818;stroke-width:0.5;" x1="601.01" x2="760.3664" y1="471" y2="471"/><line style="stroke:#181818;stroke-width:0.5;" x1="601.01" x2="760.3664" y1="479" y2="479"/></g><!--class BSWModule--><g class="entity" data-qualified-name="BSWModule" data-source-line="17" id="ent0013"><rect fill="#F1F1F1" height="48" rx="2.5" ry="2.5" style="stroke:#181818;stroke-width:0.5;" width="114.0039" x="928.68" y="223"/><ellipse cx="943.68" cy="239" fill="#A9DCDF" rx="11" ry="11" style="stroke:#181818;stroke-width:1;"/><path d="M943.5433,234.3481 L942.3895,239.4199 L944.7054,239.4199 Z M942.0491,232.1069 L945.0457,232.1069 L948.3909,244.5 L945.9422,244.5 L945.1785,241.437 L941.8997,241.437 L941.1527,244.5 L938.7039,244.5 Z " fill="#000000"/><text fill="#000000" font-family="sans-serif" font-size="14" font-style="italic" lengthAdjust="spacing" textLength="82.0039" x="957.68" y="244.291">BSW Module</text><line style="stroke:#181818;stroke-width:0.5;" x1="929.68" x2="1041.6839" y1="255" y2="255"/><line style="stroke:#181818;stroke-width:0.5;" x1="929.68" x2="1041.6839" y1="263" y2="263"/></g><!--class MCAL--><g class="entity" data-qualified-name="MCAL" data-source-line="18" id="ent0014"><rect fill="#F1F1F1" height="48" rx="2.5" ry="2.5" style="stroke:#181818;stroke-width:0.5;" width="70.8691" x="642.25" y="331"/><ellipse cx="657.25" cy="347" fill="#ADD1B2" rx="11" ry="11" style="stroke:#181818;stroke-width:1;"/><path d="M659.7231,353.1431 Q659.1421,353.4419 658.5029,353.5913 Q657.8638,353.7407 657.1582,353.7407 Q654.6514,353.7407 653.3315,352.0889 Q652.0117,350.437 652.0117,347.3159 Q652.0117,344.1865 653.3315,342.5347 Q654.6514,340.8828 657.1582,340.8828 Q657.8638,340.8828 658.5112,341.0322 Q659.1587,341.1816 659.7231,341.4805 L659.7231,344.2031 Q659.0923,343.6221 658.4988,343.3523 Q657.9053,343.0825 657.2744,343.0825 Q655.9297,343.0825 655.2449,344.1492 Q654.5601,345.2158 654.5601,347.3159 Q654.5601,349.4077 655.2449,350.4744 Q655.9297,351.541 657.2744,351.541 Q657.9053,351.541 658.4988,351.2712 Q659.0923,351.0015 659.7231,350.4204 Z " fill="#000000"/><text fill="#000000" font-family="sans-serif" font-size="14" lengthAdjust="spacing" textLength="38.8691" x="671.25" y="352.291">MCAL</text><line style="stroke:#181818;stroke-width:0.5;" x1="643.25" x2="712.1191" y1="363" y2="363"/><line style="stroke:#181818;stroke-width:0.5;" x1="643.25" x2="712.1191" y1="371" y2="371"/></g><!--class CANCommStack--><g class="entity" data-qualified-name="CANCommStack" data-source-line="19" id="ent0015"><rect fill="#F1F1F1" height="48" rx="2.5" ry="2.5" style="stroke:#181818;stroke-width:0.5;" width="213.7334" x="747.82" y="331"/><ellipse cx="762.82" cy="347" fill="#ADD1B2" rx="11" ry="11" style="stroke:#181818;stroke-width:1;"/><path d="M765.2931,353.1431 Q764.7121,353.4419 764.0729,353.5913 Q763.4338,353.7407 762.7282,353.7407 Q760.2214,353.7407 758.9015,352.0889 Q757.5817,350.437 757.5817,347.3159 Q757.5817,344.1865 758.9015,342.5347 Q760.2214,340.8828 762.7282,340.8828 Q763.4338,340.8828 764.0812,341.0322 Q764.7287,341.1816 765.2931,341.4805 L765.2931,344.2031 Q764.6623,343.6221 764.0688,343.3523 Q763.4753,343.0825 762.8444,343.0825 Q761.4997,343.0825 760.8149,344.1492 Q760.1301,345.2158 760.1301,347.3159 Q760.1301,349.4077 760.8149,350.4744 Q761.4997,351.541 762.8444,351.541 Q763.4753,351.541 764.0688,351.2712 Q764.6623,351.0015 765.2931,350.4204 Z " fill="#000000"/><text fill="#000000" font-family="sans-serif" font-size="14" lengthAdjust="spacing" textLength="181.7334" x="776.82" y="352.291">CAN Communication Stack</text><line style="stroke:#181818;stroke-width:0.5;" x1="748.82" x2="960.5534" y1="363" y2="363"/><line style="stroke:#181818;stroke-width:0.5;" x1="748.82" x2="960.5534" y1="371" y2="371"/></g><!--class EthernetCommStack--><g class="entity" data-qualified-name="EthernetCommStack" data-source-line="20" id="ent0016"><rect fill="#F1F1F1" height="48" rx="2.5" ry="2.5" style="stroke:#181818;stroke-width:0.5;" width="240.8105" x="996.28" y="331"/><ellipse cx="1011.28" cy="347" fill="#ADD1B2" rx="11" ry="11" style="stroke:#181818;stroke-width:1;"/><path d="M1013.7531,353.1431 Q1013.1721,353.4419 1012.5329,353.5913 Q1011.8938,353.7407 1011.1882,353.7407 Q1008.6814,353.7407 1007.3615,352.0889 Q1006.0417,350.437 1006.0417,347.3159 Q1006.0417,344.1865 1007.3615,342.5347 Q1008.6814,340.8828 1011.1882,340.8828 Q1011.8938,340.8828 1012.5412,341.0322 Q1013.1887,341.1816 1013.7531,341.4805 L1013.7531,344.2031 Q1013.1223,343.6221 1012.5288,343.3523 Q1011.9353,343.0825 1011.3044,343.0825 Q1009.9597,343.0825 1009.2749,344.1492 Q1008.5901,345.2158 1008.5901,347.3159 Q1008.5901,349.4077 1009.2749,350.4744 Q1009.9597,351.541 1011.3044,351.541 Q1011.9353,351.541 1012.5288,351.2712 Q1013.1223,351.0015 1013.7531,350.4204 Z " fill="#000000"/><text fill="#000000" font-family="sans-serif" font-size="14" lengthAdjust="spacing" textLength="208.8105" x="1025.28" y="352.291">Ethernet Communication Stack</text><line style="stroke:#181818;stroke-width:0.5;" x1="997.28" x2="1236.0905" y1="363" y2="363"/><line style="stroke:#181818;stroke-width:0.5;" x1="997.28" x2="1236.0905" y1="371" y2="371"/></g><!--class OS--><g class="entity" data-qualified-name="OS" data-source-line="21" id="ent0017"><rect fill="#F1F1F1" height="48" rx="2.5" ry="2.5" style="stroke:#181818;stroke-width:0.5;" width="50.416" x="1272.48" y="331"/><ellipse cx="1287.48" cy="347" fill="#ADD1B2" rx="11" ry="11" style="stroke:#181818;stroke-width:1;"/><path d="M1289.9531,353.1431 Q1289.3721,353.4419 1288.7329,353.5913 Q1288.0938,353.7407 1287.3882,353.7407 Q1284.8814,353.7407 1283.5615,352.0889 Q1282.2417,350.437 1282.2417,347.3159 Q1282.2417,344.1865 1283.5615,342.5347 Q1284.8814,340.8828 1287.3882,340.8828 Q1288.0938,340.8828 1288.7412,341.0322 Q1289.3887,341.1816 1289.9531,341.4805 L1289.9531,344.2031 Q1289.3223,343.6221 1288.7288,343.3523 Q1288.1353,343.0825 1287.5044,343.0825 Q1286.1597,343.0825 1285.4749,344.1492 Q1284.7901,345.2158 1284.7901,347.3159 Q1284.7901,349.4077 1285.4749,350.4744 Q1286.1597,351.541 1287.5044,351.541 Q1288.1353,351.541 1288.7288,351.2712 Q1289.3223,351.0015 1289.9531,350.4204 Z " fill="#000000"/><text fill="#000000" font-family="sans-serif" font-size="14" lengthAdjust="spacing" textLength="18.416" x="1301.48" y="352.291">OS</text><line style="stroke:#181818;stroke-width:0.5;" x1="1273.48" x2="1321.896" y1="363" y2="363"/><line style="stroke:#181818;stroke-width:0.5;" x1="1273.48" x2="1321.896" y1="371" y2="371"/></g><!--class Watchdog--><g class="entity" data-qualified-name="Watchdog" data-source-line="22" id="ent0018"><rect fill="#F1F1F1" height="48" rx="2.5" ry="2.5" style="stroke:#181818;stroke-width:0.5;" width="98.9443" x="1358.21" y="331"/><ellipse cx="1373.21" cy="347" fill="#ADD1B2" rx="11" ry="11" style="stroke:#181818;stroke-width:1;"/><path d="M1375.6831,353.1431 Q1375.1021,353.4419 1374.4629,353.5913 Q1373.8238,353.7407 1373.1182,353.7407 Q1370.6114,353.7407 1369.2915,352.0889 Q1367.9717,350.437 1367.9717,347.3159 Q1367.9717,344.1865 1369.2915,342.5347 Q1370.6114,340.8828 1373.1182,340.8828 Q1373.8238,340.8828 1374.4712,341.0322 Q1375.1187,341.1816 1375.6831,341.4805 L1375.6831,344.2031 Q1375.0523,343.6221 1374.4588,343.3523 Q1373.8653,343.0825 1373.2344,343.0825 Q1371.8897,343.0825 1371.2049,344.1492 Q1370.5201,345.2158 1370.5201,347.3159 Q1370.5201,349.4077 1371.2049,350.4744 Q1371.8897,351.541 1373.2344,351.541 Q1373.8653,351.541 1374.4588,351.2712 Q1375.0523,351.0015 1375.6831,350.4204 Z " fill="#000000"/><text fill="#000000" font-family="sans-serif" font-size="14" lengthAdjust="spacing" textLength="66.9443" x="1387.21" y="352.291">Watchdog</text><line style="stroke:#181818;stroke-width:0.5;" x1="1359.21" x2="1456.1543" y1="363" y2="363"/><line style="stroke:#181818;stroke-width:0.5;" x1="1359.21" x2="1456.1543" y1="371" y2="371"/></g><!--class SoftwareComponent--><g class="entity" data-qualified-name="SoftwareComponent" data-source-line="24" id="ent0019"><rect fill="#F1F1F1" height="48" rx="2.5" ry="2.5" style="stroke:#181818;stroke-width:0.5;" width="174.1807" x="1084.59" y="223"/><ellipse cx="1099.59" cy="239" fill="#ADD1B2" rx="11" ry="11" style="stroke:#181818;stroke-width:1;"/><path d="M1102.0631,245.1431 Q1101.4821,245.4419 1100.8429,245.5913 Q1100.2038,245.7407 1099.4982,245.7407 Q1096.9914,245.7407 1095.6715,244.0889 Q1094.3517,242.437 1094.3517,239.3159 Q1094.3517,236.1865 1095.6715,234.5347 Q1096.9914,232.8828 1099.4982,232.8828 Q1100.2038,232.8828 1100.8512,233.0322 Q1101.4987,233.1816 1102.0631,233.4805 L1102.0631,236.2031 Q1101.4323,235.6221 1100.8388,235.3523 Q1100.2453,235.0825 1099.6144,235.0825 Q1098.2697,235.0825 1097.5849,236.1492 Q1096.9001,237.2158 1096.9001,239.3159 Q1096.9001,241.4077 1097.5849,242.4744 Q1098.2697,243.541 1099.6144,243.541 Q1100.2453,243.541 1100.8388,243.2712 Q1101.4323,243.0015 1102.0631,242.4204 Z " fill="#000000"/><text fill="#000000" font-family="sans-serif" font-size="14" lengthAdjust="spacing" textLength="142.1807" x="1113.59" y="244.291">Software Component</text><line style="stroke:#181818;stroke-width:0.5;" x1="1085.59" x2="1257.7707" y1="255" y2="255"/><line style="stroke:#181818;stroke-width:0.5;" x1="1085.59" x2="1257.7707" y1="263" y2="263"/></g><!--class VFB--><g class="entity" data-qualified-name="VFB" data-source-line="25" id="ent0020"><rect fill="#F1F1F1" height="48" rx="2.5" ry="2.5" style="stroke:#181818;stroke-width:0.5;" width="56.7119" x="1293.33" y="223"/><ellipse cx="1308.33" cy="239" fill="#ADD1B2" rx="11" ry="11" style="stroke:#181818;stroke-width:1;"/><path d="M1310.8031,245.1431 Q1310.2221,245.4419 1309.5829,245.5913 Q1308.9438,245.7407 1308.2382,245.7407 Q1305.7314,245.7407 1304.4115,244.0889 Q1303.0917,242.437 1303.0917,239.3159 Q1303.0917,236.1865 1304.4115,234.5347 Q1305.7314,232.8828 1308.2382,232.8828 Q1308.9438,232.8828 1309.5912,233.0322 Q1310.2387,233.1816 1310.8031,233.4805 L1310.8031,236.2031 Q1310.1723,235.6221 1309.5788,235.3523 Q1308.9853,235.0825 1308.3544,235.0825 Q1307.0097,235.0825 1306.3249,236.1492 Q1305.6401,237.2158 1305.6401,239.3159 Q1305.6401,241.4077 1306.3249,242.4744 Q1307.0097,243.541 1308.3544,243.541 Q1308.9853,243.541 1309.5788,243.2712 Q1310.1723,243.0015 1310.8031,242.4204 Z " fill="#000000"/><text fill="#000000" font-family="sans-serif" font-size="14" lengthAdjust="spacing" textLength="24.7119" x="1322.33" y="244.291">VFB</text><line style="stroke:#181818;stroke-width:0.5;" x1="1294.33" x2="1349.0419" y1="255" y2="255"/><line style="stroke:#181818;stroke-width:0.5;" x1="1294.33" x2="1349.0419" y1="263" y2="263"/></g><!--reverse link ECU to HardwareLayer--><g class="link" data-entity-1="ent0001" data-entity-2="ent0002" data-link-type="composition" data-source-line="27" id="lnk21"><path codeLine="27" d="M940.329,43.7871 C881.449,60.5571 760.43,95.05 678.66,118.34" fill="none" id="ECU-backto-HardwareLayer" style="stroke:#181818;stroke-width:1;"/><polygon fill="#181818" points="951.87,40.5,945.0038,38.2965,940.329,43.7871,947.1952,45.9905,951.87,40.5" style="stroke:#181818;stroke-width:1;stroke-linejoin:miter;stroke-miterlimit:10;"/><text fill="#000000" font-family="sans-serif" font-size="13" lengthAdjust="spacing" textLength="8.2202" x="936.0752" y="38.5668">1</text><text fill="#000000" font-family="sans-serif" font-size="13" lengthAdjust="spacing" textLength="8.2202" x="686.1966" y="113.0204">1</text></g><!--reverse link ECU to BSWLayer--><g class="link" data-entity-1="ent0001" data-entity-2="ent0003" data-link-type="composition" data-source-line="28" id="lnk22"><path codeLine="28" d="M981.68,67.26 C981.68,84.94 981.68,97.13 981.68,114.79" fill="none" id="ECU-backto-BSWLayer" style="stroke:#181818;stroke-width:1;"/><polygon fill="#181818" points="981.68,55.26,977.68,61.26,981.68,67.26,985.68,61.26,981.68,55.26" style="stroke:#181818;stroke-width:1;stroke-linejoin:miter;stroke-miterlimit:10;"/><text fill="#000000" font-family="sans-serif" font-size="13" lengthAdjust="spacing" textLength="8.2202" x="972.7301" y="75.6077">1</text><text fill="#000000" font-family="sans-serif" font-size="13" lengthAdjust="spacing" textLength="8.2202" x="972.6823" y="104.2725">1</text></g><!--reverse link ECU to ApplicationLayer--><g class="link" data-entity-1="ent0001" data-entity-2="ent0004" data-link-type="composition" data-source-line="29" id="lnk23"><path codeLine="29" d="M1022.1011,54.0828 C1054.5211,71.7928 1096.02,94.47 1132.8,114.57" fill="none" id="ECU-backto-ApplicationLayer" style="stroke:#181818;stroke-width:1;"/><polygon fill="#181818" points="1011.57,48.33,1014.918,54.7168,1022.1011,54.0828,1018.7532,47.696,1011.57,48.33" style="stroke:#181818;stroke-width:1;stroke-linejoin:miter;stroke-miterlimit:10;"/><text fill="#000000" font-family="sans-serif" font-size="13" lengthAdjust="spacing" textLength="8.2202" x="1019.0059" y="48.0826">1</text><text fill="#000000" font-family="sans-serif" font-size="13" lengthAdjust="spacing" textLength="8.2202" x="1113.3976" y="104.3933">1</text></g><!--reverse link HardwareLayer to Microcontroller--><g class="link" data-entity-1="ent0002" data-entity-2="ent0005" data-link-type="composition" data-source-line="31" id="lnk24"><path codeLine="31" d="M529.4678,167.2501 C477.3378,184.9601 417.45,205.31 365.56,222.94" fill="none" id="HardwareLayer-backto-Microcontroller" style="stroke:#181818;stroke-width:1;"/><polygon fill="#181818" points="540.83,163.39,533.8622,161.5326,529.4678,167.2501,536.4356,169.1074,540.83,163.39" style="stroke:#181818;stroke-width:1;stroke-linejoin:miter;stroke-miterlimit:10;"/><text fill="#000000" font-family="sans-serif" font-size="13" lengthAdjust="spacing" textLength="8.2202" x="524.8732" y="162.8227">1</text><text fill="#000000" font-family="sans-serif" font-size="13" lengthAdjust="spacing" textLength="8.2202" x="373.1564" y="212.8535">1</text></g><!--reverse link Microcontroller to CPUCore--><g class="link" data-entity-1="ent0005" data-entity-2="ent0006" data-link-type="composition" data-source-line="32" id="lnk25"><path codeLine="32" d="M233.0616,276.1896 C190.8516,294.6096 143.55,315.24 102.82,333" fill="none" id="Microcontroller-backto-CPUCore" style="stroke:#181818;stroke-width:1;"/><polygon fill="#181818" points="244.06,271.39,236.961,270.1237,233.0616,276.1896,240.1607,277.4559,244.06,271.39" style="stroke:#181818;stroke-width:1;stroke-linejoin:miter;stroke-miterlimit:10;"/><text fill="#000000" font-family="sans-serif" font-size="13" lengthAdjust="spacing" textLength="8.2202" x="222.7597" y="291.3688">1</text><text fill="#000000" font-family="sans-serif" font-size="13" lengthAdjust="spacing" textLength="8.2202" x="110.4936" y="326.2584">1</text></g><!--reverse link Microcontroller to RAM--><g class="link" data-entity-1="ent0005" data-entity-2="ent0007" data-link-type="composition" data-source-line="33" id="lnk26"><path codeLine="33" d="M260.1014,278.8818 C238.6014,296.5618 218.42,313.13 196.93,330.79" fill="none" id="Microcontroller-backto-RAM" style="stroke:#181818;stroke-width:1;"/><polygon fill="#181818" points="269.37,271.26,262.1951,271.9814,260.1014,278.8818,267.2763,278.1605,269.37,271.26" style="stroke:#181818;stroke-width:1;stroke-linejoin:miter;stroke-miterlimit:10;"/><text fill="#000000" font-family="sans-serif" font-size="13" lengthAdjust="spacing" textLength="8.2202" x="253.5201" y="291.6077">1</text><text fill="#000000" font-family="sans-serif" font-size="13" lengthAdjust="spacing" textLength="8.2202" x="195.171" y="320.2725">1</text></g><!--reverse link Microcontroller to FlashMemory--><g class="link" data-entity-1="ent0005" data-entity-2="ent0008" data-link-type="composition" data-source-line="34" id="lnk27"><path codeLine="34" d="M297.68,283.26 C297.68,300.94 297.68,313.13 297.68,330.79" fill="none" id="Microcontroller-backto-FlashMemory" style="stroke:#181818;stroke-width:1;"/><polygon fill="#181818" points="297.68,271.26,293.68,277.26,297.68,283.26,301.68,277.26,297.68,271.26" style="stroke:#181818;stroke-width:1;stroke-linejoin:miter;stroke-miterlimit:10;"/><text fill="#000000" font-family="sans-serif" font-size="13" lengthAdjust="spacing" textLength="8.2202" x="288.7306" y="291.6077">1</text><text fill="#000000" font-family="sans-serif" font-size="13" lengthAdjust="spacing" textLength="8.2202" x="288.6819" y="320.2725">1</text></g><!--reverse link Microcontroller to CommunicationController--><g class="link" data-entity-1="ent0005" data-entity-2="ent0009" data-link-type="composition" data-source-line="35" id="lnk28"><path codeLine="35" d="M353.3583,276.923 C387.2683,294.543 422.9,313.06 456.78,330.67" fill="none" id="Microcontroller-backto-CommunicationController" style="stroke:#181818;stroke-width:1;"/><polygon fill="#181818" points="342.71,271.39,346.1898,277.7059,353.3583,276.923,349.8785,270.6071,342.71,271.39" style="stroke:#181818;stroke-width:1;stroke-linejoin:miter;stroke-miterlimit:10;"/><text fill="#000000" font-family="sans-serif" font-size="13" lengthAdjust="spacing" textLength="8.2202" x="344.2225" y="291.3688">1</text><text fill="#000000" font-family="sans-serif" font-size="13" lengthAdjust="spacing" textLength="22.7119" x="420.5449" y="320.1217">1..*</text></g><!--reverse link CommunicationController to CANController--><g class="link" data-entity-1="ent0009" data-entity-2="ent0010" data-link-type="extension" data-source-line="37" id="lnk29"><path codeLine="37" d="M450.3261,388.9894 C422.9161,406.5994 400.56,420.97 373.09,438.61" fill="none" id="CommunicationController-backto-CANController" style="stroke:#181818;stroke-width:1;"/><polygon fill="none" points="465.47,379.26,447.0829,383.9415,453.5692,394.0374,465.47,379.26" style="stroke:#181818;stroke-width:1;stroke-linejoin:miter;stroke-miterlimit:10;"/></g><!--reverse link CommunicationController to LINController--><g class="link" data-entity-1="ent0009" data-entity-2="ent0011" data-link-type="extension" data-source-line="38" id="lnk30"><path codeLine="38" d="M501.68,397.26 C501.68,414.94 501.68,421.13 501.68,438.79" fill="none" id="CommunicationController-backto-LINController" style="stroke:#181818;stroke-width:1;"/><polygon fill="none" points="501.68,379.26,495.68,397.26,507.68,397.26,501.68,379.26" style="stroke:#181818;stroke-width:1;stroke-linejoin:miter;stroke-miterlimit:10;"/></g><!--reverse link CommunicationController to EthernetController--><g class="link" data-entity-1="ent0009" data-entity-2="ent0012" data-link-type="extension" data-source-line="39" id="lnk31"><path codeLine="39" d="M556.4584,388.4312 C586.1984,406.0412 611.39,420.97 641.18,438.61" fill="none" id="CommunicationController-backto-EthernetController" style="stroke:#181818;stroke-width:1;"/><polygon fill="none" points="540.97,379.26,553.4013,393.594,559.5154,383.2684,540.97,379.26" style="stroke:#181818;stroke-width:1;stroke-linejoin:miter;stroke-miterlimit:10;"/></g><!--reverse link BSWLayer to BSWModule--><g class="link" data-entity-1="ent0003" data-entity-2="ent0013" data-link-type="composition" data-source-line="41" id="lnk32"><path codeLine="41" d="M983.0144,175.2514 C983.6844,192.9314 984.14,205.13 984.81,222.79" fill="none" id="BSWLayer-backto-BSWModule" style="stroke:#181818;stroke-width:1;"/><polygon fill="#181818" points="982.56,163.26,978.7901,169.4072,983.0144,175.2514,986.7843,169.1042,982.56,163.26" style="stroke:#181818;stroke-width:1;stroke-linejoin:miter;stroke-miterlimit:10;"/><text fill="#000000" font-family="sans-serif" font-size="13" lengthAdjust="spacing" textLength="8.2202" x="973.8254" y="183.6077">1</text><text fill="#000000" font-family="sans-serif" font-size="13" lengthAdjust="spacing" textLength="22.7119" x="959.859" y="212.2725">1..*</text></g><!--reverse link BSWModule to MCAL--><g class="link" data-entity-1="ent0013" data-entity-2="ent0014" data-link-type="extension" data-source-line="43" id="lnk33"><path codeLine="43" d="M911.2063,270.1593 C859.1663,285.9593 797.73,305.6 730.68,331 C725.06,333.13 719.16,335.53 713.42,337.95" fill="none" id="BSWModule-backto-MCAL" style="stroke:#181818;stroke-width:1;"/><polygon fill="none" points="928.43,264.93,909.4632,264.4181,912.9495,275.9005,928.43,264.93" style="stroke:#181818;stroke-width:1;stroke-linejoin:miter;stroke-miterlimit:10;"/></g><!--reverse link BSWModule to CANCommStack--><g class="link" data-entity-1="ent0013" data-entity-2="ent0015" data-link-type="extension" data-source-line="44" id="lnk34"><path codeLine="44" d="M942.9471,282.5824 C921.0971,300.2624 905.19,313.13 883.37,330.79" fill="none" id="BSWModule-backto-CANCommStack" style="stroke:#181818;stroke-width:1;"/><polygon fill="none" points="956.94,271.26,939.1729,277.9181,946.7212,287.2468,956.94,271.26" style="stroke:#181818;stroke-width:1;stroke-linejoin:miter;stroke-miterlimit:10;"/></g><!--reverse link BSWModule to EthernetCommStack--><g class="link" data-entity-1="ent0013" data-entity-2="ent0016" data-link-type="extension" data-source-line="45" id="lnk35"><path codeLine="45" d="M1028.4204,282.5856 C1050.2604,300.2656 1066.18,313.13 1088,330.79" fill="none" id="BSWModule-backto-EthernetCommStack" style="stroke:#181818;stroke-width:1;"/><polygon fill="none" points="1014.43,271.26,1024.6452,287.249,1032.1956,277.9221,1014.43,271.26" style="stroke:#181818;stroke-width:1;stroke-linejoin:miter;stroke-miterlimit:10;"/></g><!--reverse link BSWModule to OS--><g class="link" data-entity-1="ent0013" data-entity-2="ent0017" data-link-type="extension" data-source-line="46" id="lnk36"><path codeLine="46" d="M1060.3881,269.2874 C1127.2881,288.5374 1216.29,314.98 1254.68,331 C1260.47,333.41 1266.5,336.35 1272.15,339.31" fill="none" id="BSWModule-backto-OS" style="stroke:#181818;stroke-width:1;"/><polygon fill="none" points="1043.09,264.31,1058.729,275.0535,1062.0473,263.5214,1043.09,264.31" style="stroke:#181818;stroke-width:1;stroke-linejoin:miter;stroke-miterlimit:10;"/></g><!--reverse link BSWModule to Watchdog--><g class="link" data-entity-1="ent0013" data-entity-2="ent0018" data-link-type="extension" data-source-line="47" id="lnk37"><path codeLine="47" d="M1060.4486,269.5321 C1068.3586,271.7021 1059.03,269.08 1066.68,271 C1187.59,301.37 1220.64,297.37 1340.68,331 C1346.25,332.56 1352.03,334.32 1357.76,336.16" fill="none" id="BSWModule-backto-Watchdog" style="stroke:#181818;stroke-width:1;"/><polygon fill="none" points="1043.09,264.77,1058.8613,275.3183,1062.036,263.7459,1043.09,264.77" style="stroke:#181818;stroke-width:1;stroke-linejoin:miter;stroke-miterlimit:10;"/></g><!--reverse link ApplicationLayer to SoftwareComponent--><g class="link" data-entity-1="ent0004" data-entity-2="ent0019" data-link-type="composition" data-source-line="49" id="lnk38"><path codeLine="49" d="M1174.3556,175.2514 C1173.6856,192.9314 1173.23,205.13 1172.56,222.79" fill="none" id="ApplicationLayer-backto-SoftwareComponent" style="stroke:#181818;stroke-width:1;"/><polygon fill="#181818" points="1174.81,163.26,1170.5857,169.1042,1174.3556,175.2514,1178.5799,169.4072,1174.81,163.26" style="stroke:#181818;stroke-width:1;stroke-linejoin:miter;stroke-miterlimit:10;"/><text fill="#000000" font-family="sans-serif" font-size="13" lengthAdjust="spacing" textLength="8.2202" x="1165.6475" y="183.6077">1</text><text fill="#000000" font-family="sans-serif" font-size="13" lengthAdjust="spacing" textLength="22.7119" x="1148.0579" y="212.2725">1..*</text></g><!--reverse link ApplicationLayer to VFB--><g class="link" data-entity-1="ent0004" data-entity-2="ent0020" data-link-type="composition" data-source-line="50" id="lnk39"><path codeLine="50" d="M1217.4303,170.3106 C1242.9503,188.8406 1268.63,207.48 1293.18,225.3" fill="none" id="ApplicationLayer-backto-VFB" style="stroke:#181818;stroke-width:1;"/><polygon fill="#181818" points="1207.72,163.26,1210.2249,170.022,1217.4303,170.3106,1214.9253,163.5485,1207.72,163.26" style="stroke:#181818;stroke-width:1;stroke-linejoin:miter;stroke-miterlimit:10;"/><text fill="#000000" font-family="sans-serif" font-size="13" lengthAdjust="spacing" textLength="8.2202" x="1206.5794" y="183.6077">1</text><text fill="#000000" font-family="sans-serif" font-size="13" lengthAdjust="spacing" textLength="8.2202" x="1277.2835" y="215.7887">1</text></g><?plantuml-src VP9HRu8m4CVV-oaQ7aqqsVjUa6Ys16IHEP-xMgSPK59g5fDz-DLZ1_IgF9Nxtw_DjVnaATgMHwja5t7HShSosKKlmXn-X54y5LTbe8iH9CZ5k_UyYBTyMUn7gAjygcdAinJshEiHDKex6l7iB8sMkhP6b-K_J394axSTJxHHmBZYzeszRPn1x5QCrcuvyKnLsboX1q5NCoO-Msk4j1mFrrLrgN7mn1_8QoRXOF4cs15lGYvz3JWNXTpAdfIfbQKmvgCTmJrkFoVJXqkfyEzqLV_UIPnsZ-m-_0kC7w2mGduFDwag2EuCU7_JC2dPcHVGpmiCziBAqq5_GOn5RqUXZnRKT0SrkbQr1GxZFaN-Oxq4mAsCESLvz1JnsNmEgoyrxVOUqqQehdUGnr9pIUsnQF0KSzDvgZzM-Z6tMCoYXmwp1mt-_Eis-nvFehxAa-WzaV7zwTo3mQp_x4u1WqdcsKfwePG4S5QIP12IMa3739MSs161e7y0?></g></svg>