<svg id="my-svg" width="100%" xmlns="http://www.w3.org/2000/svg" xmlns:xlink="http://www.w3.org/1999/xlink" class="classDiagram" style="max-width: 363.598px; background-color: white;" viewBox="0 0 363.59765625 368" role="graphics-document document" aria-roledescription="class"><style>#my-svg{font-family:"trebuchet ms",verdana,arial,sans-serif;font-size:16px;fill:#333;}@keyframes edge-animation-frame{from{stroke-dashoffset:0;}}@keyframes dash{to{stroke-dashoffset:0;}}#my-svg .edge-animation-slow{stroke-dasharray:9,5!important;stroke-dashoffset:900;animation:dash 50s linear infinite;stroke-linecap:round;}#my-svg .edge-animation-fast{stroke-dasharray:9,5!important;stroke-dashoffset:900;animation:dash 20s linear infinite;stroke-linecap:round;}#my-svg .error-icon{fill:#552222;}#my-svg .error-text{fill:#552222;stroke:#552222;}#my-svg .edge-thickness-normal{stroke-width:1px;}#my-svg .edge-thickness-thick{stroke-width:3.5px;}#my-svg .edge-pattern-solid{stroke-dasharray:0;}#my-svg .edge-thickness-invisible{stroke-width:0;fill:none;}#my-svg .edge-pattern-dashed{stroke-dasharray:3;}#my-svg .edge-pattern-dotted{stroke-dasharray:2;}#my-svg .marker{fill:#333333;stroke:#333333;}#my-svg .marker.cross{stroke:#333333;}#my-svg svg{font-family:"trebuchet ms",verdana,arial,sans-serif;font-size:16px;}#my-svg p{margin:0;}#my-svg g.classGroup text{fill:#9370DB;stroke:none;font-family:"trebuchet ms",verdana,arial,sans-serif;font-size:10px;}#my-svg g.classGroup text .title{font-weight:bolder;}#my-svg .cluster-label text{fill:#333;}#my-svg .cluster-label span{color:#333;}#my-svg .cluster-label span p{background-color:transparent;}#my-svg .cluster rect{fill:#ffffde;stroke:#aaaa33;stroke-width:1px;}#my-svg .cluster text{fill:#333;}#my-svg .cluster span{color:#333;}#my-svg .nodeLabel,#my-svg .edgeLabel{color:#131300;}#my-svg .noteLabel .nodeLabel,#my-svg .noteLabel .edgeLabel{color:black;}#my-svg .edgeLabel .label rect{fill:#ECECFF;}#my-svg .label text{fill:#131300;}#my-svg .labelBkg{background:#ECECFF;}#my-svg .edgeLabel .label span{background:#ECECFF;}#my-svg .classTitle{font-weight:bolder;}#my-svg .node rect,#my-svg .node circle,#my-svg .node ellipse,#my-svg .node polygon,#my-svg .node path{fill:#ECECFF;stroke:#9370DB;stroke-width:1;}#my-svg .divider{stroke:#9370DB;stroke-width:1;}#my-svg g.clickable{cursor:pointer;}#my-svg g.classGroup rect{fill:#ECECFF;stroke:#9370DB;}#my-svg g.classGroup line{stroke:#9370DB;stroke-width:1;}#my-svg .classLabel .box{stroke:none;stroke-width:0;fill:#ECECFF;opacity:0.5;}#my-svg .classLabel .label{fill:#9370DB;font-size:10px;}#my-svg .relation{stroke:#333333;stroke-width:1;fill:none;}#my-svg .dashed-line{stroke-dasharray:3;}#my-svg .dotted-line{stroke-dasharray:1 2;}#my-svg [id$="-compositionStart"],#my-svg .composition{fill:#333333!important;stroke:#333333!important;stroke-width:1;}#my-svg [id$="-compositionEnd"],#my-svg .composition{fill:#333333!important;stroke:#333333!important;stroke-width:1;}#my-svg [id$="-dependencyStart"],#my-svg .dependency{fill:#333333!important;stroke:#333333!important;stroke-width:1;}#my-svg [id$="-dependencyEnd"],#my-svg .dependency{fill:#333333!important;stroke:#333333!important;stroke-width:1;}#my-svg [id$="-extensionStart"],#my-svg .extension{fill:transparent!important;stroke:#333333!important;stroke-width:1;}#my-svg [id$="-extensionEnd"],#my-svg .extension{fill:transparent!important;stroke:#333333!important;stroke-width:1;}#my-svg [id$="-aggregationStart"],#my-svg .aggregation{fill:transparent!important;stroke:#333333!important;stroke-width:1;}#my-svg [id$="-aggregationEnd"],#my-svg .aggregation{fill:transparent!important;stroke:#333333!important;stroke-width:1;}#my-svg [id$="-lollipopStart"],#my-svg .lollipop{fill:#ECECFF!important;stroke:#333333!important;stroke-width:1;}#my-svg [id$="-lollipopEnd"],#my-svg .lollipop{fill:#ECECFF!important;stroke:#333333!important;stroke-width:1;}#my-svg .edgeTerminals{font-size:11px;line-height:initial;}#my-svg .classTitleText{text-anchor:middle;font-size:18px;fill:#333;}#my-svg .edgeLabel[data-look="neo"]{background-color:rgba(232,232,232, 0.8);text-align:center;}#my-svg .edgeLabel[data-look="neo"] p{background-color:rgba(232,232,232, 0.8);}#my-svg .edgeLabel[data-look="neo"] rect{opacity:0.5;background-color:rgba(232,232,232, 0.8);fill:rgba(232,232,232, 0.8);}#my-svg .label-icon{display:inline-block;height:1em;overflow:visible;vertical-align:-0.125em;}#my-svg .node .label-icon path{fill:currentColor;stroke:revert;stroke-width:revert;}#my-svg .node .neo-node{stroke:#9370DB;}#my-svg [data-look="neo"].node rect,#my-svg [data-look="neo"].cluster rect,#my-svg [data-look="neo"].node polygon{stroke:#9370DB;filter:drop-shadow(1px 2px 2px rgba(185, 185, 185, 1));}#my-svg [data-look="neo"].swimlane.cluster rect{filter:none;}#my-svg [data-look="neo"].node path{stroke:#9370DB;stroke-width:1px;}#my-svg [data-look="neo"].node .outer-path{filter:drop-shadow(1px 2px 2px rgba(185, 185, 185, 1));}#my-svg [data-look="neo"].node .neo-line path{stroke:#9370DB;filter:none;}#my-svg [data-look="neo"].node circle{stroke:#9370DB;filter:drop-shadow(1px 2px 2px rgba(185, 185, 185, 1));}#my-svg [data-look="neo"].node circle .state-start{fill:#000000;}#my-svg [data-look="neo"].icon-shape .icon{fill:#9370DB;filter:drop-shadow(1px 2px 2px rgba(185, 185, 185, 1));}#my-svg [data-look="neo"].icon-shape .icon-neo path{stroke:#9370DB;filter:drop-shadow(1px 2px 2px rgba(185, 185, 185, 1));}#my-svg :root{--mermaid-font-family:"trebuchet ms",verdana,arial,sans-serif;}</style><g><defs><marker id="my-svg_class-aggregationStart" class="marker aggregation class" refX="18" refY="7" markerWidth="190" markerHeight="240" orient="auto"><path d="M 18,7 L9,13 L1,7 L9,1 Z"/></marker></defs><defs><marker id="my-svg_class-aggregationEnd" class="marker aggregation class" refX="1" refY="7" markerWidth="20" markerHeight="28" orient="auto"><path d="M 18,7 L9,13 L1,7 L9,1 Z"/></marker></defs><defs><marker id="my-svg_class-aggregationStart-margin" class="marker aggregation class" refX="15" refY="7" markerWidth="190" markerHeight="240" orient="auto" markerUnits="userSpaceOnUse"><path d="M 18,7 L9,13 L1,7 L9,1 Z" style="stroke-width: 2;"/></marker></defs><defs><marker id="my-svg_class-aggregationEnd-margin" class="marker aggregation class" refX="1" refY="7" markerWidth="20" markerHeight="28" orient="auto" markerUnits="userSpaceOnUse"><path d="M 18,7 L9,13 L1,7 L9,1 Z" style="stroke-width: 2;"/></marker></defs><defs><marker id="my-svg_class-extensionStart" class="marker extension class" refX="18" refY="7" markerWidth="20" markerHeight="28" orient="auto" markerUnits="userSpaceOnUse"><path d="M 1,7 L18,13 V 1 Z"/></marker></defs><defs><marker id="my-svg_class-extensionEnd" class="marker extension class" refX="1" refY="7" markerWidth="20" markerHeight="28" orient="auto"><path d="M 1,1 V 13 L18,7 Z"/></marker></defs><marker id="my-svg_class-extensionStart-margin" class="marker extension class" refX="18" refY="7" markerWidth="20" markerHeight="28" orient="auto" markerUnits="userSpaceOnUse" viewBox="0 0 20 14"><polygon points="10,7 18,13 18,1" style="stroke-width: 2; stroke-dasharray: 0;"/></marker><defs><marker id="my-svg_class-extensionEnd-margin" class="marker extension class" refX="9" refY="7" markerWidth="20" markerHeight="28" orient="auto" markerUnits="userSpaceOnUse" viewBox="0 0 20 14"><polygon points="10,1 10,13 18,7" style="stroke-width: 2; stroke-dasharray: 0;"/></marker></defs><defs><marker id="my-svg_class-compositionStart" class="marker composition class" refX="18" refY="7" markerWidth="190" markerHeight="240" orient="auto"><path d="M 18,7 L9,13 L1,7 L9,1 Z"/></marker></defs><defs><marker id="my-svg_class-compositionEnd" class="marker composition class" refX="1" refY="7" markerWidth="20" markerHeight="28" orient="auto"><path d="M 18,7 L9,13 L1,7 L9,1 Z"/></marker></defs><defs><marker id="my-svg_class-compositionStart-margin" class="marker composition class" refX="15" refY="7" markerWidth="190" markerHeight="240" orient="auto" markerUnits="userSpaceOnUse"><path viewBox="0 0 15 15" d="M 18,7 L9,13 L1,7 L9,1 Z" style="stroke-width: 0;"/></marker></defs><defs><marker id="my-svg_class-compositionEnd-margin" class="marker composition class" refX="3.5" refY="7" markerWidth="20" markerHeight="28" orient="auto" markerUnits="userSpaceOnUse"><path d="M 18,7 L9,13 L1,7 L9,1 Z" style="stroke-width: 0;"/></marker></defs><defs><marker id="my-svg_class-dependencyStart" class="marker dependency class" refX="6" refY="7" markerWidth="190" markerHeight="240" orient="auto"><path d="M 5,7 L9,13 L1,7 L9,1 Z"/></marker></defs><defs><marker id="my-svg_class-dependencyEnd" class="marker dependency class" refX="13" refY="7" markerWidth="20" markerHeight="28" orient="auto"><path d="M 18,7 L9,13 L14,7 L9,1 Z"/></marker></defs><defs><marker id="my-svg_class-dependencyStart-margin" class="marker dependency class" refX="4" refY="7" markerWidth="190" markerHeight="240" orient="auto" markerUnits="userSpaceOnUse"><path d="M 5,7 L9,13 L1,7 L9,1 Z" style="stroke-width: 0;"/></marker></defs><defs><marker id="my-svg_class-dependencyEnd-margin" class="marker dependency class" refX="16" refY="7" markerWidth="20" markerHeight="28" orient="auto" markerUnits="userSpaceOnUse"><path d="M 18,7 L9,13 L14,7 L9,1 Z" style="stroke-width: 0;"/></marker></defs><defs><marker id="my-svg_class-lollipopStart" class="marker lollipop class" refX="13" refY="7" markerWidth="190" markerHeight="240" orient="auto"><circle fill="transparent" cx="7" cy="7" r="6"/></marker></defs><defs><marker id="my-svg_class-lollipopEnd" class="marker lollipop class" refX="1" refY="7" markerWidth="190" markerHeight="240" orient="auto"><circle fill="transparent" cx="7" cy="7" r="6"/></marker></defs><defs><marker id="my-svg_class-lollipopStart-margin" class="marker lollipop class" refX="13" refY="7" markerWidth="190" markerHeight="240" orient="auto" markerUnits="userSpaceOnUse"><circle fill="transparent" cx="7" cy="7" r="6" stroke-width="2"/></marker></defs><defs><marker id="my-svg_class-lollipopEnd-margin" class="marker lollipop class" refX="1" refY="7" markerWidth="190" markerHeight="240" orient="auto" markerUnits="userSpaceOnUse"><circle fill="transparent" cx="7" cy="7" r="6" stroke-width="2"/></marker></defs><g class="root"><g class="clusters"/><g class="edgePaths"><path d="M98.274,88.848L90.561,93.54C82.848,98.232,67.422,107.616,59.709,116.475C51.996,125.333,51.996,133.667,51.996,137.833L51.996,142" id="my-svg-id_RobotArm_Base_1" class="edge-thickness-normal edge-pattern-solid relation" style=";;;" data-edge="true" data-et="edge" data-id="id_RobotArm_Base_1" data-points="W3sieCI6MTEzLjAxMTcxODc1LCJ5Ijo3OS44ODMzODc3MTQ1Njk0NH0seyJ4Ijo1MS45OTYwOTM3NSwieSI6MTE3fSx7IngiOjUxLjk5NjA5Mzc1LCJ5IjoxNDJ9XQ==" data-look="classic" marker-start="url(#my-svg_class-compositionStart)"/><path d="M162.137,109.25L162.137,110.542C162.137,111.833,162.137,114.417,162.137,119.875C162.137,125.333,162.137,133.667,162.137,137.833L162.137,142" id="my-svg-id_RobotArm_Joint_2" class="edge-thickness-normal edge-pattern-solid relation" style=";;;" data-edge="true" data-et="edge" data-id="id_RobotArm_Joint_2" data-points="W3sieCI6MTYyLjEzNjcxODc1LCJ5Ijo5Mn0seyJ4IjoxNjIuMTM2NzE4NzUsInkiOjExN30seyJ4IjoxNjIuMTM2NzE4NzUsInkiOjE0Mn1d" data-look="classic" marker-start="url(#my-svg_class-compositionStart)"/><path d="M226.764,81.545L238.87,87.454C250.977,93.363,275.189,105.182,287.296,115.257C299.402,125.333,299.402,133.667,299.402,137.833L299.402,142" id="my-svg-id_RobotArm_EndEffector_3" class="edge-thickness-normal edge-pattern-solid relation" style=";;;" data-edge="true" data-et="edge" data-id="id_RobotArm_EndEffector_3" data-points="W3sieCI6MjExLjI2MTcxODc1LCJ5Ijo3My45NzgxNDQ1NjQ1OTg3NX0seyJ4IjoyOTkuNDAyMzQzNzUsInkiOjExN30seyJ4IjoyOTkuNDAyMzQzNzUsInkiOjE0Mn1d" data-look="classic" marker-start="url(#my-svg_class-compositionStart)"/><path d="M117.231,217.437L109.718,223.031C102.206,228.625,87.181,239.812,79.669,249.573C72.156,259.333,72.156,267.667,72.156,271.833L72.156,276" id="my-svg-id_Joint_RevoluteJoint_4" class="edge-thickness-normal edge-pattern-solid relation" style=";;;" data-edge="true" data-et="edge" data-id="id_Joint_RevoluteJoint_4" data-points="W3sieCI6MTMxLjA2NjQwNjI1LCJ5IjoyMDcuMTM1MTQyMTc0OTUxMTd9LHsieCI6NzIuMTU2MjUsInkiOjI1MX0seyJ4Ijo3Mi4xNTYyNSwieSI6Mjc2fV0=" data-look="classic" marker-start="url(#my-svg_class-extensionStart)"/><path d="M207.043,217.437L214.555,223.031C222.068,228.625,237.092,239.812,244.605,249.573C252.117,259.333,252.117,267.667,252.117,271.833L252.117,276" id="my-svg-id_Joint_PrismaticJoint_5" class="edge-thickness-normal edge-pattern-solid relation" style=";;;" data-edge="true" data-et="edge" data-id="id_Joint_PrismaticJoint_5" data-points="W3sieCI6MTkzLjIwNzAzMTI1LCJ5IjoyMDcuMTM1MTQyMTc0OTUxMTd9LHsieCI6MjUyLjExNzE4NzUsInkiOjI1MX0seyJ4IjoyNTIuMTE3MTg3NSwieSI6Mjc2fV0=" data-look="classic" marker-start="url(#my-svg_class-extensionStart)"/></g><g class="edgeLabels"><g class="edgeLabel"><g class="label" data-id="id_RobotArm_Base_1" transform="translate(0, 0)"><foreignObject width="0" height="0"><div xmlns="http://www.w3.org/1999/xhtml" class="labelBkg" style="display: table-cell; white-space: nowrap; line-height: 1.5; max-width: 200px; text-align: center;"><span class="edgeLabel"></span></div></foreignObject></g></g><g class="edgeLabel"><g class="label" data-id="id_RobotArm_Joint_2" transform="translate(0, 0)"><foreignObject width="0" height="0"><div xmlns="http://www.w3.org/1999/xhtml" class="labelBkg" style="display: table-cell; white-space: nowrap; line-height: 1.5; max-width: 200px; text-align: center;"><span class="edgeLabel"></span></div></foreignObject></g></g><g class="edgeLabel"><g class="label" data-id="id_RobotArm_EndEffector_3" transform="translate(0, 0)"><foreignObject width="0" height="0"><div xmlns="http://www.w3.org/1999/xhtml" class="labelBkg" style="display: table-cell; white-space: nowrap; line-height: 1.5; max-width: 200px; text-align: center;"><span class="edgeLabel"></span></div></foreignObject></g></g><g class="edgeLabel"><g class="label" data-id="id_Joint_RevoluteJoint_4" transform="translate(0, 0)"><foreignObject width="0" height="0"><div xmlns="http://www.w3.org/1999/xhtml" class="labelBkg" style="display: table-cell; white-space: nowrap; line-height: 1.5; max-width: 200px; text-align: center;"><span class="edgeLabel"></span></div></foreignObject></g></g><g class="edgeLabel"><g class="label" data-id="id_Joint_PrismaticJoint_5" transform="translate(0, 0)"><foreignObject width="0" height="0"><div xmlns="http://www.w3.org/1999/xhtml" class="labelBkg" style="display: table-cell; white-space: nowrap; line-height: 1.5; max-width: 200px; text-align: center;"><span class="edgeLabel"></span></div></foreignObject></g></g><g class="edgeTerminals" transform="translate(90.26507555768218, 76.16313488463953)"><g class="inner" transform="translate(-2.890625, -8.25)"><foreignObject width="5.78125" height="16.5" style="width: 9px; height: 12px;"><div xmlns="http://www.w3.org/1999/xhtml" style="display: table-cell; white-space: nowrap; line-height: 1.5;"><span class="edgeLabel"><p>1</p></span></div></foreignObject></g></g><g class="edgeTerminals" transform="translate(147.13671937499998, 109.50000053571428)"><g class="inner" transform="translate(-2.890625, -8.25)"><foreignObject width="5.78125" height="16.5" style="width: 9px; height: 12px;"><div xmlns="http://www.w3.org/1999/xhtml" style="display: table-cell; white-space: nowrap; line-height: 1.5;"><span class="edgeLabel"><p>1</p></span></div></foreignObject></g></g><g class="edgeTerminals" transform="translate(220.4086904172176, 95.13430104958438)"><g class="inner" transform="translate(-2.890625, -8.25)"><foreignObject width="5.78125" height="16.5" style="width: 9px; height: 12px;"><div xmlns="http://www.w3.org/1999/xhtml" style="display: table-cell; white-space: nowrap; line-height: 1.5;"><span class="edgeLabel"><p>1</p></span></div></foreignObject></g></g><g class="edgeTerminals" transform="translate(65.70126696186506, 125.98500422285127)"><g class="inner" transform="translate(-2.890625, -8.25)"/><foreignObject width="5.78125" height="16.5" style="width: 9px; height: 12px;"><div xmlns="http://www.w3.org/1999/xhtml" style="display: table-cell; white-space: nowrap; line-height: 1.5;"><span class="edgeLabel"><p>1</p></span></div></foreignObject></g><g class="edgeTerminals" transform="translate(172.13671937499998, 119.50000053571428)"><g class="inner" transform="translate(-9.8125, -8.25)"/><foreignObject width="19.625" height="16.5" style="width: 36px; height: 12px;"><div xmlns="http://www.w3.org/1999/xhtml" style="display: table-cell; white-space: nowrap; line-height: 1.5;"><span class="edgeLabel"><p>1..6</p></span></div></foreignObject></g><g class="edgeTerminals" transform="translate(304.2532897427058, 117.92019424032743)"><g class="inner" transform="translate(-2.890625, -8.25)"/><foreignObject width="5.78125" height="16.5" style="width: 9px; height: 12px;"><div xmlns="http://www.w3.org/1999/xhtml" style="display: table-cell; white-space: nowrap; line-height: 1.5;"><span class="edgeLabel"><p>1</p></span></div></foreignObject></g></g><g class="nodes"><g class="node default" id="my-svg-classId-RobotArm-0" data-look="classic" transform="translate(162.13671875, 50)"><g class="basic label-container outer-path"><path d="M-49.125 -42 L49.125 -42 L49.125 42 L-49.125 42" stroke="none" stroke-width="0" fill="#ECECFF" style=""/><path d="M-49.125 -42 C-20.878786044496888 -42, 7.367427911006224 -42, 49.125 -42 M-49.125 -42 C-21.736020973418107 -42, 5.652958053163786 -42, 49.125 -42 M49.125 -42 C49.125 -13.219585265053297, 49.125 15.560829469893406, 49.125 42 M49.125 -42 C49.125 -22.432767172297652, 49.125 -2.8655343445953037, 49.125 42 M49.125 42 C27.613573707447298 42, 6.102147414894596 42, -49.125 42 M49.125 42 C23.289717340309874 42, -2.545565319380252 42, -49.125 42 M-49.125 42 C-49.125 16.400887938820613, -49.125 -9.198224122358774, -49.125 -42 M-49.125 42 C-49.125 13.841104495309612, -49.125 -14.317791009380777, -49.125 -42" stroke="#9370DB" stroke-width="1.3" fill="none" stroke-dasharray="0 0" style=""/></g><g class="annotation-group text" transform="translate(0, -18)"/><g class="label-group text" transform="translate(-37.125, -18)"><g class="label" style="font-weight: bolder" transform="translate(0,-12)"><foreignObject width="74.25" height="24"><div xmlns="http://www.w3.org/1999/xhtml" style="display: table-cell; white-space: nowrap; line-height: 1.5; max-width: 118px; text-align: center;"><span class="nodeLabel markdown-node-label" style=""><p>RobotArm</p></span></div></foreignObject></g></g><g class="members-group text" transform="translate(-37.125, 30)"/><g class="methods-group text" transform="translate(-37.125, 60)"/><g class="divider" style=""><path d="M-49.125 6 C-19.84996234047266 6.000297964759893, 9.425075319054677 6.000595929519787, 49.125 6.001 M-49.125 6 C-11.793580746961986 6.000379963554739, 25.537838506076028 6.000759927109477, 49.125 6.001" stroke="#9370DB" stroke-width="1.3" fill="none" stroke-dasharray="0 0" style=""/></g><g class="divider" style=""><path d="M-49.125 24 C-27.2284338224368 24.000222865813512, -5.331867644873597 24.000445731627025, 49.125 24.001 M-49.125 24 C-13.781221614053983 24.000359733113342, 21.562556771892034 24.000719466226688, 49.125 24.001" stroke="#9370DB" stroke-width="1.3" fill="none" stroke-dasharray="0 0" style=""/></g></g><g class="node default" id="my-svg-classId-Base-1" data-look="classic" transform="translate(51.99609375, 184)"><g class="basic label-container outer-path"><path d="M-29.0703125 -42 L29.0703125 -42 L29.0703125 42 L-29.0703125 42" stroke="none" stroke-width="0" fill="#ECECFF" style=""/><path d="M-29.0703125 -42 C-11.654379967280274 -42, 5.761552565439452 -42, 29.0703125 -42 M-29.0703125 -42 C-15.102358101244503 -42, -1.1344037024890063 -42, 29.0703125 -42 M29.0703125 -42 C29.0703125 -15.247078832261273, 29.0703125 11.505842335477453, 29.0703125 42 M29.0703125 -42 C29.0703125 -12.594003420725453, 29.0703125 16.811993158549093, 29.0703125 42 M29.0703125 42 C7.949094815524813 42, -13.172122868950375 42, -29.0703125 42 M29.0703125 42 C14.798700220470613 42, 0.5270879409412252 42, -29.0703125 42 M-29.0703125 42 C-29.0703125 15.163289852537215, -29.0703125 -11.67342029492557, -29.0703125 -42 M-29.0703125 42 C-29.0703125 9.318343917869925, -29.0703125 -23.36331216426015, -29.0703125 -42" stroke="#9370DB" stroke-width="1.3" fill="none" stroke-dasharray="0 0" style=""/></g><g class="annotation-group text" transform="translate(0, -18)"/><g class="label-group text" transform="translate(-17.0703125, -18)"><g class="label" style="font-weight: bolder" transform="translate(0,-12)"><foreignObject width="34.140625" height="24"><div xmlns="http://www.w3.org/1999/xhtml" style="display: table-cell; white-space: nowrap; line-height: 1.5; max-width: 81px; text-align: center;"><span class="nodeLabel markdown-node-label" style=""><p>Base</p></span></div></foreignObject></g></g><g class="members-group text" transform="translate(-17.0703125, 30)"/><g class="methods-group text" transform="translate(-17.0703125, 60)"/><g class="divider" style=""><path d="M-29.0703125 6 C-6.332163087088542 6.000391088836986, 16.405986325822916 6.000782177673973, 29.0703125 6.001 M-29.0703125 6 C-7.550034391598725 6.000370141843305, 13.97024371680255 6.00074028368661, 29.0703125 6.001" stroke="#9370DB" stroke-width="1.3" fill="none" stroke-dasharray="0 0" style=""/></g><g class="divider" style=""><path d="M-29.0703125 24 C-16.045180986202283 24.00022402806151, -3.020049472404569 24.000448056123023, 29.0703125 24.001 M-29.0703125 24 C-15.192565312628933 24.000238692776133, -1.3148181252578652 24.000477385552266, 29.0703125 24.001" stroke="#9370DB" stroke-width="1.3" fill="none" stroke-dasharray="0 0" style=""/></g></g><g class="node default" id="my-svg-classId-Joint-2" data-look="classic" transform="translate(162.13671875, 184)"><g class="basic label-container outer-path"><path d="M-31.0703125 -42 L31.0703125 -42 L31.0703125 42 L-31.0703125 42" stroke="none" stroke-width="0" fill="#ECECFF" style=""/><path d="M-31.0703125 -42 C-15.436257803176478 -42, 0.19779689364704467 -42, 31.0703125 -42 M-31.0703125 -42 C-16.945204904406253 -42, -2.8200973088125103 -42, 31.0703125 -42 M31.0703125 -42 C31.0703125 -18.124361060916346, 31.0703125 5.751277878167308, 31.0703125 42 M31.0703125 -42 C31.0703125 -22.3095804045158, 31.0703125 -2.619160809031598, 31.0703125 42 M31.0703125 42 C17.94327383204434 42, 4.816235164088685 42, -31.0703125 42 M31.0703125 42 C18.411411233503006 42, 5.752509967006013 42, -31.0703125 42 M-31.0703125 42 C-31.0703125 14.932441820809263, -31.0703125 -12.135116358381474, -31.0703125 -42 M-31.0703125 42 C-31.0703125 14.510675311683517, -31.0703125 -12.978649376632966, -31.0703125 -42" stroke="#9370DB" stroke-width="1.3" fill="none" stroke-dasharray="0 0" style=""/></g><g class="annotation-group text" transform="translate(0, -18)"/><g class="label-group text" transform="translate(-19.0703125, -18)"><g class="label" style="font-weight: bolder" transform="translate(0,-12)"><foreignObject width="38.140625" height="24"><div xmlns="http://www.w3.org/1999/xhtml" style="display: table-cell; white-space: nowrap; line-height: 1.5; max-width: 81px; text-align: center;"><span class="nodeLabel markdown-node-label" style=""><p>Joint</p></span></div></foreignObject></g></g><g class="members-group text" transform="translate(-19.0703125, 30)"/><g class="methods-group text" transform="translate(-19.0703125, 60)"/><g class="divider" style=""><path d="M-31.0703125 6 C-16.63027800330016 6.000232376718076, -2.190243506600318 6.000464753436153, 31.0703125 6.001 M-31.0703125 6 C-14.221262593060892 6.000271143875797, 2.6277873138782155 6.0005422877515935, 31.0703125 6.001" stroke="#9370DB" stroke-width="1.3" fill="none" stroke-dasharray="0 0" style=""/></g><g class="divider" style=""><path d="M-31.0703125 24 C-9.128120899796283 24.00035310542178, 12.814070700407434 24.000706210843557, 31.0703125 24.001 M-31.0703125 24 C-12.704807725038073 24.000295547474376, 5.660697049923854 24.000591094948756, 31.0703125 24.001" stroke="#9370DB" stroke-width="1.3" fill="none" stroke-dasharray="0 0" style=""/></g></g><g class="node default" id="my-svg-classId-RevoluteJoint-3" data-look="classic" transform="translate(72.15625, 318)"><g class="basic label-container outer-path"><path d="M-64.15625 -42 L64.15625 -42 L64.15625 42 L-64.15625 42" stroke="none" stroke-width="0" fill="#ECECFF" style=""/><path d="M-64.15625 -42 C-23.00745470222291 -42, 18.141340595554183 -42, 64.15625 -42 M-64.15625 -42 C-27.234726998224843 -42, 9.686796003550313 -42, 64.15625 -42 M64.15625 -42 C64.15625 -11.570584703126155, 64.15625 18.85883059374769, 64.15625 42 M64.15625 -42 C64.15625 -16.924776787830726, 64.15625 8.150446424338547, 64.15625 42 M64.15625 42 C17.31691512947311 42, -29.52241974105378 42, -64.15625 42 M64.15625 42 C26.313283008988257 42, -11.529683982023485 42, -64.15625 42 M-64.15625 42 C-64.15625 9.764086853211602, -64.15625 -22.471826293576797, -64.15625 -42 M-64.15625 42 C-64.15625 22.102718696905782, -64.15625 2.2054373938115646, -64.15625 -42" stroke="#9370DB" stroke-width="1.3" fill="none" stroke-dasharray="0 0" style=""/></g><g class="annotation-group text" transform="translate(0, -18)"/><g class="label-group text" transform="translate(-52.15625, -18)"><g class="label" style="font-weight: bolder" transform="translate(0,-12)"><foreignObject width="104.3125" height="24"><div xmlns="http://www.w3.org/1999/xhtml" style="display: table-cell; white-space: nowrap; line-height: 1.5; max-width: 139px; text-align: center;"><span class="nodeLabel markdown-node-label" style=""><p>RevoluteJoint</p></span></div></foreignObject></g></g><g class="members-group text" transform="translate(-52.15625, 30)"/><g class="methods-group text" transform="translate(-52.15625, 60)"/><g class="divider" style=""><path d="M-64.15625 6 C-37.15128317385466 6.000210462478918, -10.146316347709316 6.000420924957836, 64.15625 6.001 M-64.15625 6 C-29.174291441286478 6.000272630948339, 5.8076671174270444 6.0005452618966775, 64.15625 6.001" stroke="#9370DB" stroke-width="1.3" fill="none" stroke-dasharray="0 0" style=""/></g><g class="divider" style=""><path d="M-64.15625 24 C-19.2538816632119 24.00034994539376, 25.6484866735762 24.00069989078752, 64.15625 24.001 M-64.15625 24 C-33.368951733274685 24.00023993997675, -2.581653466549369 24.0004798799535, 64.15625 24.001" stroke="#9370DB" stroke-width="1.3" fill="none" stroke-dasharray="0 0" style=""/></g></g><g class="node default" id="my-svg-classId-PrismaticJoint-4" data-look="classic" transform="translate(252.1171875, 318)"><g class="basic label-container outer-path"><path d="M-65.8046875 -42 L65.8046875 -42 L65.8046875 42 L-65.8046875 42" stroke="none" stroke-width="0" fill="#ECECFF" style=""/><path d="M-65.8046875 -42 C-22.813197053187544 -42, 20.178293393624912 -42, 65.8046875 -42 M-65.8046875 -42 C-20.22569541865682 -42, 25.35329666268636 -42, 65.8046875 -42 M65.8046875 -42 C65.8046875 -24.877445682613917, 65.8046875 -7.754891365227834, 65.8046875 42 M65.8046875 -42 C65.8046875 -22.724756251704186, 65.8046875 -3.4495125034083713, 65.8046875 42 M65.8046875 42 C20.821863187673927 42, -24.160961124652147 42, -65.8046875 42 M65.8046875 42 C30.585859350834696 42, -4.632968798330609 42, -65.8046875 42 M-65.8046875 42 C-65.8046875 21.975937044221983, -65.8046875 1.9518740884439651, -65.8046875 -42 M-65.8046875 42 C-65.8046875 20.557600669833704, -65.8046875 -0.8847986603325921, -65.8046875 -42" stroke="#9370DB" stroke-width="1.3" fill="none" stroke-dasharray="0 0" style=""/></g><g class="annotation-group text" transform="translate(0, -18)"/><g class="label-group text" transform="translate(-53.8046875, -18)"><g class="label" style="font-weight: bolder" transform="translate(0,-12)"><foreignObject width="107.609375" height="24"><div xmlns="http://www.w3.org/1999/xhtml" style="display: table-cell; white-space: nowrap; line-height: 1.5; max-width: 142px; text-align: center;"><span class="nodeLabel markdown-node-label" style=""><p>PrismaticJoint</p></span></div></foreignObject></g></g><g class="members-group text" transform="translate(-53.8046875, 30)"/><g class="methods-group text" transform="translate(-53.8046875, 60)"/><g class="divider" style=""><path d="M-65.8046875 6 C-29.365780136967054 6.000276871669386, 7.073127226065893 6.000553743338771, 65.8046875 6.001 M-65.8046875 6 C-32.99348644415641 6.000249307475671, -0.18228538831282037 6.000498614951342, 65.8046875 6.001" stroke="#9370DB" stroke-width="1.3" fill="none" stroke-dasharray="0 0" style=""/></g><g class="divider" style=""><path d="M-65.8046875 24 C-29.730921230204068 24.000274097238666, 6.3428450395918645 24.00054819447733, 65.8046875 24.001 M-65.8046875 24 C-33.218694378230886 24.000247596291082, -0.6327012564617718 24.000495192582168, 65.8046875 24.001" stroke="#9370DB" stroke-width="1.3" fill="none" stroke-dasharray="0 0" style=""/></g></g><g class="node default" id="my-svg-classId-EndEffector-5" data-look="classic" transform="translate(299.40234375, 184)"><g class="basic label-container outer-path"><path d="M-56.1953125 -42 L56.1953125 -42 L56.1953125 42 L-56.1953125 42" stroke="none" stroke-width="0" fill="#ECECFF" style=""/><path d="M-56.1953125 -42 C-11.50352150321325 -42, 33.1882694935735 -42, 56.1953125 -42 M-56.1953125 -42 C-31.787761294889822 -42, -7.380210089779645 -42, 56.1953125 -42 M56.1953125 -42 C56.1953125 -18.74007031029031, 56.1953125 4.51985937941938, 56.1953125 42 M56.1953125 -42 C56.1953125 -12.864861783675433, 56.1953125 16.270276432649133, 56.1953125 42 M56.1953125 42 C29.551108310641006 42, 2.906904121282011 42, -56.1953125 42 M56.1953125 42 C30.70290842208259 42, 5.21050434416518 42, -56.1953125 42 M-56.1953125 42 C-56.1953125 14.573781524825296, -56.1953125 -12.852436950349407, -56.1953125 -42 M-56.1953125 42 C-56.1953125 10.611753735204438, -56.1953125 -20.776492529591124, -56.1953125 -42" stroke="#9370DB" stroke-width="1.3" fill="none" stroke-dasharray="0 0" style=""/></g><g class="annotation-group text" transform="translate(0, -18)"/><g class="label-group text" transform="translate(-44.1953125, -18)"><g class="label" style="font-weight: bolder" transform="translate(0,-12)"><foreignObject width="88.390625" height="24"><div xmlns="http://www.w3.org/1999/xhtml" style="display: table-cell; white-space: nowrap; line-height: 1.5; max-width: 128px; text-align: center;"><span class="nodeLabel markdown-node-label" style=""><p>EndEffector</p></span></div></foreignObject></g></g><g class="members-group text" transform="translate(-44.1953125, 30)"/><g class="methods-group text" transform="translate(-44.1953125, 60)"/><g class="divider" style=""><path d="M-56.1953125 6 C-24.38390308253721 6.0002830432646626, 7.427506334925582 6.000566086529325, 56.1953125 6.001 M-56.1953125 6 C-15.485366718133271 6.000362218341449, 25.224579063733458 6.000724436682898, 56.1953125 6.001" stroke="#9370DB" stroke-width="1.3" fill="none" stroke-dasharray="0 0" style=""/></g><g class="divider" style=""><path d="M-56.1953125 24 C-17.026364697187503 24.00034850725141, 22.142583105624993 24.00069701450282, 56.1953125 24.001 M-56.1953125 24 C-30.733226358575145 24.00022654991145, -5.27114021715029 24.0004530998229, 56.1953125 24.001" stroke="#9370DB" stroke-width="1.3" fill="none" stroke-dasharray="0 0" style=""/></g></g></g></g></g><defs><filter id="my-svg-drop-shadow" height="130%" width="130%"><feDropShadow dx="4" dy="4" stdDeviation="0" flood-opacity="0.06" flood-color="#000000"/></filter></defs><defs><filter id="my-svg-drop-shadow-small" height="150%" width="150%"><feDropShadow dx="2" dy="2" stdDeviation="0" flood-opacity="0.06" flood-color="#000000"/></filter></defs></svg>