<svg xmlns="http://www.w3.org/2000/svg" xmlns:xlink="http://www.w3.org/1999/xlink" contentStyleType="text/css" data-diagram-type="CLASS" height="286px" preserveAspectRatio="none" style="width:337px;height:286px;background:#FFFFFF;" version="1.1" viewBox="0 0 337 286" width="337px" zoomAndPan="magnify"><?plantuml 1.2026.6?><defs/><g><!--class RoboticArm--><g class="entity" data-qualified-name="RoboticArm" data-source-line="6" id="ent0001"><rect fill="#F1F1F1" height="48" rx="2.5" ry="2.5" style="stroke:#181818;stroke-width:0.5;" width="111.7754" x="90.71" y="7"/><ellipse cx="105.71" cy="23" fill="#ADD1B2" rx="11" ry="11" style="stroke:#181818;stroke-width:1;"/><path d="M108.1831,29.1431 Q107.6021,29.4419 106.9629,29.5913 Q106.3238,29.7407 105.6182,29.7407 Q103.1114,29.7407 101.7915,28.0889 Q100.4717,26.437 100.4717,23.3159 Q100.4717,20.1865 101.7915,18.5347 Q103.1114,16.8828 105.6182,16.8828 Q106.3238,16.8828 106.9712,17.0322 Q107.6187,17.1816 108.1831,17.4805 L108.1831,20.2031 Q107.5523,19.6221 106.9588,19.3523 Q106.3653,19.0825 105.7344,19.0825 Q104.3897,19.0825 103.7049,20.1492 Q103.0201,21.2158 103.0201,23.3159 Q103.0201,25.4077 103.7049,26.4744 Q104.3897,27.541 105.7344,27.541 Q106.3653,27.541 106.9588,27.2712 Q107.5523,27.0015 108.1831,26.4204 Z " fill="#000000"/><text fill="#000000" font-family="sans-serif" font-size="14" lengthAdjust="spacing" textLength="79.7754" x="119.71" y="28.291">RoboticArm</text><line style="stroke:#181818;stroke-width:0.5;" x1="91.71" x2="201.4854" y1="39" y2="39"/><line style="stroke:#181818;stroke-width:0.5;" x1="91.71" x2="201.4854" y1="47" y2="47"/></g><!--class Base--><g class="entity" data-qualified-name="Base" data-source-line="7" id="ent0002"><rect fill="#F1F1F1" height="48" rx="2.5" ry="2.5" style="stroke:#181818;stroke-width:0.5;" width="62.7207" x="17.24" y="115"/><ellipse cx="32.24" cy="131" fill="#ADD1B2" rx="11" ry="11" style="stroke:#181818;stroke-width:1;"/><path d="M34.7131,137.1431 Q34.1321,137.4419 33.4929,137.5913 Q32.8538,137.7407 32.1482,137.7407 Q29.6414,137.7407 28.3215,136.0889 Q27.0017,134.437 27.0017,131.3159 Q27.0017,128.1865 28.3215,126.5347 Q29.6414,124.8828 32.1482,124.8828 Q32.8538,124.8828 33.5012,125.0322 Q34.1487,125.1816 34.7131,125.4805 L34.7131,128.2031 Q34.0823,127.6221 33.4888,127.3523 Q32.8953,127.0825 32.2644,127.0825 Q30.9197,127.0825 30.2349,128.1492 Q29.5501,129.2158 29.5501,131.3159 Q29.5501,133.4077 30.2349,134.4744 Q30.9197,135.541 32.2644,135.541 Q32.8953,135.541 33.4888,135.2712 Q34.0823,135.0015 34.7131,134.4204 Z " fill="#000000"/><text fill="#000000" font-family="sans-serif" font-size="14" lengthAdjust="spacing" textLength="30.7207" x="46.24" y="136.291">Base</text><line style="stroke:#181818;stroke-width:0.5;" x1="18.24" x2="78.9607" y1="147" y2="147"/><line style="stroke:#181818;stroke-width:0.5;" x1="18.24" x2="78.9607" y1="155" y2="155"/></g><!--class Joint--><g class="entity" data-qualified-name="Joint" data-source-line="8" id="ent0003"><rect fill="#F1F1F1" height="48" rx="2.5" ry="2.5" style="stroke:#181818;stroke-width:0.5;" width="62.9258" x="115.13" y="115"/><ellipse cx="130.13" cy="131" fill="#A9DCDF" rx="11" ry="11" style="stroke:#181818;stroke-width:1;"/><path d="M129.9933,126.3481 L128.8395,131.4199 L131.1554,131.4199 Z M128.4991,124.1069 L131.4957,124.1069 L134.8409,136.5 L132.3922,136.5 L131.6285,133.437 L128.3497,133.437 L127.6027,136.5 L125.1539,136.5 Z " fill="#000000"/><text fill="#000000" font-family="sans-serif" font-size="14" font-style="italic" lengthAdjust="spacing" textLength="30.9258" x="144.13" y="136.291">Joint</text><line style="stroke:#181818;stroke-width:0.5;" x1="116.13" x2="177.0558" y1="147" y2="147"/><line style="stroke:#181818;stroke-width:0.5;" x1="116.13" x2="177.0558" y1="155" y2="155"/></g><!--class RevoluteJoint--><g class="entity" data-qualified-name="RevoluteJoint" data-source-line="9" id="ent0004"><rect fill="#F1F1F1" height="48" rx="2.5" ry="2.5" style="stroke:#181818;stroke-width:0.5;" width="121.1953" x="7" y="223"/><ellipse cx="22" cy="239" fill="#ADD1B2" rx="11" ry="11" style="stroke:#181818;stroke-width:1;"/><path d="M24.4731,245.1431 Q23.8921,245.4419 23.2529,245.5913 Q22.6138,245.7407 21.9082,245.7407 Q19.4014,245.7407 18.0815,244.0889 Q16.7617,242.437 16.7617,239.3159 Q16.7617,236.1865 18.0815,234.5347 Q19.4014,232.8828 21.9082,232.8828 Q22.6138,232.8828 23.2612,233.0322 Q23.9087,233.1816 24.4731,233.4805 L24.4731,236.2031 Q23.8423,235.6221 23.2488,235.3523 Q22.6553,235.0825 22.0244,235.0825 Q20.6797,235.0825 19.9949,236.1492 Q19.3101,237.2158 19.3101,239.3159 Q19.3101,241.4077 19.9949,242.4744 Q20.6797,243.541 22.0244,243.541 Q22.6553,243.541 23.2488,243.2712 Q23.8423,243.0015 24.4731,242.4204 Z " fill="#000000"/><text fill="#000000" font-family="sans-serif" font-size="14" lengthAdjust="spacing" textLength="89.1953" x="36" y="244.291">RevoluteJoint</text><line style="stroke:#181818;stroke-width:0.5;" x1="8" x2="127.1953" y1="255" y2="255"/><line style="stroke:#181818;stroke-width:0.5;" x1="8" x2="127.1953" y1="263" y2="263"/></g><!--class PrismaticJoint--><g class="entity" data-qualified-name="PrismaticJoint" data-source-line="10" id="ent0005"><rect fill="#F1F1F1" height="48" rx="2.5" ry="2.5" style="stroke:#181818;stroke-width:0.5;" width="124.832" x="163.18" y="223"/><ellipse cx="178.18" cy="239" fill="#ADD1B2" rx="11" ry="11" style="stroke:#181818;stroke-width:1;"/><path d="M180.6531,245.1431 Q180.0721,245.4419 179.4329,245.5913 Q178.7938,245.7407 178.0882,245.7407 Q175.5814,245.7407 174.2615,244.0889 Q172.9417,242.437 172.9417,239.3159 Q172.9417,236.1865 174.2615,234.5347 Q175.5814,232.8828 178.0882,232.8828 Q178.7938,232.8828 179.4412,233.0322 Q180.0887,233.1816 180.6531,233.4805 L180.6531,236.2031 Q180.0223,235.6221 179.4288,235.3523 Q178.8353,235.0825 178.2044,235.0825 Q176.8597,235.0825 176.1749,236.1492 Q175.4901,237.2158 175.4901,239.3159 Q175.4901,241.4077 176.1749,242.4744 Q176.8597,243.541 178.2044,243.541 Q178.8353,243.541 179.4288,243.2712 Q180.0223,243.0015 180.6531,242.4204 Z " fill="#000000"/><text fill="#000000" font-family="sans-serif" font-size="14" lengthAdjust="spacing" textLength="92.832" x="192.18" y="244.291">PrismaticJoint</text><line style="stroke:#181818;stroke-width:0.5;" x1="164.18" x2="287.012" y1="255" y2="255"/><line style="stroke:#181818;stroke-width:0.5;" x1="164.18" x2="287.012" y1="263" y2="263"/></g><!--class EndEffector--><g class="entity" data-qualified-name="EndEffector" data-source-line="11" id="ent0006"><rect fill="#F1F1F1" height="48" rx="2.5" ry="2.5" style="stroke:#181818;stroke-width:0.5;" width="109.5059" x="212.84" y="115"/><ellipse cx="227.84" cy="131" fill="#ADD1B2" rx="11" ry="11" style="stroke:#181818;stroke-width:1;"/><path d="M230.3131,137.1431 Q229.7321,137.4419 229.0929,137.5913 Q228.4538,137.7407 227.7482,137.7407 Q225.2414,137.7407 223.9215,136.0889 Q222.6017,134.437 222.6017,131.3159 Q222.6017,128.1865 223.9215,126.5347 Q225.2414,124.8828 227.7482,124.8828 Q228.4538,124.8828 229.1012,125.0322 Q229.7487,125.1816 230.3131,125.4805 L230.3131,128.2031 Q229.6823,127.6221 229.0888,127.3523 Q228.4953,127.0825 227.8644,127.0825 Q226.5197,127.0825 225.8349,128.1492 Q225.1501,129.2158 225.1501,131.3159 Q225.1501,133.4077 225.8349,134.4744 Q226.5197,135.541 227.8644,135.541 Q228.4953,135.541 229.0888,135.2712 Q229.6823,135.0015 230.3131,134.4204 Z " fill="#000000"/><text fill="#000000" font-family="sans-serif" font-size="14" lengthAdjust="spacing" textLength="77.5059" x="241.84" y="136.291">EndEffector</text><line style="stroke:#181818;stroke-width:0.5;" x1="213.84" x2="321.3459" y1="147" y2="147"/><line style="stroke:#181818;stroke-width:0.5;" x1="213.84" x2="321.3459" y1="155" y2="155"/></g><!--reverse link RoboticArm to Base--><g class="link" data-entity-1="ent0001" data-entity-2="ent0002" data-link-type="composition" data-source-line="13" id="lnk7"><path codeLine="13" d="M116.9453,64.0727 C100.6053,81.7527 86.38,97.13 70.05,114.79" fill="none" id="RoboticArm-backto-Base" style="stroke:#181818;stroke-width:1;"/><polygon fill="#181818" points="125.09,55.26,118.0801,56.9514,116.9453,64.0727,123.9552,62.3812,125.09,55.26" style="stroke:#181818;stroke-width:1;stroke-linejoin:miter;stroke-miterlimit:10;"/><text fill="#000000" font-family="sans-serif" font-size="13" lengthAdjust="spacing" textLength="8.2202" x="110.8993" y="75.6077">1</text><text fill="#000000" font-family="sans-serif" font-size="13" lengthAdjust="spacing" textLength="8.2202" x="66.5497" y="104.2725">1</text></g><!--reverse link RoboticArm to Joint--><g class="link" data-entity-1="ent0001" data-entity-2="ent0003" data-link-type="composition" data-source-line="14" id="lnk8"><path codeLine="14" d="M146.6,67.26 C146.6,84.94 146.6,97.13 146.6,114.79" fill="none" id="RoboticArm-backto-Joint" style="stroke:#181818;stroke-width:1;"/><polygon fill="#181818" points="146.6,55.26,142.6,61.26,146.6,67.26,150.6,61.26,146.6,55.26" style="stroke:#181818;stroke-width:1;stroke-linejoin:miter;stroke-miterlimit:10;"/><text fill="#000000" font-family="sans-serif" font-size="13" lengthAdjust="spacing" textLength="8.2202" x="137.6524" y="75.6077">1</text><text fill="#000000" font-family="sans-serif" font-size="13" lengthAdjust="spacing" textLength="24.667" x="119.6123" y="104.2725">1..6</text></g><!--reverse link RoboticArm to EndEffector--><g class="link" data-entity-1="ent0001" data-entity-2="ent0006" data-link-type="composition" data-source-line="15" id="lnk9"><path codeLine="15" d="M182.1759,63.1678 C202.3559,80.8478 220.95,97.13 241.11,114.79" fill="none" id="RoboticArm-backto-EndEffector" style="stroke:#181818;stroke-width:1;"/><polygon fill="#181818" points="173.15,55.26,175.027,62.2225,182.1759,63.1678,180.2989,56.2052,173.15,55.26" style="stroke:#181818;stroke-width:1;stroke-linejoin:miter;stroke-miterlimit:10;"/><text fill="#000000" font-family="sans-serif" font-size="13" lengthAdjust="spacing" textLength="8.2202" x="170.674" y="75.6077">1</text><text fill="#000000" font-family="sans-serif" font-size="13" lengthAdjust="spacing" textLength="8.2202" x="225.327" y="104.2725">1</text></g><!--reverse link Joint to RevoluteJoint--><g class="link" data-entity-1="ent0003" data-entity-2="ent0004" data-link-type="extension" data-source-line="17" id="lnk10"><path codeLine="17" d="M118.5071,177.6952 C105.3371,195.3752 98.06,205.13 84.89,222.79" fill="none" id="Joint-backto-RevoluteJoint" style="stroke:#181818;stroke-width:1;"/><polygon fill="none" points="129.26,163.26,113.6954,174.1109,123.3188,181.2795,129.26,163.26" style="stroke:#181818;stroke-width:1;stroke-linejoin:miter;stroke-miterlimit:10;"/></g><!--reverse link Joint to PrismaticJoint--><g class="link" data-entity-1="ent0003" data-entity-2="ent0005" data-link-type="extension" data-source-line="18" id="lnk11"><path codeLine="18" d="M174.6882,177.6913 C187.8682,195.3713 195.14,205.13 208.3,222.79" fill="none" id="Joint-backto-PrismaticJoint" style="stroke:#181818;stroke-width:1;"/><polygon fill="none" points="163.93,163.26,169.8777,181.2773,179.4986,174.1052,163.93,163.26" style="stroke:#181818;stroke-width:1;stroke-linejoin:miter;stroke-miterlimit:10;"/></g><?plantuml-src TOz1ImD138Nlyol2NAh25FJWGKHesLv4eIZ-W7GsMuAxasKInOe_tkrqrQteAV3UbxoN6JpkzFuEBc1PLP2fpwIKZ6hW1EiMapqDRcnHDTICsumTw2uPlbsv6GJeCLj53OIR0rJ4A5qloiQIuCH7ISfg2jBuqpru5aB1jfGeOyllE9AiWF3CgVv6hpy6rfNBy20RCOwBt8t24fKSRjGoHZl4mwrmigy5UfNsnMYghJDhD-J5gRXAzQffA9favtvYm9_xVTaoIzYVtdn-wSVSVtQFxXUoFFQhuCGuRla9?></g></svg>