<svg xmlns="http://www.w3.org/2000/svg" xmlns:xlink="http://www.w3.org/1999/xlink" contentStyleType="text/css" data-diagram-type="CLASS" height="765px" preserveAspectRatio="none" style="width:1175px;height:765px;background:#FFFFFF;" version="1.1" viewBox="0 0 1175 765" width="1175px" zoomAndPan="magnify"><?plantuml 1.2026.6?><defs/><g><!--class Trackable--><g class="entity" data-qualified-name="Trackable" data-source-line="2" id="ent0001"><rect fill="#F1F1F1" height="80.9766" rx="2.5" ry="2.5" style="stroke:#181818;stroke-width:0.5;" width="219.2725" x="7" y="322.95"/><ellipse cx="79.3584" cy="338.95" fill="#B4A7E5" rx="11" ry="11" style="stroke:#181818;stroke-width:1;"/><path d="M75.7861,335.2151 L75.7861,333.0569 L83.1655,333.0569 L83.1655,335.2151 L80.7002,335.2151 L80.7002,343.2918 L83.1655,343.2918 L83.1655,345.45 L75.7861,345.45 L75.7861,343.2918 L78.2515,343.2918 L78.2515,335.2151 Z " fill="#000000"/><text fill="#000000" font-family="sans-serif" font-size="14" font-style="italic" lengthAdjust="spacing" textLength="66.0557" x="99.8584" y="344.241">Trackable</text><line style="stroke:#181818;stroke-width:0.5;" x1="8" x2="225.2725" y1="354.95" y2="354.95"/><line style="stroke:#181818;stroke-width:0.5;" x1="8" x2="225.2725" y1="362.95" y2="362.95"/><g data-visibility-modifier="PUBLIC_METHOD"><ellipse cx="18" cy="376.6941" fill="#84BE84" rx="3" ry="3" style="stroke:#038048;stroke-width:1;"/></g><text fill="#000000" font-family="sans-serif" font-size="14" lengthAdjust="spacing" textLength="193.2725" x="27" y="380.4852">getTrackingNumber(): String</text><g data-visibility-modifier="PUBLIC_METHOD"><ellipse cx="18" cy="393.1824" fill="#84BE84" rx="3" ry="3" style="stroke:#038048;stroke-width:1;"/></g><text fill="#000000" font-family="sans-serif" font-size="14" lengthAdjust="spacing" textLength="186.751" x="27" y="396.9734">getStatus(): ShipmentStatus</text></g><!--class ShipmentStatus--><g class="entity" data-qualified-name="ShipmentStatus" data-source-line="7" id="ent0002"><rect fill="#F1F1F1" height="113.9531" rx="2.5" ry="2.5" style="stroke:#181818;stroke-width:0.5;" width="137.4512" x="260.91" y="306.46"/><ellipse cx="275.91" cy="322.46" fill="#EB937F" rx="11" ry="11" style="stroke:#181818;stroke-width:1;"/><path d="M279.5243,328.96 L271.8045,328.96 L271.8045,316.5669 L279.5243,316.5669 L279.5243,318.7251 L274.2533,318.7251 L274.2533,321.398 L279.0262,321.398 L279.0262,323.5562 L274.2533,323.5562 L274.2533,326.8018 L279.5243,326.8018 Z " fill="#000000"/><text fill="#000000" font-family="sans-serif" font-size="14" lengthAdjust="spacing" textLength="105.4512" x="289.91" y="327.751">ShipmentStatus</text><line style="stroke:#181818;stroke-width:0.5;" x1="261.91" x2="397.3612" y1="338.46" y2="338.46"/><text fill="#000000" font-family="sans-serif" font-size="14" lengthAdjust="spacing" textLength="62.46" x="266.91" y="355.9952">Accepted</text><text fill="#000000" font-family="sans-serif" font-size="14" lengthAdjust="spacing" textLength="86.8711" x="266.91" y="372.4834">InWarehouse</text><text fill="#000000" font-family="sans-serif" font-size="14" lengthAdjust="spacing" textLength="60.1426" x="266.91" y="388.9717">InTransit</text><text fill="#000000" font-family="sans-serif" font-size="14" lengthAdjust="spacing" textLength="63.7656" x="266.91" y="405.46">Delivered</text><line style="stroke:#181818;stroke-width:0.5;" x1="261.91" x2="397.3612" y1="412.4131" y2="412.4131"/></g><!--class Warehouse--><g class="entity" data-qualified-name="Warehouse" data-source-line="14" id="ent0003"><rect fill="#F1F1F1" height="64.4883" rx="2.5" ry="2.5" style="stroke:#181818;stroke-width:0.5;" width="112.1191" x="559.58" y="544.9"/><ellipse cx="577.2664" cy="560.9" fill="#ADD1B2" rx="11" ry="11" style="stroke:#181818;stroke-width:1;"/><path d="M579.7395,567.0431 Q579.1585,567.3419 578.5193,567.4913 Q577.8801,567.6407 577.1746,567.6407 Q574.6677,567.6407 573.3479,565.9889 Q572.0281,564.337 572.0281,561.2159 Q572.0281,558.0865 573.3479,556.4347 Q574.6677,554.7828 577.1746,554.7828 Q577.8801,554.7828 578.5276,554.9322 Q579.1751,555.0816 579.7395,555.3805 L579.7395,558.1031 Q579.1087,557.5221 578.5152,557.2523 Q577.9217,556.9825 577.2908,556.9825 Q575.9461,556.9825 575.2613,558.0492 Q574.5764,559.1158 574.5764,561.2159 Q574.5764,563.3077 575.2613,564.3744 Q575.9461,565.441 577.2908,565.441 Q577.9217,565.441 578.5152,565.1712 Q579.1087,564.9015 579.7395,564.3204 Z " fill="#000000"/><text fill="#000000" font-family="sans-serif" font-size="14" lengthAdjust="spacing" textLength="74.1494" x="591.8633" y="566.191">Warehouse</text><line style="stroke:#181818;stroke-width:0.5;" x1="560.58" x2="670.6991" y1="576.9" y2="576.9"/><g data-visibility-modifier="PUBLIC_FIELD"><ellipse cx="570.58" cy="590.6441" fill="none" rx="3" ry="3" style="stroke:#038048;stroke-width:1;"/></g><text fill="#000000" font-family="sans-serif" font-size="14" lengthAdjust="spacing" textLength="86.1191" x="579.58" y="594.4352">name: String</text><line style="stroke:#181818;stroke-width:0.5;" x1="560.58" x2="670.6991" y1="601.3883" y2="601.3883"/></g><!--class StorageLocation--><g class="entity" data-qualified-name="StorageLocation" data-source-line="18" id="ent0004"><rect fill="#F1F1F1" height="64.4883" rx="2.5" ry="2.5" style="stroke:#181818;stroke-width:0.5;" width="140.9033" x="410.18" y="686.39"/><ellipse cx="425.18" cy="702.39" fill="#ADD1B2" rx="11" ry="11" style="stroke:#181818;stroke-width:1;"/><path d="M427.6531,708.5331 Q427.0721,708.8319 426.4329,708.9813 Q425.7938,709.1307 425.0882,709.1307 Q422.5814,709.1307 421.2615,707.4789 Q419.9417,705.827 419.9417,702.7059 Q419.9417,699.5765 421.2615,697.9247 Q422.5814,696.2728 425.0882,696.2728 Q425.7938,696.2728 426.4412,696.4222 Q427.0887,696.5716 427.6531,696.8705 L427.6531,699.5931 Q427.0223,699.0121 426.4288,698.7423 Q425.8353,698.4725 425.2044,698.4725 Q423.8597,698.4725 423.1749,699.5392 Q422.4901,700.6058 422.4901,702.7059 Q422.4901,704.7977 423.1749,705.8644 Q423.8597,706.931 425.2044,706.931 Q425.8353,706.931 426.4288,706.6612 Q427.0223,706.3915 427.6531,705.8104 Z " fill="#000000"/><text fill="#000000" font-family="sans-serif" font-size="14" lengthAdjust="spacing" textLength="108.9033" x="439.18" y="707.681">StorageLocation</text><line style="stroke:#181818;stroke-width:0.5;" x1="411.18" x2="550.0833" y1="718.39" y2="718.39"/><g data-visibility-modifier="PUBLIC_FIELD"><ellipse cx="421.18" cy="732.1341" fill="none" rx="3" ry="3" style="stroke:#038048;stroke-width:1;"/></g><text fill="#000000" font-family="sans-serif" font-size="14" lengthAdjust="spacing" textLength="81.2109" x="430.18" y="735.9252">code: String</text><line style="stroke:#181818;stroke-width:0.5;" x1="411.18" x2="550.0833" y1="742.8783" y2="742.8783"/></g><!--class Shipment--><g class="entity" data-qualified-name="Shipment" data-source-line="22" id="ent0005"><rect fill="#F1F1F1" height="80.9766" rx="2.5" ry="2.5" style="stroke:#181818;stroke-width:0.5;" width="184.7852" x="266.24" y="148.49"/><ellipse cx="322.4417" cy="164.49" fill="#ADD1B2" rx="11" ry="11" style="stroke:#181818;stroke-width:1;"/><path d="M324.9148,170.6331 Q324.3338,170.9319 323.6946,171.0813 Q323.0554,171.2307 322.3499,171.2307 Q319.843,171.2307 318.5232,169.5789 Q317.2034,167.927 317.2034,164.8059 Q317.2034,161.6765 318.5232,160.0247 Q319.843,158.3728 322.3499,158.3728 Q323.0554,158.3728 323.7029,158.5222 Q324.3504,158.6716 324.9148,158.9705 L324.9148,161.6931 Q324.2839,161.1121 323.6904,160.8423 Q323.0969,160.5725 322.4661,160.5725 Q321.1213,160.5725 320.4365,161.6392 Q319.7517,162.7058 319.7517,164.8059 Q319.7517,166.8977 320.4365,167.9644 Q321.1213,169.031 322.4661,169.031 Q323.0969,169.031 323.6904,168.7612 Q324.2839,168.4915 324.9148,167.9104 Z " fill="#000000"/><text fill="#000000" font-family="sans-serif" font-size="14" lengthAdjust="spacing" textLength="63.8818" x="342.9417" y="169.781">Shipment</text><line style="stroke:#181818;stroke-width:0.5;" x1="267.24" x2="450.0252" y1="180.49" y2="180.49"/><g data-visibility-modifier="PUBLIC_FIELD"><ellipse cx="277.24" cy="194.2341" fill="none" rx="3" ry="3" style="stroke:#038048;stroke-width:1;"/></g><text fill="#000000" font-family="sans-serif" font-size="14" lengthAdjust="spacing" textLength="158.7852" x="286.24" y="198.0252">trackingNumber: String</text><g data-visibility-modifier="PUBLIC_FIELD"><ellipse cx="277.24" cy="210.7224" fill="none" rx="3" ry="3" style="stroke:#038048;stroke-width:1;"/></g><text fill="#000000" font-family="sans-serif" font-size="14" lengthAdjust="spacing" textLength="155.4766" x="286.24" y="214.5134">status: ShipmentStatus</text><line style="stroke:#181818;stroke-width:0.5;" x1="267.24" x2="450.0252" y1="221.4666" y2="221.4666"/></g><!--class Package--><g class="entity" data-qualified-name="Package" data-source-line="27" id="ent0006"><rect fill="#F1F1F1" height="64.4883" rx="2.5" ry="2.5" style="stroke:#181818;stroke-width:0.5;" width="87.6875" x="407.79" y="450.42"/><ellipse cx="423.0616" cy="466.42" fill="#ADD1B2" rx="11" ry="11" style="stroke:#181818;stroke-width:1;"/><path d="M425.5347,472.5631 Q424.9537,472.8619 424.3145,473.0113 Q423.6754,473.1607 422.9698,473.1607 Q420.4629,473.1607 419.1431,471.5089 Q417.8233,469.857 417.8233,466.7359 Q417.8233,463.6065 419.1431,461.9547 Q420.4629,460.3028 422.9698,460.3028 Q423.6754,460.3028 424.3228,460.4522 Q424.9703,460.6016 425.5347,460.9005 L425.5347,463.6231 Q424.9039,463.0421 424.3104,462.7723 Q423.7169,462.5025 423.086,462.5025 Q421.7413,462.5025 421.0565,463.5692 Q420.3716,464.6358 420.3716,466.7359 Q420.3716,468.8277 421.0565,469.8944 Q421.7413,470.961 423.086,470.961 Q423.7169,470.961 424.3104,470.6912 Q424.9039,470.4215 425.5347,469.8404 Z " fill="#000000"/><text fill="#000000" font-family="sans-serif" font-size="14" lengthAdjust="spacing" textLength="55.084" x="437.1219" y="471.711">Package</text><line style="stroke:#181818;stroke-width:0.5;" x1="408.79" x2="494.4775" y1="482.42" y2="482.42"/><g data-visibility-modifier="PUBLIC_FIELD"><ellipse cx="418.79" cy="496.1641" fill="none" rx="3" ry="3" style="stroke:#038048;stroke-width:1;"/></g><text fill="#000000" font-family="sans-serif" font-size="14" lengthAdjust="spacing" textLength="61.6875" x="427.79" y="499.9552">id: String</text><line style="stroke:#181818;stroke-width:0.5;" x1="408.79" x2="494.4775" y1="506.9083" y2="506.9083"/></g><!--class Route--><g class="entity" data-qualified-name="Route" data-source-line="31" id="ent0007"><rect fill="#F1F1F1" height="64.4883" rx="2.5" ry="2.5" style="stroke:#181818;stroke-width:0.5;" width="112.1191" x="499.58" y="156.73"/><ellipse cx="533.0041" cy="172.73" fill="#ADD1B2" rx="11" ry="11" style="stroke:#181818;stroke-width:1;"/><path d="M535.4772,178.8731 Q534.8962,179.1719 534.257,179.3213 Q533.6178,179.4707 532.9123,179.4707 Q530.4054,179.4707 529.0856,177.8189 Q527.7658,176.167 527.7658,173.0459 Q527.7658,169.9165 529.0856,168.2647 Q530.4054,166.6128 532.9123,166.6128 Q533.6178,166.6128 534.2653,166.7622 Q534.9128,166.9116 535.4772,167.2105 L535.4772,169.9331 Q534.8464,169.3521 534.2529,169.0823 Q533.6593,168.8125 533.0285,168.8125 Q531.6838,168.8125 530.9989,169.8792 Q530.3141,170.9458 530.3141,173.0459 Q530.3141,175.1377 530.9989,176.2044 Q531.6838,177.271 533.0285,177.271 Q533.6593,177.271 534.2529,177.0012 Q534.8464,176.7315 535.4772,176.1504 Z " fill="#000000"/><text fill="#000000" font-family="sans-serif" font-size="14" lengthAdjust="spacing" textLength="39.1768" x="551.0983" y="178.021">Route</text><line style="stroke:#181818;stroke-width:0.5;" x1="500.58" x2="610.6991" y1="188.73" y2="188.73"/><g data-visibility-modifier="PUBLIC_FIELD"><ellipse cx="510.58" cy="202.4741" fill="none" rx="3" ry="3" style="stroke:#038048;stroke-width:1;"/></g><text fill="#000000" font-family="sans-serif" font-size="14" lengthAdjust="spacing" textLength="86.1191" x="519.58" y="206.2652">name: String</text><line style="stroke:#181818;stroke-width:0.5;" x1="500.58" x2="610.6991" y1="213.2183" y2="213.2183"/></g><!--class Segment--><g class="entity" data-qualified-name="Segment" data-source-line="35" id="ent0008"><rect fill="#F1F1F1" height="64.4883" rx="2.5" ry="2.5" style="stroke:#181818;stroke-width:0.5;" width="171.1543" x="505.06" y="331.19"/><ellipse cx="556.955" cy="347.19" fill="#ADD1B2" rx="11" ry="11" style="stroke:#181818;stroke-width:1;"/><path d="M559.4282,353.3331 Q558.8471,353.6319 558.2079,353.7813 Q557.5688,353.9307 556.8632,353.9307 Q554.3564,353.9307 553.0366,352.2789 Q551.7167,350.627 551.7167,347.5059 Q551.7167,344.3765 553.0366,342.7247 Q554.3564,341.0728 556.8632,341.0728 Q557.5688,341.0728 558.2163,341.2222 Q558.8637,341.3716 559.4282,341.6705 L559.4282,344.3931 Q558.7973,343.8121 558.2038,343.5423 Q557.6103,343.2725 556.9794,343.2725 Q555.6347,343.2725 554.9499,344.3392 Q554.2651,345.4058 554.2651,347.5059 Q554.2651,349.5977 554.9499,350.6644 Q555.6347,351.731 556.9794,351.731 Q557.6103,351.731 558.2038,351.4612 Q558.7973,351.1915 559.4282,350.6104 Z " fill="#000000"/><text fill="#000000" font-family="sans-serif" font-size="14" lengthAdjust="spacing" textLength="58.8643" x="577.455" y="352.481">Segment</text><line style="stroke:#181818;stroke-width:0.5;" x1="506.06" x2="675.2143" y1="363.19" y2="363.19"/><g data-visibility-modifier="PUBLIC_FIELD"><ellipse cx="516.06" cy="376.9341" fill="none" rx="3" ry="3" style="stroke:#038048;stroke-width:1;"/></g><text fill="#000000" font-family="sans-serif" font-size="14" lengthAdjust="spacing" textLength="145.1543" x="525.06" y="380.7252">sequenceNumber: Int</text><line style="stroke:#181818;stroke-width:0.5;" x1="506.06" x2="675.2143" y1="387.6783" y2="387.6783"/></g><!--class Vehicle--><g class="entity" data-qualified-name="Vehicle" data-source-line="39" id="ent0009"><rect fill="#F1F1F1" height="64.4883" rx="2.5" ry="2.5" style="stroke:#181818;stroke-width:0.5;" width="154.0713" x="793.6" y="156.73"/><ellipse cx="842.0326" cy="172.73" fill="#A9DCDF" rx="11" ry="11" style="stroke:#181818;stroke-width:1;"/><path d="M841.8959,168.0781 L840.7421,173.1499 L843.058,173.1499 Z M840.4018,165.8369 L843.3983,165.8369 L846.7436,178.23 L844.2948,178.23 L843.5312,175.167 L840.2523,175.167 L839.5053,178.23 L837.0565,178.23 Z " fill="#000000"/><text fill="#000000" font-family="sans-serif" font-size="14" font-style="italic" lengthAdjust="spacing" textLength="48.7061" x="862.5326" y="178.021">Vehicle</text><line style="stroke:#181818;stroke-width:0.5;" x1="794.6" x2="946.6713" y1="188.73" y2="188.73"/><g data-visibility-modifier="PUBLIC_FIELD"><ellipse cx="804.6" cy="202.4741" fill="none" rx="3" ry="3" style="stroke:#038048;stroke-width:1;"/></g><text fill="#000000" font-family="sans-serif" font-size="14" lengthAdjust="spacing" textLength="128.0713" x="813.6" y="206.2652">licensePlate: String</text><line style="stroke:#181818;stroke-width:0.5;" x1="794.6" x2="946.6713" y1="213.2183" y2="213.2183"/></g><!--class Truck--><g class="entity" data-qualified-name="Truck" data-source-line="43" id="ent0010"><rect fill="#F1F1F1" height="64.4883" rx="2.5" ry="2.5" style="stroke:#181818;stroke-width:0.5;" width="176.4453" x="776.41" y="7"/><ellipse cx="841.0711" cy="23" fill="#ADD1B2" rx="11" ry="11" style="stroke:#181818;stroke-width:1;"/><path d="M843.5443,29.1431 Q842.9632,29.4419 842.3241,29.5913 Q841.6849,29.7407 840.9793,29.7407 Q838.4725,29.7407 837.1527,28.0889 Q835.8329,26.437 835.8329,23.3159 Q835.8329,20.1865 837.1527,18.5347 Q838.4725,16.8828 840.9793,16.8828 Q841.6849,16.8828 842.3324,17.0322 Q842.9798,17.1816 843.5443,17.4805 L843.5443,20.2031 Q842.9134,19.6221 842.3199,19.3523 Q841.7264,19.0825 841.0955,19.0825 Q839.7508,19.0825 839.066,20.1492 Q838.3812,21.2158 838.3812,23.3159 Q838.3812,25.4077 839.066,26.4744 Q839.7508,27.541 841.0955,27.541 Q841.7264,27.541 842.3199,27.2712 Q842.9134,27.0015 843.5443,26.4204 Z " fill="#000000"/><text fill="#000000" font-family="sans-serif" font-size="14" lengthAdjust="spacing" textLength="38.623" x="861.5711" y="28.291">Truck</text><line style="stroke:#181818;stroke-width:0.5;" x1="777.41" x2="951.8553" y1="39" y2="39"/><g data-visibility-modifier="PUBLIC_FIELD"><ellipse cx="787.41" cy="52.7441" fill="none" rx="3" ry="3" style="stroke:#038048;stroke-width:1;"/></g><text fill="#000000" font-family="sans-serif" font-size="14" lengthAdjust="spacing" textLength="150.4453" x="796.41" y="56.5352">trailerCoupling: String</text><line style="stroke:#181818;stroke-width:0.5;" x1="777.41" x2="951.8553" y1="63.4883" y2="63.4883"/></g><!--class Van--><g class="entity" data-qualified-name="Van" data-source-line="47" id="ent0011"><rect fill="#F1F1F1" height="64.4883" rx="2.5" ry="2.5" style="stroke:#181818;stroke-width:0.5;" width="172.6104" x="988.33" y="7"/><ellipse cx="1057.5986" cy="23" fill="#ADD1B2" rx="11" ry="11" style="stroke:#181818;stroke-width:1;"/><path d="M1060.0717,29.1431 Q1059.4906,29.4419 1058.8515,29.5913 Q1058.2123,29.7407 1057.5068,29.7407 Q1054.9999,29.7407 1053.6801,28.0889 Q1052.3603,26.437 1052.3603,23.3159 Q1052.3603,20.1865 1053.6801,18.5347 Q1054.9999,16.8828 1057.5068,16.8828 Q1058.2123,16.8828 1058.8598,17.0322 Q1059.5072,17.1816 1060.0717,17.4805 L1060.0717,20.2031 Q1059.4408,19.6221 1058.8473,19.3523 Q1058.2538,19.0825 1057.623,19.0825 Q1056.2782,19.0825 1055.5934,20.1492 Q1054.9086,21.2158 1054.9086,23.3159 Q1054.9086,25.4077 1055.5934,26.4744 Q1056.2782,27.541 1057.623,27.541 Q1058.2538,27.541 1058.8473,27.2712 Q1059.4408,27.0015 1060.0717,26.4204 Z " fill="#000000"/><text fill="#000000" font-family="sans-serif" font-size="14" lengthAdjust="spacing" textLength="25.5732" x="1078.0986" y="28.291">Van</text><line style="stroke:#181818;stroke-width:0.5;" x1="989.33" x2="1159.9404" y1="39" y2="39"/><g data-visibility-modifier="PUBLIC_FIELD"><ellipse cx="999.33" cy="52.7441" fill="none" rx="3" ry="3" style="stroke:#038048;stroke-width:1;"/></g><text fill="#000000" font-family="sans-serif" font-size="14" lengthAdjust="spacing" textLength="146.6104" x="1008.33" y="56.5352">cargoVolume: Double</text><line style="stroke:#181818;stroke-width:0.5;" x1="989.33" x2="1159.9404" y1="63.4883" y2="63.4883"/></g><!--class Driver--><g class="entity" data-qualified-name="Driver" data-source-line="51" id="ent0012"><rect fill="#F1F1F1" height="64.4883" rx="2.5" ry="2.5" style="stroke:#181818;stroke-width:0.5;" width="112.1191" x="646.58" y="156.73"/><ellipse cx="679.1674" cy="172.73" fill="#ADD1B2" rx="11" ry="11" style="stroke:#181818;stroke-width:1;"/><path d="M681.6405,178.8731 Q681.0594,179.1719 680.4203,179.3213 Q679.7811,179.4707 679.0756,179.4707 Q676.5687,179.4707 675.2489,177.8189 Q673.9291,176.167 673.9291,173.0459 Q673.9291,169.9165 675.2489,168.2647 Q676.5687,166.6128 679.0756,166.6128 Q679.7811,166.6128 680.4286,166.7622 Q681.076,166.9116 681.6405,167.2105 L681.6405,169.9331 Q681.0096,169.3521 680.4161,169.0823 Q679.8226,168.8125 679.1918,168.8125 Q677.847,168.8125 677.1622,169.8792 Q676.4774,170.9458 676.4774,173.0459 Q676.4774,175.1377 677.1622,176.2044 Q677.847,177.271 679.1918,177.271 Q679.8226,177.271 680.4161,177.0012 Q681.0096,176.7315 681.6405,176.1504 Z " fill="#000000"/><text fill="#000000" font-family="sans-serif" font-size="14" lengthAdjust="spacing" textLength="41.0361" x="697.0757" y="178.021">Driver</text><line style="stroke:#181818;stroke-width:0.5;" x1="647.58" x2="757.6991" y1="188.73" y2="188.73"/><g data-visibility-modifier="PUBLIC_FIELD"><ellipse cx="657.58" cy="202.4741" fill="none" rx="3" ry="3" style="stroke:#038048;stroke-width:1;"/></g><text fill="#000000" font-family="sans-serif" font-size="14" lengthAdjust="spacing" textLength="86.1191" x="666.58" y="206.2652">name: String</text><line style="stroke:#181818;stroke-width:0.5;" x1="647.58" x2="757.6991" y1="213.2183" y2="213.2183"/></g><!--class Tour--><g class="entity" data-qualified-name="Tour" data-source-line="55" id="ent0013"><rect fill="#F1F1F1" height="64.4883" rx="2.5" ry="2.5" style="stroke:#181818;stroke-width:0.5;" width="137.1523" x="554.06" y="7"/><ellipse cx="602.4516" cy="23" fill="#ADD1B2" rx="11" ry="11" style="stroke:#181818;stroke-width:1;"/><path d="M604.9247,29.1431 Q604.3437,29.4419 603.7045,29.5913 Q603.0654,29.7407 602.3598,29.7407 Q599.853,29.7407 598.5331,28.0889 Q597.2133,26.437 597.2133,23.3159 Q597.2133,20.1865 598.5331,18.5347 Q599.853,16.8828 602.3598,16.8828 Q603.0654,16.8828 603.7128,17.0322 Q604.3603,17.1816 604.9247,17.4805 L604.9247,20.2031 Q604.2939,19.6221 603.7004,19.3523 Q603.1069,19.0825 602.476,19.0825 Q601.1313,19.0825 600.4465,20.1492 Q599.7617,21.2158 599.7617,23.3159 Q599.7617,25.4077 600.4465,26.4744 Q601.1313,27.541 602.476,27.541 Q603.1069,27.541 603.7004,27.2712 Q604.2939,27.0015 604.9247,26.4204 Z " fill="#000000"/><text fill="#000000" font-family="sans-serif" font-size="14" lengthAdjust="spacing" textLength="31.8691" x="622.9516" y="28.291">Tour</text><line style="stroke:#181818;stroke-width:0.5;" x1="555.06" x2="690.2123" y1="39" y2="39"/><g data-visibility-modifier="PUBLIC_FIELD"><ellipse cx="565.06" cy="52.7441" fill="none" rx="3" ry="3" style="stroke:#038048;stroke-width:1;"/></g><text fill="#000000" font-family="sans-serif" font-size="14" lengthAdjust="spacing" textLength="111.1523" x="574.06" y="56.5352">startDate: String</text><line style="stroke:#181818;stroke-width:0.5;" x1="555.06" x2="690.2123" y1="63.4883" y2="63.4883"/></g><!--reverse link Warehouse to StorageLocation--><g class="link" data-entity-1="ent0003" data-entity-2="ent0004" data-link-type="composition" data-source-line="59" id="lnk14"><path codeLine="59" d="M576.6556,618.4239 C554.5656,641.2539 533.21,663.31 511.15,686.11" fill="none" id="Warehouse-backto-StorageLocation" style="stroke:#181818;stroke-width:1;"/><polygon fill="#181818" points="585,609.8,577.9532,611.3305,576.6556,618.4239,583.7024,616.8934,585,609.8" style="stroke:#181818;stroke-width:1;stroke-linejoin:miter;stroke-miterlimit:10;"/><text fill="#000000" font-family="sans-serif" font-size="13" lengthAdjust="spacing" textLength="107.377" x="557.22" y="652.9584">storageLocations</text><text fill="#000000" font-family="sans-serif" font-size="13" lengthAdjust="spacing" textLength="8.2202" x="570.4178" y="630.0527">1</text><text fill="#000000" font-family="sans-serif" font-size="13" lengthAdjust="spacing" textLength="22.7119" x="493.2491" y="675.4554">0..*</text></g><!--reverse link Shipment to Package--><g class="link" data-entity-1="ent0005" data-entity-2="ent0006" data-link-type="composition" data-source-line="61" id="lnk15"><path codeLine="61" d="M385.2877,240.4914 C390.2677,250.1314 389.98,249.79 394.64,259.46 C404.57,280.07 408.63,284.68 415.64,306.46 C431.43,355.53 441.88,414.63 447.27,450.12" fill="none" id="Shipment-backto-Package" style="stroke:#181818;stroke-width:1;"/><polygon fill="#181818" points="379.78,229.83,378.98,236.9966,385.2877,240.4914,386.0876,233.3248,379.78,229.83" style="stroke:#181818;stroke-width:1;stroke-linejoin:miter;stroke-miterlimit:10;"/><text fill="#000000" font-family="sans-serif" font-size="13" lengthAdjust="spacing" textLength="58.7729" x="404.14" y="273.0284">packages</text><text fill="#000000" font-family="sans-serif" font-size="13" lengthAdjust="spacing" textLength="8.2202" x="374.5304" y="250.1292">1</text><text fill="#000000" font-family="sans-serif" font-size="13" lengthAdjust="spacing" textLength="22.7119" x="422.1746" y="439.4613">1..*</text></g><!--link Shipment to Trackable--><g class="link" data-entity-1="ent0005" data-entity-2="ent0001" data-link-type="extension" data-source-line="62" id="lnk16"><path codeLine="62" d="M302.81,229.76 C263.73,257.61 226.3671,284.2315 187.2571,312.1115" fill="none" id="Shipment-to-Trackable" style="stroke:#181818;stroke-width:1;stroke-dasharray:7,7;"/><polygon fill="none" points="172.6,322.56,190.7399,316.9972,183.7743,307.2259,172.6,322.56" style="stroke:#181818;stroke-width:1;stroke-linejoin:miter;stroke-miterlimit:10;"/></g><!--link Shipment to ShipmentStatus--><g class="link" data-entity-1="ent0005" data-entity-2="ent0002" data-link-type="association" data-source-line="63" id="lnk17"><path codeLine="63" d="M351.98,229.54 C348.17,252.21 343.32,281.05 339.12,306.06" fill="none" id="Shipment-ShipmentStatus" style="stroke:#181818;stroke-width:1;"/><text fill="#000000" font-family="sans-serif" font-size="13" lengthAdjust="spacing" textLength="38.2256" x="347.73" y="273.0284">status</text><text fill="#000000" font-family="sans-serif" font-size="13" lengthAdjust="spacing" textLength="8.2202" x="342.2339" y="250.0943">1</text><text fill="#000000" font-family="sans-serif" font-size="13" lengthAdjust="spacing" textLength="24.667" x="314.8541" y="295.7405">0..1</text></g><!--link Package to StorageLocation--><g class="link" data-entity-1="ent0006" data-entity-2="ent0004" data-link-type="association" data-source-line="65" id="lnk18"><path codeLine="65" d="M455.55,515.21 C461.1,560 471.2,641.5 476.74,686.21" fill="none" id="Package-StorageLocation" style="stroke:#181818;stroke-width:1;"/><text fill="#000000" font-family="sans-serif" font-size="13" lengthAdjust="spacing" textLength="71.9951" x="467.76" y="582.2184">assignedTo</text><text fill="#000000" font-family="sans-serif" font-size="13" lengthAdjust="spacing" textLength="22.7119" x="432.2675" y="535.4417">0..*</text><text fill="#000000" font-family="sans-serif" font-size="13" lengthAdjust="spacing" textLength="24.667" x="449.5311" y="675.576">0..1</text></g><!--reverse link Route to Segment--><g class="link" data-entity-1="ent0007" data-entity-2="ent0008" data-link-type="composition" data-source-line="67" id="lnk19"><path codeLine="67" d="M564.4447,233.3707 C570.7347,264.3907 577.9,299.66 584.2,330.71" fill="none" id="Route-backto-Segment" style="stroke:#181818;stroke-width:1;"/><polygon fill="#181818" points="562.06,221.61,559.3321,228.2852,564.4447,233.3707,567.1726,226.6954,562.06,221.61" style="stroke:#181818;stroke-width:1;stroke-linejoin:miter;stroke-miterlimit:10;"/><text fill="#000000" font-family="sans-serif" font-size="13" lengthAdjust="spacing" textLength="60.9121" x="574.14" y="273.0284">segments</text><text fill="#000000" font-family="sans-serif" font-size="13" lengthAdjust="spacing" textLength="8.2202" x="554.5424" y="241.8589">1</text><text fill="#000000" font-family="sans-serif" font-size="13" lengthAdjust="spacing" textLength="22.7119" x="558.8371" y="320.3898">1..*</text></g><!--link Segment to Warehouse--><g class="link" data-entity-1="ent0008" data-entity-2="ent0003" data-link-type="dependency" data-source-line="68" id="lnk20"><path codeLine="68" d="M573.91,396.14 C559.86,427.21 544.34,475.5 559.64,514.9 C563.86,525.78 567.6926,532.1779 575.5026,540.9379" fill="none" id="Segment-to-Warehouse" style="stroke:#181818;stroke-width:1;"/><polygon fill="#181818" points="578.83,544.67,575.8264,535.2903,575.5026,540.9379,569.8551,540.6141,578.83,544.67" style="stroke:#181818;stroke-width:1;stroke-linejoin:miter;stroke-miterlimit:10;"/><text fill="#000000" font-family="sans-serif" font-size="13" lengthAdjust="spacing" textLength="41.9009" x="560.64" y="487.7284">source</text><text fill="#000000" font-family="sans-serif" font-size="13" lengthAdjust="spacing" textLength="22.7119" x="546.8634" y="416.1499">0..*</text><text fill="#000000" font-family="sans-serif" font-size="13" lengthAdjust="spacing" textLength="8.2202" x="562.4357" y="534.0257">1</text></g><!--link Segment to Warehouse--><g class="link" data-entity-1="ent0008" data-entity-2="ent0003" data-link-type="dependency" data-source-line="69" id="lnk21"><path codeLine="69" d="M597.42,396.15 C600.65,412.32 604.32,432.34 606.64,450.42 C610.73,482.32 612.8412,514.0462 614.1112,539.5362" fill="none" id="Segment-to-Warehouse-1" style="stroke:#181818;stroke-width:1;"/><polygon fill="#181818" points="614.36,544.53,617.9072,535.3421,614.1112,539.5362,609.9171,535.7402,614.36,544.53" style="stroke:#181818;stroke-width:1;stroke-linejoin:miter;stroke-miterlimit:10;"/><text fill="#000000" font-family="sans-serif" font-size="13" lengthAdjust="spacing" textLength="70.5923" x="613.45" y="487.7284">destination</text><text fill="#000000" font-family="sans-serif" font-size="13" lengthAdjust="spacing" textLength="22.7119" x="574.7081" y="416.1618">0..*</text><text fill="#000000" font-family="sans-serif" font-size="13" lengthAdjust="spacing" textLength="8.2202" x="605.3423" y="534.2315">1</text></g><!--link Truck to Vehicle--><g class="link" data-entity-1="ent0010" data-entity-2="ent0009" data-link-type="extension" data-source-line="71" id="lnk22"><path codeLine="71" d="M865.92,71.93 C866.94,96.86 867.6108,113.4348 868.6208,138.3448" fill="none" id="Truck-to-Vehicle" style="stroke:#181818;stroke-width:1;"/><polygon fill="none" points="869.35,156.33,874.6158,138.1017,862.6257,138.5879,869.35,156.33" style="stroke:#181818;stroke-width:1;stroke-linejoin:miter;stroke-miterlimit:10;"/></g><!--link Van to Vehicle--><g class="link" data-entity-1="ent0011" data-entity-2="ent0009" data-link-type="extension" data-source-line="72" id="lnk23"><path codeLine="72" d="M1030.87,71.93 C996.45,96.86 963.309,120.8629 928.909,145.7729" fill="none" id="Van-to-Vehicle" style="stroke:#181818;stroke-width:1;"/><polygon fill="none" points="914.33,156.33,932.4281,150.6326,925.39,140.9132,914.33,156.33" style="stroke:#181818;stroke-width:1;stroke-linejoin:miter;stroke-miterlimit:10;"/></g><!--link Tour to Vehicle--><g class="link" data-entity-1="ent0013" data-entity-2="ent0009" data-link-type="association" data-source-line="74" id="lnk24"><path codeLine="74" d="M675.84,71.93 C717.68,96.86 775.7,131.42 817.52,156.33" fill="none" id="Tour-Vehicle" style="stroke:#181818;stroke-width:1;"/><text fill="#000000" font-family="sans-serif" font-size="13" lengthAdjust="spacing" textLength="43.4561" x="747.64" y="115.0584">vehicle</text><text fill="#000000" font-family="sans-serif" font-size="13" lengthAdjust="spacing" textLength="22.7119" x="661.687" y="91.9363">0..*</text><text fill="#000000" font-family="sans-serif" font-size="13" lengthAdjust="spacing" textLength="8.2202" x="798.297" y="146.0256">1</text></g><!--link Tour to Driver--><g class="link" data-entity-1="ent0013" data-entity-2="ent0012" data-link-type="association" data-source-line="75" id="lnk25"><path codeLine="75" d="M639.8,71.93 C653.3,96.86 672.01,131.42 685.5,156.33" fill="none" id="Tour-Driver" style="stroke:#181818;stroke-width:1;"/><text fill="#000000" font-family="sans-serif" font-size="13" lengthAdjust="spacing" textLength="36.5498" x="663.64" y="115.0584">driver</text><text fill="#000000" font-family="sans-serif" font-size="13" lengthAdjust="spacing" textLength="22.7119" x="619.0021" y="91.9363">0..*</text><text fill="#000000" font-family="sans-serif" font-size="13" lengthAdjust="spacing" textLength="8.2202" x="673.3598" y="146.0256">1</text></g><!--link Tour to Route--><g class="link" data-entity-1="ent0013" data-entity-2="ent0007" data-link-type="association" data-source-line="76" id="lnk26"><path codeLine="76" d="M608.26,71.93 C596.96,96.86 581.28,131.42 569.99,156.33" fill="none" id="Tour-Route" style="stroke:#181818;stroke-width:1;"/><text fill="#000000" font-family="sans-serif" font-size="13" lengthAdjust="spacing" textLength="33.4775" x="594.15" y="115.0584">route</text><text fill="#000000" font-family="sans-serif" font-size="13" lengthAdjust="spacing" textLength="22.7119" x="581.6469" y="91.9363">0..*</text><text fill="#000000" font-family="sans-serif" font-size="13" lengthAdjust="spacing" textLength="8.2202" x="564.0494" y="146.0256">1</text></g><!--link Tour to Shipment--><g class="link" data-entity-1="ent0013" data-entity-2="ent0005" data-link-type="association" data-source-line="77" id="lnk27"><path codeLine="77" d="M566,71.93 C526.16,94.23 472.53,124.24 429.79,148.15" fill="none" id="Tour-Shipment" style="stroke:#181818;stroke-width:1;"/><text fill="#000000" font-family="sans-serif" font-size="13" lengthAdjust="spacing" textLength="48.8579" x="507.44" y="115.0584">delivers</text><text fill="#000000" font-family="sans-serif" font-size="13" lengthAdjust="spacing" textLength="8.2202" x="546.8405" y="91.9363">1</text><text fill="#000000" font-family="sans-serif" font-size="13" lengthAdjust="spacing" textLength="22.7119" x="417.8125" y="137.7397">0..*</text></g><?plantuml-src ZLDDJyCm3BtdLqGxmL0dTkq12R7B98GcLerpbfekMfUKVEm2_7VS96ssjfeurNMVdv_zN24jw4_6WHQQyIFRrq2_2QKF5LYV4R9wSwSzwBlxd6wjnlVuUMkPTSQd3w8vWOmPyai8I7SQf3tjC-VGM2WnNCiFfk6Wd07_Xjsa4HRZ5TJY31fHoCHhPWpjeK6SP2VerVIWhLMQLV2gEBD2oG3bgfo2Hca1Owy6lHpJUEbJ4mQUJRkpAgeIvRZHktBsjcYeaX03NmuaXqx8MjeMoVQcbMXfADd1GV3Efrfma0OsDRCJx8Ls_DWFAMhGByerDMB6s1thLiPqfNQgTgtUbN9u4mcrqgqtjoOgb8lVSNlQhWR2afMpvOpEiupE7XUB-MnaNqxDTSOGqllMrovzRUT3JfiGcGHTB7wUqdLVKyJk60sEjMtkhIOTTLHvKJ7IYzEBIa9PA4A2yGEPdTd87YAK6LCz_PClIbj2B2wKmt-G9HWhf9T3IF0-ot3wU36ajVWgGRnP5wCXONTUEJr7r0GedW6szC4K96mWfxfzHa1Q-Jojt0ltlxmXVm00?></g></svg>