<svg xmlns="http://www.w3.org/2000/svg" xmlns:xlink="http://www.w3.org/1999/xlink" contentStyleType="text/css" data-diagram-type="CLASS" height="394px" preserveAspectRatio="none" style="width:2775px;height:394px;background:#FFFFFF;" version="1.1" viewBox="0 0 2775 394" width="2775px" zoomAndPan="magnify"><?plantuml 1.2026.6?><defs/><g><!--class PerceptionSensor--><g class="entity" data-qualified-name="PerceptionSensor" data-source-line="3" id="ent0001"><rect fill="#F1F1F1" height="48" rx="2.5" ry="2.5" style="stroke:#181818;stroke-width:0.5;" width="153.543" x="234.48" y="331"/><ellipse cx="249.48" cy="347" fill="#A9DCDF" rx="11" ry="11" style="stroke:#181818;stroke-width:1;"/><path d="M249.3433,342.3481 L248.1895,347.4199 L250.5054,347.4199 Z M247.8491,340.1069 L250.8457,340.1069 L254.1909,352.5 L251.7422,352.5 L250.9785,349.437 L247.6997,349.437 L246.9527,352.5 L244.5039,352.5 Z " fill="#000000"/><text fill="#000000" font-family="sans-serif" font-size="14" font-style="italic" lengthAdjust="spacing" textLength="121.543" x="263.48" y="352.291">Perception Sensor</text><line style="stroke:#181818;stroke-width:0.5;" x1="235.48" x2="387.023" y1="363" y2="363"/><line style="stroke:#181818;stroke-width:0.5;" x1="235.48" x2="387.023" y1="371" y2="371"/></g><!--class AVSystem--><g class="entity" data-qualified-name="AVSystem" data-source-line="5" id="ent0002"><rect fill="#F1F1F1" height="48" rx="2.5" ry="2.5" style="stroke:#181818;stroke-width:0.5;" width="224.6299" x="1300.94" y="7"/><ellipse cx="1315.94" cy="23" fill="#ADD1B2" rx="11" ry="11" style="stroke:#181818;stroke-width:1;"/><path d="M1318.4131,29.1431 Q1317.8321,29.4419 1317.1929,29.5913 Q1316.5538,29.7407 1315.8482,29.7407 Q1313.3414,29.7407 1312.0215,28.0889 Q1310.7017,26.437 1310.7017,23.3159 Q1310.7017,20.1865 1312.0215,18.5347 Q1313.3414,16.8828 1315.8482,16.8828 Q1316.5538,16.8828 1317.2012,17.0322 Q1317.8487,17.1816 1318.4131,17.4805 L1318.4131,20.2031 Q1317.7823,19.6221 1317.1888,19.3523 Q1316.5953,19.0825 1315.9644,19.0825 Q1314.6197,19.0825 1313.9349,20.1492 Q1313.2501,21.2158 1313.2501,23.3159 Q1313.2501,25.4077 1313.9349,26.4744 Q1314.6197,27.541 1315.9644,27.541 Q1316.5953,27.541 1317.1888,27.2712 Q1317.7823,27.0015 1318.4131,26.4204 Z " fill="#000000"/><text fill="#000000" font-family="sans-serif" font-size="14" lengthAdjust="spacing" textLength="192.6299" x="1329.94" y="28.291">Autonomous Vehicle System</text><line style="stroke:#181818;stroke-width:0.5;" x1="1301.94" x2="1524.5699" y1="39" y2="39"/><line style="stroke:#181818;stroke-width:0.5;" x1="1301.94" x2="1524.5699" y1="47" y2="47"/></g><!--class Perception--><g class="entity" data-qualified-name="Perception" data-source-line="6" id="ent0003"><rect fill="#F1F1F1" height="48" rx="2.5" ry="2.5" style="stroke:#181818;stroke-width:0.5;" width="103.6201" x="335.44" y="115"/><ellipse cx="350.44" cy="131" fill="#ADD1B2" rx="11" ry="11" style="stroke:#181818;stroke-width:1;"/><path d="M352.9131,137.1431 Q352.3321,137.4419 351.6929,137.5913 Q351.0538,137.7407 350.3482,137.7407 Q347.8414,137.7407 346.5215,136.0889 Q345.2017,134.437 345.2017,131.3159 Q345.2017,128.1865 346.5215,126.5347 Q347.8414,124.8828 350.3482,124.8828 Q351.0538,124.8828 351.7012,125.0322 Q352.3487,125.1816 352.9131,125.4805 L352.9131,128.2031 Q352.2823,127.6221 351.6888,127.3523 Q351.0953,127.0825 350.4644,127.0825 Q349.1197,127.0825 348.4349,128.1492 Q347.7501,129.2158 347.7501,131.3159 Q347.7501,133.4077 348.4349,134.4744 Q349.1197,135.541 350.4644,135.541 Q351.0953,135.541 351.6888,135.2712 Q352.2823,135.0015 352.9131,134.4204 Z " fill="#000000"/><text fill="#000000" font-family="sans-serif" font-size="14" lengthAdjust="spacing" textLength="71.6201" x="364.44" y="136.291">Perception</text><line style="stroke:#181818;stroke-width:0.5;" x1="336.44" x2="438.0601" y1="147" y2="147"/><line style="stroke:#181818;stroke-width:0.5;" x1="336.44" x2="438.0601" y1="155" y2="155"/></g><!--class ProcessingPlatform--><g class="entity" data-qualified-name="ProcessingPlatform" data-source-line="7" id="ent0004"><rect fill="#F1F1F1" height="48" rx="2.5" ry="2.5" style="stroke:#181818;stroke-width:0.5;" width="166.5039" x="786" y="115"/><ellipse cx="801" cy="131" fill="#ADD1B2" rx="11" ry="11" style="stroke:#181818;stroke-width:1;"/><path d="M803.4731,137.1431 Q802.8921,137.4419 802.2529,137.5913 Q801.6138,137.7407 800.9082,137.7407 Q798.4014,137.7407 797.0815,136.0889 Q795.7617,134.437 795.7617,131.3159 Q795.7617,128.1865 797.0815,126.5347 Q798.4014,124.8828 800.9082,124.8828 Q801.6138,124.8828 802.2612,125.0322 Q802.9087,125.1816 803.4731,125.4805 L803.4731,128.2031 Q802.8423,127.6221 802.2488,127.3523 Q801.6553,127.0825 801.0244,127.0825 Q799.6797,127.0825 798.9949,128.1492 Q798.3101,129.2158 798.3101,131.3159 Q798.3101,133.4077 798.9949,134.4744 Q799.6797,135.541 801.0244,135.541 Q801.6553,135.541 802.2488,135.2712 Q802.8423,135.0015 803.4731,134.4204 Z " fill="#000000"/><text fill="#000000" font-family="sans-serif" font-size="14" lengthAdjust="spacing" textLength="134.5039" x="815" y="136.291">Processing Platform</text><line style="stroke:#181818;stroke-width:0.5;" x1="787" x2="951.5039" y1="147" y2="147"/><line style="stroke:#181818;stroke-width:0.5;" x1="787" x2="951.5039" y1="155" y2="155"/></g><!--class LocalizationMapping--><g class="entity" data-qualified-name="LocalizationMapping" data-source-line="8" id="ent0005"><rect fill="#F1F1F1" height="48" rx="2.5" ry="2.5" style="stroke:#181818;stroke-width:0.5;" width="206.3574" x="1182.07" y="115"/><ellipse cx="1197.07" cy="131" fill="#ADD1B2" rx="11" ry="11" style="stroke:#181818;stroke-width:1;"/><path d="M1199.5431,137.1431 Q1198.9621,137.4419 1198.3229,137.5913 Q1197.6838,137.7407 1196.9782,137.7407 Q1194.4714,137.7407 1193.1515,136.0889 Q1191.8317,134.437 1191.8317,131.3159 Q1191.8317,128.1865 1193.1515,126.5347 Q1194.4714,124.8828 1196.9782,124.8828 Q1197.6838,124.8828 1198.3312,125.0322 Q1198.9787,125.1816 1199.5431,125.4805 L1199.5431,128.2031 Q1198.9123,127.6221 1198.3188,127.3523 Q1197.7253,127.0825 1197.0944,127.0825 Q1195.7497,127.0825 1195.0649,128.1492 Q1194.3801,129.2158 1194.3801,131.3159 Q1194.3801,133.4077 1195.0649,134.4744 Q1195.7497,135.541 1197.0944,135.541 Q1197.7253,135.541 1198.3188,135.2712 Q1198.9123,135.0015 1199.5431,134.4204 Z " fill="#000000"/><text fill="#000000" font-family="sans-serif" font-size="14" lengthAdjust="spacing" textLength="174.3574" x="1211.07" y="136.291">Localization and Mapping</text><line style="stroke:#181818;stroke-width:0.5;" x1="1183.07" x2="1387.4274" y1="147" y2="147"/><line style="stroke:#181818;stroke-width:0.5;" x1="1183.07" x2="1387.4274" y1="155" y2="155"/></g><!--class DrivingDecisionPlanning--><g class="entity" data-qualified-name="DrivingDecisionPlanning" data-source-line="9" id="ent0006"><rect fill="#F1F1F1" height="48" rx="2.5" ry="2.5" style="stroke:#181818;stroke-width:0.5;" width="235.8271" x="1423.34" y="115"/><ellipse cx="1438.34" cy="131" fill="#ADD1B2" rx="11" ry="11" style="stroke:#181818;stroke-width:1;"/><path d="M1440.8131,137.1431 Q1440.2321,137.4419 1439.5929,137.5913 Q1438.9538,137.7407 1438.2482,137.7407 Q1435.7414,137.7407 1434.4215,136.0889 Q1433.1017,134.437 1433.1017,131.3159 Q1433.1017,128.1865 1434.4215,126.5347 Q1435.7414,124.8828 1438.2482,124.8828 Q1438.9538,124.8828 1439.6012,125.0322 Q1440.2487,125.1816 1440.8131,125.4805 L1440.8131,128.2031 Q1440.1823,127.6221 1439.5888,127.3523 Q1438.9953,127.0825 1438.3644,127.0825 Q1437.0197,127.0825 1436.3349,128.1492 Q1435.6501,129.2158 1435.6501,131.3159 Q1435.6501,133.4077 1436.3349,134.4744 Q1437.0197,135.541 1438.3644,135.541 Q1438.9953,135.541 1439.5888,135.2712 Q1440.1823,135.0015 1440.8131,134.4204 Z " fill="#000000"/><text fill="#000000" font-family="sans-serif" font-size="14" lengthAdjust="spacing" textLength="203.8271" x="1452.34" y="136.291">Driving Decision and Planning</text><line style="stroke:#181818;stroke-width:0.5;" x1="1424.34" x2="1658.1671" y1="147" y2="147"/><line style="stroke:#181818;stroke-width:0.5;" x1="1424.34" x2="1658.1671" y1="155" y2="155"/></g><!--class VehicleControl--><g class="entity" data-qualified-name="VehicleControl" data-source-line="10" id="ent0007"><rect fill="#F1F1F1" height="48" rx="2.5" ry="2.5" style="stroke:#181818;stroke-width:0.5;" width="135.7217" x="2012.39" y="115"/><ellipse cx="2027.39" cy="131" fill="#ADD1B2" rx="11" ry="11" style="stroke:#181818;stroke-width:1;"/><path d="M2029.8631,137.1431 Q2029.2821,137.4419 2028.6429,137.5913 Q2028.0038,137.7407 2027.2982,137.7407 Q2024.7914,137.7407 2023.4715,136.0889 Q2022.1517,134.437 2022.1517,131.3159 Q2022.1517,128.1865 2023.4715,126.5347 Q2024.7914,124.8828 2027.2982,124.8828 Q2028.0038,124.8828 2028.6512,125.0322 Q2029.2987,125.1816 2029.8631,125.4805 L2029.8631,128.2031 Q2029.2323,127.6221 2028.6388,127.3523 Q2028.0453,127.0825 2027.4144,127.0825 Q2026.0697,127.0825 2025.3849,128.1492 Q2024.7001,129.2158 2024.7001,131.3159 Q2024.7001,133.4077 2025.3849,134.4744 Q2026.0697,135.541 2027.4144,135.541 Q2028.0453,135.541 2028.6388,135.2712 Q2029.2323,135.0015 2029.8631,134.4204 Z " fill="#000000"/><text fill="#000000" font-family="sans-serif" font-size="14" lengthAdjust="spacing" textLength="103.7217" x="2041.39" y="136.291">Vehicle Control</text><line style="stroke:#181818;stroke-width:0.5;" x1="2013.39" x2="2147.1117" y1="147" y2="147"/><line style="stroke:#181818;stroke-width:0.5;" x1="2013.39" x2="2147.1117" y1="155" y2="155"/></g><!--class Communication--><g class="entity" data-qualified-name="Communication" data-source-line="11" id="ent0008"><rect fill="#F1F1F1" height="48" rx="2.5" ry="2.5" style="stroke:#181818;stroke-width:0.5;" width="139.3242" x="2440.59" y="115"/><ellipse cx="2455.59" cy="131" fill="#ADD1B2" rx="11" ry="11" style="stroke:#181818;stroke-width:1;"/><path d="M2458.0631,137.1431 Q2457.4821,137.4419 2456.8429,137.5913 Q2456.2038,137.7407 2455.4982,137.7407 Q2452.9914,137.7407 2451.6715,136.0889 Q2450.3517,134.437 2450.3517,131.3159 Q2450.3517,128.1865 2451.6715,126.5347 Q2452.9914,124.8828 2455.4982,124.8828 Q2456.2038,124.8828 2456.8512,125.0322 Q2457.4987,125.1816 2458.0631,125.4805 L2458.0631,128.2031 Q2457.4323,127.6221 2456.8388,127.3523 Q2456.2453,127.0825 2455.6144,127.0825 Q2454.2697,127.0825 2453.5849,128.1492 Q2452.9001,129.2158 2452.9001,131.3159 Q2452.9001,133.4077 2453.5849,134.4744 Q2454.2697,135.541 2455.6144,135.541 Q2456.2453,135.541 2456.8388,135.2712 Q2457.4323,135.0015 2458.0631,134.4204 Z " fill="#000000"/><text fill="#000000" font-family="sans-serif" font-size="14" lengthAdjust="spacing" textLength="107.3242" x="2469.59" y="136.291">Communication</text><line style="stroke:#181818;stroke-width:0.5;" x1="2441.59" x2="2578.9142" y1="147" y2="147"/><line style="stroke:#181818;stroke-width:0.5;" x1="2441.59" x2="2578.9142" y1="155" y2="155"/></g><!--class CameraCluster--><g class="entity" data-qualified-name="CameraCluster" data-source-line="13" id="ent0009"><rect fill="#F1F1F1" height="48" rx="2.5" ry="2.5" style="stroke:#181818;stroke-width:0.5;" width="136.501" x="7" y="223"/><ellipse cx="22" cy="239" fill="#ADD1B2" rx="11" ry="11" style="stroke:#181818;stroke-width:1;"/><path d="M24.4731,245.1431 Q23.8921,245.4419 23.2529,245.5913 Q22.6138,245.7407 21.9082,245.7407 Q19.4014,245.7407 18.0815,244.0889 Q16.7617,242.437 16.7617,239.3159 Q16.7617,236.1865 18.0815,234.5347 Q19.4014,232.8828 21.9082,232.8828 Q22.6138,232.8828 23.2612,233.0322 Q23.9087,233.1816 24.4731,233.4805 L24.4731,236.2031 Q23.8423,235.6221 23.2488,235.3523 Q22.6553,235.0825 22.0244,235.0825 Q20.6797,235.0825 19.9949,236.1492 Q19.3101,237.2158 19.3101,239.3159 Q19.3101,241.4077 19.9949,242.4744 Q20.6797,243.541 22.0244,243.541 Q22.6553,243.541 23.2488,243.2712 Q23.8423,243.0015 24.4731,242.4204 Z " fill="#000000"/><text fill="#000000" font-family="sans-serif" font-size="14" lengthAdjust="spacing" textLength="104.501" x="36" y="244.291">Camera Cluster</text><line style="stroke:#181818;stroke-width:0.5;" x1="8" x2="142.501" y1="255" y2="255"/><line style="stroke:#181818;stroke-width:0.5;" x1="8" x2="142.501" y1="263" y2="263"/></g><!--class RadarArray--><g class="entity" data-qualified-name="RadarArray" data-source-line="14" id="ent0010"><rect fill="#F1F1F1" height="48" rx="2.5" ry="2.5" style="stroke:#181818;stroke-width:0.5;" width="111.4473" x="178.53" y="223"/><ellipse cx="193.53" cy="239" fill="#ADD1B2" rx="11" ry="11" style="stroke:#181818;stroke-width:1;"/><path d="M196.0031,245.1431 Q195.4221,245.4419 194.7829,245.5913 Q194.1438,245.7407 193.4382,245.7407 Q190.9314,245.7407 189.6115,244.0889 Q188.2917,242.437 188.2917,239.3159 Q188.2917,236.1865 189.6115,234.5347 Q190.9314,232.8828 193.4382,232.8828 Q194.1438,232.8828 194.7912,233.0322 Q195.4387,233.1816 196.0031,233.4805 L196.0031,236.2031 Q195.3723,235.6221 194.7788,235.3523 Q194.1853,235.0825 193.5544,235.0825 Q192.2097,235.0825 191.5249,236.1492 Q190.8401,237.2158 190.8401,239.3159 Q190.8401,241.4077 191.5249,242.4744 Q192.2097,243.541 193.5544,243.541 Q194.1853,243.541 194.7788,243.2712 Q195.3723,243.0015 196.0031,242.4204 Z " fill="#000000"/><text fill="#000000" font-family="sans-serif" font-size="14" lengthAdjust="spacing" textLength="79.4473" x="207.53" y="244.291">Radar Array</text><line style="stroke:#181818;stroke-width:0.5;" x1="179.53" x2="288.9773" y1="255" y2="255"/><line style="stroke:#181818;stroke-width:0.5;" x1="179.53" x2="288.9773" y1="263" y2="263"/></g><!--class LidarScanner--><g class="entity" data-qualified-name="LidarScanner" data-source-line="15" id="ent0011"><rect fill="#F1F1F1" height="48" rx="2.5" ry="2.5" style="stroke:#181818;stroke-width:0.5;" width="123.5605" x="325.47" y="223"/><ellipse cx="340.47" cy="239" fill="#ADD1B2" rx="11" ry="11" style="stroke:#181818;stroke-width:1;"/><path d="M342.9431,245.1431 Q342.3621,245.4419 341.7229,245.5913 Q341.0838,245.7407 340.3782,245.7407 Q337.8714,245.7407 336.5515,244.0889 Q335.2317,242.437 335.2317,239.3159 Q335.2317,236.1865 336.5515,234.5347 Q337.8714,232.8828 340.3782,232.8828 Q341.0838,232.8828 341.7312,233.0322 Q342.3787,233.1816 342.9431,233.4805 L342.9431,236.2031 Q342.3123,235.6221 341.7188,235.3523 Q341.1253,235.0825 340.4944,235.0825 Q339.1497,235.0825 338.4649,236.1492 Q337.7801,237.2158 337.7801,239.3159 Q337.7801,241.4077 338.4649,242.4744 Q339.1497,243.541 340.4944,243.541 Q341.1253,243.541 341.7188,243.2712 Q342.3123,243.0015 342.9431,242.4204 Z " fill="#000000"/><text fill="#000000" font-family="sans-serif" font-size="14" lengthAdjust="spacing" textLength="91.5605" x="354.47" y="244.291">Lidar Scanner</text><line style="stroke:#181818;stroke-width:0.5;" x1="326.47" x2="448.0305" y1="255" y2="255"/><line style="stroke:#181818;stroke-width:0.5;" x1="326.47" x2="448.0305" y1="263" y2="263"/></g><!--class GpsIns--><g class="entity" data-qualified-name="GpsIns" data-source-line="16" id="ent0012"><rect fill="#F1F1F1" height="48" rx="2.5" ry="2.5" style="stroke:#181818;stroke-width:0.5;" width="86.6533" x="483.92" y="223"/><ellipse cx="498.92" cy="239" fill="#ADD1B2" rx="11" ry="11" style="stroke:#181818;stroke-width:1;"/><path d="M501.3931,245.1431 Q500.8121,245.4419 500.1729,245.5913 Q499.5338,245.7407 498.8282,245.7407 Q496.3214,245.7407 495.0015,244.0889 Q493.6817,242.437 493.6817,239.3159 Q493.6817,236.1865 495.0015,234.5347 Q496.3214,232.8828 498.8282,232.8828 Q499.5338,232.8828 500.1812,233.0322 Q500.8287,233.1816 501.3931,233.4805 L501.3931,236.2031 Q500.7623,235.6221 500.1688,235.3523 Q499.5753,235.0825 498.9444,235.0825 Q497.5997,235.0825 496.9149,236.1492 Q496.2301,237.2158 496.2301,239.3159 Q496.2301,241.4077 496.9149,242.4744 Q497.5997,243.541 498.9444,243.541 Q499.5753,243.541 500.1688,243.2712 Q500.7623,243.0015 501.3931,242.4204 Z " fill="#000000"/><text fill="#000000" font-family="sans-serif" font-size="14" lengthAdjust="spacing" textLength="54.6533" x="512.92" y="244.291">GPS/INS</text><line style="stroke:#181818;stroke-width:0.5;" x1="484.92" x2="569.5733" y1="255" y2="255"/><line style="stroke:#181818;stroke-width:0.5;" x1="484.92" x2="569.5733" y1="263" y2="263"/></g><!--class AVCompute--><g class="entity" data-qualified-name="AVCompute" data-source-line="18" id="ent0013"><rect fill="#F1F1F1" height="48" rx="2.5" ry="2.5" style="stroke:#181818;stroke-width:0.5;" width="117.1348" x="605.68" y="223"/><ellipse cx="620.68" cy="239" fill="#ADD1B2" rx="11" ry="11" style="stroke:#181818;stroke-width:1;"/><path d="M623.1531,245.1431 Q622.5721,245.4419 621.9329,245.5913 Q621.2938,245.7407 620.5882,245.7407 Q618.0814,245.7407 616.7615,244.0889 Q615.4417,242.437 615.4417,239.3159 Q615.4417,236.1865 616.7615,234.5347 Q618.0814,232.8828 620.5882,232.8828 Q621.2938,232.8828 621.9412,233.0322 Q622.5887,233.1816 623.1531,233.4805 L623.1531,236.2031 Q622.5223,235.6221 621.9288,235.3523 Q621.3353,235.0825 620.7044,235.0825 Q619.3597,235.0825 618.6749,236.1492 Q617.9901,237.2158 617.9901,239.3159 Q617.9901,241.4077 618.6749,242.4744 Q619.3597,243.541 620.7044,243.541 Q621.3353,243.541 621.9288,243.2712 Q622.5223,243.0015 623.1531,242.4204 Z " fill="#000000"/><text fill="#000000" font-family="sans-serif" font-size="14" lengthAdjust="spacing" textLength="85.1348" x="634.68" y="244.291">AV Compute</text><line style="stroke:#181818;stroke-width:0.5;" x1="606.68" x2="721.8148" y1="255" y2="255"/><line style="stroke:#181818;stroke-width:0.5;" x1="606.68" x2="721.8148" y1="263" y2="263"/></g><!--class GPU--><g class="entity" data-qualified-name="GPU" data-source-line="19" id="ent0014"><rect fill="#F1F1F1" height="48" rx="2.5" ry="2.5" style="stroke:#181818;stroke-width:0.5;" width="59.5557" x="540.47" y="331"/><ellipse cx="555.47" cy="347" fill="#ADD1B2" rx="11" ry="11" style="stroke:#181818;stroke-width:1;"/><path d="M557.9431,353.1431 Q557.3621,353.4419 556.7229,353.5913 Q556.0838,353.7407 555.3782,353.7407 Q552.8714,353.7407 551.5515,352.0889 Q550.2317,350.437 550.2317,347.3159 Q550.2317,344.1865 551.5515,342.5347 Q552.8714,340.8828 555.3782,340.8828 Q556.0838,340.8828 556.7312,341.0322 Q557.3787,341.1816 557.9431,341.4805 L557.9431,344.2031 Q557.3123,343.6221 556.7188,343.3523 Q556.1253,343.0825 555.4944,343.0825 Q554.1497,343.0825 553.4649,344.1492 Q552.7801,345.2158 552.7801,347.3159 Q552.7801,349.4077 553.4649,350.4744 Q554.1497,351.541 555.4944,351.541 Q556.1253,351.541 556.7188,351.2712 Q557.3123,351.0015 557.9431,350.4204 Z " fill="#000000"/><text fill="#000000" font-family="sans-serif" font-size="14" lengthAdjust="spacing" textLength="27.5557" x="569.47" y="352.291">GPU</text><line style="stroke:#181818;stroke-width:0.5;" x1="541.47" x2="599.0257" y1="363" y2="363"/><line style="stroke:#181818;stroke-width:0.5;" x1="541.47" x2="599.0257" y1="371" y2="371"/></g><!--class CPU--><g class="entity" data-qualified-name="CPU" data-source-line="20" id="ent0015"><rect fill="#F1F1F1" height="48" rx="2.5" ry="2.5" style="stroke:#181818;stroke-width:0.5;" width="59.125" x="634.69" y="331"/><ellipse cx="649.69" cy="347" fill="#ADD1B2" rx="11" ry="11" style="stroke:#181818;stroke-width:1;"/><path d="M652.1631,353.1431 Q651.5821,353.4419 650.9429,353.5913 Q650.3038,353.7407 649.5982,353.7407 Q647.0914,353.7407 645.7715,352.0889 Q644.4517,350.437 644.4517,347.3159 Q644.4517,344.1865 645.7715,342.5347 Q647.0914,340.8828 649.5982,340.8828 Q650.3038,340.8828 650.9512,341.0322 Q651.5987,341.1816 652.1631,341.4805 L652.1631,344.2031 Q651.5323,343.6221 650.9388,343.3523 Q650.3453,343.0825 649.7144,343.0825 Q648.3697,343.0825 647.6849,344.1492 Q647.0001,345.2158 647.0001,347.3159 Q647.0001,349.4077 647.6849,350.4744 Q648.3697,351.541 649.7144,351.541 Q650.3453,351.541 650.9388,351.2712 Q651.5323,351.0015 652.1631,350.4204 Z " fill="#000000"/><text fill="#000000" font-family="sans-serif" font-size="14" lengthAdjust="spacing" textLength="27.125" x="663.69" y="352.291">CPU</text><line style="stroke:#181818;stroke-width:0.5;" x1="635.69" x2="692.815" y1="363" y2="363"/><line style="stroke:#181818;stroke-width:0.5;" x1="635.69" x2="692.815" y1="371" y2="371"/></g><!--class DRAM--><g class="entity" data-qualified-name="DRAM" data-source-line="21" id="ent0016"><rect fill="#F1F1F1" height="48" rx="2.5" ry="2.5" style="stroke:#181818;stroke-width:0.5;" width="73.0566" x="728.72" y="331"/><ellipse cx="743.72" cy="347" fill="#ADD1B2" rx="11" ry="11" style="stroke:#181818;stroke-width:1;"/><path d="M746.1931,353.1431 Q745.6121,353.4419 744.9729,353.5913 Q744.3338,353.7407 743.6282,353.7407 Q741.1214,353.7407 739.8015,352.0889 Q738.4817,350.437 738.4817,347.3159 Q738.4817,344.1865 739.8015,342.5347 Q741.1214,340.8828 743.6282,340.8828 Q744.3338,340.8828 744.9812,341.0322 Q745.6287,341.1816 746.1931,341.4805 L746.1931,344.2031 Q745.5623,343.6221 744.9688,343.3523 Q744.3753,343.0825 743.7444,343.0825 Q742.3997,343.0825 741.7149,344.1492 Q741.0301,345.2158 741.0301,347.3159 Q741.0301,349.4077 741.7149,350.4744 Q742.3997,351.541 743.7444,351.541 Q744.3753,351.541 744.9688,351.2712 Q745.5623,351.0015 746.1931,350.4204 Z " fill="#000000"/><text fill="#000000" font-family="sans-serif" font-size="14" lengthAdjust="spacing" textLength="41.0566" x="757.72" y="352.291">DRAM</text><line style="stroke:#181818;stroke-width:0.5;" x1="729.72" x2="800.7766" y1="363" y2="363"/><line style="stroke:#181818;stroke-width:0.5;" x1="729.72" x2="800.7766" y1="371" y2="371"/></g><!--class SafetyMonitoringComputer--><g class="entity" data-qualified-name="SafetyMonitoringComputer" data-source-line="22" id="ent0017"><rect fill="#F1F1F1" height="48" rx="2.5" ry="2.5" style="stroke:#181818;stroke-width:0.5;" width="223.6729" x="757.41" y="223"/><ellipse cx="772.41" cy="239" fill="#ADD1B2" rx="11" ry="11" style="stroke:#181818;stroke-width:1;"/><path d="M774.8831,245.1431 Q774.3021,245.4419 773.6629,245.5913 Q773.0238,245.7407 772.3182,245.7407 Q769.8114,245.7407 768.4915,244.0889 Q767.1717,242.437 767.1717,239.3159 Q767.1717,236.1865 768.4915,234.5347 Q769.8114,232.8828 772.3182,232.8828 Q773.0238,232.8828 773.6712,233.0322 Q774.3187,233.1816 774.8831,233.4805 L774.8831,236.2031 Q774.2523,235.6221 773.6588,235.3523 Q773.0653,235.0825 772.4344,235.0825 Q771.0897,235.0825 770.4049,236.1492 Q769.7201,237.2158 769.7201,239.3159 Q769.7201,241.4077 770.4049,242.4744 Q771.0897,243.541 772.4344,243.541 Q773.0653,243.541 773.6588,243.2712 Q774.2523,243.0015 774.8831,242.4204 Z " fill="#000000"/><text fill="#000000" font-family="sans-serif" font-size="14" lengthAdjust="spacing" textLength="191.6729" x="786.41" y="244.291">Safety Monitoring Computer</text><line style="stroke:#181818;stroke-width:0.5;" x1="758.41" x2="980.0829" y1="255" y2="255"/><line style="stroke:#181818;stroke-width:0.5;" x1="758.41" x2="980.0829" y1="263" y2="263"/></g><!--class HDMapUnit--><g class="entity" data-qualified-name="HDMapUnit" data-source-line="24" id="ent0018"><rect fill="#F1F1F1" height="48" rx="2.5" ry="2.5" style="stroke:#181818;stroke-width:0.5;" width="117.9072" x="1016.3" y="223"/><ellipse cx="1031.3" cy="239" fill="#ADD1B2" rx="11" ry="11" style="stroke:#181818;stroke-width:1;"/><path d="M1033.7731,245.1431 Q1033.1921,245.4419 1032.5529,245.5913 Q1031.9138,245.7407 1031.2082,245.7407 Q1028.7014,245.7407 1027.3815,244.0889 Q1026.0617,242.437 1026.0617,239.3159 Q1026.0617,236.1865 1027.3815,234.5347 Q1028.7014,232.8828 1031.2082,232.8828 Q1031.9138,232.8828 1032.5612,233.0322 Q1033.2087,233.1816 1033.7731,233.4805 L1033.7731,236.2031 Q1033.1423,235.6221 1032.5488,235.3523 Q1031.9553,235.0825 1031.3244,235.0825 Q1029.9797,235.0825 1029.2949,236.1492 Q1028.6101,237.2158 1028.6101,239.3159 Q1028.6101,241.4077 1029.2949,242.4744 Q1029.9797,243.541 1031.3244,243.541 Q1031.9553,243.541 1032.5488,243.2712 Q1033.1423,243.0015 1033.7731,242.4204 Z " fill="#000000"/><text fill="#000000" font-family="sans-serif" font-size="14" lengthAdjust="spacing" textLength="85.9072" x="1045.3" y="244.291">HD Map Unit</text><line style="stroke:#181818;stroke-width:0.5;" x1="1017.3" x2="1133.2072" y1="255" y2="255"/><line style="stroke:#181818;stroke-width:0.5;" x1="1017.3" x2="1133.2072" y1="263" y2="263"/></g><!--class RealTimeLocalizationModule--><g class="entity" data-qualified-name="RealTimeLocalizationModule" data-source-line="25" id="ent0019"><rect fill="#F1F1F1" height="48" rx="2.5" ry="2.5" style="stroke:#181818;stroke-width:0.5;" width="242.5537" x="1168.97" y="223"/><ellipse cx="1183.97" cy="239" fill="#ADD1B2" rx="11" ry="11" style="stroke:#181818;stroke-width:1;"/><path d="M1186.4431,245.1431 Q1185.8621,245.4419 1185.2229,245.5913 Q1184.5838,245.7407 1183.8782,245.7407 Q1181.3714,245.7407 1180.0515,244.0889 Q1178.7317,242.437 1178.7317,239.3159 Q1178.7317,236.1865 1180.0515,234.5347 Q1181.3714,232.8828 1183.8782,232.8828 Q1184.5838,232.8828 1185.2312,233.0322 Q1185.8787,233.1816 1186.4431,233.4805 L1186.4431,236.2031 Q1185.8123,235.6221 1185.2188,235.3523 Q1184.6253,235.0825 1183.9944,235.0825 Q1182.6497,235.0825 1181.9649,236.1492 Q1181.2801,237.2158 1181.2801,239.3159 Q1181.2801,241.4077 1181.9649,242.4744 Q1182.6497,243.541 1183.9944,243.541 Q1184.6253,243.541 1185.2188,243.2712 Q1185.8123,243.0015 1186.4431,242.4204 Z " fill="#000000"/><text fill="#000000" font-family="sans-serif" font-size="14" lengthAdjust="spacing" textLength="210.5537" x="1197.97" y="244.291">Real-Time Localization Module</text><line style="stroke:#181818;stroke-width:0.5;" x1="1169.97" x2="1410.5237" y1="255" y2="255"/><line style="stroke:#181818;stroke-width:0.5;" x1="1169.97" x2="1410.5237" y1="263" y2="263"/></g><!--class PathPlanningModule--><g class="entity" data-qualified-name="PathPlanningModule" data-source-line="27" id="ent0020"><rect fill="#F1F1F1" height="48" rx="2.5" ry="2.5" style="stroke:#181818;stroke-width:0.5;" width="178.6172" x="1446.94" y="223"/><ellipse cx="1461.94" cy="239" fill="#ADD1B2" rx="11" ry="11" style="stroke:#181818;stroke-width:1;"/><path d="M1464.4131,245.1431 Q1463.8321,245.4419 1463.1929,245.5913 Q1462.5538,245.7407 1461.8482,245.7407 Q1459.3414,245.7407 1458.0215,244.0889 Q1456.7017,242.437 1456.7017,239.3159 Q1456.7017,236.1865 1458.0215,234.5347 Q1459.3414,232.8828 1461.8482,232.8828 Q1462.5538,232.8828 1463.2012,233.0322 Q1463.8487,233.1816 1464.4131,233.4805 L1464.4131,236.2031 Q1463.7823,235.6221 1463.1888,235.3523 Q1462.5953,235.0825 1461.9644,235.0825 Q1460.6197,235.0825 1459.9349,236.1492 Q1459.2501,237.2158 1459.2501,239.3159 Q1459.2501,241.4077 1459.9349,242.4744 Q1460.6197,243.541 1461.9644,243.541 Q1462.5953,243.541 1463.1888,243.2712 Q1463.7823,243.0015 1464.4131,242.4204 Z " fill="#000000"/><text fill="#000000" font-family="sans-serif" font-size="14" lengthAdjust="spacing" textLength="146.6172" x="1475.94" y="244.291">Path Planning Module</text><line style="stroke:#181818;stroke-width:0.5;" x1="1447.94" x2="1624.5572" y1="255" y2="255"/><line style="stroke:#181818;stroke-width:0.5;" x1="1447.94" x2="1624.5572" y1="263" y2="263"/></g><!--class BehaviorDecisionModule--><g class="entity" data-qualified-name="BehaviorDecisionModule" data-source-line="28" id="ent0021"><rect fill="#F1F1F1" height="48" rx="2.5" ry="2.5" style="stroke:#181818;stroke-width:0.5;" width="206.7334" x="1660.88" y="223"/><ellipse cx="1675.88" cy="239" fill="#ADD1B2" rx="11" ry="11" style="stroke:#181818;stroke-width:1;"/><path d="M1678.3531,245.1431 Q1677.7721,245.4419 1677.1329,245.5913 Q1676.4938,245.7407 1675.7882,245.7407 Q1673.2814,245.7407 1671.9615,244.0889 Q1670.6417,242.437 1670.6417,239.3159 Q1670.6417,236.1865 1671.9615,234.5347 Q1673.2814,232.8828 1675.7882,232.8828 Q1676.4938,232.8828 1677.1412,233.0322 Q1677.7887,233.1816 1678.3531,233.4805 L1678.3531,236.2031 Q1677.7223,235.6221 1677.1288,235.3523 Q1676.5353,235.0825 1675.9044,235.0825 Q1674.5597,235.0825 1673.8749,236.1492 Q1673.1901,237.2158 1673.1901,239.3159 Q1673.1901,241.4077 1673.8749,242.4744 Q1674.5597,243.541 1675.9044,243.541 Q1676.5353,243.541 1677.1288,243.2712 Q1677.7223,243.0015 1678.3531,242.4204 Z " fill="#000000"/><text fill="#000000" font-family="sans-serif" font-size="14" lengthAdjust="spacing" textLength="174.7334" x="1689.88" y="244.291">Behavior Decision Module</text><line style="stroke:#181818;stroke-width:0.5;" x1="1661.88" x2="1866.6134" y1="255" y2="255"/><line style="stroke:#181818;stroke-width:0.5;" x1="1661.88" x2="1866.6134" y1="263" y2="263"/></g><!--class SteerByWireUnit--><g class="entity" data-qualified-name="SteerByWireUnit" data-source-line="30" id="ent0022"><rect fill="#F1F1F1" height="48" rx="2.5" ry="2.5" style="stroke:#181818;stroke-width:0.5;" width="160.085" x="1902.21" y="223"/><ellipse cx="1917.21" cy="239" fill="#ADD1B2" rx="11" ry="11" style="stroke:#181818;stroke-width:1;"/><path d="M1919.6831,245.1431 Q1919.1021,245.4419 1918.4629,245.5913 Q1917.8238,245.7407 1917.1182,245.7407 Q1914.6114,245.7407 1913.2915,244.0889 Q1911.9717,242.437 1911.9717,239.3159 Q1911.9717,236.1865 1913.2915,234.5347 Q1914.6114,232.8828 1917.1182,232.8828 Q1917.8238,232.8828 1918.4712,233.0322 Q1919.1187,233.1816 1919.6831,233.4805 L1919.6831,236.2031 Q1919.0523,235.6221 1918.4588,235.3523 Q1917.8653,235.0825 1917.2344,235.0825 Q1915.8897,235.0825 1915.2049,236.1492 Q1914.5201,237.2158 1914.5201,239.3159 Q1914.5201,241.4077 1915.2049,242.4744 Q1915.8897,243.541 1917.2344,243.541 Q1917.8653,243.541 1918.4588,243.2712 Q1919.0523,243.0015 1919.6831,242.4204 Z " fill="#000000"/><text fill="#000000" font-family="sans-serif" font-size="14" lengthAdjust="spacing" textLength="128.085" x="1931.21" y="244.291">Steer-by-Wire Unit</text><line style="stroke:#181818;stroke-width:0.5;" x1="1903.21" x2="2061.295" y1="255" y2="255"/><line style="stroke:#181818;stroke-width:0.5;" x1="1903.21" x2="2061.295" y1="263" y2="263"/></g><!--class BrakeByWireUnit--><g class="entity" data-qualified-name="BrakeByWireUnit" data-source-line="31" id="ent0023"><rect fill="#F1F1F1" height="48" rx="2.5" ry="2.5" style="stroke:#181818;stroke-width:0.5;" width="163.4756" x="2097.51" y="223"/><ellipse cx="2112.51" cy="239" fill="#ADD1B2" rx="11" ry="11" style="stroke:#181818;stroke-width:1;"/><path d="M2114.9831,245.1431 Q2114.4021,245.4419 2113.7629,245.5913 Q2113.1238,245.7407 2112.4182,245.7407 Q2109.9114,245.7407 2108.5915,244.0889 Q2107.2717,242.437 2107.2717,239.3159 Q2107.2717,236.1865 2108.5915,234.5347 Q2109.9114,232.8828 2112.4182,232.8828 Q2113.1238,232.8828 2113.7712,233.0322 Q2114.4187,233.1816 2114.9831,233.4805 L2114.9831,236.2031 Q2114.3523,235.6221 2113.7588,235.3523 Q2113.1653,235.0825 2112.5344,235.0825 Q2111.1897,235.0825 2110.5049,236.1492 Q2109.8201,237.2158 2109.8201,239.3159 Q2109.8201,241.4077 2110.5049,242.4744 Q2111.1897,243.541 2112.5344,243.541 Q2113.1653,243.541 2113.7588,243.2712 Q2114.3523,243.0015 2114.9831,242.4204 Z " fill="#000000"/><text fill="#000000" font-family="sans-serif" font-size="14" lengthAdjust="spacing" textLength="131.4756" x="2126.51" y="244.291">Brake-by-Wire Unit</text><line style="stroke:#181818;stroke-width:0.5;" x1="2098.51" x2="2259.9856" y1="255" y2="255"/><line style="stroke:#181818;stroke-width:0.5;" x1="2098.51" x2="2259.9856" y1="263" y2="263"/></g><!--class DriveControl--><g class="entity" data-qualified-name="DriveControl" data-source-line="32" id="ent0024"><rect fill="#F1F1F1" height="48" rx="2.5" ry="2.5" style="stroke:#181818;stroke-width:0.5;" width="122.3232" x="2296.09" y="223"/><ellipse cx="2311.09" cy="239" fill="#ADD1B2" rx="11" ry="11" style="stroke:#181818;stroke-width:1;"/><path d="M2313.5631,245.1431 Q2312.9821,245.4419 2312.3429,245.5913 Q2311.7038,245.7407 2310.9982,245.7407 Q2308.4914,245.7407 2307.1715,244.0889 Q2305.8517,242.437 2305.8517,239.3159 Q2305.8517,236.1865 2307.1715,234.5347 Q2308.4914,232.8828 2310.9982,232.8828 Q2311.7038,232.8828 2312.3512,233.0322 Q2312.9987,233.1816 2313.5631,233.4805 L2313.5631,236.2031 Q2312.9323,235.6221 2312.3388,235.3523 Q2311.7453,235.0825 2311.1144,235.0825 Q2309.7697,235.0825 2309.0849,236.1492 Q2308.4001,237.2158 2308.4001,239.3159 Q2308.4001,241.4077 2309.0849,242.4744 Q2309.7697,243.541 2311.1144,243.541 Q2311.7453,243.541 2312.3388,243.2712 Q2312.9323,243.0015 2313.5631,242.4204 Z " fill="#000000"/><text fill="#000000" font-family="sans-serif" font-size="14" lengthAdjust="spacing" textLength="90.3232" x="2325.09" y="244.291">Drive Control</text><line style="stroke:#181818;stroke-width:0.5;" x1="2297.09" x2="2417.4132" y1="255" y2="255"/><line style="stroke:#181818;stroke-width:0.5;" x1="2297.09" x2="2417.4132" y1="263" y2="263"/></g><!--class V2XModule--><g class="entity" data-qualified-name="V2XModule" data-source-line="34" id="ent0025"><rect fill="#F1F1F1" height="48" rx="2.5" ry="2.5" style="stroke:#181818;stroke-width:0.5;" width="113.2041" x="2453.65" y="223"/><ellipse cx="2468.65" cy="239" fill="#ADD1B2" rx="11" ry="11" style="stroke:#181818;stroke-width:1;"/><path d="M2471.1231,245.1431 Q2470.5421,245.4419 2469.9029,245.5913 Q2469.2638,245.7407 2468.5582,245.7407 Q2466.0514,245.7407 2464.7315,244.0889 Q2463.4117,242.437 2463.4117,239.3159 Q2463.4117,236.1865 2464.7315,234.5347 Q2466.0514,232.8828 2468.5582,232.8828 Q2469.2638,232.8828 2469.9112,233.0322 Q2470.5587,233.1816 2471.1231,233.4805 L2471.1231,236.2031 Q2470.4923,235.6221 2469.8988,235.3523 Q2469.3053,235.0825 2468.6744,235.0825 Q2467.3297,235.0825 2466.6449,236.1492 Q2465.9601,237.2158 2465.9601,239.3159 Q2465.9601,241.4077 2466.6449,242.4744 Q2467.3297,243.541 2468.6744,243.541 Q2469.3053,243.541 2469.8988,243.2712 Q2470.4923,243.0015 2471.1231,242.4204 Z " fill="#000000"/><text fill="#000000" font-family="sans-serif" font-size="14" lengthAdjust="spacing" textLength="81.2041" x="2482.65" y="244.291">V2X Module</text><line style="stroke:#181818;stroke-width:0.5;" x1="2454.65" x2="2565.8541" y1="255" y2="255"/><line style="stroke:#181818;stroke-width:0.5;" x1="2454.65" x2="2565.8541" y1="263" y2="263"/></g><!--class TelematicsModule--><g class="entity" data-qualified-name="TelematicsModule" data-source-line="35" id="ent0026"><rect fill="#F1F1F1" height="48" rx="2.5" ry="2.5" style="stroke:#181818;stroke-width:0.5;" width="159.3262" x="2601.59" y="223"/><ellipse cx="2616.59" cy="239" fill="#ADD1B2" rx="11" ry="11" style="stroke:#181818;stroke-width:1;"/><path d="M2619.0631,245.1431 Q2618.4821,245.4419 2617.8429,245.5913 Q2617.2038,245.7407 2616.4982,245.7407 Q2613.9914,245.7407 2612.6715,244.0889 Q2611.3517,242.437 2611.3517,239.3159 Q2611.3517,236.1865 2612.6715,234.5347 Q2613.9914,232.8828 2616.4982,232.8828 Q2617.2038,232.8828 2617.8512,233.0322 Q2618.4987,233.1816 2619.0631,233.4805 L2619.0631,236.2031 Q2618.4323,235.6221 2617.8388,235.3523 Q2617.2453,235.0825 2616.6144,235.0825 Q2615.2697,235.0825 2614.5849,236.1492 Q2613.9001,237.2158 2613.9001,239.3159 Q2613.9001,241.4077 2614.5849,242.4744 Q2615.2697,243.541 2616.6144,243.541 Q2617.2453,243.541 2617.8388,243.2712 Q2618.4323,243.0015 2619.0631,242.4204 Z " fill="#000000"/><text fill="#000000" font-family="sans-serif" font-size="14" lengthAdjust="spacing" textLength="127.3262" x="2630.59" y="244.291">Telematics Module</text><line style="stroke:#181818;stroke-width:0.5;" x1="2602.59" x2="2759.9162" y1="255" y2="255"/><line style="stroke:#181818;stroke-width:0.5;" x1="2602.59" x2="2759.9162" y1="263" y2="263"/></g><!--reverse link AVSystem to Perception--><g class="link" data-entity-1="ent0002" data-entity-2="ent0003" data-link-type="composition" data-source-line="38" id="lnk27"><path codeLine="38" d="M1288.5835,44.883 C1067.8635,67.683 598.33,116.19 439.35,132.62" fill="none" id="AVSystem-backto-Perception" style="stroke:#181818;stroke-width:1;"/><polygon fill="#181818" points="1300.52,43.65,1294.1408,40.2877,1288.5835,44.883,1294.9628,48.2453,1300.52,43.65" style="stroke:#181818;stroke-width:1;stroke-linejoin:miter;stroke-miterlimit:10;"/><text fill="#000000" font-family="sans-serif" font-size="13" lengthAdjust="spacing" textLength="8.2202" x="1284.6843" y="41.5748">1</text><text fill="#000000" font-family="sans-serif" font-size="13" lengthAdjust="spacing" textLength="8.2202" x="447.3196" y="125.642">1</text></g><!--reverse link AVSystem to ProcessingPlatform--><g class="link" data-entity-1="ent0002" data-entity-2="ent0004" data-link-type="composition" data-source-line="39" id="lnk28"><path codeLine="39" d="M1288.7517,56.256 C1185.2817,76.426 1046.09,103.54 952.95,121.69" fill="none" id="AVSystem-backto-ProcessingPlatform" style="stroke:#181818;stroke-width:1;"/><polygon fill="#181818" points="1300.53,53.96,1293.8755,51.1819,1288.7517,56.256,1295.4062,59.0341,1300.53,53.96" style="stroke:#181818;stroke-width:1;stroke-linejoin:miter;stroke-miterlimit:10;"/><text fill="#000000" font-family="sans-serif" font-size="13" lengthAdjust="spacing" textLength="8.2202" x="1284.6949" y="68.5853">1</text><text fill="#000000" font-family="sans-serif" font-size="13" lengthAdjust="spacing" textLength="8.2202" x="960.6622" y="114.4045">1</text></g><!--reverse link AVSystem to LocalizationMapping--><g class="link" data-entity-1="ent0002" data-entity-2="ent0005" data-link-type="composition" data-source-line="40" id="lnk29"><path codeLine="40" d="M1375.9194,62.9158 C1354.5794,80.5958 1334.6,97.13 1313.28,114.79" fill="none" id="AVSystem-backto-LocalizationMapping" style="stroke:#181818;stroke-width:1;"/><polygon fill="#181818" points="1385.16,55.26,1377.9878,56.0077,1375.9194,62.9158,1383.0916,62.1681,1385.16,55.26" style="stroke:#181818;stroke-width:1;stroke-linejoin:miter;stroke-miterlimit:10;"/><text fill="#000000" font-family="sans-serif" font-size="13" lengthAdjust="spacing" textLength="8.2202" x="1334.7801" y="75.2411">1</text><text fill="#000000" font-family="sans-serif" font-size="13" lengthAdjust="spacing" textLength="8.2202" x="1311.4662" y="104.2725">1</text></g><!--reverse link AVSystem to DrivingDecisionPlanning--><g class="link" data-entity-1="ent0002" data-entity-2="ent0006" data-link-type="composition" data-source-line="41" id="lnk30"><path codeLine="41" d="M1450.5806,62.9158 C1471.9206,80.5958 1491.9,97.13 1513.23,114.79" fill="none" id="AVSystem-backto-DrivingDecisionPlanning" style="stroke:#181818;stroke-width:1;"/><polygon fill="#181818" points="1441.34,55.26,1443.4084,62.1681,1450.5806,62.9158,1448.5122,56.0077,1441.34,55.26" style="stroke:#181818;stroke-width:1;stroke-linejoin:miter;stroke-miterlimit:10;"/><text fill="#000000" font-family="sans-serif" font-size="13" lengthAdjust="spacing" textLength="8.2202" x="1465.3986" y="75.2411">1</text><text fill="#000000" font-family="sans-serif" font-size="13" lengthAdjust="spacing" textLength="8.2202" x="1497.0522" y="104.2725">1</text></g><!--reverse link AVSystem to VehicleControl--><g class="link" data-entity-1="ent0002" data-entity-2="ent0007" data-link-type="composition" data-source-line="42" id="lnk31"><path codeLine="42" d="M1537.8713,51.8035 C1676.9913,73.9135 1897.26,108.92 2011.9,127.14" fill="none" id="AVSystem-backto-VehicleControl" style="stroke:#181818;stroke-width:1;"/><polygon fill="#181818" points="1526.02,49.92,1531.3178,54.8122,1537.8713,51.8035,1532.5735,46.9113,1526.02,49.92" style="stroke:#181818;stroke-width:1;stroke-linejoin:miter;stroke-miterlimit:10;"/><text fill="#000000" font-family="sans-serif" font-size="13" lengthAdjust="spacing" textLength="8.2202" x="1533.3306" y="66.2255">1</text><text fill="#000000" font-family="sans-serif" font-size="13" lengthAdjust="spacing" textLength="8.2202" x="1995.9987" y="122.6078">1</text></g><!--reverse link AVSystem to Communication--><g class="link" data-entity-1="ent0002" data-entity-2="ent0008" data-link-type="composition" data-source-line="43" id="lnk32"><path codeLine="43" d="M1537.9444,44.0537 C1764.1644,65.9037 2255.57,113.39 2440.42,131.25" fill="none" id="AVSystem-backto-Communication" style="stroke:#181818;stroke-width:1;"/><polygon fill="#181818" points="1526,42.9,1531.5876,47.4583,1537.9444,44.0537,1532.3568,39.4954,1526,42.9" style="stroke:#181818;stroke-width:1;stroke-linejoin:miter;stroke-miterlimit:10;"/><text fill="#000000" font-family="sans-serif" font-size="13" lengthAdjust="spacing" textLength="8.2202" x="1533.3078" y="41.1089">1</text><text fill="#000000" font-family="sans-serif" font-size="13" lengthAdjust="spacing" textLength="8.2202" x="2424.3567" y="127.1674">1</text></g><!--reverse link Perception to CameraCluster--><g class="link" data-entity-1="ent0003" data-entity-2="ent0009" data-link-type="composition" data-source-line="46" id="lnk33"><path codeLine="46" d="M323.6679,161.6003 C271.1879,179.4303 201.4,203.14 143.78,222.72" fill="none" id="Perception-backto-CameraCluster" style="stroke:#181818;stroke-width:1;"/><polygon fill="#181818" points="335.03,157.74,328.0622,155.8828,323.6679,161.6003,330.6357,163.4575,335.03,157.74" style="stroke:#181818;stroke-width:1;stroke-linejoin:miter;stroke-miterlimit:10;"/><text fill="#000000" font-family="sans-serif" font-size="13" lengthAdjust="spacing" textLength="8.2202" x="319.1395" y="156.9108">1</text><text fill="#000000" font-family="sans-serif" font-size="13" lengthAdjust="spacing" textLength="8.2202" x="151.5359" y="212.5798">1</text></g><!--reverse link Perception to RadarArray--><g class="link" data-entity-1="ent0003" data-entity-2="ent0010" data-link-type="composition" data-source-line="47" id="lnk34"><path codeLine="47" d="M343.8058,170.0935 C318.3858,187.7035 293.48,204.97 268.01,222.61" fill="none" id="Perception-backto-RadarArray" style="stroke:#181818;stroke-width:1;"/><polygon fill="#181818" points="353.67,163.26,346.46,163.3887,343.8058,170.0935,351.0157,169.9648,353.67,163.26" style="stroke:#181818;stroke-width:1;stroke-linejoin:miter;stroke-miterlimit:10;"/><text fill="#000000" font-family="sans-serif" font-size="13" lengthAdjust="spacing" textLength="8.2202" x="318.9727" y="172.8805">1</text><text fill="#000000" font-family="sans-serif" font-size="13" lengthAdjust="spacing" textLength="8.2202" x="267.29" y="212.443">1</text></g><!--reverse link Perception to LidarScanner--><g class="link" data-entity-1="ent0003" data-entity-2="ent0011" data-link-type="composition" data-source-line="48" id="lnk35"><path codeLine="48" d="M387.25,175.26 C387.25,192.94 387.25,205.13 387.25,222.79" fill="none" id="Perception-backto-LidarScanner" style="stroke:#181818;stroke-width:1;"/><polygon fill="#181818" points="387.25,163.26,383.25,169.26,387.25,175.26,391.25,169.26,387.25,163.26" style="stroke:#181818;stroke-width:1;stroke-linejoin:miter;stroke-miterlimit:10;"/><text fill="#000000" font-family="sans-serif" font-size="13" lengthAdjust="spacing" textLength="8.2202" x="374.0958" y="183.2411">1</text><text fill="#000000" font-family="sans-serif" font-size="13" lengthAdjust="spacing" textLength="8.2202" x="378.2531" y="212.2725">1</text></g><!--reverse link Perception to GpsIns--><g class="link" data-entity-1="ent0003" data-entity-2="ent0012" data-link-type="composition" data-source-line="49" id="lnk36"><path codeLine="49" d="M427.537,170.5038 C450.887,188.1838 473.27,205.13 496.6,222.79" fill="none" id="Perception-backto-GpsIns" style="stroke:#181818;stroke-width:1;"/><polygon fill="#181818" points="417.97,163.26,420.3389,170.0709,427.537,170.5038,425.1681,163.6929,417.97,163.26" style="stroke:#181818;stroke-width:1;stroke-linejoin:miter;stroke-miterlimit:10;"/><text fill="#000000" font-family="sans-serif" font-size="13" lengthAdjust="spacing" textLength="8.2202" x="445.5198" y="183.2411">1</text><text fill="#000000" font-family="sans-serif" font-size="13" lengthAdjust="spacing" textLength="8.2202" x="479.75" y="212.2725">1</text></g><!--link CameraCluster to PerceptionSensor--><g class="link" data-entity-1="ent0009" data-entity-2="ent0001" data-link-type="extension" data-source-line="52" id="lnk37"><path codeLine="52" d="M127.33,271.39 C166.56,289.01 203.6807,305.6839 242.8807,323.2939" fill="none" id="CameraCluster-to-PerceptionSensor" style="stroke:#181818;stroke-width:1;"/><polygon fill="none" points="259.3,330.67,245.3394,317.8208,240.422,328.767,259.3,330.67" style="stroke:#181818;stroke-width:1;stroke-linejoin:miter;stroke-miterlimit:10;"/></g><!--link RadarArray to PerceptionSensor--><g class="link" data-entity-1="ent0010" data-entity-2="ent0001" data-link-type="extension" data-source-line="53" id="lnk38"><path codeLine="53" d="M251.15,271.26 C263.99,288.94 270.9803,298.5674 283.8103,316.2274" fill="none" id="RadarArray-to-PerceptionSensor" style="stroke:#181818;stroke-width:1;"/><polygon fill="none" points="294.39,330.79,288.6645,312.7008,278.9561,319.754,294.39,330.79" style="stroke:#181818;stroke-width:1;stroke-linejoin:miter;stroke-miterlimit:10;"/></g><!--link LidarScanner to PerceptionSensor--><g class="link" data-entity-1="ent0011" data-entity-2="ent0001" data-link-type="extension" data-source-line="54" id="lnk39"><path codeLine="54" d="M370.57,271.26 C357.9,288.94 351.0373,298.5007 338.3773,316.1607" fill="none" id="LidarScanner-to-PerceptionSensor" style="stroke:#181818;stroke-width:1;"/><polygon fill="none" points="327.89,330.79,343.2538,319.6565,333.5009,312.6649,327.89,330.79" style="stroke:#181818;stroke-width:1;stroke-linejoin:miter;stroke-miterlimit:10;"/></g><!--link GpsIns to PerceptionSensor--><g class="link" data-entity-1="ent0012" data-entity-2="ent0001" data-link-type="extension" data-source-line="55" id="lnk40"><path codeLine="55" d="M483.54,269.45 C447.42,287.18 412.3783,304.3685 375.1783,322.6285" fill="none" id="GpsIns-to-PerceptionSensor" style="stroke:#181818;stroke-width:1;"/><polygon fill="none" points="359.02,330.56,377.8222,328.0146,372.5345,317.2424,359.02,330.56" style="stroke:#181818;stroke-width:1;stroke-linejoin:miter;stroke-miterlimit:10;"/></g><!--reverse link ProcessingPlatform to AVCompute--><g class="link" data-entity-1="ent0004" data-entity-2="ent0013" data-link-type="composition" data-source-line="58" id="lnk41"><path codeLine="58" d="M813.3504,168.9012 C779.2704,186.5212 743.42,205.06 709.38,222.67" fill="none" id="ProcessingPlatform-backto-AVCompute" style="stroke:#181818;stroke-width:1;"/><polygon fill="#181818" points="824.01,163.39,816.8431,162.5924,813.3504,168.9012,820.5173,169.6988,824.01,163.39" style="stroke:#181818;stroke-width:1;stroke-linejoin:miter;stroke-miterlimit:10;"/><text fill="#000000" font-family="sans-serif" font-size="13" lengthAdjust="spacing" textLength="8.2202" x="770.563" y="176.7252">1</text><text fill="#000000" font-family="sans-serif" font-size="13" lengthAdjust="spacing" textLength="8.2202" x="711.9484" y="212.1217">1</text></g><!--reverse link ProcessingPlatform to SafetyMonitoringComputer--><g class="link" data-entity-1="ent0004" data-entity-2="ent0017" data-link-type="composition" data-source-line="59" id="lnk42"><path codeLine="59" d="M869.25,175.26 C869.25,192.94 869.25,205.13 869.25,222.79" fill="none" id="ProcessingPlatform-backto-SafetyMonitoringComputer" style="stroke:#181818;stroke-width:1;"/><polygon fill="#181818" points="869.25,163.26,865.25,169.26,869.25,175.26,873.25,169.26,869.25,163.26" style="stroke:#181818;stroke-width:1;stroke-linejoin:miter;stroke-miterlimit:10;"/><text fill="#000000" font-family="sans-serif" font-size="13" lengthAdjust="spacing" textLength="8.2202" x="856.0933" y="183.2411">1</text><text fill="#000000" font-family="sans-serif" font-size="13" lengthAdjust="spacing" textLength="8.2202" x="860.2541" y="212.2725">1</text></g><!--reverse link AVCompute to GPU--><g class="link" data-entity-1="ent0013" data-entity-2="ent0014" data-link-type="composition" data-source-line="60" id="lnk43"><path codeLine="60" d="M635.6606,280.2404 C619.9906,297.9204 606.49,313.13 590.83,330.79" fill="none" id="AVCompute-backto-GPU" style="stroke:#181818;stroke-width:1;"/><polygon fill="#181818" points="643.62,271.26,636.6468,273.0971,635.6606,280.2404,642.6337,278.4033,643.62,271.26" style="stroke:#181818;stroke-width:1;stroke-linejoin:miter;stroke-miterlimit:10;"/><text fill="#000000" font-family="sans-serif" font-size="13" lengthAdjust="spacing" textLength="8.2202" x="603.1346" y="291.2411">1</text><text fill="#000000" font-family="sans-serif" font-size="13" lengthAdjust="spacing" textLength="8.2202" x="587.1074" y="320.2725">1</text></g><!--reverse link AVCompute to CPU--><g class="link" data-entity-1="ent0013" data-entity-2="ent0015" data-link-type="composition" data-source-line="61" id="lnk44"><path codeLine="61" d="M664.25,283.26 C664.25,300.94 664.25,313.13 664.25,330.79" fill="none" id="AVCompute-backto-CPU" style="stroke:#181818;stroke-width:1;"/><polygon fill="#181818" points="664.25,271.26,660.25,277.26,664.25,283.26,668.25,277.26,664.25,271.26" style="stroke:#181818;stroke-width:1;stroke-linejoin:miter;stroke-miterlimit:10;"/><text fill="#000000" font-family="sans-serif" font-size="13" lengthAdjust="spacing" textLength="8.2202" x="651.0994" y="291.2411">1</text><text fill="#000000" font-family="sans-serif" font-size="13" lengthAdjust="spacing" textLength="8.2202" x="655.2526" y="320.2725">1</text></g><!--reverse link AVCompute to DRAM--><g class="link" data-entity-1="ent0013" data-entity-2="ent0016" data-link-type="composition" data-source-line="62" id="lnk45"><path codeLine="62" d="M694.6964,279.9492 C711.5364,297.6292 726.31,313.13 743.14,330.79" fill="none" id="AVCompute-backto-DRAM" style="stroke:#181818;stroke-width:1;"/><polygon fill="#181818" points="686.42,271.26,687.6618,278.3634,694.6964,279.9492,693.4546,272.8458,686.42,271.26" style="stroke:#181818;stroke-width:1;stroke-linejoin:miter;stroke-miterlimit:10;"/><text fill="#000000" font-family="sans-serif" font-size="13" lengthAdjust="spacing" textLength="8.2202" x="702.6446" y="291.2411">1</text><text fill="#000000" font-family="sans-serif" font-size="13" lengthAdjust="spacing" textLength="8.2202" x="728.478" y="320.2725">1</text></g><!--reverse link LocalizationMapping to HDMapUnit--><g class="link" data-entity-1="ent0005" data-entity-2="ent0018" data-link-type="composition" data-source-line="65" id="lnk46"><path codeLine="65" d="M1228.1972,168.797 C1193.2872,186.417 1156.36,205.06 1121.48,222.67" fill="none" id="LocalizationMapping-backto-HDMapUnit" style="stroke:#181818;stroke-width:1;"/><polygon fill="#181818" points="1238.91,163.39,1231.7513,162.5226,1228.1972,168.797,1235.3559,169.6644,1238.91,163.39" style="stroke:#181818;stroke-width:1;stroke-linejoin:miter;stroke-miterlimit:10;"/><text fill="#000000" font-family="sans-serif" font-size="13" lengthAdjust="spacing" textLength="8.2202" x="1166.8685" y="182.6911">1</text><text fill="#000000" font-family="sans-serif" font-size="13" lengthAdjust="spacing" textLength="8.2202" x="1124.3287" y="212.1217">1</text></g><!--reverse link LocalizationMapping to RealTimeLocalizationModule--><g class="link" data-entity-1="ent0005" data-entity-2="ent0019" data-link-type="composition" data-source-line="66" id="lnk47"><path codeLine="66" d="M1286.9127,175.2468 C1287.7427,192.9268 1288.32,205.13 1289.16,222.79" fill="none" id="LocalizationMapping-backto-RealTimeLocalizationModule" style="stroke:#181818;stroke-width:1;"/><polygon fill="#181818" points="1286.35,163.26,1282.6358,169.441,1286.9127,175.2468,1290.627,169.0658,1286.35,163.26" style="stroke:#181818;stroke-width:1;stroke-linejoin:miter;stroke-miterlimit:10;"/><text fill="#000000" font-family="sans-serif" font-size="13" lengthAdjust="spacing" textLength="8.2202" x="1274.6551" y="183.2411">1</text><text fill="#000000" font-family="sans-serif" font-size="13" lengthAdjust="spacing" textLength="8.2202" x="1279.8847" y="212.2725">1</text></g><!--reverse link DrivingDecisionPlanning to PathPlanningModule--><g class="link" data-entity-1="ent0006" data-entity-2="ent0020" data-link-type="composition" data-source-line="69" id="lnk48"><path codeLine="69" d="M1539.5873,175.2468 C1538.7573,192.9268 1538.18,205.13 1537.35,222.79" fill="none" id="DrivingDecisionPlanning-backto-PathPlanningModule" style="stroke:#181818;stroke-width:1;"/><polygon fill="#181818" points="1540.15,163.26,1535.873,169.0658,1539.5873,175.2468,1543.8642,169.441,1540.15,163.26" style="stroke:#181818;stroke-width:1;stroke-linejoin:miter;stroke-miterlimit:10;"/><text fill="#000000" font-family="sans-serif" font-size="13" lengthAdjust="spacing" textLength="8.2202" x="1525.5337" y="183.2411">1</text><text fill="#000000" font-family="sans-serif" font-size="13" lengthAdjust="spacing" textLength="8.2202" x="1528.6355" y="212.2725">1</text></g><!--reverse link DrivingDecisionPlanning to BehaviorDecisionModule--><g class="link" data-entity-1="ent0006" data-entity-2="ent0021" data-link-type="composition" data-source-line="70" id="lnk49"><path codeLine="70" d="M1601.298,168.5415 C1638.368,186.1615 1678.12,205.06 1715.16,222.67" fill="none" id="DrivingDecisionPlanning-backto-BehaviorDecisionModule" style="stroke:#181818;stroke-width:1;"/><polygon fill="#181818" points="1590.46,163.39,1594.1618,169.5784,1601.298,168.5415,1597.5962,162.3531,1590.46,163.39" style="stroke:#181818;stroke-width:1;stroke-linejoin:miter;stroke-miterlimit:10;"/><text fill="#000000" font-family="sans-serif" font-size="13" lengthAdjust="spacing" textLength="8.2202" x="1642.5044" y="183.5433">1</text><text fill="#000000" font-family="sans-serif" font-size="13" lengthAdjust="spacing" textLength="8.2202" x="1693.5847" y="212.1217">1</text></g><!--reverse link VehicleControl to SteerByWireUnit--><g class="link" data-entity-1="ent0007" data-entity-2="ent0022" data-link-type="composition" data-source-line="73" id="lnk50"><path codeLine="73" d="M2050.5953,172.0727 C2034.2553,189.7527 2020.03,205.13 2003.71,222.79" fill="none" id="VehicleControl-backto-SteerByWireUnit" style="stroke:#181818;stroke-width:1;"/><polygon fill="#181818" points="2058.74,163.26,2051.7301,164.9514,2050.5953,172.0727,2057.6052,170.3812,2058.74,163.26" style="stroke:#181818;stroke-width:1;stroke-linejoin:miter;stroke-miterlimit:10;"/><text fill="#000000" font-family="sans-serif" font-size="13" lengthAdjust="spacing" textLength="8.2202" x="2017.084" y="183.2411">1</text><text fill="#000000" font-family="sans-serif" font-size="13" lengthAdjust="spacing" textLength="8.2202" x="2000.2117" y="212.2725">1</text></g><!--reverse link VehicleControl to BrakeByWireUnit--><g class="link" data-entity-1="ent0007" data-entity-2="ent0023" data-link-type="composition" data-source-line="74" id="lnk51"><path codeLine="74" d="M2110.1675,172.033 C2126.6675,189.713 2141.08,205.13 2157.58,222.79" fill="none" id="VehicleControl-backto-BrakeByWireUnit" style="stroke:#181818;stroke-width:1;"/><polygon fill="#181818" points="2101.98,163.26,2103.1494,170.3757,2110.1675,172.033,2108.9981,164.9173,2101.98,163.26" style="stroke:#181818;stroke-width:1;stroke-linejoin:miter;stroke-miterlimit:10;"/><text fill="#000000" font-family="sans-serif" font-size="13" lengthAdjust="spacing" textLength="8.2202" x="2117.617" y="183.2411">1</text><text fill="#000000" font-family="sans-serif" font-size="13" lengthAdjust="spacing" textLength="8.2202" x="2143.0308" y="212.2725">1</text></g><!--reverse link VehicleControl to DriveControl--><g class="link" data-entity-1="ent0007" data-entity-2="ent0024" data-link-type="composition" data-source-line="75" id="lnk52"><path codeLine="75" d="M2152.5876,167.6783 C2198.6376,185.2983 2250.27,205.06 2296.27,222.67" fill="none" id="VehicleControl-backto-DriveControl" style="stroke:#181818;stroke-width:1;"/><polygon fill="#181818" points="2141.38,163.39,2145.5544,169.27,2152.5876,167.6783,2148.4132,161.7983,2141.38,163.39" style="stroke:#181818;stroke-width:1;stroke-linejoin:miter;stroke-miterlimit:10;"/><text fill="#000000" font-family="sans-serif" font-size="13" lengthAdjust="spacing" textLength="8.2202" x="2155.918" y="167.6699">1</text><text fill="#000000" font-family="sans-serif" font-size="13" lengthAdjust="spacing" textLength="8.2202" x="2279.9583" y="216.18">1</text></g><!--reverse link Communication to V2XModule--><g class="link" data-entity-1="ent0008" data-entity-2="ent0025" data-link-type="composition" data-source-line="78" id="lnk53"><path codeLine="78" d="M2510.25,175.26 C2510.25,192.94 2510.25,205.13 2510.25,222.79" fill="none" id="Communication-backto-V2XModule" style="stroke:#181818;stroke-width:1;"/><polygon fill="#181818" points="2510.25,163.26,2506.25,169.26,2510.25,175.26,2514.25,169.26,2510.25,163.26" style="stroke:#181818;stroke-width:1;stroke-linejoin:miter;stroke-miterlimit:10;"/><text fill="#000000" font-family="sans-serif" font-size="13" lengthAdjust="spacing" textLength="8.2202" x="2497.0931" y="183.2411">1</text><text fill="#000000" font-family="sans-serif" font-size="13" lengthAdjust="spacing" textLength="8.2202" x="2501.2527" y="212.2725">1</text></g><!--reverse link Communication to TelematicsModule--><g class="link" data-entity-1="ent0008" data-entity-2="ent0026" data-link-type="composition" data-source-line="79" id="lnk54"><path codeLine="79" d="M2557.9795,169.5822 C2586.3895,187.1922 2615.05,204.97 2643.52,222.61" fill="none" id="Communication-backto-TelematicsModule" style="stroke:#181818;stroke-width:1;"/><polygon fill="#181818" points="2547.78,163.26,2550.7724,169.8209,2557.9795,169.5822,2554.9871,163.0213,2547.78,163.26" style="stroke:#181818;stroke-width:1;stroke-linejoin:miter;stroke-miterlimit:10;"/><text fill="#000000" font-family="sans-serif" font-size="13" lengthAdjust="spacing" textLength="8.2202" x="2584.3503" y="183.2411">1</text><text fill="#000000" font-family="sans-serif" font-size="13" lengthAdjust="spacing" textLength="8.2202" x="2625.3744" y="212.443">1</text></g><?plantuml-src ZLN1Rjim3BtxAuXSkWqmXXKxzJ0WYOUsG384TTljgYfC8zIs34aEbc4VFrcMPCksqfqIFJvI94K_Na5-bjiDNCEguFGDCZomYYd6AyWOUHMaX1IMZU8LBtaZuHcFZ1O87_BbTzZW2Glu-h6DeR24fQ17ff2gHc2Ia1Uf1A4AQ46aXCKE1SNQXCwnabmiW4ZeqGvC4akVkRIxnhWjdxj3CWa-Yke9WbEKabMli2k8Ed3H1Ufn1pkF3QUaO7-8oPXKUzYIkjOyupOqMjpvPOATsciof4mwNnsygfopPJY2ixa0hjmrhvJWXN6nc8KSSytBigaO9Rxm0F6zN9CI1O5rqUYUTNtl88iutWFP4w6VKP2p8PcpEVgci9QHKvsn3MGG2pZMxIx_VFyZD_RRMjvNid_MvpR7kb5etz6UUjUdpcttvBEtqBg7ieVbjckb_kF0d1nGdM7BzG1pqJw1ZTqbsfbxgpFwrEwozedXIHECmrscZ-t9jmT9aJwo4eFdrnVkcw8hfsMqX60yZDdViYFgwCTXwDiQ76vzhCiAZ-J4kEX7Qk3cZCuskYvNY29zEQS_cS2-DWElpYquh70bo1jEsGQUijiv3iVK86v8_JnV_nech8zXUOzOOAbRHUMGrgEkeYlpdbmQURg1g400aq0D4_V03w2E29Bz1jcyI4EGYPCFM7nPmASqDRy3qPYtJwLYbZUd3RF4c0xCaaSACCiPVVsZXWq4sBS2QYAKJ0Qc85uW4X7IG2GYZ40Y8Xmd4rUGrxeVle4tG8e2fDaD4gIp8VZrCjahIP0sfEdVRzCrqsST8GoJZb2wd2F6IVUd2yWrVp9NGMTwYNo761Ku7o7ik9RJUSiwQZ5oEwuijYXjUJEVGn2pbzdtc9VKTPJJnILi4ujyVk4tFnNb_t6BYV8eoz6cjtc5Nthun2FPla0TQ_O5QgZQenm3JR4PXbYWKbxSuvo9ily3?></g></svg>