<svg xmlns="http://www.w3.org/2000/svg" xmlns:xlink="http://www.w3.org/1999/xlink" contentStyleType="text/css" data-diagram-type="CLASS" height="385px" preserveAspectRatio="none" style="width:374px;height:385px;background:#FFFFFF;" version="1.1" viewBox="0 0 374 385" width="374px" zoomAndPan="magnify"><?plantuml 1.2026.6?><defs/><g><!--class Hotel--><g class="entity" data-qualified-name="Hotel" data-source-line="1" id="ent0001"><rect fill="#F1F1F1" height="48" rx="2.5" ry="2.5" style="stroke:#181818;stroke-width:0.5;" width="67.9707" x="69.57" y="7"/><ellipse cx="84.57" cy="23" fill="#ADD1B2" rx="11" ry="11" style="stroke:#181818;stroke-width:1;"/><path d="M87.0431,29.1431 Q86.4621,29.4419 85.8229,29.5913 Q85.1838,29.7407 84.4782,29.7407 Q81.9714,29.7407 80.6515,28.0889 Q79.3317,26.437 79.3317,23.3159 Q79.3317,20.1865 80.6515,18.5347 Q81.9714,16.8828 84.4782,16.8828 Q85.1838,16.8828 85.8312,17.0322 Q86.4787,17.1816 87.0431,17.4805 L87.0431,20.2031 Q86.4123,19.6221 85.8188,19.3523 Q85.2253,19.0825 84.5944,19.0825 Q83.2497,19.0825 82.5649,20.1492 Q81.8801,21.2158 81.8801,23.3159 Q81.8801,25.4077 82.5649,26.4744 Q83.2497,27.541 84.5944,27.541 Q85.2253,27.541 85.8188,27.2712 Q86.4123,27.0015 87.0431,26.4204 Z " fill="#000000"/><text fill="#000000" font-family="sans-serif" font-size="14" lengthAdjust="spacing" textLength="35.9707" x="98.57" y="28.291">Hotel</text><line style="stroke:#181818;stroke-width:0.5;" x1="70.57" x2="136.5407" y1="39" y2="39"/><line style="stroke:#181818;stroke-width:0.5;" x1="70.57" x2="136.5407" y1="47" y2="47"/></g><!--class RoomCategory--><g class="entity" data-qualified-name="RoomCategory" data-source-line="2" id="ent0002"><rect fill="#F1F1F1" height="97.4648" rx="2.5" ry="2.5" style="stroke:#181818;stroke-width:0.5;" width="131.9482" x="22.58" y="273.49"/><ellipse cx="37.58" cy="289.49" fill="#EB937F" rx="11" ry="11" style="stroke:#181818;stroke-width:1;"/><path d="M41.1943,295.99 L33.4745,295.99 L33.4745,283.5969 L41.1943,283.5969 L41.1943,285.7551 L35.9233,285.7551 L35.9233,288.428 L40.6962,288.428 L40.6962,290.5862 L35.9233,290.5862 L35.9233,293.8318 L41.1943,293.8318 Z " fill="#000000"/><text fill="#000000" font-family="sans-serif" font-size="14" lengthAdjust="spacing" textLength="99.9482" x="51.58" y="294.781">RoomCategory</text><line style="stroke:#181818;stroke-width:0.5;" x1="23.58" x2="153.5282" y1="305.49" y2="305.49"/><text fill="#000000" font-family="sans-serif" font-size="14" lengthAdjust="spacing" textLength="47.0859" x="28.58" y="323.0252">SINGLE</text><text fill="#000000" font-family="sans-serif" font-size="14" lengthAdjust="spacing" textLength="54.168" x="28.58" y="339.5134">DOUBLE</text><text fill="#000000" font-family="sans-serif" font-size="14" lengthAdjust="spacing" textLength="37.7139" x="28.58" y="356.0017">SUITE</text><line style="stroke:#181818;stroke-width:0.5;" x1="23.58" x2="153.5282" y1="362.9548" y2="362.9548"/></g><!--class Room--><g class="entity" data-qualified-name="Room" data-source-line="7" id="ent0003"><rect fill="#F1F1F1" height="64.4883" rx="2.5" ry="2.5" style="stroke:#181818;stroke-width:0.5;" width="193.1182" x="7" y="132"/><ellipse cx="79.748" cy="148" fill="#ADD1B2" rx="11" ry="11" style="stroke:#181818;stroke-width:1;"/><path d="M82.2212,154.1431 Q81.6401,154.4419 81.001,154.5913 Q80.3618,154.7407 79.6563,154.7407 Q77.1494,154.7407 75.8296,153.0889 Q74.5098,151.437 74.5098,148.3159 Q74.5098,145.1865 75.8296,143.5347 Q77.1494,141.8828 79.6563,141.8828 Q80.3618,141.8828 81.0093,142.0322 Q81.6567,142.1816 82.2212,142.4805 L82.2212,145.2031 Q81.5903,144.6221 80.9968,144.3523 Q80.4033,144.0825 79.7725,144.0825 Q78.4277,144.0825 77.7429,145.1492 Q77.0581,146.2158 77.0581,148.3159 Q77.0581,150.4077 77.7429,151.4744 Q78.4277,152.541 79.7725,152.541 Q80.4033,152.541 80.9968,152.2712 Q81.5903,152.0015 82.2212,151.4204 Z " fill="#000000"/><text fill="#000000" font-family="sans-serif" font-size="14" lengthAdjust="spacing" textLength="39.1221" x="100.248" y="153.291">Room</text><line style="stroke:#181818;stroke-width:0.5;" x1="8" x2="199.1182" y1="164" y2="164"/><g data-visibility-modifier="PUBLIC_FIELD"><ellipse cx="18" cy="177.7441" fill="none" rx="3" ry="3" style="stroke:#038048;stroke-width:1;"/></g><text fill="#000000" font-family="sans-serif" font-size="14" lengthAdjust="spacing" textLength="167.1182" x="27" y="181.5352">category: RoomCategory</text><line style="stroke:#181818;stroke-width:0.5;" x1="8" x2="199.1182" y1="188.4883" y2="188.4883"/></g><!--class Guest--><g class="entity" data-qualified-name="Guest" data-source-line="10" id="ent0004"><rect fill="#F1F1F1" height="48" rx="2.5" ry="2.5" style="stroke:#181818;stroke-width:0.5;" width="70.9785" x="249.07" y="140.24"/><ellipse cx="264.07" cy="156.24" fill="#ADD1B2" rx="11" ry="11" style="stroke:#181818;stroke-width:1;"/><path d="M266.5431,162.3831 Q265.9621,162.6819 265.3229,162.8313 Q264.6838,162.9807 263.9782,162.9807 Q261.4714,162.9807 260.1515,161.3289 Q258.8317,159.677 258.8317,156.5559 Q258.8317,153.4265 260.1515,151.7747 Q261.4714,150.1228 263.9782,150.1228 Q264.6838,150.1228 265.3312,150.2722 Q265.9787,150.4216 266.5431,150.7205 L266.5431,153.4431 Q265.9123,152.8621 265.3188,152.5923 Q264.7253,152.3225 264.0944,152.3225 Q262.7497,152.3225 262.0649,153.3892 Q261.3801,154.4558 261.3801,156.5559 Q261.3801,158.6477 262.0649,159.7144 Q262.7497,160.781 264.0944,160.781 Q264.7253,160.781 265.3188,160.5112 Q265.9123,160.2415 266.5431,159.6604 Z " fill="#000000"/><text fill="#000000" font-family="sans-serif" font-size="14" lengthAdjust="spacing" textLength="38.9785" x="278.07" y="161.531">Guest</text><line style="stroke:#181818;stroke-width:0.5;" x1="250.07" x2="319.0485" y1="172.24" y2="172.24"/><line style="stroke:#181818;stroke-width:0.5;" x1="250.07" x2="319.0485" y1="180.24" y2="180.24"/></g><!--class Booking--><g class="entity" data-qualified-name="Booking" data-source-line="11" id="ent0005"><rect fill="#F1F1F1" height="97.4648" rx="2.5" ry="2.5" style="stroke:#181818;stroke-width:0.5;" width="163.7031" x="195.71" y="273.49"/><ellipse cx="245.8619" cy="289.49" fill="#ADD1B2" rx="11" ry="11" style="stroke:#181818;stroke-width:1;"/><path d="M248.335,295.6331 Q247.7539,295.9319 247.1148,296.0813 Q246.4756,296.2307 245.7701,296.2307 Q243.2632,296.2307 241.9434,294.5789 Q240.6236,292.927 240.6236,289.8059 Q240.6236,286.6765 241.9434,285.0247 Q243.2632,283.3728 245.7701,283.3728 Q246.4756,283.3728 247.1231,283.5222 Q247.7705,283.6716 248.335,283.9705 L248.335,286.6931 Q247.7041,286.1121 247.1106,285.8423 Q246.5171,285.5725 245.8863,285.5725 Q244.5415,285.5725 243.8567,286.6392 Q243.1719,287.7058 243.1719,289.8059 Q243.1719,291.8977 243.8567,292.9644 Q244.5415,294.031 245.8863,294.031 Q246.5171,294.031 247.1106,293.7612 Q247.7041,293.4915 248.335,292.9104 Z " fill="#000000"/><text fill="#000000" font-family="sans-serif" font-size="14" lengthAdjust="spacing" textLength="54.8994" x="266.3619" y="294.781">Booking</text><line style="stroke:#181818;stroke-width:0.5;" x1="196.71" x2="358.4131" y1="305.49" y2="305.49"/><g data-visibility-modifier="PUBLIC_FIELD"><ellipse cx="206.71" cy="319.2341" fill="none" rx="3" ry="3" style="stroke:#038048;stroke-width:1;"/></g><text fill="#000000" font-family="sans-serif" font-size="14" lengthAdjust="spacing" textLength="113.627" x="215.71" y="323.0252">arrivalDate: Date</text><g data-visibility-modifier="PUBLIC_FIELD"><ellipse cx="206.71" cy="335.7224" fill="none" rx="3" ry="3" style="stroke:#038048;stroke-width:1;"/></g><text fill="#000000" font-family="sans-serif" font-size="14" lengthAdjust="spacing" textLength="137.7031" x="215.71" y="339.5134">departureDate: Date</text><g data-visibility-modifier="PUBLIC_FIELD"><ellipse cx="206.71" cy="352.2107" fill="none" rx="3" ry="3" style="stroke:#038048;stroke-width:1;"/></g><text fill="#000000" font-family="sans-serif" font-size="14" lengthAdjust="spacing" textLength="120.627" x="215.71" y="356.0017">totalPrice: Double</text><line style="stroke:#181818;stroke-width:0.5;" x1="196.71" x2="358.4131" y1="362.9548" y2="362.9548"/></g><!--reverse link Hotel to Room--><g class="link" data-entity-1="ent0001" data-entity-2="ent0003" data-link-type="composition" data-source-line="17" id="lnk6"><path codeLine="17" d="M103.56,67.46 C103.56,88.7 103.56,108.14 103.56,131.6" fill="none" id="Hotel-backto-Room" style="stroke:#181818;stroke-width:1;"/><polygon fill="#181818" points="103.56,55.46,99.56,61.46,103.56,67.46,107.56,61.46,103.56,55.46" style="stroke:#181818;stroke-width:1;stroke-linejoin:miter;stroke-miterlimit:10;"/><text fill="#000000" font-family="sans-serif" font-size="13" lengthAdjust="spacing" textLength="40.0537" x="104.56" y="98.5684">rooms</text><text fill="#000000" font-family="sans-serif" font-size="13" lengthAdjust="spacing" textLength="8.2202" x="94.6615" y="75.455">1</text><text fill="#000000" font-family="sans-serif" font-size="13" lengthAdjust="spacing" textLength="22.7119" x="79.4646" y="121.2956">0..*</text></g><!--link Room to RoomCategory--><g class="link" data-entity-1="ent0003" data-entity-2="ent0002" data-link-type="association" data-source-line="18" id="lnk7"><path codeLine="18" d="M92.37,196.96 C89.57,206.35 86.96,216.72 85.56,226.49 C83.38,241.63 83.18,258.28 83.81,273.33" fill="none" id="Room-RoomCategory" style="stroke:#181818;stroke-width:1;"/><text fill="#000000" font-family="sans-serif" font-size="13" lengthAdjust="spacing" textLength="54.1455" x="86.56" y="240.0584">category</text><text fill="#000000" font-family="sans-serif" font-size="13" lengthAdjust="spacing" textLength="8.2202" x="81.5898" y="216.9718">1</text><text fill="#000000" font-family="sans-serif" font-size="13" lengthAdjust="spacing" textLength="8.2202" x="74.5419" y="262.6385">1</text></g><!--link Guest to Booking--><g class="link" data-entity-1="ent0004" data-entity-2="ent0005" data-link-type="association" data-source-line="19" id="lnk8"><path codeLine="19" d="M283.51,188.59 C282.51,210.86 280.98,245.07 279.72,273.16" fill="none" id="Guest-Booking" style="stroke:#181818;stroke-width:1;"/><text fill="#000000" font-family="sans-serif" font-size="13" lengthAdjust="spacing" textLength="58.3096" x="282.69" y="240.0584">bookings</text><text fill="#000000" font-family="sans-serif" font-size="13" lengthAdjust="spacing" textLength="8.2202" x="274.3061" y="208.9596">1</text><text fill="#000000" font-family="sans-serif" font-size="13" lengthAdjust="spacing" textLength="22.7119" x="256.5267" y="262.7961">0..*</text></g><!--link Room to Booking--><g class="link" data-entity-1="ent0003" data-entity-2="ent0005" data-link-type="association" data-source-line="20" id="lnk9"><path codeLine="20" d="M138.77,196.81 C163.2,218.7 196.19,248.28 223.88,273.1" fill="none" id="Room-Booking" style="stroke:#181818;stroke-width:1;"/><text fill="#000000" font-family="sans-serif" font-size="13" lengthAdjust="spacing" textLength="58.3096" x="191.56" y="240.0584">bookings</text><text fill="#000000" font-family="sans-serif" font-size="13" lengthAdjust="spacing" textLength="8.2202" x="136.7406" y="217.0455">1</text><text fill="#000000" font-family="sans-serif" font-size="13" lengthAdjust="spacing" textLength="22.7119" x="192.8342" y="262.7277">0..*</text></g><?plantuml-src TKzT2u8m57tVhxZiqL3oTO-cc10LcJzWsX1fkjX74D5_psqg6FHoT-wvvnpE6awLWhtGZ2Csc1ukGlGxgbahv0lU2A0iZlaX6q5wgX87ogguPkY36kUr1YVSD9EDh48MOMwOqXDEXBXtG-jzLChkINaw6WZOQSaRUr2fZMHhMWjD-LbsZUM4gJaRyv7h3pZ648GXu6qK1TWN8o37Ho6tM86zntZzJG9pTUHABa8VD9SbK7lq4_TFzGK0?></g></svg>