<svg xmlns="http://www.w3.org/2000/svg" xmlns:xlink="http://www.w3.org/1999/xlink" contentStyleType="text/css" data-diagram-type="CLASS" height="570px" preserveAspectRatio="none" style="width:438px;height:570px;background:#FFFFFF;" version="1.1" viewBox="0 0 438 570" width="438px" zoomAndPan="magnify"><?plantuml 1.2026.6?><defs/><g><!--class School--><g class="entity" data-qualified-name="School" data-source-line="1" id="ent0001"><rect fill="#F1F1F1" height="48" rx="2.5" ry="2.5" style="stroke:#181818;stroke-width:0.5;" width="76.6455" x="7" y="132"/><ellipse cx="22" cy="148" fill="#ADD1B2" rx="11" ry="11" style="stroke:#181818;stroke-width:1;"/><path d="M24.4731,154.1431 Q23.8921,154.4419 23.2529,154.5913 Q22.6138,154.7407 21.9082,154.7407 Q19.4014,154.7407 18.0815,153.0889 Q16.7617,151.437 16.7617,148.3159 Q16.7617,145.1865 18.0815,143.5347 Q19.4014,141.8828 21.9082,141.8828 Q22.6138,141.8828 23.2612,142.0322 Q23.9087,142.1816 24.4731,142.4805 L24.4731,145.2031 Q23.8423,144.6221 23.2488,144.3523 Q22.6553,144.0825 22.0244,144.0825 Q20.6797,144.0825 19.9949,145.1492 Q19.3101,146.2158 19.3101,148.3159 Q19.3101,150.4077 19.9949,151.4744 Q20.6797,152.541 22.0244,152.541 Q22.6553,152.541 23.2488,152.2712 Q23.8423,152.0015 24.4731,151.4204 Z " fill="#000000"/><text fill="#000000" font-family="sans-serif" font-size="14" lengthAdjust="spacing" textLength="44.6455" x="36" y="153.291">School</text><line style="stroke:#181818;stroke-width:0.5;" x1="8" x2="82.6455" y1="164" y2="164"/><line style="stroke:#181818;stroke-width:0.5;" x1="8" x2="82.6455" y1="172" y2="172"/></g><!--class SchoolClass--><g class="entity" data-qualified-name="SchoolClass" data-source-line="2" id="ent0002"><rect fill="#F1F1F1" height="48" rx="2.5" ry="2.5" style="stroke:#181818;stroke-width:0.5;" width="112.3838" x="97.13" y="257"/><ellipse cx="112.13" cy="273" fill="#ADD1B2" rx="11" ry="11" style="stroke:#181818;stroke-width:1;"/><path d="M114.6031,279.1431 Q114.0221,279.4419 113.3829,279.5913 Q112.7438,279.7407 112.0382,279.7407 Q109.5314,279.7407 108.2115,278.0889 Q106.8917,276.437 106.8917,273.3159 Q106.8917,270.1865 108.2115,268.5347 Q109.5314,266.8828 112.0382,266.8828 Q112.7438,266.8828 113.3912,267.0322 Q114.0387,267.1816 114.6031,267.4805 L114.6031,270.2031 Q113.9723,269.6221 113.3788,269.3523 Q112.7853,269.0825 112.1544,269.0825 Q110.8097,269.0825 110.1249,270.1492 Q109.4401,271.2158 109.4401,273.3159 Q109.4401,275.4077 110.1249,276.4744 Q110.8097,277.541 112.1544,277.541 Q112.7853,277.541 113.3788,277.2712 Q113.9723,277.0015 114.6031,276.4204 Z " fill="#000000"/><text fill="#000000" font-family="sans-serif" font-size="14" lengthAdjust="spacing" textLength="80.3838" x="126.13" y="278.291">SchoolClass</text><line style="stroke:#181818;stroke-width:0.5;" x1="98.13" x2="208.5138" y1="289" y2="289"/><line style="stroke:#181818;stroke-width:0.5;" x1="98.13" x2="208.5138" y1="297" y2="297"/></g><!--class Teacher--><g class="entity" data-qualified-name="Teacher" data-source-line="3" id="ent0003"><rect fill="#F1F1F1" height="48" rx="2.5" ry="2.5" style="stroke:#181818;stroke-width:0.5;" width="85.7715" x="220.44" y="132"/><ellipse cx="235.44" cy="148" fill="#ADD1B2" rx="11" ry="11" style="stroke:#181818;stroke-width:1;"/><path d="M237.9131,154.1431 Q237.3321,154.4419 236.6929,154.5913 Q236.0538,154.7407 235.3482,154.7407 Q232.8414,154.7407 231.5215,153.0889 Q230.2017,151.437 230.2017,148.3159 Q230.2017,145.1865 231.5215,143.5347 Q232.8414,141.8828 235.3482,141.8828 Q236.0538,141.8828 236.7012,142.0322 Q237.3487,142.1816 237.9131,142.4805 L237.9131,145.2031 Q237.2823,144.6221 236.6888,144.3523 Q236.0953,144.0825 235.4644,144.0825 Q234.1197,144.0825 233.4349,145.1492 Q232.7501,146.2158 232.7501,148.3159 Q232.7501,150.4077 233.4349,151.4744 Q234.1197,152.541 235.4644,152.541 Q236.0953,152.541 236.6888,152.2712 Q237.2823,152.0015 237.9131,151.4204 Z " fill="#000000"/><text fill="#000000" font-family="sans-serif" font-size="14" lengthAdjust="spacing" textLength="53.7715" x="249.44" y="153.291">Teacher</text><line style="stroke:#181818;stroke-width:0.5;" x1="221.44" x2="305.2115" y1="164" y2="164"/><line style="stroke:#181818;stroke-width:0.5;" x1="221.44" x2="305.2115" y1="172" y2="172"/></g><!--class Student--><g class="entity" data-qualified-name="Student" data-source-line="4" id="ent0004"><rect fill="#F1F1F1" height="48" rx="2.5" ry="2.5" style="stroke:#181818;stroke-width:0.5;" width="84.001" x="111.32" y="382"/><ellipse cx="126.32" cy="398" fill="#ADD1B2" rx="11" ry="11" style="stroke:#181818;stroke-width:1;"/><path d="M128.7931,404.1431 Q128.2121,404.4419 127.5729,404.5913 Q126.9338,404.7407 126.2282,404.7407 Q123.7214,404.7407 122.4015,403.0889 Q121.0817,401.437 121.0817,398.3159 Q121.0817,395.1865 122.4015,393.5347 Q123.7214,391.8828 126.2282,391.8828 Q126.9338,391.8828 127.5812,392.0322 Q128.2287,392.1816 128.7931,392.4805 L128.7931,395.2031 Q128.1623,394.6221 127.5688,394.3523 Q126.9753,394.0825 126.3444,394.0825 Q124.9997,394.0825 124.3149,395.1492 Q123.6301,396.2158 123.6301,398.3159 Q123.6301,400.4077 124.3149,401.4744 Q124.9997,402.541 126.3444,402.541 Q126.9753,402.541 127.5688,402.2712 Q128.1623,402.0015 128.7931,401.4204 Z " fill="#000000"/><text fill="#000000" font-family="sans-serif" font-size="14" lengthAdjust="spacing" textLength="52.001" x="140.32" y="403.291">Student</text><line style="stroke:#181818;stroke-width:0.5;" x1="112.32" x2="194.321" y1="414" y2="414"/><line style="stroke:#181818;stroke-width:0.5;" x1="112.32" x2="194.321" y1="422" y2="422"/></g><!--class Lesson--><g class="entity" data-qualified-name="Lesson" data-source-line="5" id="ent0005"><rect fill="#F1F1F1" height="48" rx="2.5" ry="2.5" style="stroke:#181818;stroke-width:0.5;" width="78.8262" x="223.91" y="7"/><ellipse cx="238.91" cy="23" fill="#ADD1B2" rx="11" ry="11" style="stroke:#181818;stroke-width:1;"/><path d="M241.3831,29.1431 Q240.8021,29.4419 240.1629,29.5913 Q239.5238,29.7407 238.8182,29.7407 Q236.3114,29.7407 234.9915,28.0889 Q233.6717,26.437 233.6717,23.3159 Q233.6717,20.1865 234.9915,18.5347 Q236.3114,16.8828 238.8182,16.8828 Q239.5238,16.8828 240.1712,17.0322 Q240.8187,17.1816 241.3831,17.4805 L241.3831,20.2031 Q240.7523,19.6221 240.1588,19.3523 Q239.5653,19.0825 238.9344,19.0825 Q237.5897,19.0825 236.9049,20.1492 Q236.2201,21.2158 236.2201,23.3159 Q236.2201,25.4077 236.9049,26.4744 Q237.5897,27.541 238.9344,27.541 Q239.5653,27.541 240.1588,27.2712 Q240.7523,27.0015 241.3831,26.4204 Z " fill="#000000"/><text fill="#000000" font-family="sans-serif" font-size="14" lengthAdjust="spacing" textLength="46.8262" x="252.91" y="28.291">Lesson</text><line style="stroke:#181818;stroke-width:0.5;" x1="224.91" x2="301.7362" y1="39" y2="39"/><line style="stroke:#181818;stroke-width:0.5;" x1="224.91" x2="301.7362" y1="47" y2="47"/></g><!--class Subject--><g class="entity" data-qualified-name="Subject" data-source-line="6" id="ent0006"><rect fill="#F1F1F1" height="48" rx="2.5" ry="2.5" style="stroke:#181818;stroke-width:0.5;" width="81.5059" x="341.57" y="132"/><ellipse cx="356.57" cy="148" fill="#ADD1B2" rx="11" ry="11" style="stroke:#181818;stroke-width:1;"/><path d="M359.0431,154.1431 Q358.4621,154.4419 357.8229,154.5913 Q357.1838,154.7407 356.4782,154.7407 Q353.9714,154.7407 352.6515,153.0889 Q351.3317,151.437 351.3317,148.3159 Q351.3317,145.1865 352.6515,143.5347 Q353.9714,141.8828 356.4782,141.8828 Q357.1838,141.8828 357.8312,142.0322 Q358.4787,142.1816 359.0431,142.4805 L359.0431,145.2031 Q358.4123,144.6221 357.8188,144.3523 Q357.2253,144.0825 356.5944,144.0825 Q355.2497,144.0825 354.5649,145.1492 Q353.8801,146.2158 353.8801,148.3159 Q353.8801,150.4077 354.5649,151.4744 Q355.2497,152.541 356.5944,152.541 Q357.2253,152.541 357.8188,152.2712 Q358.4123,152.0015 359.0431,151.4204 Z " fill="#000000"/><text fill="#000000" font-family="sans-serif" font-size="14" lengthAdjust="spacing" textLength="49.5059" x="370.57" y="153.291">Subject</text><line style="stroke:#181818;stroke-width:0.5;" x1="342.57" x2="422.0759" y1="164" y2="164"/><line style="stroke:#181818;stroke-width:0.5;" x1="342.57" x2="422.0759" y1="172" y2="172"/></g><!--class ReportCard--><g class="entity" data-qualified-name="ReportCard" data-source-line="7" id="ent0007"><rect fill="#F1F1F1" height="48" rx="2.5" ry="2.5" style="stroke:#181818;stroke-width:0.5;" width="108.9863" x="98.83" y="507"/><ellipse cx="113.83" cy="523" fill="#ADD1B2" rx="11" ry="11" style="stroke:#181818;stroke-width:1;"/><path d="M116.3031,529.1431 Q115.7221,529.4419 115.0829,529.5913 Q114.4438,529.7407 113.7382,529.7407 Q111.2314,529.7407 109.9115,528.0889 Q108.5917,526.437 108.5917,523.3159 Q108.5917,520.1865 109.9115,518.5347 Q111.2314,516.8828 113.7382,516.8828 Q114.4438,516.8828 115.0912,517.0322 Q115.7387,517.1816 116.3031,517.4805 L116.3031,520.2031 Q115.6723,519.6221 115.0788,519.3523 Q114.4853,519.0825 113.8544,519.0825 Q112.5097,519.0825 111.8249,520.1492 Q111.1401,521.2158 111.1401,523.3159 Q111.1401,525.4077 111.8249,526.4744 Q112.5097,527.541 113.8544,527.541 Q114.4853,527.541 115.0788,527.2712 Q115.6723,527.0015 116.3031,526.4204 Z " fill="#000000"/><text fill="#000000" font-family="sans-serif" font-size="14" lengthAdjust="spacing" textLength="76.9863" x="127.83" y="528.291">ReportCard</text><line style="stroke:#181818;stroke-width:0.5;" x1="99.83" x2="206.8163" y1="539" y2="539"/><line style="stroke:#181818;stroke-width:0.5;" x1="99.83" x2="206.8163" y1="547" y2="547"/></g><!--reverse link School to SchoolClass--><g class="link" data-entity-1="ent0001" data-entity-2="ent0002" data-link-type="composition" data-source-line="9" id="lnk8"><path codeLine="9" d="M58.825,191.4049 C64.995,205.8449 69.54,213.16 81.32,227 C90.78,238.11 103.01,248.2 114.68,256.53" fill="none" id="School-backto-SchoolClass" style="stroke:#181818;stroke-width:1;"/><polygon fill="#181818" points="54.11,180.37,52.7892,187.4591,58.825,191.4049,60.1458,184.3158,54.11,180.37" style="stroke:#181818;stroke-width:1;stroke-linejoin:miter;stroke-miterlimit:10;"/><text fill="#000000" font-family="sans-serif" font-size="13" lengthAdjust="spacing" textLength="44.7192" x="82.32" y="223.5684">classes</text><text fill="#000000" font-family="sans-serif" font-size="13" lengthAdjust="spacing" textLength="8.2202" x="47.3037" y="200.7445">1</text><text fill="#000000" font-family="sans-serif" font-size="13" lengthAdjust="spacing" textLength="22.7119" x="80.6666" y="246.3435">0..*</text></g><!--link Teacher to SchoolClass--><g class="link" data-entity-1="ent0003" data-entity-2="ent0002" data-link-type="association" data-source-line="10" id="lnk9"><path codeLine="10" d="M242.37,180.42 C222.8,202.31 193.74,234.8 174.19,256.66" fill="none" id="Teacher-SchoolClass" style="stroke:#181818;stroke-width:1;"/><text fill="#000000" font-family="sans-serif" font-size="13" lengthAdjust="spacing" textLength="119.5454" x="215.91" y="223.5684">homeroom teacher</text><text fill="#000000" font-family="sans-serif" font-size="13" lengthAdjust="spacing" textLength="8.2202" x="228.6244" y="200.4058">1</text><text fill="#000000" font-family="sans-serif" font-size="13" lengthAdjust="spacing" textLength="22.7119" x="154.8099" y="246.1091">0..*</text></g><!--reverse link SchoolClass to Student--><g class="link" data-entity-1="ent0002" data-entity-2="ent0004" data-link-type="aggregation" data-source-line="11" id="lnk10"><path codeLine="11" d="M153.32,317.42 C153.32,339.31 153.32,359.8 153.32,381.66" fill="none" id="SchoolClass-backto-Student" style="stroke:#181818;stroke-width:1;"/><polygon fill="none" points="153.32,305.42,149.32,311.42,153.32,317.42,157.32,311.42,153.32,305.42" style="stroke:#181818;stroke-width:1;stroke-linejoin:miter;stroke-miterlimit:10;"/><text fill="#000000" font-family="sans-serif" font-size="13" lengthAdjust="spacing" textLength="54.5391" x="154.32" y="348.5684">students</text><text fill="#000000" font-family="sans-serif" font-size="13" lengthAdjust="spacing" textLength="8.2202" x="144.42" y="325.4058">1</text><text fill="#000000" font-family="sans-serif" font-size="13" lengthAdjust="spacing" textLength="22.7119" x="128.5923" y="371.1091">0..*</text></g><!--link Lesson to Subject--><g class="link" data-entity-1="ent0005" data-entity-2="ent0006" data-link-type="association" data-source-line="12" id="lnk11"><path codeLine="12" d="M288.83,55.32 C298.54,64.42 309.6,75.03 319.32,85 C334.05,100.1 349.93,117.76 362.06,131.56" fill="none" id="Lesson-Subject" style="stroke:#181818;stroke-width:1;"/><text fill="#000000" font-family="sans-serif" font-size="13" lengthAdjust="spacing" textLength="45.5952" x="336.32" y="98.5684">subject</text><text fill="#000000" font-family="sans-serif" font-size="13" lengthAdjust="spacing" textLength="22.7119" x="270.4528" y="75.6823">0..*</text><text fill="#000000" font-family="sans-serif" font-size="13" lengthAdjust="spacing" textLength="8.2202" x="348.1727" y="121.3808">1</text></g><!--link Lesson to Teacher--><g class="link" data-entity-1="ent0005" data-entity-2="ent0003" data-link-type="association" data-source-line="13" id="lnk12"><path codeLine="13" d="M263.32,55.42 C263.32,77.31 263.32,109.8 263.32,131.66" fill="none" id="Lesson-Teacher" style="stroke:#181818;stroke-width:1;"/><text fill="#000000" font-family="sans-serif" font-size="13" lengthAdjust="spacing" textLength="46.5728" x="264.32" y="98.5684">teacher</text><text fill="#000000" font-family="sans-serif" font-size="13" lengthAdjust="spacing" textLength="22.7119" x="238.8579" y="75.4058">0..*</text><text fill="#000000" font-family="sans-serif" font-size="13" lengthAdjust="spacing" textLength="8.2202" x="254.3217" y="121.1091">1</text></g><!--link Lesson to SchoolClass--><g class="link" data-entity-1="ent0005" data-entity-2="ent0002" data-link-type="association" data-source-line="14" id="lnk13"><path codeLine="14" d="M233.63,55.35 C212.51,73.76 185.46,101.37 171.32,132 C152.45,172.89 150.92,226.57 151.87,256.76" fill="none" id="Lesson-SchoolClass" style="stroke:#181818;stroke-width:1;"/><text fill="#000000" font-family="sans-serif" font-size="13" lengthAdjust="spacing" textLength="30.8496" x="172.32" y="161.0684">class</text><text fill="#000000" font-family="sans-serif" font-size="13" lengthAdjust="spacing" textLength="22.7119" x="201.7978" y="75.7196">0..*</text><text fill="#000000" font-family="sans-serif" font-size="13" lengthAdjust="spacing" textLength="8.2202" x="142.5012" y="246.2348">1</text></g><!--reverse link Student to ReportCard--><g class="link" data-entity-1="ent0004" data-entity-2="ent0007" data-link-type="composition" data-source-line="15" id="lnk14"><path codeLine="15" d="M153.32,442.42 C153.32,464.31 153.32,484.8 153.32,506.66" fill="none" id="Student-backto-ReportCard" style="stroke:#181818;stroke-width:1;"/><polygon fill="#181818" points="153.32,430.42,149.32,436.42,153.32,442.42,157.32,436.42,153.32,430.42" style="stroke:#181818;stroke-width:1;stroke-linejoin:miter;stroke-miterlimit:10;"/><text fill="#000000" font-family="sans-serif" font-size="13" lengthAdjust="spacing" textLength="76.9907" x="154.32" y="473.5684">report cards</text><text fill="#000000" font-family="sans-serif" font-size="13" lengthAdjust="spacing" textLength="8.2202" x="144.4203" y="450.4058">1</text><text fill="#000000" font-family="sans-serif" font-size="13" lengthAdjust="spacing" textLength="22.7119" x="128.5917" y="496.1091">0..*</text></g><?plantuml-src TL2x3i8m3Dpz5LR6IgrWxTgL2VY1DhKKeRP6SVh_v0aHbCtdkxFFriieWZTjc1VG5HX2dJjt6hKXMtYtpxIvZ2uambkXzkb1kb1NUh9rmsXdW3GKrLbXqxQeJbtNg7eLzXXT993NHV4_hU6LBFEABcUhwM3aofa2UvUaIY2bBe8WzPQSFkZo7OUo4gz_xpwUzdiRb2HVR_WyoYjj1AWzaXS0?></g></svg>