<svg xmlns="http://www.w3.org/2000/svg" xmlns:xlink="http://www.w3.org/1999/xlink" contentStyleType="text/css" data-diagram-type="CLASS" height="718px" preserveAspectRatio="none" style="width:892px;height:718px;background:#FFFFFF;" version="1.1" viewBox="0 0 892 718" width="892px" zoomAndPan="magnify"><?plantuml 1.2026.6?><defs/><g><!--class NotificationContract--><g class="entity" data-qualified-name="NotificationContract" data-source-line="2" id="ent0001"><rect fill="#F1F1F1" height="64.4883" rx="2.5" ry="2.5" style="stroke:#181818;stroke-width:0.5;" width="244.75" x="82.06" y="630.66"/><ellipse cx="131.6992" cy="646.66" fill="#B4A7E5" rx="11" ry="11" style="stroke:#181818;stroke-width:1;"/><path d="M128.1269,642.9251 L128.1269,640.7669 L135.5063,640.7669 L135.5063,642.9251 L133.041,642.9251 L133.041,651.0018 L135.5063,651.0018 L135.5063,653.16 L128.1269,653.16 L128.1269,651.0018 L130.5922,651.0018 L130.5922,642.9251 Z " fill="#000000"/><text fill="#000000" font-family="sans-serif" font-size="14" font-style="italic" lengthAdjust="spacing" textLength="136.9717" x="152.1992" y="651.951">NotificationContract</text><line style="stroke:#181818;stroke-width:0.5;" x1="83.06" x2="325.81" y1="662.66" y2="662.66"/><line style="stroke:#181818;stroke-width:0.5;" x1="83.06" x2="325.81" y1="670.66" y2="670.66"/><g data-visibility-modifier="PUBLIC_METHOD"><ellipse cx="93.06" cy="684.4041" fill="#84BE84" rx="3" ry="3" style="stroke:#038048;stroke-width:1;"/></g><text fill="#000000" font-family="sans-serif" font-size="14" lengthAdjust="spacing" textLength="218.75" x="102.06" y="688.1952">notify(message: String): Boolean</text></g><!--class MemberStatus--><g class="entity" data-qualified-name="MemberStatus" data-source-line="6" id="ent0002"><rect fill="#F1F1F1" height="97.4648" rx="2.5" ry="2.5" style="stroke:#181818;stroke-width:0.5;" width="128.8379" x="527.02" y="15.24"/><ellipse cx="542.02" cy="31.24" fill="#EB937F" rx="11" ry="11" style="stroke:#181818;stroke-width:1;"/><path d="M545.6343,37.74 L537.9145,37.74 L537.9145,25.3469 L545.6343,25.3469 L545.6343,27.5051 L540.3633,27.5051 L540.3633,30.178 L545.1362,30.178 L545.1362,32.3362 L540.3633,32.3362 L540.3633,35.5818 L545.6343,35.5818 Z " fill="#000000"/><text fill="#000000" font-family="sans-serif" font-size="14" lengthAdjust="spacing" textLength="96.8379" x="556.02" y="36.531">MemberStatus</text><line style="stroke:#181818;stroke-width:0.5;" x1="528.02" x2="654.8579" y1="47.24" y2="47.24"/><text fill="#000000" font-family="sans-serif" font-size="14" lengthAdjust="spacing" textLength="48.9727" x="533.02" y="64.7752">ACTIVE</text><text fill="#000000" font-family="sans-serif" font-size="14" lengthAdjust="spacing" textLength="53.252" x="533.02" y="81.2634">PASSIVE</text><text fill="#000000" font-family="sans-serif" font-size="14" lengthAdjust="spacing" textLength="66.5479" x="533.02" y="97.7517">RESIGNED</text><line style="stroke:#181818;stroke-width:0.5;" x1="528.02" x2="654.8579" y1="104.7048" y2="104.7048"/></g><!--class ApplicationStatus--><g class="entity" data-qualified-name="ApplicationStatus" data-source-line="12" id="ent0003"><rect fill="#F1F1F1" height="113.9531" rx="2.5" ry="2.5" style="stroke:#181818;stroke-width:0.5;" width="150.4189" x="691.23" y="7"/><ellipse cx="706.23" cy="23" fill="#EB937F" rx="11" ry="11" style="stroke:#181818;stroke-width:1;"/><path d="M709.8443,29.5 L702.1245,29.5 L702.1245,17.1069 L709.8443,17.1069 L709.8443,19.2651 L704.5733,19.2651 L704.5733,21.938 L709.3462,21.938 L709.3462,24.0962 L704.5733,24.0962 L704.5733,27.3418 L709.8443,27.3418 Z " fill="#000000"/><text fill="#000000" font-family="sans-serif" font-size="14" lengthAdjust="spacing" textLength="118.4189" x="720.23" y="28.291">ApplicationStatus</text><line style="stroke:#181818;stroke-width:0.5;" x1="692.23" x2="840.6489" y1="39" y2="39"/><text fill="#000000" font-family="sans-serif" font-size="14" lengthAdjust="spacing" textLength="64.9756" x="697.23" y="56.5352">RECEIVED</text><text fill="#000000" font-family="sans-serif" font-size="14" lengthAdjust="spacing" textLength="67.2656" x="697.23" y="73.0234">REVIEWED</text><text fill="#000000" font-family="sans-serif" font-size="14" lengthAdjust="spacing" textLength="71.2852" x="697.23" y="89.5117">ACCEPTED</text><text fill="#000000" font-family="sans-serif" font-size="14" lengthAdjust="spacing" textLength="64.9961" x="697.23" y="106">REJECTED</text><line style="stroke:#181818;stroke-width:0.5;" x1="692.23" x2="840.6489" y1="112.9531" y2="112.9531"/></g><!--class StateChapter--><g class="entity" data-qualified-name="StateChapter" data-source-line="19" id="ent0004"><rect fill="#F1F1F1" height="64.4883" rx="2.5" ry="2.5" style="stroke:#181818;stroke-width:0.5;" width="119.2266" x="372.82" y="31.73"/><ellipse cx="387.82" cy="47.73" fill="#ADD1B2" rx="11" ry="11" style="stroke:#181818;stroke-width:1;"/><path d="M390.2931,53.8731 Q389.7121,54.1719 389.0729,54.3213 Q388.4338,54.4707 387.7282,54.4707 Q385.2214,54.4707 383.9015,52.8189 Q382.5817,51.167 382.5817,48.0459 Q382.5817,44.9165 383.9015,43.2647 Q385.2214,41.6128 387.7282,41.6128 Q388.4338,41.6128 389.0812,41.7622 Q389.7287,41.9116 390.2931,42.2105 L390.2931,44.9331 Q389.6623,44.3521 389.0688,44.0823 Q388.4753,43.8125 387.8444,43.8125 Q386.4997,43.8125 385.8149,44.8792 Q385.1301,45.9458 385.1301,48.0459 Q385.1301,50.1377 385.8149,51.2044 Q386.4997,52.271 387.8444,52.271 Q388.4753,52.271 389.0688,52.0012 Q389.6623,51.7315 390.2931,51.1504 Z " fill="#000000"/><text fill="#000000" font-family="sans-serif" font-size="14" lengthAdjust="spacing" textLength="87.2266" x="401.82" y="53.021">StateChapter</text><line style="stroke:#181818;stroke-width:0.5;" x1="373.82" x2="491.0466" y1="63.73" y2="63.73"/><g data-visibility-modifier="PUBLIC_FIELD"><ellipse cx="383.82" cy="77.4741" fill="none" rx="3" ry="3" style="stroke:#038048;stroke-width:1;"/></g><text fill="#000000" font-family="sans-serif" font-size="14" lengthAdjust="spacing" textLength="86.1191" x="392.82" y="81.2652">name: String</text><line style="stroke:#181818;stroke-width:0.5;" x1="373.82" x2="491.0466" y1="88.2183" y2="88.2183"/></g><!--class DistrictChapter--><g class="entity" data-qualified-name="DistrictChapter" data-source-line="23" id="ent0005"><rect fill="#F1F1F1" height="64.4883" rx="2.5" ry="2.5" style="stroke:#181818;stroke-width:0.5;" width="134.7715" x="365.05" y="197.95"/><ellipse cx="380.05" cy="213.95" fill="#ADD1B2" rx="11" ry="11" style="stroke:#181818;stroke-width:1;"/><path d="M382.5231,220.0931 Q381.9421,220.3919 381.3029,220.5413 Q380.6638,220.6907 379.9582,220.6907 Q377.4514,220.6907 376.1315,219.0389 Q374.8117,217.387 374.8117,214.2659 Q374.8117,211.1365 376.1315,209.4847 Q377.4514,207.8328 379.9582,207.8328 Q380.6638,207.8328 381.3112,207.9822 Q381.9587,208.1316 382.5231,208.4305 L382.5231,211.1531 Q381.8923,210.5721 381.2988,210.3023 Q380.7053,210.0325 380.0744,210.0325 Q378.7297,210.0325 378.0449,211.0992 Q377.3601,212.1658 377.3601,214.2659 Q377.3601,216.3577 378.0449,217.4244 Q378.7297,218.491 380.0744,218.491 Q380.7053,218.491 381.2988,218.2212 Q381.8923,217.9515 382.5231,217.3704 Z " fill="#000000"/><text fill="#000000" font-family="sans-serif" font-size="14" lengthAdjust="spacing" textLength="102.7715" x="394.05" y="219.241">DistrictChapter</text><line style="stroke:#181818;stroke-width:0.5;" x1="366.05" x2="498.8215" y1="229.95" y2="229.95"/><g data-visibility-modifier="PUBLIC_FIELD"><ellipse cx="376.05" cy="243.6941" fill="none" rx="3" ry="3" style="stroke:#038048;stroke-width:1;"/></g><text fill="#000000" font-family="sans-serif" font-size="14" lengthAdjust="spacing" textLength="86.1191" x="385.05" y="247.4852">name: String</text><line style="stroke:#181818;stroke-width:0.5;" x1="366.05" x2="498.8215" y1="254.4383" y2="254.4383"/></g><!--class Member--><g class="entity" data-qualified-name="Member" data-source-line="27" id="ent0006"><rect fill="#F1F1F1" height="64.4883" rx="2.5" ry="2.5" style="stroke:#181818;stroke-width:0.5;" width="172.8633" x="203.01" y="480.93"/><ellipse cx="257.5574" cy="496.93" fill="#ADD1B2" rx="11" ry="11" style="stroke:#181818;stroke-width:1;"/><path d="M260.0305,503.0731 Q259.4495,503.3719 258.8103,503.5213 Q258.1711,503.6707 257.4656,503.6707 Q254.9587,503.6707 253.6389,502.0189 Q252.3191,500.367 252.3191,497.2459 Q252.3191,494.1165 253.6389,492.4647 Q254.9587,490.8128 257.4656,490.8128 Q258.1711,490.8128 258.8186,490.9622 Q259.4661,491.1116 260.0305,491.4105 L260.0305,494.1331 Q259.3996,493.5521 258.8061,493.2823 Q258.2126,493.0125 257.5818,493.0125 Q256.2371,493.0125 255.5522,494.0792 Q254.8674,495.1458 254.8674,497.2459 Q254.8674,499.3377 255.5522,500.4044 Q256.2371,501.471 257.5818,501.471 Q258.2126,501.471 258.8061,501.2012 Q259.3996,500.9315 260.0305,500.3504 Z " fill="#000000"/><text fill="#000000" font-family="sans-serif" font-size="14" lengthAdjust="spacing" textLength="55.2686" x="278.0574" y="502.221">Member</text><line style="stroke:#181818;stroke-width:0.5;" x1="204.01" x2="374.8733" y1="512.93" y2="512.93"/><g data-visibility-modifier="PUBLIC_FIELD"><ellipse cx="214.01" cy="526.6741" fill="none" rx="3" ry="3" style="stroke:#038048;stroke-width:1;"/></g><text fill="#000000" font-family="sans-serif" font-size="14" lengthAdjust="spacing" textLength="146.8633" x="223.01" y="530.4652">status: MemberStatus</text><line style="stroke:#181818;stroke-width:0.5;" x1="204.01" x2="374.8733" y1="537.4183" y2="537.4183"/></g><!--class MembershipApplication--><g class="entity" data-qualified-name="MembershipApplication" data-source-line="31" id="ent0007"><rect fill="#F1F1F1" height="64.4883" rx="2.5" ry="2.5" style="stroke:#181818;stroke-width:0.5;" width="269.7695" x="297.55" y="339.44"/><ellipse cx="347.7839" cy="355.44" fill="#ADD1B2" rx="11" ry="11" style="stroke:#181818;stroke-width:1;"/><path d="M350.257,361.5831 Q349.676,361.8819 349.0368,362.0313 Q348.3977,362.1807 347.6921,362.1807 Q345.1853,362.1807 343.8654,360.5289 Q342.5456,358.877 342.5456,355.7559 Q342.5456,352.6265 343.8654,350.9747 Q345.1853,349.3228 347.6921,349.3228 Q348.3977,349.3228 349.0451,349.4722 Q349.6926,349.6216 350.257,349.9205 L350.257,352.6431 Q349.6262,352.0621 349.0327,351.7923 Q348.4392,351.5225 347.8083,351.5225 Q346.4636,351.5225 345.7788,352.5892 Q345.0939,353.6558 345.0939,355.7559 Q345.0939,357.8477 345.7788,358.9144 Q346.4636,359.981 347.8083,359.981 Q348.4392,359.981 349.0327,359.7112 Q349.6262,359.4415 350.257,358.8604 Z " fill="#000000"/><text fill="#000000" font-family="sans-serif" font-size="14" lengthAdjust="spacing" textLength="160.8018" x="368.2839" y="360.731">MembershipApplication</text><line style="stroke:#181818;stroke-width:0.5;" x1="298.55" x2="566.3195" y1="371.44" y2="371.44"/><g data-visibility-modifier="PUBLIC_FIELD"><ellipse cx="308.55" cy="385.1841" fill="none" rx="3" ry="3" style="stroke:#038048;stroke-width:1;"/></g><text fill="#000000" font-family="sans-serif" font-size="14" lengthAdjust="spacing" textLength="243.7695" x="317.55" y="388.9752">applicationStatus: ApplicationStatus</text><line style="stroke:#181818;stroke-width:0.5;" x1="298.55" x2="566.3195" y1="395.9283" y2="395.9283"/></g><!--class Committee--><g class="entity" data-qualified-name="Committee" data-source-line="35" id="ent0008"><rect fill="#F1F1F1" height="64.4883" rx="2.5" ry="2.5" style="stroke:#181818;stroke-width:0.5;" width="112.1191" x="32.38" y="197.95"/><ellipse cx="49.888" cy="213.95" fill="#ADD1B2" rx="11" ry="11" style="stroke:#181818;stroke-width:1;"/><path d="M52.3611,220.0931 Q51.78,220.3919 51.1409,220.5413 Q50.5017,220.6907 49.7962,220.6907 Q47.2893,220.6907 45.9695,219.0389 Q44.6497,217.387 44.6497,214.2659 Q44.6497,211.1365 45.9695,209.4847 Q47.2893,207.8328 49.7962,207.8328 Q50.5017,207.8328 51.1492,207.9822 Q51.7967,208.1316 52.3611,208.4305 L52.3611,211.1531 Q51.7302,210.5721 51.1367,210.3023 Q50.5432,210.0325 49.9124,210.0325 Q48.5676,210.0325 47.8828,211.0992 Q47.198,212.1658 47.198,214.2659 Q47.198,216.3577 47.8828,217.4244 Q48.5676,218.491 49.9124,218.491 Q50.5432,218.491 51.1367,218.2212 Q51.7302,217.9515 52.3611,217.3704 Z " fill="#000000"/><text fill="#000000" font-family="sans-serif" font-size="14" lengthAdjust="spacing" textLength="74.5459" x="64.4453" y="219.241">Committee</text><line style="stroke:#181818;stroke-width:0.5;" x1="33.38" x2="143.4991" y1="229.95" y2="229.95"/><g data-visibility-modifier="PUBLIC_FIELD"><ellipse cx="43.38" cy="243.6941" fill="none" rx="3" ry="3" style="stroke:#038048;stroke-width:1;"/></g><text fill="#000000" font-family="sans-serif" font-size="14" lengthAdjust="spacing" textLength="86.1191" x="52.38" y="247.4852">name: String</text><line style="stroke:#181818;stroke-width:0.5;" x1="33.38" x2="143.4991" y1="254.4383" y2="254.4383"/></g><!--class Mandate--><g class="entity" data-qualified-name="Mandate" data-source-line="39" id="ent0009"><rect fill="#F1F1F1" height="64.4883" rx="2.5" ry="2.5" style="stroke:#181818;stroke-width:0.5;" width="162.876" x="7" y="339.44"/><ellipse cx="55.1592" cy="355.44" fill="#ADD1B2" rx="11" ry="11" style="stroke:#181818;stroke-width:1;"/><path d="M57.6323,361.5831 Q57.0513,361.8819 56.4121,362.0313 Q55.7729,362.1807 55.0674,362.1807 Q52.5605,362.1807 51.2407,360.5289 Q49.9209,358.877 49.9209,355.7559 Q49.9209,352.6265 51.2407,350.9747 Q52.5605,349.3228 55.0674,349.3228 Q55.7729,349.3228 56.4204,349.4722 Q57.0679,349.6216 57.6323,349.9205 L57.6323,352.6431 Q57.0015,352.0621 56.408,351.7923 Q55.8145,351.5225 55.1836,351.5225 Q53.8389,351.5225 53.1541,352.5892 Q52.4692,353.6558 52.4692,355.7559 Q52.4692,357.8477 53.1541,358.9144 Q53.8389,359.981 55.1836,359.981 Q55.8145,359.981 56.408,359.7112 Q57.0015,359.4415 57.6323,358.8604 Z " fill="#000000"/><text fill="#000000" font-family="sans-serif" font-size="14" lengthAdjust="spacing" textLength="58.0576" x="75.6592" y="360.731">Mandate</text><line style="stroke:#181818;stroke-width:0.5;" x1="8" x2="168.876" y1="371.44" y2="371.44"/><g data-visibility-modifier="PUBLIC_FIELD"><ellipse cx="18" cy="385.1841" fill="none" rx="3" ry="3" style="stroke:#038048;stroke-width:1;"/></g><text fill="#000000" font-family="sans-serif" font-size="14" lengthAdjust="spacing" textLength="136.876" x="27" y="388.9752">termOfOffice: String</text><line style="stroke:#181818;stroke-width:0.5;" x1="8" x2="168.876" y1="395.9283" y2="395.9283"/></g><!--class Campaign--><g class="entity" data-qualified-name="Campaign" data-source-line="43" id="ent0010"><rect fill="#F1F1F1" height="64.4883" rx="2.5" ry="2.5" style="stroke:#181818;stroke-width:0.5;" width="112.1191" x="581.38" y="480.93"/><ellipse cx="601.6104" cy="496.93" fill="#ADD1B2" rx="11" ry="11" style="stroke:#181818;stroke-width:1;"/><path d="M604.0835,503.0731 Q603.5025,503.3719 602.8633,503.5213 Q602.2241,503.6707 601.5186,503.6707 Q599.0117,503.6707 597.6919,502.0189 Q596.3721,500.367 596.3721,497.2459 Q596.3721,494.1165 597.6919,492.4647 Q599.0117,490.8128 601.5186,490.8128 Q602.2241,490.8128 602.8716,490.9622 Q603.5191,491.1116 604.0835,491.4105 L604.0835,494.1331 Q603.4527,493.5521 602.8592,493.2823 Q602.2656,493.0125 601.6348,493.0125 Q600.2901,493.0125 599.6052,494.0792 Q598.9204,495.1458 598.9204,497.2459 Q598.9204,499.3377 599.6052,500.4044 Q600.2901,501.471 601.6348,501.471 Q602.2656,501.471 602.8592,501.2012 Q603.4527,500.9315 604.0835,500.3504 Z " fill="#000000"/><text fill="#000000" font-family="sans-serif" font-size="14" lengthAdjust="spacing" textLength="68.4961" x="616.7727" y="502.221">Campaign</text><line style="stroke:#181818;stroke-width:0.5;" x1="582.38" x2="692.4991" y1="512.93" y2="512.93"/><g data-visibility-modifier="PUBLIC_FIELD"><ellipse cx="592.38" cy="526.6741" fill="none" rx="3" ry="3" style="stroke:#038048;stroke-width:1;"/></g><text fill="#000000" font-family="sans-serif" font-size="14" lengthAdjust="spacing" textLength="86.1191" x="601.38" y="530.4652">name: String</text><line style="stroke:#181818;stroke-width:0.5;" x1="582.38" x2="692.4991" y1="537.4183" y2="537.4183"/></g><!--class Deployment--><g class="entity" data-qualified-name="Deployment" data-source-line="47" id="ent0011"><rect fill="#F1F1F1" height="64.4883" rx="2.5" ry="2.5" style="stroke:#181818;stroke-width:0.5;" width="113.8535" x="361.51" y="630.66"/><ellipse cx="376.51" cy="646.66" fill="#ADD1B2" rx="11" ry="11" style="stroke:#181818;stroke-width:1;"/><path d="M378.9831,652.8031 Q378.4021,653.1019 377.7629,653.2513 Q377.1238,653.4007 376.4182,653.4007 Q373.9114,653.4007 372.5915,651.7489 Q371.2717,650.097 371.2717,646.9759 Q371.2717,643.8465 372.5915,642.1947 Q373.9114,640.5428 376.4182,640.5428 Q377.1238,640.5428 377.7712,640.6922 Q378.4187,640.8416 378.9831,641.1405 L378.9831,643.8631 Q378.3523,643.2821 377.7588,643.0123 Q377.1653,642.7425 376.5344,642.7425 Q375.1897,642.7425 374.5049,643.8092 Q373.8201,644.8758 373.8201,646.9759 Q373.8201,649.0677 374.5049,650.1344 Q375.1897,651.201 376.5344,651.201 Q377.1653,651.201 377.7588,650.9312 Q378.3523,650.6615 378.9831,650.0804 Z " fill="#000000"/><text fill="#000000" font-family="sans-serif" font-size="14" lengthAdjust="spacing" textLength="81.8535" x="390.51" y="651.951">Deployment</text><line style="stroke:#181818;stroke-width:0.5;" x1="362.51" x2="474.3635" y1="662.66" y2="662.66"/><g data-visibility-modifier="PUBLIC_FIELD"><ellipse cx="372.51" cy="676.4041" fill="none" rx="3" ry="3" style="stroke:#038048;stroke-width:1;"/></g><text fill="#000000" font-family="sans-serif" font-size="14" lengthAdjust="spacing" textLength="65.6592" x="381.51" y="680.1952">hours: Int</text><line style="stroke:#181818;stroke-width:0.5;" x1="362.51" x2="474.3635" y1="687.1483" y2="687.1483"/></g><!--class Payment--><g class="entity" data-qualified-name="Payment" data-source-line="51" id="ent0012"><rect fill="#F1F1F1" height="80.9766" rx="2.5" ry="2.5" style="stroke:#181818;stroke-width:0.5;" width="135.3066" x="741.78" y="622.41"/><ellipse cx="777.3574" cy="638.41" fill="#A9DCDF" rx="11" ry="11" style="stroke:#181818;stroke-width:1;"/><path d="M777.2207,633.7581 L776.0669,638.8299 L778.3828,638.8299 Z M775.7265,631.5169 L778.7231,631.5169 L782.0683,643.91 L779.6196,643.91 L778.8559,640.847 L775.5771,640.847 L774.83,643.91 L772.3813,643.91 Z " fill="#000000"/><text fill="#000000" font-family="sans-serif" font-size="14" font-style="italic" lengthAdjust="spacing" textLength="57.5791" x="795.9301" y="643.701">Payment</text><line style="stroke:#181818;stroke-width:0.5;" x1="742.78" x2="876.0866" y1="654.41" y2="654.41"/><g data-visibility-modifier="PUBLIC_FIELD"><ellipse cx="752.78" cy="668.1541" fill="none" rx="3" ry="3" style="stroke:#038048;stroke-width:1;"/></g><text fill="#000000" font-family="sans-serif" font-size="14" lengthAdjust="spacing" textLength="109.3066" x="761.78" y="671.9452">amount: Double</text><g data-visibility-modifier="PUBLIC_FIELD"><ellipse cx="752.78" cy="684.6424" fill="none" rx="3" ry="3" style="stroke:#038048;stroke-width:1;"/></g><text fill="#000000" font-family="sans-serif" font-size="14" lengthAdjust="spacing" textLength="69.6924" x="761.78" y="688.4334">date: Date</text><line style="stroke:#181818;stroke-width:0.5;" x1="742.78" x2="876.0866" y1="695.3866" y2="695.3866"/></g><!--class MembershipFeePayment--><g class="entity" data-qualified-name="MembershipFeePayment" data-source-line="56" id="ent0013"><rect fill="#F1F1F1" height="64.4883" rx="2.5" ry="2.5" style="stroke:#181818;stroke-width:0.5;" width="196.6367" x="510.12" y="630.66"/><ellipse cx="525.12" cy="646.66" fill="#ADD1B2" rx="11" ry="11" style="stroke:#181818;stroke-width:1;"/><path d="M527.5931,652.8031 Q527.0121,653.1019 526.3729,653.2513 Q525.7338,653.4007 525.0282,653.4007 Q522.5214,653.4007 521.2015,651.7489 Q519.8817,650.097 519.8817,646.9759 Q519.8817,643.8465 521.2015,642.1947 Q522.5214,640.5428 525.0282,640.5428 Q525.7338,640.5428 526.3812,640.6922 Q527.0287,640.8416 527.5931,641.1405 L527.5931,643.8631 Q526.9623,643.2821 526.3688,643.0123 Q525.7753,642.7425 525.1444,642.7425 Q523.7997,642.7425 523.1149,643.8092 Q522.4301,644.8758 522.4301,646.9759 Q522.4301,649.0677 523.1149,650.1344 Q523.7997,651.201 525.1444,651.201 Q525.7753,651.201 526.3688,650.9312 Q526.9623,650.6615 527.5931,650.0804 Z " fill="#000000"/><text fill="#000000" font-family="sans-serif" font-size="14" lengthAdjust="spacing" textLength="164.6367" x="539.12" y="651.951">MembershipFeePayment</text><line style="stroke:#181818;stroke-width:0.5;" x1="511.12" x2="705.7567" y1="662.66" y2="662.66"/><g data-visibility-modifier="PUBLIC_FIELD"><ellipse cx="521.12" cy="676.4041" fill="none" rx="3" ry="3" style="stroke:#038048;stroke-width:1;"/></g><text fill="#000000" font-family="sans-serif" font-size="14" lengthAdjust="spacing" textLength="140.3418" x="530.12" y="680.1952">contributionYear: Int</text><line style="stroke:#181818;stroke-width:0.5;" x1="511.12" x2="705.7567" y1="687.1483" y2="687.1483"/></g><!--class Donation--><g class="entity" data-qualified-name="Donation" data-source-line="60" id="ent0014"><rect fill="#F1F1F1" height="48" rx="2.5" ry="2.5" style="stroke:#181818;stroke-width:0.5;" width="94.0771" x="732.4" y="347.68"/><ellipse cx="747.4" cy="363.68" fill="#ADD1B2" rx="11" ry="11" style="stroke:#181818;stroke-width:1;"/><path d="M749.8731,369.8231 Q749.2921,370.1219 748.6529,370.2713 Q748.0138,370.4207 747.3082,370.4207 Q744.8014,370.4207 743.4815,368.7689 Q742.1617,367.117 742.1617,363.9959 Q742.1617,360.8665 743.4815,359.2147 Q744.8014,357.5628 747.3082,357.5628 Q748.0138,357.5628 748.6612,357.7122 Q749.3087,357.8616 749.8731,358.1605 L749.8731,360.8831 Q749.2423,360.3021 748.6488,360.0323 Q748.0553,359.7625 747.4244,359.7625 Q746.0797,359.7625 745.3949,360.8292 Q744.7101,361.8958 744.7101,363.9959 Q744.7101,366.0877 745.3949,367.1544 Q746.0797,368.221 747.4244,368.221 Q748.0553,368.221 748.6488,367.9512 Q749.2423,367.6815 749.8731,367.1004 Z " fill="#000000"/><text fill="#000000" font-family="sans-serif" font-size="14" lengthAdjust="spacing" textLength="62.0771" x="761.4" y="368.971">Donation</text><line style="stroke:#181818;stroke-width:0.5;" x1="733.4" x2="825.4771" y1="379.68" y2="379.68"/><line style="stroke:#181818;stroke-width:0.5;" x1="733.4" x2="825.4771" y1="387.68" y2="387.68"/></g><!--link Member to NotificationContract--><g class="link" data-entity-1="ent0006" data-entity-2="ent0001" data-link-type="extension" data-source-line="64" id="lnk15"><path codeLine="64" d="M271.2,545.86 C256.86,570.79 245.9604,589.7502 231.6204,614.6602" fill="none" id="Member-to-NotificationContract" style="stroke:#181818;stroke-width:1;stroke-dasharray:7,7;"/><polygon fill="none" points="222.64,630.26,236.8203,617.6537,226.4204,611.6668,222.64,630.26" style="stroke:#181818;stroke-width:1;stroke-linejoin:miter;stroke-miterlimit:10;"/></g><!--reverse link StateChapter to DistrictChapter--><g class="link" data-entity-1="ent0004" data-entity-2="ent0005" data-link-type="composition" data-source-line="66" id="lnk16"><path codeLine="66" d="M432.44,108.64 C432.44,137.72 432.44,168.58 432.44,197.63" fill="none" id="StateChapter-backto-DistrictChapter" style="stroke:#181818;stroke-width:1;"/><polygon fill="#181818" points="432.44,96.64,428.44,102.64,432.44,108.64,436.44,102.64,432.44,96.64" style="stroke:#181818;stroke-width:1;stroke-linejoin:miter;stroke-miterlimit:10;"/><text fill="#000000" font-family="sans-serif" font-size="13" lengthAdjust="spacing" textLength="68.0913" x="433.44" y="164.5184">consists of</text><text fill="#000000" font-family="sans-serif" font-size="13" lengthAdjust="spacing" textLength="8.2202" x="423.6998" y="116.8946">1</text><text fill="#000000" font-family="sans-serif" font-size="13" lengthAdjust="spacing" textLength="22.7119" x="408.2455" y="186.9672">0..*</text></g><!--reverse link DistrictChapter to Member--><g class="link" data-entity-1="ent0005" data-entity-2="ent0006" data-link-type="composition" data-source-line="68" id="lnk17"><path codeLine="68" d="M353.7525,258.7817 C314.8625,275.7617 280.31,298.4 257.44,339.44 C232.57,384.06 253.94,444.24 271.69,480.51" fill="none" id="DistrictChapter-backto-Member" style="stroke:#181818;stroke-width:1;"/><polygon fill="#181818" points="364.75,253.98,357.6507,252.715,353.7525,258.7817,360.8518,260.0467,364.75,253.98" style="stroke:#181818;stroke-width:1;stroke-linejoin:miter;stroke-miterlimit:10;"/><text fill="#000000" font-family="sans-serif" font-size="13" lengthAdjust="spacing" textLength="21.874" x="258.44" y="376.7484">has</text><text fill="#000000" font-family="sans-serif" font-size="13" lengthAdjust="spacing" textLength="8.2202" x="348.9214" y="253.3466">1</text><text fill="#000000" font-family="sans-serif" font-size="13" lengthAdjust="spacing" textLength="22.7119" x="244.0996" y="470.2016">0..*</text></g><!--reverse link DistrictChapter to MembershipApplication--><g class="link" data-entity-1="ent0005" data-entity-2="ent0007" data-link-type="aggregation" data-source-line="70" id="lnk18"><path codeLine="70" d="M432.44,274.84 C432.44,297.67 432.44,316.35 432.44,339.15" fill="none" id="DistrictChapter-backto-MembershipApplication" style="stroke:#181818;stroke-width:1;"/><polygon fill="none" points="432.44,262.84,428.44,268.84,432.44,274.84,436.44,268.84,432.44,262.84" style="stroke:#181818;stroke-width:1;stroke-linejoin:miter;stroke-miterlimit:10;"/><text fill="#000000" font-family="sans-serif" font-size="13" lengthAdjust="spacing" textLength="50.8193" x="433.44" y="306.0084">receives</text><text fill="#000000" font-family="sans-serif" font-size="13" lengthAdjust="spacing" textLength="8.2202" x="423.6993" y="283.0908">1</text><text fill="#000000" font-family="sans-serif" font-size="13" lengthAdjust="spacing" textLength="22.7119" x="408.2457" y="328.4933">0..*</text></g><!--link MembershipApplication to Member--><g class="link" data-entity-1="ent0007" data-entity-2="ent0006" data-link-type="association" data-source-line="72" id="lnk19"><path codeLine="72" d="M399.99,404.33 C376.59,427.16 345.13,457.84 321.76,480.64" fill="none" id="MembershipApplication-Member" style="stroke:#181818;stroke-width:1;"/><text fill="#000000" font-family="sans-serif" font-size="13" lengthAdjust="spacing" textLength="58.4429" x="370.5" y="447.4984">results in</text><text fill="#000000" font-family="sans-serif" font-size="13" lengthAdjust="spacing" textLength="8.2202" x="385.0637" y="424.5808">1</text><text fill="#000000" font-family="sans-serif" font-size="13" lengthAdjust="spacing" textLength="8.2202" x="319.6234" y="469.9833">1</text></g><!--reverse link Committee to Mandate--><g class="link" data-entity-1="ent0008" data-entity-2="ent0009" data-link-type="composition" data-source-line="74" id="lnk20"><path codeLine="74" d="M88.44,274.84 C88.44,297.67 88.44,316.35 88.44,339.15" fill="none" id="Committee-backto-Mandate" style="stroke:#181818;stroke-width:1;"/><polygon fill="#181818" points="88.44,262.84,84.44,268.84,88.44,274.84,92.44,268.84,88.44,262.84" style="stroke:#181818;stroke-width:1;stroke-linejoin:miter;stroke-miterlimit:10;"/><text fill="#000000" font-family="sans-serif" font-size="13" lengthAdjust="spacing" textLength="44.5034" x="89.44" y="306.0084">awards</text><text fill="#000000" font-family="sans-serif" font-size="13" lengthAdjust="spacing" textLength="8.2202" x="79.6986" y="283.0908">1</text><text fill="#000000" font-family="sans-serif" font-size="13" lengthAdjust="spacing" textLength="22.7119" x="64.2451" y="328.4933">0..*</text></g><!--link Mandate to Member--><g class="link" data-entity-1="ent0009" data-entity-2="ent0006" data-link-type="association" data-source-line="76" id="lnk21"><path codeLine="76" d="M114.85,404.12 C128.83,419.49 146.91,437.52 165.44,450.93 C180.61,461.9 198.05,471.87 214.97,480.43" fill="none" id="Mandate-Member" style="stroke:#181818;stroke-width:1;"/><text fill="#000000" font-family="sans-serif" font-size="13" lengthAdjust="spacing" textLength="46.3379" x="166.44" y="447.4984">held by</text><text fill="#000000" font-family="sans-serif" font-size="13" lengthAdjust="spacing" textLength="22.7119" x="95.9543" y="424.5813">0..*</text><text fill="#000000" font-family="sans-serif" font-size="13" lengthAdjust="spacing" textLength="8.2202" x="191.5426" y="470.1059">1</text></g><!--reverse link DistrictChapter to Campaign--><g class="link" data-entity-1="ent0005" data-entity-2="ent0010" data-link-type="composition" data-source-line="78" id="lnk22"><path codeLine="78" d="M505.0664,268.9332 C536.0064,287.4532 561.32,307.38 584.44,339.44 C615.36,382.31 628.54,443.57 633.93,480.45" fill="none" id="DistrictChapter-backto-Campaign" style="stroke:#181818;stroke-width:1;"/><polygon fill="#181818" points="494.77,262.77,497.8638,269.2837,505.0664,268.9332,501.9726,262.4195,494.77,262.77" style="stroke:#181818;stroke-width:1;stroke-linejoin:miter;stroke-miterlimit:10;"/><text fill="#000000" font-family="sans-serif" font-size="13" lengthAdjust="spacing" textLength="28.082" x="616.74" y="376.7484">runs</text><text fill="#000000" font-family="sans-serif" font-size="13" lengthAdjust="spacing" textLength="8.2202" x="497.911" y="283.0074">1</text><text fill="#000000" font-family="sans-serif" font-size="13" lengthAdjust="spacing" textLength="22.7119" x="609.1435" y="470.1298">0..*</text></g><!--link Member to Deployment--><g class="link" data-entity-1="ent0006" data-entity-2="ent0011" data-link-type="association" data-source-line="80" id="lnk23"><path codeLine="80" d="M316.86,545.8 C329.24,560.06 344.06,577.1 357.44,592.41 C368.32,604.87 380.31,618.55 390.77,630.45" fill="none" id="Member-Deployment" style="stroke:#181818;stroke-width:1;"/><text fill="#000000" font-family="sans-serif" font-size="13" lengthAdjust="spacing" textLength="95.5894" x="358.44" y="588.9784">participates via</text><text fill="#000000" font-family="sans-serif" font-size="13" lengthAdjust="spacing" textLength="8.2202" x="313.3451" y="566.047">1</text><text fill="#000000" font-family="sans-serif" font-size="13" lengthAdjust="spacing" textLength="22.7119" x="360.8684" y="619.8098">0..*</text></g><!--link Campaign to Deployment--><g class="link" data-entity-1="ent0010" data-entity-2="ent0011" data-link-type="association" data-source-line="81" id="lnk24"><path codeLine="81" d="M604.69,545.76 C588.23,560.81 567.53,578.52 547.44,592.41 C545.66,593.64 509.36,613.18 475.73,631.22" fill="none" id="Campaign-Deployment" style="stroke:#181818;stroke-width:1;"/><text fill="#000000" font-family="sans-serif" font-size="13" lengthAdjust="spacing" textLength="21.874" x="569.38" y="588.9784">has</text><text fill="#000000" font-family="sans-serif" font-size="13" lengthAdjust="spacing" textLength="8.2202" x="589.7056" y="565.9993">1</text><text fill="#000000" font-family="sans-serif" font-size="13" lengthAdjust="spacing" textLength="22.7119" x="479.503" y="623.0989">0..*</text></g><!--link Member to Payment--><g class="link" data-entity-1="ent0006" data-entity-2="ent0012" data-link-type="association" data-source-line="83" id="lnk25"><path codeLine="83" d="M376.25,544.44 C402.76,554 431.91,564.84 458.44,575.41 C476,582.42 479.22,587.35 497.44,592.41 C595.48,619.68 626.72,593.98 724.44,622.41 C730.06,624.05 735.79,626.01 741.47,628.16" fill="none" id="Member-Payment" style="stroke:#181818;stroke-width:1;"/><text fill="#000000" font-family="sans-serif" font-size="13" lengthAdjust="spacing" textLength="40.7837" x="498.44" y="588.9784">makes</text><text fill="#000000" font-family="sans-serif" font-size="13" lengthAdjust="spacing" textLength="8.2202" x="383.7792" y="543.9893">1</text><text fill="#000000" font-family="sans-serif" font-size="13" lengthAdjust="spacing" textLength="22.7119" x="713.8949" y="619.8853">0..*</text></g><!--link MembershipFeePayment to Payment--><g class="link" data-entity-1="ent0013" data-entity-2="ent0012" data-link-type="extension" data-source-line="85" id="lnk26"><path codeLine="85" d="M706.98,662.9 C718.45,662.9 711.92,662.9 723.4,662.9" fill="none" id="MembershipFeePayment-to-Payment" style="stroke:#181818;stroke-width:1;"/><polygon fill="none" points="741.4,662.9,723.4,656.9,723.4,668.9,741.4,662.9" style="stroke:#181818;stroke-width:1;stroke-linejoin:miter;stroke-miterlimit:10;"/></g><!--link Donation to Payment--><g class="link" data-entity-1="ent0014" data-entity-2="ent0012" data-link-type="extension" data-source-line="86" id="lnk27"><path codeLine="86" d="M782.66,395.92 C784.2,407.36 786.01,421.35 787.44,433.93 C794.93,499.91 800.4258,558.8898 804.4458,604.3898" fill="none" id="Donation-to-Payment" style="stroke:#181818;stroke-width:1;"/><polygon fill="none" points="806.03,622.32,810.4226,603.8618,798.4691,604.9179,806.03,622.32" style="stroke:#181818;stroke-width:1;stroke-linejoin:miter;stroke-miterlimit:10;"/></g><!--link Donation to Campaign--><g class="link" data-entity-1="ent0014" data-entity-2="ent0010" data-link-type="association" data-source-line="88" id="lnk28"><path codeLine="88" d="M740.4,395.98 C724.55,406.47 706.67,419.68 692.44,433.93 C678.59,447.78 665.82,465.49 656.08,480.55" fill="none" id="Donation-Campaign" style="stroke:#181818;stroke-width:1;"/><text fill="#000000" font-family="sans-serif" font-size="13" lengthAdjust="spacing" textLength="89.5972" x="693.44" y="447.4984">earmarked for</text><text fill="#000000" font-family="sans-serif" font-size="13" lengthAdjust="spacing" textLength="22.7119" x="706.2899" y="416.3375">0..*</text><text fill="#000000" font-family="sans-serif" font-size="13" lengthAdjust="spacing" textLength="24.667" x="662.178" y="470.2495">0..1</text></g><?plantuml-src ZLB1Zjem4BtxAqQSsgr0vUf39HhIYahTHHkqLOz3c11hOpkodQtGjlzUEp4XoIBQ2necxysyDtv2EJ85vWJtseb2vEY4LebMpc3ku9K1V53Xo-cT96lnI1moPuGwlkVmMUkAKB4_Z95g97mdkIUJENIDRQchPBTvIdsnNMLPLpscsURhVRhkIQkwhkBQ0VCnJL9FMBVbqoRzqPQh94ctkzZzbYQxRavUeRKGs9IKM7j7KJZANku5jnRMTtBt7z3EK8UmhJW-CZb5sbBK0pyT4QS6-LlFbq69bb8uHtHJ5wg3Dzj1l0VvK3mK_l6kG1EKDOgZkdaHgYjzagJYWvUwCLxbHhc0mRtjmj21jpX0ejIDSXpMkjbN53f1b__lVwyTvmlHY9-7e8bz4oxnaz3qIwCmhTeZiTVGYw-nMFp-T3MjZ8qYC5lEu6u-Xzd7nU9kzkRPEVZbrZSjw8AnwUS9E-xcKAAz3jPJy3GC70pb95x8dgrC4M5CcB8Sx3Dacyfh58gnIpQcwc8UEE0lD8Um87OYO3grfEe0-zC_RVVfyK8QrGllbSRJNlB3eKRZH2vglzt2Yq3MpxX1QgzwTVOvBXmaFezFDmZJt4SYrkmScb7pqXrSn5VBaKUVG8dccGvGQCF-0W00?></g></svg>