<svg xmlns="http://www.w3.org/2000/svg" xmlns:xlink="http://www.w3.org/1999/xlink" contentStyleType="text/css" data-diagram-type="CLASS" height="304px" preserveAspectRatio="none" style="width:1910px;height:304px;background:#FFFFFF;" version="1.1" viewBox="0 0 1910 304" width="1910px" zoomAndPan="magnify"><?plantuml 1.2026.6?><defs/><g><!--class WindTurbine--><g class="entity" data-qualified-name="WindTurbine" data-source-line="3" id="ent0001"><rect fill="#F1F1F1" height="48" rx="2.5" ry="2.5" style="stroke:#181818;stroke-width:0.5;" width="122.5693" x="840.11" y="7"/><ellipse cx="855.11" cy="23" fill="#ADD1B2" rx="11" ry="11" style="stroke:#181818;stroke-width:1;"/><path d="M857.5831,29.1431 Q857.0021,29.4419 856.3629,29.5913 Q855.7238,29.7407 855.0182,29.7407 Q852.5114,29.7407 851.1915,28.0889 Q849.8717,26.437 849.8717,23.3159 Q849.8717,20.1865 851.1915,18.5347 Q852.5114,16.8828 855.0182,16.8828 Q855.7238,16.8828 856.3712,17.0322 Q857.0187,17.1816 857.5831,17.4805 L857.5831,20.2031 Q856.9523,19.6221 856.3588,19.3523 Q855.7653,19.0825 855.1344,19.0825 Q853.7897,19.0825 853.1049,20.1492 Q852.4201,21.2158 852.4201,23.3159 Q852.4201,25.4077 853.1049,26.4744 Q853.7897,27.541 855.1344,27.541 Q855.7653,27.541 856.3588,27.2712 Q856.9523,27.0015 857.5831,26.4204 Z " fill="#000000"/><text fill="#000000" font-family="sans-serif" font-size="14" lengthAdjust="spacing" textLength="90.5693" x="869.11" y="28.291">Wind Turbine</text><line style="stroke:#181818;stroke-width:0.5;" x1="841.11" x2="961.6793" y1="39" y2="39"/><line style="stroke:#181818;stroke-width:0.5;" x1="841.11" x2="961.6793" y1="47" y2="47"/></g><!--class Rotor--><g class="entity" data-qualified-name="Rotor" data-source-line="4" id="ent0002"><rect fill="#F1F1F1" height="48" rx="2.5" ry="2.5" style="stroke:#181818;stroke-width:0.5;" width="69.0166" x="472.88" y="116"/><ellipse cx="487.88" cy="132" fill="#ADD1B2" rx="11" ry="11" style="stroke:#181818;stroke-width:1;"/><path d="M490.3531,138.1431 Q489.7721,138.4419 489.1329,138.5913 Q488.4938,138.7407 487.7882,138.7407 Q485.2814,138.7407 483.9615,137.0889 Q482.6417,135.437 482.6417,132.3159 Q482.6417,129.1865 483.9615,127.5347 Q485.2814,125.8828 487.7882,125.8828 Q488.4938,125.8828 489.1412,126.0322 Q489.7887,126.1816 490.3531,126.4805 L490.3531,129.2031 Q489.7223,128.6221 489.1288,128.3523 Q488.5353,128.0825 487.9044,128.0825 Q486.5597,128.0825 485.8749,129.1492 Q485.1901,130.2158 485.1901,132.3159 Q485.1901,134.4077 485.8749,135.4744 Q486.5597,136.541 487.9044,136.541 Q488.5353,136.541 489.1288,136.2712 Q489.7223,136.0015 490.3531,135.4204 Z " fill="#000000"/><text fill="#000000" font-family="sans-serif" font-size="14" lengthAdjust="spacing" textLength="37.0166" x="501.88" y="137.291">Rotor</text><line style="stroke:#181818;stroke-width:0.5;" x1="473.88" x2="540.8966" y1="148" y2="148"/><line style="stroke:#181818;stroke-width:0.5;" x1="473.88" x2="540.8966" y1="156" y2="156"/></g><!--class Hub--><g class="entity" data-qualified-name="Hub" data-source-line="5" id="ent0003"><rect fill="#F1F1F1" height="48" rx="2.5" ry="2.5" style="stroke:#181818;stroke-width:0.5;" width="59.7881" x="357.5" y="241"/><ellipse cx="372.5" cy="257" fill="#ADD1B2" rx="11" ry="11" style="stroke:#181818;stroke-width:1;"/><path d="M374.9731,263.1431 Q374.3921,263.4419 373.7529,263.5913 Q373.1138,263.7407 372.4082,263.7407 Q369.9014,263.7407 368.5815,262.0889 Q367.2617,260.437 367.2617,257.3159 Q367.2617,254.1865 368.5815,252.5347 Q369.9014,250.8828 372.4082,250.8828 Q373.1138,250.8828 373.7612,251.0322 Q374.4087,251.1816 374.9731,251.4805 L374.9731,254.2031 Q374.3423,253.6221 373.7488,253.3523 Q373.1553,253.0825 372.5244,253.0825 Q371.1797,253.0825 370.4949,254.1492 Q369.8101,255.2158 369.8101,257.3159 Q369.8101,259.4077 370.4949,260.4744 Q371.1797,261.541 372.5244,261.541 Q373.1553,261.541 373.7488,261.2712 Q374.3423,261.0015 374.9731,260.4204 Z " fill="#000000"/><text fill="#000000" font-family="sans-serif" font-size="14" lengthAdjust="spacing" textLength="27.7881" x="386.5" y="262.291">Hub</text><line style="stroke:#181818;stroke-width:0.5;" x1="358.5" x2="416.2881" y1="273" y2="273"/><line style="stroke:#181818;stroke-width:0.5;" x1="358.5" x2="416.2881" y1="281" y2="281"/></g><!--class RotorBlade--><g class="entity" data-qualified-name="RotorBlade" data-source-line="6" id="ent0004"><rect fill="#F1F1F1" height="48" rx="2.5" ry="2.5" style="stroke:#181818;stroke-width:0.5;" width="109.8887" x="1716.45" y="7"/><ellipse cx="1731.45" cy="23" fill="#A9DCDF" rx="11" ry="11" style="stroke:#181818;stroke-width:1;"/><path d="M1731.3133,18.3481 L1730.1595,23.4199 L1732.4754,23.4199 Z M1729.8191,16.1069 L1732.8157,16.1069 L1736.1609,28.5 L1733.7122,28.5 L1732.9485,25.437 L1729.6697,25.437 L1728.9227,28.5 L1726.4739,28.5 Z " fill="#000000"/><text fill="#000000" font-family="sans-serif" font-size="14" font-style="italic" lengthAdjust="spacing" textLength="77.8887" x="1745.45" y="28.291">Rotor Blade</text><line style="stroke:#181818;stroke-width:0.5;" x1="1717.45" x2="1825.3387" y1="39" y2="39"/><line style="stroke:#181818;stroke-width:0.5;" x1="1717.45" x2="1825.3387" y1="47" y2="47"/></g><!--class GFRPBlade--><g class="entity" data-qualified-name="GFRPBlade" data-source-line="7" id="ent0005"><rect fill="#F1F1F1" height="48" rx="2.5" ry="2.5" style="stroke:#181818;stroke-width:0.5;" width="107.0859" x="36.85" y="7"/><ellipse cx="51.85" cy="23" fill="#ADD1B2" rx="11" ry="11" style="stroke:#181818;stroke-width:1;"/><path d="M54.3231,29.1431 Q53.7421,29.4419 53.1029,29.5913 Q52.4638,29.7407 51.7582,29.7407 Q49.2514,29.7407 47.9315,28.0889 Q46.6117,26.437 46.6117,23.3159 Q46.6117,20.1865 47.9315,18.5347 Q49.2514,16.8828 51.7582,16.8828 Q52.4638,16.8828 53.1112,17.0322 Q53.7587,17.1816 54.3231,17.4805 L54.3231,20.2031 Q53.6923,19.6221 53.0988,19.3523 Q52.5053,19.0825 51.8744,19.0825 Q50.5297,19.0825 49.8449,20.1492 Q49.1601,21.2158 49.1601,23.3159 Q49.1601,25.4077 49.8449,26.4744 Q50.5297,27.541 51.8744,27.541 Q52.5053,27.541 53.0988,27.2712 Q53.6923,27.0015 54.3231,26.4204 Z " fill="#000000"/><text fill="#000000" font-family="sans-serif" font-size="14" lengthAdjust="spacing" textLength="75.0859" x="65.85" y="28.291">GFRP Blade</text><line style="stroke:#181818;stroke-width:0.5;" x1="37.85" x2="142.9359" y1="39" y2="39"/><line style="stroke:#181818;stroke-width:0.5;" x1="37.85" x2="142.9359" y1="47" y2="47"/></g><!--class CFRPBlade--><g class="entity" data-qualified-name="CFRPBlade" data-source-line="8" id="ent0006"><rect fill="#F1F1F1" height="48" rx="2.5" ry="2.5" style="stroke:#181818;stroke-width:0.5;" width="106.6553" x="179.06" y="7"/><ellipse cx="194.06" cy="23" fill="#ADD1B2" rx="11" ry="11" style="stroke:#181818;stroke-width:1;"/><path d="M196.5331,29.1431 Q195.9521,29.4419 195.3129,29.5913 Q194.6738,29.7407 193.9682,29.7407 Q191.4614,29.7407 190.1415,28.0889 Q188.8217,26.437 188.8217,23.3159 Q188.8217,20.1865 190.1415,18.5347 Q191.4614,16.8828 193.9682,16.8828 Q194.6738,16.8828 195.3212,17.0322 Q195.9687,17.1816 196.5331,17.4805 L196.5331,20.2031 Q195.9023,19.6221 195.3088,19.3523 Q194.7153,19.0825 194.0844,19.0825 Q192.7397,19.0825 192.0549,20.1492 Q191.3701,21.2158 191.3701,23.3159 Q191.3701,25.4077 192.0549,26.4744 Q192.7397,27.541 194.0844,27.541 Q194.7153,27.541 195.3088,27.2712 Q195.9023,27.0015 196.5331,26.4204 Z " fill="#000000"/><text fill="#000000" font-family="sans-serif" font-size="14" lengthAdjust="spacing" textLength="74.6553" x="208.06" y="28.291">CFRP Blade</text><line style="stroke:#181818;stroke-width:0.5;" x1="180.06" x2="284.7153" y1="39" y2="39"/><line style="stroke:#181818;stroke-width:0.5;" x1="180.06" x2="284.7153" y1="47" y2="47"/></g><!--class Drivetrain--><g class="entity" data-qualified-name="Drivetrain" data-source-line="9" id="ent0007"><rect fill="#F1F1F1" height="48" rx="2.5" ry="2.5" style="stroke:#181818;stroke-width:0.5;" width="98.7393" x="660.02" y="116"/><ellipse cx="675.02" cy="132" fill="#ADD1B2" rx="11" ry="11" style="stroke:#181818;stroke-width:1;"/><path d="M677.4931,138.1431 Q676.9121,138.4419 676.2729,138.5913 Q675.6338,138.7407 674.9282,138.7407 Q672.4214,138.7407 671.1015,137.0889 Q669.7817,135.437 669.7817,132.3159 Q669.7817,129.1865 671.1015,127.5347 Q672.4214,125.8828 674.9282,125.8828 Q675.6338,125.8828 676.2812,126.0322 Q676.9287,126.1816 677.4931,126.4805 L677.4931,129.2031 Q676.8623,128.6221 676.2688,128.3523 Q675.6753,128.0825 675.0444,128.0825 Q673.6997,128.0825 673.0149,129.1492 Q672.3301,130.2158 672.3301,132.3159 Q672.3301,134.4077 673.0149,135.4744 Q673.6997,136.541 675.0444,136.541 Q675.6753,136.541 676.2688,136.2712 Q676.8623,136.0015 677.4931,135.4204 Z " fill="#000000"/><text fill="#000000" font-family="sans-serif" font-size="14" lengthAdjust="spacing" textLength="66.7393" x="689.02" y="137.291">Drivetrain</text><line style="stroke:#181818;stroke-width:0.5;" x1="661.02" x2="757.7593" y1="148" y2="148"/><line style="stroke:#181818;stroke-width:0.5;" x1="661.02" x2="757.7593" y1="156" y2="156"/></g><!--class Gearbox--><g class="entity" data-qualified-name="Gearbox" data-source-line="10" id="ent0008"><rect fill="#F1F1F1" height="48" rx="2.5" ry="2.5" style="stroke:#181818;stroke-width:0.5;" width="89.374" x="597.71" y="241"/><ellipse cx="612.71" cy="257" fill="#ADD1B2" rx="11" ry="11" style="stroke:#181818;stroke-width:1;"/><path d="M615.1831,263.1431 Q614.6021,263.4419 613.9629,263.5913 Q613.3238,263.7407 612.6182,263.7407 Q610.1114,263.7407 608.7915,262.0889 Q607.4717,260.437 607.4717,257.3159 Q607.4717,254.1865 608.7915,252.5347 Q610.1114,250.8828 612.6182,250.8828 Q613.3238,250.8828 613.9712,251.0322 Q614.6187,251.1816 615.1831,251.4805 L615.1831,254.2031 Q614.5523,253.6221 613.9588,253.3523 Q613.3653,253.0825 612.7344,253.0825 Q611.3897,253.0825 610.7049,254.1492 Q610.0201,255.2158 610.0201,257.3159 Q610.0201,259.4077 610.7049,260.4744 Q611.3897,261.541 612.7344,261.541 Q613.3653,261.541 613.9588,261.2712 Q614.5523,261.0015 615.1831,260.4204 Z " fill="#000000"/><text fill="#000000" font-family="sans-serif" font-size="14" lengthAdjust="spacing" textLength="57.374" x="626.71" y="262.291">Gearbox</text><line style="stroke:#181818;stroke-width:0.5;" x1="598.71" x2="686.084" y1="273" y2="273"/><line style="stroke:#181818;stroke-width:0.5;" x1="598.71" x2="686.084" y1="281" y2="281"/></g><!--class Generator--><g class="entity" data-qualified-name="Generator" data-source-line="11" id="ent0009"><rect fill="#F1F1F1" height="48" rx="2.5" ry="2.5" style="stroke:#181818;stroke-width:0.5;" width="99.4297" x="721.68" y="241"/><ellipse cx="736.68" cy="257" fill="#ADD1B2" rx="11" ry="11" style="stroke:#181818;stroke-width:1;"/><path d="M739.1531,263.1431 Q738.5721,263.4419 737.9329,263.5913 Q737.2938,263.7407 736.5882,263.7407 Q734.0814,263.7407 732.7615,262.0889 Q731.4417,260.437 731.4417,257.3159 Q731.4417,254.1865 732.7615,252.5347 Q734.0814,250.8828 736.5882,250.8828 Q737.2938,250.8828 737.9412,251.0322 Q738.5887,251.1816 739.1531,251.4805 L739.1531,254.2031 Q738.5223,253.6221 737.9288,253.3523 Q737.3353,253.0825 736.7044,253.0825 Q735.3597,253.0825 734.6749,254.1492 Q733.9901,255.2158 733.9901,257.3159 Q733.9901,259.4077 734.6749,260.4744 Q735.3597,261.541 736.7044,261.541 Q737.3353,261.541 737.9288,261.2712 Q738.5223,261.0015 739.1531,260.4204 Z " fill="#000000"/><text fill="#000000" font-family="sans-serif" font-size="14" lengthAdjust="spacing" textLength="67.4297" x="750.68" y="262.291">Generator</text><line style="stroke:#181818;stroke-width:0.5;" x1="722.68" x2="820.1097" y1="273" y2="273"/><line style="stroke:#181818;stroke-width:0.5;" x1="722.68" x2="820.1097" y1="281" y2="281"/></g><!--class Nacelle--><g class="entity" data-qualified-name="Nacelle" data-source-line="12" id="ent0010"><rect fill="#F1F1F1" height="48" rx="2.5" ry="2.5" style="stroke:#181818;stroke-width:0.5;" width="80.9385" x="856.92" y="241"/><ellipse cx="871.92" cy="257" fill="#ADD1B2" rx="11" ry="11" style="stroke:#181818;stroke-width:1;"/><path d="M874.3931,263.1431 Q873.8121,263.4419 873.1729,263.5913 Q872.5338,263.7407 871.8282,263.7407 Q869.3214,263.7407 868.0015,262.0889 Q866.6817,260.437 866.6817,257.3159 Q866.6817,254.1865 868.0015,252.5347 Q869.3214,250.8828 871.8282,250.8828 Q872.5338,250.8828 873.1812,251.0322 Q873.8287,251.1816 874.3931,251.4805 L874.3931,254.2031 Q873.7623,253.6221 873.1688,253.3523 Q872.5753,253.0825 871.9444,253.0825 Q870.5997,253.0825 869.9149,254.1492 Q869.2301,255.2158 869.2301,257.3159 Q869.2301,259.4077 869.9149,260.4744 Q870.5997,261.541 871.9444,261.541 Q872.5753,261.541 873.1688,261.2712 Q873.7623,261.0015 874.3931,260.4204 Z " fill="#000000"/><text fill="#000000" font-family="sans-serif" font-size="14" lengthAdjust="spacing" textLength="48.9385" x="885.92" y="262.291">Nacelle</text><line style="stroke:#181818;stroke-width:0.5;" x1="857.92" x2="936.8585" y1="273" y2="273"/><line style="stroke:#181818;stroke-width:0.5;" x1="857.92" x2="936.8585" y1="281" y2="281"/></g><!--class PitchControlSystem--><g class="entity" data-qualified-name="PitchControlSystem" data-source-line="13" id="ent0011"><rect fill="#F1F1F1" height="48" rx="2.5" ry="2.5" style="stroke:#181818;stroke-width:0.5;" width="172.4238" x="321.18" y="7"/><ellipse cx="336.18" cy="23" fill="#ADD1B2" rx="11" ry="11" style="stroke:#181818;stroke-width:1;"/><path d="M338.6531,29.1431 Q338.0721,29.4419 337.4329,29.5913 Q336.7938,29.7407 336.0882,29.7407 Q333.5814,29.7407 332.2615,28.0889 Q330.9417,26.437 330.9417,23.3159 Q330.9417,20.1865 332.2615,18.5347 Q333.5814,16.8828 336.0882,16.8828 Q336.7938,16.8828 337.4412,17.0322 Q338.0887,17.1816 338.6531,17.4805 L338.6531,20.2031 Q338.0223,19.6221 337.4288,19.3523 Q336.8353,19.0825 336.2044,19.0825 Q334.8597,19.0825 334.1749,20.1492 Q333.4901,21.2158 333.4901,23.3159 Q333.4901,25.4077 334.1749,26.4744 Q334.8597,27.541 336.2044,27.541 Q336.8353,27.541 337.4288,27.2712 Q338.0223,27.0015 338.6531,26.4204 Z " fill="#000000"/><text fill="#000000" font-family="sans-serif" font-size="14" lengthAdjust="spacing" textLength="140.4238" x="350.18" y="28.291">Pitch Control System</text><line style="stroke:#181818;stroke-width:0.5;" x1="322.18" x2="492.6038" y1="39" y2="39"/><line style="stroke:#181818;stroke-width:0.5;" x1="322.18" x2="492.6038" y1="47" y2="47"/></g><!--class YawControlSystem--><g class="entity" data-qualified-name="YawControlSystem" data-source-line="14" id="ent0012"><rect fill="#F1F1F1" height="48" rx="2.5" ry="2.5" style="stroke:#181818;stroke-width:0.5;" width="166.7842" x="7" y="116"/><ellipse cx="22" cy="132" fill="#ADD1B2" rx="11" ry="11" style="stroke:#181818;stroke-width:1;"/><path d="M24.4731,138.1431 Q23.8921,138.4419 23.2529,138.5913 Q22.6138,138.7407 21.9082,138.7407 Q19.4014,138.7407 18.0815,137.0889 Q16.7617,135.437 16.7617,132.3159 Q16.7617,129.1865 18.0815,127.5347 Q19.4014,125.8828 21.9082,125.8828 Q22.6138,125.8828 23.2612,126.0322 Q23.9087,126.1816 24.4731,126.4805 L24.4731,129.2031 Q23.8423,128.6221 23.2488,128.3523 Q22.6553,128.0825 22.0244,128.0825 Q20.6797,128.0825 19.9949,129.1492 Q19.3101,130.2158 19.3101,132.3159 Q19.3101,134.4077 19.9949,135.4744 Q20.6797,136.541 22.0244,136.541 Q22.6553,136.541 23.2488,136.2712 Q23.8423,136.0015 24.4731,135.4204 Z " fill="#000000"/><text fill="#000000" font-family="sans-serif" font-size="14" lengthAdjust="spacing" textLength="134.7842" x="36" y="137.291">Yaw Control System</text><line style="stroke:#181818;stroke-width:0.5;" x1="8" x2="172.7842" y1="148" y2="148"/><line style="stroke:#181818;stroke-width:0.5;" x1="8" x2="172.7842" y1="156" y2="156"/></g><!--class CMS--><g class="entity" data-qualified-name="CMS" data-source-line="15" id="ent0013"><rect fill="#F1F1F1" height="48" rx="2.5" ry="2.5" style="stroke:#181818;stroke-width:0.5;" width="229.7842" x="208.5" y="116"/><ellipse cx="223.5" cy="132" fill="#ADD1B2" rx="11" ry="11" style="stroke:#181818;stroke-width:1;"/><path d="M225.9731,138.1431 Q225.3921,138.4419 224.7529,138.5913 Q224.1138,138.7407 223.4082,138.7407 Q220.9014,138.7407 219.5815,137.0889 Q218.2617,135.437 218.2617,132.3159 Q218.2617,129.1865 219.5815,127.5347 Q220.9014,125.8828 223.4082,125.8828 Q224.1138,125.8828 224.7612,126.0322 Q225.4087,126.1816 225.9731,126.4805 L225.9731,129.2031 Q225.3423,128.6221 224.7488,128.3523 Q224.1553,128.0825 223.5244,128.0825 Q222.1797,128.0825 221.4949,129.1492 Q220.8101,130.2158 220.8101,132.3159 Q220.8101,134.4077 221.4949,135.4744 Q222.1797,136.541 223.5244,136.541 Q224.1553,136.541 224.7488,136.2712 Q225.3423,136.0015 225.9731,135.4204 Z " fill="#000000"/><text fill="#000000" font-family="sans-serif" font-size="14" lengthAdjust="spacing" textLength="197.7842" x="237.5" y="137.291">Condition Monitoring System</text><line style="stroke:#181818;stroke-width:0.5;" x1="209.5" x2="437.2842" y1="148" y2="148"/><line style="stroke:#181818;stroke-width:0.5;" x1="209.5" x2="437.2842" y1="156" y2="156"/></g><!--class Tower--><g class="entity" data-qualified-name="Tower" data-source-line="16" id="ent0014"><rect fill="#F1F1F1" height="48" rx="2.5" ry="2.5" style="stroke:#181818;stroke-width:0.5;" width="73.7676" x="864.51" y="116"/><ellipse cx="879.51" cy="132" fill="#ADD1B2" rx="11" ry="11" style="stroke:#181818;stroke-width:1;"/><path d="M881.9831,138.1431 Q881.4021,138.4419 880.7629,138.5913 Q880.1238,138.7407 879.4182,138.7407 Q876.9114,138.7407 875.5915,137.0889 Q874.2717,135.437 874.2717,132.3159 Q874.2717,129.1865 875.5915,127.5347 Q876.9114,125.8828 879.4182,125.8828 Q880.1238,125.8828 880.7712,126.0322 Q881.4187,126.1816 881.9831,126.4805 L881.9831,129.2031 Q881.3523,128.6221 880.7588,128.3523 Q880.1653,128.0825 879.5344,128.0825 Q878.1897,128.0825 877.5049,129.1492 Q876.8201,130.2158 876.8201,132.3159 Q876.8201,134.4077 877.5049,135.4744 Q878.1897,136.541 879.5344,136.541 Q880.1653,136.541 880.7588,136.2712 Q881.3523,136.0015 881.9831,135.4204 Z " fill="#000000"/><text fill="#000000" font-family="sans-serif" font-size="14" lengthAdjust="spacing" textLength="41.7676" x="893.51" y="137.291">Tower</text><line style="stroke:#181818;stroke-width:0.5;" x1="865.51" x2="937.2776" y1="148" y2="148"/><line style="stroke:#181818;stroke-width:0.5;" x1="865.51" x2="937.2776" y1="156" y2="156"/></g><!--class Pitch Control System--><g class="entity" data-qualified-name="Pitch Control System" data-source-line="21" id="ent0018"><rect fill="#F1F1F1" height="48" rx="2.5" ry="2.5" style="stroke:#181818;stroke-width:0.5;" width="172.4238" x="973.18" y="116"/><ellipse cx="988.18" cy="132" fill="#ADD1B2" rx="11" ry="11" style="stroke:#181818;stroke-width:1;"/><path d="M990.6531,138.1431 Q990.0721,138.4419 989.4329,138.5913 Q988.7938,138.7407 988.0882,138.7407 Q985.5814,138.7407 984.2615,137.0889 Q982.9417,135.437 982.9417,132.3159 Q982.9417,129.1865 984.2615,127.5347 Q985.5814,125.8828 988.0882,125.8828 Q988.7938,125.8828 989.4412,126.0322 Q990.0887,126.1816 990.6531,126.4805 L990.6531,129.2031 Q990.0223,128.6221 989.4288,128.3523 Q988.8353,128.0825 988.2044,128.0825 Q986.8597,128.0825 986.1749,129.1492 Q985.4901,130.2158 985.4901,132.3159 Q985.4901,134.4077 986.1749,135.4744 Q986.8597,136.541 988.2044,136.541 Q988.8353,136.541 989.4288,136.2712 Q990.0223,136.0015 990.6531,135.4204 Z " fill="#000000"/><text fill="#000000" font-family="sans-serif" font-size="14" lengthAdjust="spacing" textLength="140.4238" x="1002.18" y="137.291">Pitch Control System</text><line style="stroke:#181818;stroke-width:0.5;" x1="974.18" x2="1144.6038" y1="148" y2="148"/><line style="stroke:#181818;stroke-width:0.5;" x1="974.18" x2="1144.6038" y1="156" y2="156"/></g><!--class Yaw Control System--><g class="entity" data-qualified-name="Yaw Control System" data-source-line="22" id="ent0020"><rect fill="#F1F1F1" height="48" rx="2.5" ry="2.5" style="stroke:#181818;stroke-width:0.5;" width="166.7842" x="1181" y="116"/><ellipse cx="1196" cy="132" fill="#ADD1B2" rx="11" ry="11" style="stroke:#181818;stroke-width:1;"/><path d="M1198.4731,138.1431 Q1197.8921,138.4419 1197.2529,138.5913 Q1196.6138,138.7407 1195.9082,138.7407 Q1193.4014,138.7407 1192.0815,137.0889 Q1190.7617,135.437 1190.7617,132.3159 Q1190.7617,129.1865 1192.0815,127.5347 Q1193.4014,125.8828 1195.9082,125.8828 Q1196.6138,125.8828 1197.2612,126.0322 Q1197.9087,126.1816 1198.4731,126.4805 L1198.4731,129.2031 Q1197.8423,128.6221 1197.2488,128.3523 Q1196.6553,128.0825 1196.0244,128.0825 Q1194.6797,128.0825 1193.9949,129.1492 Q1193.3101,130.2158 1193.3101,132.3159 Q1193.3101,134.4077 1193.9949,135.4744 Q1194.6797,136.541 1196.0244,136.541 Q1196.6553,136.541 1197.2488,136.2712 Q1197.8423,136.0015 1198.4731,135.4204 Z " fill="#000000"/><text fill="#000000" font-family="sans-serif" font-size="14" lengthAdjust="spacing" textLength="134.7842" x="1210" y="137.291">Yaw Control System</text><line style="stroke:#181818;stroke-width:0.5;" x1="1182" x2="1346.7842" y1="148" y2="148"/><line style="stroke:#181818;stroke-width:0.5;" x1="1182" x2="1346.7842" y1="156" y2="156"/></g><!--class Condition Monitoring System--><g class="entity" data-qualified-name="Condition Monitoring System" data-source-line="23" id="ent0022"><rect fill="#F1F1F1" height="48" rx="2.5" ry="2.5" style="stroke:#181818;stroke-width:0.5;" width="229.7842" x="1382.5" y="116"/><ellipse cx="1397.5" cy="132" fill="#ADD1B2" rx="11" ry="11" style="stroke:#181818;stroke-width:1;"/><path d="M1399.9731,138.1431 Q1399.3921,138.4419 1398.7529,138.5913 Q1398.1138,138.7407 1397.4082,138.7407 Q1394.9014,138.7407 1393.5815,137.0889 Q1392.2617,135.437 1392.2617,132.3159 Q1392.2617,129.1865 1393.5815,127.5347 Q1394.9014,125.8828 1397.4082,125.8828 Q1398.1138,125.8828 1398.7612,126.0322 Q1399.4087,126.1816 1399.9731,126.4805 L1399.9731,129.2031 Q1399.3423,128.6221 1398.7488,128.3523 Q1398.1553,128.0825 1397.5244,128.0825 Q1396.1797,128.0825 1395.4949,129.1492 Q1394.8101,130.2158 1394.8101,132.3159 Q1394.8101,134.4077 1395.4949,135.4744 Q1396.1797,136.541 1397.5244,136.541 Q1398.1553,136.541 1398.7488,136.2712 Q1399.3423,136.0015 1399.9731,135.4204 Z " fill="#000000"/><text fill="#000000" font-family="sans-serif" font-size="14" lengthAdjust="spacing" textLength="197.7842" x="1411.5" y="137.291">Condition Monitoring System</text><line style="stroke:#181818;stroke-width:0.5;" x1="1383.5" x2="1611.2842" y1="148" y2="148"/><line style="stroke:#181818;stroke-width:0.5;" x1="1383.5" x2="1611.2842" y1="156" y2="156"/></g><!--class Rotor Blade--><g class="entity" data-qualified-name="Rotor Blade" data-source-line="27" id="ent0026"><rect fill="#F1F1F1" height="48" rx="2.5" ry="2.5" style="stroke:#181818;stroke-width:0.5;" width="109.8887" x="452.45" y="241"/><ellipse cx="467.45" cy="257" fill="#ADD1B2" rx="11" ry="11" style="stroke:#181818;stroke-width:1;"/><path d="M469.9231,263.1431 Q469.3421,263.4419 468.7029,263.5913 Q468.0638,263.7407 467.3582,263.7407 Q464.8514,263.7407 463.5315,262.0889 Q462.2117,260.437 462.2117,257.3159 Q462.2117,254.1865 463.5315,252.5347 Q464.8514,250.8828 467.3582,250.8828 Q468.0638,250.8828 468.7112,251.0322 Q469.3587,251.1816 469.9231,251.4805 L469.9231,254.2031 Q469.2923,253.6221 468.6988,253.3523 Q468.1053,253.0825 467.4744,253.0825 Q466.1297,253.0825 465.4449,254.1492 Q464.7601,255.2158 464.7601,257.3159 Q464.7601,259.4077 465.4449,260.4744 Q466.1297,261.541 467.4744,261.541 Q468.1053,261.541 468.6988,261.2712 Q469.2923,261.0015 469.9231,260.4204 Z " fill="#000000"/><text fill="#000000" font-family="sans-serif" font-size="14" lengthAdjust="spacing" textLength="77.8887" x="481.45" y="262.291">Rotor Blade</text><line style="stroke:#181818;stroke-width:0.5;" x1="453.45" x2="561.3387" y1="273" y2="273"/><line style="stroke:#181818;stroke-width:0.5;" x1="453.45" x2="561.3387" y1="281" y2="281"/></g><!--class GFRP Blade--><g class="entity" data-qualified-name="GFRP Blade" data-source-line="34" id="ent0031"><rect fill="#F1F1F1" height="48" rx="2.5" ry="2.5" style="stroke:#181818;stroke-width:0.5;" width="107.0859" x="1646.85" y="116"/><ellipse cx="1661.85" cy="132" fill="#ADD1B2" rx="11" ry="11" style="stroke:#181818;stroke-width:1;"/><path d="M1664.3231,138.1431 Q1663.7421,138.4419 1663.1029,138.5913 Q1662.4638,138.7407 1661.7582,138.7407 Q1659.2514,138.7407 1657.9315,137.0889 Q1656.6117,135.437 1656.6117,132.3159 Q1656.6117,129.1865 1657.9315,127.5347 Q1659.2514,125.8828 1661.7582,125.8828 Q1662.4638,125.8828 1663.1112,126.0322 Q1663.7587,126.1816 1664.3231,126.4805 L1664.3231,129.2031 Q1663.6923,128.6221 1663.0988,128.3523 Q1662.5053,128.0825 1661.8744,128.0825 Q1660.5297,128.0825 1659.8449,129.1492 Q1659.1601,130.2158 1659.1601,132.3159 Q1659.1601,134.4077 1659.8449,135.4744 Q1660.5297,136.541 1661.8744,136.541 Q1662.5053,136.541 1663.0988,136.2712 Q1663.6923,136.0015 1664.3231,135.4204 Z " fill="#000000"/><text fill="#000000" font-family="sans-serif" font-size="14" lengthAdjust="spacing" textLength="75.0859" x="1675.85" y="137.291">GFRP Blade</text><line style="stroke:#181818;stroke-width:0.5;" x1="1647.85" x2="1752.9359" y1="148" y2="148"/><line style="stroke:#181818;stroke-width:0.5;" x1="1647.85" x2="1752.9359" y1="156" y2="156"/></g><!--class CFRP Blade--><g class="entity" data-qualified-name="CFRP Blade" data-source-line="35" id="ent0033"><rect fill="#F1F1F1" height="48" rx="2.5" ry="2.5" style="stroke:#181818;stroke-width:0.5;" width="106.6553" x="1789.06" y="116"/><ellipse cx="1804.06" cy="132" fill="#ADD1B2" rx="11" ry="11" style="stroke:#181818;stroke-width:1;"/><path d="M1806.5331,138.1431 Q1805.9521,138.4419 1805.3129,138.5913 Q1804.6738,138.7407 1803.9682,138.7407 Q1801.4614,138.7407 1800.1415,137.0889 Q1798.8217,135.437 1798.8217,132.3159 Q1798.8217,129.1865 1800.1415,127.5347 Q1801.4614,125.8828 1803.9682,125.8828 Q1804.6738,125.8828 1805.3212,126.0322 Q1805.9687,126.1816 1806.5331,126.4805 L1806.5331,129.2031 Q1805.9023,128.6221 1805.3088,128.3523 Q1804.7153,128.0825 1804.0844,128.0825 Q1802.7397,128.0825 1802.0549,129.1492 Q1801.3701,130.2158 1801.3701,132.3159 Q1801.3701,134.4077 1802.0549,135.4744 Q1802.7397,136.541 1804.0844,136.541 Q1804.7153,136.541 1805.3088,136.2712 Q1805.9023,136.0015 1806.5331,135.4204 Z " fill="#000000"/><text fill="#000000" font-family="sans-serif" font-size="14" lengthAdjust="spacing" textLength="74.6553" x="1818.06" y="137.291">CFRP Blade</text><line style="stroke:#181818;stroke-width:0.5;" x1="1790.06" x2="1894.7153" y1="148" y2="148"/><line style="stroke:#181818;stroke-width:0.5;" x1="1790.06" x2="1894.7153" y1="156" y2="156"/></g><!--reverse link WindTurbine to Rotor--><g class="link" data-entity-1="ent0001" data-entity-2="ent0002" data-link-type="composition" data-source-line="18" id="lnk15"><path codeLine="18" d="M828.2496,51.8654 C744.4896,74.6154 609,111.41 542.18,129.55" fill="none" id="WindTurbine-backto-Rotor" style="stroke:#181818;stroke-width:1;"/><polygon fill="#181818" points="839.83,48.72,832.9913,46.4325,828.2496,51.8654,835.0882,54.1528,839.83,48.72" style="stroke:#181818;stroke-width:1;stroke-linejoin:miter;stroke-miterlimit:10;"/><text fill="#000000" font-family="sans-serif" font-size="13" lengthAdjust="spacing" textLength="8.2202" x="823.8527" y="47.5528">1</text><text fill="#000000" font-family="sans-serif" font-size="13" lengthAdjust="spacing" textLength="8.2202" x="549.8388" y="123.615">1</text></g><!--reverse link WindTurbine to Drivetrain--><g class="link" data-entity-1="ent0001" data-entity-2="ent0007" data-link-type="composition" data-source-line="19" id="lnk16"><path codeLine="19" d="M833.603,60.2833 C814.413,68.8533 804.09,74.21 785.39,85 C769.69,94.06 753.18,105.53 739.57,115.56" fill="none" id="WindTurbine-backto-Drivetrain" style="stroke:#181818;stroke-width:1;"/><polygon fill="#181818" points="844.56,55.39,837.4504,54.1843,833.603,60.2833,840.7126,61.489,844.56,55.39" style="stroke:#181818;stroke-width:1;stroke-linejoin:miter;stroke-miterlimit:10;"/><text fill="#000000" font-family="sans-serif" font-size="13" lengthAdjust="spacing" textLength="8.2202" x="824.0356" y="74.5677">1</text><text fill="#000000" font-family="sans-serif" font-size="13" lengthAdjust="spacing" textLength="8.2202" x="737.9783" y="105.3808">1</text></g><!--reverse link WindTurbine to Nacelle--><g class="link" data-entity-1="ent0001" data-entity-2="ent0010" data-link-type="composition" data-source-line="20" id="lnk17"><path codeLine="20" d="M873.9113,64.6156 C861.4713,80.5356 854.04,93.38 847.39,116 C834.32,160.5 861.02,211.58 880.19,240.6" fill="none" id="WindTurbine-backto-Nacelle" style="stroke:#181818;stroke-width:1;"/><polygon fill="#181818" points="881.3,55.16,874.4538,57.4249,873.9113,64.6156,880.7575,62.3507,881.3,55.16" style="stroke:#181818;stroke-width:1;stroke-linejoin:miter;stroke-miterlimit:10;"/><text fill="#000000" font-family="sans-serif" font-size="13" lengthAdjust="spacing" textLength="8.2202" x="867.4538" y="75.4833">1</text><text fill="#000000" font-family="sans-serif" font-size="13" lengthAdjust="spacing" textLength="8.2202" x="867.0495" y="230.4306">1</text></g><!--reverse link WindTurbine to Pitch Control System--><g class="link" data-entity-1="ent0001" data-entity-2="ent0018" data-link-type="composition" data-source-line="21" id="lnk19"><path codeLine="21" d="M946.0056,62.2093 C972.3456,80.0493 998.48,97.75 1024.8,115.57" fill="none" id="WindTurbine-backto-Pitch Control System" style="stroke:#181818;stroke-width:1;"/><polygon fill="#181818" points="936.07,55.48,938.7947,62.1565,946.0056,62.2093,943.2809,55.5328,936.07,55.48" style="stroke:#181818;stroke-width:1;stroke-linejoin:miter;stroke-miterlimit:10;"/><text fill="#000000" font-family="sans-serif" font-size="13" lengthAdjust="spacing" textLength="8.2202" x="935.1891" y="75.4796">1</text><text fill="#000000" font-family="sans-serif" font-size="13" lengthAdjust="spacing" textLength="8.2202" x="1007.4201" y="105.3933">1</text></g><!--reverse link WindTurbine to Yaw Control System--><g class="link" data-entity-1="ent0001" data-entity-2="ent0020" data-link-type="composition" data-source-line="22" id="lnk21"><path codeLine="22" d="M974.4802,53.5433 C1035.5702,71.5533 1117.95,95.83 1184.7,115.51" fill="none" id="WindTurbine-backto-Yaw Control System" style="stroke:#181818;stroke-width:1;"/><polygon fill="#181818" points="962.97,50.15,967.594,55.6834,974.4802,53.5433,969.8562,48.0099,962.97,50.15" style="stroke:#181818;stroke-width:1;stroke-linejoin:miter;stroke-miterlimit:10;"/><text fill="#000000" font-family="sans-serif" font-size="13" lengthAdjust="spacing" textLength="8.2202" x="970.5649" y="49.0833">1</text><text fill="#000000" font-family="sans-serif" font-size="13" lengthAdjust="spacing" textLength="8.2202" x="1164.9463" y="108.6016">1</text></g><!--reverse link WindTurbine to Condition Monitoring System--><g class="link" data-entity-1="ent0001" data-entity-2="ent0022" data-link-type="composition" data-source-line="23" id="lnk23"><path codeLine="23" d="M974.7411,45.1708 C1073.4811,62.9008 1257.08,95.86 1382.28,118.33" fill="none" id="WindTurbine-backto-Condition Monitoring System" style="stroke:#181818;stroke-width:1;"/><polygon fill="#181818" points="962.93,43.05,968.1286,48.0474,974.7411,45.1708,969.5425,40.1734,962.93,43.05" style="stroke:#181818;stroke-width:1;stroke-linejoin:miter;stroke-miterlimit:10;"/><text fill="#000000" font-family="sans-serif" font-size="13" lengthAdjust="spacing" textLength="8.2202" x="970.5203" y="57.8968">1</text><text fill="#000000" font-family="sans-serif" font-size="13" lengthAdjust="spacing" textLength="8.2202" x="1366.2846" y="113.9489">1</text></g><!--reverse link WindTurbine to Tower--><g class="link" data-entity-1="ent0001" data-entity-2="ent0014" data-link-type="composition" data-source-line="24" id="lnk24"><path codeLine="24" d="M901.39,67.48 C901.39,85.32 901.39,97.75 901.39,115.57" fill="none" id="WindTurbine-backto-Tower" style="stroke:#181818;stroke-width:1;"/><polygon fill="#181818" points="901.39,55.48,897.39,61.48,901.39,67.48,905.39,61.48,901.39,55.48" style="stroke:#181818;stroke-width:1;stroke-linejoin:miter;stroke-miterlimit:10;"/><text fill="#000000" font-family="sans-serif" font-size="13" lengthAdjust="spacing" textLength="8.2202" x="892.4894" y="75.4796">1</text><text fill="#000000" font-family="sans-serif" font-size="13" lengthAdjust="spacing" textLength="8.2202" x="892.4409" y="105.3933">1</text></g><!--reverse link Rotor to Hub--><g class="link" data-entity-1="ent0002" data-entity-2="ent0003" data-link-type="composition" data-source-line="26" id="lnk25"><path codeLine="26" d="M476.1613,173.0106 C454.8113,194.9006 431.49,218.8 410.16,240.66" fill="none" id="Rotor-backto-Hub" style="stroke:#181818;stroke-width:1;"/><polygon fill="#181818" points="484.54,164.42,477.4871,165.9224,476.1613,173.0106,483.2142,171.5082,484.54,164.42" style="stroke:#181818;stroke-width:1;stroke-linejoin:miter;stroke-miterlimit:10;"/><text fill="#000000" font-family="sans-serif" font-size="13" lengthAdjust="spacing" textLength="8.2202" x="470.3568" y="184.4058">1</text><text fill="#000000" font-family="sans-serif" font-size="13" lengthAdjust="spacing" textLength="8.2202" x="406.997" y="230.1091">1</text></g><!--reverse link Rotor to Rotor Blade--><g class="link" data-entity-1="ent0002" data-entity-2="ent0026" data-link-type="composition" data-source-line="27" id="lnk27"><path codeLine="27" d="M507.39,176.42 C507.39,198.31 507.39,218.8 507.39,240.66" fill="none" id="Rotor-backto-Rotor Blade" style="stroke:#181818;stroke-width:1;"/><polygon fill="#181818" points="507.39,164.42,503.39,170.42,507.39,176.42,511.39,170.42,507.39,164.42" style="stroke:#181818;stroke-width:1;stroke-linejoin:miter;stroke-miterlimit:10;"/><text fill="#000000" font-family="sans-serif" font-size="13" lengthAdjust="spacing" textLength="8.2202" x="498.4909" y="184.4058">1</text><text fill="#000000" font-family="sans-serif" font-size="13" lengthAdjust="spacing" textLength="22.7119" x="482.6614" y="230.1091">1..*</text></g><!--reverse link Drivetrain to Gearbox--><g class="link" data-entity-1="ent0007" data-entity-2="ent0008" data-link-type="composition" data-source-line="29" id="lnk28"><path codeLine="29" d="M690.8912,174.9588 C678.9712,196.8488 667.01,218.8 655.1,240.66" fill="none" id="Drivetrain-backto-Gearbox" style="stroke:#181818;stroke-width:1;"/><polygon fill="#181818" points="696.63,164.42,690.2477,167.7765,690.8912,174.9588,697.2735,171.6023,696.63,164.42" style="stroke:#181818;stroke-width:1;stroke-linejoin:miter;stroke-miterlimit:10;"/><text fill="#000000" font-family="sans-serif" font-size="13" lengthAdjust="spacing" textLength="8.2202" x="684.7798" y="184.4058">1</text><text fill="#000000" font-family="sans-serif" font-size="13" lengthAdjust="spacing" textLength="8.2202" x="649.3584" y="230.1091">1</text></g><!--reverse link Drivetrain to Generator--><g class="link" data-entity-1="ent0007" data-entity-2="ent0009" data-link-type="composition" data-source-line="30" id="lnk29"><path codeLine="30" d="M726.5998,175.1364 C737.6298,197.0264 748.61,218.8 759.63,240.66" fill="none" id="Drivetrain-backto-Generator" style="stroke:#181818;stroke-width:1;"/><polygon fill="#181818" points="721.2,164.42,720.3278,171.5782,726.5998,175.1364,727.4721,167.9783,721.2,164.42" style="stroke:#181818;stroke-width:1;stroke-linejoin:miter;stroke-miterlimit:10;"/><text fill="#000000" font-family="sans-serif" font-size="13" lengthAdjust="spacing" textLength="8.2202" x="715.0316" y="184.4058">1</text><text fill="#000000" font-family="sans-serif" font-size="13" lengthAdjust="spacing" textLength="8.2202" x="747.6185" y="230.1091">1</text></g><!--reverse link Tower to Nacelle--><g class="link" data-entity-1="ent0014" data-entity-2="ent0010" data-link-type="composition" data-source-line="32" id="lnk30"><path codeLine="32" d="M900.241,176.4137 C899.531,198.3037 898.86,218.8 898.15,240.66" fill="none" id="Tower-backto-Nacelle" style="stroke:#181818;stroke-width:1;"/><polygon fill="#181818" points="900.63,164.42,896.4376,170.2872,900.241,176.4137,904.4334,170.5465,900.63,164.42" style="stroke:#181818;stroke-width:1;stroke-linejoin:miter;stroke-miterlimit:10;"/><text fill="#000000" font-family="sans-serif" font-size="13" lengthAdjust="spacing" textLength="55.853" x="900.63" y="207.5684">supports</text><text fill="#000000" font-family="sans-serif" font-size="13" lengthAdjust="spacing" textLength="8.2202" x="891.5538" y="184.4058">1</text><text fill="#000000" font-family="sans-serif" font-size="13" lengthAdjust="spacing" textLength="8.2202" x="889.3482" y="230.1091">1</text></g><!--reverse link RotorBlade to GFRP Blade--><g class="link" data-entity-1="ent0004" data-entity-2="ent0031" data-link-type="extension" data-source-line="34" id="lnk32"><path codeLine="34" d="M1745.8565,70.4776 C1734.0165,88.3176 1727.77,97.75 1715.94,115.57" fill="none" id="RotorBlade-backto-GFRP Blade" style="stroke:#181818;stroke-width:1;"/><polygon fill="none" points="1755.81,55.48,1740.8573,67.1597,1750.8556,73.7954,1755.81,55.48" style="stroke:#181818;stroke-width:1;stroke-linejoin:miter;stroke-miterlimit:10;"/></g><!--reverse link RotorBlade to CFRP Blade--><g class="link" data-entity-1="ent0004" data-entity-2="ent0033" data-link-type="extension" data-source-line="35" id="lnk34"><path codeLine="35" d="M1796.9235,70.4776 C1808.7635,88.3176 1815.02,97.75 1826.85,115.57" fill="none" id="RotorBlade-backto-CFRP Blade" style="stroke:#181818;stroke-width:1;"/><polygon fill="none" points="1786.97,55.48,1791.9244,73.7954,1801.9227,67.1597,1786.97,55.48" style="stroke:#181818;stroke-width:1;stroke-linejoin:miter;stroke-miterlimit:10;"/></g><?plantuml-src VL9TIyCm57tFhxZaHHYqg8_YqrhS7bOPsq1yJDkWWPYC97KA_dZRV6pfJ7ngxpddVkHmRc3_hPiDt9UtiAnhAE25YHuEWsgPe0Xrd6WDE0On46rLGUGqEscayl_heKMarKQHpe0VONbOSjAx2RQsPLYoUjfj8y5KplXgpbTNVAtO9nrNCk615IMgbL_dIb15BZS-auvoVXw-PQPxXqeAeoIVJ37qmwwnXCST75fUoIdLCC99-GZsp30fe962ZOSmyHRtLStUIm_oH1L2aSU0xp0iYi9-dTCvDh8X9mbFp_5fC_BoX15vyNysPBky8ov3CJ4bxHejomMUvmsXYokpzX2HB1qoW-m5AHVX0VHmF4fbj3_GxeJ7dqaNPVel6GNw5m00?></g></svg>