<svg xmlns="http://www.w3.org/2000/svg" xmlns:xlink="http://www.w3.org/1999/xlink" contentStyleType="text/css" data-diagram-type="SEQUENCE" height="520px" preserveAspectRatio="none" style="width:689px;height:520px;background:#FFFFFF;" version="1.1" viewBox="0 0 689 520" width="689px" zoomAndPan="magnify"><?plantuml 1.2026.6?><defs/><g><rect fill="none" height="146.1973" style="stroke:#000000;stroke-width:1.5;" width="327.9268" x="345.3232" y="215.7305"/><g class="participant-lifeline" data-entity-uid="part1" data-qualified-name="User" data-source-line="1" id="part1-lifeline"><g><title>User</title><rect fill="#000000" fill-opacity="0.00000" height="356.0605" width="8" x="19.1826" y="81.4883"/><line style="stroke:#181818;stroke-width:0.5;stroke-dasharray:5,5;" x1="23" x2="23" y1="81.4883" y2="437.5488"/></g></g><g class="participant-lifeline" data-entity-uid="part2" data-qualified-name="Portal" data-source-line="2" id="part2-lifeline"><g><title>Web Portal</title><rect fill="#000000" fill-opacity="0.00000" height="356.0605" width="8" x="226.5728" y="81.4883"/><line style="stroke:#181818;stroke-width:0.5;stroke-dasharray:5,5;" x1="230.5234" x2="230.5234" y1="81.4883" y2="437.5488"/></g></g><g class="participant-lifeline" data-entity-uid="part3" data-qualified-name="Auth" data-source-line="3" id="part3-lifeline"><g><title>Authentication Service</title><rect fill="#000000" fill-opacity="0.00000" height="356.0605" width="8" x="433.9629" y="81.4883"/><line style="stroke:#181818;stroke-width:0.5;stroke-dasharray:5,5;" x1="437.3232" x2="437.3232" y1="81.4883" y2="437.5488"/></g></g><g class="participant-lifeline" data-entity-uid="part4" data-qualified-name="DB" data-source-line="4" id="part4-lifeline"><g><title>User Database</title><rect fill="#000000" fill-opacity="0.00000" height="356.0605" width="8" x="607.52" y="81.4883"/><line style="stroke:#181818;stroke-width:0.5;stroke-dasharray:5,5;" x1="610.79" x2="610.79" y1="81.4883" y2="437.5488"/></g></g><g class="participant participant-head" data-entity-uid="part1" data-qualified-name="User" data-source-line="1" id="part1-head"><text fill="#000000" font-family="sans-serif" font-size="14" lengthAdjust="spacing" textLength="30.3652" x="5" y="78.5352">User</text><ellipse cx="23.1826" cy="13.5" fill="#E2E2F0" rx="8" ry="8" style="stroke:#181818;stroke-width:0.5;"/><path d="M23.1826,21.5 L23.1826,48.5 M10.1826,29.5 L36.1826,29.5 M23.1826,48.5 L10.1826,63.5 M23.1826,48.5 L36.1826,63.5" fill="none" style="stroke:#181818;stroke-width:0.5;"/></g><g class="participant participant-tail" data-entity-uid="part1" data-qualified-name="User" data-source-line="1" id="part1-tail"><text fill="#000000" font-family="sans-serif" font-size="14" lengthAdjust="spacing" textLength="30.3652" x="5" y="450.084">User</text><ellipse cx="23.1826" cy="461.5371" fill="#E2E2F0" rx="8" ry="8" style="stroke:#181818;stroke-width:0.5;"/><path d="M23.1826,469.5371 L23.1826,496.5371 M10.1826,477.5371 L36.1826,477.5371 M23.1826,496.5371 L10.1826,511.5371 M23.1826,496.5371 L36.1826,511.5371" fill="none" style="stroke:#181818;stroke-width:0.5;"/></g><g class="participant participant-head" data-entity-uid="part2" data-qualified-name="Portal" data-source-line="2" id="part2-head"><rect fill="#E2E2F0" height="30.4883" rx="2.5" ry="2.5" style="stroke:#181818;stroke-width:0.5;" width="86.0986" x="187.5234" y="50"/><text fill="#000000" font-family="sans-serif" font-size="14" lengthAdjust="spacing" textLength="72.0986" x="194.5234" y="70.5352">Web Portal</text></g><g class="participant participant-tail" data-entity-uid="part2" data-qualified-name="Portal" data-source-line="2" id="part2-tail"><rect fill="#E2E2F0" height="30.4883" rx="2.5" ry="2.5" style="stroke:#181818;stroke-width:0.5;" width="86.0986" x="187.5234" y="436.5488"/><text fill="#000000" font-family="sans-serif" font-size="14" lengthAdjust="spacing" textLength="72.0986" x="194.5234" y="457.084">Web Portal</text></g><g class="participant participant-head" data-entity-uid="part3" data-qualified-name="Auth" data-source-line="3" id="part3-head"><rect fill="#E2E2F0" height="30.4883" rx="2.5" ry="2.5" style="stroke:#181818;stroke-width:0.5;" width="165.2793" x="355.3232" y="50"/><text fill="#000000" font-family="sans-serif" font-size="14" lengthAdjust="spacing" textLength="151.2793" x="362.3232" y="70.5352">Authentication Service</text></g><g class="participant participant-tail" data-entity-uid="part3" data-qualified-name="Auth" data-source-line="3" id="part3-tail"><rect fill="#E2E2F0" height="30.4883" rx="2.5" ry="2.5" style="stroke:#181818;stroke-width:0.5;" width="165.2793" x="355.3232" y="436.5488"/><text fill="#000000" font-family="sans-serif" font-size="14" lengthAdjust="spacing" textLength="151.2793" x="362.3232" y="457.084">Authentication Service</text></g><g class="participant participant-head" data-entity-uid="part4" data-qualified-name="DB" data-source-line="4" id="part4-head"><text fill="#000000" font-family="sans-serif" font-size="14" lengthAdjust="spacing" textLength="97.46" x="559.79" y="78.5352">User Database</text><path d="M593.52,29 C593.52,19 611.52,19 611.52,19 C611.52,19 629.52,19 629.52,29 L629.52,55 C629.52,65 611.52,65 611.52,65 C611.52,65 593.52,65 593.52,55 L593.52,29" fill="#E2E2F0" style="stroke:#181818;stroke-width:0.5;"/><path d="M593.52,29 C593.52,39 611.52,39 611.52,39 C611.52,39 629.52,39 629.52,29" fill="none" style="stroke:#181818;stroke-width:0.5;"/></g><g class="participant participant-tail" data-entity-uid="part4" data-qualified-name="DB" data-source-line="4" id="part4-tail"><text fill="#000000" font-family="sans-serif" font-size="14" lengthAdjust="spacing" textLength="97.46" x="559.79" y="450.084">User Database</text><path d="M593.52,463.0371 C593.52,453.0371 611.52,453.0371 611.52,453.0371 C611.52,453.0371 629.52,453.0371 629.52,463.0371 L629.52,489.0371 C629.52,499.0371 611.52,499.0371 611.52,499.0371 C611.52,499.0371 593.52,499.0371 593.52,489.0371 L593.52,463.0371" fill="#E2E2F0" style="stroke:#181818;stroke-width:0.5;"/><path d="M593.52,463.0371 C593.52,473.0371 611.52,473.0371 611.52,473.0371 C611.52,473.0371 629.52,473.0371 629.52,463.0371" fill="none" style="stroke:#181818;stroke-width:0.5;"/></g><g class="message" data-entity-1="part1" data-entity-2="part2" data-source-line="6" id="msg1"><polygon fill="#181818" points="218.5728,108.7988,228.5728,112.7988,218.5728,116.7988,222.5728,112.7988" style="stroke:#181818;stroke-width:1;stroke-linejoin:miter;stroke-miterlimit:10;"/><line style="stroke:#181818;stroke-width:1;" x1="23.1826" x2="224.5728" y1="112.7988" y2="112.7988"/><text fill="#000000" font-family="sans-serif" font-size="13" lengthAdjust="spacing" textLength="183.3901" x="30.1826" y="108.0566">requestPasswordReset(email)</text></g><g class="message" data-entity-1="part2" data-entity-2="part3" data-source-line="7" id="msg2"><polygon fill="#181818" points="425.9629,138.1094,435.9629,142.1094,425.9629,146.1094,429.9629,142.1094" style="stroke:#181818;stroke-width:1;stroke-linejoin:miter;stroke-miterlimit:10;"/><line style="stroke:#181818;stroke-width:1;" x1="230.5728" x2="431.9629" y1="142.1094" y2="142.1094"/><text fill="#000000" font-family="sans-serif" font-size="13" lengthAdjust="spacing" textLength="183.3901" x="237.5728" y="137.3672">requestPasswordReset(email)</text></g><g class="message" data-entity-1="part3" data-entity-2="part4" data-source-line="8" id="msg3"><polygon fill="#181818" points="599.52,167.4199,609.52,171.4199,599.52,175.4199,603.52,171.4199" style="stroke:#181818;stroke-width:1;stroke-linejoin:miter;stroke-miterlimit:10;"/><line style="stroke:#181818;stroke-width:1;" x1="437.9629" x2="605.52" y1="171.4199" y2="171.4199"/><text fill="#000000" font-family="sans-serif" font-size="13" lengthAdjust="spacing" textLength="114.3022" x="444.9629" y="166.6777">lookupUser(email)</text></g><g class="message" data-entity-1="part4" data-entity-2="part3" data-source-line="9" id="msg4"><polygon fill="#181818" points="448.9629,196.7305,438.9629,200.7305,448.9629,204.7305,444.9629,200.7305" style="stroke:#181818;stroke-width:1;stroke-linejoin:miter;stroke-miterlimit:10;"/><line style="stroke:#181818;stroke-width:1;stroke-dasharray:2,2;" x1="442.9629" x2="610.52" y1="200.7305" y2="200.7305"/><text fill="#000000" font-family="sans-serif" font-size="13" lengthAdjust="spacing" textLength="35.877" x="454.9629" y="195.9883">result</text></g><path d="M345.3232,215.7305 L407.4619,215.7305 L407.4619,223.041 L397.4619,233.041 L345.3232,233.041 L345.3232,215.7305" fill="#EEEEEE" style="stroke:#000000;stroke-width:1.5;"/><rect fill="none" height="146.1973" style="stroke:#000000;stroke-width:1.5;" width="327.9268" x="345.3232" y="215.7305"/><text fill="#000000" font-family="sans-serif" font-size="13" font-weight="700" lengthAdjust="spacing" textLength="17.1387" x="360.3232" y="229.2988">alt</text><text fill="#000000" font-family="sans-serif" font-size="11" font-weight="700" lengthAdjust="spacing" textLength="70.0874" x="422.4619" y="228.3652">[user exists]</text><g class="message" data-entity-1="part3" data-entity-2="part3" data-source-line="12" id="msg5"><line style="stroke:#181818;stroke-width:1;" x1="437.9629" x2="479.9629" y1="254.3516" y2="254.3516"/><line style="stroke:#181818;stroke-width:1;" x1="479.9629" x2="479.9629" y1="254.3516" y2="267.3516"/><line style="stroke:#181818;stroke-width:1;" x1="438.9629" x2="479.9629" y1="267.3516" y2="267.3516"/><polygon fill="#181818" points="448.9629,263.3516,438.9629,267.3516,448.9629,271.3516,444.9629,267.3516" style="stroke:#181818;stroke-width:1;stroke-linejoin:miter;stroke-miterlimit:10;"/><text fill="#000000" font-family="sans-serif" font-size="13" lengthAdjust="spacing" textLength="137.0269" x="444.9629" y="249.6094">generateResetToken()</text></g><g class="message" data-entity-1="part3" data-entity-2="part4" data-source-line="13" id="msg6"><polygon fill="#181818" points="599.52,292.6621,609.52,296.6621,599.52,300.6621,603.52,296.6621" style="stroke:#181818;stroke-width:1;stroke-linejoin:miter;stroke-miterlimit:10;"/><line style="stroke:#181818;stroke-width:1;" x1="437.9629" x2="605.52" y1="296.6621" y2="296.6621"/><text fill="#000000" font-family="sans-serif" font-size="13" lengthAdjust="spacing" textLength="149.5571" x="444.9629" y="291.9199">storeResetToken(token)</text></g><g class="message" data-entity-1="part3" data-entity-2="part3" data-source-line="14" id="msg7"><line style="stroke:#181818;stroke-width:1;" x1="437.9629" x2="479.9629" y1="325.9727" y2="325.9727"/><line style="stroke:#181818;stroke-width:1;" x1="479.9629" x2="479.9629" y1="325.9727" y2="338.9727"/><line style="stroke:#181818;stroke-width:1;" x1="437.9629" x2="479.9629" y1="338.9727" y2="338.9727"/><line style="stroke:#181818;stroke-width:1;" x1="438.9629" x2="448.9629" y1="338.9727" y2="334.9727"/><line style="stroke:#181818;stroke-width:1;" x1="438.9629" x2="448.9629" y1="338.9727" y2="342.9727"/><text fill="#000000" font-family="sans-serif" font-size="13" lengthAdjust="spacing" textLength="106.647" x="444.9629" y="321.2305">sendResetEmail()</text></g><line style="stroke:#000000;stroke-width:1;stroke-dasharray:2,2;" x1="345.3232" x2="673.25" y1="347.9727" y2="347.9727"/><text fill="#000000" font-family="sans-serif" font-size="11" font-weight="700" lengthAdjust="spacing" textLength="89.042" x="350.3232" y="358.6074">[user unknown]</text><g class="message" data-entity-1="part3" data-entity-2="part2" data-source-line="18" id="msg8"><polygon fill="#181818" points="241.5728,386.2383,231.5728,390.2383,241.5728,394.2383,237.5728,390.2383" style="stroke:#181818;stroke-width:1;stroke-linejoin:miter;stroke-miterlimit:10;"/><line style="stroke:#181818;stroke-width:1;stroke-dasharray:2,2;" x1="235.5728" x2="436.9629" y1="390.2383" y2="390.2383"/><text fill="#000000" font-family="sans-serif" font-size="13" lengthAdjust="spacing" textLength="102.7305" x="247.5728" y="385.4961">successMessage</text></g><g class="message" data-entity-1="part2" data-entity-2="part1" data-source-line="19" id="msg9"><polygon fill="#181818" points="34.1826,415.5488,24.1826,419.5488,34.1826,423.5488,30.1826,419.5488" style="stroke:#181818;stroke-width:1;stroke-linejoin:miter;stroke-miterlimit:10;"/><line style="stroke:#181818;stroke-width:1;stroke-dasharray:2,2;" x1="28.1826" x2="229.5728" y1="419.5488" y2="419.5488"/><text fill="#000000" font-family="sans-serif" font-size="13" lengthAdjust="spacing" textLength="117.7554" x="40.1826" y="414.8066">neutralNotification</text></g><?plantuml-src VP5DJiGm38NtEONLrSnYBj054bLPWaRyYBKdOuQe8Icnmt1yuZP5OSCYKHn_UizvGIinmGjJCZCcSTRD60IwLph1CIP1tm5oFVv5RhEyKoWrYei1dYXzEKiBhYrpHi4JCa6dyZ3MSW76mPZbzd1JjNj8z9c9vOZCrvZEZyGaE_f0v_TcPPHMwVzP9PGSXnvyZ5EUrMdhZWCS6XdENen1Bv1r7FfsB6m0Df6Lkr2WX4ABptESAEps3QHEN79i-w9x0srIJ64TzqxdAJBaIqIBUGvJYDTW2c7gAvfuE5jBpFTbuOL-4oc4Fg-7G5aI-eSexgt-oGy0?></g></svg>