<?xml version="1.0" encoding="UTF-8"?>
<!-- kUML SVG · theme: kUML · engine: elk.layered -->
<svg xmlns="http://www.w3.org/2000/svg"
     viewBox="0 0 1196 1016"
     width="1196"
     height="1016">
  <defs>
  <style>
    .kuml-class { fill: #F8F5F0; stroke: #1D2B4F; stroke-width: 1.5; }
.kuml-interface { fill: #F8F5F0; stroke: #1D2B4F; stroke-width: 1.5; }
.kuml-enum { fill: #F8F5F0; stroke: #1D2B4F; stroke-width: 1.5; }
.kuml-component { fill: #F8F5F0; stroke: #1D2B4F; stroke-width: 1.5; }
.kuml-state { fill: #F8F5F0; stroke: #1D2B4F; stroke-width: 1.5; }
.kuml-usecase { fill: #F8F5F0; stroke: #1D2B4F; stroke-width: 1.5; }
.kuml-system { fill: #F8F5F0; stroke: #1D2B4F; stroke-width: 2.5; }
.kuml-container { fill: #F8F5F0; stroke: #1D2B4F; stroke-width: 1.0; }
.kuml-c4component { fill: #F8F5F0; stroke: #1D2B4F; stroke-width: 1.0; }
.kuml-instance { fill: #F8F5F0; stroke: #1D2B4F; stroke-width: 1.5; }
.kuml-comment { fill: #F8F5F0; stroke: #1D2B4F; stroke-width: 1.5; }
.kuml-comment-fold { fill: none; stroke: #1D2B4F; stroke-width: 1.0; }
.kuml-title { font-family: Geist, Inter, system-ui, sans-serif; font-size: 14.0px; font-weight: 700; fill: #0D1525; }
.kuml-title-abstract { font-style: italic; }
.kuml-subtitle { font-family: Geist, Inter, system-ui, sans-serif; font-size: 12.0px; font-weight: 600; fill: #0D1525; }
.kuml-body { font-family: Geist, Inter, system-ui, sans-serif; font-size: 11.0px; fill: #0D1525; }
.kuml-small { font-family: Geist, Inter, system-ui, sans-serif; font-size: 9.0px; fill: #6B7A99; }
.kuml-small-halo { font-family: Geist, Inter, system-ui, sans-serif; font-size: 9.0px; fill: #FFFFFF; stroke: #FFFFFF; stroke-width: 3px; stroke-linejoin: round; }
.kuml-edge-label { font-family: Geist, Inter, system-ui, sans-serif; font-size: 9.0px; fill: #6B7A99; }
.kuml-edge-label-halo { font-family: Geist, Inter, system-ui, sans-serif; font-size: 9.0px; fill: #FFFFFF; stroke: #FFFFFF; stroke-width: 3px; stroke-linejoin: round; }
.kuml-stereotype { font-family: Geist, Inter, system-ui, sans-serif; font-size: 10.0px; font-style: italic; fill: #6B7A99; }
.kuml-tagged-value { font-family: Geist, Inter, system-ui, sans-serif; font-size: 9.0px; font-style: italic; fill: #6B7A99; }
.kuml-edge { stroke: #1D2B4F; stroke-width: 1.5; fill: none; }
.kuml-seq-arrow-filled { stroke: #1D2B4F; stroke-width: 1.5; fill: #1D2B4F; }
.kuml-edge-dashed { stroke: #6B7A99; stroke-width: 1.5; fill: none; stroke-dasharray: 8 4; }
.kuml-divider { stroke: #1D2B4F; stroke-width: 1.0; }
.kuml-actor { stroke: #0D1525; stroke-width: 1.5; fill: none; }
.kuml-frame { fill: none; stroke: #1D2B4F; stroke-width: 1.5; }
.kuml-collaboration { fill: none; stroke: #1D2B4F; stroke-width: 1.5; }
.kuml-port { fill: #0D1525; stroke: #1D2B4F; stroke-width: 1.0; }
.kuml-port-label { font-family: Geist, Inter, system-ui, sans-serif; font-size: 9.0px; fill: #0D1525; }
.kuml-port-label-halo { font-family: Geist, Inter, system-ui, sans-serif; font-size: 9.0px; fill: none; stroke: #FFFFFF; stroke-width: 3.5px; stroke-linejoin: round; }
.kuml-connector { fill: none; stroke: #1D2B4F; stroke-width: 1.5; }
.kuml-connector-label { font-family: Geist, Inter, system-ui, sans-serif; font-size: 9.0px; fill: #0D1525; }
.kuml-action { fill: #F8F5F0; stroke: #1D2B4F; stroke-width: 1.5; }
.kuml-decision { fill: #F8F5F0; stroke: #1D2B4F; stroke-width: 1.5; }
.kuml-fork-bar { fill: #0D1525; stroke: #0D1525; stroke-width: 1.5; }
.kuml-pseudostate { fill: #0D1525; stroke: #0D1525; stroke-width: 1.5; }
.kuml-final-outer { fill: #F8F5F0; stroke: #1D2B4F; stroke-width: 1.5; }
.kuml-node { fill: #F8F5F0; stroke: #1D2B4F; stroke-width: 1.5; }
.kuml-node-top { fill: #6B7A99; stroke: #1D2B4F; stroke-width: 1.5; }
.kuml-node-side { fill: #6B7A99; stroke: #1D2B4F; stroke-width: 1.5; }
.kuml-artifact { fill: #F8F5F0; stroke: #1D2B4F; stroke-width: 1.5; }
.kuml-artifact-ear { fill: #6B7A99; stroke: #1D2B4F; stroke-width: 1.5; }
.kuml-stereotype-box { fill: #F8F5F0; stroke: #1D2B4F; stroke-width: 1.5; }
.kuml-timing-frame { fill: #F8F5F0; stroke: #1D2B4F; stroke-width: 1.5; }
.kuml-timing-line { stroke: #1D2B4F; stroke-width: 1.5; fill: none; }

  </style>
  </defs>
  <rect x="0" y="0" width="1196" height="1016" fill="#FFFFFF"/>
  <g id="nodes">
    <g id="kuml-diagram-frame">
      <rect x="2" y="2" width="1192" height="1012" rx="6" ry="6" class="kuml-frame"/>
      <text class="kuml-small" x="8" y="13">
        sequence: OAuth2 Authorization Code Flow
      </text>
    </g>
    <g id="OAuth2 Authorization Code Flow::frag::1">
      <rect x="32" y="435" width="1148" height="445" class="kuml-class" fill="none" stroke-dasharray="6 4"/>
      <polygon points="32,435 82,435 82,447 76,453 32,453" class="kuml-class" fill="white"/>
      <text class="kuml-stereotype" x="57" y="448" text-anchor="middle">
        ALT
      </text>
      <rect x="83" y="437" width="129.500" height="14" fill="white" stroke="none"/>
      <text class="kuml-body" x="86" y="448">
        [credentials valid]
      </text>
      <line x1="32" y1="804" x2="1180" y2="804" class="kuml-divider" stroke-dasharray="6 4"/>
      <rect x="33" y="805" width="142.500" height="14" fill="white" stroke="none"/>
      <text class="kuml-body" x="36" y="816">
        [credentials invalid]
      </text>
    </g>
    <g id="OAuth2 Authorization Code Flow::frag::2">
      <rect x="42" y="619" width="1128" height="141" class="kuml-class" fill="none" stroke-dasharray="6 4"/>
      <polygon points="42,619 92,619 92,631 86,637 42,637" class="kuml-class" fill="white"/>
      <text class="kuml-stereotype" x="67" y="632" text-anchor="middle">
        OPT
      </text>
      <rect x="93" y="621" width="162" height="14" fill="white" stroke="none"/>
      <text class="kuml-body" x="96" y="632">
        [scope includes profile]
      </text>
    </g>
    <g id="OAuth2 Authorization Code Flow::ll::User" transform="translate(56,56)">
      <rect width="140" height="40" class="kuml-class"/>
      <text class="kuml-stereotype" x="70" y="14" text-anchor="middle">
        «actor»
      </text>
      <text class="kuml-title" x="70" y="30" text-anchor="middle">
        User
      </text>
      <line x1="70" y1="40" x2="70" y2="920" class="kuml-divider" stroke-dasharray="4 4"/>
    </g>
    <g id="OAuth2 Authorization Code Flow::ll::Browser" transform="translate(216,56)">
      <rect width="140" height="40" class="kuml-class"/>
      <text class="kuml-stereotype" x="70" y="14" text-anchor="middle">
        «lifeline»
      </text>
      <text class="kuml-title" x="70" y="30" text-anchor="middle">
        Browser
      </text>
      <line x1="70" y1="40" x2="70" y2="920" class="kuml-divider" stroke-dasharray="4 4"/>
    </g>
    <g id="OAuth2 Authorization Code Flow::ll::ClientApp" transform="translate(376,56)">
      <rect width="140" height="40" class="kuml-class"/>
      <text class="kuml-stereotype" x="70" y="14" text-anchor="middle">
        «lifeline»
      </text>
      <text class="kuml-title" x="70" y="30" text-anchor="middle">
        ClientApp
      </text>
      <line x1="70" y1="40" x2="70" y2="920" class="kuml-divider" stroke-dasharray="4 4"/>
    </g>
    <g id="OAuth2 Authorization Code Flow::ll::AuthServer" transform="translate(536,56)">
      <rect width="140" height="40" class="kuml-class"/>
      <text class="kuml-stereotype" x="70" y="14" text-anchor="middle">
        «lifeline»
      </text>
      <text class="kuml-title" x="70" y="30" text-anchor="middle">
        AuthServer
      </text>
      <line x1="70" y1="40" x2="70" y2="920" class="kuml-divider" stroke-dasharray="4 4"/>
    </g>
    <g id="OAuth2 Authorization Code Flow::ll::SessionStore" transform="translate(696,56)">
      <rect width="140" height="40" class="kuml-class"/>
      <text class="kuml-stereotype" x="70" y="14" text-anchor="middle">
        «lifeline»
      </text>
      <text class="kuml-title" x="70" y="30" text-anchor="middle">
        SessionStore
      </text>
      <line x1="70" y1="40" x2="70" y2="920" class="kuml-divider" stroke-dasharray="4 4"/>
    </g>
    <g id="OAuth2 Authorization Code Flow::ll::ResourceServer" transform="translate(856,56)">
      <rect width="140" height="40" class="kuml-class"/>
      <text class="kuml-stereotype" x="70" y="14" text-anchor="middle">
        «lifeline»
      </text>
      <text class="kuml-title" x="70" y="30" text-anchor="middle">
        ResourceServer
      </text>
      <line x1="70" y1="40" x2="70" y2="920" class="kuml-divider" stroke-dasharray="4 4"/>
    </g>
    <g id="OAuth2 Authorization Code Flow::ll::AuditLog" transform="translate(1016,56)">
      <rect width="140" height="40" class="kuml-class"/>
      <text class="kuml-stereotype" x="70" y="14" text-anchor="middle">
        «lifeline»
      </text>
      <text class="kuml-title" x="70" y="30" text-anchor="middle">
        AuditLog
      </text>
      <line x1="70" y1="40" x2="70" y2="920" class="kuml-divider" stroke-dasharray="4 4"/>
    </g>
  </g>
  <g id="edges">
    <g id="OAuth2 Authorization Code Flow::msg::1">
      <line x1="126" y1="128" x2="286" y2="128" class="kuml-edge"/>
      <rect x="164" y="113" width="84" height="14" fill="white" stroke="none"/>
      <text class="kuml-body" x="206" y="124" text-anchor="middle">
        startLogin()
      </text>
      <polygon points="286,128 278,124 278,132" class="kuml-seq-arrow-filled"/>
    </g>
    <g id="OAuth2 Authorization Code Flow::msg::2">
      <line x1="286" y1="160" x2="446" y2="160" class="kuml-edge"/>
      <rect x="330.500" y="145" width="71" height="14" fill="white" stroke="none"/>
      <text class="kuml-body" x="366" y="156" text-anchor="middle">
        GET /login
      </text>
      <polygon points="446,160 438,156 438,164" class="kuml-seq-arrow-filled"/>
    </g>
    <g id="OAuth2 Authorization Code Flow::msg::3">
      <line x1="446" y1="192" x2="286" y2="192" class="kuml-edge-dashed"/>
      <rect x="288.250" y="177" width="155.500" height="14" fill="white" stroke="none"/>
      <text class="kuml-body" x="366" y="188" text-anchor="middle">
        302 Redirect /authorize
      </text>
      <path d="M 294 188 L 286 192 L 294 196" class="kuml-edge" fill="none"/>
    </g>
    <g id="OAuth2 Authorization Code Flow::msg::4">
      <line x1="286" y1="224" x2="606" y2="224" class="kuml-edge"/>
      <rect x="322.750" y="209" width="246.500" height="14" fill="white" stroke="none"/>
      <text class="kuml-body" x="446" y="220" text-anchor="middle">
        GET /authorize?client_id&amp;redirect_uri
      </text>
      <polygon points="606,224 598,220 598,228" class="kuml-seq-arrow-filled"/>
    </g>
    <g id="OAuth2 Authorization Code Flow::msg::5">
      <line x1="606" y1="256" x2="766" y2="256" class="kuml-edge"/>
      <rect x="657" y="241" width="58" height="14" fill="white" stroke="none"/>
      <text class="kuml-body" x="686" y="252" text-anchor="middle">
        «create»
      </text>
      <polygon points="766,256 758,252 758,260" class="kuml-seq-arrow-filled"/>
    </g>
    <g id="OAuth2 Authorization Code Flow::msg::6">
      <line x1="606" y1="288" x2="766" y2="288" class="kuml-edge"/>
      <rect x="621.250" y="273" width="129.500" height="14" fill="white" stroke="none"/>
      <text class="kuml-body" x="686" y="284" text-anchor="middle">
        initializeSession()
      </text>
      <polygon points="766,288 758,284 758,292" class="kuml-seq-arrow-filled"/>
    </g>
    <g id="OAuth2 Authorization Code Flow::msg::7">
      <line x1="766" y1="320" x2="606" y2="320" class="kuml-edge-dashed"/>
      <rect x="653.750" y="305" width="64.500" height="14" fill="white" stroke="none"/>
      <text class="kuml-body" x="686" y="316" text-anchor="middle">
        sessionId
      </text>
      <path d="M 614 316 L 606 320 L 614 324" class="kuml-edge" fill="none"/>
    </g>
    <g id="OAuth2 Authorization Code Flow::msg::8">
      <line x1="606" y1="352" x2="286" y2="352" class="kuml-edge-dashed"/>
      <rect x="410.500" y="337" width="71" height="14" fill="white" stroke="none"/>
      <text class="kuml-body" x="446" y="348" text-anchor="middle">
        Login Form
      </text>
      <path d="M 294 348 L 286 352 L 294 356" class="kuml-edge" fill="none"/>
    </g>
    <g id="OAuth2 Authorization Code Flow::msg::9">
      <line x1="126" y1="384" x2="286" y2="384" class="kuml-edge"/>
      <rect x="144.500" y="369" width="123" height="14" fill="white" stroke="none"/>
      <text class="kuml-body" x="206" y="380" text-anchor="middle">
        enterCredentials()
      </text>
      <polygon points="286,384 278,380 278,388" class="kuml-seq-arrow-filled"/>
    </g>
    <g id="OAuth2 Authorization Code Flow::msg::10">
      <line x1="286" y1="416" x2="606" y2="416" class="kuml-edge"/>
      <rect x="361.750" y="401" width="168.500" height="14" fill="white" stroke="none"/>
      <text class="kuml-body" x="446" y="412" text-anchor="middle">
        POST /login (credentials)
      </text>
      <polygon points="606,416 598,412 598,420" class="kuml-seq-arrow-filled"/>
    </g>
    <g id="OAuth2 Authorization Code Flow::msg::11">
      <line x1="606" y1="472" x2="1086" y2="472" class="kuml-edge"/>
      <rect x="739" y="457" width="214" height="14" fill="white" stroke="none"/>
      <text class="kuml-body" x="846" y="468" text-anchor="middle">
        log(&apos;Authorization Code issued&apos;)
      </text>
      <path d="M 1078 468 L 1086 472 L 1078 476" class="kuml-edge" fill="none"/>
    </g>
    <g id="OAuth2 Authorization Code Flow::msg::12">
      <line x1="606" y1="504" x2="286" y2="504" class="kuml-edge-dashed"/>
      <rect x="371.500" y="489" width="149" height="14" fill="white" stroke="none"/>
      <text class="kuml-body" x="446" y="500" text-anchor="middle">
        302 Redirect ?code=...
      </text>
      <path d="M 294 500 L 286 504 L 294 508" class="kuml-edge" fill="none"/>
    </g>
    <g id="OAuth2 Authorization Code Flow::msg::13">
      <line x1="286" y1="536" x2="446" y2="536" class="kuml-edge"/>
      <rect x="291.500" y="521" width="149" height="14" fill="white" stroke="none"/>
      <text class="kuml-body" x="366" y="532" text-anchor="middle">
        GET /callback?code=...
      </text>
      <polygon points="446,536 438,532 438,540" class="kuml-seq-arrow-filled"/>
    </g>
    <g id="OAuth2 Authorization Code Flow::msg::14">
      <line x1="446" y1="568" x2="606" y2="568" class="kuml-edge"/>
      <rect x="447" y="553" width="158" height="14" fill="white" stroke="none"/>
      <text class="kuml-body" x="526" y="564" text-anchor="middle" textLength="152" lengthAdjust="spacingAndGlyphs">
        POST /token (code, client_secret)
      </text>
      <polygon points="606,568 598,564 598,572" class="kuml-seq-arrow-filled"/>
    </g>
    <g id="OAuth2 Authorization Code Flow::msg::15">
      <line x1="606" y1="600" x2="446" y2="600" class="kuml-edge-dashed"/>
      <rect x="484" y="585" width="84" height="14" fill="white" stroke="none"/>
      <text class="kuml-body" x="526" y="596" text-anchor="middle">
        access_token
      </text>
      <path d="M 454 596 L 446 600 L 454 604" class="kuml-edge" fill="none"/>
    </g>
    <g id="OAuth2 Authorization Code Flow::msg::16">
      <line x1="446" y1="656" x2="926" y2="656" class="kuml-edge"/>
      <rect x="592" y="641" width="188" height="14" fill="white" stroke="none"/>
      <text class="kuml-body" x="686" y="652" text-anchor="middle">
        GET /userinfo (Bearer token)
      </text>
      <polygon points="926,656 918,652 918,660" class="kuml-seq-arrow-filled"/>
    </g>
    <g id="OAuth2 Authorization Code Flow::msg::17">
      <line x1="926" y1="688" x2="606" y2="688" class="kuml-edge"/>
      <rect x="668.750" y="673" width="194.500" height="14" fill="white" stroke="none"/>
      <text class="kuml-body" x="766" y="684" text-anchor="middle">
        introspectToken(access_token)
      </text>
      <polygon points="606,688 614,684 614,692" class="kuml-seq-arrow-filled"/>
    </g>
    <g id="OAuth2 Authorization Code Flow::msg::18">
      <line x1="606" y1="720" x2="926" y2="720" class="kuml-edge-dashed"/>
      <rect x="701.250" y="705" width="129.500" height="14" fill="white" stroke="none"/>
      <text class="kuml-body" x="766" y="716" text-anchor="middle">
        tokenValid + claims
      </text>
      <path d="M 918 716 L 926 720 L 918 724" class="kuml-edge" fill="none"/>
    </g>
    <g id="OAuth2 Authorization Code Flow::msg::19">
      <line x1="926" y1="752" x2="446" y2="752" class="kuml-edge-dashed"/>
      <rect x="647.250" y="737" width="77.500" height="14" fill="white" stroke="none"/>
      <text class="kuml-body" x="686" y="748" text-anchor="middle">
        userProfile
      </text>
      <path d="M 454 748 L 446 752 L 454 756" class="kuml-edge" fill="none"/>
    </g>
    <g id="OAuth2 Authorization Code Flow::msg::20">
      <line x1="446" y1="784" x2="286" y2="784" class="kuml-edge-dashed"/>
      <rect x="327.250" y="769" width="77.500" height="14" fill="white" stroke="none"/>
      <text class="kuml-body" x="366" y="780" text-anchor="middle">
        welcomePage
      </text>
      <path d="M 294 780 L 286 784 L 294 788" class="kuml-edge" fill="none"/>
    </g>
    <g id="OAuth2 Authorization Code Flow::msg::21">
      <line x1="606" y1="840" x2="766" y2="840" class="kuml-edge"/>
      <rect x="653.750" y="825" width="64.500" height="14" fill="white" stroke="none"/>
      <text class="kuml-body" x="686" y="836" text-anchor="middle">
        «destroy»
      </text>
      <path d="M 758 836 L 766 840 L 758 844" class="kuml-edge" fill="none"/>
    </g>
    <g id="OAuth2 Authorization Code Flow::msg::22">
      <line x1="606" y1="872" x2="286" y2="872" class="kuml-edge-dashed"/>
      <rect x="404" y="857" width="84" height="14" fill="white" stroke="none"/>
      <text class="kuml-body" x="446" y="868" text-anchor="middle">
        errorMessage
      </text>
      <path d="M 294 868 L 286 872 L 294 876" class="kuml-edge" fill="none"/>
    </g>
    <g id="OAuth2 Authorization Code Flow::msg::23">
      <line x1="286" y1="904" x2="126" y2="904" class="kuml-edge-dashed"/>
      <rect x="180.250" y="889" width="51.500" height="14" fill="white" stroke="none"/>
      <text class="kuml-body" x="206" y="900" text-anchor="middle">
        display
      </text>
      <path d="M 134 900 L 126 904 L 134 908" class="kuml-edge" fill="none"/>
    </g>
  </g>
</svg>
