<svg xmlns="http://www.w3.org/2000/svg" xmlns:xlink="http://www.w3.org/1999/xlink" contentStyleType="text/css" data-diagram-type="CLASS" height="502px" preserveAspectRatio="none" style="width:943px;height:502px;background:#FFFFFF;" version="1.1" viewBox="0 0 943 502" width="943px" zoomAndPan="magnify"><?plantuml 1.2026.6?><defs/><g><!--class Vehicle--><g class="entity" data-qualified-name="Vehicle" data-source-line="1" id="ent0001"><rect fill="#F1F1F1" height="48" rx="2.5" ry="2.5" style="stroke:#181818;stroke-width:0.5;" width="80.7061" x="522.13" y="7"/><ellipse cx="537.13" cy="23" fill="#ADD1B2" rx="11" ry="11" style="stroke:#181818;stroke-width:1;"/><path d="M539.6031,29.1431 Q539.0221,29.4419 538.3829,29.5913 Q537.7438,29.7407 537.0382,29.7407 Q534.5314,29.7407 533.2115,28.0889 Q531.8917,26.437 531.8917,23.3159 Q531.8917,20.1865 533.2115,18.5347 Q534.5314,16.8828 537.0382,16.8828 Q537.7438,16.8828 538.3912,17.0322 Q539.0387,17.1816 539.6031,17.4805 L539.6031,20.2031 Q538.9723,19.6221 538.3788,19.3523 Q537.7853,19.0825 537.1544,19.0825 Q535.8097,19.0825 535.1249,20.1492 Q534.4401,21.2158 534.4401,23.3159 Q534.4401,25.4077 535.1249,26.4744 Q535.8097,27.541 537.1544,27.541 Q537.7853,27.541 538.3788,27.2712 Q538.9723,27.0015 539.6031,26.4204 Z " fill="#000000"/><text fill="#000000" font-family="sans-serif" font-size="14" lengthAdjust="spacing" textLength="48.7061" x="551.13" y="28.291">Vehicle</text><line style="stroke:#181818;stroke-width:0.5;" x1="523.13" x2="601.8361" y1="39" y2="39"/><line style="stroke:#181818;stroke-width:0.5;" x1="523.13" x2="601.8361" y1="47" y2="47"/></g><!--class DrivetrainSystem--><g class="entity" data-qualified-name="DrivetrainSystem" data-source-line="2" id="ent0002"><rect fill="#F1F1F1" height="48" rx="2.5" ry="2.5" style="stroke:#181818;stroke-width:0.5;" width="146.8369" x="273.07" y="115"/><ellipse cx="288.07" cy="131" fill="#ADD1B2" rx="11" ry="11" style="stroke:#181818;stroke-width:1;"/><path d="M290.5431,137.1431 Q289.9621,137.4419 289.3229,137.5913 Q288.6838,137.7407 287.9782,137.7407 Q285.4714,137.7407 284.1515,136.0889 Q282.8317,134.437 282.8317,131.3159 Q282.8317,128.1865 284.1515,126.5347 Q285.4714,124.8828 287.9782,124.8828 Q288.6838,124.8828 289.3312,125.0322 Q289.9787,125.1816 290.5431,125.4805 L290.5431,128.2031 Q289.9123,127.6221 289.3188,127.3523 Q288.7253,127.0825 288.0944,127.0825 Q286.7497,127.0825 286.0649,128.1492 Q285.3801,129.2158 285.3801,131.3159 Q285.3801,133.4077 286.0649,134.4744 Q286.7497,135.541 288.0944,135.541 Q288.7253,135.541 289.3188,135.2712 Q289.9123,135.0015 290.5431,134.4204 Z " fill="#000000"/><text fill="#000000" font-family="sans-serif" font-size="14" lengthAdjust="spacing" textLength="114.8369" x="302.07" y="136.291">DrivetrainSystem</text><line style="stroke:#181818;stroke-width:0.5;" x1="274.07" x2="418.9069" y1="147" y2="147"/><line style="stroke:#181818;stroke-width:0.5;" x1="274.07" x2="418.9069" y1="155" y2="155"/></g><!--class HighVoltageBatteryPack--><g class="entity" data-qualified-name="HighVoltageBatteryPack" data-source-line="3" id="ent0003"><rect fill="#F1F1F1" height="48" rx="2.5" ry="2.5" style="stroke:#181818;stroke-width:0.5;" width="192.9727" x="7" y="223"/><ellipse cx="22" cy="239" fill="#ADD1B2" rx="11" ry="11" style="stroke:#181818;stroke-width:1;"/><path d="M24.4731,245.1431 Q23.8921,245.4419 23.2529,245.5913 Q22.6138,245.7407 21.9082,245.7407 Q19.4014,245.7407 18.0815,244.0889 Q16.7617,242.437 16.7617,239.3159 Q16.7617,236.1865 18.0815,234.5347 Q19.4014,232.8828 21.9082,232.8828 Q22.6138,232.8828 23.2612,233.0322 Q23.9087,233.1816 24.4731,233.4805 L24.4731,236.2031 Q23.8423,235.6221 23.2488,235.3523 Q22.6553,235.0825 22.0244,235.0825 Q20.6797,235.0825 19.9949,236.1492 Q19.3101,237.2158 19.3101,239.3159 Q19.3101,241.4077 19.9949,242.4744 Q20.6797,243.541 22.0244,243.541 Q22.6553,243.541 23.2488,243.2712 Q23.8423,243.0015 24.4731,242.4204 Z " fill="#000000"/><text fill="#000000" font-family="sans-serif" font-size="14" lengthAdjust="spacing" textLength="160.9727" x="36" y="244.291">HighVoltageBatteryPack</text><line style="stroke:#181818;stroke-width:0.5;" x1="8" x2="198.9727" y1="255" y2="255"/><line style="stroke:#181818;stroke-width:0.5;" x1="8" x2="198.9727" y1="263" y2="263"/></g><!--class BatteryModule--><g class="entity" data-qualified-name="BatteryModule" data-source-line="4" id="ent0004"><rect fill="#F1F1F1" height="48" rx="2.5" ry="2.5" style="stroke:#181818;stroke-width:0.5;" width="129.1045" x="38.93" y="331"/><ellipse cx="53.93" cy="347" fill="#ADD1B2" rx="11" ry="11" style="stroke:#181818;stroke-width:1;"/><path d="M56.4031,353.1431 Q55.8221,353.4419 55.1829,353.5913 Q54.5438,353.7407 53.8382,353.7407 Q51.3314,353.7407 50.0115,352.0889 Q48.6917,350.437 48.6917,347.3159 Q48.6917,344.1865 50.0115,342.5347 Q51.3314,340.8828 53.8382,340.8828 Q54.5438,340.8828 55.1912,341.0322 Q55.8387,341.1816 56.4031,341.4805 L56.4031,344.2031 Q55.7723,343.6221 55.1788,343.3523 Q54.5853,343.0825 53.9544,343.0825 Q52.6097,343.0825 51.9249,344.1492 Q51.2401,345.2158 51.2401,347.3159 Q51.2401,349.4077 51.9249,350.4744 Q52.6097,351.541 53.9544,351.541 Q54.5853,351.541 55.1788,351.2712 Q55.7723,351.0015 56.4031,350.4204 Z " fill="#000000"/><text fill="#000000" font-family="sans-serif" font-size="14" lengthAdjust="spacing" textLength="97.1045" x="67.93" y="352.291">BatteryModule</text><line style="stroke:#181818;stroke-width:0.5;" x1="39.93" x2="167.0345" y1="363" y2="363"/><line style="stroke:#181818;stroke-width:0.5;" x1="39.93" x2="167.0345" y1="371" y2="371"/></g><!--class Cell--><g class="entity" data-qualified-name="Cell" data-source-line="5" id="ent0005"><rect fill="#F1F1F1" height="48" rx="2.5" ry="2.5" style="stroke:#181818;stroke-width:0.5;" width="57.5801" x="74.7" y="439"/><ellipse cx="89.7" cy="455" fill="#ADD1B2" rx="11" ry="11" style="stroke:#181818;stroke-width:1;"/><path d="M92.1731,461.1431 Q91.5921,461.4419 90.9529,461.5913 Q90.3138,461.7407 89.6082,461.7407 Q87.1014,461.7407 85.7815,460.0889 Q84.4617,458.437 84.4617,455.3159 Q84.4617,452.1865 85.7815,450.5347 Q87.1014,448.8828 89.6082,448.8828 Q90.3138,448.8828 90.9612,449.0322 Q91.6087,449.1816 92.1731,449.4805 L92.1731,452.2031 Q91.5423,451.6221 90.9488,451.3523 Q90.3553,451.0825 89.7244,451.0825 Q88.3797,451.0825 87.6949,452.1492 Q87.0101,453.2158 87.0101,455.3159 Q87.0101,457.4077 87.6949,458.4744 Q88.3797,459.541 89.7244,459.541 Q90.3553,459.541 90.9488,459.2712 Q91.5423,459.0015 92.1731,458.4204 Z " fill="#000000"/><text fill="#000000" font-family="sans-serif" font-size="14" lengthAdjust="spacing" textLength="25.5801" x="103.7" y="460.291">Cell</text><line style="stroke:#181818;stroke-width:0.5;" x1="75.7" x2="131.2801" y1="471" y2="471"/><line style="stroke:#181818;stroke-width:0.5;" x1="75.7" x2="131.2801" y1="479" y2="479"/></g><!--class Inverter--><g class="entity" data-qualified-name="Inverter" data-source-line="6" id="ent0006"><rect fill="#F1F1F1" height="48" rx="2.5" ry="2.5" style="stroke:#181818;stroke-width:0.5;" width="84.2607" x="235.36" y="223"/><ellipse cx="250.36" cy="239" fill="#ADD1B2" rx="11" ry="11" style="stroke:#181818;stroke-width:1;"/><path d="M252.8331,245.1431 Q252.2521,245.4419 251.6129,245.5913 Q250.9738,245.7407 250.2682,245.7407 Q247.7614,245.7407 246.4415,244.0889 Q245.1217,242.437 245.1217,239.3159 Q245.1217,236.1865 246.4415,234.5347 Q247.7614,232.8828 250.2682,232.8828 Q250.9738,232.8828 251.6212,233.0322 Q252.2687,233.1816 252.8331,233.4805 L252.8331,236.2031 Q252.2023,235.6221 251.6088,235.3523 Q251.0153,235.0825 250.3844,235.0825 Q249.0397,235.0825 248.3549,236.1492 Q247.6701,237.2158 247.6701,239.3159 Q247.6701,241.4077 248.3549,242.4744 Q249.0397,243.541 250.3844,243.541 Q251.0153,243.541 251.6088,243.2712 Q252.2023,243.0015 252.8331,242.4204 Z " fill="#000000"/><text fill="#000000" font-family="sans-serif" font-size="14" lengthAdjust="spacing" textLength="52.2607" x="264.36" y="244.291">Inverter</text><line style="stroke:#181818;stroke-width:0.5;" x1="236.36" x2="318.6207" y1="255" y2="255"/><line style="stroke:#181818;stroke-width:0.5;" x1="236.36" x2="318.6207" y1="263" y2="263"/></g><!--class ElectricMotor--><g class="entity" data-qualified-name="ElectricMotor" data-source-line="7" id="ent0007"><rect fill="#F1F1F1" height="48" rx="2.5" ry="2.5" style="stroke:#181818;stroke-width:0.5;" width="121.0107" x="354.98" y="223"/><ellipse cx="369.98" cy="239" fill="#ADD1B2" rx="11" ry="11" style="stroke:#181818;stroke-width:1;"/><path d="M372.4531,245.1431 Q371.8721,245.4419 371.2329,245.5913 Q370.5938,245.7407 369.8882,245.7407 Q367.3814,245.7407 366.0615,244.0889 Q364.7417,242.437 364.7417,239.3159 Q364.7417,236.1865 366.0615,234.5347 Q367.3814,232.8828 369.8882,232.8828 Q370.5938,232.8828 371.2412,233.0322 Q371.8887,233.1816 372.4531,233.4805 L372.4531,236.2031 Q371.8223,235.6221 371.2288,235.3523 Q370.6353,235.0825 370.0044,235.0825 Q368.6597,235.0825 367.9749,236.1492 Q367.2901,237.2158 367.2901,239.3159 Q367.2901,241.4077 367.9749,242.4744 Q368.6597,243.541 370.0044,243.541 Q370.6353,243.541 371.2288,243.2712 Q371.8223,243.0015 372.4531,242.4204 Z " fill="#000000"/><text fill="#000000" font-family="sans-serif" font-size="14" lengthAdjust="spacing" textLength="89.0107" x="383.98" y="244.291">ElectricMotor</text><line style="stroke:#181818;stroke-width:0.5;" x1="355.98" x2="474.9907" y1="255" y2="255"/><line style="stroke:#181818;stroke-width:0.5;" x1="355.98" x2="474.9907" y1="263" y2="263"/></g><!--class Gearbox--><g class="entity" data-qualified-name="Gearbox" data-source-line="8" id="ent0008"><rect fill="#F1F1F1" height="48" rx="2.5" ry="2.5" style="stroke:#181818;stroke-width:0.5;" width="89.374" x="510.8" y="223"/><ellipse cx="525.8" cy="239" fill="#ADD1B2" rx="11" ry="11" style="stroke:#181818;stroke-width:1;"/><path d="M528.2731,245.1431 Q527.6921,245.4419 527.0529,245.5913 Q526.4138,245.7407 525.7082,245.7407 Q523.2014,245.7407 521.8815,244.0889 Q520.5617,242.437 520.5617,239.3159 Q520.5617,236.1865 521.8815,234.5347 Q523.2014,232.8828 525.7082,232.8828 Q526.4138,232.8828 527.0612,233.0322 Q527.7087,233.1816 528.2731,233.4805 L528.2731,236.2031 Q527.6423,235.6221 527.0488,235.3523 Q526.4553,235.0825 525.8244,235.0825 Q524.4797,235.0825 523.7949,236.1492 Q523.1101,237.2158 523.1101,239.3159 Q523.1101,241.4077 523.7949,242.4744 Q524.4797,243.541 525.8244,243.541 Q526.4553,243.541 527.0488,243.2712 Q527.6423,243.0015 528.2731,242.4204 Z " fill="#000000"/><text fill="#000000" font-family="sans-serif" font-size="14" lengthAdjust="spacing" textLength="57.374" x="539.8" y="244.291">Gearbox</text><line style="stroke:#181818;stroke-width:0.5;" x1="511.8" x2="599.174" y1="255" y2="255"/><line style="stroke:#181818;stroke-width:0.5;" x1="511.8" x2="599.174" y1="263" y2="263"/></g><!--class BatteryManagementSystem--><g class="entity" data-qualified-name="BatteryManagementSystem" data-source-line="9" id="ent0009"><rect fill="#F1F1F1" height="48" rx="2.5" ry="2.5" style="stroke:#181818;stroke-width:0.5;" width="214.7314" x="455.12" y="115"/><ellipse cx="470.12" cy="131" fill="#ADD1B2" rx="11" ry="11" style="stroke:#181818;stroke-width:1;"/><path d="M472.5931,137.1431 Q472.0121,137.4419 471.3729,137.5913 Q470.7338,137.7407 470.0282,137.7407 Q467.5214,137.7407 466.2015,136.0889 Q464.8817,134.437 464.8817,131.3159 Q464.8817,128.1865 466.2015,126.5347 Q467.5214,124.8828 470.0282,124.8828 Q470.7338,124.8828 471.3812,125.0322 Q472.0287,125.1816 472.5931,125.4805 L472.5931,128.2031 Q471.9623,127.6221 471.3688,127.3523 Q470.7753,127.0825 470.1444,127.0825 Q468.7997,127.0825 468.1149,128.1492 Q467.4301,129.2158 467.4301,131.3159 Q467.4301,133.4077 468.1149,134.4744 Q468.7997,135.541 470.1444,135.541 Q470.7753,135.541 471.3688,135.2712 Q471.9623,135.0015 472.5931,134.4204 Z " fill="#000000"/><text fill="#000000" font-family="sans-serif" font-size="14" lengthAdjust="spacing" textLength="182.7314" x="484.12" y="136.291">BatteryManagementSystem</text><line style="stroke:#181818;stroke-width:0.5;" x1="456.12" x2="668.8514" y1="147" y2="147"/><line style="stroke:#181818;stroke-width:0.5;" x1="456.12" x2="668.8514" y1="155" y2="155"/></g><!--class ThermalManagementSystem--><g class="entity" data-qualified-name="ThermalManagementSystem" data-source-line="10" id="ent0010"><rect fill="#F1F1F1" height="48" rx="2.5" ry="2.5" style="stroke:#181818;stroke-width:0.5;" width="223.5498" x="704.71" y="115"/><ellipse cx="719.71" cy="131" fill="#ADD1B2" rx="11" ry="11" style="stroke:#181818;stroke-width:1;"/><path d="M722.1831,137.1431 Q721.6021,137.4419 720.9629,137.5913 Q720.3238,137.7407 719.6182,137.7407 Q717.1114,137.7407 715.7915,136.0889 Q714.4717,134.437 714.4717,131.3159 Q714.4717,128.1865 715.7915,126.5347 Q717.1114,124.8828 719.6182,124.8828 Q720.3238,124.8828 720.9712,125.0322 Q721.6187,125.1816 722.1831,125.4805 L722.1831,128.2031 Q721.5523,127.6221 720.9588,127.3523 Q720.3653,127.0825 719.7344,127.0825 Q718.3897,127.0825 717.7049,128.1492 Q717.0201,129.2158 717.0201,131.3159 Q717.0201,133.4077 717.7049,134.4744 Q718.3897,135.541 719.7344,135.541 Q720.3653,135.541 720.9588,135.2712 Q721.5523,135.0015 722.1831,134.4204 Z " fill="#000000"/><text fill="#000000" font-family="sans-serif" font-size="14" lengthAdjust="spacing" textLength="191.5498" x="733.71" y="136.291">ThermalManagementSystem</text><line style="stroke:#181818;stroke-width:0.5;" x1="705.71" x2="927.2598" y1="147" y2="147"/><line style="stroke:#181818;stroke-width:0.5;" x1="705.71" x2="927.2598" y1="155" y2="155"/></g><!--reverse link Vehicle to DrivetrainSystem--><g class="link" data-entity-1="ent0001" data-entity-2="ent0002" data-link-type="composition" data-source-line="12" id="lnk11"><path codeLine="12" d="M511.0868,57.2257 C474.7868,75.0357 432.36,95.86 394.09,114.64" fill="none" id="Vehicle-backto-DrivetrainSystem" style="stroke:#181818;stroke-width:1;"/><polygon fill="#181818" points="521.86,51.94,514.7115,50.9918,511.0868,57.2257,518.2353,58.1739,521.86,51.94" style="stroke:#181818;stroke-width:1;stroke-linejoin:miter;stroke-miterlimit:10;"/><text fill="#000000" font-family="sans-serif" font-size="13" lengthAdjust="spacing" textLength="8.2202" x="505.9311" y="51.93">1</text><text fill="#000000" font-family="sans-serif" font-size="13" lengthAdjust="spacing" textLength="8.2202" x="397.2911" y="104.084">1</text></g><!--reverse link Vehicle to BatteryManagementSystem--><g class="link" data-entity-1="ent0001" data-entity-2="ent0009" data-link-type="composition" data-source-line="13" id="lnk12"><path codeLine="13" d="M562.49,67.26 C562.49,84.94 562.49,97.13 562.49,114.79" fill="none" id="Vehicle-backto-BatteryManagementSystem" style="stroke:#181818;stroke-width:1;"/><polygon fill="#181818" points="562.49,55.26,558.49,61.26,562.49,67.26,566.49,61.26,562.49,55.26" style="stroke:#181818;stroke-width:1;stroke-linejoin:miter;stroke-miterlimit:10;"/><text fill="#000000" font-family="sans-serif" font-size="13" lengthAdjust="spacing" textLength="8.2202" x="553.5435" y="75.6077">1</text><text fill="#000000" font-family="sans-serif" font-size="13" lengthAdjust="spacing" textLength="8.2202" x="553.4943" y="104.2725">1</text></g><!--reverse link Vehicle to ThermalManagementSystem--><g class="link" data-entity-1="ent0001" data-entity-2="ent0010" data-link-type="composition" data-source-line="14" id="lnk13"><path codeLine="14" d="M614.3744,53.6515 C657.0044,71.4415 713.09,94.85 760.63,114.69" fill="none" id="Vehicle-backto-ThermalManagementSystem" style="stroke:#181818;stroke-width:1;"/><polygon fill="#181818" points="603.3,49.03,607.2967,55.0322,614.3744,53.6515,610.3777,47.6493,603.3,49.03" style="stroke:#181818;stroke-width:1;stroke-linejoin:miter;stroke-miterlimit:10;"/><text fill="#000000" font-family="sans-serif" font-size="13" lengthAdjust="spacing" textLength="8.2202" x="610.741" y="48.3681">1</text><text fill="#000000" font-family="sans-serif" font-size="13" lengthAdjust="spacing" textLength="8.2202" x="737.3204" y="104.1468">1</text></g><!--reverse link DrivetrainSystem to HighVoltageBatteryPack--><g class="link" data-entity-1="ent0002" data-entity-2="ent0003" data-link-type="composition" data-source-line="16" id="lnk14"><path codeLine="16" d="M281.8611,168.1883 C241.4711,185.8083 197.34,205.06 156.98,222.67" fill="none" id="DrivetrainSystem-backto-HighVoltageBatteryPack" style="stroke:#181818;stroke-width:1;"/><polygon fill="#181818" points="292.86,163.39,285.7611,162.1228,281.8611,168.1883,288.9599,169.4554,292.86,163.39" style="stroke:#181818;stroke-width:1;stroke-linejoin:miter;stroke-miterlimit:10;"/><text fill="#000000" font-family="sans-serif" font-size="13" lengthAdjust="spacing" textLength="8.2202" x="271.5589" y="183.3688">1</text><text fill="#000000" font-family="sans-serif" font-size="13" lengthAdjust="spacing" textLength="8.2202" x="161.691" y="212.1217">1</text></g><!--reverse link DrivetrainSystem to Inverter--><g class="link" data-entity-1="ent0002" data-entity-2="ent0006" data-link-type="composition" data-source-line="17" id="lnk15"><path codeLine="17" d="M324.7969,173.3192 C313.2969,190.9992 304.09,205.13 292.59,222.79" fill="none" id="DrivetrainSystem-backto-Inverter" style="stroke:#181818;stroke-width:1;"/><polygon fill="#181818" points="331.34,163.26,324.7154,166.1086,324.7969,173.3192,331.4216,170.4706,331.34,163.26" style="stroke:#181818;stroke-width:1;stroke-linejoin:miter;stroke-miterlimit:10;"/><text fill="#000000" font-family="sans-serif" font-size="13" lengthAdjust="spacing" textLength="8.2202" x="318.6994" y="183.6077">1</text><text fill="#000000" font-family="sans-serif" font-size="13" lengthAdjust="spacing" textLength="8.2202" x="287.4625" y="212.2725">1</text></g><!--reverse link DrivetrainSystem to ElectricMotor--><g class="link" data-entity-1="ent0002" data-entity-2="ent0007" data-link-type="composition" data-source-line="18" id="lnk16"><path codeLine="18" d="M368.1731,173.3192 C379.6731,190.9992 388.88,205.13 400.38,222.79" fill="none" id="DrivetrainSystem-backto-ElectricMotor" style="stroke:#181818;stroke-width:1;"/><polygon fill="#181818" points="361.63,163.26,361.5484,170.4706,368.1731,173.3192,368.2546,166.1086,361.63,163.26" style="stroke:#181818;stroke-width:1;stroke-linejoin:miter;stroke-miterlimit:10;"/><text fill="#000000" font-family="sans-serif" font-size="13" lengthAdjust="spacing" textLength="8.2202" x="356.3726" y="183.6077">1</text><text fill="#000000" font-family="sans-serif" font-size="13" lengthAdjust="spacing" textLength="22.7119" x="371.7817" y="212.2725">1..*</text></g><!--reverse link DrivetrainSystem to Gearbox--><g class="link" data-entity-1="ent0002" data-entity-2="ent0008" data-link-type="composition" data-source-line="19" id="lnk17"><path codeLine="19" d="M403.3112,168.8199 C438.4112,186.6299 475.75,205.56 510.56,223.21" fill="none" id="DrivetrainSystem-backto-Gearbox" style="stroke:#181818;stroke-width:1;"/><polygon fill="#181818" points="392.61,163.39,396.1507,169.672,403.3112,168.8199,399.7706,162.5379,392.61,163.39" style="stroke:#181818;stroke-width:1;stroke-linejoin:miter;stroke-miterlimit:10;"/><text fill="#000000" font-family="sans-serif" font-size="13" lengthAdjust="spacing" textLength="8.2202" x="394.3761" y="183.3688">1</text><text fill="#000000" font-family="sans-serif" font-size="13" lengthAdjust="spacing" textLength="8.2202" x="494.4747" y="215.6217">1</text></g><!--reverse link HighVoltageBatteryPack to BatteryModule--><g class="link" data-entity-1="ent0003" data-entity-2="ent0004" data-link-type="composition" data-source-line="21" id="lnk18"><path codeLine="21" d="M103.49,283.26 C103.49,300.94 103.49,313.13 103.49,330.79" fill="none" id="HighVoltageBatteryPack-backto-BatteryModule" style="stroke:#181818;stroke-width:1;"/><polygon fill="#181818" points="103.49,271.26,99.49,277.26,103.49,283.26,107.49,277.26,103.49,271.26" style="stroke:#181818;stroke-width:1;stroke-linejoin:miter;stroke-miterlimit:10;"/><text fill="#000000" font-family="sans-serif" font-size="13" lengthAdjust="spacing" textLength="8.2202" x="94.5427" y="291.6077">1</text><text fill="#000000" font-family="sans-serif" font-size="13" lengthAdjust="spacing" textLength="22.7119" x="78.7645" y="320.2725">1..*</text></g><!--reverse link BatteryModule to Cell--><g class="link" data-entity-1="ent0004" data-entity-2="ent0005" data-link-type="composition" data-source-line="22" id="lnk19"><path codeLine="22" d="M103.49,391.26 C103.49,408.94 103.49,421.13 103.49,438.79" fill="none" id="BatteryModule-backto-Cell" style="stroke:#181818;stroke-width:1;"/><polygon fill="#181818" points="103.49,379.26,99.49,385.26,103.49,391.26,107.49,385.26,103.49,379.26" style="stroke:#181818;stroke-width:1;stroke-linejoin:miter;stroke-miterlimit:10;"/><text fill="#000000" font-family="sans-serif" font-size="13" lengthAdjust="spacing" textLength="8.2202" x="94.5437" y="399.6077">1</text><text fill="#000000" font-family="sans-serif" font-size="13" lengthAdjust="spacing" textLength="22.7119" x="78.7625" y="428.2725">1..*</text></g><?plantuml-src VL7R2eCm37ttAyH7GM6_i0lR7eJ1XkzP5xGijj1cClz-JghGUdbgavoSavm80clZ4cif22CnH4SZMsG3KjqxozYuz4LMTQc9eS8zCAFfRY3UhkWoXNvz9fu34hdlLRLeUe0BJuI2ZHI5PZtcpWZcgRy17wXUha75tYYF6aq3DAj6Rf4usILnccN3Erjd2RIcjuHTLG-LlAuL-pPx9jisK7cU9e6XcvoZpz7oG26pVrWl2g7_U_y0?></g></svg>