<?xml version="1.0" encoding="UTF-8"?>
<!-- kUML SVG · theme: kUML · engine: elk.layered -->
<svg xmlns="http://www.w3.org/2000/svg"
     viewBox="0 0 1196 944"
     width="1196"
     height="944">
  <defs>
  <style>
    .kuml-class { fill: #F8F5F0; stroke: #1D2B4F; stroke-width: 1.5; }
.kuml-interface { fill: #F8F5F0; stroke: #1D2B4F; stroke-width: 1.5; }
.kuml-enum { fill: #F8F5F0; stroke: #1D2B4F; stroke-width: 1.5; }
.kuml-component { fill: #F8F5F0; stroke: #1D2B4F; stroke-width: 1.5; }
.kuml-state { fill: #F8F5F0; stroke: #1D2B4F; stroke-width: 1.5; }
.kuml-usecase { fill: #F8F5F0; stroke: #1D2B4F; stroke-width: 1.5; }
.kuml-system { fill: #F8F5F0; stroke: #1D2B4F; stroke-width: 2.5; }
.kuml-container { fill: #F8F5F0; stroke: #1D2B4F; stroke-width: 1.0; }
.kuml-c4component { fill: #F8F5F0; stroke: #1D2B4F; stroke-width: 1.0; }
.kuml-instance { fill: #F8F5F0; stroke: #1D2B4F; stroke-width: 1.5; }
.kuml-comment { fill: #F8F5F0; stroke: #1D2B4F; stroke-width: 1.5; }
.kuml-comment-fold { fill: none; stroke: #1D2B4F; stroke-width: 1.0; }
.kuml-title { font-family: Geist, Inter, system-ui, sans-serif; font-size: 14.0px; font-weight: 700; fill: #0D1525; }
.kuml-title-abstract { font-style: italic; }
.kuml-subtitle { font-family: Geist, Inter, system-ui, sans-serif; font-size: 12.0px; font-weight: 600; fill: #0D1525; }
.kuml-body { font-family: Geist, Inter, system-ui, sans-serif; font-size: 11.0px; fill: #0D1525; }
.kuml-small { font-family: Geist, Inter, system-ui, sans-serif; font-size: 9.0px; fill: #6B7A99; }
.kuml-small-halo { font-family: Geist, Inter, system-ui, sans-serif; font-size: 9.0px; fill: #FFFFFF; stroke: #FFFFFF; stroke-width: 3px; stroke-linejoin: round; }
.kuml-edge-label { font-family: Geist, Inter, system-ui, sans-serif; font-size: 9.0px; fill: #6B7A99; }
.kuml-edge-label-halo { font-family: Geist, Inter, system-ui, sans-serif; font-size: 9.0px; fill: #FFFFFF; stroke: #FFFFFF; stroke-width: 3px; stroke-linejoin: round; }
.kuml-stereotype { font-family: Geist, Inter, system-ui, sans-serif; font-size: 10.0px; font-style: italic; fill: #6B7A99; }
.kuml-tagged-value { font-family: Geist, Inter, system-ui, sans-serif; font-size: 9.0px; font-style: italic; fill: #6B7A99; }
.kuml-edge { stroke: #1D2B4F; stroke-width: 1.5; fill: none; }
.kuml-seq-arrow-filled { stroke: #1D2B4F; stroke-width: 1.5; fill: #1D2B4F; }
.kuml-edge-dashed { stroke: #6B7A99; stroke-width: 1.5; fill: none; stroke-dasharray: 8 4; }
.kuml-divider { stroke: #1D2B4F; stroke-width: 1.0; }
.kuml-actor { stroke: #0D1525; stroke-width: 1.5; fill: none; }
.kuml-frame { fill: none; stroke: #1D2B4F; stroke-width: 1.5; }
.kuml-collaboration { fill: none; stroke: #1D2B4F; stroke-width: 1.5; }
.kuml-port { fill: #0D1525; stroke: #1D2B4F; stroke-width: 1.0; }
.kuml-port-label { font-family: Geist, Inter, system-ui, sans-serif; font-size: 9.0px; fill: #0D1525; }
.kuml-port-label-halo { font-family: Geist, Inter, system-ui, sans-serif; font-size: 9.0px; fill: none; stroke: #FFFFFF; stroke-width: 3.5px; stroke-linejoin: round; }
.kuml-connector { fill: none; stroke: #1D2B4F; stroke-width: 1.5; }
.kuml-connector-label { font-family: Geist, Inter, system-ui, sans-serif; font-size: 9.0px; fill: #0D1525; }
.kuml-action { fill: #F8F5F0; stroke: #1D2B4F; stroke-width: 1.5; }
.kuml-decision { fill: #F8F5F0; stroke: #1D2B4F; stroke-width: 1.5; }
.kuml-fork-bar { fill: #0D1525; stroke: #0D1525; stroke-width: 1.5; }
.kuml-pseudostate { fill: #0D1525; stroke: #0D1525; stroke-width: 1.5; }
.kuml-final-outer { fill: #F8F5F0; stroke: #1D2B4F; stroke-width: 1.5; }
.kuml-node { fill: #F8F5F0; stroke: #1D2B4F; stroke-width: 1.5; }
.kuml-node-top { fill: #6B7A99; stroke: #1D2B4F; stroke-width: 1.5; }
.kuml-node-side { fill: #6B7A99; stroke: #1D2B4F; stroke-width: 1.5; }
.kuml-artifact { fill: #F8F5F0; stroke: #1D2B4F; stroke-width: 1.5; }
.kuml-artifact-ear { fill: #6B7A99; stroke: #1D2B4F; stroke-width: 1.5; }
.kuml-stereotype-box { fill: #F8F5F0; stroke: #1D2B4F; stroke-width: 1.5; }
.kuml-timing-frame { fill: #F8F5F0; stroke: #1D2B4F; stroke-width: 1.5; }
.kuml-timing-line { stroke: #1D2B4F; stroke-width: 1.5; fill: none; }

  </style>
  </defs>
  <rect x="0" y="0" width="1196" height="944" fill="#FFFFFF"/>
  <g id="nodes">
    <g id="kuml-diagram-frame">
      <rect x="2" y="2" width="1192" height="940" rx="6" ry="6" class="kuml-frame"/>
      <text class="kuml-small" x="8" y="13">
        sequence: Distributed Saga Transaction
      </text>
    </g>
    <g id="Distributed Saga Transaction::frag::1">
      <rect x="32" y="307" width="1148" height="469" class="kuml-class" fill="none" stroke-dasharray="6 4"/>
      <polygon points="32,307 82,307 82,319 76,325 32,325" class="kuml-class" fill="white"/>
      <text class="kuml-stereotype" x="57" y="320" text-anchor="middle">
        ALT
      </text>
      <rect x="83" y="309" width="116.500" height="14" fill="white" stroke="none"/>
      <text class="kuml-body" x="86" y="320">
        [items available]
      </text>
      <line x1="32" y1="700" x2="1180" y2="700" class="kuml-divider" stroke-dasharray="6 4"/>
      <rect x="33" y="701" width="142.500" height="14" fill="white" stroke="none"/>
      <text class="kuml-body" x="36" y="712">
        [items not available]
      </text>
    </g>
    <g id="Distributed Saga Transaction::frag::2">
      <rect x="42" y="395" width="1128" height="293" class="kuml-class" fill="none" stroke-dasharray="6 4"/>
      <polygon points="42,395 92,395 92,407 86,413 42,413" class="kuml-class" fill="white"/>
      <text class="kuml-stereotype" x="67" y="408" text-anchor="middle">
        ALT
      </text>
      <rect x="93" y="397" width="136" height="14" fill="white" stroke="none"/>
      <text class="kuml-body" x="96" y="408">
        [payment successful]
      </text>
      <line x1="42" y1="548" x2="1170" y2="548" class="kuml-divider" stroke-dasharray="6 4"/>
      <rect x="43" y="549" width="110" height="14" fill="white" stroke="none"/>
      <text class="kuml-body" x="46" y="560">
        [payment failed]
      </text>
    </g>
    <g id="Distributed Saga Transaction::ll::Customer" transform="translate(56,56)">
      <rect width="140" height="40" class="kuml-class"/>
      <text class="kuml-stereotype" x="70" y="14" text-anchor="middle">
        «actor»
      </text>
      <text class="kuml-title" x="70" y="30" text-anchor="middle">
        Customer
      </text>
      <line x1="70" y1="40" x2="70" y2="848" class="kuml-divider" stroke-dasharray="4 4"/>
    </g>
    <g id="Distributed Saga Transaction::ll::OrderService" transform="translate(216,56)">
      <rect width="140" height="40" class="kuml-class"/>
      <text class="kuml-stereotype" x="70" y="14" text-anchor="middle">
        «lifeline»
      </text>
      <text class="kuml-title" x="70" y="30" text-anchor="middle">
        OrderService
      </text>
      <line x1="70" y1="40" x2="70" y2="848" class="kuml-divider" stroke-dasharray="4 4"/>
    </g>
    <g id="Distributed Saga Transaction::ll::SagaOrchestrator" transform="translate(376,56)">
      <rect width="140" height="40" class="kuml-class"/>
      <text class="kuml-stereotype" x="70" y="14" text-anchor="middle">
        «lifeline»
      </text>
      <text class="kuml-title" x="70" y="30" text-anchor="middle">
        SagaOrchestrator
      </text>
      <line x1="70" y1="40" x2="70" y2="848" class="kuml-divider" stroke-dasharray="4 4"/>
    </g>
    <g id="Distributed Saga Transaction::ll::WarehouseService" transform="translate(536,56)">
      <rect width="140" height="40" class="kuml-class"/>
      <text class="kuml-stereotype" x="70" y="14" text-anchor="middle">
        «lifeline»
      </text>
      <text class="kuml-title" x="70" y="30" text-anchor="middle">
        WarehouseService
      </text>
      <line x1="70" y1="40" x2="70" y2="848" class="kuml-divider" stroke-dasharray="4 4"/>
    </g>
    <g id="Distributed Saga Transaction::ll::PaymentService" transform="translate(696,56)">
      <rect width="140" height="40" class="kuml-class"/>
      <text class="kuml-stereotype" x="70" y="14" text-anchor="middle">
        «lifeline»
      </text>
      <text class="kuml-title" x="70" y="30" text-anchor="middle">
        PaymentService
      </text>
      <line x1="70" y1="40" x2="70" y2="848" class="kuml-divider" stroke-dasharray="4 4"/>
    </g>
    <g id="Distributed Saga Transaction::ll::ShippingService" transform="translate(856,56)">
      <rect width="140" height="40" class="kuml-class"/>
      <text class="kuml-stereotype" x="70" y="14" text-anchor="middle">
        «lifeline»
      </text>
      <text class="kuml-title" x="70" y="30" text-anchor="middle">
        ShippingService
      </text>
      <line x1="70" y1="40" x2="70" y2="848" class="kuml-divider" stroke-dasharray="4 4"/>
    </g>
    <g id="Distributed Saga Transaction::ll::EventLog" transform="translate(1016,56)">
      <rect width="140" height="40" class="kuml-class"/>
      <text class="kuml-stereotype" x="70" y="14" text-anchor="middle">
        «lifeline»
      </text>
      <text class="kuml-title" x="70" y="30" text-anchor="middle">
        EventLog
      </text>
      <line x1="70" y1="40" x2="70" y2="848" class="kuml-divider" stroke-dasharray="4 4"/>
    </g>
  </g>
  <g id="edges">
    <g id="Distributed Saga Transaction::msg::1">
      <line x1="126" y1="128" x2="286" y2="128" class="kuml-edge"/>
      <rect x="151" y="113" width="110" height="14" fill="white" stroke="none"/>
      <text class="kuml-body" x="206" y="124" text-anchor="middle">
        placeOrder(cart)
      </text>
      <polygon points="286,128 278,124 278,132" class="kuml-seq-arrow-filled"/>
    </g>
    <g id="Distributed Saga Transaction::msg::2">
      <line x1="286" y1="160" x2="446" y2="160" class="kuml-edge"/>
      <rect x="337" y="145" width="58" height="14" fill="white" stroke="none"/>
      <text class="kuml-body" x="366" y="156" text-anchor="middle">
        «create»
      </text>
      <polygon points="446,160 438,156 438,164" class="kuml-seq-arrow-filled"/>
    </g>
    <g id="Distributed Saga Transaction::msg::3">
      <line x1="286" y1="192" x2="446" y2="192" class="kuml-edge"/>
      <rect x="294.750" y="177" width="142.500" height="14" fill="white" stroke="none"/>
      <text class="kuml-body" x="366" y="188" text-anchor="middle">
        startOrderSaga(order)
      </text>
      <polygon points="446,192 438,188 438,196" class="kuml-seq-arrow-filled"/>
    </g>
    <g id="Distributed Saga Transaction::msg::4">
      <line x1="446" y1="224" x2="1086" y2="224" class="kuml-edge"/>
      <rect x="701.250" y="209" width="129.500" height="14" fill="white" stroke="none"/>
      <text class="kuml-body" x="766" y="220" text-anchor="middle">
        log(&apos;Saga started&apos;)
      </text>
      <path d="M 1078 220 L 1086 224 L 1078 228" class="kuml-edge" fill="none"/>
    </g>
    <g id="Distributed Saga Transaction::msg::5">
      <line x1="446" y1="256" x2="606" y2="256" class="kuml-edge"/>
      <rect x="448.250" y="241" width="155.500" height="14" fill="white" stroke="none"/>
      <text class="kuml-body" x="526" y="252" text-anchor="middle">
        reserveItems(positions)
      </text>
      <polygon points="606,256 598,252 598,260" class="kuml-seq-arrow-filled"/>
    </g>
    <g id="Distributed Saga Transaction::msg::6">
      <line x1="606" y1="288" x2="446" y2="288" class="kuml-edge-dashed"/>
      <rect x="467.750" y="273" width="116.500" height="14" fill="white" stroke="none"/>
      <text class="kuml-body" x="526" y="284" text-anchor="middle">
        reservationResult
      </text>
      <path d="M 454 284 L 446 288 L 454 292" class="kuml-edge" fill="none"/>
    </g>
    <g id="Distributed Saga Transaction::msg::7">
      <line x1="446" y1="344" x2="766" y2="344" class="kuml-edge"/>
      <rect x="531.500" y="329" width="149" height="14" fill="white" stroke="none"/>
      <text class="kuml-body" x="606" y="340" text-anchor="middle">
        executePayment(amount)
      </text>
      <polygon points="766,344 758,340 758,348" class="kuml-seq-arrow-filled"/>
    </g>
    <g id="Distributed Saga Transaction::msg::8">
      <line x1="766" y1="376" x2="446" y2="376" class="kuml-edge-dashed"/>
      <rect x="560.750" y="361" width="90.500" height="14" fill="white" stroke="none"/>
      <text class="kuml-body" x="606" y="372" text-anchor="middle">
        paymentResult
      </text>
      <path d="M 454 372 L 446 376 L 454 380" class="kuml-edge" fill="none"/>
    </g>
    <g id="Distributed Saga Transaction::msg::9">
      <line x1="446" y1="432" x2="926" y2="432" class="kuml-edge"/>
      <rect x="595.250" y="417" width="181.500" height="14" fill="white" stroke="none"/>
      <text class="kuml-body" x="686" y="428" text-anchor="middle">
        commissionShipment(address)
      </text>
      <polygon points="926,432 918,428 918,436" class="kuml-seq-arrow-filled"/>
    </g>
    <g id="Distributed Saga Transaction::msg::10">
      <line x1="926" y1="464" x2="446" y2="464" class="kuml-edge-dashed"/>
      <rect x="637.500" y="449" width="97" height="14" fill="white" stroke="none"/>
      <text class="kuml-body" x="686" y="460" text-anchor="middle">
        trackingNumber
      </text>
      <path d="M 454 460 L 446 464 L 454 468" class="kuml-edge" fill="none"/>
    </g>
    <g id="Distributed Saga Transaction::msg::11">
      <line x1="446" y1="496" x2="1086" y2="496" class="kuml-edge"/>
      <rect x="694.750" y="481" width="142.500" height="14" fill="white" stroke="none"/>
      <text class="kuml-body" x="766" y="492" text-anchor="middle">
        log(&apos;Saga completed&apos;)
      </text>
      <path d="M 1078 492 L 1086 496 L 1078 500" class="kuml-edge" fill="none"/>
    </g>
    <g id="Distributed Saga Transaction::msg::12">
      <line x1="446" y1="528" x2="286" y2="528" class="kuml-edge-dashed"/>
      <rect x="317.500" y="513" width="97" height="14" fill="white" stroke="none"/>
      <text class="kuml-body" x="366" y="524" text-anchor="middle">
        sagaSuccessful
      </text>
      <path d="M 294 524 L 286 528 L 294 532" class="kuml-edge" fill="none"/>
    </g>
    <g id="Distributed Saga Transaction::msg::13">
      <line x1="446" y1="584" x2="606" y2="584" class="kuml-edge"/>
      <rect x="447" y="569" width="158" height="14" fill="white" stroke="none"/>
      <text class="kuml-body" x="526" y="580" text-anchor="middle" textLength="152" lengthAdjust="spacingAndGlyphs">
        cancelReservation(positions)
      </text>
      <polygon points="606,584 598,580 598,588" class="kuml-seq-arrow-filled"/>
    </g>
    <g id="Distributed Saga Transaction::msg::14">
      <line x1="606" y1="616" x2="446" y2="616" class="kuml-edge-dashed"/>
      <rect x="454.750" y="601" width="142.500" height="14" fill="white" stroke="none"/>
      <text class="kuml-body" x="526" y="612" text-anchor="middle">
        cancellationConfirmed
      </text>
      <path d="M 454 612 L 446 616 L 454 620" class="kuml-edge" fill="none"/>
    </g>
    <g id="Distributed Saga Transaction::msg::15">
      <line x1="446" y1="648" x2="1086" y2="648" class="kuml-edge"/>
      <rect x="688.250" y="633" width="155.500" height="14" fill="white" stroke="none"/>
      <text class="kuml-body" x="766" y="644" text-anchor="middle">
        log(&apos;Saga compensated&apos;)
      </text>
      <path d="M 1078 644 L 1086 648 L 1078 652" class="kuml-edge" fill="none"/>
    </g>
    <g id="Distributed Saga Transaction::msg::16">
      <line x1="446" y1="680" x2="286" y2="680" class="kuml-edge-dashed"/>
      <rect x="330.500" y="665" width="71" height="14" fill="white" stroke="none"/>
      <text class="kuml-body" x="366" y="676" text-anchor="middle">
        sagaFailed
      </text>
      <path d="M 294 676 L 286 680 L 294 684" class="kuml-edge" fill="none"/>
    </g>
    <g id="Distributed Saga Transaction::msg::17">
      <line x1="446" y1="736" x2="1086" y2="736" class="kuml-edge"/>
      <rect x="701.250" y="721" width="129.500" height="14" fill="white" stroke="none"/>
      <text class="kuml-body" x="766" y="732" text-anchor="middle">
        log(&apos;Saga aborted&apos;)
      </text>
      <path d="M 1078 732 L 1086 736 L 1078 740" class="kuml-edge" fill="none"/>
    </g>
    <g id="Distributed Saga Transaction::msg::18">
      <line x1="446" y1="768" x2="286" y2="768" class="kuml-edge-dashed"/>
      <rect x="327.250" y="753" width="77.500" height="14" fill="white" stroke="none"/>
      <text class="kuml-body" x="366" y="764" text-anchor="middle">
        sagaAborted
      </text>
      <path d="M 294 764 L 286 768 L 294 772" class="kuml-edge" fill="none"/>
    </g>
    <g id="Distributed Saga Transaction::msg::19">
      <line x1="286" y1="800" x2="446" y2="800" class="kuml-edge"/>
      <rect x="333.750" y="785" width="64.500" height="14" fill="white" stroke="none"/>
      <text class="kuml-body" x="366" y="796" text-anchor="middle">
        «destroy»
      </text>
      <path d="M 438 796 L 446 800 L 438 804" class="kuml-edge" fill="none"/>
    </g>
    <g id="Distributed Saga Transaction::msg::20">
      <line x1="286" y1="832" x2="126" y2="832" class="kuml-edge-dashed"/>
      <rect x="167.250" y="817" width="77.500" height="14" fill="white" stroke="none"/>
      <text class="kuml-body" x="206" y="828" text-anchor="middle">
        orderStatus
      </text>
      <path d="M 134 828 L 126 832 L 134 836" class="kuml-edge" fill="none"/>
    </g>
  </g>
</svg>
