<svg xmlns="http://www.w3.org/2000/svg" xmlns:xlink="http://www.w3.org/1999/xlink" contentStyleType="text/css" data-diagram-type="CLASS" height="451px" preserveAspectRatio="none" style="width:713px;height:451px;background:#FFFFFF;" version="1.1" viewBox="0 0 713 451" width="713px" zoomAndPan="magnify"><?plantuml 1.2026.6?><defs/><g><!--class Customer--><g class="entity" data-qualified-name="Customer" data-source-line="2" id="ent0001"><rect fill="#F1F1F1" height="48" rx="2.5" ry="2.5" style="stroke:#181818;stroke-width:0.5;" width="97.9463" x="7" y="31.74"/><ellipse cx="22" cy="47.74" fill="#ADD1B2" rx="11" ry="11" style="stroke:#181818;stroke-width:1;"/><path d="M24.4731,53.8831 Q23.8921,54.1819 23.2529,54.3313 Q22.6138,54.4807 21.9082,54.4807 Q19.4014,54.4807 18.0815,52.8289 Q16.7617,51.177 16.7617,48.0559 Q16.7617,44.9265 18.0815,43.2747 Q19.4014,41.6228 21.9082,41.6228 Q22.6138,41.6228 23.2612,41.7722 Q23.9087,41.9216 24.4731,42.2205 L24.4731,44.9431 Q23.8423,44.3621 23.2488,44.0923 Q22.6553,43.8225 22.0244,43.8225 Q20.6797,43.8225 19.9949,44.8892 Q19.3101,45.9558 19.3101,48.0559 Q19.3101,50.1477 19.9949,51.2144 Q20.6797,52.281 22.0244,52.281 Q22.6553,52.281 23.2488,52.0112 Q23.8423,51.7415 24.4731,51.1604 Z " fill="#000000"/><text fill="#000000" font-family="sans-serif" font-size="14" lengthAdjust="spacing" textLength="65.9463" x="36" y="53.031">Customer</text><line style="stroke:#181818;stroke-width:0.5;" x1="8" x2="103.9463" y1="63.74" y2="63.74"/><line style="stroke:#181818;stroke-width:0.5;" x1="8" x2="103.9463" y1="71.74" y2="71.74"/></g><!--class Account--><g class="entity" data-qualified-name="Account" data-source-line="5" id="ent0002"><rect fill="#F1F1F1" height="80.9766" rx="2.5" ry="2.5" style="stroke:#181818;stroke-width:0.5;" width="135.2725" x="162.34" y="181.47"/><ellipse cx="198.9664" cy="197.47" fill="#A9DCDF" rx="11" ry="11" style="stroke:#181818;stroke-width:1;"/><path d="M198.8296,192.8181 L197.6758,197.8899 L199.9918,197.8899 Z M197.3355,190.5769 L200.3321,190.5769 L203.6773,202.97 L201.2286,202.97 L200.4649,199.907 L197.1861,199.907 L196.439,202.97 L193.9903,202.97 Z " fill="#000000"/><text fill="#000000" font-family="sans-serif" font-size="14" font-style="italic" lengthAdjust="spacing" textLength="55.2139" x="217.7722" y="202.761">Account</text><line style="stroke:#181818;stroke-width:0.5;" x1="163.34" x2="296.6125" y1="213.47" y2="213.47"/><g data-visibility-modifier="PUBLIC_FIELD"><ellipse cx="173.34" cy="227.2141" fill="none" rx="3" ry="3" style="stroke:#038048;stroke-width:1;"/></g><text fill="#000000" font-family="sans-serif" font-size="14" lengthAdjust="spacing" textLength="78.1074" x="182.34" y="231.0052">iban: String</text><g data-visibility-modifier="PUBLIC_FIELD"><ellipse cx="173.34" cy="243.7024" fill="none" rx="3" ry="3" style="stroke:#038048;stroke-width:1;"/></g><text fill="#000000" font-family="sans-serif" font-size="14" lengthAdjust="spacing" textLength="109.2725" x="182.34" y="247.4934">balance: Double</text><line style="stroke:#181818;stroke-width:0.5;" x1="163.34" x2="296.6125" y1="254.4466" y2="254.4466"/></g><!--class CheckingAccount--><g class="entity" data-qualified-name="CheckingAccount" data-source-line="10" id="ent0003"><rect fill="#F1F1F1" height="64.4883" rx="2.5" ry="2.5" style="stroke:#181818;stroke-width:0.5;" width="179.1865" x="140.38" y="23.49"/><ellipse cx="168.4208" cy="39.49" fill="#ADD1B2" rx="11" ry="11" style="stroke:#181818;stroke-width:1;"/><path d="M170.8939,45.6331 Q170.3129,45.9319 169.6737,46.0813 Q169.0345,46.2307 168.329,46.2307 Q165.8221,46.2307 164.5023,44.5789 Q163.1825,42.927 163.1825,39.8059 Q163.1825,36.6765 164.5023,35.0247 Q165.8221,33.3728 168.329,33.3728 Q169.0345,33.3728 169.682,33.5222 Q170.3295,33.6716 170.8939,33.9705 L170.8939,36.6931 Q170.2631,36.1121 169.6696,35.8423 Q169.076,35.5725 168.4452,35.5725 Q167.1005,35.5725 166.4156,36.6392 Q165.7308,37.7058 165.7308,39.8059 Q165.7308,41.8977 166.4156,42.9644 Q167.1005,44.031 168.4452,44.031 Q169.076,44.031 169.6696,43.7612 Q170.2631,43.4915 170.8939,42.9104 Z " fill="#000000"/><text fill="#000000" font-family="sans-serif" font-size="14" lengthAdjust="spacing" textLength="118.207" x="185.3187" y="44.781">CheckingAccount</text><line style="stroke:#181818;stroke-width:0.5;" x1="141.38" x2="318.5665" y1="55.49" y2="55.49"/><g data-visibility-modifier="PUBLIC_FIELD"><ellipse cx="151.38" cy="69.2341" fill="none" rx="3" ry="3" style="stroke:#038048;stroke-width:1;"/></g><text fill="#000000" font-family="sans-serif" font-size="14" lengthAdjust="spacing" textLength="153.1865" x="160.38" y="73.0252">overdraftLimit: Double</text><line style="stroke:#181818;stroke-width:0.5;" x1="141.38" x2="318.5665" y1="79.9783" y2="79.9783"/></g><!--class SavingsAccount--><g class="entity" data-qualified-name="SavingsAccount" data-source-line="14" id="ent0004"><rect fill="#F1F1F1" height="64.4883" rx="2.5" ry="2.5" style="stroke:#181818;stroke-width:0.5;" width="164.585" x="354.68" y="23.49"/><ellipse cx="381.4934" cy="39.49" fill="#ADD1B2" rx="11" ry="11" style="stroke:#181818;stroke-width:1;"/><path d="M383.9665,45.6331 Q383.3855,45.9319 382.7463,46.0813 Q382.1071,46.2307 381.4016,46.2307 Q378.8947,46.2307 377.5749,44.5789 Q376.2551,42.927 376.2551,39.8059 Q376.2551,36.6765 377.5749,35.0247 Q378.8947,33.3728 381.4016,33.3728 Q382.1071,33.3728 382.7546,33.5222 Q383.4021,33.6716 383.9665,33.9705 L383.9665,36.6931 Q383.3357,36.1121 382.7422,35.8423 Q382.1487,35.5725 381.5178,35.5725 Q380.1731,35.5725 379.4883,36.6392 Q378.8034,37.7058 378.8034,39.8059 Q378.8034,41.8977 379.4883,42.9644 Q380.1731,44.031 381.5178,44.031 Q382.1487,44.031 382.7422,43.7612 Q383.3357,43.4915 383.9665,42.9104 Z " fill="#000000"/><text fill="#000000" font-family="sans-serif" font-size="14" lengthAdjust="spacing" textLength="106.333" x="398.1186" y="44.781">SavingsAccount</text><line style="stroke:#181818;stroke-width:0.5;" x1="355.68" x2="518.265" y1="55.49" y2="55.49"/><g data-visibility-modifier="PUBLIC_FIELD"><ellipse cx="365.68" cy="69.2341" fill="none" rx="3" ry="3" style="stroke:#038048;stroke-width:1;"/></g><text fill="#000000" font-family="sans-serif" font-size="14" lengthAdjust="spacing" textLength="138.585" x="374.68" y="73.0252">interestRate: Double</text><line style="stroke:#181818;stroke-width:0.5;" x1="355.68" x2="518.265" y1="79.9783" y2="79.9783"/></g><!--class InterestContract--><g class="entity" data-qualified-name="InterestContract" data-source-line="18" id="ent0005"><rect fill="#F1F1F1" height="64.4883" rx="2.5" ry="2.5" style="stroke:#181818;stroke-width:0.5;" width="203.6797" x="335.13" y="189.71"/><ellipse cx="378.0041" cy="205.71" fill="#B4A7E5" rx="11" ry="11" style="stroke:#181818;stroke-width:1;"/><path d="M374.4318,201.9751 L374.4318,199.8169 L381.8112,199.8169 L381.8112,201.9751 L379.3459,201.9751 L379.3459,210.0518 L381.8112,210.0518 L381.8112,212.21 L374.4318,212.21 L374.4318,210.0518 L376.8971,210.0518 L376.8971,201.9751 Z " fill="#000000"/><text fill="#000000" font-family="sans-serif" font-size="14" font-style="italic" lengthAdjust="spacing" textLength="109.7373" x="398.1983" y="211.001">InterestContract</text><line style="stroke:#181818;stroke-width:0.5;" x1="336.13" x2="537.8097" y1="221.71" y2="221.71"/><line style="stroke:#181818;stroke-width:0.5;" x1="336.13" x2="537.8097" y1="229.71" y2="229.71"/><g data-visibility-modifier="PUBLIC_METHOD"><ellipse cx="346.13" cy="243.4541" fill="#84BE84" rx="3" ry="3" style="stroke:#038048;stroke-width:1;"/></g><text fill="#000000" font-family="sans-serif" font-size="14" lengthAdjust="spacing" textLength="177.6797" x="355.13" y="247.2452">calculateInterest(): Double</text></g><!--class TransactionType--><g class="entity" data-qualified-name="TransactionType" data-source-line="22" id="ent0006"><rect fill="#F1F1F1" height="97.4648" rx="2.5" ry="2.5" style="stroke:#181818;stroke-width:0.5;" width="144.3896" x="553.78" y="7"/><ellipse cx="568.78" cy="23" fill="#EB937F" rx="11" ry="11" style="stroke:#181818;stroke-width:1;"/><path d="M572.3943,29.5 L564.6745,29.5 L564.6745,17.1069 L572.3943,17.1069 L572.3943,19.2651 L567.1233,19.2651 L567.1233,21.938 L571.8962,21.938 L571.8962,24.0962 L567.1233,24.0962 L567.1233,27.3418 L572.3943,27.3418 Z " fill="#000000"/><text fill="#000000" font-family="sans-serif" font-size="14" lengthAdjust="spacing" textLength="112.3896" x="582.78" y="28.291">TransactionType</text><line style="stroke:#181818;stroke-width:0.5;" x1="554.78" x2="697.1696" y1="39" y2="39"/><text fill="#000000" font-family="sans-serif" font-size="14" lengthAdjust="spacing" textLength="52.1172" x="559.78" y="56.5352">Deposit</text><text fill="#000000" font-family="sans-serif" font-size="14" lengthAdjust="spacing" textLength="74.7852" x="559.78" y="73.0234">Withdrawal</text><text fill="#000000" font-family="sans-serif" font-size="14" lengthAdjust="spacing" textLength="56.8135" x="559.78" y="89.5117">Transfer</text><line style="stroke:#181818;stroke-width:0.5;" x1="554.78" x2="697.1696" y1="96.4648" y2="96.4648"/></g><!--class Transaction--><g class="entity" data-qualified-name="Transaction" data-source-line="28" id="ent0007"><rect fill="#F1F1F1" height="97.4648" rx="2.5" ry="2.5" style="stroke:#181818;stroke-width:0.5;" width="176.4111" x="141.77" y="339.45"/><ellipse cx="185.9299" cy="355.45" fill="#ADD1B2" rx="11" ry="11" style="stroke:#181818;stroke-width:1;"/><path d="M188.4031,361.5931 Q187.822,361.8919 187.1828,362.0413 Q186.5437,362.1907 185.8381,362.1907 Q183.3313,362.1907 182.0115,360.5389 Q180.6916,358.887 180.6916,355.7659 Q180.6916,352.6365 182.0115,350.9847 Q183.3313,349.3328 185.8381,349.3328 Q186.5437,349.3328 187.1911,349.4822 Q187.8386,349.6316 188.4031,349.9305 L188.4031,352.6531 Q187.7722,352.0721 187.1787,351.8023 Q186.5852,351.5325 185.9543,351.5325 Q184.6096,351.5325 183.9248,352.5992 Q183.24,353.6658 183.24,355.7659 Q183.24,357.8577 183.9248,358.9244 Q184.6096,359.991 185.9543,359.991 Q186.5852,359.991 187.1787,359.7212 Q187.7722,359.4515 188.4031,358.8704 Z " fill="#000000"/><text fill="#000000" font-family="sans-serif" font-size="14" lengthAdjust="spacing" textLength="79.6113" x="206.4099" y="360.741">Transaction</text><line style="stroke:#181818;stroke-width:0.5;" x1="142.77" x2="317.1811" y1="371.45" y2="371.45"/><g data-visibility-modifier="PUBLIC_FIELD"><ellipse cx="152.77" cy="385.1941" fill="none" rx="3" ry="3" style="stroke:#038048;stroke-width:1;"/></g><text fill="#000000" font-family="sans-serif" font-size="14" lengthAdjust="spacing" textLength="109.3066" x="161.77" y="388.9852">amount: Double</text><g data-visibility-modifier="PUBLIC_FIELD"><ellipse cx="152.77" cy="401.6824" fill="none" rx="3" ry="3" style="stroke:#038048;stroke-width:1;"/></g><text fill="#000000" font-family="sans-serif" font-size="14" lengthAdjust="spacing" textLength="146.0225" x="161.77" y="405.4734">timestamp: DateTime</text><g data-visibility-modifier="PUBLIC_FIELD"><ellipse cx="152.77" cy="418.1707" fill="none" rx="3" ry="3" style="stroke:#038048;stroke-width:1;"/></g><text fill="#000000" font-family="sans-serif" font-size="14" lengthAdjust="spacing" textLength="150.4111" x="161.77" y="421.9617">type: TransactionType</text><line style="stroke:#181818;stroke-width:0.5;" x1="142.77" x2="317.1811" y1="428.9148" y2="428.9148"/></g><!--reverse link Customer to Account--><g class="link" data-entity-1="ent0001" data-entity-2="ent0002" data-link-type="composition" data-source-line="34" id="lnk8"><path codeLine="34" d="M89.2579,88.1555 C117.0879,114.4155 154.19,149.43 187.77,181.12" fill="none" id="Customer-backto-Account" style="stroke:#181818;stroke-width:1;"/><polygon fill="#181818" points="80.53,79.92,82.1488,86.9471,89.2579,88.1555,87.6391,81.1285,80.53,79.92" style="stroke:#181818;stroke-width:1;stroke-linejoin:miter;stroke-miterlimit:10;"/><text fill="#000000" font-family="sans-serif" font-size="13" lengthAdjust="spacing" textLength="56.1069" x="154.39" y="148.0384">accounts</text><text fill="#000000" font-family="sans-serif" font-size="13" lengthAdjust="spacing" textLength="8.2202" x="77.5676" y="100.2482">1</text><text fill="#000000" font-family="sans-serif" font-size="13" lengthAdjust="spacing" textLength="22.7119" x="157.0167" y="170.708">0..*</text></g><!--link CheckingAccount to Account--><g class="link" data-entity-1="ent0003" data-entity-2="ent0002" data-link-type="extension" data-source-line="36" id="lnk9"><path codeLine="36" d="M229.97,88.4 C229.97,114.87 229.97,134.76 229.97,163.26" fill="none" id="CheckingAccount-to-Account" style="stroke:#181818;stroke-width:1;"/><polygon fill="none" points="229.97,181.26,235.97,163.26,223.97,163.26,229.97,181.26" style="stroke:#181818;stroke-width:1;stroke-linejoin:miter;stroke-miterlimit:10;"/></g><!--link SavingsAccount to Account--><g class="link" data-entity-1="ent0004" data-entity-2="ent0002" data-link-type="extension" data-source-line="37" id="lnk10"><path codeLine="37" d="M397.06,88.4 C363.7,114.87 330.0407,141.5721 294.1207,170.0721" fill="none" id="SavingsAccount-to-Account" style="stroke:#181818;stroke-width:1;"/><polygon fill="none" points="280.02,181.26,297.85,174.7723,290.3914,165.3718,280.02,181.26" style="stroke:#181818;stroke-width:1;stroke-linejoin:miter;stroke-miterlimit:10;"/></g><!--link SavingsAccount to InterestContract--><g class="link" data-entity-1="ent0004" data-entity-2="ent0005" data-link-type="extension" data-source-line="39" id="lnk11"><path codeLine="39" d="M436.97,88.4 C436.97,117.48 436.97,142.34 436.97,171.39" fill="none" id="SavingsAccount-to-InterestContract" style="stroke:#181818;stroke-width:1;stroke-dasharray:7,7;"/><polygon fill="none" points="436.97,189.39,442.97,171.39,430.97,171.39,436.97,189.39" style="stroke:#181818;stroke-width:1;stroke-linejoin:miter;stroke-miterlimit:10;"/></g><!--reverse link Account to Transaction--><g class="link" data-entity-1="ent0002" data-entity-2="ent0007" data-link-type="composition" data-source-line="41" id="lnk12"><path codeLine="41" d="M229.97,274.71 C229.97,297.68 229.97,314.74 229.97,339.01" fill="none" id="Account-backto-Transaction" style="stroke:#181818;stroke-width:1;"/><polygon fill="#181818" points="229.97,262.71,225.97,268.71,229.97,274.71,233.97,268.71,229.97,262.71" style="stroke:#181818;stroke-width:1;stroke-linejoin:miter;stroke-miterlimit:10;"/><text fill="#000000" font-family="sans-serif" font-size="13" lengthAdjust="spacing" textLength="77.1938" x="230.97" y="306.0184">transactions</text><text fill="#000000" font-family="sans-serif" font-size="13" lengthAdjust="spacing" textLength="8.2202" x="221.3491" y="282.9932">1</text><text fill="#000000" font-family="sans-serif" font-size="13" lengthAdjust="spacing" textLength="22.7119" x="206.4724" y="328.6306">0..*</text></g><?plantuml-src PP4_JyGm3CNtV0gh4nng1Mi797It835nbPZTa78H-LCbxY44V7VSbFRQiCL-_kMzED9WZB0V8dch0do97o6mZHHG4iWaFaZf1qUi0Tpe5bqDHmhQlOrrYmQTL3KS_D0QDU8JjJyf-Sv36zgVLNWDsD6Jjfh-GqSyCnAtZevKK96UaJOsgT-XLF3uDx7tRigTE8b63eQXMRwwNkFA3HQQW2uoeRrhFdkLm8FgVTJ4fnTD9qxxWOQBDDgfS0cxWYT7j6FgnOGxf2qRe-svoKaQBbERlUhSVBnu-OVYhe1TMK9nMrMxOlc26d0wHPxD5boMt_VpeCWMkT5oiQfOp7Sen2ndKTQlhe4kLHI_?></g></svg>