<?xml version="1.0" encoding="UTF-8"?>
<!-- kUML SVG · theme: kUML · engine: elk.layered -->
<svg xmlns="http://www.w3.org/2000/svg"
     viewBox="0 0 1680.50 843"
     width="1680.50"
     height="843">
  <defs>
  <style>
    .kuml-class { fill: #F8F5F0; stroke: #1D2B4F; stroke-width: 1.5; }
.kuml-interface { fill: #F8F5F0; stroke: #1D2B4F; stroke-width: 1.5; }
.kuml-enum { fill: #F8F5F0; stroke: #1D2B4F; stroke-width: 1.5; }
.kuml-component { fill: #F8F5F0; stroke: #1D2B4F; stroke-width: 1.5; }
.kuml-state { fill: #F8F5F0; stroke: #1D2B4F; stroke-width: 1.5; }
.kuml-usecase { fill: #F8F5F0; stroke: #1D2B4F; stroke-width: 1.5; }
.kuml-system { fill: #F8F5F0; stroke: #1D2B4F; stroke-width: 2.5; }
.kuml-container { fill: #F8F5F0; stroke: #1D2B4F; stroke-width: 1.0; }
.kuml-c4component { fill: #F8F5F0; stroke: #1D2B4F; stroke-width: 1.0; }
.kuml-instance { fill: #F8F5F0; stroke: #1D2B4F; stroke-width: 1.5; }
.kuml-comment { fill: #F8F5F0; stroke: #1D2B4F; stroke-width: 1.5; }
.kuml-comment-fold { fill: none; stroke: #1D2B4F; stroke-width: 1.0; }
.kuml-title { font-family: Geist, Inter, system-ui, sans-serif; font-size: 14.0px; font-weight: 700; fill: #0D1525; }
.kuml-title-abstract { font-style: italic; }
.kuml-subtitle { font-family: Geist, Inter, system-ui, sans-serif; font-size: 12.0px; font-weight: 600; fill: #0D1525; }
.kuml-body { font-family: Geist, Inter, system-ui, sans-serif; font-size: 11.0px; fill: #0D1525; }
.kuml-small { font-family: Geist, Inter, system-ui, sans-serif; font-size: 9.0px; fill: #6B7A99; }
.kuml-small-halo { font-family: Geist, Inter, system-ui, sans-serif; font-size: 9.0px; fill: #FFFFFF; stroke: #FFFFFF; stroke-width: 3px; stroke-linejoin: round; }
.kuml-edge-label { font-family: Geist, Inter, system-ui, sans-serif; font-size: 9.0px; fill: #6B7A99; }
.kuml-edge-label-halo { font-family: Geist, Inter, system-ui, sans-serif; font-size: 9.0px; fill: #FFFFFF; stroke: #FFFFFF; stroke-width: 3px; stroke-linejoin: round; }
.kuml-stereotype { font-family: Geist, Inter, system-ui, sans-serif; font-size: 10.0px; font-style: italic; fill: #6B7A99; }
.kuml-tagged-value { font-family: Geist, Inter, system-ui, sans-serif; font-size: 9.0px; font-style: italic; fill: #6B7A99; }
.kuml-edge { stroke: #1D2B4F; stroke-width: 1.5; fill: none; }
.kuml-seq-arrow-filled { stroke: #1D2B4F; stroke-width: 1.5; fill: #1D2B4F; }
.kuml-edge-dashed { stroke: #6B7A99; stroke-width: 1.5; fill: none; stroke-dasharray: 8 4; }
.kuml-divider { stroke: #1D2B4F; stroke-width: 1.0; }
.kuml-actor { stroke: #0D1525; stroke-width: 1.5; fill: none; }
.kuml-frame { fill: none; stroke: #1D2B4F; stroke-width: 1.5; }
.kuml-collaboration { fill: none; stroke: #1D2B4F; stroke-width: 1.5; }
.kuml-port { fill: #0D1525; stroke: #1D2B4F; stroke-width: 1.0; }
.kuml-port-label { font-family: Geist, Inter, system-ui, sans-serif; font-size: 9.0px; fill: #0D1525; }
.kuml-port-label-halo { font-family: Geist, Inter, system-ui, sans-serif; font-size: 9.0px; fill: none; stroke: #FFFFFF; stroke-width: 3.5px; stroke-linejoin: round; }
.kuml-connector { fill: none; stroke: #1D2B4F; stroke-width: 1.5; }
.kuml-connector-label { font-family: Geist, Inter, system-ui, sans-serif; font-size: 9.0px; fill: #0D1525; }
.kuml-action { fill: #F8F5F0; stroke: #1D2B4F; stroke-width: 1.5; }
.kuml-decision { fill: #F8F5F0; stroke: #1D2B4F; stroke-width: 1.5; }
.kuml-fork-bar { fill: #0D1525; stroke: #0D1525; stroke-width: 1.5; }
.kuml-pseudostate { fill: #0D1525; stroke: #0D1525; stroke-width: 1.5; }
.kuml-final-outer { fill: #F8F5F0; stroke: #1D2B4F; stroke-width: 1.5; }
.kuml-node { fill: #F8F5F0; stroke: #1D2B4F; stroke-width: 1.5; }
.kuml-node-top { fill: #6B7A99; stroke: #1D2B4F; stroke-width: 1.5; }
.kuml-node-side { fill: #6B7A99; stroke: #1D2B4F; stroke-width: 1.5; }
.kuml-artifact { fill: #F8F5F0; stroke: #1D2B4F; stroke-width: 1.5; }
.kuml-artifact-ear { fill: #6B7A99; stroke: #1D2B4F; stroke-width: 1.5; }
.kuml-stereotype-box { fill: #F8F5F0; stroke: #1D2B4F; stroke-width: 1.5; }
.kuml-timing-frame { fill: #F8F5F0; stroke: #1D2B4F; stroke-width: 1.5; }
.kuml-timing-line { stroke: #1D2B4F; stroke-width: 1.5; fill: none; }

  </style>
  </defs>
  <rect x="0" y="0" width="1680.50" height="843" fill="#FFFFFF"/>
  <g id="nodes">
    <g id="kuml-diagram-frame">
      <rect x="2" y="2" width="1676.50" height="839" rx="6" ry="6" class="kuml-frame"/>
      <text class="kuml-small" x="8" y="13">
        class: HospitalComplete
      </text>
    </g>
    <g id="AdmissionType" transform="translate(32,32)">
      <rect width="160" height="103" class="kuml-enum"/>
      <text class="kuml-stereotype" x="80" y="18" text-anchor="middle">
        «enumeration»
      </text>
      <text class="kuml-title" x="80" y="32" text-anchor="middle">
        AdmissionType
      </text>
      <line x1="0" y1="38" x2="160" y2="38" class="kuml-divider"/>
      <text class="kuml-body" x="8" y="52">
        EMERGENCY
      </text>
      <text class="kuml-body" x="8" y="65">
        PLANNED
      </text>
      <text class="kuml-body" x="8" y="78">
        TRANSFER
      </text>
    </g>
    <g id="Billable" transform="translate(1063,397)">
      <rect width="229" height="80" class="kuml-interface"/>
      <text class="kuml-stereotype" x="114.50" y="18" text-anchor="middle">
        «interface»
      </text>
      <text class="kuml-title" x="114.50" y="32" text-anchor="middle">
        Billable
      </text>
      <line x1="0" y1="38" x2="229" y2="38" class="kuml-divider"/>
      <text class="kuml-body" x="8" y="52">
        + invoiceAmount(): BigDecimal
      </text>
    </g>
    <g id="Person" transform="translate(846.33,737)">
      <rect width="224" height="90" class="kuml-class"/>
      <text class="kuml-stereotype" x="112" y="18" text-anchor="middle">
        «abstract»
      </text>
      <text class="kuml-title" x="112" y="32" text-anchor="middle">
        Person
      </text>
      <line x1="0" y1="38" x2="224" y2="38" class="kuml-divider"/>
      <text class="kuml-body" x="5" y="52">
        # name: String
      </text>
      <text class="kuml-body" x="5" y="65">
        # dateOfBirth: LocalDate
      </text>
    </g>
    <g id="Insurance" transform="translate(219.33,567)">
      <rect width="188" height="80" class="kuml-class"/>
      <text class="kuml-title" x="94" y="18" text-anchor="middle">
        Insurance
      </text>
      <line x1="0" y1="24" x2="188" y2="24" class="kuml-divider"/>
      <text class="kuml-body" x="5" y="38">
        - name: String
      </text>
      <text class="kuml-body" x="5" y="51">
        - ikNumber: String
      </text>
    </g>
    <g id="Patient" transform="translate(562,397)">
      <rect width="217" height="80" class="kuml-class"/>
      <text class="kuml-title" x="108.50" y="18" text-anchor="middle">
        Patient
      </text>
      <line x1="0" y1="24" x2="217" y2="24" class="kuml-divider"/>
      <text class="kuml-body" x="5" y="38">
        - patientNumber: String
      </text>
    </g>
    <g id="Doctor" transform="translate(846.33,567)">
      <rect width="224" height="80" class="kuml-class"/>
      <text class="kuml-title" x="112" y="18" text-anchor="middle">
        Doctor
      </text>
      <line x1="0" y1="24" x2="224" y2="24" class="kuml-divider"/>
      <text class="kuml-body" x="5" y="38">
        - specialization: String
      </text>
    </g>
    <g id="Nurse" transform="translate(1461.50,567)">
      <rect width="203" height="80" class="kuml-class"/>
      <text class="kuml-title" x="101.50" y="18" text-anchor="middle">
        Nurse
      </text>
      <line x1="0" y1="24" x2="203" y2="24" class="kuml-divider"/>
      <text class="kuml-body" x="5" y="38">
        - qualification: String
      </text>
    </g>
    <g id="Ward" transform="translate(1380.67,207)">
      <rect width="230" height="80" class="kuml-class"/>
      <text class="kuml-title" x="115" y="18" text-anchor="middle">
        Ward
      </text>
      <line x1="0" y1="24" x2="230" y2="24" class="kuml-divider"/>
      <text class="kuml-body" x="5" y="38">
        - name: String
      </text>
      <text class="kuml-body" x="5" y="51">
        - medicalDepartment: String
      </text>
    </g>
    <g id="Bed" transform="translate(1332,397)">
      <rect width="188" height="80" class="kuml-class"/>
      <text class="kuml-title" x="94" y="18" text-anchor="middle">
        Bed
      </text>
      <line x1="0" y1="24" x2="188" y2="24" class="kuml-divider"/>
      <text class="kuml-body" x="5" y="38">
        - number: String
      </text>
    </g>
    <g id="Stay" transform="translate(619.50,202)">
      <rect width="306" height="85" class="kuml-class"/>
      <text class="kuml-title" x="153" y="18" text-anchor="middle">
        Stay
      </text>
      <line x1="0" y1="24" x2="306" y2="24" class="kuml-divider"/>
      <text class="kuml-body" x="5" y="38">
        - admissionDate: LocalDate
      </text>
      <text class="kuml-body" x="5" y="51">
        - dischargeDate: LocalDate
      </text>
      <text class="kuml-body" x="5" y="64">
        - admissionType: AdmissionType
      </text>
    </g>
    <g id="Diagnosis" transform="translate(819,397)">
      <rect width="204" height="80" class="kuml-class"/>
      <text class="kuml-title" x="102" y="18" text-anchor="middle">
        Diagnosis
      </text>
      <line x1="0" y1="24" x2="204" y2="24" class="kuml-divider"/>
      <text class="kuml-body" x="5" y="38">
        - icdCode: String
      </text>
      <text class="kuml-body" x="5" y="51">
        - description: String
      </text>
    </g>
    <g id="Medication" transform="translate(313,397)">
      <rect width="209" height="80" class="kuml-class"/>
      <text class="kuml-title" x="104.50" y="18" text-anchor="middle">
        Medication
      </text>
      <line x1="0" y1="24" x2="209" y2="24" class="kuml-divider"/>
      <text class="kuml-body" x="5" y="38">
        - name: String
      </text>
      <text class="kuml-body" x="5" y="51">
        - activeIngredient: String
      </text>
    </g>
    <g id="Prescription" transform="translate(354.83,207)">
      <rect width="188" height="80" class="kuml-class"/>
      <text class="kuml-title" x="94" y="18" text-anchor="middle">
        Prescription
      </text>
      <line x1="0" y1="24" x2="188" y2="24" class="kuml-divider"/>
      <text class="kuml-body" x="5" y="38">
        - dosage: String
      </text>
      <text class="kuml-body" x="5" y="51">
        - durationDays: Int
      </text>
    </g>
    <g id="Invoice" transform="translate(212,32)">
      <rect width="210" height="80" class="kuml-class"/>
      <text class="kuml-title" x="105" y="18" text-anchor="middle">
        Invoice
      </text>
      <line x1="0" y1="24" x2="210" y2="24" class="kuml-divider"/>
      <text class="kuml-body" x="5" y="38">
        - amount: BigDecimal
      </text>
      <text class="kuml-body" x="5" y="51">
        - invoiceDate: LocalDate
      </text>
    </g>
  </g>
  <g id="edges">
    <path d="M 706.67 477 L 706.67 677 L 902.33 677 L 902.33 737" class="kuml-edge"/>
    <polygon points="902.33,737 897.33,725 907.33,725" style="stroke:#1D2B4F;stroke-width:1.5;fill:#FFFFFF;stroke-linejoin:round;"/>
    <line x1="958.33" y1="647" x2="958.33" y2="737" class="kuml-edge"/>
    <polygon points="958.33,737 953.33,725 963.33,725" style="stroke:#1D2B4F;stroke-width:1.5;fill:#FFFFFF;stroke-linejoin:round;"/>
    <path d="M 1563 647 L 1563 677 L 1014.33 677 L 1014.33 737" class="kuml-edge"/>
    <polygon points="1014.33,737 1009.33,725 1019.33,725" style="stroke:#1D2B4F;stroke-width:1.5;fill:#FFFFFF;stroke-linejoin:round;"/>
    <path d="M 772.50 287 L 772.50 347 L 1177.50 347 L 1177.50 397" class="kuml-edge-dashed"/>
    <polygon points="1177.50,397 1172.50,385 1182.50,385" style="stroke:#6B7A99;stroke-width:1.5;fill:#FFFFFF;stroke-linejoin:round;"/>
    <line x1="1457.33" y1="287" x2="1457.33" y2="397" class="kuml-edge"/>
    <path d="M 1452.33,385 L 1457.33,397 L 1462.33,385" style="stroke:#1D2B4F;stroke-width:1.5;fill:none;stroke-linejoin:round;"/>
    <polygon points="1457.33,287 1462.33,295 1457.33,303 1452.33,295" style="stroke:#1D2B4F;stroke-width:1.5;fill:#1D2B4F;stroke-linejoin:round;"/>
    <text class="kuml-small-halo" x="1447.33" y="383" text-anchor="middle">
      1..*
    </text>
    <text class="kuml-small" x="1447.33" y="383" text-anchor="middle">
      1..*
    </text>
    <text class="kuml-small-halo" x="1467.33" y="367" text-anchor="middle">
      beds
    </text>
    <text class="kuml-small" x="1467.33" y="367" text-anchor="middle">
      beds
    </text>
    <path d="M 1534 287 L 1534 317 L 1563 317 L 1563 567" class="kuml-edge"/>
    <path d="M 1558,555 L 1563,567 L 1568,555" style="stroke:#1D2B4F;stroke-width:1.5;fill:none;stroke-linejoin:round;"/>
    <text class="kuml-small-halo" x="1553" y="553" text-anchor="middle">
      1..*
    </text>
    <text class="kuml-small" x="1553" y="553" text-anchor="middle">
      1..*
    </text>
    <text class="kuml-small-halo" x="1573" y="537" text-anchor="middle">
      nursingTeam
    </text>
    <text class="kuml-small" x="1573" y="537" text-anchor="middle">
      nursingTeam
    </text>
    <line x1="670.50" y1="287" x2="670.50" y2="397" class="kuml-edge"/>
    <path d="M 665.50,385 L 670.50,397 L 675.50,385" style="stroke:#1D2B4F;stroke-width:1.5;fill:none;stroke-linejoin:round;"/>
    <text class="kuml-small-halo" x="660.50" y="301" text-anchor="middle">
      0..*
    </text>
    <text class="kuml-small" x="660.50" y="301" text-anchor="middle">
      0..*
    </text>
    <path d="M 823.50 287 L 823.50 337 L 1394.67 337 L 1394.67 397" class="kuml-edge"/>
    <path d="M 1389.67,385 L 1394.67,397 L 1399.67,385" style="stroke:#1D2B4F;stroke-width:1.5;fill:none;stroke-linejoin:round;"/>
    <text class="kuml-small-halo" x="813.50" y="301" text-anchor="middle">
      0..*
    </text>
    <text class="kuml-small" x="813.50" y="301" text-anchor="middle">
      0..*
    </text>
    <text class="kuml-small-halo" x="1384.67" y="383" text-anchor="middle">
      0..1
    </text>
    <text class="kuml-small" x="1384.67" y="383" text-anchor="middle">
      0..1
    </text>
    <path d="M 874.50 287 L 874.50 327 L 1550 327 L 1550 507 L 995.67 507 L 995.67 567" class="kuml-edge"/>
    <path d="M 990.67,555 L 995.67,567 L 1000.67,555" style="stroke:#1D2B4F;stroke-width:1.5;fill:none;stroke-linejoin:round;"/>
    <text class="kuml-small-halo" x="864.50" y="301" text-anchor="middle">
      0..*
    </text>
    <text class="kuml-small" x="864.50" y="301" text-anchor="middle">
      0..*
    </text>
    <text class="kuml-small-halo" x="1005.67" y="537" text-anchor="middle">
      attendingDoctor
    </text>
    <text class="kuml-small" x="1005.67" y="537" text-anchor="middle">
      attendingDoctor
    </text>
    <path d="M 721.50 287 L 721.50 357 L 955 357 L 955 397" class="kuml-edge"/>
    <path d="M 950,385 L 955,397 L 960,385" style="stroke:#1D2B4F;stroke-width:1.5;fill:none;stroke-linejoin:round;"/>
    <polygon points="721.50,287 726.50,295 721.50,303 716.50,295" style="stroke:#1D2B4F;stroke-width:1.5;fill:#1D2B4F;stroke-linejoin:round;"/>
    <text class="kuml-small-halo" x="945" y="383" text-anchor="middle">
      0..*
    </text>
    <text class="kuml-small" x="945" y="383" text-anchor="middle">
      0..*
    </text>
    <text class="kuml-small-halo" x="965" y="367" text-anchor="middle">
      diagnoses
    </text>
    <text class="kuml-small" x="965" y="367" text-anchor="middle">
      diagnoses
    </text>
    <line x1="921" y1="477" x2="921" y2="567" class="kuml-edge"/>
    <path d="M 916,555 L 921,567 L 926,555" style="stroke:#1D2B4F;stroke-width:1.5;fill:none;stroke-linejoin:round;"/>
    <text class="kuml-small-halo" x="911" y="491" text-anchor="middle">
      0..*
    </text>
    <text class="kuml-small" x="911" y="491" text-anchor="middle">
      0..*
    </text>
    <text class="kuml-small-halo" x="931" y="537" text-anchor="middle">
      issuedBy
    </text>
    <text class="kuml-small" x="931" y="537" text-anchor="middle">
      issuedBy
    </text>
    <path d="M 480.17 287 L 480.17 367 L 887 367 L 887 397" class="kuml-edge"/>
    <path d="M 882,385 L 887,397 L 892,385" style="stroke:#1D2B4F;stroke-width:1.5;fill:none;stroke-linejoin:round;"/>
    <text class="kuml-small-halo" x="470.17" y="301" text-anchor="middle">
      0..*
    </text>
    <text class="kuml-small" x="470.17" y="301" text-anchor="middle">
      0..*
    </text>
    <line x1="417.50" y1="287" x2="417.50" y2="397" class="kuml-edge"/>
    <path d="M 412.50,385 L 417.50,397 L 422.50,385" style="stroke:#1D2B4F;stroke-width:1.5;fill:none;stroke-linejoin:round;"/>
    <text class="kuml-small-halo" x="407.50" y="301" text-anchor="middle">
      0..*
    </text>
    <text class="kuml-small" x="407.50" y="301" text-anchor="middle">
      0..*
    </text>
    <path d="M 634.33 477 L 634.33 507 L 344.67 507 L 344.67 567" class="kuml-edge"/>
    <path d="M 339.67,555 L 344.67,567 L 349.67,555" style="stroke:#1D2B4F;stroke-width:1.5;fill:none;stroke-linejoin:round;"/>
    <text class="kuml-small-halo" x="624.33" y="491" text-anchor="middle">
      0..*
    </text>
    <text class="kuml-small" x="624.33" y="491" text-anchor="middle">
      0..*
    </text>
    <path d="M 352 112 L 352 142 L 772.50 142 L 772.50 202" class="kuml-edge"/>
    <path d="M 767.50,190 L 772.50,202 L 777.50,190" style="stroke:#1D2B4F;stroke-width:1.5;fill:none;stroke-linejoin:round;"/>
    <line x1="282" y1="112" x2="282" y2="567" class="kuml-edge-dashed"/>
    <path d="M 277,555 L 282,567 L 287,555" style="stroke:#6B7A99;stroke-width:1.5;fill:none;stroke-linejoin:round;"/>
    <text class="kuml-edge-label-halo" x="282" y="335.50" text-anchor="middle">
      submittedTo
    </text>
    <text class="kuml-edge-label" x="282" y="335.50" text-anchor="middle">
      submittedTo
    </text>
  </g>
</svg>
