<svg xmlns="http://www.w3.org/2000/svg" xmlns:xlink="http://www.w3.org/1999/xlink" contentStyleType="text/css" data-diagram-type="CLASS" height="576px" preserveAspectRatio="none" style="width:1227px;height:576px;background:#FFFFFF;" version="1.1" viewBox="0 0 1227 576" width="1227px" zoomAndPan="magnify"><?plantuml 1.2026.6?><defs/><g><!--class PersonalDataForm--><g class="entity" data-qualified-name="PersonalDataForm" data-source-line="1" id="ent0001"><rect fill="#F1F1F1" height="97.4648" rx="2.5" ry="2.5" style="stroke:#181818;stroke-width:0.5;" width="155.5596" x="17.87" y="7"/><ellipse cx="32.87" cy="23" fill="#A9DCDF" rx="11" ry="11" style="stroke:#181818;stroke-width:1;"/><path d="M32.7333,18.3481 L31.5795,23.4199 L33.8954,23.4199 Z M31.2391,16.1069 L34.2357,16.1069 L37.5809,28.5 L35.1322,28.5 L34.3685,25.437 L31.0897,25.437 L30.3427,28.5 L27.8939,28.5 Z " fill="#000000"/><text fill="#000000" font-family="sans-serif" font-size="14" font-style="italic" lengthAdjust="spacing" textLength="123.5596" x="46.87" y="28.291">PersonalDataForm</text><line style="stroke:#181818;stroke-width:0.5;" x1="18.87" x2="172.4296" y1="39" y2="39"/><g data-visibility-modifier="PUBLIC_FIELD"><ellipse cx="28.87" cy="52.7441" fill="none" rx="3" ry="3" style="stroke:#038048;stroke-width:1;"/></g><text fill="#000000" font-family="sans-serif" font-size="14" lengthAdjust="spacing" textLength="115.0693" x="37.87" y="56.5352">firstName: String</text><g data-visibility-modifier="PUBLIC_FIELD"><ellipse cx="28.87" cy="69.2324" fill="none" rx="3" ry="3" style="stroke:#038048;stroke-width:1;"/></g><text fill="#000000" font-family="sans-serif" font-size="14" lengthAdjust="spacing" textLength="111.9248" x="37.87" y="73.0234">lastName: String</text><g data-visibility-modifier="PUBLIC_FIELD"><ellipse cx="28.87" cy="85.7207" fill="none" rx="3" ry="3" style="stroke:#038048;stroke-width:1;"/></g><text fill="#000000" font-family="sans-serif" font-size="14" lengthAdjust="spacing" textLength="117.4688" x="37.87" y="89.5117">dateOfBirth: Date</text><line style="stroke:#181818;stroke-width:0.5;" x1="18.87" x2="172.4296" y1="96.4648" y2="96.4648"/></g><!--class Patient--><g class="entity" data-qualified-name="Patient" data-source-line="7" id="ent0002"><rect fill="#F1F1F1" height="48" rx="2.5" ry="2.5" style="stroke:#181818;stroke-width:0.5;" width="78.4775" x="215.41" y="206.2"/><ellipse cx="230.41" cy="222.2" fill="#ADD1B2" rx="11" ry="11" style="stroke:#181818;stroke-width:1;"/><path d="M232.8831,228.3431 Q232.3021,228.6419 231.6629,228.7913 Q231.0238,228.9407 230.3182,228.9407 Q227.8114,228.9407 226.4915,227.2889 Q225.1717,225.637 225.1717,222.5159 Q225.1717,219.3865 226.4915,217.7347 Q227.8114,216.0828 230.3182,216.0828 Q231.0238,216.0828 231.6712,216.2322 Q232.3187,216.3816 232.8831,216.6805 L232.8831,219.4031 Q232.2523,218.8221 231.6588,218.5523 Q231.0653,218.2825 230.4344,218.2825 Q229.0897,218.2825 228.4049,219.3492 Q227.7201,220.4158 227.7201,222.5159 Q227.7201,224.6077 228.4049,225.6744 Q229.0897,226.741 230.4344,226.741 Q231.0653,226.741 231.6588,226.4712 Q232.2523,226.2015 232.8831,225.6204 Z " fill="#000000"/><text fill="#000000" font-family="sans-serif" font-size="14" lengthAdjust="spacing" textLength="46.4775" x="244.41" y="227.491">Patient</text><line style="stroke:#181818;stroke-width:0.5;" x1="216.41" x2="292.8875" y1="238.2" y2="238.2"/><line style="stroke:#181818;stroke-width:0.5;" x1="216.41" x2="292.8875" y1="246.2" y2="246.2"/></g><!--class Doctor--><g class="entity" data-qualified-name="Doctor" data-source-line="8" id="ent0003"><rect fill="#F1F1F1" height="48" rx="2.5" ry="2.5" style="stroke:#181818;stroke-width:0.5;" width="77.8213" x="691.74" y="364.18"/><ellipse cx="706.74" cy="380.18" fill="#ADD1B2" rx="11" ry="11" style="stroke:#181818;stroke-width:1;"/><path d="M709.2131,386.3231 Q708.6321,386.6219 707.9929,386.7713 Q707.3538,386.9207 706.6482,386.9207 Q704.1414,386.9207 702.8215,385.2689 Q701.5017,383.617 701.5017,380.4959 Q701.5017,377.3665 702.8215,375.7147 Q704.1414,374.0628 706.6482,374.0628 Q707.3538,374.0628 708.0012,374.2122 Q708.6487,374.3616 709.2131,374.6605 L709.2131,377.3831 Q708.5823,376.8021 707.9888,376.5323 Q707.3953,376.2625 706.7644,376.2625 Q705.4197,376.2625 704.7349,377.3292 Q704.0501,378.3958 704.0501,380.4959 Q704.0501,382.5877 704.7349,383.6544 Q705.4197,384.721 706.7644,384.721 Q707.3953,384.721 707.9888,384.4512 Q708.5823,384.1815 709.2131,383.6004 Z " fill="#000000"/><text fill="#000000" font-family="sans-serif" font-size="14" lengthAdjust="spacing" textLength="45.8213" x="720.74" y="385.471">Doctor</text><line style="stroke:#181818;stroke-width:0.5;" x1="692.74" x2="768.5613" y1="396.18" y2="396.18"/><line style="stroke:#181818;stroke-width:0.5;" x1="692.74" x2="768.5613" y1="404.18" y2="404.18"/></g><!--class NursingStaff--><g class="entity" data-qualified-name="NursingStaff" data-source-line="9" id="ent0004"><rect fill="#F1F1F1" height="48" rx="2.5" ry="2.5" style="stroke:#181818;stroke-width:0.5;" width="116.1641" x="64.57" y="206.2"/><ellipse cx="79.57" cy="222.2" fill="#ADD1B2" rx="11" ry="11" style="stroke:#181818;stroke-width:1;"/><path d="M82.0431,228.3431 Q81.4621,228.6419 80.8229,228.7913 Q80.1838,228.9407 79.4782,228.9407 Q76.9714,228.9407 75.6515,227.2889 Q74.3317,225.637 74.3317,222.5159 Q74.3317,219.3865 75.6515,217.7347 Q76.9714,216.0828 79.4782,216.0828 Q80.1838,216.0828 80.8312,216.2322 Q81.4787,216.3816 82.0431,216.6805 L82.0431,219.4031 Q81.4123,218.8221 80.8188,218.5523 Q80.2253,218.2825 79.5944,218.2825 Q78.2497,218.2825 77.5649,219.3492 Q76.8801,220.4158 76.8801,222.5159 Q76.8801,224.6077 77.5649,225.6744 Q78.2497,226.741 79.5944,226.741 Q80.2253,226.741 80.8188,226.4712 Q81.4123,226.2015 82.0431,225.6204 Z " fill="#000000"/><text fill="#000000" font-family="sans-serif" font-size="14" lengthAdjust="spacing" textLength="84.1641" x="93.57" y="227.491">NursingStaff</text><line style="stroke:#181818;stroke-width:0.5;" x1="65.57" x2="179.7341" y1="238.2" y2="238.2"/><line style="stroke:#181818;stroke-width:0.5;" x1="65.57" x2="179.7341" y1="246.2" y2="246.2"/></g><!--class Ward--><g class="entity" data-qualified-name="Ward" data-source-line="11" id="ent0005"><rect fill="#F1F1F1" height="64.4883" rx="2.5" ry="2.5" style="stroke:#181818;stroke-width:0.5;" width="112.1191" x="279.59" y="23.49"/><ellipse cx="315.232" cy="39.49" fill="#ADD1B2" rx="11" ry="11" style="stroke:#181818;stroke-width:1;"/><path d="M317.7051,45.6331 Q317.1241,45.9319 316.4849,46.0813 Q315.8458,46.2307 315.1402,46.2307 Q312.6334,46.2307 311.3135,44.5789 Q309.9937,42.927 309.9937,39.8059 Q309.9937,36.6765 311.3135,35.0247 Q312.6334,33.3728 315.1402,33.3728 Q315.8458,33.3728 316.4932,33.5222 Q317.1407,33.6716 317.7051,33.9705 L317.7051,36.6931 Q317.0743,36.1121 316.4808,35.8423 Q315.8873,35.5725 315.2564,35.5725 Q313.9117,35.5725 313.2269,36.6392 Q312.5421,37.7058 312.5421,39.8059 Q312.5421,41.8977 313.2269,42.9644 Q313.9117,44.031 315.2564,44.031 Q315.8873,44.031 316.4808,43.7612 Q317.0743,43.4915 317.7051,42.9104 Z " fill="#000000"/><text fill="#000000" font-family="sans-serif" font-size="14" lengthAdjust="spacing" textLength="34.248" x="333.8191" y="44.781">Ward</text><line style="stroke:#181818;stroke-width:0.5;" x1="280.59" x2="390.7091" y1="55.49" y2="55.49"/><g data-visibility-modifier="PUBLIC_FIELD"><ellipse cx="290.59" cy="69.2341" fill="none" rx="3" ry="3" style="stroke:#038048;stroke-width:1;"/></g><text fill="#000000" font-family="sans-serif" font-size="14" lengthAdjust="spacing" textLength="86.1191" x="299.59" y="73.0252">name: String</text><line style="stroke:#181818;stroke-width:0.5;" x1="280.59" x2="390.7091" y1="79.9783" y2="79.9783"/></g><!--class Bed--><g class="entity" data-qualified-name="Bed" data-source-line="15" id="ent0006"><rect fill="#F1F1F1" height="64.4883" rx="2.5" ry="2.5" style="stroke:#181818;stroke-width:0.5;" width="154.6934" x="329.3" y="197.96"/><ellipse cx="390.0646" cy="213.96" fill="#ADD1B2" rx="11" ry="11" style="stroke:#181818;stroke-width:1;"/><path d="M392.5378,220.1031 Q391.9567,220.4019 391.3176,220.5513 Q390.6784,220.7007 389.9729,220.7007 Q387.466,220.7007 386.1462,219.0489 Q384.8264,217.397 384.8264,214.2759 Q384.8264,211.1465 386.1462,209.4947 Q387.466,207.8428 389.9729,207.8428 Q390.6784,207.8428 391.3259,207.9922 Q391.9733,208.1416 392.5378,208.4405 L392.5378,211.1631 Q391.9069,210.5821 391.3134,210.3123 Q390.7199,210.0425 390.0891,210.0425 Q388.7443,210.0425 388.0595,211.1092 Q387.3747,212.1758 387.3747,214.2759 Q387.3747,216.3677 388.0595,217.4344 Q388.7443,218.501 390.0891,218.501 Q390.7199,218.501 391.3134,218.2312 Q391.9069,217.9615 392.5378,217.3804 Z " fill="#000000"/><text fill="#000000" font-family="sans-serif" font-size="14" lengthAdjust="spacing" textLength="24.6641" x="410.5646" y="219.251">Bed</text><line style="stroke:#181818;stroke-width:0.5;" x1="330.3" x2="482.9934" y1="229.96" y2="229.96"/><g data-visibility-modifier="PUBLIC_FIELD"><ellipse cx="340.3" cy="243.7041" fill="none" rx="3" ry="3" style="stroke:#038048;stroke-width:1;"/></g><text fill="#000000" font-family="sans-serif" font-size="14" lengthAdjust="spacing" textLength="128.6934" x="349.3" y="247.4952">bedNumber: String</text><line style="stroke:#181818;stroke-width:0.5;" x1="330.3" x2="482.9934" y1="254.4483" y2="254.4483"/></g><!--class InpatientStay--><g class="entity" data-qualified-name="InpatientStay" data-source-line="19" id="ent0007"><rect fill="#F1F1F1" height="80.9766" rx="2.5" ry="2.5" style="stroke:#181818;stroke-width:0.5;" width="166.6357" x="600.33" y="15.25"/><ellipse cx="636.2735" cy="31.25" fill="#ADD1B2" rx="11" ry="11" style="stroke:#181818;stroke-width:1;"/><path d="M638.7466,37.3931 Q638.1655,37.6919 637.5264,37.8413 Q636.8872,37.9907 636.1817,37.9907 Q633.6748,37.9907 632.355,36.3389 Q631.0352,34.687 631.0352,31.5659 Q631.0352,28.4365 632.355,26.7847 Q633.6748,25.1328 636.1817,25.1328 Q636.8872,25.1328 637.5347,25.2822 Q638.1821,25.4316 638.7466,25.7305 L638.7466,28.4531 Q638.1157,27.8721 637.5222,27.6023 Q636.9287,27.3325 636.2979,27.3325 Q634.9531,27.3325 634.2683,28.3992 Q633.5835,29.4658 633.5835,31.5659 Q633.5835,33.6577 634.2683,34.7244 Q634.9531,35.791 636.2979,35.791 Q636.9287,35.791 637.5222,35.5212 Q638.1157,35.2515 638.7466,34.6704 Z " fill="#000000"/><text fill="#000000" font-family="sans-serif" font-size="14" lengthAdjust="spacing" textLength="88.0947" x="654.9276" y="36.541">InpatientStay</text><line style="stroke:#181818;stroke-width:0.5;" x1="601.33" x2="765.9657" y1="47.25" y2="47.25"/><g data-visibility-modifier="PUBLIC_FIELD"><ellipse cx="611.33" cy="60.9941" fill="none" rx="3" ry="3" style="stroke:#038048;stroke-width:1;"/></g><text fill="#000000" font-family="sans-serif" font-size="14" lengthAdjust="spacing" textLength="140.6357" x="620.33" y="64.7852">admissionDate: Date</text><g data-visibility-modifier="PUBLIC_FIELD"><ellipse cx="611.33" cy="77.4824" fill="none" rx="3" ry="3" style="stroke:#038048;stroke-width:1;"/></g><text fill="#000000" font-family="sans-serif" font-size="14" lengthAdjust="spacing" textLength="137.2109" x="620.33" y="81.2734">dischargeDate: Date</text><line style="stroke:#181818;stroke-width:0.5;" x1="601.33" x2="765.9657" y1="88.2266" y2="88.2266"/></g><!--class AdmissionType--><g class="entity" data-qualified-name="AdmissionType" data-source-line="24" id="ent0008"><rect fill="#F1F1F1" height="97.4648" rx="2.5" ry="2.5" style="stroke:#181818;stroke-width:0.5;" width="135.9746" x="890.66" y="181.47"/><ellipse cx="905.66" cy="197.47" fill="#EB937F" rx="11" ry="11" style="stroke:#181818;stroke-width:1;"/><path d="M909.2743,203.97 L901.5545,203.97 L901.5545,191.5769 L909.2743,191.5769 L909.2743,193.7351 L904.0033,193.7351 L904.0033,196.408 L908.7762,196.408 L908.7762,198.5662 L904.0033,198.5662 L904.0033,201.8118 L909.2743,201.8118 Z " fill="#000000"/><text fill="#000000" font-family="sans-serif" font-size="14" lengthAdjust="spacing" textLength="103.9746" x="919.66" y="202.761">AdmissionType</text><line style="stroke:#181818;stroke-width:0.5;" x1="891.66" x2="1025.6346" y1="213.47" y2="213.47"/><text fill="#000000" font-family="sans-serif" font-size="14" lengthAdjust="spacing" textLength="73.8896" x="896.66" y="231.0052">Emergency</text><text fill="#000000" font-family="sans-serif" font-size="14" lengthAdjust="spacing" textLength="53.5049" x="896.66" y="247.4934">Planned</text><text fill="#000000" font-family="sans-serif" font-size="14" lengthAdjust="spacing" textLength="56.8135" x="896.66" y="263.9817">Transfer</text><line style="stroke:#181818;stroke-width:0.5;" x1="891.66" x2="1025.6346" y1="270.9348" y2="270.9348"/></g><!--class Diagnosis--><g class="entity" data-qualified-name="Diagnosis" data-source-line="30" id="ent0009"><rect fill="#F1F1F1" height="80.9766" rx="2.5" ry="2.5" style="stroke:#181818;stroke-width:0.5;" width="150.9063" x="1061.2" y="189.71"/><ellipse cx="1099.7367" cy="205.71" fill="#ADD1B2" rx="11" ry="11" style="stroke:#181818;stroke-width:1;"/><path d="M1102.2098,211.8531 Q1101.6288,212.1519 1100.9896,212.3013 Q1100.3504,212.4507 1099.6449,212.4507 Q1097.138,212.4507 1095.8182,210.7989 Q1094.4984,209.147 1094.4984,206.0259 Q1094.4984,202.8965 1095.8182,201.2447 Q1097.138,199.5928 1099.6449,199.5928 Q1100.3504,199.5928 1100.9979,199.7422 Q1101.6454,199.8916 1102.2098,200.1905 L1102.2098,202.9131 Q1101.579,202.3321 1100.9854,202.0623 Q1100.3919,201.7925 1099.7611,201.7925 Q1098.4164,201.7925 1097.7315,202.8592 Q1097.0467,203.9258 1097.0467,206.0259 Q1097.0467,208.1177 1097.7315,209.1844 Q1098.4164,210.251 1099.7611,210.251 Q1100.3919,210.251 1100.9854,209.9812 Q1101.579,209.7115 1102.2098,209.1304 Z " fill="#000000"/><text fill="#000000" font-family="sans-serif" font-size="14" lengthAdjust="spacing" textLength="66.6025" x="1118.967" y="211.001">Diagnosis</text><line style="stroke:#181818;stroke-width:0.5;" x1="1062.2" x2="1211.1062" y1="221.71" y2="221.71"/><g data-visibility-modifier="PUBLIC_FIELD"><ellipse cx="1072.2" cy="235.4541" fill="none" rx="3" ry="3" style="stroke:#038048;stroke-width:1;"/></g><text fill="#000000" font-family="sans-serif" font-size="14" lengthAdjust="spacing" textLength="124.9063" x="1081.2" y="239.2452">description: String</text><g data-visibility-modifier="PUBLIC_FIELD"><ellipse cx="1072.2" cy="251.9424" fill="none" rx="3" ry="3" style="stroke:#038048;stroke-width:1;"/></g><text fill="#000000" font-family="sans-serif" font-size="14" lengthAdjust="spacing" textLength="69.6924" x="1081.2" y="255.7334">date: Date</text><line style="stroke:#181818;stroke-width:0.5;" x1="1062.2" x2="1211.1062" y1="262.6866" y2="262.6866"/></g><!--class Prescription--><g class="entity" data-qualified-name="Prescription" data-source-line="35" id="ent0010"><rect fill="#F1F1F1" height="64.4883" rx="2.5" ry="2.5" style="stroke:#181818;stroke-width:0.5;" width="123.6377" x="1074.83" y="355.93"/><ellipse cx="1094.7374" cy="371.93" fill="#ADD1B2" rx="11" ry="11" style="stroke:#181818;stroke-width:1;"/><path d="M1097.2105,378.0731 Q1096.6295,378.3719 1095.9903,378.5213 Q1095.3511,378.6707 1094.6456,378.6707 Q1092.1387,378.6707 1090.8189,377.0189 Q1089.4991,375.367 1089.4991,372.2459 Q1089.4991,369.1165 1090.8189,367.4647 Q1092.1387,365.8128 1094.6456,365.8128 Q1095.3511,365.8128 1095.9986,365.9622 Q1096.6461,366.1116 1097.2105,366.4105 L1097.2105,369.1331 Q1096.5797,368.5521 1095.9862,368.2823 Q1095.3926,368.0125 1094.7618,368.0125 Q1093.4171,368.0125 1092.7322,369.0792 Q1092.0474,370.1458 1092.0474,372.2459 Q1092.0474,374.3377 1092.7322,375.4044 Q1093.4171,376.471 1094.7618,376.471 Q1095.3926,376.471 1095.9862,376.2012 Q1096.5797,375.9315 1097.2105,375.3504 Z " fill="#000000"/><text fill="#000000" font-family="sans-serif" font-size="14" lengthAdjust="spacing" textLength="80.7324" x="1109.8279" y="377.221">Prescription</text><line style="stroke:#181818;stroke-width:0.5;" x1="1075.83" x2="1197.4677" y1="387.93" y2="387.93"/><g data-visibility-modifier="PUBLIC_FIELD"><ellipse cx="1085.83" cy="401.6741" fill="none" rx="3" ry="3" style="stroke:#038048;stroke-width:1;"/></g><text fill="#000000" font-family="sans-serif" font-size="14" lengthAdjust="spacing" textLength="97.6377" x="1094.83" y="405.4652">dosage: String</text><line style="stroke:#181818;stroke-width:0.5;" x1="1075.83" x2="1197.4677" y1="412.4183" y2="412.4183"/></g><!--class Medication--><g class="entity" data-qualified-name="Medication" data-source-line="39" id="ent0011"><rect fill="#F1F1F1" height="64.4883" rx="2.5" ry="2.5" style="stroke:#181818;stroke-width:0.5;" width="112.1191" x="1080.59" y="497.42"/><ellipse cx="1098.2579" cy="513.42" fill="#ADD1B2" rx="11" ry="11" style="stroke:#181818;stroke-width:1;"/><path d="M1100.7311,519.5631 Q1100.15,519.8619 1099.5108,520.0113 Q1098.8717,520.1607 1098.1661,520.1607 Q1095.6593,520.1607 1094.3395,518.5089 Q1093.0196,516.857 1093.0196,513.7359 Q1093.0196,510.6065 1094.3395,508.9547 Q1095.6593,507.3028 1098.1661,507.3028 Q1098.8717,507.3028 1099.5192,507.4522 Q1100.1666,507.6016 1100.7311,507.9005 L1100.7311,510.6231 Q1100.1002,510.0421 1099.5067,509.7723 Q1098.9132,509.5025 1098.2823,509.5025 Q1096.9376,509.5025 1096.2528,510.5692 Q1095.568,511.6358 1095.568,513.7359 Q1095.568,515.8277 1096.2528,516.8944 Q1096.9376,517.961 1098.2823,517.961 Q1098.9132,517.961 1099.5067,517.6912 Q1100.1002,517.4215 1100.7311,516.8404 Z " fill="#000000"/><text fill="#000000" font-family="sans-serif" font-size="14" lengthAdjust="spacing" textLength="74.1904" x="1112.8508" y="518.711">Medication</text><line style="stroke:#181818;stroke-width:0.5;" x1="1081.59" x2="1191.7091" y1="529.42" y2="529.42"/><g data-visibility-modifier="PUBLIC_FIELD"><ellipse cx="1091.59" cy="543.1641" fill="none" rx="3" ry="3" style="stroke:#038048;stroke-width:1;"/></g><text fill="#000000" font-family="sans-serif" font-size="14" lengthAdjust="spacing" textLength="86.1191" x="1100.59" y="546.9552">name: String</text><line style="stroke:#181818;stroke-width:0.5;" x1="1081.59" x2="1191.7091" y1="553.9083" y2="553.9083"/></g><!--class InsuranceCompany--><g class="entity" data-qualified-name="InsuranceCompany" data-source-line="43" id="ent0012"><rect fill="#F1F1F1" height="64.4883" rx="2.5" ry="2.5" style="stroke:#181818;stroke-width:0.5;" width="161.5684" x="250.87" y="355.93"/><ellipse cx="265.87" cy="371.93" fill="#ADD1B2" rx="11" ry="11" style="stroke:#181818;stroke-width:1;"/><path d="M268.3431,378.0731 Q267.7621,378.3719 267.1229,378.5213 Q266.4838,378.6707 265.7782,378.6707 Q263.2714,378.6707 261.9515,377.0189 Q260.6317,375.367 260.6317,372.2459 Q260.6317,369.1165 261.9515,367.4647 Q263.2714,365.8128 265.7782,365.8128 Q266.4838,365.8128 267.1312,365.9622 Q267.7787,366.1116 268.3431,366.4105 L268.3431,369.1331 Q267.7123,368.5521 267.1188,368.2823 Q266.5253,368.0125 265.8944,368.0125 Q264.5497,368.0125 263.8649,369.0792 Q263.1801,370.1458 263.1801,372.2459 Q263.1801,374.3377 263.8649,375.4044 Q264.5497,376.471 265.8944,376.471 Q266.5253,376.471 267.1188,376.2012 Q267.7123,375.9315 268.3431,375.3504 Z " fill="#000000"/><text fill="#000000" font-family="sans-serif" font-size="14" lengthAdjust="spacing" textLength="129.5684" x="279.87" y="377.221">InsuranceCompany</text><line style="stroke:#181818;stroke-width:0.5;" x1="251.87" x2="411.4384" y1="387.93" y2="387.93"/><g data-visibility-modifier="PUBLIC_FIELD"><ellipse cx="261.87" cy="401.6741" fill="none" rx="3" ry="3" style="stroke:#038048;stroke-width:1;"/></g><text fill="#000000" font-family="sans-serif" font-size="14" lengthAdjust="spacing" textLength="86.1191" x="270.87" y="405.4652">name: String</text><line style="stroke:#181818;stroke-width:0.5;" x1="251.87" x2="411.4384" y1="412.4183" y2="412.4183"/></g><!--class Invoice--><g class="entity" data-qualified-name="Invoice" data-source-line="47" id="ent0013"><rect fill="#F1F1F1" height="80.9766" rx="2.5" ry="2.5" style="stroke:#181818;stroke-width:0.5;" width="141.2266" x="519.04" y="189.71"/><ellipse cx="561.7787" cy="205.71" fill="#ADD1B2" rx="11" ry="11" style="stroke:#181818;stroke-width:1;"/><path d="M564.2519,211.8531 Q563.6708,212.1519 563.0317,212.3013 Q562.3925,212.4507 561.6869,212.4507 Q559.1801,212.4507 557.8603,210.7989 Q556.5404,209.147 556.5404,206.0259 Q556.5404,202.8965 557.8603,201.2447 Q559.1801,199.5928 561.6869,199.5928 Q562.3925,199.5928 563.04,199.7422 Q563.6874,199.8916 564.2519,200.1905 L564.2519,202.9131 Q563.621,202.3321 563.0275,202.0623 Q562.434,201.7925 561.8031,201.7925 Q560.4584,201.7925 559.7736,202.8592 Q559.0888,203.9258 559.0888,206.0259 Q559.0888,208.1177 559.7736,209.1844 Q560.4584,210.251 561.8031,210.251 Q562.434,210.251 563.0275,209.9812 Q563.621,209.7115 564.2519,209.1304 Z " fill="#000000"/><text fill="#000000" font-family="sans-serif" font-size="14" lengthAdjust="spacing" textLength="47.585" x="581.9429" y="211.001">Invoice</text><line style="stroke:#181818;stroke-width:0.5;" x1="520.04" x2="659.2666" y1="221.71" y2="221.71"/><g data-visibility-modifier="PUBLIC_FIELD"><ellipse cx="530.04" cy="235.4541" fill="none" rx="3" ry="3" style="stroke:#038048;stroke-width:1;"/></g><text fill="#000000" font-family="sans-serif" font-size="14" lengthAdjust="spacing" textLength="115.2266" x="539.04" y="239.2452">amount: Decimal</text><g data-visibility-modifier="PUBLIC_FIELD"><ellipse cx="530.04" cy="251.9424" fill="none" rx="3" ry="3" style="stroke:#038048;stroke-width:1;"/></g><text fill="#000000" font-family="sans-serif" font-size="14" lengthAdjust="spacing" textLength="69.6924" x="539.04" y="255.7334">date: Date</text><line style="stroke:#181818;stroke-width:0.5;" x1="520.04" x2="659.2666" y1="262.6866" y2="262.6866"/></g><!--class BillingContract--><g class="entity" data-qualified-name="BillingContract" data-source-line="52" id="ent0014"><rect fill="#F1F1F1" height="64.4883" rx="2.5" ry="2.5" style="stroke:#181818;stroke-width:0.5;" width="131.7363" x="523.78" y="355.93"/><ellipse cx="538.78" cy="371.93" fill="#ADD1B2" rx="11" ry="11" style="stroke:#181818;stroke-width:1;"/><path d="M541.2531,378.0731 Q540.6721,378.3719 540.0329,378.5213 Q539.3938,378.6707 538.6882,378.6707 Q536.1814,378.6707 534.8615,377.0189 Q533.5417,375.367 533.5417,372.2459 Q533.5417,369.1165 534.8615,367.4647 Q536.1814,365.8128 538.6882,365.8128 Q539.3938,365.8128 540.0412,365.9622 Q540.6887,366.1116 541.2531,366.4105 L541.2531,369.1331 Q540.6223,368.5521 540.0288,368.2823 Q539.4353,368.0125 538.8044,368.0125 Q537.4597,368.0125 536.7749,369.0792 Q536.0901,370.1458 536.0901,372.2459 Q536.0901,374.3377 536.7749,375.4044 Q537.4597,376.471 538.8044,376.471 Q539.4353,376.471 540.0288,376.2012 Q540.6223,375.9315 541.2531,375.3504 Z " fill="#000000"/><text fill="#000000" font-family="sans-serif" font-size="14" lengthAdjust="spacing" textLength="99.7363" x="552.78" y="377.221">BillingContract</text><line style="stroke:#181818;stroke-width:0.5;" x1="524.78" x2="654.5163" y1="387.93" y2="387.93"/><g data-visibility-modifier="PUBLIC_FIELD"><ellipse cx="534.78" cy="401.6741" fill="none" rx="3" ry="3" style="stroke:#038048;stroke-width:1;"/></g><text fill="#000000" font-family="sans-serif" font-size="14" lengthAdjust="spacing" textLength="87.8008" x="543.78" y="405.4652">terms: String</text><line style="stroke:#181818;stroke-width:0.5;" x1="524.78" x2="654.5163" y1="412.4183" y2="412.4183"/></g><!--reverse link PersonalDataForm to Patient--><g class="link" data-entity-1="ent0001" data-entity-2="ent0002" data-link-type="extension" data-source-line="56" id="lnk15"><path codeLine="56" d="M132.8878,119.9921 C143.0078,135.7021 145.49,137.54 158.65,151.47 C173.91,167.62 181.3,167.59 198.65,181.47 C208.33,189.21 218.71,197.94 227.88,205.79" fill="none" id="PersonalDataForm-backto-Patient" style="stroke:#181818;stroke-width:1;"/><polygon fill="none" points="123.14,104.86,127.8437,123.2414,137.9318,116.7429,123.14,104.86" style="stroke:#181818;stroke-width:1;stroke-linejoin:miter;stroke-miterlimit:10;"/></g><!--reverse link PersonalDataForm to Doctor--><g class="link" data-entity-1="ent0001" data-entity-2="ent0003" data-link-type="extension" data-source-line="57" id="lnk16"><path codeLine="57" d="M55.3584,120.2762 C27.5384,169.3162 6,229.51 46.65,278.93 C115.42,362.54 178.39,311.28 285.65,325.93 C456.58,349.28 507.13,307.31 672.65,355.93 C679.23,357.87 685.92,360.61 692.29,363.68" fill="none" id="PersonalDataForm-backto-Doctor" style="stroke:#181818;stroke-width:1;"/><polygon fill="none" points="64.24,104.62,50.1396,117.3157,60.5771,123.2367,64.24,104.62" style="stroke:#181818;stroke-width:1;stroke-linejoin:miter;stroke-miterlimit:10;"/></g><!--reverse link PersonalDataForm to NursingStaff--><g class="link" data-entity-1="ent0001" data-entity-2="ent0004" data-link-type="extension" data-source-line="58" id="lnk17"><path codeLine="58" d="M105.9539,122.5634 C111.1339,155.6534 115,180.36 119.04,206.15" fill="none" id="PersonalDataForm-backto-NursingStaff" style="stroke:#181818;stroke-width:1;"/><polygon fill="none" points="103.17,104.78,100.0261,123.4914,111.8817,121.6355,103.17,104.78" style="stroke:#181818;stroke-width:1;stroke-linejoin:miter;stroke-miterlimit:10;"/></g><!--reverse link Ward to Bed--><g class="link" data-entity-1="ent0005" data-entity-2="ent0006" data-link-type="composition" data-source-line="60" id="lnk18"><path codeLine="60" d="M353.2381,99.4665 C366.0081,130.4865 380.81,166.43 393.59,197.48" fill="none" id="Ward-backto-Bed" style="stroke:#181818;stroke-width:1;"/><polygon fill="#181818" points="348.67,88.37,347.2552,95.441,353.2381,99.4665,354.6529,92.3956,348.67,88.37" style="stroke:#181818;stroke-width:1;stroke-linejoin:miter;stroke-miterlimit:10;"/><text fill="#000000" font-family="sans-serif" font-size="13" lengthAdjust="spacing" textLength="68.0913" x="374.28" y="148.0384">consists of</text><text fill="#000000" font-family="sans-serif" font-size="13" lengthAdjust="spacing" textLength="8.2202" x="342.4105" y="108.6189">1</text><text fill="#000000" font-family="sans-serif" font-size="13" lengthAdjust="spacing" textLength="22.7119" x="366.9239" y="187.1598">1..*</text></g><!--reverse link Ward to NursingStaff--><g class="link" data-entity-1="ent0005" data-entity-2="ent0004" data-link-type="aggregation" data-source-line="61" id="lnk19"><path codeLine="61" d="M268.4989,85.0438 C240.2689,98.3738 217.54,111.85 191.65,134.47 C168.05,155.09 147.88,185.18 135.55,205.89" fill="none" id="Ward-backto-NursingStaff" style="stroke:#181818;stroke-width:1;"/><polygon fill="none" points="279.35,79.92,272.2165,78.8649,268.4989,85.0438,275.6324,86.0989,279.35,79.92" style="stroke:#181818;stroke-width:1;stroke-linejoin:miter;stroke-miterlimit:10;"/><text fill="#000000" font-family="sans-serif" font-size="13" lengthAdjust="spacing" textLength="62.7402" x="192.65" y="148.0384">staffed by</text><text fill="#000000" font-family="sans-serif" font-size="13" lengthAdjust="spacing" textLength="8.2202" x="263.262" y="79.7514">1</text><text fill="#000000" font-family="sans-serif" font-size="13" lengthAdjust="spacing" textLength="22.7119" x="114.1276" y="195.3468">1..*</text></g><!--link InpatientStay to Patient--><g class="link" data-entity-1="ent0007" data-entity-2="ent0002" data-link-type="association" data-source-line="63" id="lnk20"><path codeLine="63" d="M600.17,71.25 C488.9,90.89 304.5,124.63 292.65,134.47 C271.11,152.35 261.68,184.24 257.62,206.04" fill="none" id="InpatientStay-Patient" style="stroke:#181818;stroke-width:1;"/><text fill="#000000" font-family="sans-serif" font-size="13" lengthAdjust="spacing" textLength="66.9297" x="293.65" y="148.0384">belongs to</text><text fill="#000000" font-family="sans-serif" font-size="13" lengthAdjust="spacing" textLength="22.7119" x="569.4931" y="69.5713">1..*</text><text fill="#000000" font-family="sans-serif" font-size="13" lengthAdjust="spacing" textLength="8.2202" x="249.3846" y="195.5353">1</text></g><!--link InpatientStay to Bed--><g class="link" data-entity-1="ent0007" data-entity-2="ent0006" data-link-type="association" data-source-line="64" id="lnk21"><path codeLine="64" d="M619.75,96.52 C570.38,127.26 502.98,169.22 457.3,197.66" fill="none" id="InpatientStay-Bed" style="stroke:#181818;stroke-width:1;"/><text fill="#000000" font-family="sans-serif" font-size="13" lengthAdjust="spacing" textLength="55.1802" x="554.46" y="148.0384">occupies</text><text fill="#000000" font-family="sans-serif" font-size="13" lengthAdjust="spacing" textLength="24.667" x="583.7069" y="116.808">0..1</text><text fill="#000000" font-family="sans-serif" font-size="13" lengthAdjust="spacing" textLength="8.2202" x="458.945" y="187.0013">1</text></g><!--link InpatientStay to Doctor--><g class="link" data-entity-1="ent0007" data-entity-2="ent0003" data-link-type="association" data-source-line="65" id="lnk22"><path codeLine="65" d="M698.37,96.63 C702.29,108.64 706.13,121.96 708.65,134.47 C725.45,217.79 729.42,319.11 730.36,363.93" fill="none" id="InpatientStay-Doctor" style="stroke:#181818;stroke-width:1;"/><text fill="#000000" font-family="sans-serif" font-size="13" lengthAdjust="spacing" textLength="123.5317" x="727.53" y="235.2684">attending physician</text><text fill="#000000" font-family="sans-serif" font-size="13" lengthAdjust="spacing" textLength="22.7119" x="677.0199" y="116.9355">1..*</text><text fill="#000000" font-family="sans-serif" font-size="13" lengthAdjust="spacing" textLength="8.2202" x="721.2887" y="353.4022">1</text></g><!--link InpatientStay to AdmissionType--><g class="link" data-entity-1="ent0007" data-entity-2="ent0008" data-link-type="association" data-source-line="66" id="lnk23"><path codeLine="66" d="M747.09,96.52 C789.91,123.38 846.41,158.81 890.24,186.3" fill="none" id="InpatientStay-AdmissionType" style="stroke:#181818;stroke-width:1;"/><text fill="#000000" font-family="sans-serif" font-size="13" lengthAdjust="spacing" textLength="21.874" x="830.4" y="148.0384">has</text><text fill="#000000" font-family="sans-serif" font-size="13" lengthAdjust="spacing" textLength="8.2202" x="748.5811" y="116.808">1</text><text fill="#000000" font-family="sans-serif" font-size="13" lengthAdjust="spacing" textLength="8.2202" x="874.3325" y="178.2632">1</text></g><!--reverse link InpatientStay to Diagnosis--><g class="link" data-entity-1="ent0007" data-entity-2="ent0009" data-link-type="composition" data-source-line="68" id="lnk24"><path codeLine="68" d="M778.5687,85.5754 C852.3487,108.7454 950.89,141.83 1043.65,181.47 C1049.32,183.89 1055.13,186.52 1060.94,189.24" fill="none" id="InpatientStay-backto-Diagnosis" style="stroke:#181818;stroke-width:1;"/><polygon fill="#181818" points="767.12,81.98,771.6459,87.5939,778.5687,85.5754,774.0428,79.9614,767.12,81.98" style="stroke:#181818;stroke-width:1;stroke-linejoin:miter;stroke-miterlimit:10;"/><text fill="#000000" font-family="sans-serif" font-size="13" lengthAdjust="spacing" textLength="80.355" x="967.21" y="148.0384">made during</text><text fill="#000000" font-family="sans-serif" font-size="13" lengthAdjust="spacing" textLength="8.2202" x="774.9203" y="81.2314">1</text><text fill="#000000" font-family="sans-serif" font-size="13" lengthAdjust="spacing" textLength="22.7119" x="1030.4392" y="182.0535">0..*</text></g><!--link Diagnosis to Doctor--><g class="link" data-entity-1="ent0009" data-entity-2="ent0003" data-link-type="association" data-source-line="69" id="lnk25"><path codeLine="69" d="M1060.94,271.16 C1055.13,273.89 1049.32,276.51 1043.65,278.93 C947.41,320.03 829.81,357.4 769.87,375.57" fill="none" id="Diagnosis-Doctor" style="stroke:#181818;stroke-width:1;"/><text fill="#000000" font-family="sans-serif" font-size="13" lengthAdjust="spacing" textLength="101.7974" x="968.72" y="322.4984">responsibility of</text><text fill="#000000" font-family="sans-serif" font-size="13" lengthAdjust="spacing" textLength="22.7119" x="1030.4392" y="272.0375">1..*</text><text fill="#000000" font-family="sans-serif" font-size="13" lengthAdjust="spacing" textLength="8.2202" x="777.5881" y="369.5839">1</text></g><!--link Diagnosis to Prescription--><g class="link" data-entity-1="ent0009" data-entity-2="ent0010" data-link-type="association" data-source-line="71" id="lnk26"><path codeLine="71" d="M1136.65,270.96 C1136.65,297.23 1136.65,331.18 1136.65,355.59" fill="none" id="Diagnosis-Prescription" style="stroke:#181818;stroke-width:1;"/><text fill="#000000" font-family="sans-serif" font-size="13" lengthAdjust="spacing" textLength="62.7021" x="1137.65" y="322.4984">issued for</text><text fill="#000000" font-family="sans-serif" font-size="13" lengthAdjust="spacing" textLength="8.2202" x="1128.0296" y="291.2448">1</text><text fill="#000000" font-family="sans-serif" font-size="13" lengthAdjust="spacing" textLength="22.7119" x="1112.5547" y="345.2974">0..*</text></g><!--link Prescription to Medication--><g class="link" data-entity-1="ent0010" data-entity-2="ent0011" data-link-type="association" data-source-line="72" id="lnk27"><path codeLine="72" d="M1136.65,420.83 C1136.65,443.66 1136.65,474.34 1136.65,497.14" fill="none" id="Prescription-Medication" style="stroke:#181818;stroke-width:1;"/><text fill="#000000" font-family="sans-serif" font-size="13" lengthAdjust="spacing" textLength="54.8755" x="1137.65" y="463.9884">specifies</text><text fill="#000000" font-family="sans-serif" font-size="13" lengthAdjust="spacing" textLength="8.2202" x="1127.9087" y="441.0827">1</text><text fill="#000000" font-family="sans-serif" font-size="13" lengthAdjust="spacing" textLength="8.2202" x="1127.8478" y="486.4854">1</text></g><!--link Patient to InsuranceCompany--><g class="link" data-entity-1="ent0002" data-entity-2="ent0012" data-link-type="association" data-source-line="74" id="lnk28"><path codeLine="74" d="M266.18,254.55 C279.43,281.41 301.27,325.63 316.04,355.56" fill="none" id="Patient-InsuranceCompany" style="stroke:#181818;stroke-width:1;"/><text fill="#000000" font-family="sans-serif" font-size="13" lengthAdjust="spacing" textLength="66.3521" x="301.05" y="322.4984">insured by</text><text fill="#000000" font-family="sans-serif" font-size="13" lengthAdjust="spacing" textLength="22.7119" x="244.3963" y="274.9196">1..*</text><text fill="#000000" font-family="sans-serif" font-size="13" lengthAdjust="spacing" textLength="8.2202" x="304.2001" y="345.2615">1</text></g><!--link InpatientStay to Invoice--><g class="link" data-entity-1="ent0007" data-entity-2="ent0013" data-link-type="association" data-source-line="76" id="lnk29"><path codeLine="76" d="M662.08,96.3 C646.91,124.15 626.67,161.28 611.44,189.22" fill="none" id="InpatientStay-Invoice" style="stroke:#181818;stroke-width:1;"/><text fill="#000000" font-family="sans-serif" font-size="13" lengthAdjust="spacing" textLength="61.8896" x="640.47" y="148.0384">generates</text><text fill="#000000" font-family="sans-serif" font-size="13" lengthAdjust="spacing" textLength="8.2202" x="649.8636" y="116.8543">1</text><text fill="#000000" font-family="sans-serif" font-size="13" lengthAdjust="spacing" textLength="8.2202" x="606.2923" y="179.0869">1</text></g><!--link Invoice to BillingContract--><g class="link" data-entity-1="ent0013" data-entity-2="ent0014" data-link-type="association" data-source-line="77" id="lnk30"><path codeLine="77" d="M589.65,270.96 C589.65,297.23 589.65,331.18 589.65,355.59" fill="none" id="Invoice-BillingContract" style="stroke:#181818;stroke-width:1;"/><text fill="#000000" font-family="sans-serif" font-size="13" lengthAdjust="spacing" textLength="44.9097" x="590.65" y="322.4984">follows</text><text fill="#000000" font-family="sans-serif" font-size="13" lengthAdjust="spacing" textLength="22.7119" x="565.9531" y="291.2448">0..*</text><text fill="#000000" font-family="sans-serif" font-size="13" lengthAdjust="spacing" textLength="8.2202" x="580.8845" y="345.2974">1</text></g><!--link Invoice to InsuranceCompany--><g class="link" data-entity-1="ent0013" data-entity-2="ent0012" data-link-type="association" data-source-line="78" id="lnk31"><path codeLine="78" d="M523.54,271.17 C480.1,297.43 424.05,331.32 383.76,355.67" fill="none" id="Invoice-InsuranceCompany" style="stroke:#181818;stroke-width:1;"/><text fill="#000000" font-family="sans-serif" font-size="13" lengthAdjust="spacing" textLength="80.8818" x="461.65" y="322.4984">submitted to</text><text fill="#000000" font-family="sans-serif" font-size="13" lengthAdjust="spacing" textLength="22.7119" x="489.7865" y="291.1844">0..*</text><text fill="#000000" font-family="sans-serif" font-size="13" lengthAdjust="spacing" textLength="8.2202" x="385.7045" y="345.0195">1</text></g><?plantuml-src VLF1Zfim4Btp5LQEMssqkQ9UcaqhxQ7fIhjIpuCz44lOHXxJ2hNzzuun10XaJu6PzzuyPbwWeE111Y5h81AlwCbPg4yGu9lpHlp9XFXKQa_X30PpyHQyjbKiCdvLKn3mHtdKFbnomHgO_SkoGHc2HXk6jvEJmVdXvTnwOe6t06Kvmd-2LscudS-uoXrnQ1UepgqfqAynBxP9GrcvIsXGHXDfPwEvmMBqhKbUm5SuAxCCsjQ8BoFblMkmL_bgaA5MTlpyMeErgFZftOEb4lqq_wIXieuqfTaAINhT19QwtTbgMNx23cH7K6tiuJigBM72RM_hnLBBzYG-EzE0xJx6_d9Quh0lureRs1vARQ2-v_Uewvf5dfrDOUgv0RsXkVugN9__FZvUWx7T7OAotLm6fu_Cxh0J3zpQ7VRxXrqVarn8P_aAWOGh9vIRK7CTXbFyPMBHPTaoGmE-P-v6vymei7Qs8X7SBU5flpzS2ScDax9jDDA7skcx6GqXe5NiJZINZhJKO5V4AskPrLnSWB8DTB-WftxSbD5S650eLDkVQwhVySK9RU9Q2rthqCNDBZY9a6OiqfmBTjZo8ifurdbdzXspLFCv6WvV6HUMZHjVUbgbcsV4qfqJpdWfwRdWVpDwJdIyIQeDriV3tUGxP_TrxNxVmsyuehOmcc-fE2J_0G00?></g></svg>