<svg xmlns="http://www.w3.org/2000/svg" xmlns:xlink="http://www.w3.org/1999/xlink" contentStyleType="text/css" data-diagram-type="CLASS" height="685px" preserveAspectRatio="none" style="width:666px;height:685px;background:#FFFFFF;" version="1.1" viewBox="0 0 666 685" width="666px" zoomAndPan="magnify"><?plantuml 1.2026.6?><defs/><g><!--class Branch--><g class="entity" data-qualified-name="Branch" data-source-line="1" id="ent0001"><rect fill="#F1F1F1" height="64.4883" rx="2.5" ry="2.5" style="stroke:#181818;stroke-width:0.5;" width="112.1191" x="106.33" y="306.47"/><ellipse cx="136.6564" cy="322.47" fill="#ADD1B2" rx="11" ry="11" style="stroke:#181818;stroke-width:1;"/><path d="M139.1295,328.6131 Q138.5485,328.9119 137.9093,329.0613 Q137.2701,329.2107 136.5646,329.2107 Q134.0577,329.2107 132.7379,327.5589 Q131.4181,325.907 131.4181,322.7859 Q131.4181,319.6565 132.7379,318.0047 Q134.0577,316.3528 136.5646,316.3528 Q137.2701,316.3528 137.9176,316.5022 Q138.5651,316.6516 139.1295,316.9505 L139.1295,319.6731 Q138.4987,319.0921 137.9051,318.8223 Q137.3116,318.5525 136.6808,318.5525 Q135.3361,318.5525 134.6512,319.6192 Q133.9664,320.6858 133.9664,322.7859 Q133.9664,324.8777 134.6512,325.9444 Q135.3361,327.011 136.6808,327.011 Q137.3116,327.011 137.9051,326.7412 Q138.4987,326.4715 139.1295,325.8904 Z " fill="#000000"/><text fill="#000000" font-family="sans-serif" font-size="14" lengthAdjust="spacing" textLength="46.0605" x="154.0622" y="327.761">Branch</text><line style="stroke:#181818;stroke-width:0.5;" x1="107.33" x2="217.4491" y1="338.47" y2="338.47"/><g data-visibility-modifier="PUBLIC_FIELD"><ellipse cx="117.33" cy="352.2141" fill="none" rx="3" ry="3" style="stroke:#038048;stroke-width:1;"/></g><text fill="#000000" font-family="sans-serif" font-size="14" lengthAdjust="spacing" textLength="86.1191" x="126.33" y="356.0052">name: String</text><line style="stroke:#181818;stroke-width:0.5;" x1="107.33" x2="217.4491" y1="362.9583" y2="362.9583"/></g><!--class Vehicle--><g class="entity" data-qualified-name="Vehicle" data-source-line="5" id="ent0002"><rect fill="#F1F1F1" height="64.4883" rx="2.5" ry="2.5" style="stroke:#181818;stroke-width:0.5;" width="154.0713" x="106.36" y="447.96"/><ellipse cx="154.7926" cy="463.96" fill="#ADD1B2" rx="11" ry="11" style="stroke:#181818;stroke-width:1;"/><path d="M157.2658,470.1031 Q156.6847,470.4019 156.0455,470.5513 Q155.4064,470.7007 154.7008,470.7007 Q152.194,470.7007 150.8742,469.0489 Q149.5543,467.397 149.5543,464.2759 Q149.5543,461.1465 150.8742,459.4947 Q152.194,457.8428 154.7008,457.8428 Q155.4064,457.8428 156.0538,457.9922 Q156.7013,458.1416 157.2658,458.4405 L157.2658,461.1631 Q156.6349,460.5821 156.0414,460.3123 Q155.4479,460.0425 154.817,460.0425 Q153.4723,460.0425 152.7875,461.1092 Q152.1027,462.1758 152.1027,464.2759 Q152.1027,466.3677 152.7875,467.4344 Q153.4723,468.501 154.817,468.501 Q155.4479,468.501 156.0414,468.2312 Q156.6349,467.9615 157.2658,467.3804 Z " fill="#000000"/><text fill="#000000" font-family="sans-serif" font-size="14" lengthAdjust="spacing" textLength="48.7061" x="175.2926" y="469.251">Vehicle</text><line style="stroke:#181818;stroke-width:0.5;" x1="107.36" x2="259.4313" y1="479.96" y2="479.96"/><g data-visibility-modifier="PUBLIC_FIELD"><ellipse cx="117.36" cy="493.7041" fill="none" rx="3" ry="3" style="stroke:#038048;stroke-width:1;"/></g><text fill="#000000" font-family="sans-serif" font-size="14" lengthAdjust="spacing" textLength="128.0713" x="126.36" y="497.4952">licensePlate: String</text><line style="stroke:#181818;stroke-width:0.5;" x1="107.36" x2="259.4313" y1="504.4483" y2="504.4483"/></g><!--class VehicleClass--><g class="entity" data-qualified-name="VehicleClass" data-source-line="9" id="ent0003"><rect fill="#F1F1F1" height="80.9766" rx="2.5" ry="2.5" style="stroke:#181818;stroke-width:0.5;" width="150.7832" x="7" y="589.44"/><ellipse cx="37.4525" cy="605.44" fill="#ADD1B2" rx="11" ry="11" style="stroke:#181818;stroke-width:1;"/><path d="M39.9256,611.5831 Q39.3446,611.8819 38.7054,612.0313 Q38.0663,612.1807 37.3607,612.1807 Q34.8539,612.1807 33.534,610.5289 Q32.2142,608.877 32.2142,605.7559 Q32.2142,602.6265 33.534,600.9747 Q34.8539,599.3228 37.3607,599.3228 Q38.0663,599.3228 38.7137,599.4722 Q39.3612,599.6216 39.9256,599.9205 L39.9256,602.6431 Q39.2948,602.0621 38.7013,601.7923 Q38.1078,601.5225 37.4769,601.5225 Q36.1322,601.5225 35.4474,602.5892 Q34.7625,603.6558 34.7625,605.7559 Q34.7625,607.8477 35.4474,608.9144 Q36.1322,609.981 37.4769,609.981 Q38.1078,609.981 38.7013,609.7112 Q39.2948,609.4415 39.9256,608.8604 Z " fill="#000000"/><text fill="#000000" font-family="sans-serif" font-size="14" lengthAdjust="spacing" textLength="84.4443" x="54.8864" y="610.731">VehicleClass</text><line style="stroke:#181818;stroke-width:0.5;" x1="8" x2="156.7832" y1="621.44" y2="621.44"/><g data-visibility-modifier="PUBLIC_FIELD"><ellipse cx="18" cy="635.1841" fill="none" rx="3" ry="3" style="stroke:#038048;stroke-width:1;"/></g><text fill="#000000" font-family="sans-serif" font-size="14" lengthAdjust="spacing" textLength="86.1191" x="27" y="638.9752">name: String</text><g data-visibility-modifier="PUBLIC_FIELD"><ellipse cx="18" cy="651.6724" fill="none" rx="3" ry="3" style="stroke:#038048;stroke-width:1;"/></g><text fill="#000000" font-family="sans-serif" font-size="14" lengthAdjust="spacing" textLength="124.7832" x="27" y="655.4634">dailyRate: Decimal</text><line style="stroke:#181818;stroke-width:0.5;" x1="8" x2="156.7832" y1="662.4166" y2="662.4166"/></g><!--class Customer--><g class="entity" data-qualified-name="Customer" data-source-line="14" id="ent0004"><rect fill="#F1F1F1" height="64.4883" rx="2.5" ry="2.5" style="stroke:#181818;stroke-width:0.5;" width="112.1191" x="26.33" y="7"/><ellipse cx="47.7078" cy="23" fill="#ADD1B2" rx="11" ry="11" style="stroke:#181818;stroke-width:1;"/><path d="M50.1809,29.1431 Q49.5999,29.4419 48.9607,29.5913 Q48.3216,29.7407 47.616,29.7407 Q45.1092,29.7407 43.7893,28.0889 Q42.4695,26.437 42.4695,23.3159 Q42.4695,20.1865 43.7893,18.5347 Q45.1092,16.8828 47.616,16.8828 Q48.3216,16.8828 48.969,17.0322 Q49.6165,17.1816 50.1809,17.4805 L50.1809,20.2031 Q49.5501,19.6221 48.9566,19.3523 Q48.3631,19.0825 47.7322,19.0825 Q46.3875,19.0825 45.7027,20.1492 Q45.0178,21.2158 45.0178,23.3159 Q45.0178,25.4077 45.7027,26.4744 Q46.3875,27.541 47.7322,27.541 Q48.3631,27.541 48.9566,27.2712 Q49.5501,27.0015 50.1809,26.4204 Z " fill="#000000"/><text fill="#000000" font-family="sans-serif" font-size="14" lengthAdjust="spacing" textLength="65.9463" x="63.1251" y="28.291">Customer</text><line style="stroke:#181818;stroke-width:0.5;" x1="27.33" x2="137.4491" y1="39" y2="39"/><g data-visibility-modifier="PUBLIC_FIELD"><ellipse cx="37.33" cy="52.7441" fill="none" rx="3" ry="3" style="stroke:#038048;stroke-width:1;"/></g><text fill="#000000" font-family="sans-serif" font-size="14" lengthAdjust="spacing" textLength="86.1191" x="46.33" y="56.5352">name: String</text><line style="stroke:#181818;stroke-width:0.5;" x1="27.33" x2="137.4491" y1="63.4883" y2="63.4883"/></g><!--class Reservation--><g class="entity" data-qualified-name="Reservation" data-source-line="18" id="ent0005"><rect fill="#F1F1F1" height="80.9766" rx="2.5" ry="2.5" style="stroke:#181818;stroke-width:0.5;" width="128.4365" x="18.17" y="148.49"/><ellipse cx="41.0766" cy="164.49" fill="#ADD1B2" rx="11" ry="11" style="stroke:#181818;stroke-width:1;"/><path d="M43.5498,170.6331 Q42.9687,170.9319 42.3296,171.0813 Q41.6904,171.2307 40.9848,171.2307 Q38.478,171.2307 37.1582,169.5789 Q35.8384,167.927 35.8384,164.8059 Q35.8384,161.6765 37.1582,160.0247 Q38.478,158.3728 40.9848,158.3728 Q41.6904,158.3728 42.3379,158.5222 Q42.9853,158.6716 43.5498,158.9705 L43.5498,161.6931 Q42.9189,161.1121 42.3254,160.8423 Q41.7319,160.5725 41.1011,160.5725 Q39.7563,160.5725 39.0715,161.6392 Q38.3867,162.7058 38.3867,164.8059 Q38.3867,166.8977 39.0715,167.9644 Q39.7563,169.031 41.1011,169.031 Q41.7319,169.031 42.3254,168.7612 Q42.9189,168.4915 43.5498,167.9104 Z " fill="#000000"/><text fill="#000000" font-family="sans-serif" font-size="14" lengthAdjust="spacing" textLength="78.8662" x="56.8337" y="169.781">Reservation</text><line style="stroke:#181818;stroke-width:0.5;" x1="19.17" x2="145.6065" y1="180.49" y2="180.49"/><g data-visibility-modifier="PUBLIC_FIELD"><ellipse cx="29.17" cy="194.2341" fill="none" rx="3" ry="3" style="stroke:#038048;stroke-width:1;"/></g><text fill="#000000" font-family="sans-serif" font-size="14" lengthAdjust="spacing" textLength="102.4365" x="38.17" y="198.0252">startDate: Date</text><g data-visibility-modifier="PUBLIC_FIELD"><ellipse cx="29.17" cy="210.7224" fill="none" rx="3" ry="3" style="stroke:#038048;stroke-width:1;"/></g><text fill="#000000" font-family="sans-serif" font-size="14" lengthAdjust="spacing" textLength="96.667" x="38.17" y="214.5134">endDate: Date</text><line style="stroke:#181818;stroke-width:0.5;" x1="19.17" x2="145.6065" y1="221.4666" y2="221.4666"/></g><!--class RentalContract--><g class="entity" data-qualified-name="RentalContract" data-source-line="23" id="ent0006"><rect fill="#F1F1F1" height="64.4883" rx="2.5" ry="2.5" style="stroke:#181818;stroke-width:0.5;" width="132.4336" x="294.17" y="306.47"/><ellipse cx="309.17" cy="322.47" fill="#ADD1B2" rx="11" ry="11" style="stroke:#181818;stroke-width:1;"/><path d="M311.6431,328.6131 Q311.0621,328.9119 310.4229,329.0613 Q309.7838,329.2107 309.0782,329.2107 Q306.5714,329.2107 305.2515,327.5589 Q303.9317,325.907 303.9317,322.7859 Q303.9317,319.6565 305.2515,318.0047 Q306.5714,316.3528 309.0782,316.3528 Q309.7838,316.3528 310.4312,316.5022 Q311.0787,316.6516 311.6431,316.9505 L311.6431,319.6731 Q311.0123,319.0921 310.4188,318.8223 Q309.8253,318.5525 309.1944,318.5525 Q307.8497,318.5525 307.1649,319.6192 Q306.4801,320.6858 306.4801,322.7859 Q306.4801,324.8777 307.1649,325.9444 Q307.8497,327.011 309.1944,327.011 Q309.8253,327.011 310.4188,326.7412 Q311.0123,326.4715 311.6431,325.8904 Z " fill="#000000"/><text fill="#000000" font-family="sans-serif" font-size="14" lengthAdjust="spacing" textLength="100.4336" x="323.17" y="327.761">RentalContract</text><line style="stroke:#181818;stroke-width:0.5;" x1="295.17" x2="425.6036" y1="338.47" y2="338.47"/><g data-visibility-modifier="PUBLIC_FIELD"><ellipse cx="305.17" cy="352.2141" fill="none" rx="3" ry="3" style="stroke:#038048;stroke-width:1;"/></g><text fill="#000000" font-family="sans-serif" font-size="14" lengthAdjust="spacing" textLength="105.2871" x="314.17" y="356.0052">createdAt: Date</text><line style="stroke:#181818;stroke-width:0.5;" x1="295.17" x2="425.6036" y1="362.9583" y2="362.9583"/></g><!--class InsuranceOption--><g class="entity" data-qualified-name="InsuranceOption" data-source-line="27" id="ent0007"><rect fill="#F1F1F1" height="64.4883" rx="2.5" ry="2.5" style="stroke:#181818;stroke-width:0.5;" width="143.9248" x="507.43" y="447.96"/><ellipse cx="522.43" cy="463.96" fill="#ADD1B2" rx="11" ry="11" style="stroke:#181818;stroke-width:1;"/><path d="M524.9031,470.1031 Q524.3221,470.4019 523.6829,470.5513 Q523.0438,470.7007 522.3382,470.7007 Q519.8314,470.7007 518.5115,469.0489 Q517.1917,467.397 517.1917,464.2759 Q517.1917,461.1465 518.5115,459.4947 Q519.8314,457.8428 522.3382,457.8428 Q523.0438,457.8428 523.6912,457.9922 Q524.3387,458.1416 524.9031,458.4405 L524.9031,461.1631 Q524.2723,460.5821 523.6788,460.3123 Q523.0853,460.0425 522.4544,460.0425 Q521.1097,460.0425 520.4249,461.1092 Q519.7401,462.1758 519.7401,464.2759 Q519.7401,466.3677 520.4249,467.4344 Q521.1097,468.501 522.4544,468.501 Q523.0853,468.501 523.6788,468.2312 Q524.2723,467.9615 524.9031,467.3804 Z " fill="#000000"/><text fill="#000000" font-family="sans-serif" font-size="14" lengthAdjust="spacing" textLength="111.9248" x="536.43" y="469.251">InsuranceOption</text><line style="stroke:#181818;stroke-width:0.5;" x1="508.43" x2="650.3548" y1="479.96" y2="479.96"/><g data-visibility-modifier="PUBLIC_FIELD"><ellipse cx="518.43" cy="493.7041" fill="none" rx="3" ry="3" style="stroke:#038048;stroke-width:1;"/></g><text fill="#000000" font-family="sans-serif" font-size="14" lengthAdjust="spacing" textLength="86.1191" x="527.43" y="497.4952">name: String</text><line style="stroke:#181818;stroke-width:0.5;" x1="508.43" x2="650.3548" y1="504.4483" y2="504.4483"/></g><!--class Invoice--><g class="entity" data-qualified-name="Invoice" data-source-line="31" id="ent0008"><rect fill="#F1F1F1" height="64.4883" rx="2.5" ry="2.5" style="stroke:#181818;stroke-width:0.5;" width="141.2266" x="330.78" y="447.96"/><ellipse cx="373.5187" cy="463.96" fill="#ADD1B2" rx="11" ry="11" style="stroke:#181818;stroke-width:1;"/><path d="M375.9919,470.1031 Q375.4108,470.4019 374.7717,470.5513 Q374.1325,470.7007 373.4269,470.7007 Q370.9201,470.7007 369.6003,469.0489 Q368.2804,467.397 368.2804,464.2759 Q368.2804,461.1465 369.6003,459.4947 Q370.9201,457.8428 373.4269,457.8428 Q374.1325,457.8428 374.78,457.9922 Q375.4274,458.1416 375.9919,458.4405 L375.9919,461.1631 Q375.361,460.5821 374.7675,460.3123 Q374.174,460.0425 373.5431,460.0425 Q372.1984,460.0425 371.5136,461.1092 Q370.8288,462.1758 370.8288,464.2759 Q370.8288,466.3677 371.5136,467.4344 Q372.1984,468.501 373.5431,468.501 Q374.174,468.501 374.7675,468.2312 Q375.361,467.9615 375.9919,467.3804 Z " fill="#000000"/><text fill="#000000" font-family="sans-serif" font-size="14" lengthAdjust="spacing" textLength="47.585" x="393.6829" y="469.251">Invoice</text><line style="stroke:#181818;stroke-width:0.5;" x1="331.78" x2="471.0066" y1="479.96" y2="479.96"/><g data-visibility-modifier="PUBLIC_FIELD"><ellipse cx="341.78" cy="493.7041" fill="none" rx="3" ry="3" style="stroke:#038048;stroke-width:1;"/></g><text fill="#000000" font-family="sans-serif" font-size="14" lengthAdjust="spacing" textLength="115.2266" x="350.78" y="497.4952">amount: Decimal</text><line style="stroke:#181818;stroke-width:0.5;" x1="331.78" x2="471.0066" y1="504.4483" y2="504.4483"/></g><!--reverse link Branch to Vehicle--><g class="link" data-entity-1="ent0001" data-entity-2="ent0002" data-link-type="composition" data-source-line="35" id="lnk9"><path codeLine="35" d="M156.9921,383.1284 C155.7921,397.5084 156.51,402.73 159.39,417.96 C161.28,427.94 164.75,438.39 168.49,447.77" fill="none" id="Branch-backto-Vehicle" style="stroke:#181818;stroke-width:1;"/><polygon fill="#181818" points="157.99,371.17,153.5049,376.8166,156.9921,383.1284,161.4772,377.4819,157.99,371.17" style="stroke:#181818;stroke-width:1;stroke-linejoin:miter;stroke-miterlimit:10;"/><text fill="#000000" font-family="sans-serif" font-size="13" lengthAdjust="spacing" textLength="109.9858" x="160.39" y="414.5284">assigned vehicles</text><text fill="#000000" font-family="sans-serif" font-size="13" lengthAdjust="spacing" textLength="8.2202" x="148.358" y="391.6352">1</text><text fill="#000000" font-family="sans-serif" font-size="13" lengthAdjust="spacing" textLength="22.7119" x="141.2204" y="437.134">0..*</text></g><!--link Vehicle to VehicleClass--><g class="link" data-entity-1="ent0002" data-entity-2="ent0003" data-link-type="association" data-source-line="36" id="lnk10"><path codeLine="36" d="M161.72,512.89 C146.48,535.19 125.96,565.2 109.62,589.11" fill="none" id="Vehicle-VehicleClass" style="stroke:#181818;stroke-width:1;"/><text fill="#000000" font-family="sans-serif" font-size="13" lengthAdjust="spacing" textLength="66.9297" x="139.94" y="556.0084">belongs to</text><text fill="#000000" font-family="sans-serif" font-size="13" lengthAdjust="spacing" textLength="22.7119" x="133.7611" y="532.8963">0..*</text><text fill="#000000" font-family="sans-serif" font-size="13" lengthAdjust="spacing" textLength="8.2202" x="105.4854" y="578.7014">1</text></g><!--link Customer to Reservation--><g class="link" data-entity-1="ent0004" data-entity-2="ent0005" data-link-type="association" data-source-line="37" id="lnk11"><path codeLine="37" d="M82.39,71.94 C82.39,94.24 82.39,124.24 82.39,148.16" fill="none" id="Customer-Reservation" style="stroke:#181818;stroke-width:1;"/><text fill="#000000" font-family="sans-serif" font-size="13" lengthAdjust="spacing" textLength="40.7837" x="83.39" y="115.0584">makes</text><text fill="#000000" font-family="sans-serif" font-size="13" lengthAdjust="spacing" textLength="8.2202" x="73.6729" y="91.9481">1</text><text fill="#000000" font-family="sans-serif" font-size="13" lengthAdjust="spacing" textLength="22.7119" x="58.6274" y="137.7514">0..*</text></g><!--link Reservation to VehicleClass--><g class="link" data-entity-1="ent0005" data-entity-2="ent0003" data-link-type="association" data-source-line="38" id="lnk12"><path codeLine="38" d="M82.39,229.71 C82.39,313.07 82.39,505.42 82.39,588.98" fill="none" id="Reservation-VehicleClass" style="stroke:#181818;stroke-width:1;"/><text fill="#000000" font-family="sans-serif" font-size="13" lengthAdjust="spacing" textLength="18.0845" x="83.39" y="414.5284">for</text><text fill="#000000" font-family="sans-serif" font-size="13" lengthAdjust="spacing" textLength="8.2202" x="73.7703" y="249.99">1</text><text fill="#000000" font-family="sans-serif" font-size="13" lengthAdjust="spacing" textLength="8.2202" x="73.7455" y="578.5498">1</text></g><!--link Reservation to RentalContract--><g class="link" data-entity-1="ent0005" data-entity-2="ent0006" data-link-type="association" data-source-line="39" id="lnk13"><path codeLine="39" d="M146.87,224.24 C193.38,248.96 255.71,282.08 301.01,306.15" fill="none" id="Reservation-RentalContract" style="stroke:#181818;stroke-width:1;"/><text fill="#000000" font-family="sans-serif" font-size="13" lengthAdjust="spacing" textLength="45.1318" x="239.04" y="273.0384">creates</text><text fill="#000000" font-family="sans-serif" font-size="13" lengthAdjust="spacing" textLength="8.2202" x="154.8009" y="225.0363">1</text><text fill="#000000" font-family="sans-serif" font-size="13" lengthAdjust="spacing" textLength="24.667" x="262.3573" y="295.4872">0..1</text></g><!--link RentalContract to Vehicle--><g class="link" data-entity-1="ent0006" data-entity-2="ent0002" data-link-type="association" data-source-line="40" id="lnk14"><path codeLine="40" d="M327.89,371.35 C312.2,386.08 292.81,403.5 274.39,417.96 C261.36,428.18 246.67,438.53 232.96,447.74" fill="none" id="RentalContract-Vehicle" style="stroke:#181818;stroke-width:1;"/><text fill="#000000" font-family="sans-serif" font-size="13" lengthAdjust="spacing" textLength="46.9917" x="295.06" y="414.5284">assigns</text><text fill="#000000" font-family="sans-serif" font-size="13" lengthAdjust="spacing" textLength="8.2202" x="312.9538" y="391.5989">1</text><text fill="#000000" font-family="sans-serif" font-size="13" lengthAdjust="spacing" textLength="8.2202" x="234.3804" y="437.0978">1</text></g><!--link RentalContract to InsuranceOption--><g class="link" data-entity-1="ent0006" data-entity-2="ent0007" data-link-type="association" data-source-line="41" id="lnk15"><path codeLine="41" d="M410.09,371.36 C445.93,394.19 494.1,424.87 529.89,447.67" fill="none" id="RentalContract-InsuranceOption" style="stroke:#181818;stroke-width:1;"/><text fill="#000000" font-family="sans-serif" font-size="13" lengthAdjust="spacing" textLength="52.3618" x="484" y="414.5284">includes</text><text fill="#000000" font-family="sans-serif" font-size="13" lengthAdjust="spacing" textLength="22.7119" x="395.5357" y="391.6108">0..*</text><text fill="#000000" font-family="sans-serif" font-size="13" lengthAdjust="spacing" textLength="22.7119" x="495.4848" y="437.0133">0..*</text></g><!--reverse link RentalContract to Invoice--><g class="link" data-entity-1="ent0006" data-entity-2="ent0008" data-link-type="composition" data-source-line="42" id="lnk16"><path codeLine="42" d="M373.0838,382.873 C379.7938,405.703 385.42,424.87 392.12,447.67" fill="none" id="RentalContract-backto-Invoice" style="stroke:#181818;stroke-width:1;"/><polygon fill="#181818" points="369.7,371.36,367.5542,378.2445,373.0838,382.873,375.2296,375.9886,369.7,371.36" style="stroke:#181818;stroke-width:1;stroke-linejoin:miter;stroke-miterlimit:10;"/><text fill="#000000" font-family="sans-serif" font-size="13" lengthAdjust="spacing" textLength="21.874" x="384.35" y="414.5284">has</text><text fill="#000000" font-family="sans-serif" font-size="13" lengthAdjust="spacing" textLength="8.2202" x="362.7338" y="391.6108">1</text><text fill="#000000" font-family="sans-serif" font-size="13" lengthAdjust="spacing" textLength="8.2202" x="381.4051" y="437.0133">1</text></g><?plantuml-src VP4nJyCm48Nt_8fJng1MTFK6xT89L2JsmpaI2-UCx4ibXFZlE77Jf4bWiUppzzxvdhN54E3H8-iQlZE0EyQ65Bo8DrnbFrccU-ALQgCj9SGQJHpesQByZUxxmz8odaiqzklKYm-aJODsLE_R8AuX_zzZJXJ8dr6CuuG5GI-7P1ZNhaHSJWeJAGlQlMFng2MfjQV8b0yoXuySsYuPUleSUwq_wSXd5rD923QkPRaPxf9mlikXs6mWlzzkY_oQgeBeOIgc4iwf5BBXxe9sebr-6ww2DxAEgm3Yicjm7JQsc6QbeC6FQ3sj3VJI-ztvLJBwxl9va0fIYftvpSNI_phjaXr7JRlv1oWmh6rRhhSfBds6lr1GO_W5?></g></svg>