<svg xmlns="http://www.w3.org/2000/svg" xmlns:xlink="http://www.w3.org/1999/xlink" contentStyleType="text/css" data-diagram-type="CLASS" height="494px" preserveAspectRatio="none" style="width:309px;height:494px;background:#FFFFFF;" version="1.1" viewBox="0 0 309 494" width="309px" zoomAndPan="magnify"><?plantuml 1.2026.6?><defs/><g><!--class Film--><g class="entity" data-qualified-name="Film" data-source-line="1" id="ent0001"><rect fill="#F1F1F1" height="48" rx="2.5" ry="2.5" style="stroke:#181818;stroke-width:0.5;" width="60.6699" x="7" y="273.48"/><ellipse cx="22" cy="289.48" fill="#ADD1B2" rx="11" ry="11" style="stroke:#181818;stroke-width:1;"/><path d="M24.4731,295.6231 Q23.8921,295.9219 23.2529,296.0713 Q22.6138,296.2207 21.9082,296.2207 Q19.4014,296.2207 18.0815,294.5689 Q16.7617,292.917 16.7617,289.7959 Q16.7617,286.6665 18.0815,285.0147 Q19.4014,283.3628 21.9082,283.3628 Q22.6138,283.3628 23.2612,283.5122 Q23.9087,283.6616 24.4731,283.9605 L24.4731,286.6831 Q23.8423,286.1021 23.2488,285.8323 Q22.6553,285.5625 22.0244,285.5625 Q20.6797,285.5625 19.9949,286.6292 Q19.3101,287.6958 19.3101,289.7959 Q19.3101,291.8877 19.9949,292.9544 Q20.6797,294.021 22.0244,294.021 Q22.6553,294.021 23.2488,293.7512 Q23.8423,293.4815 24.4731,292.9004 Z " fill="#000000"/><text fill="#000000" font-family="sans-serif" font-size="14" lengthAdjust="spacing" textLength="28.6699" x="36" y="294.771">Film</text><line style="stroke:#181818;stroke-width:0.5;" x1="8" x2="66.6699" y1="305.48" y2="305.48"/><line style="stroke:#181818;stroke-width:0.5;" x1="8" x2="66.6699" y1="313.48" y2="313.48"/></g><!--class Screening--><g class="entity" data-qualified-name="Screening" data-source-line="4" id="ent0002"><rect fill="#F1F1F1" height="64.4883" rx="2.5" ry="2.5" style="stroke:#181818;stroke-width:0.5;" width="164.7217" x="46.97" y="132"/><ellipse cx="91.9846" cy="148" fill="#ADD1B2" rx="11" ry="11" style="stroke:#181818;stroke-width:1;"/><path d="M94.4578,154.1431 Q93.8767,154.4419 93.2376,154.5913 Q92.5984,154.7407 91.8929,154.7407 Q89.386,154.7407 88.0662,153.0889 Q86.7464,151.437 86.7464,148.3159 Q86.7464,145.1865 88.0662,143.5347 Q89.386,141.8828 91.8929,141.8828 Q92.5984,141.8828 93.2459,142.0322 Q93.8933,142.1816 94.4578,142.4805 L94.4578,145.2031 Q93.8269,144.6221 93.2334,144.3523 Q92.6399,144.0825 92.0091,144.0825 Q90.6643,144.0825 89.9795,145.1492 Q89.2947,146.2158 89.2947,148.3159 Q89.2947,150.4077 89.9795,151.4744 Q90.6643,152.541 92.0091,152.541 Q92.6399,152.541 93.2334,152.2712 Q93.8269,152.0015 94.4578,151.4204 Z " fill="#000000"/><text fill="#000000" font-family="sans-serif" font-size="14" lengthAdjust="spacing" textLength="66.1924" x="112.4846" y="153.291">Screening</text><line style="stroke:#181818;stroke-width:0.5;" x1="47.97" x2="210.6917" y1="164" y2="164"/><g data-visibility-modifier="PUBLIC_FIELD"><ellipse cx="57.97" cy="177.7441" fill="none" rx="3" ry="3" style="stroke:#038048;stroke-width:1;"/></g><text fill="#000000" font-family="sans-serif" font-size="14" lengthAdjust="spacing" textLength="138.7217" x="66.97" y="181.5352">startTime: DateTime</text><line style="stroke:#181818;stroke-width:0.5;" x1="47.97" x2="210.6917" y1="188.4883" y2="188.4883"/></g><!--class Auditorium--><g class="entity" data-qualified-name="Auditorium" data-source-line="8" id="ent0003"><rect fill="#F1F1F1" height="48" rx="2.5" ry="2.5" style="stroke:#181818;stroke-width:0.5;" width="108.5762" x="103.05" y="273.48"/><ellipse cx="118.05" cy="289.48" fill="#ADD1B2" rx="11" ry="11" style="stroke:#181818;stroke-width:1;"/><path d="M120.5231,295.6231 Q119.9421,295.9219 119.3029,296.0713 Q118.6638,296.2207 117.9582,296.2207 Q115.4514,296.2207 114.1315,294.5689 Q112.8117,292.917 112.8117,289.7959 Q112.8117,286.6665 114.1315,285.0147 Q115.4514,283.3628 117.9582,283.3628 Q118.6638,283.3628 119.3112,283.5122 Q119.9587,283.6616 120.5231,283.9605 L120.5231,286.6831 Q119.8923,286.1021 119.2988,285.8323 Q118.7053,285.5625 118.0744,285.5625 Q116.7297,285.5625 116.0449,286.6292 Q115.3601,287.6958 115.3601,289.7959 Q115.3601,291.8877 116.0449,292.9544 Q116.7297,294.021 118.0744,294.021 Q118.7053,294.021 119.2988,293.7512 Q119.8923,293.4815 120.5231,292.9004 Z " fill="#000000"/><text fill="#000000" font-family="sans-serif" font-size="14" lengthAdjust="spacing" textLength="76.5762" x="132.05" y="294.771">Auditorium</text><line style="stroke:#181818;stroke-width:0.5;" x1="104.05" x2="210.6262" y1="305.48" y2="305.48"/><line style="stroke:#181818;stroke-width:0.5;" x1="104.05" x2="210.6262" y1="313.48" y2="313.48"/></g><!--class Seat--><g class="entity" data-qualified-name="Seat" data-source-line="11" id="ent0004"><rect fill="#F1F1F1" height="80.9766" rx="2.5" ry="2.5" style="stroke:#181818;stroke-width:0.5;" width="135.1631" x="142.75" y="398.48"/><ellipse cx="191.9277" cy="414.48" fill="#ADD1B2" rx="11" ry="11" style="stroke:#181818;stroke-width:1;"/><path d="M194.4009,420.6231 Q193.8198,420.9219 193.1807,421.0713 Q192.5415,421.2207 191.8359,421.2207 Q189.3291,421.2207 188.0093,419.5689 Q186.6895,417.917 186.6895,414.7959 Q186.6895,411.6665 188.0093,410.0147 Q189.3291,408.3628 191.8359,408.3628 Q192.5415,408.3628 193.189,408.5122 Q193.8364,408.6616 194.4009,408.9605 L194.4009,411.6831 Q193.77,411.1021 193.1765,410.8323 Q192.583,410.5625 191.9521,410.5625 Q190.6074,410.5625 189.9226,411.6292 Q189.2378,412.6958 189.2378,414.7959 Q189.2378,416.8877 189.9226,417.9544 Q190.6074,419.021 191.9521,419.021 Q192.583,419.021 193.1765,418.7512 Q193.77,418.4815 194.4009,417.9004 Z " fill="#000000"/><text fill="#000000" font-family="sans-serif" font-size="14" lengthAdjust="spacing" textLength="28.3076" x="212.4277" y="419.771">Seat</text><line style="stroke:#181818;stroke-width:0.5;" x1="143.75" x2="276.9131" y1="430.48" y2="430.48"/><g data-visibility-modifier="PUBLIC_FIELD"><ellipse cx="153.75" cy="444.2241" fill="none" rx="3" ry="3" style="stroke:#038048;stroke-width:1;"/></g><text fill="#000000" font-family="sans-serif" font-size="14" lengthAdjust="spacing" textLength="51.9326" x="162.75" y="448.0152">row: Int</text><g data-visibility-modifier="PUBLIC_FIELD"><ellipse cx="153.75" cy="460.7124" fill="none" rx="3" ry="3" style="stroke:#038048;stroke-width:1;"/></g><text fill="#000000" font-family="sans-serif" font-size="14" lengthAdjust="spacing" textLength="109.1631" x="162.75" y="464.5034">seatNumber: Int</text><line style="stroke:#181818;stroke-width:0.5;" x1="143.75" x2="276.9131" y1="471.4566" y2="471.4566"/></g><!--class Ticket--><g class="entity" data-qualified-name="Ticket" data-source-line="16" id="ent0005"><rect fill="#F1F1F1" height="48" rx="2.5" ry="2.5" style="stroke:#181818;stroke-width:0.5;" width="73.2891" x="159.69" y="7"/><ellipse cx="174.69" cy="23" fill="#ADD1B2" rx="11" ry="11" style="stroke:#181818;stroke-width:1;"/><path d="M177.1631,29.1431 Q176.5821,29.4419 175.9429,29.5913 Q175.3038,29.7407 174.5982,29.7407 Q172.0914,29.7407 170.7715,28.0889 Q169.4517,26.437 169.4517,23.3159 Q169.4517,20.1865 170.7715,18.5347 Q172.0914,16.8828 174.5982,16.8828 Q175.3038,16.8828 175.9512,17.0322 Q176.5987,17.1816 177.1631,17.4805 L177.1631,20.2031 Q176.5323,19.6221 175.9388,19.3523 Q175.3453,19.0825 174.7144,19.0825 Q173.3697,19.0825 172.6849,20.1492 Q172.0001,21.2158 172.0001,23.3159 Q172.0001,25.4077 172.6849,26.4744 Q173.3697,27.541 174.7144,27.541 Q175.3453,27.541 175.9388,27.2712 Q176.5323,27.0015 177.1631,26.4204 Z " fill="#000000"/><text fill="#000000" font-family="sans-serif" font-size="14" lengthAdjust="spacing" textLength="41.2891" x="188.69" y="28.291">Ticket</text><line style="stroke:#181818;stroke-width:0.5;" x1="160.69" x2="231.9791" y1="39" y2="39"/><line style="stroke:#181818;stroke-width:0.5;" x1="160.69" x2="231.9791" y1="47" y2="47"/></g><!--link Screening to Film--><g class="link" data-entity-1="ent0002" data-entity-2="ent0001" data-link-type="dependency" data-source-line="19" id="lnk6"><path codeLine="19" d="M107.3,196.68 C90.82,220.18 71.5199,247.7156 56.5899,269.0156" fill="none" id="Screening-to-Film" style="stroke:#181818;stroke-width:1;"/><polygon fill="#181818" points="53.72,273.11,62.1613,268.0361,56.5899,269.0156,55.6103,263.4443,53.72,273.11" style="stroke:#181818;stroke-width:1;stroke-linejoin:miter;stroke-miterlimit:10;"/><text fill="#000000" font-family="sans-serif" font-size="13" lengthAdjust="spacing" textLength="39.3237" x="87.09" y="240.0484">shows</text><text fill="#000000" font-family="sans-serif" font-size="13" lengthAdjust="spacing" textLength="22.7119" x="78.8671" y="217.1413">0..*</text><text fill="#000000" font-family="sans-serif" font-size="13" lengthAdjust="spacing" textLength="8.2202" x="48.9219" y="262.5515">1</text></g><!--link Screening to Auditorium--><g class="link" data-entity-1="ent0002" data-entity-2="ent0003" data-link-type="dependency" data-source-line="20" id="lnk7"><path codeLine="20" d="M133.73,196.61 C135.95,210.97 138.91,228.16 142.33,243.48 C144.53,253.28 146.0536,259.1589 148.7236,268.3389" fill="none" id="Screening-to-Auditorium" style="stroke:#181818;stroke-width:1;"/><polygon fill="#181818" points="150.12,273.14,151.4473,263.381,148.7236,268.3389,143.7657,265.6152,150.12,273.14" style="stroke:#181818;stroke-width:1;stroke-linejoin:miter;stroke-miterlimit:10;"/><text fill="#000000" font-family="sans-serif" font-size="13" lengthAdjust="spacing" textLength="77.3462" x="143.33" y="240.0484">takesPlaceIn</text><text fill="#000000" font-family="sans-serif" font-size="13" lengthAdjust="spacing" textLength="22.7119" x="110.5005" y="217.0575">0..*</text><text fill="#000000" font-family="sans-serif" font-size="13" lengthAdjust="spacing" textLength="8.2202" x="139.2736" y="262.5891">1</text></g><!--reverse link Auditorium to Seat--><g class="link" data-entity-1="ent0003" data-entity-2="ent0004" data-link-type="composition" data-source-line="21" id="lnk8"><path codeLine="21" d="M170.4678,333.0492 C178.3578,353.8392 185.82,373.46 195.2,398.14" fill="none" id="Auditorium-backto-Seat" style="stroke:#181818;stroke-width:1;"/><polygon fill="#181818" points="166.21,321.83,164.5992,328.8589,170.4678,333.0492,172.0786,326.0203,166.21,321.83" style="stroke:#181818;stroke-width:1;stroke-linejoin:miter;stroke-miterlimit:10;"/><text fill="#000000" font-family="sans-serif" font-size="13" lengthAdjust="spacing" textLength="32.5381" x="184.83" y="365.0484">seats</text><text fill="#000000" font-family="sans-serif" font-size="13" lengthAdjust="spacing" textLength="8.2202" x="159.4244" y="342.1996">1</text><text fill="#000000" font-family="sans-serif" font-size="13" lengthAdjust="spacing" textLength="22.7119" x="168.9309" y="387.7297">0..*</text></g><!--link Ticket to Screening--><g class="link" data-entity-1="ent0005" data-entity-2="ent0002" data-link-type="dependency" data-source-line="22" id="lnk9"><path codeLine="22" d="M184.36,55.46 C173.52,76.69 159.7332,103.6866 147.7632,127.1366" fill="none" id="Ticket-to-Screening" style="stroke:#181818;stroke-width:1;"/><polygon fill="#181818" points="145.49,131.59,153.1445,125.3925,147.7632,127.1366,146.0191,121.7554,145.49,131.59" style="stroke:#181818;stroke-width:1;stroke-linejoin:miter;stroke-miterlimit:10;"/><text fill="#000000" font-family="sans-serif" font-size="13" lengthAdjust="spacing" textLength="66.1743" x="169.84" y="98.5684">belongsTo</text><text fill="#000000" font-family="sans-serif" font-size="13" lengthAdjust="spacing" textLength="22.7119" x="157.1295" y="75.455">0..*</text><text fill="#000000" font-family="sans-serif" font-size="13" lengthAdjust="spacing" textLength="8.2202" x="139.9055" y="121.2836">1</text></g><!--link Ticket to Seat--><g class="link" data-entity-1="ent0005" data-entity-2="ent0004" data-link-type="dependency" data-source-line="23" id="lnk10"><path codeLine="23" d="M222.99,55.39 C230.75,63.85 238.24,74.04 242.33,85 C244.98,92.07 242.56,94.44 242.33,102 C238.83,220.6 243.48,251.08 226.33,368.48 C224.92,378.16 223.9618,383.6029 221.7818,393.2529" fill="none" id="Ticket-to-Seat" style="stroke:#181818;stroke-width:1;"/><polygon fill="#181818" points="220.68,398.13,226.5649,390.2326,221.7818,393.2529,218.7615,388.4698,220.68,398.13" style="stroke:#181818;stroke-width:1;stroke-linejoin:miter;stroke-miterlimit:10;"/><text fill="#000000" font-family="sans-serif" font-size="13" lengthAdjust="spacing" textLength="52.3491" x="240.75" y="240.0484">reserves</text><text fill="#000000" font-family="sans-serif" font-size="13" lengthAdjust="spacing" textLength="22.7119" x="204.6926" y="75.3688">0..*</text><text fill="#000000" font-family="sans-serif" font-size="13" lengthAdjust="spacing" textLength="8.2202" x="213.7497" y="387.718">1</text></g><?plantuml-src TOv12i8m44NtESNGPIL5jra8WWXkHB0NIEDGGzC4CgbTY7StRTHMeQiaFs_UV6Ka4HoqQU71deofyNrH7j5gMySGO4L1-b3g5WNiPS3XDh6xxgg3yxhxDQ0CQTYxNi3HXb4KqrFNLkXJzCLBhHeCIJ0jpzP5aMV0-HQoJPPQ2g2RwscPclKH46I3T3PIuT6osSy0vfn_PiUsqHmFOkykVzffdu0AZRCrbMw9JJgFXFwEz080?></g></svg>