<?xml version="1.0" encoding="UTF-8"?>
<!-- kUML SVG · theme: kUML · engine: elk.layered -->
<svg xmlns="http://www.w3.org/2000/svg"
     viewBox="0 0 1338.83 1037"
     width="1338.83"
     height="1037">
  <defs>
  <style>
    .kuml-class { fill: #F8F5F0; stroke: #1D2B4F; stroke-width: 1.5; }
.kuml-interface { fill: #F8F5F0; stroke: #1D2B4F; stroke-width: 1.5; }
.kuml-enum { fill: #F8F5F0; stroke: #1D2B4F; stroke-width: 1.5; }
.kuml-component { fill: #F8F5F0; stroke: #1D2B4F; stroke-width: 1.5; }
.kuml-state { fill: #F8F5F0; stroke: #1D2B4F; stroke-width: 1.5; }
.kuml-usecase { fill: #F8F5F0; stroke: #1D2B4F; stroke-width: 1.5; }
.kuml-system { fill: #F8F5F0; stroke: #1D2B4F; stroke-width: 2.5; }
.kuml-container { fill: #F8F5F0; stroke: #1D2B4F; stroke-width: 1.0; }
.kuml-c4component { fill: #F8F5F0; stroke: #1D2B4F; stroke-width: 1.0; }
.kuml-instance { fill: #F8F5F0; stroke: #1D2B4F; stroke-width: 1.5; }
.kuml-comment { fill: #F8F5F0; stroke: #1D2B4F; stroke-width: 1.5; }
.kuml-comment-fold { fill: none; stroke: #1D2B4F; stroke-width: 1.0; }
.kuml-title { font-family: Geist, Inter, system-ui, sans-serif; font-size: 14.0px; font-weight: 700; fill: #0D1525; }
.kuml-title-abstract { font-style: italic; }
.kuml-subtitle { font-family: Geist, Inter, system-ui, sans-serif; font-size: 12.0px; font-weight: 600; fill: #0D1525; }
.kuml-body { font-family: Geist, Inter, system-ui, sans-serif; font-size: 11.0px; fill: #0D1525; }
.kuml-small { font-family: Geist, Inter, system-ui, sans-serif; font-size: 9.0px; fill: #6B7A99; }
.kuml-small-halo { font-family: Geist, Inter, system-ui, sans-serif; font-size: 9.0px; fill: #FFFFFF; stroke: #FFFFFF; stroke-width: 3px; stroke-linejoin: round; }
.kuml-edge-label { font-family: Geist, Inter, system-ui, sans-serif; font-size: 9.0px; fill: #6B7A99; }
.kuml-edge-label-halo { font-family: Geist, Inter, system-ui, sans-serif; font-size: 9.0px; fill: #FFFFFF; stroke: #FFFFFF; stroke-width: 3px; stroke-linejoin: round; }
.kuml-stereotype { font-family: Geist, Inter, system-ui, sans-serif; font-size: 10.0px; font-style: italic; fill: #6B7A99; }
.kuml-tagged-value { font-family: Geist, Inter, system-ui, sans-serif; font-size: 9.0px; font-style: italic; fill: #6B7A99; }
.kuml-edge { stroke: #1D2B4F; stroke-width: 1.5; fill: none; }
.kuml-seq-arrow-filled { stroke: #1D2B4F; stroke-width: 1.5; fill: #1D2B4F; }
.kuml-edge-dashed { stroke: #6B7A99; stroke-width: 1.5; fill: none; stroke-dasharray: 8 4; }
.kuml-divider { stroke: #1D2B4F; stroke-width: 1.0; }
.kuml-actor { stroke: #0D1525; stroke-width: 1.5; fill: none; }
.kuml-frame { fill: none; stroke: #1D2B4F; stroke-width: 1.5; }
.kuml-collaboration { fill: none; stroke: #1D2B4F; stroke-width: 1.5; }
.kuml-port { fill: #0D1525; stroke: #1D2B4F; stroke-width: 1.0; }
.kuml-port-label { font-family: Geist, Inter, system-ui, sans-serif; font-size: 9.0px; fill: #0D1525; }
.kuml-port-label-halo { font-family: Geist, Inter, system-ui, sans-serif; font-size: 9.0px; fill: none; stroke: #FFFFFF; stroke-width: 3.5px; stroke-linejoin: round; }
.kuml-connector { fill: none; stroke: #1D2B4F; stroke-width: 1.5; }
.kuml-connector-label { font-family: Geist, Inter, system-ui, sans-serif; font-size: 9.0px; fill: #0D1525; }
.kuml-action { fill: #F8F5F0; stroke: #1D2B4F; stroke-width: 1.5; }
.kuml-decision { fill: #F8F5F0; stroke: #1D2B4F; stroke-width: 1.5; }
.kuml-fork-bar { fill: #0D1525; stroke: #0D1525; stroke-width: 1.5; }
.kuml-pseudostate { fill: #0D1525; stroke: #0D1525; stroke-width: 1.5; }
.kuml-final-outer { fill: #F8F5F0; stroke: #1D2B4F; stroke-width: 1.5; }
.kuml-node { fill: #F8F5F0; stroke: #1D2B4F; stroke-width: 1.5; }
.kuml-node-top { fill: #6B7A99; stroke: #1D2B4F; stroke-width: 1.5; }
.kuml-node-side { fill: #6B7A99; stroke: #1D2B4F; stroke-width: 1.5; }
.kuml-artifact { fill: #F8F5F0; stroke: #1D2B4F; stroke-width: 1.5; }
.kuml-artifact-ear { fill: #6B7A99; stroke: #1D2B4F; stroke-width: 1.5; }
.kuml-stereotype-box { fill: #F8F5F0; stroke: #1D2B4F; stroke-width: 1.5; }
.kuml-timing-frame { fill: #F8F5F0; stroke: #1D2B4F; stroke-width: 1.5; }
.kuml-timing-line { stroke: #1D2B4F; stroke-width: 1.5; fill: none; }

  </style>
  </defs>
  <rect x="0" y="0" width="1338.83" height="1037" fill="#FFFFFF"/>
  <g id="nodes">
    <g id="kuml-diagram-frame">
      <rect x="2" y="2" width="1334.83" height="1033" rx="6" ry="6" class="kuml-frame"/>
      <text class="kuml-small" x="8" y="13">
        class: University
      </text>
    </g>
    <g id="Person" transform="translate(1062.83,372)">
      <rect width="188" height="90" class="kuml-class"/>
      <text class="kuml-stereotype" x="94" y="18" text-anchor="middle">
        «abstract»
      </text>
      <text class="kuml-title" x="94" y="32" text-anchor="middle">
        Person
      </text>
      <line x1="0" y1="38" x2="188" y2="38" class="kuml-divider"/>
      <text class="kuml-body" x="5" y="52">
        - firstName: String
      </text>
      <text class="kuml-body" x="5" y="65">
        - lastName: String
      </text>
    </g>
    <g id="Student" transform="translate(878.83,202)">
      <rect width="202" height="80" class="kuml-class"/>
      <text class="kuml-title" x="101" y="18" text-anchor="middle">
        Student
      </text>
    </g>
    <g id="Professor" transform="translate(1120.83,202)">
      <rect width="202" height="80" class="kuml-class"/>
      <text class="kuml-title" x="101" y="18" text-anchor="middle">
        Professor
      </text>
    </g>
    <g id="Faculty" transform="translate(191.50,32)">
      <rect width="188" height="80" class="kuml-class"/>
      <text class="kuml-title" x="94" y="18" text-anchor="middle">
        Faculty
      </text>
      <line x1="0" y1="24" x2="188" y2="24" class="kuml-divider"/>
      <text class="kuml-body" x="5" y="38">
        - name: String
      </text>
    </g>
    <g id="DegreeProgram" transform="translate(153.17,202)">
      <rect width="202" height="80" class="kuml-class"/>
      <text class="kuml-title" x="101" y="18" text-anchor="middle">
        DegreeProgram
      </text>
      <line x1="0" y1="24" x2="202" y2="24" class="kuml-divider"/>
      <text class="kuml-body" x="5" y="38">
        - title: String
      </text>
    </g>
    <g id="ExaminableContract" transform="translate(32,552)">
      <rect width="269" height="80" class="kuml-interface"/>
      <text class="kuml-stereotype" x="134.50" y="18" text-anchor="middle">
        «interface»
      </text>
      <text class="kuml-title" x="134.50" y="32" text-anchor="middle">
        ExaminableContract
      </text>
      <line x1="0" y1="38" x2="269" y2="38" class="kuml-divider"/>
      <text class="kuml-body" x="8" y="52">
        + examinationRequirements(): String
      </text>
    </g>
    <g id="Module" transform="translate(112.50,379.50)">
      <rect width="216" height="80" class="kuml-class"/>
      <text class="kuml-title" x="108" y="18" text-anchor="middle">
        Module
      </text>
      <line x1="0" y1="24" x2="216" y2="24" class="kuml-divider"/>
      <text class="kuml-body" x="5" y="38">
        - name: String
      </text>
    </g>
    <g id="Course" transform="translate(569,552)">
      <rect width="202" height="80" class="kuml-class"/>
      <text class="kuml-title" x="101" y="18" text-anchor="middle">
        Course
      </text>
      <line x1="0" y1="24" x2="202" y2="24" class="kuml-divider"/>
      <text class="kuml-body" x="5" y="38">
        - title: String
      </text>
    </g>
    <g id="Semester" transform="translate(582,382)">
      <rect width="176" height="80" class="kuml-class"/>
      <text class="kuml-title" x="88" y="18" text-anchor="middle">
        Semester
      </text>
      <line x1="0" y1="24" x2="176" y2="24" class="kuml-divider"/>
      <text class="kuml-body" x="5" y="38">
        - designation: String
      </text>
    </g>
    <g id="Enrollment" transform="translate(798,372)">
      <rect width="197" height="80" class="kuml-class"/>
      <text class="kuml-title" x="98.50" y="18" text-anchor="middle">
        Enrollment
      </text>
      <line x1="0" y1="24" x2="197" y2="24" class="kuml-divider"/>
      <text class="kuml-body" x="5" y="38">
        - enrollmentDate: Date
      </text>
    </g>
    <g id="ExaminationPerformance" transform="translate(351.67,722)">
      <rect width="250" height="80" class="kuml-class"/>
      <text class="kuml-title" x="125" y="18" text-anchor="middle">
        ExaminationPerformance
      </text>
      <line x1="0" y1="24" x2="250" y2="24" class="kuml-divider"/>
      <text class="kuml-body" x="5" y="38">
        - date: Date
      </text>
    </g>
    <g id="GradeLevel" transform="translate(389.67,892)">
      <rect width="174" height="129" class="kuml-enum"/>
      <text class="kuml-stereotype" x="87" y="18" text-anchor="middle">
        «enumeration»
      </text>
      <text class="kuml-title" x="87" y="32" text-anchor="middle">
        GradeLevel
      </text>
      <line x1="0" y1="38" x2="174" y2="38" class="kuml-divider"/>
      <text class="kuml-body" x="8" y="52">
        EXCELLENT
      </text>
      <text class="kuml-body" x="8" y="65">
        GOOD
      </text>
      <text class="kuml-body" x="8" y="78">
        SATISFACTORY
      </text>
      <text class="kuml-body" x="8" y="91">
        SUFFICIENT
      </text>
      <text class="kuml-body" x="8" y="104">
        FAILED
      </text>
    </g>
    <g id="Exam" transform="translate(341,552)">
      <rect width="188" height="80" class="kuml-class"/>
      <text class="kuml-title" x="94" y="18" text-anchor="middle">
        Exam
      </text>
      <line x1="0" y1="24" x2="188" y2="24" class="kuml-divider"/>
      <text class="kuml-body" x="5" y="38">
        - date: Date
      </text>
    </g>
  </g>
  <g id="edges">
    <path d="M 1030.33 282 L 1030.33 312 L 1125.50 312 L 1125.50 372" class="kuml-edge"/>
    <polygon points="1125.50,372 1120.50,360 1130.50,360" style="stroke:#1D2B4F;stroke-width:1.5;fill:#FFFFFF;stroke-linejoin:round;"/>
    <line x1="1188.17" y1="282" x2="1188.17" y2="372" class="kuml-edge"/>
    <polygon points="1188.17,372 1183.17,360 1193.17,360" style="stroke:#1D2B4F;stroke-width:1.5;fill:#FFFFFF;stroke-linejoin:round;"/>
    <line x1="166.50" y1="459.50" x2="166.50" y2="552" class="kuml-edge-dashed"/>
    <polygon points="166.50,552 161.50,540 171.50,540" style="stroke:#6B7A99;stroke-width:1.5;fill:#FFFFFF;stroke-linejoin:round;"/>
    <line x1="254.17" y1="112" x2="254.17" y2="202" class="kuml-edge"/>
    <path d="M 249.17,190 L 254.17,202 L 259.17,190" style="stroke:#1D2B4F;stroke-width:1.5;fill:none;stroke-linejoin:round;"/>
    <polygon points="254.17,112 259.17,120 254.17,128 249.17,120" style="stroke:#1D2B4F;stroke-width:1.5;fill:#1D2B4F;stroke-linejoin:round;"/>
    <text class="kuml-small-halo" x="244.17" y="188" text-anchor="middle">
      0..*
    </text>
    <text class="kuml-small" x="244.17" y="188" text-anchor="middle">
      0..*
    </text>
    <text class="kuml-small-halo" x="264.17" y="172" text-anchor="middle">
      degreePrograms
    </text>
    <text class="kuml-small" x="264.17" y="172" text-anchor="middle">
      degreePrograms
    </text>
    <path d="M 316.83 112 L 316.83 142 L 1221.83 142 L 1221.83 202" class="kuml-edge"/>
    <path d="M 1216.83,190 L 1221.83,202 L 1226.83,190" style="stroke:#1D2B4F;stroke-width:1.5;fill:none;stroke-linejoin:round;"/>
    <polygon points="316.83,112 321.83,120 316.83,128 311.83,120" style="stroke:#1D2B4F;stroke-width:1.5;fill:#1D2B4F;stroke-linejoin:round;"/>
    <text class="kuml-small-halo" x="1211.83" y="188" text-anchor="middle">
      0..*
    </text>
    <text class="kuml-small" x="1211.83" y="188" text-anchor="middle">
      0..*
    </text>
    <text class="kuml-small-halo" x="1231.83" y="172" text-anchor="middle">
      professors
    </text>
    <text class="kuml-small" x="1231.83" y="172" text-anchor="middle">
      professors
    </text>
    <line x1="220.50" y1="282" x2="220.50" y2="379.50" class="kuml-edge"/>
    <path d="M 215.50,367.50 L 220.50,379.50 L 225.50,367.50" style="stroke:#1D2B4F;stroke-width:1.5;fill:none;stroke-linejoin:round;"/>
    <polygon points="220.50,282 225.50,290 220.50,298 215.50,290" style="stroke:#1D2B4F;stroke-width:1.5;fill:#FFFFFF;stroke-linejoin:round;"/>
    <text class="kuml-small-halo" x="210.50" y="296" text-anchor="middle">
      0..*
    </text>
    <text class="kuml-small" x="210.50" y="296" text-anchor="middle">
      0..*
    </text>
    <text class="kuml-small-halo" x="230.50" y="312" text-anchor="middle">
      programs
    </text>
    <text class="kuml-small" x="230.50" y="312" text-anchor="middle">
      programs
    </text>
    <text class="kuml-small-halo" x="210.50" y="365.50" text-anchor="middle">
      0..*
    </text>
    <text class="kuml-small" x="210.50" y="365.50" text-anchor="middle">
      0..*
    </text>
    <text class="kuml-small-halo" x="230.50" y="349.50" text-anchor="middle">
      modules
    </text>
    <text class="kuml-small" x="230.50" y="349.50" text-anchor="middle">
      modules
    </text>
    <path d="M 274.50 459.50 L 274.50 492 L 619.50 492 L 619.50 552" class="kuml-edge"/>
    <path d="M 614.50,540 L 619.50,552 L 624.50,540" style="stroke:#1D2B4F;stroke-width:1.5;fill:none;stroke-linejoin:round;"/>
    <polygon points="274.50,459.50 279.50,467.50 274.50,475.50 269.50,467.50" style="stroke:#1D2B4F;stroke-width:1.5;fill:#1D2B4F;stroke-linejoin:round;"/>
    <text class="kuml-small-halo" x="609.50" y="538" text-anchor="middle">
      0..*
    </text>
    <text class="kuml-small" x="609.50" y="538" text-anchor="middle">
      0..*
    </text>
    <text class="kuml-small-halo" x="629.50" y="522" text-anchor="middle">
      courses
    </text>
    <text class="kuml-small" x="629.50" y="522" text-anchor="middle">
      courses
    </text>
    <path d="M 1255.50 282 L 1255.50 312 L 1280.83 312 L 1280.83 492 L 720.50 492 L 720.50 552" class="kuml-edge"/>
    <path d="M 715.50,540 L 720.50,552 L 725.50,540" style="stroke:#1D2B4F;stroke-width:1.5;fill:none;stroke-linejoin:round;"/>
    <text class="kuml-small-halo" x="710.50" y="538" text-anchor="middle">
      0..*
    </text>
    <text class="kuml-small" x="710.50" y="538" text-anchor="middle">
      0..*
    </text>
    <text class="kuml-small-halo" x="730.50" y="522" text-anchor="middle">
      coursesTaught
    </text>
    <text class="kuml-small" x="730.50" y="522" text-anchor="middle">
      coursesTaught
    </text>
    <line x1="670" y1="462" x2="670" y2="552" class="kuml-edge"/>
    <path d="M 665,540 L 670,552 L 675,540" style="stroke:#1D2B4F;stroke-width:1.5;fill:none;stroke-linejoin:round;"/>
    <text class="kuml-small-halo" x="660" y="538" text-anchor="middle">
      0..*
    </text>
    <text class="kuml-small" x="660" y="538" text-anchor="middle">
      0..*
    </text>
    <text class="kuml-small-halo" x="680" y="522" text-anchor="middle">
      courses
    </text>
    <text class="kuml-small" x="680" y="522" text-anchor="middle">
      courses
    </text>
    <line x1="929.33" y1="282" x2="929.33" y2="372" class="kuml-edge"/>
    <path d="M 924.33,360 L 929.33,372 L 934.33,360" style="stroke:#1D2B4F;stroke-width:1.5;fill:none;stroke-linejoin:round;"/>
    <polygon points="929.33,282 934.33,290 929.33,298 924.33,290" style="stroke:#1D2B4F;stroke-width:1.5;fill:#1D2B4F;stroke-linejoin:round;"/>
    <text class="kuml-small-halo" x="919.33" y="358" text-anchor="middle">
      0..*
    </text>
    <text class="kuml-small" x="919.33" y="358" text-anchor="middle">
      0..*
    </text>
    <text class="kuml-small-halo" x="939.33" y="342" text-anchor="middle">
      enrollments
    </text>
    <text class="kuml-small" x="939.33" y="342" text-anchor="middle">
      enrollments
    </text>
    <path d="M 287.83 282 L 287.83 312 L 863.67 312 L 863.67 372" class="kuml-edge"/>
    <path d="M 858.67,360 L 863.67,372 L 868.67,360" style="stroke:#1D2B4F;stroke-width:1.5;fill:none;stroke-linejoin:round;"/>
    <text class="kuml-small-halo" x="853.67" y="358" text-anchor="middle">
      0..*
    </text>
    <text class="kuml-small" x="853.67" y="358" text-anchor="middle">
      0..*
    </text>
    <text class="kuml-small-halo" x="873.67" y="342" text-anchor="middle">
      enrollments
    </text>
    <text class="kuml-small" x="873.67" y="342" text-anchor="middle">
      enrollments
    </text>
    <path d="M 979.83 282 L 979.83 322 L 1025 322 L 1025 662 L 518.33 662 L 518.33 722" class="kuml-edge"/>
    <path d="M 513.33,710 L 518.33,722 L 523.33,710" style="stroke:#1D2B4F;stroke-width:1.5;fill:none;stroke-linejoin:round;"/>
    <polygon points="979.83,282 984.83,290 979.83,298 974.83,290" style="stroke:#1D2B4F;stroke-width:1.5;fill:#1D2B4F;stroke-linejoin:round;"/>
    <text class="kuml-small-halo" x="508.33" y="708" text-anchor="middle">
      0..*
    </text>
    <text class="kuml-small" x="508.33" y="708" text-anchor="middle">
      0..*
    </text>
    <text class="kuml-small-halo" x="528.33" y="692" text-anchor="middle">
      performances
    </text>
    <text class="kuml-small" x="528.33" y="692" text-anchor="middle">
      performances
    </text>
    <line x1="476.67" y1="802" x2="476.67" y2="892" class="kuml-edge"/>
    <path d="M 471.67,880 L 476.67,892 L 481.67,880" style="stroke:#1D2B4F;stroke-width:1.5;fill:none;stroke-linejoin:round;"/>
    <text class="kuml-small-halo" x="486.67" y="862" text-anchor="middle">
      grade
    </text>
    <text class="kuml-small" x="486.67" y="862" text-anchor="middle">
      grade
    </text>
    <line x1="435" y1="632" x2="435" y2="722" class="kuml-edge"/>
    <path d="M 430,710 L 435,722 L 440,710" style="stroke:#1D2B4F;stroke-width:1.5;fill:none;stroke-linejoin:round;"/>
    <polygon points="435,632 440,640 435,648 430,640" style="stroke:#1D2B4F;stroke-width:1.5;fill:#1D2B4F;stroke-linejoin:round;"/>
    <text class="kuml-small-halo" x="425" y="708" text-anchor="middle">
      0..*
    </text>
    <text class="kuml-small" x="425" y="708" text-anchor="middle">
      0..*
    </text>
    <text class="kuml-small-halo" x="445" y="692" text-anchor="middle">
      performances
    </text>
    <text class="kuml-small" x="445" y="692" text-anchor="middle">
      performances
    </text>
    <path d="M 220.50 459.50 L 220.50 502 L 435 502 L 435 552" class="kuml-edge"/>
    <path d="M 430,540 L 435,552 L 440,540" style="stroke:#1D2B4F;stroke-width:1.5;fill:none;stroke-linejoin:round;"/>
    <text class="kuml-small-halo" x="425" y="538" text-anchor="middle">
      0..*
    </text>
    <text class="kuml-small" x="425" y="538" text-anchor="middle">
      0..*
    </text>
    <text class="kuml-small-halo" x="445" y="522" text-anchor="middle">
      exams
    </text>
    <text class="kuml-small" x="445" y="522" text-anchor="middle">
      exams
    </text>
  </g>
</svg>
