<svg xmlns="http://www.w3.org/2000/svg" xmlns:xlink="http://www.w3.org/1999/xlink" contentStyleType="text/css" data-diagram-type="CLASS" height="1143px" preserveAspectRatio="none" style="width:640px;height:1143px;background:#FFFFFF;" version="1.1" viewBox="0 0 640 1143" width="640px" zoomAndPan="magnify"><?plantuml 1.2026.6?><defs/><g><!--class Person--><g class="entity" data-qualified-name="Person" data-source-line="2" id="ent0001"><rect fill="#F1F1F1" height="80.9766" rx="2.5" ry="2.5" style="stroke:#181818;stroke-width:0.5;" width="143.4688" x="7" y="1047.86"/><ellipse cx="51.6387" cy="1063.86" fill="#A9DCDF" rx="11" ry="11" style="stroke:#181818;stroke-width:1;"/><path d="M51.502,1059.2081 L50.3481,1064.2799 L52.6641,1064.2799 Z M50.0078,1056.9669 L53.0044,1056.9669 L56.3496,1069.36 L53.9009,1069.36 L53.1372,1066.297 L49.8584,1066.297 L49.1113,1069.36 L46.6626,1069.36 Z " fill="#000000"/><text fill="#000000" font-family="sans-serif" font-size="14" font-style="italic" lengthAdjust="spacing" textLength="45.6914" x="72.1387" y="1069.151">Person</text><line style="stroke:#181818;stroke-width:0.5;" x1="8" x2="149.4688" y1="1079.86" y2="1079.86"/><g data-visibility-modifier="PUBLIC_FIELD"><ellipse cx="18" cy="1093.6041" fill="none" rx="3" ry="3" style="stroke:#038048;stroke-width:1;"/></g><text fill="#000000" font-family="sans-serif" font-size="14" lengthAdjust="spacing" textLength="86.1191" x="27" y="1097.3952">name: String</text><g data-visibility-modifier="PUBLIC_FIELD"><ellipse cx="18" cy="1110.0924" fill="none" rx="3" ry="3" style="stroke:#038048;stroke-width:1;"/></g><text fill="#000000" font-family="sans-serif" font-size="14" lengthAdjust="spacing" textLength="117.4688" x="27" y="1113.8834">dateOfBirth: Date</text><line style="stroke:#181818;stroke-width:0.5;" x1="8" x2="149.4688" y1="1120.8366" y2="1120.8366"/></g><!--class Student--><g class="entity" data-qualified-name="Student" data-source-line="7" id="ent0002"><rect fill="#F1F1F1" height="48" rx="2.5" ry="2.5" style="stroke:#181818;stroke-width:0.5;" width="84.001" x="139.73" y="132.49"/><ellipse cx="154.73" cy="148.49" fill="#ADD1B2" rx="11" ry="11" style="stroke:#181818;stroke-width:1;"/><path d="M157.2031,154.6331 Q156.6221,154.9319 155.9829,155.0813 Q155.3438,155.2307 154.6382,155.2307 Q152.1314,155.2307 150.8115,153.5789 Q149.4917,151.927 149.4917,148.8059 Q149.4917,145.6765 150.8115,144.0247 Q152.1314,142.3728 154.6382,142.3728 Q155.3438,142.3728 155.9912,142.5222 Q156.6387,142.6716 157.2031,142.9705 L157.2031,145.6931 Q156.5723,145.1121 155.9788,144.8423 Q155.3853,144.5725 154.7544,144.5725 Q153.4097,144.5725 152.7249,145.6392 Q152.0401,146.7058 152.0401,148.8059 Q152.0401,150.8977 152.7249,151.9644 Q153.4097,153.031 154.7544,153.031 Q155.3853,153.031 155.9788,152.7612 Q156.5723,152.4915 157.2031,151.9104 Z " fill="#000000"/><text fill="#000000" font-family="sans-serif" font-size="14" lengthAdjust="spacing" textLength="52.001" x="168.73" y="153.781">Student</text><line style="stroke:#181818;stroke-width:0.5;" x1="140.73" x2="222.731" y1="164.49" y2="164.49"/><line style="stroke:#181818;stroke-width:0.5;" x1="140.73" x2="222.731" y1="172.49" y2="172.49"/></g><!--class Professor--><g class="entity" data-qualified-name="Professor" data-source-line="8" id="ent0003"><rect fill="#F1F1F1" height="48" rx="2.5" ry="2.5" style="stroke:#181818;stroke-width:0.5;" width="95.6152" x="111.93" y="922.38"/><ellipse cx="126.93" cy="938.38" fill="#ADD1B2" rx="11" ry="11" style="stroke:#181818;stroke-width:1;"/><path d="M129.4031,944.5231 Q128.8221,944.8219 128.1829,944.9713 Q127.5438,945.1207 126.8382,945.1207 Q124.3314,945.1207 123.0115,943.4689 Q121.6917,941.817 121.6917,938.6959 Q121.6917,935.5665 123.0115,933.9147 Q124.3314,932.2628 126.8382,932.2628 Q127.5438,932.2628 128.1912,932.4122 Q128.8387,932.5616 129.4031,932.8605 L129.4031,935.5831 Q128.7723,935.0021 128.1788,934.7323 Q127.5853,934.4625 126.9544,934.4625 Q125.6097,934.4625 124.9249,935.5292 Q124.2401,936.5958 124.2401,938.6959 Q124.2401,940.7877 124.9249,941.8544 Q125.6097,942.921 126.9544,942.921 Q127.5853,942.921 128.1788,942.6512 Q128.7723,942.3815 129.4031,941.8004 Z " fill="#000000"/><text fill="#000000" font-family="sans-serif" font-size="14" lengthAdjust="spacing" textLength="63.6152" x="140.93" y="943.671">Professor</text><line style="stroke:#181818;stroke-width:0.5;" x1="112.93" x2="206.5452" y1="954.38" y2="954.38"/><line style="stroke:#181818;stroke-width:0.5;" x1="112.93" x2="206.5452" y1="962.38" y2="962.38"/></g><!--class Faculty--><g class="entity" data-qualified-name="Faculty" data-source-line="13" id="ent0006"><rect fill="#F1F1F1" height="64.4883" rx="2.5" ry="2.5" style="stroke:#181818;stroke-width:0.5;" width="112.1191" x="111.67" y="257.49"/><ellipse cx="141.2612" cy="273.49" fill="#ADD1B2" rx="11" ry="11" style="stroke:#181818;stroke-width:1;"/><path d="M143.7343,279.6331 Q143.1533,279.9319 142.5141,280.0813 Q141.8749,280.2307 141.1694,280.2307 Q138.6625,280.2307 137.3427,278.5789 Q136.0229,276.927 136.0229,273.8059 Q136.0229,270.6765 137.3427,269.0247 Q138.6625,267.3728 141.1694,267.3728 Q141.8749,267.3728 142.5224,267.5222 Q143.1699,267.6716 143.7343,267.9705 L143.7343,270.6931 Q143.1034,270.1121 142.5099,269.8423 Q141.9164,269.5725 141.2856,269.5725 Q139.9408,269.5725 139.256,270.6392 Q138.5712,271.7058 138.5712,273.8059 Q138.5712,275.8977 139.256,276.9644 Q139.9408,278.031 141.2856,278.031 Q141.9164,278.031 142.5099,277.7612 Q143.1034,277.4915 143.7343,276.9104 Z " fill="#000000"/><text fill="#000000" font-family="sans-serif" font-size="14" lengthAdjust="spacing" textLength="47.6943" x="158.5036" y="278.781">Faculty</text><line style="stroke:#181818;stroke-width:0.5;" x1="112.67" x2="222.7891" y1="289.49" y2="289.49"/><g data-visibility-modifier="PUBLIC_FIELD"><ellipse cx="122.67" cy="303.2341" fill="none" rx="3" ry="3" style="stroke:#038048;stroke-width:1;"/></g><text fill="#000000" font-family="sans-serif" font-size="14" lengthAdjust="spacing" textLength="86.1191" x="131.67" y="307.0252">name: String</text><line style="stroke:#181818;stroke-width:0.5;" x1="112.67" x2="222.7891" y1="313.9783" y2="313.9783"/></g><!--class DegreeProgram--><g class="entity" data-qualified-name="DegreeProgram" data-source-line="17" id="ent0007"><rect fill="#F1F1F1" height="64.4883" rx="2.5" ry="2.5" style="stroke:#181818;stroke-width:0.5;" width="137.6699" x="207.9" y="431.96"/><ellipse cx="222.9" cy="447.96" fill="#ADD1B2" rx="11" ry="11" style="stroke:#181818;stroke-width:1;"/><path d="M225.3731,454.1031 Q224.7921,454.4019 224.1529,454.5513 Q223.5138,454.7007 222.8082,454.7007 Q220.3014,454.7007 218.9815,453.0489 Q217.6617,451.397 217.6617,448.2759 Q217.6617,445.1465 218.9815,443.4947 Q220.3014,441.8428 222.8082,441.8428 Q223.5138,441.8428 224.1612,441.9922 Q224.8087,442.1416 225.3731,442.4405 L225.3731,445.1631 Q224.7423,444.5821 224.1488,444.3123 Q223.5553,444.0425 222.9244,444.0425 Q221.5797,444.0425 220.8949,445.1092 Q220.2101,446.1758 220.2101,448.2759 Q220.2101,450.3677 220.8949,451.4344 Q221.5797,452.501 222.9244,452.501 Q223.5553,452.501 224.1488,452.2312 Q224.7423,451.9615 225.3731,451.3804 Z " fill="#000000"/><text fill="#000000" font-family="sans-serif" font-size="14" lengthAdjust="spacing" textLength="105.6699" x="236.9" y="453.251">DegreeProgram</text><line style="stroke:#181818;stroke-width:0.5;" x1="208.9" x2="344.5699" y1="463.96" y2="463.96"/><g data-visibility-modifier="PUBLIC_FIELD"><ellipse cx="218.9" cy="477.7041" fill="none" rx="3" ry="3" style="stroke:#038048;stroke-width:1;"/></g><text fill="#000000" font-family="sans-serif" font-size="14" lengthAdjust="spacing" textLength="75.1953" x="227.9" y="481.4952">title: String</text><line style="stroke:#181818;stroke-width:0.5;" x1="208.9" x2="344.5699" y1="488.4483" y2="488.4483"/></g><!--class Module--><g class="entity" data-qualified-name="Module" data-source-line="21" id="ent0008"><rect fill="#F1F1F1" height="80.9766" rx="2.5" ry="2.5" style="stroke:#181818;stroke-width:0.5;" width="133.0576" x="303.21" y="606.42"/><ellipse cx="341.1837" cy="622.42" fill="#ADD1B2" rx="11" ry="11" style="stroke:#181818;stroke-width:1;"/><path d="M343.6569,628.5631 Q343.0758,628.8619 342.4367,629.0113 Q341.7975,629.1607 341.0919,629.1607 Q338.5851,629.1607 337.2653,627.5089 Q335.9454,625.857 335.9454,622.7359 Q335.9454,619.6065 337.2653,617.9547 Q338.5851,616.3028 341.0919,616.3028 Q341.7975,616.3028 342.445,616.4522 Q343.0924,616.6016 343.6569,616.9005 L343.6569,619.6231 Q343.026,619.0421 342.4325,618.7723 Q341.839,618.5025 341.2081,618.5025 Q339.8634,618.5025 339.1786,619.5692 Q338.4938,620.6358 338.4938,622.7359 Q338.4938,624.8277 339.1786,625.8944 Q339.8634,626.961 341.2081,626.961 Q341.839,626.961 342.4325,626.6912 Q343.026,626.4215 343.6569,625.8404 Z " fill="#000000"/><text fill="#000000" font-family="sans-serif" font-size="14" lengthAdjust="spacing" textLength="50.0049" x="360.289" y="627.711">Module</text><line style="stroke:#181818;stroke-width:0.5;" x1="304.21" x2="435.2676" y1="638.42" y2="638.42"/><g data-visibility-modifier="PUBLIC_FIELD"><ellipse cx="314.21" cy="652.1641" fill="none" rx="3" ry="3" style="stroke:#038048;stroke-width:1;"/></g><text fill="#000000" font-family="sans-serif" font-size="14" lengthAdjust="spacing" textLength="75.1953" x="323.21" y="655.9552">title: String</text><g data-visibility-modifier="PUBLIC_FIELD"><ellipse cx="314.21" cy="668.6524" fill="none" rx="3" ry="3" style="stroke:#038048;stroke-width:1;"/></g><text fill="#000000" font-family="sans-serif" font-size="14" lengthAdjust="spacing" textLength="107.0576" x="323.21" y="672.4434">creditPoints: Int</text><line style="stroke:#181818;stroke-width:0.5;" x1="304.21" x2="435.2676" y1="679.3966" y2="679.3966"/></g><!--class ExaminableContract--><g class="entity" data-qualified-name="ExaminableContract" data-source-line="26" id="ent0009"><rect fill="#F1F1F1" height="64.4883" rx="2.5" ry="2.5" style="stroke:#181818;stroke-width:0.5;" width="236.335" x="369.57" y="764.4"/><ellipse cx="415.3981" cy="780.4" fill="#B4A7E5" rx="11" ry="11" style="stroke:#181818;stroke-width:1;"/><path d="M411.8259,776.6651 L411.8259,774.5069 L419.2053,774.5069 L419.2053,776.6651 L416.7399,776.6651 L416.7399,784.7418 L419.2053,784.7418 L419.2053,786.9 L411.8259,786.9 L411.8259,784.7418 L414.2912,784.7418 L414.2912,776.6651 Z " fill="#000000"/><text fill="#000000" font-family="sans-serif" font-size="14" font-style="italic" lengthAdjust="spacing" textLength="136.1787" x="435.8981" y="785.691">ExaminableContract</text><line style="stroke:#181818;stroke-width:0.5;" x1="370.57" x2="604.905" y1="796.4" y2="796.4"/><line style="stroke:#181818;stroke-width:0.5;" x1="370.57" x2="604.905" y1="804.4" y2="804.4"/><g data-visibility-modifier="PUBLIC_METHOD"><ellipse cx="380.57" cy="818.1441" fill="#84BE84" rx="3" ry="3" style="stroke:#038048;stroke-width:1;"/></g><text fill="#000000" font-family="sans-serif" font-size="14" lengthAdjust="spacing" textLength="210.335" x="389.57" y="821.9352">getExamRequirements(): String</text></g><!--class Course--><g class="entity" data-qualified-name="Course" data-source-line="30" id="ent0010"><rect fill="#F1F1F1" height="64.4883" rx="2.5" ry="2.5" style="stroke:#181818;stroke-width:0.5;" width="101.1953" x="233.14" y="764.4"/><ellipse cx="257.84" cy="780.4" fill="#ADD1B2" rx="11" ry="11" style="stroke:#181818;stroke-width:1;"/><path d="M260.3132,786.5431 Q259.7321,786.8419 259.093,786.9913 Q258.4538,787.1407 257.7483,787.1407 Q255.2414,787.1407 253.9216,785.4889 Q252.6018,783.837 252.6018,780.7159 Q252.6018,777.5865 253.9216,775.9347 Q255.2414,774.2828 257.7483,774.2828 Q258.4538,774.2828 259.1013,774.4322 Q259.7487,774.5816 260.3132,774.8805 L260.3132,777.6031 Q259.6823,777.0221 259.0888,776.7523 Q258.4953,776.4825 257.8645,776.4825 Q256.5197,776.4825 255.8349,777.5492 Q255.1501,778.6158 255.1501,780.7159 Q255.1501,782.8077 255.8349,783.8744 Q256.5197,784.941 257.8645,784.941 Q258.4953,784.941 259.0888,784.6712 Q259.6823,784.4015 260.3132,783.8204 Z " fill="#000000"/><text fill="#000000" font-family="sans-serif" font-size="14" lengthAdjust="spacing" textLength="47.6396" x="273.9956" y="785.691">Course</text><line style="stroke:#181818;stroke-width:0.5;" x1="234.14" x2="333.3353" y1="796.4" y2="796.4"/><g data-visibility-modifier="PUBLIC_FIELD"><ellipse cx="244.14" cy="810.1441" fill="none" rx="3" ry="3" style="stroke:#038048;stroke-width:1;"/></g><text fill="#000000" font-family="sans-serif" font-size="14" lengthAdjust="spacing" textLength="75.1953" x="253.14" y="813.9352">title: String</text><line style="stroke:#181818;stroke-width:0.5;" x1="234.14" x2="333.3353" y1="820.8883" y2="820.8883"/></g><!--class Semester--><g class="entity" data-qualified-name="Semester" data-source-line="34" id="ent0011"><rect fill="#F1F1F1" height="80.9766" rx="2.5" ry="2.5" style="stroke:#181818;stroke-width:0.5;" width="94.1113" x="262.68" y="905.89"/><ellipse cx="277.68" cy="921.89" fill="#EB937F" rx="11" ry="11" style="stroke:#181818;stroke-width:1;"/><path d="M281.2943,928.39 L273.5745,928.39 L273.5745,915.9969 L281.2943,915.9969 L281.2943,918.1551 L276.0233,918.1551 L276.0233,920.828 L280.7962,920.828 L280.7962,922.9862 L276.0233,922.9862 L276.0233,926.2318 L281.2943,926.2318 Z " fill="#000000"/><text fill="#000000" font-family="sans-serif" font-size="14" lengthAdjust="spacing" textLength="62.1113" x="291.68" y="927.181">Semester</text><line style="stroke:#181818;stroke-width:0.5;" x1="263.68" x2="355.7913" y1="937.89" y2="937.89"/><text fill="#000000" font-family="sans-serif" font-size="14" lengthAdjust="spacing" textLength="51.6455" x="268.68" y="955.4252">WINTER</text><text fill="#000000" font-family="sans-serif" font-size="14" lengthAdjust="spacing" textLength="57.7979" x="268.68" y="971.9134">SUMMER</text><line style="stroke:#181818;stroke-width:0.5;" x1="263.68" x2="355.7913" y1="978.8666" y2="978.8666"/></g><!--class Enrollment--><g class="entity" data-qualified-name="Enrollment" data-source-line="39" id="ent0012"><rect fill="#F1F1F1" height="64.4883" rx="2.5" ry="2.5" style="stroke:#181818;stroke-width:0.5;" width="171.0723" x="143.2" y="7"/><ellipse cx="187.7396" cy="23" fill="#ADD1B2" rx="11" ry="11" style="stroke:#181818;stroke-width:1;"/><path d="M190.2127,29.1431 Q189.6316,29.4419 188.9925,29.5913 Q188.3533,29.7407 187.6478,29.7407 Q185.1409,29.7407 183.8211,28.0889 Q182.5013,26.437 182.5013,23.3159 Q182.5013,20.1865 183.8211,18.5347 Q185.1409,16.8828 187.6478,16.8828 Q188.3533,16.8828 189.0008,17.0322 Q189.6482,17.1816 190.2127,17.4805 L190.2127,20.2031 Q189.5818,19.6221 188.9883,19.3523 Q188.3948,19.0825 187.764,19.0825 Q186.4192,19.0825 185.7344,20.1492 Q185.0496,21.2158 185.0496,23.3159 Q185.0496,25.4077 185.7344,26.4744 Q186.4192,27.541 187.764,27.541 Q188.3948,27.541 188.9883,27.2712 Q189.5818,27.0015 190.2127,26.4204 Z " fill="#000000"/><text fill="#000000" font-family="sans-serif" font-size="14" lengthAdjust="spacing" textLength="73.4932" x="208.2396" y="28.291">Enrollment</text><line style="stroke:#181818;stroke-width:0.5;" x1="144.2" x2="313.2723" y1="39" y2="39"/><g data-visibility-modifier="PUBLIC_FIELD"><ellipse cx="154.2" cy="52.7441" fill="none" rx="3" ry="3" style="stroke:#038048;stroke-width:1;"/></g><text fill="#000000" font-family="sans-serif" font-size="14" lengthAdjust="spacing" textLength="145.0723" x="163.2" y="56.5352">enrollmentDate: Date</text><line style="stroke:#181818;stroke-width:0.5;" x1="144.2" x2="313.2723" y1="63.4883" y2="63.4883"/></g><!--class ExaminationPerformance--><g class="entity" data-qualified-name="ExaminationPerformance" data-source-line="43" id="ent0013"><rect fill="#F1F1F1" height="64.4883" rx="2.5" ry="2.5" style="stroke:#181818;stroke-width:0.5;" width="201.2168" x="330.13" y="257.49"/><ellipse cx="345.13" cy="273.49" fill="#ADD1B2" rx="11" ry="11" style="stroke:#181818;stroke-width:1;"/><path d="M347.6031,279.6331 Q347.0221,279.9319 346.3829,280.0813 Q345.7438,280.2307 345.0382,280.2307 Q342.5314,280.2307 341.2115,278.5789 Q339.8917,276.927 339.8917,273.8059 Q339.8917,270.6765 341.2115,269.0247 Q342.5314,267.3728 345.0382,267.3728 Q345.7438,267.3728 346.3912,267.5222 Q347.0387,267.6716 347.6031,267.9705 L347.6031,270.6931 Q346.9723,270.1121 346.3788,269.8423 Q345.7853,269.5725 345.1544,269.5725 Q343.8097,269.5725 343.1249,270.6392 Q342.4401,271.7058 342.4401,273.8059 Q342.4401,275.8977 343.1249,276.9644 Q343.8097,278.031 345.1544,278.031 Q345.7853,278.031 346.3788,277.7612 Q346.9723,277.4915 347.6031,276.9104 Z " fill="#000000"/><text fill="#000000" font-family="sans-serif" font-size="14" lengthAdjust="spacing" textLength="169.2168" x="359.13" y="278.781">ExaminationPerformance</text><line style="stroke:#181818;stroke-width:0.5;" x1="331.13" x2="530.3468" y1="289.49" y2="289.49"/><g data-visibility-modifier="PUBLIC_FIELD"><ellipse cx="341.13" cy="303.2341" fill="none" rx="3" ry="3" style="stroke:#038048;stroke-width:1;"/></g><text fill="#000000" font-family="sans-serif" font-size="14" lengthAdjust="spacing" textLength="69.6924" x="350.13" y="307.0252">date: Date</text><line style="stroke:#181818;stroke-width:0.5;" x1="331.13" x2="530.3468" y1="313.9783" y2="313.9783"/></g><!--class GradeLevel--><g class="entity" data-qualified-name="GradeLevel" data-source-line="47" id="ent0014"><rect fill="#F1F1F1" height="130.4414" rx="2.5" ry="2.5" style="stroke:#181818;stroke-width:0.5;" width="113.7803" x="511.84" y="398.98"/><ellipse cx="530.0955" cy="414.98" fill="#EB937F" rx="11" ry="11" style="stroke:#181818;stroke-width:1;"/><path d="M533.7097,421.48 L525.99,421.48 L525.99,409.0869 L533.7097,409.0869 L533.7097,411.2451 L528.4387,411.2451 L528.4387,413.918 L533.2117,413.918 L533.2117,416.0762 L528.4387,416.0762 L528.4387,419.3218 L533.7097,419.3218 Z " fill="#000000"/><text fill="#000000" font-family="sans-serif" font-size="14" lengthAdjust="spacing" textLength="74.5459" x="544.8189" y="420.271">GradeLevel</text><line style="stroke:#181818;stroke-width:0.5;" x1="512.84" x2="624.6203" y1="430.98" y2="430.98"/><text fill="#000000" font-family="sans-serif" font-size="14" lengthAdjust="spacing" textLength="75.3389" x="517.84" y="448.5152">EXCELLENT</text><text fill="#000000" font-family="sans-serif" font-size="14" lengthAdjust="spacing" textLength="42.3555" x="517.84" y="465.0034">GOOD</text><text fill="#000000" font-family="sans-serif" font-size="14" lengthAdjust="spacing" textLength="101.7803" x="517.84" y="481.4917">SATISFACTORY</text><text fill="#000000" font-family="sans-serif" font-size="14" lengthAdjust="spacing" textLength="76.7881" x="517.84" y="497.98">SUFFICIENT</text><text fill="#000000" font-family="sans-serif" font-size="14" lengthAdjust="spacing" textLength="46.7373" x="517.84" y="514.4683">FAILED</text><line style="stroke:#181818;stroke-width:0.5;" x1="512.84" x2="624.6203" y1="521.4214" y2="521.4214"/></g><!--class Exam--><g class="entity" data-qualified-name="Exam" data-source-line="55" id="ent0015"><rect fill="#F1F1F1" height="64.4883" rx="2.5" ry="2.5" style="stroke:#181818;stroke-width:0.5;" width="95.6924" x="380.89" y="431.96"/><ellipse cx="407.9126" cy="447.96" fill="#ADD1B2" rx="11" ry="11" style="stroke:#181818;stroke-width:1;"/><path d="M410.3857,454.1031 Q409.8046,454.4019 409.1655,454.5513 Q408.5263,454.7007 407.8208,454.7007 Q405.3139,454.7007 403.9941,453.0489 Q402.6743,451.397 402.6743,448.2759 Q402.6743,445.1465 403.9941,443.4947 Q405.3139,441.8428 407.8208,441.8428 Q408.5263,441.8428 409.1738,441.9922 Q409.8212,442.1416 410.3857,442.4405 L410.3857,445.1631 Q409.7548,444.5821 409.1613,444.3123 Q408.5678,444.0425 407.937,444.0425 Q406.5922,444.0425 405.9074,445.1092 Q405.2226,446.1758 405.2226,448.2759 Q405.2226,450.3677 405.9074,451.4344 Q406.5922,452.501 407.937,452.501 Q408.5678,452.501 409.1613,452.2312 Q409.7548,451.9615 410.3857,451.3804 Z " fill="#000000"/><text fill="#000000" font-family="sans-serif" font-size="14" lengthAdjust="spacing" textLength="36.9756" x="424.5842" y="453.251">Exam</text><line style="stroke:#181818;stroke-width:0.5;" x1="381.89" x2="475.5824" y1="463.96" y2="463.96"/><g data-visibility-modifier="PUBLIC_FIELD"><ellipse cx="391.89" cy="477.7041" fill="none" rx="3" ry="3" style="stroke:#038048;stroke-width:1;"/></g><text fill="#000000" font-family="sans-serif" font-size="14" lengthAdjust="spacing" textLength="69.6924" x="400.89" y="481.4952">date: Date</text><line style="stroke:#181818;stroke-width:0.5;" x1="381.89" x2="475.5824" y1="488.4483" y2="488.4483"/></g><!--link Student to Person--><g class="link" data-entity-1="ent0002" data-entity-2="ent0001" data-link-type="extension" data-source-line="10" id="lnk4"><path codeLine="10" d="M139.4,180.06 C103.83,202.43 58.73,240.33 58.73,288.74 C58.73,288.74 58.73,288.74 58.73,947.38 C58.73,981.37 61.1856,1001.8849 66.5556,1029.7649" fill="none" id="Student-to-Person" style="stroke:#181818;stroke-width:1;"/><polygon fill="none" points="69.96,1047.44,72.4473,1028.6301,60.6639,1030.8997,69.96,1047.44" style="stroke:#181818;stroke-width:1;stroke-linejoin:miter;stroke-miterlimit:10;"/></g><!--link Professor to Person--><g class="link" data-entity-1="ent0003" data-entity-2="ent0001" data-link-type="extension" data-source-line="11" id="lnk5"><path codeLine="11" d="M146.18,970.8 C134.11,991.66 125.2064,1007.041 110.8764,1031.801" fill="none" id="Professor-to-Person" style="stroke:#181818;stroke-width:1;"/><polygon fill="none" points="101.86,1047.38,116.0694,1034.8065,105.6834,1028.7956,101.86,1047.38" style="stroke:#181818;stroke-width:1;stroke-linejoin:miter;stroke-miterlimit:10;"/></g><!--reverse link Faculty to DegreeProgram--><g class="link" data-entity-1="ent0006" data-entity-2="ent0007" data-link-type="composition" data-source-line="59" id="lnk16"><path codeLine="59" d="M191.0652,332.7165 C199.2052,347.1165 203.26,353.84 212.73,368.98 C226.06,390.27 241.91,413.62 254.51,431.75" fill="none" id="Faculty-backto-DegreeProgram" style="stroke:#181818;stroke-width:1;"/><polygon fill="#181818" points="185.16,322.27,184.6304,329.4616,191.0652,332.7165,191.5947,325.5249,185.16,322.27" style="stroke:#181818;stroke-width:1;stroke-linejoin:miter;stroke-miterlimit:10;"/><text fill="#000000" font-family="sans-serif" font-size="13" lengthAdjust="spacing" textLength="36.7339" x="213.73" y="365.5484">offers</text><text fill="#000000" font-family="sans-serif" font-size="13" lengthAdjust="spacing" textLength="8.2202" x="179.7412" y="342.4998">1</text><text fill="#000000" font-family="sans-serif" font-size="13" lengthAdjust="spacing" textLength="22.7119" x="225.7308" y="421.1098">0..*</text></g><!--reverse link Faculty to Professor--><g class="link" data-entity-1="ent0006" data-entity-2="ent0003" data-link-type="composition" data-source-line="60" id="lnk17"><path codeLine="60" d="M162.5782,334.397 C158.7482,368.957 154.73,413.96 154.73,463.2 C154.73,463.2 154.73,463.2 154.73,797.64 C154.73,841.65 156.98,893 158.46,922.1" fill="none" id="Faculty-backto-Professor" style="stroke:#181818;stroke-width:1;"/><polygon fill="#181818" points="163.9,322.47,159.2635,327.9929,162.5782,334.397,167.2148,328.8741,163.9,322.47" style="stroke:#181818;stroke-width:1;stroke-linejoin:miter;stroke-miterlimit:10;"/><text fill="#000000" font-family="sans-serif" font-size="13" lengthAdjust="spacing" textLength="52.7236" x="155.73" y="651.9784">employs</text><text fill="#000000" font-family="sans-serif" font-size="13" lengthAdjust="spacing" textLength="8.2202" x="154.4767" y="342.4855">1</text><text fill="#000000" font-family="sans-serif" font-size="13" lengthAdjust="spacing" textLength="22.7119" x="133.4051" y="911.5645">0..*</text></g><!--reverse link DegreeProgram to Module--><g class="link" data-entity-1="ent0007" data-entity-2="ent0008" data-link-type="aggregation" data-source-line="62" id="lnk18"><path codeLine="62" d="M298.3742,507.5437 C309.7642,529.8137 319.92,549.61 333.73,576.42 C338.71,586.08 344.1,596.49 349.14,606.24" fill="none" id="DegreeProgram-backto-Module" style="stroke:#181818;stroke-width:1;"/><polygon fill="none" points="292.91,496.86,292.0809,504.0233,298.3742,507.5437,299.2034,500.3805,292.91,496.86" style="stroke:#181818;stroke-width:1;stroke-linejoin:miter;stroke-miterlimit:10;"/><text fill="#000000" font-family="sans-serif" font-size="13" lengthAdjust="spacing" textLength="50.1274" x="334.73" y="572.9884">bundles</text><text fill="#000000" font-family="sans-serif" font-size="13" lengthAdjust="spacing" textLength="22.7119" x="271.9643" y="517.1127">0..*</text><text fill="#000000" font-family="sans-serif" font-size="13" lengthAdjust="spacing" textLength="22.7119" x="321.7701" y="595.5561">0..*</text></g><!--link Module to ExaminableContract--><g class="link" data-entity-1="ent0008" data-entity-2="ent0009" data-link-type="extension" data-source-line="64" id="lnk19"><path codeLine="64" d="M408.28,687.85 C416.92,697.32 425.85,707.53 433.73,717.4 C445.58,732.23 447.6717,734.5589 457.4117,749.1189" fill="none" id="Module-to-ExaminableContract" style="stroke:#181818;stroke-width:1;stroke-dasharray:7,7;"/><polygon fill="none" points="467.42,764.08,462.3987,745.7828,452.4247,752.455,467.42,764.08" style="stroke:#181818;stroke-width:1;stroke-linejoin:miter;stroke-miterlimit:10;"/></g><!--reverse link Module to Course--><g class="link" data-entity-1="ent0008" data-entity-2="ent0010" data-link-type="composition" data-source-line="66" id="lnk20"><path codeLine="66" d="M340.423,698.2608 C326.493,722.1908 315.08,741.8 302.12,764.06" fill="none" id="Module-backto-Course" style="stroke:#181818;stroke-width:1;"/><polygon fill="#181818" points="346.46,687.89,339.9845,691.0631,340.423,698.2608,346.8984,695.0878,346.46,687.89" style="stroke:#181818;stroke-width:1;stroke-linejoin:miter;stroke-miterlimit:10;"/><text fill="#000000" font-family="sans-serif" font-size="13" lengthAdjust="spacing" textLength="97.0811" x="327.73" y="730.9684">implementedBy</text><text fill="#000000" font-family="sans-serif" font-size="13" lengthAdjust="spacing" textLength="8.2202" x="334.2998" y="707.9059">1</text><text fill="#000000" font-family="sans-serif" font-size="13" lengthAdjust="spacing" textLength="22.7119" x="281.6435" y="753.7674">0..*</text></g><!--link Course to Professor--><g class="link" data-entity-1="ent0010" data-entity-2="ent0003" data-link-type="association" data-source-line="67" id="lnk21"><path codeLine="67" d="M255.45,829.21 C247.09,838.68 237.97,849.14 229.73,858.89 C211.91,879.99 192.15,904.5 178.19,922.03" fill="none" id="Course-Professor" style="stroke:#181818;stroke-width:1;"/><text fill="#000000" font-family="sans-serif" font-size="13" lengthAdjust="spacing" textLength="55.415" x="230.73" y="872.4584">taughtBy</text><text fill="#000000" font-family="sans-serif" font-size="13" lengthAdjust="spacing" textLength="22.7119" x="226.0286" y="849.4455">0..*</text><text fill="#000000" font-family="sans-serif" font-size="13" lengthAdjust="spacing" textLength="8.2202" x="173.9216" y="911.4766">1</text></g><!--link Course to Semester--><g class="link" data-entity-1="ent0010" data-entity-2="ent0011" data-link-type="association" data-source-line="68" id="lnk22"><path codeLine="68" d="M289.31,829.34 C293.24,851.63 298.52,881.64 302.73,905.56" fill="none" id="Course-Semester" style="stroke:#181818;stroke-width:1;"/><text fill="#000000" font-family="sans-serif" font-size="13" lengthAdjust="spacing" textLength="39.0635" x="297.73" y="872.4584">heldIn</text><text fill="#000000" font-family="sans-serif" font-size="13" lengthAdjust="spacing" textLength="22.7119" x="266.3749" y="849.3481">0..*</text><text fill="#000000" font-family="sans-serif" font-size="13" lengthAdjust="spacing" textLength="8.2202" x="292.9254" y="895.1514">1</text></g><!--link Enrollment to Student--><g class="link" data-entity-1="ent0012" data-entity-2="ent0002" data-link-type="association" data-source-line="70" id="lnk23"><path codeLine="70" d="M215.89,71.74 C208.12,90.8 198.37,114.7 191.28,132.08" fill="none" id="Enrollment-Student" style="stroke:#181818;stroke-width:1;"/><text fill="#000000" font-family="sans-serif" font-size="13" lengthAdjust="spacing" textLength="22.7119" x="189.4122" y="91.9622">0..*</text><text fill="#000000" font-family="sans-serif" font-size="13" lengthAdjust="spacing" textLength="8.2202" x="184.6595" y="121.9081">1</text></g><!--link Enrollment to DegreeProgram--><g class="link" data-entity-1="ent0012" data-entity-2="ent0007" data-link-type="association" data-source-line="71" id="lnk24"><path codeLine="71" d="M233.46,71.81 C236.05,89.61 239.24,112.27 241.73,132.49 C255.27,242.22 268.14,372.84 273.77,431.7" fill="none" id="Enrollment-DegreeProgram" style="stroke:#181818;stroke-width:1;"/><text fill="#000000" font-family="sans-serif" font-size="13" lengthAdjust="spacing" textLength="22.7119" x="236.5252" y="92.0455">0..*</text><text fill="#000000" font-family="sans-serif" font-size="13" lengthAdjust="spacing" textLength="8.2202" x="264.3562" y="421.0495">1</text></g><!--reverse link Student to ExaminationPerformance--><g class="link" data-entity-1="ent0002" data-entity-2="ent0013" data-link-type="composition" data-source-line="73" id="lnk25"><path codeLine="73" d="M234.5867,185.3533 C274.8267,206.5533 325.2,233.11 370.52,257" fill="none" id="Student-backto-ExaminationPerformance" style="stroke:#181818;stroke-width:1;"/><polygon fill="#181818" points="223.97,179.76,227.4139,186.0956,234.5867,185.3533,231.1428,179.0177,223.97,179.76" style="stroke:#181818;stroke-width:1;stroke-linejoin:miter;stroke-miterlimit:10;"/><text fill="#000000" font-family="sans-serif" font-size="13" lengthAdjust="spacing" textLength="64.6953" x="314.7" y="224.0584">completes</text><text fill="#000000" font-family="sans-serif" font-size="13" lengthAdjust="spacing" textLength="8.2202" x="231.6467" y="179.966">1</text><text fill="#000000" font-family="sans-serif" font-size="13" lengthAdjust="spacing" textLength="22.7119" x="334.569" y="246.6778">0..*</text></g><!--link ExaminationPerformance to GradeLevel--><g class="link" data-entity-1="ent0013" data-entity-2="ent0014" data-link-type="association" data-source-line="74" id="lnk26"><path codeLine="74" d="M474.87,322.23 C485.69,331.13 496.74,341.32 505.73,351.98 C517.61,366.06 528.41,382.7 537.58,398.76" fill="none" id="ExaminationPerformance-GradeLevel" style="stroke:#181818;stroke-width:1;"/><text fill="#000000" font-family="sans-serif" font-size="13" lengthAdjust="spacing" textLength="50.8193" x="519.45" y="365.5484">receives</text><text fill="#000000" font-family="sans-serif" font-size="13" lengthAdjust="spacing" textLength="22.7119" x="459.2536" y="342.4522">0..*</text><text fill="#000000" font-family="sans-serif" font-size="13" lengthAdjust="spacing" textLength="8.2202" x="525.7475" y="388.3675">1</text></g><!--link ExaminationPerformance to Exam--><g class="link" data-entity-1="ent0013" data-entity-2="ent0015" data-link-type="association" data-source-line="75" id="lnk27"><path codeLine="75" d="M430.37,322.37 C430.01,353.39 429.46,400.43 429.1,431.48" fill="none" id="ExaminationPerformance-Exam" style="stroke:#181818;stroke-width:1;"/><text fill="#000000" font-family="sans-serif" font-size="13" lengthAdjust="spacing" textLength="66.1743" x="430.97" y="365.5484">belongsTo</text><text fill="#000000" font-family="sans-serif" font-size="13" lengthAdjust="spacing" textLength="22.7119" x="406.2708" y="342.6189">0..*</text><text fill="#000000" font-family="sans-serif" font-size="13" lengthAdjust="spacing" textLength="8.2202" x="420.4058" y="421.1598">1</text></g><!--link Exam to Module--><g class="link" data-entity-1="ent0015" data-entity-2="ent0008" data-link-type="association" data-source-line="76" id="lnk28"><path codeLine="76" d="M418.46,496.68 C408.55,527.02 393.53,573.04 382.78,605.95" fill="none" id="Exam-Module" style="stroke:#181818;stroke-width:1;"/><text fill="#000000" font-family="sans-serif" font-size="13" lengthAdjust="spacing" textLength="71.9951" x="398.47" y="572.9884">assignedTo</text><text fill="#000000" font-family="sans-serif" font-size="13" lengthAdjust="spacing" textLength="22.7119" x="392.4721" y="516.8984">0..*</text><text fill="#000000" font-family="sans-serif" font-size="13" lengthAdjust="spacing" textLength="8.2202" x="376.2385" y="595.8201">1</text></g><?plantuml-src ZLF1Rjim3BthAuISkWu9sgiE0rB7BWmaJH1xs7PKBDeH84kR91SBjltxQ5jpQZS6TXF5HxudFegVdBUyyBHGt3bw0EkCfhy8fHyrhu7Hp5kfgpOMtCE-V9BMdndTO43-4DANPRuHe7s83jQKu9onX8G4NIv_VmhDoP0UtORQX1UDyfSR2WQo3LGM0BjKbjSzq4klRY1tHZGARa7meh0Wf3yOgRrZD4NrM8S1s98NGEEVl9QQdnH4HlSZwlfKuDlK4NuqqaADZtDt7zvJHwQn3cRKWMvgcc6nGxOEyoLzoUCZ7hBFknqUXZwnjaQfbgRl1KFSEZ3r8OZsqcWSQsbipNKHL8WHlfFmRBc0BRo2wY3nroZURkEN7C_F-_scbRFEqonPH_d--ArJboHfbFQGP9rkuysO_1RLFqiNZmjwlrpInSDgTR-OsCYeAKlSX3dqTMaOXVgxCXT7oBX5G9fhKV2VqLEZXGAi23Uh5IxUUuU7_8GycCceHERESn1F5nAk0wY5Fuw5UjvKPp-771Q0qJCeaU8VUEFs11i-s2nWD8hhlviyP6O_62rC-pAF8vg1ZDdUB0wZ5WgGh_zRscq9EWBAwChbfgkQO0RVSArafK4Wx2y0?></g></svg>