<svg id="my-svg" width="100%" xmlns="http://www.w3.org/2000/svg" xmlns:xlink="http://www.w3.org/1999/xlink" class="classDiagram" style="max-width: 239.273px; background-color: white;" viewBox="0 0 239.2734375 718" role="graphics-document document" aria-roledescription="class"><style>#my-svg{font-family:"trebuchet ms",verdana,arial,sans-serif;font-size:16px;fill:#333;}@keyframes edge-animation-frame{from{stroke-dashoffset:0;}}@keyframes dash{to{stroke-dashoffset:0;}}#my-svg .edge-animation-slow{stroke-dasharray:9,5!important;stroke-dashoffset:900;animation:dash 50s linear infinite;stroke-linecap:round;}#my-svg .edge-animation-fast{stroke-dasharray:9,5!important;stroke-dashoffset:900;animation:dash 20s linear infinite;stroke-linecap:round;}#my-svg .error-icon{fill:#552222;}#my-svg .error-text{fill:#552222;stroke:#552222;}#my-svg .edge-thickness-normal{stroke-width:1px;}#my-svg .edge-thickness-thick{stroke-width:3.5px;}#my-svg .edge-pattern-solid{stroke-dasharray:0;}#my-svg .edge-thickness-invisible{stroke-width:0;fill:none;}#my-svg .edge-pattern-dashed{stroke-dasharray:3;}#my-svg .edge-pattern-dotted{stroke-dasharray:2;}#my-svg .marker{fill:#333333;stroke:#333333;}#my-svg .marker.cross{stroke:#333333;}#my-svg svg{font-family:"trebuchet ms",verdana,arial,sans-serif;font-size:16px;}#my-svg p{margin:0;}#my-svg g.classGroup text{fill:#9370DB;stroke:none;font-family:"trebuchet ms",verdana,arial,sans-serif;font-size:10px;}#my-svg g.classGroup text .title{font-weight:bolder;}#my-svg .cluster-label text{fill:#333;}#my-svg .cluster-label span{color:#333;}#my-svg .cluster-label span p{background-color:transparent;}#my-svg .cluster rect{fill:#ffffde;stroke:#aaaa33;stroke-width:1px;}#my-svg .cluster text{fill:#333;}#my-svg .cluster span{color:#333;}#my-svg .nodeLabel,#my-svg .edgeLabel{color:#131300;}#my-svg .noteLabel .nodeLabel,#my-svg .noteLabel .edgeLabel{color:black;}#my-svg .edgeLabel .label rect{fill:#ECECFF;}#my-svg .label text{fill:#131300;}#my-svg .labelBkg{background:#ECECFF;}#my-svg .edgeLabel .label span{background:#ECECFF;}#my-svg .classTitle{font-weight:bolder;}#my-svg .node rect,#my-svg .node circle,#my-svg .node ellipse,#my-svg .node polygon,#my-svg .node path{fill:#ECECFF;stroke:#9370DB;stroke-width:1;}#my-svg .divider{stroke:#9370DB;stroke-width:1;}#my-svg g.clickable{cursor:pointer;}#my-svg g.classGroup rect{fill:#ECECFF;stroke:#9370DB;}#my-svg g.classGroup line{stroke:#9370DB;stroke-width:1;}#my-svg .classLabel .box{stroke:none;stroke-width:0;fill:#ECECFF;opacity:0.5;}#my-svg .classLabel .label{fill:#9370DB;font-size:10px;}#my-svg .relation{stroke:#333333;stroke-width:1;fill:none;}#my-svg .dashed-line{stroke-dasharray:3;}#my-svg .dotted-line{stroke-dasharray:1 2;}#my-svg [id$="-compositionStart"],#my-svg .composition{fill:#333333!important;stroke:#333333!important;stroke-width:1;}#my-svg [id$="-compositionEnd"],#my-svg .composition{fill:#333333!important;stroke:#333333!important;stroke-width:1;}#my-svg [id$="-dependencyStart"],#my-svg .dependency{fill:#333333!important;stroke:#333333!important;stroke-width:1;}#my-svg [id$="-dependencyEnd"],#my-svg .dependency{fill:#333333!important;stroke:#333333!important;stroke-width:1;}#my-svg [id$="-extensionStart"],#my-svg .extension{fill:transparent!important;stroke:#333333!important;stroke-width:1;}#my-svg [id$="-extensionEnd"],#my-svg .extension{fill:transparent!important;stroke:#333333!important;stroke-width:1;}#my-svg [id$="-aggregationStart"],#my-svg .aggregation{fill:transparent!important;stroke:#333333!important;stroke-width:1;}#my-svg [id$="-aggregationEnd"],#my-svg .aggregation{fill:transparent!important;stroke:#333333!important;stroke-width:1;}#my-svg [id$="-lollipopStart"],#my-svg .lollipop{fill:#ECECFF!important;stroke:#333333!important;stroke-width:1;}#my-svg [id$="-lollipopEnd"],#my-svg .lollipop{fill:#ECECFF!important;stroke:#333333!important;stroke-width:1;}#my-svg .edgeTerminals{font-size:11px;line-height:initial;}#my-svg .classTitleText{text-anchor:middle;font-size:18px;fill:#333;}#my-svg .edgeLabel[data-look="neo"]{background-color:rgba(232,232,232, 0.8);text-align:center;}#my-svg .edgeLabel[data-look="neo"] p{background-color:rgba(232,232,232, 0.8);}#my-svg .edgeLabel[data-look="neo"] rect{opacity:0.5;background-color:rgba(232,232,232, 0.8);fill:rgba(232,232,232, 0.8);}#my-svg .label-icon{display:inline-block;height:1em;overflow:visible;vertical-align:-0.125em;}#my-svg .node .label-icon path{fill:currentColor;stroke:revert;stroke-width:revert;}#my-svg .node .neo-node{stroke:#9370DB;}#my-svg [data-look="neo"].node rect,#my-svg [data-look="neo"].cluster rect,#my-svg [data-look="neo"].node polygon{stroke:#9370DB;filter:drop-shadow(1px 2px 2px rgba(185, 185, 185, 1));}#my-svg [data-look="neo"].swimlane.cluster rect{filter:none;}#my-svg [data-look="neo"].node path{stroke:#9370DB;stroke-width:1px;}#my-svg [data-look="neo"].node .outer-path{filter:drop-shadow(1px 2px 2px rgba(185, 185, 185, 1));}#my-svg [data-look="neo"].node .neo-line path{stroke:#9370DB;filter:none;}#my-svg [data-look="neo"].node circle{stroke:#9370DB;filter:drop-shadow(1px 2px 2px rgba(185, 185, 185, 1));}#my-svg [data-look="neo"].node circle .state-start{fill:#000000;}#my-svg [data-look="neo"].icon-shape .icon{fill:#9370DB;filter:drop-shadow(1px 2px 2px rgba(185, 185, 185, 1));}#my-svg [data-look="neo"].icon-shape .icon-neo path{stroke:#9370DB;filter:drop-shadow(1px 2px 2px rgba(185, 185, 185, 1));}#my-svg :root{--mermaid-font-family:"trebuchet ms",verdana,arial,sans-serif;}</style><g><defs><marker id="my-svg_class-aggregationStart" class="marker aggregation class" refX="18" refY="7" markerWidth="190" markerHeight="240" orient="auto"><path d="M 18,7 L9,13 L1,7 L9,1 Z"/></marker></defs><defs><marker id="my-svg_class-aggregationEnd" class="marker aggregation class" refX="1" refY="7" markerWidth="20" markerHeight="28" orient="auto"><path d="M 18,7 L9,13 L1,7 L9,1 Z"/></marker></defs><defs><marker id="my-svg_class-aggregationStart-margin" class="marker aggregation class" refX="15" refY="7" markerWidth="190" markerHeight="240" orient="auto" markerUnits="userSpaceOnUse"><path d="M 18,7 L9,13 L1,7 L9,1 Z" style="stroke-width: 2;"/></marker></defs><defs><marker id="my-svg_class-aggregationEnd-margin" class="marker aggregation class" refX="1" refY="7" markerWidth="20" markerHeight="28" orient="auto" markerUnits="userSpaceOnUse"><path d="M 18,7 L9,13 L1,7 L9,1 Z" style="stroke-width: 2;"/></marker></defs><defs><marker id="my-svg_class-extensionStart" class="marker extension class" refX="18" refY="7" markerWidth="20" markerHeight="28" orient="auto" markerUnits="userSpaceOnUse"><path d="M 1,7 L18,13 V 1 Z"/></marker></defs><defs><marker id="my-svg_class-extensionEnd" class="marker extension class" refX="1" refY="7" markerWidth="20" markerHeight="28" orient="auto"><path d="M 1,1 V 13 L18,7 Z"/></marker></defs><marker id="my-svg_class-extensionStart-margin" class="marker extension class" refX="18" refY="7" markerWidth="20" markerHeight="28" orient="auto" markerUnits="userSpaceOnUse" viewBox="0 0 20 14"><polygon points="10,7 18,13 18,1" style="stroke-width: 2; stroke-dasharray: 0;"/></marker><defs><marker id="my-svg_class-extensionEnd-margin" class="marker extension class" refX="9" refY="7" markerWidth="20" markerHeight="28" orient="auto" markerUnits="userSpaceOnUse" viewBox="0 0 20 14"><polygon points="10,1 10,13 18,7" style="stroke-width: 2; stroke-dasharray: 0;"/></marker></defs><defs><marker id="my-svg_class-compositionStart" class="marker composition class" refX="18" refY="7" markerWidth="190" markerHeight="240" orient="auto"><path d="M 18,7 L9,13 L1,7 L9,1 Z"/></marker></defs><defs><marker id="my-svg_class-compositionEnd" class="marker composition class" refX="1" refY="7" markerWidth="20" markerHeight="28" orient="auto"><path d="M 18,7 L9,13 L1,7 L9,1 Z"/></marker></defs><defs><marker id="my-svg_class-compositionStart-margin" class="marker composition class" refX="15" refY="7" markerWidth="190" markerHeight="240" orient="auto" markerUnits="userSpaceOnUse"><path viewBox="0 0 15 15" d="M 18,7 L9,13 L1,7 L9,1 Z" style="stroke-width: 0;"/></marker></defs><defs><marker id="my-svg_class-compositionEnd-margin" class="marker composition class" refX="3.5" refY="7" markerWidth="20" markerHeight="28" orient="auto" markerUnits="userSpaceOnUse"><path d="M 18,7 L9,13 L1,7 L9,1 Z" style="stroke-width: 0;"/></marker></defs><defs><marker id="my-svg_class-dependencyStart" class="marker dependency class" refX="6" refY="7" markerWidth="190" markerHeight="240" orient="auto"><path d="M 5,7 L9,13 L1,7 L9,1 Z"/></marker></defs><defs><marker id="my-svg_class-dependencyEnd" class="marker dependency class" refX="13" refY="7" markerWidth="20" markerHeight="28" orient="auto"><path d="M 18,7 L9,13 L14,7 L9,1 Z"/></marker></defs><defs><marker id="my-svg_class-dependencyStart-margin" class="marker dependency class" refX="4" refY="7" markerWidth="190" markerHeight="240" orient="auto" markerUnits="userSpaceOnUse"><path d="M 5,7 L9,13 L1,7 L9,1 Z" style="stroke-width: 0;"/></marker></defs><defs><marker id="my-svg_class-dependencyEnd-margin" class="marker dependency class" refX="16" refY="7" markerWidth="20" markerHeight="28" orient="auto" markerUnits="userSpaceOnUse"><path d="M 18,7 L9,13 L14,7 L9,1 Z" style="stroke-width: 0;"/></marker></defs><defs><marker id="my-svg_class-lollipopStart" class="marker lollipop class" refX="13" refY="7" markerWidth="190" markerHeight="240" orient="auto"><circle fill="transparent" cx="7" cy="7" r="6"/></marker></defs><defs><marker id="my-svg_class-lollipopEnd" class="marker lollipop class" refX="1" refY="7" markerWidth="190" markerHeight="240" orient="auto"><circle fill="transparent" cx="7" cy="7" r="6"/></marker></defs><defs><marker id="my-svg_class-lollipopStart-margin" class="marker lollipop class" refX="13" refY="7" markerWidth="190" markerHeight="240" orient="auto" markerUnits="userSpaceOnUse"><circle fill="transparent" cx="7" cy="7" r="6" stroke-width="2"/></marker></defs><defs><marker id="my-svg_class-lollipopEnd-margin" class="marker lollipop class" refX="1" refY="7" markerWidth="190" markerHeight="240" orient="auto" markerUnits="userSpaceOnUse"><circle fill="transparent" cx="7" cy="7" r="6" stroke-width="2"/></marker></defs><g class="root"><g class="clusters"/><g class="edgePaths"><path d="M119.637,109.25L119.637,112.542C119.637,115.833,119.637,122.417,119.637,131.875C119.637,141.333,119.637,153.667,119.637,159.833L119.637,166" id="my-svg-id_Cookbook_Recipe_1" class="edge-thickness-normal edge-pattern-solid relation" style=";;;" data-edge="true" data-et="edge" data-id="id_Cookbook_Recipe_1" data-points="W3sieCI6MTE5LjYzNjcxODc1LCJ5Ijo5Mn0seyJ4IjoxMTkuNjM2NzE4NzUsInkiOjEyOX0seyJ4IjoxMTkuNjM2NzE4NzUsInkiOjE2Nn1d" data-look="classic" marker-start="url(#my-svg_class-compositionStart)"/><path d="M119.637,351.25L119.637,354.542C119.637,357.833,119.637,364.417,119.637,373.875C119.637,383.333,119.637,395.667,119.637,401.833L119.637,408" id="my-svg-id_Recipe_IngredientEntry_2" class="edge-thickness-normal edge-pattern-solid relation" style=";;;" data-edge="true" data-et="edge" data-id="id_Recipe_IngredientEntry_2" data-points="W3sieCI6MTE5LjYzNjcxODc1LCJ5IjozMzR9LHsieCI6MTE5LjYzNjcxODc1LCJ5IjozNzF9LHsieCI6MTE5LjYzNjcxODc1LCJ5Ijo0MDh9XQ==" data-look="classic" marker-start="url(#my-svg_class-compositionStart)"/><path d="M119.637,552L119.637,558.167C119.637,564.333,119.637,576.667,119.637,588C119.637,599.333,119.637,609.667,119.637,614.833L119.637,620" id="my-svg-id_IngredientEntry_Ingredient_3" class="edge-thickness-normal edge-pattern-solid relation" style=";;;" data-edge="true" data-et="edge" data-id="id_IngredientEntry_Ingredient_3" data-points="W3sieCI6MTE5LjYzNjcxODc1LCJ5Ijo1NTJ9LHsieCI6MTE5LjYzNjcxODc1LCJ5Ijo1ODl9LHsieCI6MTE5LjYzNjcxODc1LCJ5Ijo2MjZ9XQ==" data-look="classic" marker-end="url(#my-svg_class-dependencyEnd)"/></g><g class="edgeLabels"><g class="edgeLabel" transform="translate(119.63671875, 129)"><g class="label" data-id="id_Cookbook_Recipe_1" transform="translate(-25.7734375, -12)"><foreignObject width="51.546875" height="24"><div xmlns="http://www.w3.org/1999/xhtml" class="labelBkg" style="display: table-cell; white-space: nowrap; line-height: 1.5; max-width: 200px; text-align: center;"><span class="edgeLabel"><p>recipes</p></span></div></foreignObject></g></g><g class="edgeLabel" transform="translate(119.63671875, 371)"><g class="label" data-id="id_Recipe_IngredientEntry_2" transform="translate(-24.8984375, -12)"><foreignObject width="49.796875" height="24"><div xmlns="http://www.w3.org/1999/xhtml" class="labelBkg" style="display: table-cell; white-space: nowrap; line-height: 1.5; max-width: 200px; text-align: center;"><span class="edgeLabel"><p>entries</p></span></div></foreignObject></g></g><g class="edgeLabel" transform="translate(119.63671875, 589)"><g class="label" data-id="id_IngredientEntry_Ingredient_3" transform="translate(-29.0859375, -12)"><foreignObject width="58.171875" height="24"><div xmlns="http://www.w3.org/1999/xhtml" class="labelBkg" style="display: table-cell; white-space: nowrap; line-height: 1.5; max-width: 200px; text-align: center;"><span class="edgeLabel"><p>refersTo</p></span></div></foreignObject></g></g><g class="edgeTerminals" transform="translate(104.63671937500001, 109.50000053571428)"><g class="inner" transform="translate(-2.890625, -8.25)"><foreignObject width="5.78125" height="16.5" style="width: 9px; height: 12px;"><div xmlns="http://www.w3.org/1999/xhtml" style="display: table-cell; white-space: nowrap; line-height: 1.5;"><span class="edgeLabel"><p>1</p></span></div></foreignObject></g></g><g class="edgeTerminals" transform="translate(104.63671937500001, 351.50000053571426)"><g class="inner" transform="translate(-2.890625, -8.25)"><foreignObject width="5.78125" height="16.5" style="width: 9px; height: 12px;"><div xmlns="http://www.w3.org/1999/xhtml" style="display: table-cell; white-space: nowrap; line-height: 1.5;"><span class="edgeLabel"><p>1</p></span></div></foreignObject></g></g><g class="edgeTerminals" transform="translate(104.63671937500001, 569.5000005357143)"><g class="inner" transform="translate(-8.9453125, -8.25)"><foreignObject width="17.890625" height="16.5" style="width: 36px; height: 12px;"><div xmlns="http://www.w3.org/1999/xhtml" style="display: table-cell; white-space: nowrap; line-height: 1.5;"><span class="edgeLabel"><p>0..*</p></span></div></foreignObject></g></g><g class="edgeTerminals" transform="translate(129.63671937499998, 143.5000005357143)"><g class="inner" transform="translate(-8.9453125, -8.25)"/><foreignObject width="17.890625" height="16.5" style="width: 36px; height: 12px;"><div xmlns="http://www.w3.org/1999/xhtml" style="display: table-cell; white-space: nowrap; line-height: 1.5;"><span class="edgeLabel"><p>0..*</p></span></div></foreignObject></g><g class="edgeTerminals" transform="translate(129.63671937499998, 385.50000053571426)"><g class="inner" transform="translate(-8.9453125, -8.25)"/><foreignObject width="17.890625" height="16.5" style="width: 36px; height: 12px;"><div xmlns="http://www.w3.org/1999/xhtml" style="display: table-cell; white-space: nowrap; line-height: 1.5;"><span class="edgeLabel"><p>1..*</p></span></div></foreignObject></g><g class="edgeTerminals" transform="translate(129.63671937499998, 603.5000005357143)"><g class="inner" transform="translate(-2.890625, -8.25)"/><foreignObject width="5.78125" height="16.5" style="width: 9px; height: 12px;"><div xmlns="http://www.w3.org/1999/xhtml" style="display: table-cell; white-space: nowrap; line-height: 1.5;"><span class="edgeLabel"><p>1</p></span></div></foreignObject></g></g><g class="nodes"><g class="node default" id="my-svg-classId-Cookbook-0" data-look="classic" transform="translate(119.63671875, 50)"><g class="basic label-container outer-path"><path d="M-48.421875 -42 L48.421875 -42 L48.421875 42 L-48.421875 42" stroke="none" stroke-width="0" fill="#ECECFF" style=""/><path d="M-48.421875 -42 C-15.298800222065353 -42, 17.824274555869295 -42, 48.421875 -42 M-48.421875 -42 C-16.593523587751587 -42, 15.234827824496826 -42, 48.421875 -42 M48.421875 -42 C48.421875 -18.360077790984178, 48.421875 5.279844418031644, 48.421875 42 M48.421875 -42 C48.421875 -14.243085299063857, 48.421875 13.513829401872286, 48.421875 42 M48.421875 42 C15.643068770236908 42, -17.135737459526183 42, -48.421875 42 M48.421875 42 C21.73010825308588 42, -4.961658493828239 42, -48.421875 42 M-48.421875 42 C-48.421875 24.771143338526286, -48.421875 7.542286677052573, -48.421875 -42 M-48.421875 42 C-48.421875 8.677136326516695, -48.421875 -24.64572734696661, -48.421875 -42" stroke="#9370DB" stroke-width="1.3" fill="none" stroke-dasharray="0 0" style=""/></g><g class="annotation-group text" transform="translate(0, -18)"/><g class="label-group text" transform="translate(-36.421875, -18)"><g class="label" style="font-weight: bolder" transform="translate(0,-12)"><foreignObject width="72.84375" height="24"><div xmlns="http://www.w3.org/1999/xhtml" style="display: table-cell; white-space: nowrap; line-height: 1.5; max-width: 117px; text-align: center;"><span class="nodeLabel markdown-node-label" style=""><p>Cookbook</p></span></div></foreignObject></g></g><g class="members-group text" transform="translate(-36.421875, 30)"/><g class="methods-group text" transform="translate(-36.421875, 60)"/><g class="divider" style=""><path d="M-48.421875 6 C-18.334078841768516 6.000310683922899, 11.753717316462968 6.000621367845798, 48.421875 6.001 M-48.421875 6 C-24.209792823226337 6.000250011819832, 0.0022893535473258453 6.000500023639662, 48.421875 6.001" stroke="#9370DB" stroke-width="1.3" fill="none" stroke-dasharray="0 0" style=""/></g><g class="divider" style=""><path d="M-48.421875 24 C-28.250740578324308 24.000208285350595, -8.079606156648616 24.00041657070119, 48.421875 24.001 M-48.421875 24 C-19.159473923210193 24.000302160966267, 10.102927153579614 24.00060432193253, 48.421875 24.001" stroke="#9370DB" stroke-width="1.3" fill="none" stroke-dasharray="0 0" style=""/></g></g><g class="node default" id="my-svg-classId-Recipe-1" data-look="classic" transform="translate(119.63671875, 250)"><g class="basic label-container outer-path"><path d="M-111.63671875 -84 L111.63671875 -84 L111.63671875 84 L-111.63671875 84" stroke="none" stroke-width="0" fill="#ECECFF" style=""/><path d="M-111.63671875 -84 C-48.408196533000556 -84, 14.820325683998888 -84, 111.63671875 -84 M-111.63671875 -84 C-22.366331202812333 -84, 66.90405634437533 -84, 111.63671875 -84 M111.63671875 -84 C111.63671875 -30.479493603353973, 111.63671875 23.041012793292055, 111.63671875 84 M111.63671875 -84 C111.63671875 -44.295520794264036, 111.63671875 -4.591041588528071, 111.63671875 84 M111.63671875 84 C60.68007167479376 84, 9.723424599587517 84, -111.63671875 84 M111.63671875 84 C54.947815631736006 84, -1.741087486527988 84, -111.63671875 84 M-111.63671875 84 C-111.63671875 24.996456882355446, -111.63671875 -34.00708623528911, -111.63671875 -84 M-111.63671875 84 C-111.63671875 29.32356772826767, -111.63671875 -25.352864543464662, -111.63671875 -84" stroke="#9370DB" stroke-width="1.3" fill="none" stroke-dasharray="0 0" style=""/></g><g class="annotation-group text" transform="translate(0, -60)"/><g class="label-group text" transform="translate(-25.2265625, -60)"><g class="label" style="font-weight: bolder" transform="translate(0,-12)"><foreignObject width="50.453125" height="24"><div xmlns="http://www.w3.org/1999/xhtml" style="display: table-cell; white-space: nowrap; line-height: 1.5; max-width: 94px; text-align: center;"><span class="nodeLabel markdown-node-label" style=""><p>Recipe</p></span></div></foreignObject></g></g><g class="members-group text" transform="translate(-99.63671875, -12)"><g class="label" style="" transform="translate(0,-12)"><foreignObject width="85.5" height="24"><div xmlns="http://www.w3.org/1999/xhtml" style="display: table-cell; white-space: nowrap; line-height: 1.5; max-width: 131px; text-align: center;"><span class="nodeLabel markdown-node-label" style=""><p>+String title</p></span></div></foreignObject></g><g class="label" style="" transform="translate(0,12)"><foreignObject width="174.046875" height="24"><div xmlns="http://www.w3.org/1999/xhtml" style="display: table-cell; white-space: nowrap; line-height: 1.5; max-width: 213px; text-align: center;"><span class="nodeLabel markdown-node-label" style=""><p>+String preparationTime</p></span></div></foreignObject></g><g class="label" style="" transform="translate(0,36)"><foreignObject width="120.296875" height="24"><div xmlns="http://www.w3.org/1999/xhtml" style="display: table-cell; white-space: nowrap; line-height: 1.5; max-width: 166px; text-align: center;"><span class="nodeLabel markdown-node-label" style=""><p>+String difficulty</p></span></div></foreignObject></g></g><g class="methods-group text" transform="translate(-99.63671875, 84)"/><g class="divider" style=""><path d="M-111.63671875 -36 C-60.31511661972814 -35.99977014013532, -8.993514489456274 -35.999540280270644, 111.63671875 -35.999 M-111.63671875 -36 C-26.47708125440296 -35.99961858589876, 58.68255624119408 -35.99923717179752, 111.63671875 -35.999" stroke="#9370DB" stroke-width="1.3" fill="none" stroke-dasharray="0 0" style=""/></g><g class="divider" style=""><path d="M-111.63671875 60 C-58.38356497358854 60.00023851092352, -5.130411197177082 60.00047702184705, 111.63671875 60.001 M-111.63671875 60 C-28.38189507449748 60.00037288279612, 54.87292860100504 60.00074576559225, 111.63671875 60.001" stroke="#9370DB" stroke-width="1.3" fill="none" stroke-dasharray="0 0" style=""/></g></g><g class="node default" id="my-svg-classId-IngredientEntry-2" data-look="classic" transform="translate(119.63671875, 480)"><g class="basic label-container outer-path"><path d="M-98.6953125 -72 L98.6953125 -72 L98.6953125 72 L-98.6953125 72" stroke="none" stroke-width="0" fill="#ECECFF" style=""/><path d="M-98.6953125 -72 C-20.68843933031117 -72, 57.31843383937766 -72, 98.6953125 -72 M-98.6953125 -72 C-55.00906707816671 -72, -11.322821656333417 -72, 98.6953125 -72 M98.6953125 -72 C98.6953125 -39.98791395135271, 98.6953125 -7.975827902705419, 98.6953125 72 M98.6953125 -72 C98.6953125 -17.88192678892988, 98.6953125 36.23614642214024, 98.6953125 72 M98.6953125 72 C23.897601752513864 72, -50.90010899497227 72, -98.6953125 72 M98.6953125 72 C36.65608733371401 72, -25.383137832571975 72, -98.6953125 72 M-98.6953125 72 C-98.6953125 26.476462152378787, -98.6953125 -19.047075695242427, -98.6953125 -72 M-98.6953125 72 C-98.6953125 18.376242015705586, -98.6953125 -35.24751596858883, -98.6953125 -72" stroke="#9370DB" stroke-width="1.3" fill="none" stroke-dasharray="0 0" style=""/></g><g class="annotation-group text" transform="translate(0, -48)"/><g class="label-group text" transform="translate(-58.640625, -48)"><g class="label" style="font-weight: bolder" transform="translate(0,-12)"><foreignObject width="117.28125" height="24"><div xmlns="http://www.w3.org/1999/xhtml" style="display: table-cell; white-space: nowrap; line-height: 1.5; max-width: 151px; text-align: center;"><span class="nodeLabel markdown-node-label" style=""><p>IngredientEntry</p></span></div></foreignObject></g></g><g class="members-group text" transform="translate(-86.6953125, 0)"><g class="label" style="" transform="translate(0,-12)"><foreignObject width="114.75" height="24"><div xmlns="http://www.w3.org/1999/xhtml" style="display: table-cell; white-space: nowrap; line-height: 1.5; max-width: 159px; text-align: center;"><span class="nodeLabel markdown-node-label" style=""><p>+String quantity</p></span></div></foreignObject></g><g class="label" style="" transform="translate(0,12)"><foreignObject width="83.203125" height="24"><div xmlns="http://www.w3.org/1999/xhtml" style="display: table-cell; white-space: nowrap; line-height: 1.5; max-width: 132px; text-align: center;"><span class="nodeLabel markdown-node-label" style=""><p>+String unit</p></span></div></foreignObject></g></g><g class="methods-group text" transform="translate(-86.6953125, 72)"/><g class="divider" style=""><path d="M-98.6953125 -24 C-54.30324679899198 -23.99977510550108, -9.911181097983956 -23.99955021100216, 98.6953125 -23.999 M-98.6953125 -24 C-25.153922448864392 -23.999627432204285, 48.387467602271215 -23.999254864408567, 98.6953125 -23.999" stroke="#9370DB" stroke-width="1.3" fill="none" stroke-dasharray="0 0" style=""/></g><g class="divider" style=""><path d="M-98.6953125 48 C-39.46098577681893 48.000300086828965, 19.77334094636214 48.00060017365792, 98.6953125 48.001 M-98.6953125 48 C-52.757403215937416 48.00023272589204, -6.819493931874831 48.00046545178409, 98.6953125 48.001" stroke="#9370DB" stroke-width="1.3" fill="none" stroke-dasharray="0 0" style=""/></g></g><g class="node default" id="my-svg-classId-Ingredient-3" data-look="classic" transform="translate(119.63671875, 668)"><g class="basic label-container outer-path"><path d="M-50.5078125 -42 L50.5078125 -42 L50.5078125 42 L-50.5078125 42" stroke="none" stroke-width="0" fill="#ECECFF" style=""/><path d="M-50.5078125 -42 C-22.82886857447005 -42, 4.8500753510599 -42, 50.5078125 -42 M-50.5078125 -42 C-18.086030019864104 -42, 14.335752460271792 -42, 50.5078125 -42 M50.5078125 -42 C50.5078125 -24.806928476893123, 50.5078125 -7.613856953786247, 50.5078125 42 M50.5078125 -42 C50.5078125 -21.600040477109246, 50.5078125 -1.2000809542184925, 50.5078125 42 M50.5078125 42 C13.29387115996407 42, -23.92007018007186 42, -50.5078125 42 M50.5078125 42 C30.052362068759166 42, 9.596911637518332 42, -50.5078125 42 M-50.5078125 42 C-50.5078125 21.890577554419558, -50.5078125 1.7811551088391155, -50.5078125 -42 M-50.5078125 42 C-50.5078125 9.667683166198117, -50.5078125 -22.664633667603766, -50.5078125 -42" stroke="#9370DB" stroke-width="1.3" fill="none" stroke-dasharray="0 0" style=""/></g><g class="annotation-group text" transform="translate(0, -18)"/><g class="label-group text" transform="translate(-38.5078125, -18)"><g class="label" style="font-weight: bolder" transform="translate(0,-12)"><foreignObject width="77.015625" height="24"><div xmlns="http://www.w3.org/1999/xhtml" style="display: table-cell; white-space: nowrap; line-height: 1.5; max-width: 116px; text-align: center;"><span class="nodeLabel markdown-node-label" style=""><p>Ingredient</p></span></div></foreignObject></g></g><g class="members-group text" transform="translate(-38.5078125, 30)"/><g class="methods-group text" transform="translate(-38.5078125, 60)"/><g class="divider" style=""><path d="M-50.5078125 6 C-29.305845044267226 6.000209887999562, -8.103877588534452 6.000419775999124, 50.5078125 6.001 M-50.5078125 6 C-11.050160281467868 6.000390609395512, 28.407491937064265 6.000781218791024, 50.5078125 6.001" stroke="#9370DB" stroke-width="1.3" fill="none" stroke-dasharray="0 0" style=""/></g><g class="divider" style=""><path d="M-50.5078125 24 C-26.10059219736452 24.0002416182675, -1.6933718947290402 24.000483236534993, 50.5078125 24.001 M-50.5078125 24 C-27.60449991205954 24.0002267303953, -4.701187324119083 24.000453460790606, 50.5078125 24.001" stroke="#9370DB" stroke-width="1.3" fill="none" stroke-dasharray="0 0" style=""/></g></g></g></g></g><defs><filter id="my-svg-drop-shadow" height="130%" width="130%"><feDropShadow dx="4" dy="4" stdDeviation="0" flood-opacity="0.06" flood-color="#000000"/></filter></defs><defs><filter id="my-svg-drop-shadow-small" height="150%" width="150%"><feDropShadow dx="2" dy="2" stdDeviation="0" flood-opacity="0.06" flood-color="#000000"/></filter></defs></svg>