<svg xmlns="http://www.w3.org/2000/svg" xmlns:xlink="http://www.w3.org/1999/xlink" contentStyleType="text/css" data-diagram-type="CLASS" height="593px" preserveAspectRatio="none" style="width:338px;height:593px;background:#FFFFFF;" version="1.1" viewBox="0 0 338 593" width="338px" zoomAndPan="magnify"><?plantuml 1.2026.6?><defs/><g><!--class DifficultyLevel--><g class="entity" data-qualified-name="DifficultyLevel" data-source-line="1" id="ent0001"><rect fill="#F1F1F1" height="97.4648" rx="2.5" ry="2.5" style="stroke:#181818;stroke-width:0.5;" width="127.6895" x="7" y="7"/><ellipse cx="22" cy="23" fill="#EB937F" rx="11" ry="11" style="stroke:#181818;stroke-width:1;"/><path d="M25.6143,29.5 L17.8945,29.5 L17.8945,17.1069 L25.6143,17.1069 L25.6143,19.2651 L20.3433,19.2651 L20.3433,21.938 L25.1162,21.938 L25.1162,24.0962 L20.3433,24.0962 L20.3433,27.3418 L25.6143,27.3418 Z " fill="#000000"/><text fill="#000000" font-family="sans-serif" font-size="14" lengthAdjust="spacing" textLength="95.6895" x="36" y="28.291">DifficultyLevel</text><line style="stroke:#181818;stroke-width:0.5;" x1="8" x2="133.6895" y1="39" y2="39"/><text fill="#000000" font-family="sans-serif" font-size="14" lengthAdjust="spacing" textLength="29.7705" x="13" y="56.5352">Easy</text><text fill="#000000" font-family="sans-serif" font-size="14" lengthAdjust="spacing" textLength="54.4756" x="13" y="73.0234">Medium</text><text fill="#000000" font-family="sans-serif" font-size="14" lengthAdjust="spacing" textLength="78.0527" x="13" y="89.5117">Demanding</text><line style="stroke:#181818;stroke-width:0.5;" x1="8" x2="133.6895" y1="96.4648" y2="96.4648"/></g><!--class Cookbook--><g class="entity" data-qualified-name="Cookbook" data-source-line="7" id="ent0002"><rect fill="#F1F1F1" height="64.4883" rx="2.5" ry="2.5" style="stroke:#181818;stroke-width:0.5;" width="101.2617" x="169.21" y="23.48"/><ellipse cx="184.21" cy="39.48" fill="#ADD1B2" rx="11" ry="11" style="stroke:#181818;stroke-width:1;"/><path d="M186.6831,45.6231 Q186.1021,45.9219 185.4629,46.0713 Q184.8238,46.2207 184.1182,46.2207 Q181.6114,46.2207 180.2915,44.5689 Q178.9717,42.917 178.9717,39.7959 Q178.9717,36.6665 180.2915,35.0147 Q181.6114,33.3628 184.1182,33.3628 Q184.8238,33.3628 185.4712,33.5122 Q186.1187,33.6616 186.6831,33.9605 L186.6831,36.6831 Q186.0523,36.1021 185.4588,35.8323 Q184.8653,35.5625 184.2344,35.5625 Q182.8897,35.5625 182.2049,36.6292 Q181.5201,37.6958 181.5201,39.7959 Q181.5201,41.8877 182.2049,42.9544 Q182.8897,44.021 184.2344,44.021 Q184.8653,44.021 185.4588,43.7512 Q186.0523,43.4815 186.6831,42.9004 Z " fill="#000000"/><text fill="#000000" font-family="sans-serif" font-size="14" lengthAdjust="spacing" textLength="69.2617" x="198.21" y="44.771">Cookbook</text><line style="stroke:#181818;stroke-width:0.5;" x1="170.21" x2="269.4717" y1="55.48" y2="55.48"/><g data-visibility-modifier="PUBLIC_FIELD"><ellipse cx="180.21" cy="69.2241" fill="none" rx="3" ry="3" style="stroke:#038048;stroke-width:1;"/></g><text fill="#000000" font-family="sans-serif" font-size="14" lengthAdjust="spacing" textLength="75.1953" x="189.21" y="73.0152">title: String</text><line style="stroke:#181818;stroke-width:0.5;" x1="170.21" x2="269.4717" y1="79.9683" y2="79.9683"/></g><!--class Recipe--><g class="entity" data-qualified-name="Recipe" data-source-line="11" id="ent0003"><rect fill="#F1F1F1" height="97.4648" rx="2.5" ry="2.5" style="stroke:#181818;stroke-width:0.5;" width="206.749" x="116.47" y="181.46"/><ellipse cx="193.3538" cy="197.46" fill="#ADD1B2" rx="11" ry="11" style="stroke:#181818;stroke-width:1;"/><path d="M195.8269,203.6031 Q195.2459,203.9019 194.6067,204.0513 Q193.9676,204.2007 193.262,204.2007 Q190.7552,204.2007 189.4353,202.5489 Q188.1155,200.897 188.1155,197.7759 Q188.1155,194.6465 189.4353,192.9947 Q190.7552,191.3428 193.262,191.3428 Q193.9676,191.3428 194.615,191.4922 Q195.2625,191.6416 195.8269,191.9405 L195.8269,194.6631 Q195.1961,194.0821 194.6026,193.8123 Q194.0091,193.5425 193.3782,193.5425 Q192.0335,193.5425 191.3487,194.6092 Q190.6638,195.6758 190.6638,197.7759 Q190.6638,199.8677 191.3487,200.9344 Q192.0335,202.001 193.3782,202.001 Q194.0091,202.001 194.6026,201.7312 Q195.1961,201.4615 195.8269,200.8804 Z " fill="#000000"/><text fill="#000000" font-family="sans-serif" font-size="14" lengthAdjust="spacing" textLength="44.4814" x="213.8538" y="202.751">Recipe</text><line style="stroke:#181818;stroke-width:0.5;" x1="117.47" x2="322.219" y1="213.46" y2="213.46"/><g data-visibility-modifier="PUBLIC_FIELD"><ellipse cx="127.47" cy="227.2041" fill="none" rx="3" ry="3" style="stroke:#038048;stroke-width:1;"/></g><text fill="#000000" font-family="sans-serif" font-size="14" lengthAdjust="spacing" textLength="75.1953" x="136.47" y="230.9952">title: String</text><g data-visibility-modifier="PUBLIC_FIELD"><ellipse cx="127.47" cy="243.6924" fill="none" rx="3" ry="3" style="stroke:#038048;stroke-width:1;"/></g><text fill="#000000" font-family="sans-serif" font-size="14" lengthAdjust="spacing" textLength="180.749" x="136.47" y="247.4834">preparationTime: Duration</text><g data-visibility-modifier="PUBLIC_FIELD"><ellipse cx="127.47" cy="260.1807" fill="none" rx="3" ry="3" style="stroke:#038048;stroke-width:1;"/></g><text fill="#000000" font-family="sans-serif" font-size="14" lengthAdjust="spacing" textLength="164.2061" x="136.47" y="263.9717">difficulty: DifficultyLevel</text><line style="stroke:#181818;stroke-width:0.5;" x1="117.47" x2="322.219" y1="270.9248" y2="270.9248"/></g><!--class IngredientEntry--><g class="entity" data-qualified-name="IngredientEntry" data-source-line="17" id="ent0004"><rect fill="#F1F1F1" height="80.9766" rx="2.5" ry="2.5" style="stroke:#181818;stroke-width:0.5;" width="139.0459" x="150.32" y="355.93"/><ellipse cx="166.6375" cy="371.93" fill="#ADD1B2" rx="11" ry="11" style="stroke:#181818;stroke-width:1;"/><path d="M169.1106,378.0731 Q168.5296,378.3719 167.8904,378.5213 Q167.2513,378.6707 166.5457,378.6707 Q164.0388,378.6707 162.719,377.0189 Q161.3992,375.367 161.3992,372.2459 Q161.3992,369.1165 162.719,367.4647 Q164.0388,365.8128 166.5457,365.8128 Q167.2513,365.8128 167.8987,365.9622 Q168.5462,366.1116 169.1106,366.4105 L169.1106,369.1331 Q168.4798,368.5521 167.8863,368.2823 Q167.2928,368.0125 166.6619,368.0125 Q165.3172,368.0125 164.6324,369.0792 Q163.9475,370.1458 163.9475,372.2459 Q163.9475,374.3377 164.6324,375.4044 Q165.3172,376.471 166.6619,376.471 Q167.2928,376.471 167.8863,376.2012 Q168.4798,375.9315 169.1106,375.3504 Z " fill="#000000"/><text fill="#000000" font-family="sans-serif" font-size="14" lengthAdjust="spacing" textLength="104.1182" x="180.9303" y="377.221">IngredientEntry</text><line style="stroke:#181818;stroke-width:0.5;" x1="151.32" x2="288.3659" y1="387.93" y2="387.93"/><g data-visibility-modifier="PUBLIC_FIELD"><ellipse cx="161.32" cy="401.6741" fill="none" rx="3" ry="3" style="stroke:#038048;stroke-width:1;"/></g><text fill="#000000" font-family="sans-serif" font-size="14" lengthAdjust="spacing" textLength="113.0459" x="170.32" y="405.4652">quantity: Double</text><g data-visibility-modifier="PUBLIC_FIELD"><ellipse cx="161.32" cy="418.1624" fill="none" rx="3" ry="3" style="stroke:#038048;stroke-width:1;"/></g><text fill="#000000" font-family="sans-serif" font-size="14" lengthAdjust="spacing" textLength="75.4893" x="170.32" y="421.9534">unit: String</text><line style="stroke:#181818;stroke-width:0.5;" x1="151.32" x2="288.3659" y1="428.9066" y2="428.9066"/></g><!--class Ingredient--><g class="entity" data-qualified-name="Ingredient" data-source-line="22" id="ent0005"><rect fill="#F1F1F1" height="64.4883" rx="2.5" ry="2.5" style="stroke:#181818;stroke-width:0.5;" width="112.1191" x="163.79" y="513.9"/><ellipse cx="183.5405" cy="529.9" fill="#ADD1B2" rx="11" ry="11" style="stroke:#181818;stroke-width:1;"/><path d="M186.0136,536.0431 Q185.4326,536.3419 184.7934,536.4913 Q184.1543,536.6407 183.4487,536.6407 Q180.9419,536.6407 179.622,534.9889 Q178.3022,533.337 178.3022,530.2159 Q178.3022,527.0865 179.622,525.4347 Q180.9419,523.7828 183.4487,523.7828 Q184.1543,523.7828 184.8017,523.9322 Q185.4492,524.0816 186.0136,524.3805 L186.0136,527.1031 Q185.3828,526.5221 184.7893,526.2523 Q184.1958,525.9825 183.5649,525.9825 Q182.2202,525.9825 181.5354,527.0492 Q180.8505,528.1158 180.8505,530.2159 Q180.8505,532.3077 181.5354,533.3744 Q182.2202,534.441 183.5649,534.441 Q184.1958,534.441 184.7893,534.1712 Q185.3828,533.9015 186.0136,533.3204 Z " fill="#000000"/><text fill="#000000" font-family="sans-serif" font-size="14" lengthAdjust="spacing" textLength="69.5625" x="198.5962" y="535.191">Ingredient</text><line style="stroke:#181818;stroke-width:0.5;" x1="164.79" x2="274.9091" y1="545.9" y2="545.9"/><g data-visibility-modifier="PUBLIC_FIELD"><ellipse cx="174.79" cy="559.6441" fill="none" rx="3" ry="3" style="stroke:#038048;stroke-width:1;"/></g><text fill="#000000" font-family="sans-serif" font-size="14" lengthAdjust="spacing" textLength="86.1191" x="183.79" y="563.4352">name: String</text><line style="stroke:#181818;stroke-width:0.5;" x1="164.79" x2="274.9091" y1="570.3883" y2="570.3883"/></g><!--reverse link Cookbook to Recipe--><g class="link" data-entity-1="ent0002" data-entity-2="ent0003" data-link-type="composition" data-source-line="26" id="lnk6"><path codeLine="26" d="M219.84,100.36 C219.84,126.32 219.84,151.51 219.84,181.15" fill="none" id="Cookbook-backto-Recipe" style="stroke:#181818;stroke-width:1;"/><polygon fill="#181818" points="219.84,88.36,215.84,94.36,219.84,100.36,223.84,94.36,219.84,88.36" style="stroke:#181818;stroke-width:1;stroke-linejoin:miter;stroke-miterlimit:10;"/><text fill="#000000" font-family="sans-serif" font-size="13" lengthAdjust="spacing" textLength="45.0303" x="220.84" y="148.0284">recipes</text><text fill="#000000" font-family="sans-serif" font-size="13" lengthAdjust="spacing" textLength="8.2202" x="211.0983" y="108.6089">1</text><text fill="#000000" font-family="sans-serif" font-size="13" lengthAdjust="spacing" textLength="22.7119" x="196.3425" y="170.7889">0..*</text></g><!--reverse link Recipe to IngredientEntry--><g class="link" data-entity-1="ent0003" data-entity-2="ent0004" data-link-type="composition" data-source-line="27" id="lnk7"><path codeLine="27" d="M219.84,291.13 C219.84,315.37 219.84,332.44 219.84,355.45" fill="none" id="Recipe-backto-IngredientEntry" style="stroke:#181818;stroke-width:1;"/><polygon fill="#181818" points="219.84,279.13,215.84,285.13,219.84,291.13,223.84,285.13,219.84,279.13" style="stroke:#181818;stroke-width:1;stroke-linejoin:miter;stroke-miterlimit:10;"/><text fill="#000000" font-family="sans-serif" font-size="13" lengthAdjust="spacing" textLength="43.1196" x="220.84" y="322.4984">entries</text><text fill="#000000" font-family="sans-serif" font-size="13" lengthAdjust="spacing" textLength="8.2202" x="211.2923" y="299.6567">1</text><text fill="#000000" font-family="sans-serif" font-size="13" lengthAdjust="spacing" textLength="22.7119" x="196.1431" y="345.3185">1..*</text></g><!--link IngredientEntry to Ingredient--><g class="link" data-entity-1="ent0004" data-entity-2="ent0005" data-link-type="dependency" data-source-line="28" id="lnk8"><path codeLine="28" d="M219.84,437.39 C219.84,461.32 219.84,486.3 219.84,508.56" fill="none" id="IngredientEntry-to-Ingredient" style="stroke:#181818;stroke-width:1;"/><polygon fill="#181818" points="219.84,513.56,223.84,504.56,219.84,508.56,215.84,504.56,219.84,513.56" style="stroke:#181818;stroke-width:1;stroke-linejoin:miter;stroke-miterlimit:10;"/><text fill="#000000" font-family="sans-serif" font-size="13" lengthAdjust="spacing" textLength="52.7363" x="220.84" y="480.4684">refersTo</text><text fill="#000000" font-family="sans-serif" font-size="13" lengthAdjust="spacing" textLength="22.7119" x="196.2097" y="457.4044">0..*</text><text fill="#000000" font-family="sans-serif" font-size="13" lengthAdjust="spacing" textLength="8.2202" x="211.0723" y="503.2674">1</text></g><?plantuml-src RK_BRi903BplLrWvKWN1DGSk3OTAz0Bym98uoEgkDzq7KeJuTvo4XfBsi5fxF3CU8oSB9JKDLSd4ReSND71L05iTEla-iQPafIZHQgw9p-gcL6Lq2F3ktDT9ti1_YnGD5d28_eMqnufQ_8yYGEknrLv7SdmaAwCoZLq_hATKnJpXq_w3pruY8iSjHz-DUxwJPjdLwrmw6Uonn1J_fdlAHoLh-tB3T6Aspc2Hvv2jbij5zdDL0NueWde04sqzqERf2f3Ia_3dauTldcy6Zr-v-XqD-d1qTm00?></g></svg>