<svg xmlns="http://www.w3.org/2000/svg" xmlns:xlink="http://www.w3.org/1999/xlink" contentStyleType="text/css" data-diagram-type="CLASS" height="286px" preserveAspectRatio="none" style="width:669px;height:286px;background:#FFFFFF;" version="1.1" viewBox="0 0 669 286" width="669px" zoomAndPan="magnify"><?plantuml 1.2026.6?><defs/><g><!--class Bicycle--><g class="entity" data-qualified-name="Bicycle" data-source-line="2" id="ent0001"><rect fill="#F1F1F1" height="48" rx="2.5" ry="2.5" style="stroke:#181818;stroke-width:0.5;" width="77.6025" x="292.21" y="7"/><ellipse cx="307.21" cy="23" fill="#ADD1B2" rx="11" ry="11" style="stroke:#181818;stroke-width:1;"/><path d="M309.6831,29.1431 Q309.1021,29.4419 308.4629,29.5913 Q307.8238,29.7407 307.1182,29.7407 Q304.6114,29.7407 303.2915,28.0889 Q301.9717,26.437 301.9717,23.3159 Q301.9717,20.1865 303.2915,18.5347 Q304.6114,16.8828 307.1182,16.8828 Q307.8238,16.8828 308.4712,17.0322 Q309.1187,17.1816 309.6831,17.4805 L309.6831,20.2031 Q309.0523,19.6221 308.4588,19.3523 Q307.8653,19.0825 307.2344,19.0825 Q305.8897,19.0825 305.2049,20.1492 Q304.5201,21.2158 304.5201,23.3159 Q304.5201,25.4077 305.2049,26.4744 Q305.8897,27.541 307.2344,27.541 Q307.8653,27.541 308.4588,27.2712 Q309.0523,27.0015 309.6831,26.4204 Z " fill="#000000"/><text fill="#000000" font-family="sans-serif" font-size="14" lengthAdjust="spacing" textLength="45.6025" x="321.21" y="28.291">Bicycle</text><line style="stroke:#181818;stroke-width:0.5;" x1="293.21" x2="368.8125" y1="39" y2="39"/><line style="stroke:#181818;stroke-width:0.5;" x1="293.21" x2="368.8125" y1="47" y2="47"/></g><!--class Frame--><g class="entity" data-qualified-name="Frame" data-source-line="3" id="ent0002"><rect fill="#F1F1F1" height="48" rx="2.5" ry="2.5" style="stroke:#181818;stroke-width:0.5;" width="73.8359" x="93.09" y="115"/><ellipse cx="108.09" cy="131" fill="#ADD1B2" rx="11" ry="11" style="stroke:#181818;stroke-width:1;"/><path d="M110.5631,137.1431 Q109.9821,137.4419 109.3429,137.5913 Q108.7038,137.7407 107.9982,137.7407 Q105.4914,137.7407 104.1715,136.0889 Q102.8517,134.437 102.8517,131.3159 Q102.8517,128.1865 104.1715,126.5347 Q105.4914,124.8828 107.9982,124.8828 Q108.7038,124.8828 109.3512,125.0322 Q109.9987,125.1816 110.5631,125.4805 L110.5631,128.2031 Q109.9323,127.6221 109.3388,127.3523 Q108.7453,127.0825 108.1144,127.0825 Q106.7697,127.0825 106.0849,128.1492 Q105.4001,129.2158 105.4001,131.3159 Q105.4001,133.4077 106.0849,134.4744 Q106.7697,135.541 108.1144,135.541 Q108.7453,135.541 109.3388,135.2712 Q109.9323,135.0015 110.5631,134.4204 Z " fill="#000000"/><text fill="#000000" font-family="sans-serif" font-size="14" lengthAdjust="spacing" textLength="41.8359" x="122.09" y="136.291">Frame</text><line style="stroke:#181818;stroke-width:0.5;" x1="94.09" x2="165.9259" y1="147" y2="147"/><line style="stroke:#181818;stroke-width:0.5;" x1="94.09" x2="165.9259" y1="155" y2="155"/></g><!--class Drivetrain--><g class="entity" data-qualified-name="Drivetrain" data-source-line="4" id="ent0003"><rect fill="#F1F1F1" height="48" rx="2.5" ry="2.5" style="stroke:#181818;stroke-width:0.5;" width="98.7393" x="201.64" y="115"/><ellipse cx="216.64" cy="131" fill="#ADD1B2" rx="11" ry="11" style="stroke:#181818;stroke-width:1;"/><path d="M219.1131,137.1431 Q218.5321,137.4419 217.8929,137.5913 Q217.2538,137.7407 216.5482,137.7407 Q214.0414,137.7407 212.7215,136.0889 Q211.4017,134.437 211.4017,131.3159 Q211.4017,128.1865 212.7215,126.5347 Q214.0414,124.8828 216.5482,124.8828 Q217.2538,124.8828 217.9012,125.0322 Q218.5487,125.1816 219.1131,125.4805 L219.1131,128.2031 Q218.4823,127.6221 217.8888,127.3523 Q217.2953,127.0825 216.6644,127.0825 Q215.3197,127.0825 214.6349,128.1492 Q213.9501,129.2158 213.9501,131.3159 Q213.9501,133.4077 214.6349,134.4744 Q215.3197,135.541 216.6644,135.541 Q217.2953,135.541 217.8888,135.2712 Q218.4823,135.0015 219.1131,134.4204 Z " fill="#000000"/><text fill="#000000" font-family="sans-serif" font-size="14" lengthAdjust="spacing" textLength="66.7393" x="230.64" y="136.291">Drivetrain</text><line style="stroke:#181818;stroke-width:0.5;" x1="202.64" x2="299.3793" y1="147" y2="147"/><line style="stroke:#181818;stroke-width:0.5;" x1="202.64" x2="299.3793" y1="155" y2="155"/></g><!--class SteeringAssembly--><g class="entity" data-qualified-name="SteeringAssembly" data-source-line="5" id="ent0004"><rect fill="#F1F1F1" height="48" rx="2.5" ry="2.5" style="stroke:#181818;stroke-width:0.5;" width="152.5449" x="335.74" y="115"/><ellipse cx="350.74" cy="131" fill="#ADD1B2" rx="11" ry="11" style="stroke:#181818;stroke-width:1;"/><path d="M353.2131,137.1431 Q352.6321,137.4419 351.9929,137.5913 Q351.3538,137.7407 350.6482,137.7407 Q348.1414,137.7407 346.8215,136.0889 Q345.5017,134.437 345.5017,131.3159 Q345.5017,128.1865 346.8215,126.5347 Q348.1414,124.8828 350.6482,124.8828 Q351.3538,124.8828 352.0012,125.0322 Q352.6487,125.1816 353.2131,125.4805 L353.2131,128.2031 Q352.5823,127.6221 351.9888,127.3523 Q351.3953,127.0825 350.7644,127.0825 Q349.4197,127.0825 348.7349,128.1492 Q348.0501,129.2158 348.0501,131.3159 Q348.0501,133.4077 348.7349,134.4744 Q349.4197,135.541 350.7644,135.541 Q351.3953,135.541 351.9888,135.2712 Q352.5823,135.0015 353.2131,134.4204 Z " fill="#000000"/><text fill="#000000" font-family="sans-serif" font-size="14" lengthAdjust="spacing" textLength="120.5449" x="364.74" y="136.291">SteeringAssembly</text><line style="stroke:#181818;stroke-width:0.5;" x1="336.74" x2="487.2849" y1="147" y2="147"/><line style="stroke:#181818;stroke-width:0.5;" x1="336.74" x2="487.2849" y1="155" y2="155"/></g><!--class BrakingSystem--><g class="entity" data-qualified-name="BrakingSystem" data-source-line="6" id="ent0005"><rect fill="#F1F1F1" height="48" rx="2.5" ry="2.5" style="stroke:#181818;stroke-width:0.5;" width="131.2578" x="523.38" y="115"/><ellipse cx="538.38" cy="131" fill="#ADD1B2" rx="11" ry="11" style="stroke:#181818;stroke-width:1;"/><path d="M540.8531,137.1431 Q540.2721,137.4419 539.6329,137.5913 Q538.9938,137.7407 538.2882,137.7407 Q535.7814,137.7407 534.4615,136.0889 Q533.1417,134.437 533.1417,131.3159 Q533.1417,128.1865 534.4615,126.5347 Q535.7814,124.8828 538.2882,124.8828 Q538.9938,124.8828 539.6412,125.0322 Q540.2887,125.1816 540.8531,125.4805 L540.8531,128.2031 Q540.2223,127.6221 539.6288,127.3523 Q539.0353,127.0825 538.4044,127.0825 Q537.0597,127.0825 536.3749,128.1492 Q535.6901,129.2158 535.6901,131.3159 Q535.6901,133.4077 536.3749,134.4744 Q537.0597,135.541 538.4044,135.541 Q539.0353,135.541 539.6288,135.2712 Q540.2223,135.0015 540.8531,134.4204 Z " fill="#000000"/><text fill="#000000" font-family="sans-serif" font-size="14" lengthAdjust="spacing" textLength="99.2578" x="552.38" y="136.291">BrakingSystem</text><line style="stroke:#181818;stroke-width:0.5;" x1="524.38" x2="653.6378" y1="147" y2="147"/><line style="stroke:#181818;stroke-width:0.5;" x1="524.38" x2="653.6378" y1="155" y2="155"/></g><!--class Crank--><g class="entity" data-qualified-name="Crank" data-source-line="7" id="ent0006"><rect fill="#F1F1F1" height="48" rx="2.5" ry="2.5" style="stroke:#181818;stroke-width:0.5;" width="72.0176" x="7" y="223"/><ellipse cx="22" cy="239" fill="#ADD1B2" rx="11" ry="11" style="stroke:#181818;stroke-width:1;"/><path d="M24.4731,245.1431 Q23.8921,245.4419 23.2529,245.5913 Q22.6138,245.7407 21.9082,245.7407 Q19.4014,245.7407 18.0815,244.0889 Q16.7617,242.437 16.7617,239.3159 Q16.7617,236.1865 18.0815,234.5347 Q19.4014,232.8828 21.9082,232.8828 Q22.6138,232.8828 23.2612,233.0322 Q23.9087,233.1816 24.4731,233.4805 L24.4731,236.2031 Q23.8423,235.6221 23.2488,235.3523 Q22.6553,235.0825 22.0244,235.0825 Q20.6797,235.0825 19.9949,236.1492 Q19.3101,237.2158 19.3101,239.3159 Q19.3101,241.4077 19.9949,242.4744 Q20.6797,243.541 22.0244,243.541 Q22.6553,243.541 23.2488,243.2712 Q23.8423,243.0015 24.4731,242.4204 Z " fill="#000000"/><text fill="#000000" font-family="sans-serif" font-size="14" lengthAdjust="spacing" textLength="40.0176" x="36" y="244.291">Crank</text><line style="stroke:#181818;stroke-width:0.5;" x1="8" x2="78.0176" y1="255" y2="255"/><line style="stroke:#181818;stroke-width:0.5;" x1="8" x2="78.0176" y1="263" y2="263"/></g><!--class Chain--><g class="entity" data-qualified-name="Chain" data-source-line="8" id="ent0007"><rect fill="#F1F1F1" height="48" rx="2.5" ry="2.5" style="stroke:#181818;stroke-width:0.5;" width="70.8418" x="113.59" y="223"/><ellipse cx="128.59" cy="239" fill="#ADD1B2" rx="11" ry="11" style="stroke:#181818;stroke-width:1;"/><path d="M131.0631,245.1431 Q130.4821,245.4419 129.8429,245.5913 Q129.2038,245.7407 128.4982,245.7407 Q125.9914,245.7407 124.6715,244.0889 Q123.3517,242.437 123.3517,239.3159 Q123.3517,236.1865 124.6715,234.5347 Q125.9914,232.8828 128.4982,232.8828 Q129.2038,232.8828 129.8512,233.0322 Q130.4987,233.1816 131.0631,233.4805 L131.0631,236.2031 Q130.4323,235.6221 129.8388,235.3523 Q129.2453,235.0825 128.6144,235.0825 Q127.2697,235.0825 126.5849,236.1492 Q125.9001,237.2158 125.9001,239.3159 Q125.9001,241.4077 126.5849,242.4744 Q127.2697,243.541 128.6144,243.541 Q129.2453,243.541 129.8388,243.2712 Q130.4323,243.0015 131.0631,242.4204 Z " fill="#000000"/><text fill="#000000" font-family="sans-serif" font-size="14" lengthAdjust="spacing" textLength="38.8418" x="142.59" y="244.291">Chain</text><line style="stroke:#181818;stroke-width:0.5;" x1="114.59" x2="183.4318" y1="255" y2="255"/><line style="stroke:#181818;stroke-width:0.5;" x1="114.59" x2="183.4318" y1="263" y2="263"/></g><!--class RearWheel--><g class="entity" data-qualified-name="RearWheel" data-source-line="9" id="ent0008"><rect fill="#F1F1F1" height="48" rx="2.5" ry="2.5" style="stroke:#181818;stroke-width:0.5;" width="102.4238" x="219.8" y="223"/><ellipse cx="234.8" cy="239" fill="#ADD1B2" rx="11" ry="11" style="stroke:#181818;stroke-width:1;"/><path d="M237.2731,245.1431 Q236.6921,245.4419 236.0529,245.5913 Q235.4138,245.7407 234.7082,245.7407 Q232.2014,245.7407 230.8815,244.0889 Q229.5617,242.437 229.5617,239.3159 Q229.5617,236.1865 230.8815,234.5347 Q232.2014,232.8828 234.7082,232.8828 Q235.4138,232.8828 236.0612,233.0322 Q236.7087,233.1816 237.2731,233.4805 L237.2731,236.2031 Q236.6423,235.6221 236.0488,235.3523 Q235.4553,235.0825 234.8244,235.0825 Q233.4797,235.0825 232.7949,236.1492 Q232.1101,237.2158 232.1101,239.3159 Q232.1101,241.4077 232.7949,242.4744 Q233.4797,243.541 234.8244,243.541 Q235.4553,243.541 236.0488,243.2712 Q236.6423,243.0015 237.2731,242.4204 Z " fill="#000000"/><text fill="#000000" font-family="sans-serif" font-size="14" lengthAdjust="spacing" textLength="70.4238" x="248.8" y="244.291">RearWheel</text><line style="stroke:#181818;stroke-width:0.5;" x1="220.8" x2="321.2238" y1="255" y2="255"/><line style="stroke:#181818;stroke-width:0.5;" x1="220.8" x2="321.2238" y1="263" y2="263"/></g><!--class Handlebars--><g class="entity" data-qualified-name="Handlebars" data-source-line="10" id="ent0009"><rect fill="#F1F1F1" height="48" rx="2.5" ry="2.5" style="stroke:#181818;stroke-width:0.5;" width="108.7744" x="357.62" y="223"/><ellipse cx="372.62" cy="239" fill="#ADD1B2" rx="11" ry="11" style="stroke:#181818;stroke-width:1;"/><path d="M375.0931,245.1431 Q374.5121,245.4419 373.8729,245.5913 Q373.2338,245.7407 372.5282,245.7407 Q370.0214,245.7407 368.7015,244.0889 Q367.3817,242.437 367.3817,239.3159 Q367.3817,236.1865 368.7015,234.5347 Q370.0214,232.8828 372.5282,232.8828 Q373.2338,232.8828 373.8812,233.0322 Q374.5287,233.1816 375.0931,233.4805 L375.0931,236.2031 Q374.4623,235.6221 373.8688,235.3523 Q373.2753,235.0825 372.6444,235.0825 Q371.2997,235.0825 370.6149,236.1492 Q369.9301,237.2158 369.9301,239.3159 Q369.9301,241.4077 370.6149,242.4744 Q371.2997,243.541 372.6444,243.541 Q373.2753,243.541 373.8688,243.2712 Q374.4623,243.0015 375.0931,242.4204 Z " fill="#000000"/><text fill="#000000" font-family="sans-serif" font-size="14" lengthAdjust="spacing" textLength="76.7744" x="386.62" y="244.291">Handlebars</text><line style="stroke:#181818;stroke-width:0.5;" x1="358.62" x2="465.3944" y1="255" y2="255"/><line style="stroke:#181818;stroke-width:0.5;" x1="358.62" x2="465.3944" y1="263" y2="263"/></g><!--class FrontWheel--><g class="entity" data-qualified-name="FrontWheel" data-source-line="11" id="ent0010"><rect fill="#F1F1F1" height="48" rx="2.5" ry="2.5" style="stroke:#181818;stroke-width:0.5;" width="108.0703" x="500.97" y="223"/><ellipse cx="515.97" cy="239" fill="#ADD1B2" rx="11" ry="11" style="stroke:#181818;stroke-width:1;"/><path d="M518.4431,245.1431 Q517.8621,245.4419 517.2229,245.5913 Q516.5838,245.7407 515.8782,245.7407 Q513.3714,245.7407 512.0515,244.0889 Q510.7317,242.437 510.7317,239.3159 Q510.7317,236.1865 512.0515,234.5347 Q513.3714,232.8828 515.8782,232.8828 Q516.5838,232.8828 517.2312,233.0322 Q517.8787,233.1816 518.4431,233.4805 L518.4431,236.2031 Q517.8123,235.6221 517.2188,235.3523 Q516.6253,235.0825 515.9944,235.0825 Q514.6497,235.0825 513.9649,236.1492 Q513.2801,237.2158 513.2801,239.3159 Q513.2801,241.4077 513.9649,242.4744 Q514.6497,243.541 515.9944,243.541 Q516.6253,243.541 517.2188,243.2712 Q517.8123,243.0015 518.4431,242.4204 Z " fill="#000000"/><text fill="#000000" font-family="sans-serif" font-size="14" lengthAdjust="spacing" textLength="76.0703" x="529.97" y="244.291">FrontWheel</text><line style="stroke:#181818;stroke-width:0.5;" x1="501.97" x2="608.0403" y1="255" y2="255"/><line style="stroke:#181818;stroke-width:0.5;" x1="501.97" x2="608.0403" y1="263" y2="263"/></g><!--reverse link Bicycle to Frame--><g class="link" data-entity-1="ent0001" data-entity-2="ent0002" data-link-type="composition" data-source-line="13" id="lnk11"><path codeLine="13" d="M281.1652,58.287 C245.0552,77.327 202.52,99.76 167.11,118.44" fill="none" id="Bicycle-backto-Frame" style="stroke:#181818;stroke-width:1;"/><polygon fill="#181818" points="291.78,52.69,284.6069,51.9502,281.1652,58.287,288.3382,59.0267,291.78,52.69" style="stroke:#181818;stroke-width:1;stroke-linejoin:miter;stroke-miterlimit:10;"/><text fill="#000000" font-family="sans-serif" font-size="13" lengthAdjust="spacing" textLength="8.2202" x="276.099" y="52.8136">1</text><text fill="#000000" font-family="sans-serif" font-size="13" lengthAdjust="spacing" textLength="8.2202" x="174.9661" y="110.689">1</text></g><!--reverse link Bicycle to Drivetrain--><g class="link" data-entity-1="ent0001" data-entity-2="ent0003" data-link-type="composition" data-source-line="14" id="lnk12"><path codeLine="14" d="M306.2223,64.8392 C292.8823,82.5192 281.85,97.13 268.52,114.79" fill="none" id="Bicycle-backto-Drivetrain" style="stroke:#181818;stroke-width:1;"/><polygon fill="#181818" points="313.45,55.26,306.6431,57.6403,306.2223,64.8392,313.0292,62.4588,313.45,55.26" style="stroke:#181818;stroke-width:1;stroke-linejoin:miter;stroke-miterlimit:10;"/><text fill="#000000" font-family="sans-serif" font-size="13" lengthAdjust="spacing" textLength="8.2202" x="300.2213" y="75.6077">1</text><text fill="#000000" font-family="sans-serif" font-size="13" lengthAdjust="spacing" textLength="8.2202" x="264.0102" y="104.2725">1</text></g><!--reverse link Bicycle to SteeringAssembly--><g class="link" data-entity-1="ent0001" data-entity-2="ent0004" data-link-type="composition" data-source-line="15" id="lnk13"><path codeLine="15" d="M356.066,64.7949 C369.576,82.4749 380.78,97.13 394.27,114.79" fill="none" id="Bicycle-backto-SteeringAssembly" style="stroke:#181818;stroke-width:1;"/><polygon fill="#181818" points="348.78,55.26,349.2447,62.4561,356.066,64.7949,355.6013,57.5988,348.78,55.26" style="stroke:#181818;stroke-width:1;stroke-linejoin:miter;stroke-miterlimit:10;"/><text fill="#000000" font-family="sans-serif" font-size="13" lengthAdjust="spacing" textLength="8.2202" x="344.163" y="75.6077">1</text><text fill="#000000" font-family="sans-serif" font-size="13" lengthAdjust="spacing" textLength="8.2202" x="380.7267" y="104.2725">1</text></g><!--reverse link Bicycle to BrakingSystem--><g class="link" data-entity-1="ent0001" data-entity-2="ent0005" data-link-type="composition" data-source-line="16" id="lnk14"><path codeLine="16" d="M381.2901,52.6594 C424.4301,70.3794 483.06,94.47 532.2,114.66" fill="none" id="Bicycle-backto-BrakingSystem" style="stroke:#181818;stroke-width:1;"/><polygon fill="#181818" points="370.19,48.1,374.2202,54.0797,381.2901,52.6594,377.2598,46.6797,370.19,48.1" style="stroke:#181818;stroke-width:1;stroke-linejoin:miter;stroke-miterlimit:10;"/><text fill="#000000" font-family="sans-serif" font-size="13" lengthAdjust="spacing" textLength="8.2202" x="377.9008" y="47.406">1</text><text fill="#000000" font-family="sans-serif" font-size="13" lengthAdjust="spacing" textLength="8.2202" x="508.6459" y="104.1091">1</text></g><!--reverse link Drivetrain to Crank--><g class="link" data-entity-1="ent0003" data-entity-2="ent0006" data-link-type="composition" data-source-line="18" id="lnk15"><path codeLine="18" d="M194.4091,168.8401 C156.6091,188.1101 114.41,209.61 79.46,227.42" fill="none" id="Drivetrain-backto-Crank" style="stroke:#181818;stroke-width:1;"/><polygon fill="#181818" points="205.1,163.39,197.9378,162.5514,194.4091,168.8401,201.5712,169.6787,205.1,163.39" style="stroke:#181818;stroke-width:1;stroke-linejoin:miter;stroke-miterlimit:10;"/><text fill="#000000" font-family="sans-serif" font-size="13" lengthAdjust="spacing" textLength="8.2202" x="185.5839" y="183.3688">1</text><text fill="#000000" font-family="sans-serif" font-size="13" lengthAdjust="spacing" textLength="8.2202" x="86.9385" y="220.0241">1</text></g><!--reverse link Drivetrain to Chain--><g class="link" data-entity-1="ent0003" data-entity-2="ent0007" data-link-type="composition" data-source-line="19" id="lnk16"><path codeLine="19" d="M220.3027,171.91 C203.3027,189.59 188.33,205.13 171.34,222.79" fill="none" id="Drivetrain-backto-Chain" style="stroke:#181818;stroke-width:1;"/><polygon fill="#181818" points="228.62,163.26,221.578,164.8126,220.3027,171.91,227.3447,170.3574,228.62,163.26" style="stroke:#181818;stroke-width:1;stroke-linejoin:miter;stroke-miterlimit:10;"/><text fill="#000000" font-family="sans-serif" font-size="13" lengthAdjust="spacing" textLength="8.2202" x="214.2144" y="183.6077">1</text><text fill="#000000" font-family="sans-serif" font-size="13" lengthAdjust="spacing" textLength="8.2202" x="168.065" y="212.2725">1</text></g><!--reverse link Drivetrain to RearWheel--><g class="link" data-entity-1="ent0003" data-entity-2="ent0008" data-link-type="composition" data-source-line="20" id="lnk17"><path codeLine="20" d="M257.6211,175.0527 C260.9511,192.7327 263.3,205.13 266.63,222.79" fill="none" id="Drivetrain-backto-RearWheel" style="stroke:#181818;stroke-width:1;"/><polygon fill="#181818" points="255.4,163.26,252.5797,169.8967,257.6211,175.0527,260.4414,168.4159,255.4,163.26" style="stroke:#181818;stroke-width:1;stroke-linejoin:miter;stroke-miterlimit:10;"/><text fill="#000000" font-family="sans-serif" font-size="13" lengthAdjust="spacing" textLength="8.2202" x="247.522" y="183.6077">1</text><text fill="#000000" font-family="sans-serif" font-size="13" lengthAdjust="spacing" textLength="8.2202" x="256.5103" y="212.2725">1</text></g><!--reverse link SteeringAssembly to Handlebars--><g class="link" data-entity-1="ent0004" data-entity-2="ent0009" data-link-type="composition" data-source-line="22" id="lnk18"><path codeLine="22" d="M412.01,175.26 C412.01,192.94 412.01,205.13 412.01,222.79" fill="none" id="SteeringAssembly-backto-Handlebars" style="stroke:#181818;stroke-width:1;"/><polygon fill="#181818" points="412.01,163.26,408.01,169.26,412.01,175.26,416.01,169.26,412.01,163.26" style="stroke:#181818;stroke-width:1;stroke-linejoin:miter;stroke-miterlimit:10;"/><text fill="#000000" font-family="sans-serif" font-size="13" lengthAdjust="spacing" textLength="8.2202" x="403.0612" y="183.6077">1</text><text fill="#000000" font-family="sans-serif" font-size="13" lengthAdjust="spacing" textLength="8.2202" x="403.0139" y="212.2725">1</text></g><!--reverse link SteeringAssembly to FrontWheel--><g class="link" data-entity-1="ent0004" data-entity-2="ent0010" data-link-type="composition" data-source-line="23" id="lnk19"><path codeLine="23" d="M453.0287,170.4081 C476.8687,188.0881 499.88,205.13 523.7,222.79" fill="none" id="SteeringAssembly-backto-FrontWheel" style="stroke:#181818;stroke-width:1;"/><polygon fill="#181818" points="443.39,163.26,445.8266,170.047,453.0287,170.4081,450.5921,163.6212,443.39,163.26" style="stroke:#181818;stroke-width:1;stroke-linejoin:miter;stroke-miterlimit:10;"/><text fill="#000000" font-family="sans-serif" font-size="13" lengthAdjust="spacing" textLength="8.2202" x="442.0901" y="183.6077">1</text><text fill="#000000" font-family="sans-serif" font-size="13" lengthAdjust="spacing" textLength="8.2202" x="506.6813" y="212.2725">1</text></g><?plantuml-src VL2n2i8m4Dtp5Q6B87JGqSrQn44NEpXVws53qnJkWf2_Lzh6fDewtTrxZyTxjvA5uyjPRcMMvpkPgSfL6YKxjjYAIWEp1yVhID3wFIVrH4kWp0WK5f6KUUoPiIsrymu4pHijOjS3WMdyNWUBAmBTQaGztYSmTuqb47y2TCOE2k7p9fj4hjEqdqF0EIQAEqV_X9yJJQk8O3bH3UMMoBxj0XdgY-yy4rtqbh-wyAqN?></g></svg>