<?xml version="1.0" encoding="UTF-8"?>
<!-- kUML SVG · theme: kUML · engine: elk.layered -->
<svg xmlns="http://www.w3.org/2000/svg"
     viewBox="0 0 1342.33 1031"
     width="1342.33"
     height="1031">
  <defs>
  <style>
    .kuml-class { fill: #F8F5F0; stroke: #1D2B4F; stroke-width: 1.5; }
.kuml-interface { fill: #F8F5F0; stroke: #1D2B4F; stroke-width: 1.5; }
.kuml-enum { fill: #F8F5F0; stroke: #1D2B4F; stroke-width: 1.5; }
.kuml-component { fill: #F8F5F0; stroke: #1D2B4F; stroke-width: 1.5; }
.kuml-state { fill: #F8F5F0; stroke: #1D2B4F; stroke-width: 1.5; }
.kuml-usecase { fill: #F8F5F0; stroke: #1D2B4F; stroke-width: 1.5; }
.kuml-system { fill: #F8F5F0; stroke: #1D2B4F; stroke-width: 2.5; }
.kuml-container { fill: #F8F5F0; stroke: #1D2B4F; stroke-width: 1.0; }
.kuml-c4component { fill: #F8F5F0; stroke: #1D2B4F; stroke-width: 1.0; }
.kuml-instance { fill: #F8F5F0; stroke: #1D2B4F; stroke-width: 1.5; }
.kuml-comment { fill: #F8F5F0; stroke: #1D2B4F; stroke-width: 1.5; }
.kuml-comment-fold { fill: none; stroke: #1D2B4F; stroke-width: 1.0; }
.kuml-title { font-family: Geist, Inter, system-ui, sans-serif; font-size: 14.0px; font-weight: 700; fill: #0D1525; }
.kuml-title-abstract { font-style: italic; }
.kuml-subtitle { font-family: Geist, Inter, system-ui, sans-serif; font-size: 12.0px; font-weight: 600; fill: #0D1525; }
.kuml-body { font-family: Geist, Inter, system-ui, sans-serif; font-size: 11.0px; fill: #0D1525; }
.kuml-small { font-family: Geist, Inter, system-ui, sans-serif; font-size: 9.0px; fill: #6B7A99; }
.kuml-small-halo { font-family: Geist, Inter, system-ui, sans-serif; font-size: 9.0px; fill: #FFFFFF; stroke: #FFFFFF; stroke-width: 3px; stroke-linejoin: round; }
.kuml-edge-label { font-family: Geist, Inter, system-ui, sans-serif; font-size: 9.0px; fill: #6B7A99; }
.kuml-edge-label-halo { font-family: Geist, Inter, system-ui, sans-serif; font-size: 9.0px; fill: #FFFFFF; stroke: #FFFFFF; stroke-width: 3px; stroke-linejoin: round; }
.kuml-stereotype { font-family: Geist, Inter, system-ui, sans-serif; font-size: 10.0px; font-style: italic; fill: #6B7A99; }
.kuml-tagged-value { font-family: Geist, Inter, system-ui, sans-serif; font-size: 9.0px; font-style: italic; fill: #6B7A99; }
.kuml-edge { stroke: #1D2B4F; stroke-width: 1.5; fill: none; }
.kuml-seq-arrow-filled { stroke: #1D2B4F; stroke-width: 1.5; fill: #1D2B4F; }
.kuml-edge-dashed { stroke: #6B7A99; stroke-width: 1.5; fill: none; stroke-dasharray: 8 4; }
.kuml-divider { stroke: #1D2B4F; stroke-width: 1.0; }
.kuml-actor { stroke: #0D1525; stroke-width: 1.5; fill: none; }
.kuml-frame { fill: none; stroke: #1D2B4F; stroke-width: 1.5; }
.kuml-collaboration { fill: none; stroke: #1D2B4F; stroke-width: 1.5; }
.kuml-port { fill: #0D1525; stroke: #1D2B4F; stroke-width: 1.0; }
.kuml-port-label { font-family: Geist, Inter, system-ui, sans-serif; font-size: 9.0px; fill: #0D1525; }
.kuml-port-label-halo { font-family: Geist, Inter, system-ui, sans-serif; font-size: 9.0px; fill: none; stroke: #FFFFFF; stroke-width: 3.5px; stroke-linejoin: round; }
.kuml-connector { fill: none; stroke: #1D2B4F; stroke-width: 1.5; }
.kuml-connector-label { font-family: Geist, Inter, system-ui, sans-serif; font-size: 9.0px; fill: #0D1525; }
.kuml-action { fill: #F8F5F0; stroke: #1D2B4F; stroke-width: 1.5; }
.kuml-decision { fill: #F8F5F0; stroke: #1D2B4F; stroke-width: 1.5; }
.kuml-fork-bar { fill: #0D1525; stroke: #0D1525; stroke-width: 1.5; }
.kuml-pseudostate { fill: #0D1525; stroke: #0D1525; stroke-width: 1.5; }
.kuml-final-outer { fill: #F8F5F0; stroke: #1D2B4F; stroke-width: 1.5; }
.kuml-node { fill: #F8F5F0; stroke: #1D2B4F; stroke-width: 1.5; }
.kuml-node-top { fill: #6B7A99; stroke: #1D2B4F; stroke-width: 1.5; }
.kuml-node-side { fill: #6B7A99; stroke: #1D2B4F; stroke-width: 1.5; }
.kuml-artifact { fill: #F8F5F0; stroke: #1D2B4F; stroke-width: 1.5; }
.kuml-artifact-ear { fill: #6B7A99; stroke: #1D2B4F; stroke-width: 1.5; }
.kuml-stereotype-box { fill: #F8F5F0; stroke: #1D2B4F; stroke-width: 1.5; }
.kuml-timing-frame { fill: #F8F5F0; stroke: #1D2B4F; stroke-width: 1.5; }
.kuml-timing-line { stroke: #1D2B4F; stroke-width: 1.5; fill: none; }

  </style>
  </defs>
  <rect x="0" y="0" width="1342.33" height="1031" fill="#FFFFFF"/>
  <g id="nodes">
    <g id="kuml-diagram-frame">
      <rect x="2" y="2" width="1338.33" height="1027" rx="6" ry="6" class="kuml-frame"/>
      <text class="kuml-small" x="8" y="13">
        class: AdasTestPlatform
      </text>
    </g>
    <g id="TestVehicle" transform="translate(1124.33,217.33)">
      <rect width="202" height="80" class="kuml-class"/>
      <text class="kuml-title" x="101" y="18" text-anchor="middle">
        TestVehicle
      </text>
      <line x1="0" y1="24" x2="202" y2="24" class="kuml-divider"/>
      <text class="kuml-body" x="5" y="38">
        - vin: String
      </text>
    </g>
    <g id="ControlUnit" transform="translate(1041,395)">
      <rect width="188" height="80" class="kuml-class"/>
      <text class="kuml-title" x="94" y="18" text-anchor="middle">
        ControlUnit
      </text>
      <line x1="0" y1="24" x2="188" y2="24" class="kuml-divider"/>
      <text class="kuml-body" x="5" y="38">
        - identifier: String
      </text>
    </g>
    <g id="DrivingFunction" transform="translate(951,565)">
      <rect width="230" height="80" class="kuml-class"/>
      <text class="kuml-title" x="115" y="18" text-anchor="middle">
        DrivingFunction
      </text>
      <line x1="0" y1="24" x2="230" y2="24" class="kuml-divider"/>
      <text class="kuml-body" x="5" y="38">
        - name: String
      </text>
    </g>
    <g id="AutomaticEmergencyBraking" transform="translate(534,395)">
      <rect width="247" height="80" class="kuml-class"/>
      <text class="kuml-title" x="123.50" y="18" text-anchor="middle">
        AutomaticEmergencyBraking
      </text>
    </g>
    <g id="LaneKeepingAssist" transform="translate(821,395)">
      <rect width="180" height="80" class="kuml-class"/>
      <text class="kuml-title" x="90" y="18" text-anchor="middle">
        LaneKeepingAssist
      </text>
    </g>
    <g id="Sensor" transform="translate(1048.17,755)">
      <rect width="253" height="90" class="kuml-class"/>
      <text class="kuml-stereotype" x="126.50" y="18" text-anchor="middle">
        «abstract»
      </text>
      <text class="kuml-title" x="126.50" y="32" text-anchor="middle">
        Sensor
      </text>
      <line x1="0" y1="38" x2="253" y2="38" class="kuml-divider"/>
      <text class="kuml-body" x="5" y="52">
        - serialNumber: String
      </text>
      <text class="kuml-body" x="5" y="65">
        - samplingRate: Double
      </text>
    </g>
    <g id="Calibratable" transform="translate(627.42,755)">
      <rect width="211" height="80" class="kuml-interface"/>
      <text class="kuml-stereotype" x="105.50" y="18" text-anchor="middle">
        «interface»
      </text>
      <text class="kuml-title" x="105.50" y="32" text-anchor="middle">
        Calibratable
      </text>
      <line x1="0" y1="38" x2="211" y2="38" class="kuml-divider"/>
      <text class="kuml-body" x="8" y="52">
        + calibrate(): Boolean
      </text>
    </g>
    <g id="Camera" transform="translate(495,565)">
      <rect width="188" height="80" class="kuml-class"/>
      <text class="kuml-title" x="94" y="18" text-anchor="middle">
        Camera
      </text>
    </g>
    <g id="Radar" transform="translate(267,565)">
      <rect width="188" height="80" class="kuml-class"/>
      <text class="kuml-title" x="94" y="18" text-anchor="middle">
        Radar
      </text>
    </g>
    <g id="Lidar" transform="translate(723,565)">
      <rect width="188" height="80" class="kuml-class"/>
      <text class="kuml-title" x="94" y="18" text-anchor="middle">
        Lidar
      </text>
    </g>
    <g id="Measurement" transform="translate(1048,935)">
      <rect width="190" height="80" class="kuml-class"/>
      <text class="kuml-title" x="95" y="18" text-anchor="middle">
        Measurement
      </text>
      <line x1="0" y1="24" x2="190" y2="24" class="kuml-divider"/>
      <text class="kuml-body" x="5" y="38">
        - timestamp: DateTime
      </text>
    </g>
    <g id="TestScenario" transform="translate(299,395)">
      <rect width="174" height="80" class="kuml-class"/>
      <text class="kuml-title" x="87" y="18" text-anchor="middle">
        TestScenario
      </text>
      <line x1="0" y1="24" x2="174" y2="24" class="kuml-divider"/>
      <text class="kuml-body" x="5" y="38">
        - name: String
      </text>
    </g>
    <g id="TestCase" transform="translate(368.33,217.33)">
      <rect width="202" height="80" class="kuml-class"/>
      <text class="kuml-title" x="101" y="18" text-anchor="middle">
        TestCase
      </text>
      <line x1="0" y1="24" x2="202" y2="24" class="kuml-divider"/>
      <text class="kuml-body" x="5" y="38">
        - identifier: String
      </text>
    </g>
    <g id="TestResult" transform="translate(32,202)">
      <rect width="174" height="103" class="kuml-enum"/>
      <text class="kuml-stereotype" x="87" y="18" text-anchor="middle">
        «enumeration»
      </text>
      <text class="kuml-title" x="87" y="32" text-anchor="middle">
        TestResult
      </text>
      <line x1="0" y1="38" x2="174" y2="38" class="kuml-divider"/>
      <text class="kuml-body" x="8" y="52">
        PASSED
      </text>
      <text class="kuml-body" x="8" y="65">
        FAILED
      </text>
      <text class="kuml-body" x="8" y="78">
        ABORTED
      </text>
    </g>
    <g id="TestRun" transform="translate(339.73,32)">
      <rect width="216" height="80" class="kuml-class"/>
      <text class="kuml-title" x="108" y="18" text-anchor="middle">
        TestRun
      </text>
      <line x1="0" y1="24" x2="216" y2="24" class="kuml-divider"/>
      <text class="kuml-body" x="5" y="38">
        - result: TestResult
      </text>
    </g>
  </g>
  <g id="edges">
    <path d="M 657.50 475 L 657.50 515 L 1043 515 L 1043 565" class="kuml-edge"/>
    <polygon points="1043,565 1038,553 1048,553" style="stroke:#1D2B4F;stroke-width:1.5;fill:#FFFFFF;stroke-linejoin:round;"/>
    <path d="M 911 475 L 911 505 L 1089 505 L 1089 565" class="kuml-edge"/>
    <polygon points="1089,565 1084,553 1094,553" style="stroke:#1D2B4F;stroke-width:1.5;fill:#FFFFFF;stroke-linejoin:round;"/>
    <path d="M 620.33 645 L 620.33 695 L 1132.50 695 L 1132.50 755" class="kuml-edge"/>
    <polygon points="1132.50,755 1127.50,743 1137.50,743" style="stroke:#1D2B4F;stroke-width:1.5;fill:#FFFFFF;stroke-linejoin:round;"/>
    <path d="M 557.67 645 L 557.67 705 L 732.92 705 L 732.92 755" class="kuml-edge-dashed"/>
    <polygon points="732.92,755 727.92,743 737.92,743" style="stroke:#6B7A99;stroke-width:1.5;fill:#FFFFFF;stroke-linejoin:round;"/>
    <path d="M 392.33 645 L 392.33 715 L 1090.33 715 L 1090.33 755" class="kuml-edge"/>
    <polygon points="1090.33,755 1085.33,743 1095.33,743" style="stroke:#1D2B4F;stroke-width:1.5;fill:#FFFFFF;stroke-linejoin:round;"/>
    <path d="M 329.67 645 L 329.67 725 L 680.17 725 L 680.17 755" class="kuml-edge-dashed"/>
    <polygon points="680.17,755 675.17,743 685.17,743" style="stroke:#6B7A99;stroke-width:1.5;fill:#FFFFFF;stroke-linejoin:round;"/>
    <path d="M 848.33 645 L 848.33 685 L 1174.67 685 L 1174.67 755" class="kuml-edge"/>
    <polygon points="1174.67,755 1169.67,743 1179.67,743" style="stroke:#1D2B4F;stroke-width:1.5;fill:#FFFFFF;stroke-linejoin:round;"/>
    <line x1="785.67" y1="645" x2="785.67" y2="755" class="kuml-edge-dashed"/>
    <polygon points="785.67,755 780.67,743 790.67,743" style="stroke:#6B7A99;stroke-width:1.5;fill:#FFFFFF;stroke-linejoin:round;"/>
    <path d="M 1191.67 297.33 L 1191.67 335 L 1135 335 L 1135 395" class="kuml-edge"/>
    <path d="M 1130,383 L 1135,395 L 1140,383" style="stroke:#1D2B4F;stroke-width:1.5;fill:none;stroke-linejoin:round;"/>
    <polygon points="1191.67,297.33 1196.67,305.33 1191.67,313.33 1186.67,305.33" style="stroke:#1D2B4F;stroke-width:1.5;fill:#1D2B4F;stroke-linejoin:round;"/>
    <text class="kuml-small-halo" x="1125" y="381" text-anchor="middle">
      1..*
    </text>
    <text class="kuml-small" x="1125" y="381" text-anchor="middle">
      1..*
    </text>
    <text class="kuml-small-halo" x="1145" y="365" text-anchor="middle">
      controlUnits
    </text>
    <text class="kuml-small" x="1145" y="365" text-anchor="middle">
      controlUnits
    </text>
    <line x1="1259" y1="297.33" x2="1259" y2="755" class="kuml-edge"/>
    <path d="M 1254,743 L 1259,755 L 1264,743" style="stroke:#1D2B4F;stroke-width:1.5;fill:none;stroke-linejoin:round;"/>
    <polygon points="1259,297.33 1264,305.33 1259,313.33 1254,305.33" style="stroke:#1D2B4F;stroke-width:1.5;fill:#1D2B4F;stroke-linejoin:round;"/>
    <text class="kuml-small-halo" x="1249" y="741" text-anchor="middle">
      1..*
    </text>
    <text class="kuml-small" x="1249" y="741" text-anchor="middle">
      1..*
    </text>
    <text class="kuml-small-halo" x="1269" y="725" text-anchor="middle">
      sensors
    </text>
    <text class="kuml-small" x="1269" y="725" text-anchor="middle">
      sensors
    </text>
    <line x1="1135" y1="475" x2="1135" y2="565" class="kuml-edge"/>
    <path d="M 1130,553 L 1135,565 L 1140,553" style="stroke:#1D2B4F;stroke-width:1.5;fill:none;stroke-linejoin:round;"/>
    <polygon points="1135,475 1140,483 1135,491 1130,483" style="stroke:#1D2B4F;stroke-width:1.5;fill:#1D2B4F;stroke-linejoin:round;"/>
    <text class="kuml-small-halo" x="1125" y="551" text-anchor="middle">
      1..*
    </text>
    <text class="kuml-small" x="1125" y="551" text-anchor="middle">
      1..*
    </text>
    <text class="kuml-small-halo" x="1145" y="535" text-anchor="middle">
      drivingFunctions
    </text>
    <text class="kuml-small" x="1145" y="535" text-anchor="middle">
      drivingFunctions
    </text>
    <path d="M 1066 645 L 1066 675 L 1216.83 675 L 1216.83 755" class="kuml-edge"/>
    <path d="M 1211.83,743 L 1216.83,755 L 1221.83,743" style="stroke:#1D2B4F;stroke-width:1.5;fill:none;stroke-linejoin:round;"/>
    <text class="kuml-small-halo" x="1056" y="659" text-anchor="middle">
      0..*
    </text>
    <text class="kuml-small" x="1056" y="659" text-anchor="middle">
      0..*
    </text>
    <text class="kuml-small-halo" x="1206.83" y="741" text-anchor="middle">
      1..*
    </text>
    <text class="kuml-small" x="1206.83" y="741" text-anchor="middle">
      1..*
    </text>
    <text class="kuml-small-halo" x="1226.83" y="725" text-anchor="middle">
      usedSensors
    </text>
    <text class="kuml-small" x="1226.83" y="725" text-anchor="middle">
      usedSensors
    </text>
    <line x1="1174.67" y1="845" x2="1174.67" y2="935" class="kuml-edge"/>
    <path d="M 1169.67,923 L 1174.67,935 L 1179.67,923" style="stroke:#1D2B4F;stroke-width:1.5;fill:none;stroke-linejoin:round;"/>
    <polygon points="1174.67,845 1179.67,853 1174.67,861 1169.67,853" style="stroke:#1D2B4F;stroke-width:1.5;fill:#1D2B4F;stroke-linejoin:round;"/>
    <text class="kuml-small-halo" x="1164.67" y="921" text-anchor="middle">
      0..*
    </text>
    <text class="kuml-small" x="1164.67" y="921" text-anchor="middle">
      0..*
    </text>
    <text class="kuml-small-halo" x="1184.67" y="905" text-anchor="middle">
      measurements
    </text>
    <text class="kuml-small" x="1184.67" y="905" text-anchor="middle">
      measurements
    </text>
    <path d="M 435.67 297.33 L 435.67 335 L 386 335 L 386 395" class="kuml-edge"/>
    <path d="M 381,383 L 386,395 L 391,383" style="stroke:#1D2B4F;stroke-width:1.5;fill:none;stroke-linejoin:round;"/>
    <text class="kuml-small-halo" x="425.67" y="311.33" text-anchor="middle">
      0..*
    </text>
    <text class="kuml-small" x="425.67" y="311.33" text-anchor="middle">
      0..*
    </text>
    <text class="kuml-small-halo" x="396" y="365" text-anchor="middle">
      scenario
    </text>
    <text class="kuml-small" x="396" y="365" text-anchor="middle">
      scenario
    </text>
    <path d="M 503 297.33 L 503 525 L 997 525 L 997 565" class="kuml-edge"/>
    <path d="M 992,553 L 997,565 L 1002,553" style="stroke:#1D2B4F;stroke-width:1.5;fill:none;stroke-linejoin:round;"/>
    <text class="kuml-small-halo" x="493" y="311.33" text-anchor="middle">
      0..*
    </text>
    <text class="kuml-small" x="493" y="311.33" text-anchor="middle">
      0..*
    </text>
    <text class="kuml-small-halo" x="1007" y="535" text-anchor="middle">
      verifiedFunction
    </text>
    <text class="kuml-small" x="1007" y="535" text-anchor="middle">
      verifiedFunction
    </text>
    <line x1="469.33" y1="112" x2="469.33" y2="217.33" class="kuml-edge"/>
    <path d="M 464.33,205.33 L 469.33,217.33 L 474.33,205.33" style="stroke:#1D2B4F;stroke-width:1.5;fill:none;stroke-linejoin:round;"/>
    <text class="kuml-small-halo" x="459.33" y="126" text-anchor="middle">
      0..*
    </text>
    <text class="kuml-small" x="459.33" y="126" text-anchor="middle">
      0..*
    </text>
    <text class="kuml-small-halo" x="479.33" y="187.33" text-anchor="middle">
      testCase
    </text>
    <text class="kuml-small" x="479.33" y="187.33" text-anchor="middle">
      testCase
    </text>
    <path d="M 512.53 112 L 512.53 142 L 1225.33 142 L 1225.33 217.33" class="kuml-edge"/>
    <path d="M 1220.33,205.33 L 1225.33,217.33 L 1230.33,205.33" style="stroke:#1D2B4F;stroke-width:1.5;fill:none;stroke-linejoin:round;"/>
    <text class="kuml-small-halo" x="502.53" y="126" text-anchor="middle">
      0..*
    </text>
    <text class="kuml-small" x="502.53" y="126" text-anchor="middle">
      0..*
    </text>
    <text class="kuml-small-halo" x="1235.33" y="187.33" text-anchor="middle">
      vehicle
    </text>
    <text class="kuml-small" x="1235.33" y="187.33" text-anchor="middle">
      vehicle
    </text>
    <path d="M 426.13 112 L 426.13 152 L 236 152 L 236 875 L 1111.33 875 L 1111.33 935" class="kuml-edge"/>
    <path d="M 1106.33,923 L 1111.33,935 L 1116.33,923" style="stroke:#1D2B4F;stroke-width:1.5;fill:none;stroke-linejoin:round;"/>
    <polygon points="426.13,112 431.13,120 426.13,128 421.13,120" style="stroke:#1D2B4F;stroke-width:1.5;fill:#FFFFFF;stroke-linejoin:round;"/>
    <text class="kuml-small-halo" x="1101.33" y="921" text-anchor="middle">
      0..*
    </text>
    <text class="kuml-small" x="1101.33" y="921" text-anchor="middle">
      0..*
    </text>
    <text class="kuml-small-halo" x="1121.33" y="905" text-anchor="middle">
      collectedMeasurements
    </text>
    <text class="kuml-small" x="1121.33" y="905" text-anchor="middle">
      collectedMeasurements
    </text>
    <path d="M 382.93 112 L 382.93 142 L 119 142 L 119 202" class="kuml-edge-dashed"/>
    <path d="M 114,190 L 119,202 L 124,190" style="stroke:#6B7A99;stroke-width:1.5;fill:none;stroke-linejoin:round;"/>
    <text class="kuml-edge-label-halo" x="250.97" y="138" text-anchor="middle">
      endsWith
    </text>
    <text class="kuml-edge-label" x="250.97" y="138" text-anchor="middle">
      endsWith
    </text>
  </g>
</svg>
