<svg xmlns="http://www.w3.org/2000/svg" xmlns:xlink="http://www.w3.org/1999/xlink" contentStyleType="text/css" data-diagram-type="CLASS" height="810px" preserveAspectRatio="none" style="width:998px;height:810px;background:#FFFFFF;" version="1.1" viewBox="0 0 998 810" width="998px" zoomAndPan="magnify"><?plantuml 1.2026.6?><defs/><g><!--class CalibrationContract--><g class="entity" data-qualified-name="CalibrationContract" data-source-line="2" id="ent0001"><rect fill="#F1F1F1" height="64.4883" rx="2.5" ry="2.5" style="stroke:#181818;stroke-width:0.5;" width="164.4326" x="314.78" y="730.93"/><ellipse cx="329.78" cy="746.93" fill="#B4A7E5" rx="11" ry="11" style="stroke:#181818;stroke-width:1;"/><path d="M326.2077,743.1951 L326.2077,741.0369 L333.5871,741.0369 L333.5871,743.1951 L331.1218,743.1951 L331.1218,751.2718 L333.5871,751.2718 L333.5871,753.43 L326.2077,753.43 L326.2077,751.2718 L328.6731,751.2718 L328.6731,743.1951 Z " fill="#000000"/><text fill="#000000" font-family="sans-serif" font-size="14" font-style="italic" lengthAdjust="spacing" textLength="132.4326" x="343.78" y="752.221">CalibrationContract</text><line style="stroke:#181818;stroke-width:0.5;" x1="315.78" x2="478.2126" y1="762.93" y2="762.93"/><line style="stroke:#181818;stroke-width:0.5;" x1="315.78" x2="478.2126" y1="770.93" y2="770.93"/><g data-visibility-modifier="PUBLIC_METHOD"><ellipse cx="325.78" cy="784.6741" fill="#84BE84" rx="3" ry="3" style="stroke:#038048;stroke-width:1;"/></g><text fill="#000000" font-family="sans-serif" font-size="14" lengthAdjust="spacing" textLength="129.7871" x="334.78" y="788.4652">calibrate(): Boolean</text></g><!--class Sensor--><g class="entity" data-qualified-name="Sensor" data-source-line="6" id="ent0002"><rect fill="#F1F1F1" height="80.9766" rx="2.5" ry="2.5" style="stroke:#181818;stroke-width:0.5;" width="175.1738" x="309.41" y="572.96"/><ellipse cx="370.0003" cy="588.96" fill="#A9DCDF" rx="11" ry="11" style="stroke:#181818;stroke-width:1;"/><path d="M369.8636,584.3081 L368.7098,589.3799 L371.0257,589.3799 Z M368.3695,582.0669 L371.3661,582.0669 L374.7113,594.46 L372.2625,594.46 L371.4989,591.397 L368.2201,591.397 L367.473,594.46 L365.0243,594.46 Z " fill="#000000"/><text fill="#000000" font-family="sans-serif" font-size="14" font-style="italic" lengthAdjust="spacing" textLength="45.4932" x="390.5003" y="594.251">Sensor</text><line style="stroke:#181818;stroke-width:0.5;" x1="310.41" x2="483.5838" y1="604.96" y2="604.96"/><g data-visibility-modifier="PUBLIC_FIELD"><ellipse cx="320.41" cy="618.7041" fill="none" rx="3" ry="3" style="stroke:#038048;stroke-width:1;"/></g><text fill="#000000" font-family="sans-serif" font-size="14" lengthAdjust="spacing" textLength="139.7607" x="329.41" y="622.4952">serialNumber: String</text><g data-visibility-modifier="PUBLIC_FIELD"><ellipse cx="320.41" cy="635.1924" fill="none" rx="3" ry="3" style="stroke:#038048;stroke-width:1;"/></g><text fill="#000000" font-family="sans-serif" font-size="14" lengthAdjust="spacing" textLength="149.1738" x="329.41" y="638.9834">samplingRate: Double</text><line style="stroke:#181818;stroke-width:0.5;" x1="310.41" x2="483.5838" y1="645.9366" y2="645.9366"/></g><!--class Camera--><g class="entity" data-qualified-name="Camera" data-source-line="11" id="ent0003"><rect fill="#F1F1F1" height="48" rx="2.5" ry="2.5" style="stroke:#181818;stroke-width:0.5;" width="83.748" x="392.13" y="439.71"/><ellipse cx="407.13" cy="455.71" fill="#ADD1B2" rx="11" ry="11" style="stroke:#181818;stroke-width:1;"/><path d="M409.6031,461.8531 Q409.0221,462.1519 408.3829,462.3013 Q407.7438,462.4507 407.0382,462.4507 Q404.5314,462.4507 403.2115,460.7989 Q401.8917,459.147 401.8917,456.0259 Q401.8917,452.8965 403.2115,451.2447 Q404.5314,449.5928 407.0382,449.5928 Q407.7438,449.5928 408.3912,449.7422 Q409.0387,449.8916 409.6031,450.1905 L409.6031,452.9131 Q408.9723,452.3321 408.3788,452.0623 Q407.7853,451.7925 407.1544,451.7925 Q405.8097,451.7925 405.1249,452.8592 Q404.4401,453.9258 404.4401,456.0259 Q404.4401,458.1177 405.1249,459.1844 Q405.8097,460.251 407.1544,460.251 Q407.7853,460.251 408.3788,459.9812 Q408.9723,459.7115 409.6031,459.1304 Z " fill="#000000"/><text fill="#000000" font-family="sans-serif" font-size="14" lengthAdjust="spacing" textLength="51.748" x="421.13" y="461.001">Camera</text><line style="stroke:#181818;stroke-width:0.5;" x1="393.13" x2="474.878" y1="471.71" y2="471.71"/><line style="stroke:#181818;stroke-width:0.5;" x1="393.13" x2="474.878" y1="479.71" y2="479.71"/></g><!--class Radar--><g class="entity" data-qualified-name="Radar" data-source-line="12" id="ent0004"><rect fill="#F1F1F1" height="48" rx="2.5" ry="2.5" style="stroke:#181818;stroke-width:0.5;" width="70.8555" x="510.57" y="439.71"/><ellipse cx="525.57" cy="455.71" fill="#ADD1B2" rx="11" ry="11" style="stroke:#181818;stroke-width:1;"/><path d="M528.0431,461.8531 Q527.4621,462.1519 526.8229,462.3013 Q526.1838,462.4507 525.4782,462.4507 Q522.9714,462.4507 521.6515,460.7989 Q520.3317,459.147 520.3317,456.0259 Q520.3317,452.8965 521.6515,451.2447 Q522.9714,449.5928 525.4782,449.5928 Q526.1838,449.5928 526.8312,449.7422 Q527.4787,449.8916 528.0431,450.1905 L528.0431,452.9131 Q527.4123,452.3321 526.8188,452.0623 Q526.2253,451.7925 525.5944,451.7925 Q524.2497,451.7925 523.5649,452.8592 Q522.8801,453.9258 522.8801,456.0259 Q522.8801,458.1177 523.5649,459.1844 Q524.2497,460.251 525.5944,460.251 Q526.2253,460.251 526.8188,459.9812 Q527.4123,459.7115 528.0431,459.1304 Z " fill="#000000"/><text fill="#000000" font-family="sans-serif" font-size="14" lengthAdjust="spacing" textLength="38.8555" x="539.57" y="461.001">Radar</text><line style="stroke:#181818;stroke-width:0.5;" x1="511.57" x2="580.4255" y1="471.71" y2="471.71"/><line style="stroke:#181818;stroke-width:0.5;" x1="511.57" x2="580.4255" y1="479.71" y2="479.71"/></g><!--class Lidar--><g class="entity" data-qualified-name="Lidar" data-source-line="13" id="ent0005"><rect fill="#F1F1F1" height="48" rx="2.5" ry="2.5" style="stroke:#181818;stroke-width:0.5;" width="65.7832" x="616.11" y="439.71"/><ellipse cx="631.11" cy="455.71" fill="#ADD1B2" rx="11" ry="11" style="stroke:#181818;stroke-width:1;"/><path d="M633.5831,461.8531 Q633.0021,462.1519 632.3629,462.3013 Q631.7238,462.4507 631.0182,462.4507 Q628.5114,462.4507 627.1915,460.7989 Q625.8717,459.147 625.8717,456.0259 Q625.8717,452.8965 627.1915,451.2447 Q628.5114,449.5928 631.0182,449.5928 Q631.7238,449.5928 632.3712,449.7422 Q633.0187,449.8916 633.5831,450.1905 L633.5831,452.9131 Q632.9523,452.3321 632.3588,452.0623 Q631.7653,451.7925 631.1344,451.7925 Q629.7897,451.7925 629.1049,452.8592 Q628.4201,453.9258 628.4201,456.0259 Q628.4201,458.1177 629.1049,459.1844 Q629.7897,460.251 631.1344,460.251 Q631.7653,460.251 632.3588,459.9812 Q632.9523,459.7115 633.5831,459.1304 Z " fill="#000000"/><text fill="#000000" font-family="sans-serif" font-size="14" lengthAdjust="spacing" textLength="33.7832" x="645.11" y="461.001">Lidar</text><line style="stroke:#181818;stroke-width:0.5;" x1="617.11" x2="680.8932" y1="471.71" y2="471.71"/><line style="stroke:#181818;stroke-width:0.5;" x1="617.11" x2="680.8932" y1="479.71" y2="479.71"/></g><!--class Measurement--><g class="entity" data-qualified-name="Measurement" data-source-line="15" id="ent0006"><rect fill="#F1F1F1" height="64.4883" rx="2.5" ry="2.5" style="stroke:#181818;stroke-width:0.5;" width="172.0225" x="74.99" y="730.93"/><ellipse cx="111.7179" cy="746.93" fill="#ADD1B2" rx="11" ry="11" style="stroke:#181818;stroke-width:1;"/><path d="M114.191,753.0731 Q113.61,753.3719 112.9708,753.5213 Q112.3317,753.6707 111.6261,753.6707 Q109.1192,753.6707 107.7994,752.0189 Q106.4796,750.367 106.4796,747.2459 Q106.4796,744.1165 107.7994,742.4647 Q109.1192,740.8128 111.6261,740.8128 Q112.3317,740.8128 112.9791,740.9622 Q113.6266,741.1116 114.191,741.4105 L114.191,744.1331 Q113.5602,743.5521 112.9667,743.2823 Q112.3732,743.0125 111.7423,743.0125 Q110.3976,743.0125 109.7128,744.0792 Q109.0279,745.1458 109.0279,747.2459 Q109.0279,749.3377 109.7128,750.4044 Q110.3976,751.471 111.7423,751.471 Q112.3732,751.471 112.9667,751.2012 Q113.5602,750.9315 114.191,750.3504 Z " fill="#000000"/><text fill="#000000" font-family="sans-serif" font-size="14" lengthAdjust="spacing" textLength="91.7383" x="130.5463" y="752.221">Measurement</text><line style="stroke:#181818;stroke-width:0.5;" x1="75.99" x2="246.0125" y1="762.93" y2="762.93"/><g data-visibility-modifier="PUBLIC_FIELD"><ellipse cx="85.99" cy="776.6741" fill="none" rx="3" ry="3" style="stroke:#038048;stroke-width:1;"/></g><text fill="#000000" font-family="sans-serif" font-size="14" lengthAdjust="spacing" textLength="146.0225" x="94.99" y="780.4652">timestamp: DateTime</text><line style="stroke:#181818;stroke-width:0.5;" x1="75.99" x2="246.0125" y1="787.4183" y2="787.4183"/></g><!--class ControlUnit--><g class="entity" data-qualified-name="ControlUnit" data-source-line="19" id="ent0007"><rect fill="#F1F1F1" height="48" rx="2.5" ry="2.5" style="stroke:#181818;stroke-width:0.5;" width="110.2578" x="147.87" y="306.47"/><ellipse cx="162.87" cy="322.47" fill="#ADD1B2" rx="11" ry="11" style="stroke:#181818;stroke-width:1;"/><path d="M165.3431,328.6131 Q164.7621,328.9119 164.1229,329.0613 Q163.4838,329.2107 162.7782,329.2107 Q160.2714,329.2107 158.9515,327.5589 Q157.6317,325.907 157.6317,322.7859 Q157.6317,319.6565 158.9515,318.0047 Q160.2714,316.3528 162.7782,316.3528 Q163.4838,316.3528 164.1312,316.5022 Q164.7787,316.6516 165.3431,316.9505 L165.3431,319.6731 Q164.7123,319.0921 164.1188,318.8223 Q163.5253,318.5525 162.8944,318.5525 Q161.5497,318.5525 160.8649,319.6192 Q160.1801,320.6858 160.1801,322.7859 Q160.1801,324.8777 160.8649,325.9444 Q161.5497,327.011 162.8944,327.011 Q163.5253,327.011 164.1188,326.7412 Q164.7123,326.4715 165.3431,325.8904 Z " fill="#000000"/><text fill="#000000" font-family="sans-serif" font-size="14" lengthAdjust="spacing" textLength="78.2578" x="176.87" y="327.761">ControlUnit</text><line style="stroke:#181818;stroke-width:0.5;" x1="148.87" x2="257.1278" y1="338.47" y2="338.47"/><line style="stroke:#181818;stroke-width:0.5;" x1="148.87" x2="257.1278" y1="346.47" y2="346.47"/></g><!--class DrivingFunction--><g class="entity" data-qualified-name="DrivingFunction" data-source-line="21" id="ent0008"><rect fill="#F1F1F1" height="64.4883" rx="2.5" ry="2.5" style="stroke:#181818;stroke-width:0.5;" width="139.5977" x="217.2" y="431.47"/><ellipse cx="232.2" cy="447.47" fill="#ADD1B2" rx="11" ry="11" style="stroke:#181818;stroke-width:1;"/><path d="M234.6731,453.6131 Q234.0921,453.9119 233.4529,454.0613 Q232.8138,454.2107 232.1082,454.2107 Q229.6014,454.2107 228.2815,452.5589 Q226.9617,450.907 226.9617,447.7859 Q226.9617,444.6565 228.2815,443.0047 Q229.6014,441.3528 232.1082,441.3528 Q232.8138,441.3528 233.4612,441.5022 Q234.1087,441.6516 234.6731,441.9505 L234.6731,444.6731 Q234.0423,444.0921 233.4488,443.8223 Q232.8553,443.5525 232.2244,443.5525 Q230.8797,443.5525 230.1949,444.6192 Q229.5101,445.6858 229.5101,447.7859 Q229.5101,449.8777 230.1949,450.9444 Q230.8797,452.011 232.2244,452.011 Q232.8553,452.011 233.4488,451.7412 Q234.0423,451.4715 234.6731,450.8904 Z " fill="#000000"/><text fill="#000000" font-family="sans-serif" font-size="14" lengthAdjust="spacing" textLength="107.5977" x="246.2" y="452.761">DrivingFunction</text><line style="stroke:#181818;stroke-width:0.5;" x1="218.2" x2="355.7977" y1="463.47" y2="463.47"/><g data-visibility-modifier="PUBLIC_FIELD"><ellipse cx="228.2" cy="477.2141" fill="none" rx="3" ry="3" style="stroke:#038048;stroke-width:1;"/></g><text fill="#000000" font-family="sans-serif" font-size="14" lengthAdjust="spacing" textLength="86.1191" x="237.2" y="481.0052">name: String</text><line style="stroke:#181818;stroke-width:0.5;" x1="218.2" x2="355.7977" y1="487.9583" y2="487.9583"/></g><!--class AutomaticEmergencyBraking--><g class="entity" data-qualified-name="AutomaticEmergencyBraking" data-source-line="25" id="ent0009"><rect fill="#F1F1F1" height="48" rx="2.5" ry="2.5" style="stroke:#181818;stroke-width:0.5;" width="226.4893" x="562.76" y="306.47"/><ellipse cx="577.76" cy="322.47" fill="#ADD1B2" rx="11" ry="11" style="stroke:#181818;stroke-width:1;"/><path d="M580.2331,328.6131 Q579.6521,328.9119 579.0129,329.0613 Q578.3738,329.2107 577.6682,329.2107 Q575.1614,329.2107 573.8415,327.5589 Q572.5217,325.907 572.5217,322.7859 Q572.5217,319.6565 573.8415,318.0047 Q575.1614,316.3528 577.6682,316.3528 Q578.3738,316.3528 579.0212,316.5022 Q579.6687,316.6516 580.2331,316.9505 L580.2331,319.6731 Q579.6023,319.0921 579.0088,318.8223 Q578.4153,318.5525 577.7844,318.5525 Q576.4397,318.5525 575.7549,319.6192 Q575.0701,320.6858 575.0701,322.7859 Q575.0701,324.8777 575.7549,325.9444 Q576.4397,327.011 577.7844,327.011 Q578.4153,327.011 579.0088,326.7412 Q579.6023,326.4715 580.2331,325.8904 Z " fill="#000000"/><text fill="#000000" font-family="sans-serif" font-size="14" lengthAdjust="spacing" textLength="194.4893" x="591.76" y="327.761">AutomaticEmergencyBraking</text><line style="stroke:#181818;stroke-width:0.5;" x1="563.76" x2="788.2493" y1="338.47" y2="338.47"/><line style="stroke:#181818;stroke-width:0.5;" x1="563.76" x2="788.2493" y1="346.47" y2="346.47"/></g><!--class LaneKeepingAssist--><g class="entity" data-qualified-name="LaneKeepingAssist" data-source-line="26" id="ent0010"><rect fill="#F1F1F1" height="48" rx="2.5" ry="2.5" style="stroke:#181818;stroke-width:0.5;" width="159.0527" x="824.47" y="306.47"/><ellipse cx="839.47" cy="322.47" fill="#ADD1B2" rx="11" ry="11" style="stroke:#181818;stroke-width:1;"/><path d="M841.9431,328.6131 Q841.3621,328.9119 840.7229,329.0613 Q840.0838,329.2107 839.3782,329.2107 Q836.8714,329.2107 835.5515,327.5589 Q834.2317,325.907 834.2317,322.7859 Q834.2317,319.6565 835.5515,318.0047 Q836.8714,316.3528 839.3782,316.3528 Q840.0838,316.3528 840.7312,316.5022 Q841.3787,316.6516 841.9431,316.9505 L841.9431,319.6731 Q841.3123,319.0921 840.7188,318.8223 Q840.1253,318.5525 839.4944,318.5525 Q838.1497,318.5525 837.4649,319.6192 Q836.7801,320.6858 836.7801,322.7859 Q836.7801,324.8777 837.4649,325.9444 Q838.1497,327.011 839.4944,327.011 Q840.1253,327.011 840.7188,326.7412 Q841.3123,326.4715 841.9431,325.8904 Z " fill="#000000"/><text fill="#000000" font-family="sans-serif" font-size="14" lengthAdjust="spacing" textLength="127.0527" x="853.47" y="327.761">LaneKeepingAssist</text><line style="stroke:#181818;stroke-width:0.5;" x1="825.47" x2="982.5227" y1="338.47" y2="338.47"/><line style="stroke:#181818;stroke-width:0.5;" x1="825.47" x2="982.5227" y1="346.47" y2="346.47"/></g><!--class TestVehicle--><g class="entity" data-qualified-name="TestVehicle" data-source-line="28" id="ent0011"><rect fill="#F1F1F1" height="48" rx="2.5" ry="2.5" style="stroke:#181818;stroke-width:0.5;" width="109.7314" x="136.13" y="156.73"/><ellipse cx="151.13" cy="172.73" fill="#ADD1B2" rx="11" ry="11" style="stroke:#181818;stroke-width:1;"/><path d="M153.6031,178.8731 Q153.0221,179.1719 152.3829,179.3213 Q151.7438,179.4707 151.0382,179.4707 Q148.5314,179.4707 147.2115,177.8189 Q145.8917,176.167 145.8917,173.0459 Q145.8917,169.9165 147.2115,168.2647 Q148.5314,166.6128 151.0382,166.6128 Q151.7438,166.6128 152.3912,166.7622 Q153.0387,166.9116 153.6031,167.2105 L153.6031,169.9331 Q152.9723,169.3521 152.3788,169.0823 Q151.7853,168.8125 151.1544,168.8125 Q149.8097,168.8125 149.1249,169.8792 Q148.4401,170.9458 148.4401,173.0459 Q148.4401,175.1377 149.1249,176.2044 Q149.8097,177.271 151.1544,177.271 Q151.7853,177.271 152.3788,177.0012 Q152.9723,176.7315 153.6031,176.1504 Z " fill="#000000"/><text fill="#000000" font-family="sans-serif" font-size="14" lengthAdjust="spacing" textLength="77.7314" x="165.13" y="178.021">TestVehicle</text><line style="stroke:#181818;stroke-width:0.5;" x1="137.13" x2="244.8614" y1="188.73" y2="188.73"/><line style="stroke:#181818;stroke-width:0.5;" x1="137.13" x2="244.8614" y1="196.73" y2="196.73"/></g><!--class TestScenario--><g class="entity" data-qualified-name="TestScenario" data-source-line="30" id="ent0012"><rect fill="#F1F1F1" height="48" rx="2.5" ry="2.5" style="stroke:#181818;stroke-width:0.5;" width="118.3311" x="409.83" y="306.47"/><ellipse cx="424.83" cy="322.47" fill="#ADD1B2" rx="11" ry="11" style="stroke:#181818;stroke-width:1;"/><path d="M427.3031,328.6131 Q426.7221,328.9119 426.0829,329.0613 Q425.4438,329.2107 424.7382,329.2107 Q422.2314,329.2107 420.9115,327.5589 Q419.5917,325.907 419.5917,322.7859 Q419.5917,319.6565 420.9115,318.0047 Q422.2314,316.3528 424.7382,316.3528 Q425.4438,316.3528 426.0912,316.5022 Q426.7387,316.6516 427.3031,316.9505 L427.3031,319.6731 Q426.6723,319.0921 426.0788,318.8223 Q425.4853,318.5525 424.8544,318.5525 Q423.5097,318.5525 422.8249,319.6192 Q422.1401,320.6858 422.1401,322.7859 Q422.1401,324.8777 422.8249,325.9444 Q423.5097,327.011 424.8544,327.011 Q425.4853,327.011 426.0788,326.7412 Q426.6723,326.4715 427.3031,325.8904 Z " fill="#000000"/><text fill="#000000" font-family="sans-serif" font-size="14" lengthAdjust="spacing" textLength="86.3311" x="438.83" y="327.761">TestScenario</text><line style="stroke:#181818;stroke-width:0.5;" x1="410.83" x2="527.1611" y1="338.47" y2="338.47"/><line style="stroke:#181818;stroke-width:0.5;" x1="410.83" x2="527.1611" y1="346.47" y2="346.47"/></g><!--class TestCase--><g class="entity" data-qualified-name="TestCase" data-source-line="32" id="ent0013"><rect fill="#F1F1F1" height="48" rx="2.5" ry="2.5" style="stroke:#181818;stroke-width:0.5;" width="93.3799" x="281.31" y="156.73"/><ellipse cx="296.31" cy="172.73" fill="#ADD1B2" rx="11" ry="11" style="stroke:#181818;stroke-width:1;"/><path d="M298.7831,178.8731 Q298.2021,179.1719 297.5629,179.3213 Q296.9238,179.4707 296.2182,179.4707 Q293.7114,179.4707 292.3915,177.8189 Q291.0717,176.167 291.0717,173.0459 Q291.0717,169.9165 292.3915,168.2647 Q293.7114,166.6128 296.2182,166.6128 Q296.9238,166.6128 297.5712,166.7622 Q298.2187,166.9116 298.7831,167.2105 L298.7831,169.9331 Q298.1523,169.3521 297.5588,169.0823 Q296.9653,168.8125 296.3344,168.8125 Q294.9897,168.8125 294.3049,169.8792 Q293.6201,170.9458 293.6201,173.0459 Q293.6201,175.1377 294.3049,176.2044 Q294.9897,177.271 296.3344,177.271 Q296.9653,177.271 297.5588,177.0012 Q298.1523,176.7315 298.7831,176.1504 Z " fill="#000000"/><text fill="#000000" font-family="sans-serif" font-size="14" lengthAdjust="spacing" textLength="61.3799" x="310.31" y="178.021">TestCase</text><line style="stroke:#181818;stroke-width:0.5;" x1="282.31" x2="373.6899" y1="188.73" y2="188.73"/><line style="stroke:#181818;stroke-width:0.5;" x1="282.31" x2="373.6899" y1="196.73" y2="196.73"/></g><!--class TestRun--><g class="entity" data-qualified-name="TestRun" data-source-line="34" id="ent0014"><rect fill="#F1F1F1" height="48" rx="2.5" ry="2.5" style="stroke:#181818;stroke-width:0.5;" width="87.2549" x="216.37" y="7"/><ellipse cx="231.37" cy="23" fill="#ADD1B2" rx="11" ry="11" style="stroke:#181818;stroke-width:1;"/><path d="M233.8431,29.1431 Q233.2621,29.4419 232.6229,29.5913 Q231.9838,29.7407 231.2782,29.7407 Q228.7714,29.7407 227.4515,28.0889 Q226.1317,26.437 226.1317,23.3159 Q226.1317,20.1865 227.4515,18.5347 Q228.7714,16.8828 231.2782,16.8828 Q231.9838,16.8828 232.6312,17.0322 Q233.2787,17.1816 233.8431,17.4805 L233.8431,20.2031 Q233.2123,19.6221 232.6188,19.3523 Q232.0253,19.0825 231.3944,19.0825 Q230.0497,19.0825 229.3649,20.1492 Q228.6801,21.2158 228.6801,23.3159 Q228.6801,25.4077 229.3649,26.4744 Q230.0497,27.541 231.3944,27.541 Q232.0253,27.541 232.6188,27.2712 Q233.2123,27.0015 233.8431,26.4204 Z " fill="#000000"/><text fill="#000000" font-family="sans-serif" font-size="14" lengthAdjust="spacing" textLength="55.2549" x="245.37" y="28.291">TestRun</text><line style="stroke:#181818;stroke-width:0.5;" x1="217.37" x2="302.6249" y1="39" y2="39"/><line style="stroke:#181818;stroke-width:0.5;" x1="217.37" x2="302.6249" y1="47" y2="47"/></g><!--class TestResult--><g class="entity" data-qualified-name="TestResult" data-source-line="36" id="ent0015"><rect fill="#F1F1F1" height="97.4648" rx="2.5" ry="2.5" style="stroke:#181818;stroke-width:0.5;" width="102.7861" x="409.61" y="132"/><ellipse cx="424.61" cy="148" fill="#EB937F" rx="11" ry="11" style="stroke:#181818;stroke-width:1;"/><path d="M428.2243,154.5 L420.5045,154.5 L420.5045,142.1069 L428.2243,142.1069 L428.2243,144.2651 L422.9533,144.2651 L422.9533,146.938 L427.7262,146.938 L427.7262,149.0962 L422.9533,149.0962 L422.9533,152.3418 L428.2243,152.3418 Z " fill="#000000"/><text fill="#000000" font-family="sans-serif" font-size="14" lengthAdjust="spacing" textLength="70.7861" x="438.61" y="153.291">TestResult</text><line style="stroke:#181818;stroke-width:0.5;" x1="410.61" x2="511.3961" y1="164" y2="164"/><text fill="#000000" font-family="sans-serif" font-size="14" lengthAdjust="spacing" textLength="46.3545" x="415.61" y="181.5352">Passed</text><text fill="#000000" font-family="sans-serif" font-size="14" lengthAdjust="spacing" textLength="39.9424" x="415.61" y="198.0234">Failed</text><text fill="#000000" font-family="sans-serif" font-size="14" lengthAdjust="spacing" textLength="54.6465" x="415.61" y="214.5117">Aborted</text><line style="stroke:#181818;stroke-width:0.5;" x1="410.61" x2="511.3961" y1="221.4648" y2="221.4648"/></g><!--link Sensor to CalibrationContract--><g class="link" data-entity-1="ent0002" data-entity-2="ent0001" data-link-type="extension" data-source-line="42" id="lnk16"><path codeLine="42" d="M397,654.42 C397,678.35 397,690.33 397,712.59" fill="none" id="Sensor-to-CalibrationContract" style="stroke:#181818;stroke-width:1;stroke-dasharray:7,7;"/><polygon fill="none" points="397,730.59,403,712.59,391,712.59,397,730.59" style="stroke:#181818;stroke-width:1;stroke-linejoin:miter;stroke-miterlimit:10;"/></g><!--link Camera to Sensor--><g class="link" data-entity-1="ent0003" data-entity-2="ent0002" data-link-type="extension" data-source-line="43" id="lnk17"><path codeLine="43" d="M428.14,488.12 C422.45,510.82 418.0978,528.2405 411.3178,555.2805" fill="none" id="Camera-to-Sensor" style="stroke:#181818;stroke-width:1;"/><polygon fill="none" points="406.94,572.74,417.1376,556.7397,405.498,553.8212,406.94,572.74" style="stroke:#181818;stroke-width:1;stroke-linejoin:miter;stroke-miterlimit:10;"/></g><!--link Radar to Sensor--><g class="link" data-entity-1="ent0004" data-entity-2="ent0002" data-link-type="extension" data-source-line="44" id="lnk18"><path codeLine="44" d="M522.39,488.12 C499.5,510.82 477.104,533.0284 449.824,560.0684" fill="none" id="Radar-to-Sensor" style="stroke:#181818;stroke-width:1;"/><polygon fill="none" points="437.04,572.74,454.0479,564.3298,445.6002,555.8071,437.04,572.74" style="stroke:#181818;stroke-width:1;stroke-linejoin:miter;stroke-miterlimit:10;"/></g><!--link Lidar to Sensor--><g class="link" data-entity-1="ent0005" data-entity-2="ent0002" data-link-type="extension" data-source-line="45" id="lnk19"><path codeLine="45" d="M615.75,485.72 C610.18,489.17 604.44,492.69 599,495.96 C555.62,522.01 522.075,541.4712 483.105,563.7012" fill="none" id="Lidar-to-Sensor" style="stroke:#181818;stroke-width:1;"/><polygon fill="none" points="467.47,572.62,486.078,568.9128,480.1321,558.4895,467.47,572.62" style="stroke:#181818;stroke-width:1;stroke-linejoin:miter;stroke-miterlimit:10;"/></g><!--link AutomaticEmergencyBraking to DrivingFunction--><g class="link" data-entity-1="ent0009" data-entity-2="ent0008" data-link-type="extension" data-source-line="47" id="lnk20"><path codeLine="47" d="M604.1,354.9 C543.03,374.91 453.12,404.63 375,431.47 C369.17,433.47 380.1303,429.6162 374.0703,431.7362" fill="none" id="AutomaticEmergencyBraking-to-DrivingFunction" style="stroke:#181818;stroke-width:1;"/><polygon fill="none" points="357.08,437.68,376.0516,437.3996,372.0891,426.0727,357.08,437.68" style="stroke:#181818;stroke-width:1;stroke-linejoin:miter;stroke-miterlimit:10;"/></g><!--link LaneKeepingAssist to DrivingFunction--><g class="link" data-entity-1="ent0010" data-entity-2="ent0008" data-link-type="extension" data-source-line="48" id="lnk21"><path codeLine="48" d="M824.15,350.78 C818.35,352.06 812.59,353.31 807,354.47 C711.52,374.28 469.27,406.51 375,431.47 C369.2,433 380.4201,429.3794 374.4701,431.2394" fill="none" id="LaneKeepingAssist-to-DrivingFunction" style="stroke:#181818;stroke-width:1;"/><polygon fill="none" points="357.29,436.61,376.2603,436.9661,372.6799,425.5127,357.29,436.61" style="stroke:#181818;stroke-width:1;stroke-linejoin:miter;stroke-miterlimit:10;"/></g><!--reverse link TestVehicle to ControlUnit--><g class="link" data-entity-1="ent0011" data-entity-2="ent0007" data-link-type="composition" data-source-line="50" id="lnk22"><path codeLine="50" d="M193.8726,217.1005 C196.1226,244.7705 198.86,278.55 201.11,306.17" fill="none" id="TestVehicle-backto-ControlUnit" style="stroke:#181818;stroke-width:1;"/><polygon fill="#181818" points="192.9,205.14,189.3994,211.4445,193.8726,217.1005,197.3731,210.7961,192.9,205.14" style="stroke:#181818;stroke-width:1;stroke-linejoin:miter;stroke-miterlimit:10;"/><text fill="#000000" font-family="sans-serif" font-size="13" lengthAdjust="spacing" textLength="68.0913" x="199.43" y="273.0384">consists of</text><text fill="#000000" font-family="sans-serif" font-size="13" lengthAdjust="spacing" textLength="8.2202" x="184.4408" y="225.1235">1</text><text fill="#000000" font-family="sans-serif" font-size="13" lengthAdjust="spacing" textLength="22.7119" x="175.8984" y="295.6294">0..*</text></g><!--reverse link TestVehicle to Sensor--><g class="link" data-entity-1="ent0011" data-entity-2="ent0002" data-link-type="composition" data-source-line="51" id="lnk23"><path codeLine="51" d="M166.9357,214.9154 C144.6957,247.6454 117.15,299.5 130,354.47 C145.98,422.78 152.27,444.53 200,495.96 C230.41,528.72 272.13,555.18 309.36,574.56" fill="none" id="TestVehicle-backto-Sensor" style="stroke:#181818;stroke-width:1;"/><polygon fill="#181818" points="173.68,204.99,166.9994,207.7046,166.9357,214.9154,173.6163,212.2008,173.68,204.99" style="stroke:#181818;stroke-width:1;stroke-linejoin:miter;stroke-miterlimit:10;"/><text fill="#000000" font-family="sans-serif" font-size="13" lengthAdjust="spacing" textLength="68.0913" x="142.8" y="398.0384">consists of</text><text fill="#000000" font-family="sans-serif" font-size="13" lengthAdjust="spacing" textLength="8.2202" x="160.5111" y="225.3377">1</text><text fill="#000000" font-family="sans-serif" font-size="13" lengthAdjust="spacing" textLength="22.7119" x="278.6069" y="568.0107">0..*</text></g><!--reverse link ControlUnit to DrivingFunction--><g class="link" data-entity-1="ent0007" data-entity-2="ent0008" data-link-type="composition" data-source-line="52" id="lnk24"><path codeLine="52" d="M224.4874,365.038 C238.0774,386.278 251.74,407.61 266.75,431.07" fill="none" id="ControlUnit-backto-DrivingFunction" style="stroke:#181818;stroke-width:1;"/><polygon fill="#181818" points="218.02,354.93,217.8844,362.1398,224.4874,365.038,224.6231,357.8282,218.02,354.93" style="stroke:#181818;stroke-width:1;stroke-linejoin:miter;stroke-miterlimit:10;"/><text fill="#000000" font-family="sans-serif" font-size="13" lengthAdjust="spacing" textLength="28.082" x="248.52" y="398.0384">runs</text><text fill="#000000" font-family="sans-serif" font-size="13" lengthAdjust="spacing" textLength="8.2202" x="212.5941" y="374.925">1</text><text fill="#000000" font-family="sans-serif" font-size="13" lengthAdjust="spacing" textLength="22.7119" x="238.668" y="420.7656">0..*</text></g><!--reverse link DrivingFunction to Sensor--><g class="link" data-entity-1="ent0008" data-entity-2="ent0002" data-link-type="aggregation" data-source-line="54" id="lnk25"><path codeLine="54" d="M317.7654,506.0258 C334.3654,528.3258 349.54,548.71 367.35,572.62" fill="none" id="DrivingFunction-backto-Sensor" style="stroke:#181818;stroke-width:1;"/><polygon fill="none" points="310.6,496.4,310.9741,503.6014,317.7654,506.0258,317.3913,498.8244,310.6,496.4" style="stroke:#181818;stroke-width:1;stroke-linejoin:miter;stroke-miterlimit:10;"/><text fill="#000000" font-family="sans-serif" font-size="13" lengthAdjust="spacing" textLength="28.5645" x="343" y="539.5284">uses</text><text fill="#000000" font-family="sans-serif" font-size="13" lengthAdjust="spacing" textLength="8.2202" x="306.2343" y="516.4063">1</text><text fill="#000000" font-family="sans-serif" font-size="13" lengthAdjust="spacing" textLength="22.7119" x="338.6768" y="562.2097">1..*</text></g><!--reverse link Sensor to Measurement--><g class="link" data-entity-1="ent0002" data-entity-2="ent0006" data-link-type="composition" data-source-line="56" id="lnk26"><path codeLine="56" d="M322.9684,660.7869 C284.7384,684.7169 247.02,708.33 211.46,730.59" fill="none" id="Sensor-backto-Measurement" style="stroke:#181818;stroke-width:1;"/><polygon fill="#181818" points="333.14,654.42,325.9319,654.2129,322.9684,660.7869,330.1765,660.994,333.14,654.42" style="stroke:#181818;stroke-width:1;stroke-linejoin:miter;stroke-miterlimit:10;"/><text fill="#000000" font-family="sans-serif" font-size="13" lengthAdjust="spacing" textLength="61.8896" x="280" y="697.4984">generates</text><text fill="#000000" font-family="sans-serif" font-size="13" lengthAdjust="spacing" textLength="8.2202" x="314.7663" y="674.4344">1</text><text fill="#000000" font-family="sans-serif" font-size="13" lengthAdjust="spacing" textLength="22.7119" x="197.2985" y="720.2974">0..*</text></g><!--link TestCase to TestScenario--><g class="link" data-entity-1="ent0013" data-entity-2="ent0012" data-link-type="dependency" data-source-line="58" id="lnk27"><path codeLine="58" d="M350.34,205.14 C376.74,232.81 416.9586,274.9323 443.3086,302.5523" fill="none" id="TestCase-to-TestScenario" style="stroke:#181818;stroke-width:1;"/><polygon fill="#181818" points="446.76,306.17,443.4417,296.897,443.3086,302.5523,437.6533,302.4192,446.76,306.17" style="stroke:#181818;stroke-width:1;stroke-linejoin:miter;stroke-miterlimit:10;"/><text fill="#000000" font-family="sans-serif" font-size="13" lengthAdjust="spacing" textLength="73.0933" x="416.28" y="273.0384">instantiates</text><text fill="#000000" font-family="sans-serif" font-size="13" lengthAdjust="spacing" textLength="8.2202" x="346.6066" y="225.1235">1</text><text fill="#000000" font-family="sans-serif" font-size="13" lengthAdjust="spacing" textLength="8.2202" x="432.0654" y="295.6294">1</text></g><!--link TestCase to DrivingFunction--><g class="link" data-entity-1="ent0013" data-entity-2="ent0008" data-link-type="dependency" data-source-line="59" id="lnk28"><path codeLine="59" d="M324.57,205.21 C317.22,255.59 300.6519,369.1824 292.3419,426.1324" fill="none" id="TestCase-to-DrivingFunction" style="stroke:#181818;stroke-width:1;"/><polygon fill="#181818" points="291.62,431.08,296.8776,422.7519,292.3419,426.1324,288.9614,421.5968,291.62,431.08" style="stroke:#181818;stroke-width:1;stroke-linejoin:miter;stroke-miterlimit:10;"/><text fill="#000000" font-family="sans-serif" font-size="13" lengthAdjust="spacing" textLength="45.4556" x="310.55" y="335.5384">verifies</text><text fill="#000000" font-family="sans-serif" font-size="13" lengthAdjust="spacing" textLength="8.2202" x="314.8773" y="225.2096">1</text><text fill="#000000" font-family="sans-serif" font-size="13" lengthAdjust="spacing" textLength="8.2202" x="283.764" y="420.7775">1</text></g><!--link TestRun to TestCase--><g class="link" data-entity-1="ent0014" data-entity-2="ent0013" data-link-type="dependency" data-source-line="61" id="lnk29"><path codeLine="61" d="M270.77,55.41 C283.51,83.07 302.4685,124.2785 315.1885,151.8985" fill="none" id="TestRun-to-TestCase" style="stroke:#181818;stroke-width:1;"/><polygon fill="#181818" points="317.28,156.44,317.1485,146.592,315.1885,151.8985,309.882,149.9385,317.28,156.44" style="stroke:#181818;stroke-width:1;stroke-linejoin:miter;stroke-miterlimit:10;"/><text fill="#000000" font-family="sans-serif" font-size="13" lengthAdjust="spacing" textLength="55.9165" x="292.96" y="98.5684">executes</text><text fill="#000000" font-family="sans-serif" font-size="13" lengthAdjust="spacing" textLength="8.2202" x="264.3616" y="75.3935">1</text><text fill="#000000" font-family="sans-serif" font-size="13" lengthAdjust="spacing" textLength="8.2202" x="305.5362" y="145.902">1</text></g><!--link TestRun to TestVehicle--><g class="link" data-entity-1="ent0014" data-entity-2="ent0011" data-link-type="dependency" data-source-line="62" id="lnk30"><path codeLine="62" d="M249.07,55.41 C236.15,83.07 216.8959,124.2898 203.9959,151.9098" fill="none" id="TestRun-to-TestVehicle" style="stroke:#181818;stroke-width:1;"/><polygon fill="#181818" points="201.88,156.44,209.3128,149.9783,203.9959,151.9098,202.0644,146.5929,201.88,156.44" style="stroke:#181818;stroke-width:1;stroke-linejoin:miter;stroke-miterlimit:10;"/><text fill="#000000" font-family="sans-serif" font-size="13" lengthAdjust="spacing" textLength="16.0532" x="234.71" y="98.5684">on</text><text fill="#000000" font-family="sans-serif" font-size="13" lengthAdjust="spacing" textLength="8.2202" x="237.6435" y="75.3935">1</text><text fill="#000000" font-family="sans-serif" font-size="13" lengthAdjust="spacing" textLength="8.2202" x="195.6723" y="145.902">1</text></g><!--reverse link TestRun to Measurement--><g class="link" data-entity-1="ent0014" data-entity-2="ent0006" data-link-type="composition" data-source-line="63" id="lnk31"><path codeLine="63" d="M204.2007,39.2856 C131.5007,50.9156 6,83.7 6,179.73 C6,179.73 6,179.73 6,614.44 C6,666.3 52.03,705.51 93.92,730.46" fill="none" id="TestRun-backto-Measurement" style="stroke:#181818;stroke-width:1;"/><polygon fill="#181818" points="216.05,37.39,209.4935,34.388,204.2007,39.2856,210.7572,42.2876,216.05,37.39" style="stroke:#181818;stroke-width:1;stroke-linejoin:miter;stroke-miterlimit:10;"/><text fill="#000000" font-family="sans-serif" font-size="13" lengthAdjust="spacing" textLength="47.5503" x="7" y="398.0384">collects</text><text fill="#000000" font-family="sans-serif" font-size="13" lengthAdjust="spacing" textLength="8.2202" x="200.1269" y="34.8002">1</text><text fill="#000000" font-family="sans-serif" font-size="13" lengthAdjust="spacing" textLength="22.7119" x="56.6178" y="720.1418">0..*</text></g><!--link TestRun to TestResult--><g class="link" data-entity-1="ent0014" data-entity-2="ent0015" data-link-type="dependency" data-source-line="64" id="lnk32"><path codeLine="64" d="M303.82,53.1 C320.96,62.08 340.44,73.19 357,85 C376.39,98.83 392.4306,112.4529 409.4006,128.2529" fill="none" id="TestRun-to-TestResult" style="stroke:#181818;stroke-width:1;"/><polygon fill="#181818" points="413.06,131.66,409.1987,122.5996,409.4006,128.2529,403.7473,128.4547,413.06,131.66" style="stroke:#181818;stroke-width:1;stroke-linejoin:miter;stroke-miterlimit:10;"/><text fill="#000000" font-family="sans-serif" font-size="13" lengthAdjust="spacing" textLength="60.9375" x="379.36" y="98.5684">ends with</text><text fill="#000000" font-family="sans-serif" font-size="13" lengthAdjust="spacing" textLength="8.2202" x="311.7588" y="53.1122">1</text><text fill="#000000" font-family="sans-serif" font-size="13" lengthAdjust="spacing" textLength="8.2202" x="397.771" y="121.2947">1</text></g><?plantuml-src VLDDRzim3BthLn0vRHqSh5SV2gJfUja7XgJRdLQOLfXC5VheDcpxxwCi9v2Tf2UJrECZ-KWRZkJtg0dMQ4tdCHh7QyVHeuxmHm6yq-C3lNdRmgrpbf3LFwMm2mMbBOO0M-BWV4a9v0tQBwdloBUmZTxmun37_jcAlH6s5kvSwYnbgiAmnfuyZiu6T-X7-vF9zkXy9Wp9KqyyzXTDJo4Aip0AxuEu5MSUnTblRE8XTEVDY_HmdrZdOGi9I-rZfyViLOgk5qdq1-diaLZ_llNu8qF6nf3f8z6pH5OXc72iyI0TVQSdesM-AhJLnEYDgsDh31FC9h5InAal7eLaow1V1K4xCUxHsC5OTSv7iQJVKVtbyk_DkKsgeYqqZRmNh1eKdaG6dISHTL610fjfgKu4EGzJbJwmk5x0LTF0ulroURMeDmOjQCUP9e3RlvOqZZ_5rqmp_Fm6Ml29WrBpU4vpEUrwMYO52aVHPzprWROWcb7-UK8PEczxI6YQc-5RduN03SifSpH3njc4qzPVv6_RcqC5kP-J0WD92_IBT3eGdyCTr6r1bbI3BewddRMausNAyO2bEEy2_3JnIVq7?></g></svg>