<svg id="my-svg" width="100%" xmlns="http://www.w3.org/2000/svg" xmlns:xlink="http://www.w3.org/1999/xlink" class="classDiagram" style="max-width: 435.82px; background-color: white;" viewBox="0 0 435.8203125 790" role="graphics-document document" aria-roledescription="class"><style>#my-svg{font-family:"trebuchet ms",verdana,arial,sans-serif;font-size:16px;fill:#333;}@keyframes edge-animation-frame{from{stroke-dashoffset:0;}}@keyframes dash{to{stroke-dashoffset:0;}}#my-svg .edge-animation-slow{stroke-dasharray:9,5!important;stroke-dashoffset:900;animation:dash 50s linear infinite;stroke-linecap:round;}#my-svg .edge-animation-fast{stroke-dasharray:9,5!important;stroke-dashoffset:900;animation:dash 20s linear infinite;stroke-linecap:round;}#my-svg .error-icon{fill:#552222;}#my-svg .error-text{fill:#552222;stroke:#552222;}#my-svg .edge-thickness-normal{stroke-width:1px;}#my-svg .edge-thickness-thick{stroke-width:3.5px;}#my-svg .edge-pattern-solid{stroke-dasharray:0;}#my-svg .edge-thickness-invisible{stroke-width:0;fill:none;}#my-svg .edge-pattern-dashed{stroke-dasharray:3;}#my-svg .edge-pattern-dotted{stroke-dasharray:2;}#my-svg .marker{fill:#333333;stroke:#333333;}#my-svg .marker.cross{stroke:#333333;}#my-svg svg{font-family:"trebuchet ms",verdana,arial,sans-serif;font-size:16px;}#my-svg p{margin:0;}#my-svg g.classGroup text{fill:#9370DB;stroke:none;font-family:"trebuchet ms",verdana,arial,sans-serif;font-size:10px;}#my-svg g.classGroup text .title{font-weight:bolder;}#my-svg .cluster-label text{fill:#333;}#my-svg .cluster-label span{color:#333;}#my-svg .cluster-label span p{background-color:transparent;}#my-svg .cluster rect{fill:#ffffde;stroke:#aaaa33;stroke-width:1px;}#my-svg .cluster text{fill:#333;}#my-svg .cluster span{color:#333;}#my-svg .nodeLabel,#my-svg .edgeLabel{color:#131300;}#my-svg .noteLabel .nodeLabel,#my-svg .noteLabel .edgeLabel{color:black;}#my-svg .edgeLabel .label rect{fill:#ECECFF;}#my-svg .label text{fill:#131300;}#my-svg .labelBkg{background:#ECECFF;}#my-svg .edgeLabel .label span{background:#ECECFF;}#my-svg .classTitle{font-weight:bolder;}#my-svg .node rect,#my-svg .node circle,#my-svg .node ellipse,#my-svg .node polygon,#my-svg .node path{fill:#ECECFF;stroke:#9370DB;stroke-width:1;}#my-svg .divider{stroke:#9370DB;stroke-width:1;}#my-svg g.clickable{cursor:pointer;}#my-svg g.classGroup rect{fill:#ECECFF;stroke:#9370DB;}#my-svg g.classGroup line{stroke:#9370DB;stroke-width:1;}#my-svg .classLabel .box{stroke:none;stroke-width:0;fill:#ECECFF;opacity:0.5;}#my-svg .classLabel .label{fill:#9370DB;font-size:10px;}#my-svg .relation{stroke:#333333;stroke-width:1;fill:none;}#my-svg .dashed-line{stroke-dasharray:3;}#my-svg .dotted-line{stroke-dasharray:1 2;}#my-svg [id$="-compositionStart"],#my-svg .composition{fill:#333333!important;stroke:#333333!important;stroke-width:1;}#my-svg [id$="-compositionEnd"],#my-svg .composition{fill:#333333!important;stroke:#333333!important;stroke-width:1;}#my-svg [id$="-dependencyStart"],#my-svg .dependency{fill:#333333!important;stroke:#333333!important;stroke-width:1;}#my-svg [id$="-dependencyEnd"],#my-svg .dependency{fill:#333333!important;stroke:#333333!important;stroke-width:1;}#my-svg [id$="-extensionStart"],#my-svg .extension{fill:transparent!important;stroke:#333333!important;stroke-width:1;}#my-svg [id$="-extensionEnd"],#my-svg .extension{fill:transparent!important;stroke:#333333!important;stroke-width:1;}#my-svg [id$="-aggregationStart"],#my-svg .aggregation{fill:transparent!important;stroke:#333333!important;stroke-width:1;}#my-svg [id$="-aggregationEnd"],#my-svg .aggregation{fill:transparent!important;stroke:#333333!important;stroke-width:1;}#my-svg [id$="-lollipopStart"],#my-svg .lollipop{fill:#ECECFF!important;stroke:#333333!important;stroke-width:1;}#my-svg [id$="-lollipopEnd"],#my-svg .lollipop{fill:#ECECFF!important;stroke:#333333!important;stroke-width:1;}#my-svg .edgeTerminals{font-size:11px;line-height:initial;}#my-svg .classTitleText{text-anchor:middle;font-size:18px;fill:#333;}#my-svg .edgeLabel[data-look="neo"]{background-color:rgba(232,232,232, 0.8);text-align:center;}#my-svg .edgeLabel[data-look="neo"] p{background-color:rgba(232,232,232, 0.8);}#my-svg .edgeLabel[data-look="neo"] rect{opacity:0.5;background-color:rgba(232,232,232, 0.8);fill:rgba(232,232,232, 0.8);}#my-svg .label-icon{display:inline-block;height:1em;overflow:visible;vertical-align:-0.125em;}#my-svg .node .label-icon path{fill:currentColor;stroke:revert;stroke-width:revert;}#my-svg .node .neo-node{stroke:#9370DB;}#my-svg [data-look="neo"].node rect,#my-svg [data-look="neo"].cluster rect,#my-svg [data-look="neo"].node polygon{stroke:#9370DB;filter:drop-shadow(1px 2px 2px rgba(185, 185, 185, 1));}#my-svg [data-look="neo"].swimlane.cluster rect{filter:none;}#my-svg [data-look="neo"].node path{stroke:#9370DB;stroke-width:1px;}#my-svg [data-look="neo"].node .outer-path{filter:drop-shadow(1px 2px 2px rgba(185, 185, 185, 1));}#my-svg [data-look="neo"].node .neo-line path{stroke:#9370DB;filter:none;}#my-svg [data-look="neo"].node circle{stroke:#9370DB;filter:drop-shadow(1px 2px 2px rgba(185, 185, 185, 1));}#my-svg [data-look="neo"].node circle .state-start{fill:#000000;}#my-svg [data-look="neo"].icon-shape .icon{fill:#9370DB;filter:drop-shadow(1px 2px 2px rgba(185, 185, 185, 1));}#my-svg [data-look="neo"].icon-shape .icon-neo path{stroke:#9370DB;filter:drop-shadow(1px 2px 2px rgba(185, 185, 185, 1));}#my-svg :root{--mermaid-font-family:"trebuchet ms",verdana,arial,sans-serif;}</style><g><defs><marker id="my-svg_class-aggregationStart" class="marker aggregation class" refX="18" refY="7" markerWidth="190" markerHeight="240" orient="auto"><path d="M 18,7 L9,13 L1,7 L9,1 Z"/></marker></defs><defs><marker id="my-svg_class-aggregationEnd" class="marker aggregation class" refX="1" refY="7" markerWidth="20" markerHeight="28" orient="auto"><path d="M 18,7 L9,13 L1,7 L9,1 Z"/></marker></defs><defs><marker id="my-svg_class-aggregationStart-margin" class="marker aggregation class" refX="15" refY="7" markerWidth="190" markerHeight="240" orient="auto" markerUnits="userSpaceOnUse"><path d="M 18,7 L9,13 L1,7 L9,1 Z" style="stroke-width: 2;"/></marker></defs><defs><marker id="my-svg_class-aggregationEnd-margin" class="marker aggregation class" refX="1" refY="7" markerWidth="20" markerHeight="28" orient="auto" markerUnits="userSpaceOnUse"><path d="M 18,7 L9,13 L1,7 L9,1 Z" style="stroke-width: 2;"/></marker></defs><defs><marker id="my-svg_class-extensionStart" class="marker extension class" refX="18" refY="7" markerWidth="20" markerHeight="28" orient="auto" markerUnits="userSpaceOnUse"><path d="M 1,7 L18,13 V 1 Z"/></marker></defs><defs><marker id="my-svg_class-extensionEnd" class="marker extension class" refX="1" refY="7" markerWidth="20" markerHeight="28" orient="auto"><path d="M 1,1 V 13 L18,7 Z"/></marker></defs><marker id="my-svg_class-extensionStart-margin" class="marker extension class" refX="18" refY="7" markerWidth="20" markerHeight="28" orient="auto" markerUnits="userSpaceOnUse" viewBox="0 0 20 14"><polygon points="10,7 18,13 18,1" style="stroke-width: 2; stroke-dasharray: 0;"/></marker><defs><marker id="my-svg_class-extensionEnd-margin" class="marker extension class" refX="9" refY="7" markerWidth="20" markerHeight="28" orient="auto" markerUnits="userSpaceOnUse" viewBox="0 0 20 14"><polygon points="10,1 10,13 18,7" style="stroke-width: 2; stroke-dasharray: 0;"/></marker></defs><defs><marker id="my-svg_class-compositionStart" class="marker composition class" refX="18" refY="7" markerWidth="190" markerHeight="240" orient="auto"><path d="M 18,7 L9,13 L1,7 L9,1 Z"/></marker></defs><defs><marker id="my-svg_class-compositionEnd" class="marker composition class" refX="1" refY="7" markerWidth="20" markerHeight="28" orient="auto"><path d="M 18,7 L9,13 L1,7 L9,1 Z"/></marker></defs><defs><marker id="my-svg_class-compositionStart-margin" class="marker composition class" refX="15" refY="7" markerWidth="190" markerHeight="240" orient="auto" markerUnits="userSpaceOnUse"><path viewBox="0 0 15 15" d="M 18,7 L9,13 L1,7 L9,1 Z" style="stroke-width: 0;"/></marker></defs><defs><marker id="my-svg_class-compositionEnd-margin" class="marker composition class" refX="3.5" refY="7" markerWidth="20" markerHeight="28" orient="auto" markerUnits="userSpaceOnUse"><path d="M 18,7 L9,13 L1,7 L9,1 Z" style="stroke-width: 0;"/></marker></defs><defs><marker id="my-svg_class-dependencyStart" class="marker dependency class" refX="6" refY="7" markerWidth="190" markerHeight="240" orient="auto"><path d="M 5,7 L9,13 L1,7 L9,1 Z"/></marker></defs><defs><marker id="my-svg_class-dependencyEnd" class="marker dependency class" refX="13" refY="7" markerWidth="20" markerHeight="28" orient="auto"><path d="M 18,7 L9,13 L14,7 L9,1 Z"/></marker></defs><defs><marker id="my-svg_class-dependencyStart-margin" class="marker dependency class" refX="4" refY="7" markerWidth="190" markerHeight="240" orient="auto" markerUnits="userSpaceOnUse"><path d="M 5,7 L9,13 L1,7 L9,1 Z" style="stroke-width: 0;"/></marker></defs><defs><marker id="my-svg_class-dependencyEnd-margin" class="marker dependency class" refX="16" refY="7" markerWidth="20" markerHeight="28" orient="auto" markerUnits="userSpaceOnUse"><path d="M 18,7 L9,13 L14,7 L9,1 Z" style="stroke-width: 0;"/></marker></defs><defs><marker id="my-svg_class-lollipopStart" class="marker lollipop class" refX="13" refY="7" markerWidth="190" markerHeight="240" orient="auto"><circle fill="transparent" cx="7" cy="7" r="6"/></marker></defs><defs><marker id="my-svg_class-lollipopEnd" class="marker lollipop class" refX="1" refY="7" markerWidth="190" markerHeight="240" orient="auto"><circle fill="transparent" cx="7" cy="7" r="6"/></marker></defs><defs><marker id="my-svg_class-lollipopStart-margin" class="marker lollipop class" refX="13" refY="7" markerWidth="190" markerHeight="240" orient="auto" markerUnits="userSpaceOnUse"><circle fill="transparent" cx="7" cy="7" r="6" stroke-width="2"/></marker></defs><defs><marker id="my-svg_class-lollipopEnd-margin" class="marker lollipop class" refX="1" refY="7" markerWidth="190" markerHeight="240" orient="auto" markerUnits="userSpaceOnUse"><circle fill="transparent" cx="7" cy="7" r="6" stroke-width="2"/></marker></defs><g class="root"><g class="clusters"/><g class="edgePaths"><path d="M91.887,145.25L91.887,148.542C91.887,151.833,91.887,158.417,91.887,167.875C91.887,177.333,91.887,189.667,91.887,195.833L91.887,202" id="my-svg-id_Garage_Level_1" class="edge-thickness-normal edge-pattern-solid relation" style=";;;" data-edge="true" data-et="edge" data-id="id_Garage_Level_1" data-points="W3sieCI6OTEuODg2NzE4NzUsInkiOjEyOH0seyJ4Ijo5MS44ODY3MTg3NSwieSI6MTY1fSx7IngiOjkxLjg4NjcxODc1LCJ5IjoyMDJ9XQ==" data-look="classic" marker-start="url(#my-svg_class-compositionStart)"/><path d="M91.887,339.25L91.887,342.542C91.887,345.833,91.887,352.417,99.354,361.875C106.821,371.333,121.755,383.667,129.222,389.833L136.689,396" id="my-svg-id_Level_ParkingSpace_2" class="edge-thickness-normal edge-pattern-solid relation" style=";;;" data-edge="true" data-et="edge" data-id="id_Level_ParkingSpace_2" data-points="W3sieCI6OTEuODg2NzE4NzUsInkiOjMyMn0seyJ4Ijo5MS44ODY3MTg3NSwieSI6MzU5fSx7IngiOjEzNi42ODkxNzEyMzA2NzAxLCJ5IjozOTZ9XQ==" data-look="classic" marker-start="url(#my-svg_class-compositionStart)"/><path d="M209.342,516L209.342,522.167C209.342,528.333,209.342,540.667,209.342,553C209.342,565.333,209.342,577.667,209.342,583.833L209.342,590" id="my-svg-id_ParkingSpace_SpaceType_3" class="edge-thickness-normal edge-pattern-solid relation" style=";;;" data-edge="true" data-et="edge" data-id="id_ParkingSpace_SpaceType_3" data-points="W3sieCI6MjA5LjM0MTc5Njg3NSwieSI6NTE2fSx7IngiOjIwOS4zNDE3OTY4NzUsInkiOjU1M30seyJ4IjoyMDkuMzQxNzk2ODc1LCJ5Ijo1OTB9XQ==" data-look="classic"/><path d="M326.797,322L326.797,328.167C326.797,334.333,326.797,346.667,319.33,359C311.863,371.333,296.929,383.667,289.461,389.833L281.994,396" id="my-svg-id_Ticket_ParkingSpace_4" class="edge-thickness-normal edge-pattern-solid relation" style=";;;" data-edge="true" data-et="edge" data-id="id_Ticket_ParkingSpace_4" data-points="W3sieCI6MzI2Ljc5Njg3NSwieSI6MzIyfSx7IngiOjMyNi43OTY4NzUsInkiOjM1OX0seyJ4IjoyODEuOTk0NDIyNTE5MzI5OSwieSI6Mzk2fV0=" data-look="classic"/></g><g class="edgeLabels"><g class="edgeLabel" transform="translate(91.88671875, 165)"><g class="label" data-id="id_Garage_Level_1" transform="translate(-20.6015625, -12)"><foreignObject width="41.203125" height="24"><div xmlns="http://www.w3.org/1999/xhtml" class="labelBkg" style="display: table-cell; white-space: nowrap; line-height: 1.5; max-width: 200px; text-align: center;"><span class="edgeLabel"><p>levels</p></span></div></foreignObject></g></g><g class="edgeLabel" transform="translate(91.88671875, 359)"><g class="label" data-id="id_Level_ParkingSpace_2" transform="translate(-23.4609375, -12)"><foreignObject width="46.921875" height="24"><div xmlns="http://www.w3.org/1999/xhtml" class="labelBkg" style="display: table-cell; white-space: nowrap; line-height: 1.5; max-width: 200px; text-align: center;"><span class="edgeLabel"><p>spaces</p></span></div></foreignObject></g></g><g class="edgeLabel" transform="translate(209.341796875, 553)"><g class="label" data-id="id_ParkingSpace_SpaceType_3" transform="translate(-15.9375, -12)"><foreignObject width="31.875" height="24"><div xmlns="http://www.w3.org/1999/xhtml" class="labelBkg" style="display: table-cell; white-space: nowrap; line-height: 1.5; max-width: 200px; text-align: center;"><span class="edgeLabel"><p>type</p></span></div></foreignObject></g></g><g class="edgeLabel" transform="translate(326.796875, 359)"><g class="label" data-id="id_Ticket_ParkingSpace_4" transform="translate(-47.3046875, -12)"><foreignObject width="94.609375" height="24"><div xmlns="http://www.w3.org/1999/xhtml" class="labelBkg" style="display: table-cell; white-space: nowrap; line-height: 1.5; max-width: 200px; text-align: center;"><span class="edgeLabel"><p>parkingSpace</p></span></div></foreignObject></g></g><g class="edgeTerminals" transform="translate(76.88671937500001, 145.5000005357143)"><g class="inner" transform="translate(-2.890625, -8.25)"><foreignObject width="5.78125" height="16.5" style="width: 9px; height: 12px;"><div xmlns="http://www.w3.org/1999/xhtml" style="display: table-cell; white-space: nowrap; line-height: 1.5;"><span class="edgeLabel"><p>1</p></span></div></foreignObject></g></g><g class="edgeTerminals" transform="translate(76.88671937500001, 339.50000053571426)"><g class="inner" transform="translate(-2.890625, -8.25)"><foreignObject width="5.78125" height="16.5" style="width: 9px; height: 12px;"><div xmlns="http://www.w3.org/1999/xhtml" style="display: table-cell; white-space: nowrap; line-height: 1.5;"><span class="edgeLabel"><p>1</p></span></div></foreignObject></g></g><g class="edgeTerminals" transform="translate(194.34179843750007, 533.5000013392857)"><g class="inner" transform="translate(-2.890625, -8.25)"><foreignObject width="5.78125" height="16.5" style="width: 9px; height: 12px;"><div xmlns="http://www.w3.org/1999/xhtml" style="display: table-cell; white-space: nowrap; line-height: 1.5;"><span class="edgeLabel"><p>1</p></span></div></foreignObject></g></g><g class="edgeTerminals" transform="translate(311.79687750000016, 339.5000021428571)"><g class="inner" transform="translate(-9.8125, -8.25)"><foreignObject width="19.625" height="16.5" style="width: 36px; height: 12px;"><div xmlns="http://www.w3.org/1999/xhtml" style="display: table-cell; white-space: nowrap; line-height: 1.5;"><span class="edgeLabel"><p>0..1</p></span></div></foreignObject></g></g><g class="edgeTerminals" transform="translate(101.88671937499998, 179.5000005357143)"><g class="inner" transform="translate(-8.9453125, -8.25)"/><foreignObject width="17.890625" height="16.5" style="width: 36px; height: 12px;"><div xmlns="http://www.w3.org/1999/xhtml" style="display: table-cell; white-space: nowrap; line-height: 1.5;"><span class="edgeLabel"><p>0..*</p></span></div></foreignObject></g><g class="edgeTerminals" transform="translate(127.74733181845576, 368.2907095949366)"><g class="inner" transform="translate(-8.9453125, -8.25)"/><foreignObject width="17.890625" height="16.5" style="width: 36px; height: 12px;"><div xmlns="http://www.w3.org/1999/xhtml" style="display: table-cell; white-space: nowrap; line-height: 1.5;"><span class="edgeLabel"><p>0..*</p></span></div></foreignObject></g><g class="edgeTerminals" transform="translate(219.34179843749996, 567.5000013392857)"><g class="inner" transform="translate(-2.890625, -8.25)"/><foreignObject width="5.78125" height="16.5" style="width: 9px; height: 12px;"><div xmlns="http://www.w3.org/1999/xhtml" style="display: table-cell; white-space: nowrap; line-height: 1.5;"><span class="edgeLabel"><p>1</p></span></div></foreignObject></g><g class="edgeTerminals" transform="translate(300.03941325186776, 391.4222797534018)"><g class="inner" transform="translate(-9.8125, -8.25)"/><foreignObject width="19.625" height="16.5" style="width: 36px; height: 12px;"><div xmlns="http://www.w3.org/1999/xhtml" style="display: table-cell; white-space: nowrap; line-height: 1.5;"><span class="edgeLabel"><p>0..1</p></span></div></foreignObject></g></g><g class="nodes"><g class="node default" id="my-svg-classId-Garage-0" data-look="classic" transform="translate(91.88671875, 68)"><g class="basic label-container outer-path"><path d="M-71.82421875 -60 L71.82421875 -60 L71.82421875 60 L-71.82421875 60" stroke="none" stroke-width="0" fill="#ECECFF" style=""/><path d="M-71.82421875 -60 C-22.897470834353932 -60, 26.029277081292136 -60, 71.82421875 -60 M-71.82421875 -60 C-32.19407939838854 -60, 7.436059953222923 -60, 71.82421875 -60 M71.82421875 -60 C71.82421875 -12.227962028903917, 71.82421875 35.544075942192165, 71.82421875 60 M71.82421875 -60 C71.82421875 -16.464261150496128, 71.82421875 27.071477699007744, 71.82421875 60 M71.82421875 60 C22.74515922708266 60, -26.33390029583468 60, -71.82421875 60 M71.82421875 60 C25.136226141803675 60, -21.55176646639265 60, -71.82421875 60 M-71.82421875 60 C-71.82421875 17.53096928138907, -71.82421875 -24.93806143722186, -71.82421875 -60 M-71.82421875 60 C-71.82421875 34.695681413672226, -71.82421875 9.391362827344452, -71.82421875 -60" stroke="#9370DB" stroke-width="1.3" fill="none" stroke-dasharray="0 0" style=""/></g><g class="annotation-group text" transform="translate(0, -36)"/><g class="label-group text" transform="translate(-25.6796875, -36)"><g class="label" style="font-weight: bolder" transform="translate(0,-12)"><foreignObject width="51.359375" height="24"><div xmlns="http://www.w3.org/1999/xhtml" style="display: table-cell; white-space: nowrap; line-height: 1.5; max-width: 96px; text-align: center;"><span class="nodeLabel markdown-node-label" style=""><p>Garage</p></span></div></foreignObject></g></g><g class="members-group text" transform="translate(-59.82421875, 12)"><g class="label" style="" transform="translate(0,-12)"><foreignObject width="93.96875" height="24"><div xmlns="http://www.w3.org/1999/xhtml" style="display: table-cell; white-space: nowrap; line-height: 1.5; max-width: 141px; text-align: center;"><span class="nodeLabel markdown-node-label" style=""><p>+String name</p></span></div></foreignObject></g></g><g class="methods-group text" transform="translate(-59.82421875, 60)"/><g class="divider" style=""><path d="M-71.82421875 -12 C-18.98548960085614 -11.999632166349535, 33.85323954828772 -11.999264332699072, 71.82421875 -11.999 M-71.82421875 -12 C-28.143475149800572 -11.99969591911781, 15.537268450398855 -11.99939183823562, 71.82421875 -11.999" stroke="#9370DB" stroke-width="1.3" fill="none" stroke-dasharray="0 0" style=""/></g><g class="divider" style=""><path d="M-71.82421875 36 C-32.38070162956291 36.000274583683655, 7.062815490874186 36.00054916736732, 71.82421875 36.001 M-71.82421875 36 C-26.791546881978107 36.00031349224991, 18.241124986043786 36.00062698449982, 71.82421875 36.001" stroke="#9370DB" stroke-width="1.3" fill="none" stroke-dasharray="0 0" style=""/></g></g><g class="node default" id="my-svg-classId-Level-1" data-look="classic" transform="translate(91.88671875, 262)"><g class="basic label-container outer-path"><path d="M-83.88671875 -60 L83.88671875 -60 L83.88671875 60 L-83.88671875 60" stroke="none" stroke-width="0" fill="#ECECFF" style=""/><path d="M-83.88671875 -60 C-24.199195411515973 -60, 35.488327926968054 -60, 83.88671875 -60 M-83.88671875 -60 C-17.718041543487885 -60, 48.45063566302423 -60, 83.88671875 -60 M83.88671875 -60 C83.88671875 -21.353707379217532, 83.88671875 17.292585241564936, 83.88671875 60 M83.88671875 -60 C83.88671875 -19.066852409323566, 83.88671875 21.866295181352868, 83.88671875 60 M83.88671875 60 C35.57146462388251 60, -12.743789502234975 60, -83.88671875 60 M83.88671875 60 C25.531494823142026 60, -32.82372910371595 60, -83.88671875 60 M-83.88671875 60 C-83.88671875 32.34710635593534, -83.88671875 4.694212711870669, -83.88671875 -60 M-83.88671875 60 C-83.88671875 23.322007656483756, -83.88671875 -13.355984687032489, -83.88671875 -60" stroke="#9370DB" stroke-width="1.3" fill="none" stroke-dasharray="0 0" style=""/></g><g class="annotation-group text" transform="translate(0, -36)"/><g class="label-group text" transform="translate(-20.1953125, -36)"><g class="label" style="font-weight: bolder" transform="translate(0,-12)"><foreignObject width="40.390625" height="24"><div xmlns="http://www.w3.org/1999/xhtml" style="display: table-cell; white-space: nowrap; line-height: 1.5; max-width: 86px; text-align: center;"><span class="nodeLabel markdown-node-label" style=""><p>Level</p></span></div></foreignObject></g></g><g class="members-group text" transform="translate(-71.88671875, 12)"><g class="label" style="" transform="translate(0,-12)"><foreignObject width="123.578125" height="24"><div xmlns="http://www.w3.org/1999/xhtml" style="display: table-cell; white-space: nowrap; line-height: 1.5; max-width: 169px; text-align: center;"><span class="nodeLabel markdown-node-label" style=""><p>+Int levelNumber</p></span></div></foreignObject></g></g><g class="methods-group text" transform="translate(-71.88671875, 60)"/><g class="divider" style=""><path d="M-83.88671875 -12 C-23.089609208520734 -11.999637623747553, 37.70750033295853 -11.999275247495106, 83.88671875 -11.999 M-83.88671875 -12 C-30.411883078921477 -11.999681267568526, 23.062952592157046 -11.999362535137053, 83.88671875 -11.999" stroke="#9370DB" stroke-width="1.3" fill="none" stroke-dasharray="0 0" style=""/></g><g class="divider" style=""><path d="M-83.88671875 36 C-42.502738213500415 36.00024666586769, -1.1187576770008292 36.000493331735385, 83.88671875 36.001 M-83.88671875 36 C-28.65817750668993 36.000329185251644, 26.570363736620138 36.000658370503295, 83.88671875 36.001" stroke="#9370DB" stroke-width="1.3" fill="none" stroke-dasharray="0 0" style=""/></g></g><g class="node default" id="my-svg-classId-ParkingSpace-2" data-look="classic" transform="translate(209.341796875, 456)"><g class="basic label-container outer-path"><path d="M-96.47265625 -60 L96.47265625 -60 L96.47265625 60 L-96.47265625 60" stroke="none" stroke-width="0" fill="#ECECFF" style=""/><path d="M-96.47265625 -60 C-20.65976014351918 -60, 55.15313596296164 -60, 96.47265625 -60 M-96.47265625 -60 C-37.19836443971449 -60, 22.075927370571023 -60, 96.47265625 -60 M96.47265625 -60 C96.47265625 -15.21259262450097, 96.47265625 29.57481475099806, 96.47265625 60 M96.47265625 -60 C96.47265625 -34.37979081982506, 96.47265625 -8.75958163965013, 96.47265625 60 M96.47265625 60 C20.63493145620525 60, -55.2027933375895 60, -96.47265625 60 M96.47265625 60 C21.704405077111332 60, -53.063846095777336 60, -96.47265625 60 M-96.47265625 60 C-96.47265625 15.114224415450373, -96.47265625 -29.771551169099254, -96.47265625 -60 M-96.47265625 60 C-96.47265625 33.17928836185429, -96.47265625 6.35857672370858, -96.47265625 -60" stroke="#9370DB" stroke-width="1.3" fill="none" stroke-dasharray="0 0" style=""/></g><g class="annotation-group text" transform="translate(0, -36)"/><g class="label-group text" transform="translate(-49.2109375, -36)"><g class="label" style="font-weight: bolder" transform="translate(0,-12)"><foreignObject width="98.421875" height="24"><div xmlns="http://www.w3.org/1999/xhtml" style="display: table-cell; white-space: nowrap; line-height: 1.5; max-width: 138px; text-align: center;"><span class="nodeLabel markdown-node-label" style=""><p>ParkingSpace</p></span></div></foreignObject></g></g><g class="members-group text" transform="translate(-84.47265625, 12)"><g class="label" style="" transform="translate(0,-12)"><foreignObject width="119.734375" height="24"><div xmlns="http://www.w3.org/1999/xhtml" style="display: table-cell; white-space: nowrap; line-height: 1.5; max-width: 165px; text-align: center;"><span class="nodeLabel markdown-node-label" style=""><p>+SpaceType type</p></span></div></foreignObject></g></g><g class="methods-group text" transform="translate(-84.47265625, 60)"/><g class="divider" style=""><path d="M-96.47265625 -12 C-41.88274694125949 -11.999717070559521, 12.707162367481018 -11.99943414111904, 96.47265625 -11.999 M-96.47265625 -12 C-45.727465277831094 -11.99973699702618, 5.017725694337813 -11.99947399405236, 96.47265625 -11.999" stroke="#9370DB" stroke-width="1.3" fill="none" stroke-dasharray="0 0" style=""/></g><g class="divider" style=""><path d="M-96.47265625 36 C-47.64537688555072 36.00025306279138, 1.1819024788985644 36.00050612558275, 96.47265625 36.001 M-96.47265625 36 C-46.15156283246832 36.000260804954344, 4.169530585063356 36.00052160990869, 96.47265625 36.001" stroke="#9370DB" stroke-width="1.3" fill="none" stroke-dasharray="0 0" style=""/></g></g><g class="node default" id="my-svg-classId-SpaceType-3" data-look="classic" transform="translate(209.341796875, 686)"><g class="basic label-container outer-path"><path d="M-114.42578125 -96 L114.42578125 -96 L114.42578125 96 L-114.42578125 96" stroke="none" stroke-width="0" fill="#ECECFF" style=""/><path d="M-114.42578125 -96 C-45.78395685695901 -96, 22.857867536081983 -96, 114.42578125 -96 M-114.42578125 -96 C-59.08680202655764 -96, -3.747822803115284 -96, 114.42578125 -96 M114.42578125 -96 C114.42578125 -55.28413592740247, 114.42578125 -14.568271854804934, 114.42578125 96 M114.42578125 -96 C114.42578125 -55.151306414701565, 114.42578125 -14.302612829403131, 114.42578125 96 M114.42578125 96 C67.67030537825454 96, 20.914829506509065 96, -114.42578125 96 M114.42578125 96 C30.170167246711983 96, -54.08544675657603 96, -114.42578125 96 M-114.42578125 96 C-114.42578125 22.873126468122692, -114.42578125 -50.253747063754616, -114.42578125 -96 M-114.42578125 96 C-114.42578125 25.042974189498366, -114.42578125 -45.91405162100327, -114.42578125 -96" stroke="#9370DB" stroke-width="1.3" fill="none" stroke-dasharray="0 0" style=""/></g><g class="annotation-group text" transform="translate(-53.9296875, -72)"><g class="label" style="" transform="translate(0,-12)"><foreignObject width="107.859375" height="24"><div xmlns="http://www.w3.org/1999/xhtml" style="display: table-cell; white-space: nowrap; line-height: 1.5; max-width: 146px; text-align: center;"><span class="nodeLabel markdown-node-label" style=""><p>«enumeration»</p></span></div></foreignObject></g></g><g class="label-group text" transform="translate(-39.5234375, -48)"><g class="label" style="font-weight: bolder" transform="translate(0,-12)"><foreignObject width="79.046875" height="24"><div xmlns="http://www.w3.org/1999/xhtml" style="display: table-cell; white-space: nowrap; line-height: 1.5; max-width: 120px; text-align: center;"><span class="nodeLabel markdown-node-label" style=""><p>SpaceType</p></span></div></foreignObject></g></g><g class="members-group text" transform="translate(-102.42578125, 0)"><g class="label" style="" transform="translate(0,-12)"><foreignObject width="65.9375" height="24"><div xmlns="http://www.w3.org/1999/xhtml" style="display: table-cell; white-space: nowrap; line-height: 1.5; max-width: 126px; text-align: center;"><span class="nodeLabel markdown-node-label" style=""><p>REGULAR</p></span></div></foreignObject></g><g class="label" style="" transform="translate(0,12)"><foreignObject width="66.9375" height="24"><div xmlns="http://www.w3.org/1999/xhtml" style="display: table-cell; white-space: nowrap; line-height: 1.5; max-width: 129px; text-align: center;"><span class="nodeLabel markdown-node-label" style=""><p>DISABLED</p></span></div></foreignObject></g><g class="label" style="" transform="translate(0,36)"><foreignObject width="150.921875" height="24"><div xmlns="http://www.w3.org/1999/xhtml" style="display: table-cell; white-space: nowrap; line-height: 1.5; max-width: 219px; text-align: center;"><span class="nodeLabel markdown-node-label" style=""><p>ELECTRIC_CHARGING</p></span></div></foreignObject></g></g><g class="methods-group text" transform="translate(-102.42578125, 96)"/><g class="divider" style=""><path d="M-114.42578125 -24 C-64.82014702475118 -23.999783241007037, -15.214512799502359 -23.999566482014075, 114.42578125 -23.999 M-114.42578125 -24 C-65.97941848399803 -23.99978830661134, -17.533055717996064 -23.99957661322268, 114.42578125 -23.999" stroke="#9370DB" stroke-width="1.3" fill="none" stroke-dasharray="0 0" style=""/></g><g class="divider" style=""><path d="M-114.42578125 72 C-40.55535673961627 72.0003227875034, 33.315067770767456 72.00064557500681, 114.42578125 72.001 M-114.42578125 72 C-41.13482503783747 72.00032025543287, 32.156131174325054 72.00064051086575, 114.42578125 72.001" stroke="#9370DB" stroke-width="1.3" fill="none" stroke-dasharray="0 0" style=""/></g></g><g class="node default" id="my-svg-classId-Ticket-4" data-look="classic" transform="translate(326.796875, 262)"><g class="basic label-container outer-path"><path d="M-101.0234375 -60 L101.0234375 -60 L101.0234375 60 L-101.0234375 60" stroke="none" stroke-width="0" fill="#ECECFF" style=""/><path d="M-101.0234375 -60 C-48.67665880528458 -60, 3.6701198894308362 -60, 101.0234375 -60 M-101.0234375 -60 C-57.64896100865703 -60, -14.274484517314065 -60, 101.0234375 -60 M101.0234375 -60 C101.0234375 -18.577019071132845, 101.0234375 22.84596185773431, 101.0234375 60 M101.0234375 -60 C101.0234375 -34.82411882258595, 101.0234375 -9.648237645171903, 101.0234375 60 M101.0234375 60 C55.13209227388152 60, 9.240747047763037 60, -101.0234375 60 M101.0234375 60 C58.37450040481557 60, 15.725563309631141 60, -101.0234375 60 M-101.0234375 60 C-101.0234375 28.282430881907423, -101.0234375 -3.4351382361851535, -101.0234375 -60 M-101.0234375 60 C-101.0234375 21.219765453027854, -101.0234375 -17.560469093944292, -101.0234375 -60" stroke="#9370DB" stroke-width="1.3" fill="none" stroke-dasharray="0 0" style=""/></g><g class="annotation-group text" transform="translate(0, -36)"/><g class="label-group text" transform="translate(-23.234375, -36)"><g class="label" style="font-weight: bolder" transform="translate(0,-12)"><foreignObject width="46.46875" height="24"><div xmlns="http://www.w3.org/1999/xhtml" style="display: table-cell; white-space: nowrap; line-height: 1.5; max-width: 90px; text-align: center;"><span class="nodeLabel markdown-node-label" style=""><p>Ticket</p></span></div></foreignObject></g></g><g class="members-group text" transform="translate(-89.0234375, 12)"><g class="label" style="" transform="translate(0,-12)"><foreignObject width="154.8125" height="24"><div xmlns="http://www.w3.org/1999/xhtml" style="display: table-cell; white-space: nowrap; line-height: 1.5; max-width: 197px; text-align: center;"><span class="nodeLabel markdown-node-label" style=""><p>+DateTime entryTime</p></span></div></foreignObject></g></g><g class="methods-group text" transform="translate(-89.0234375, 60)"/><g class="divider" style=""><path d="M-101.0234375 -12 C-40.719808340503064 -11.999701536442178, 19.58382081899387 -11.999403072884354, 101.0234375 -11.999 M-101.0234375 -12 C-55.147157310023616 -11.99977294239176, -9.270877120047231 -11.999545884783519, 101.0234375 -11.999" stroke="#9370DB" stroke-width="1.3" fill="none" stroke-dasharray="0 0" style=""/></g><g class="divider" style=""><path d="M-101.0234375 36 C-56.40409046727408 36.00022083661048, -11.784743434548162 36.000441673220955, 101.0234375 36.001 M-101.0234375 36 C-53.17944304441843 36.00023679650801, -5.335448588836854 36.00047359301603, 101.0234375 36.001" stroke="#9370DB" stroke-width="1.3" fill="none" stroke-dasharray="0 0" style=""/></g></g></g></g></g><defs><filter id="my-svg-drop-shadow" height="130%" width="130%"><feDropShadow dx="4" dy="4" stdDeviation="0" flood-opacity="0.06" flood-color="#000000"/></filter></defs><defs><filter id="my-svg-drop-shadow-small" height="150%" width="150%"><feDropShadow dx="2" dy="2" stdDeviation="0" flood-opacity="0.06" flood-color="#000000"/></filter></defs></svg>