<svg xmlns="http://www.w3.org/2000/svg" xmlns:xlink="http://www.w3.org/1999/xlink" contentStyleType="text/css" data-diagram-type="CLASS" height="402px" preserveAspectRatio="none" style="width:298px;height:402px;background:#FFFFFF;" version="1.1" viewBox="0 0 298 402" width="298px" zoomAndPan="magnify"><?plantuml 1.2026.6?><defs/><g><!--class Garage--><g class="entity" data-qualified-name="Garage" data-source-line="1" id="ent0001"><rect fill="#F1F1F1" height="48" rx="2.5" ry="2.5" style="stroke:#181818;stroke-width:0.5;" width="79.8379" x="7" y="31.73"/><ellipse cx="22" cy="47.73" fill="#ADD1B2" rx="11" ry="11" style="stroke:#181818;stroke-width:1;"/><path d="M24.4731,53.8731 Q23.8921,54.1719 23.2529,54.3213 Q22.6138,54.4707 21.9082,54.4707 Q19.4014,54.4707 18.0815,52.8189 Q16.7617,51.167 16.7617,48.0459 Q16.7617,44.9165 18.0815,43.2647 Q19.4014,41.6128 21.9082,41.6128 Q22.6138,41.6128 23.2612,41.7622 Q23.9087,41.9116 24.4731,42.2105 L24.4731,44.9331 Q23.8423,44.3521 23.2488,44.0823 Q22.6553,43.8125 22.0244,43.8125 Q20.6797,43.8125 19.9949,44.8792 Q19.3101,45.9458 19.3101,48.0459 Q19.3101,50.1377 19.9949,51.2044 Q20.6797,52.271 22.0244,52.271 Q22.6553,52.271 23.2488,52.0012 Q23.8423,51.7315 24.4731,51.1504 Z " fill="#000000"/><text fill="#000000" font-family="sans-serif" font-size="14" lengthAdjust="spacing" textLength="47.8379" x="36" y="53.021">Garage</text><line style="stroke:#181818;stroke-width:0.5;" x1="8" x2="85.8379" y1="63.73" y2="63.73"/><line style="stroke:#181818;stroke-width:0.5;" x1="8" x2="85.8379" y1="71.73" y2="71.73"/></g><!--class Level--><g class="entity" data-qualified-name="Level" data-source-line="2" id="ent0002"><rect fill="#F1F1F1" height="48" rx="2.5" ry="2.5" style="stroke:#181818;stroke-width:0.5;" width="66.3574" x="13.74" y="189.71"/><ellipse cx="28.74" cy="205.71" fill="#ADD1B2" rx="11" ry="11" style="stroke:#181818;stroke-width:1;"/><path d="M31.2131,211.8531 Q30.6321,212.1519 29.9929,212.3013 Q29.3538,212.4507 28.6482,212.4507 Q26.1414,212.4507 24.8215,210.7989 Q23.5017,209.147 23.5017,206.0259 Q23.5017,202.8965 24.8215,201.2447 Q26.1414,199.5928 28.6482,199.5928 Q29.3538,199.5928 30.0012,199.7422 Q30.6487,199.8916 31.2131,200.1905 L31.2131,202.9131 Q30.5823,202.3321 29.9888,202.0623 Q29.3953,201.7925 28.7644,201.7925 Q27.4197,201.7925 26.7349,202.8592 Q26.0501,203.9258 26.0501,206.0259 Q26.0501,208.1177 26.7349,209.1844 Q27.4197,210.251 28.7644,210.251 Q29.3953,210.251 29.9888,209.9812 Q30.5823,209.7115 31.2131,209.1304 Z " fill="#000000"/><text fill="#000000" font-family="sans-serif" font-size="14" lengthAdjust="spacing" textLength="34.3574" x="42.74" y="211.001">Level</text><line style="stroke:#181818;stroke-width:0.5;" x1="14.74" x2="79.0974" y1="221.71" y2="221.71"/><line style="stroke:#181818;stroke-width:0.5;" x1="14.74" x2="79.0974" y1="229.71" y2="229.71"/></g><!--class ParkingSpace--><g class="entity" data-qualified-name="ParkingSpace" data-source-line="3" id="ent0003"><rect fill="#F1F1F1" height="64.4883" rx="2.5" ry="2.5" style="stroke:#181818;stroke-width:0.5;" width="135.8535" x="54.99" y="322.95"/><ellipse cx="76.2693" cy="338.95" fill="#ADD1B2" rx="11" ry="11" style="stroke:#181818;stroke-width:1;"/><path d="M78.7425,345.0931 Q78.1614,345.3919 77.5223,345.5413 Q76.8831,345.6907 76.1775,345.6907 Q73.6707,345.6907 72.3509,344.0389 Q71.0311,342.387 71.0311,339.2659 Q71.0311,336.1365 72.3509,334.4847 Q73.6707,332.8328 76.1775,332.8328 Q76.8831,332.8328 77.5306,332.9822 Q78.178,333.1316 78.7425,333.4305 L78.7425,336.1531 Q78.1116,335.5721 77.5181,335.3023 Q76.9246,335.0325 76.2938,335.0325 Q74.949,335.0325 74.2642,336.0992 Q73.5794,337.1658 73.5794,339.2659 Q73.5794,341.3577 74.2642,342.4244 Q74.949,343.491 76.2938,343.491 Q76.9246,343.491 77.5181,343.2212 Q78.1116,342.9515 78.7425,342.3704 Z " fill="#000000"/><text fill="#000000" font-family="sans-serif" font-size="14" lengthAdjust="spacing" textLength="89.8994" x="91.6648" y="344.241">ParkingSpace</text><line style="stroke:#181818;stroke-width:0.5;" x1="55.99" x2="189.8435" y1="354.95" y2="354.95"/><g data-visibility-modifier="PUBLIC_FIELD"><ellipse cx="65.99" cy="368.6941" fill="none" rx="3" ry="3" style="stroke:#038048;stroke-width:1;"/></g><text fill="#000000" font-family="sans-serif" font-size="14" lengthAdjust="spacing" textLength="109.8535" x="74.99" y="372.4852">type: SpaceType</text><line style="stroke:#181818;stroke-width:0.5;" x1="55.99" x2="189.8435" y1="379.4383" y2="379.4383"/></g><!--class SpaceType--><g class="entity" data-qualified-name="SpaceType" data-source-line="6" id="ent0004"><rect fill="#F1F1F1" height="97.4648" rx="2.5" ry="2.5" style="stroke:#181818;stroke-width:0.5;" width="103.832" x="122" y="7"/><ellipse cx="137" cy="23" fill="#EB937F" rx="11" ry="11" style="stroke:#181818;stroke-width:1;"/><path d="M140.6143,29.5 L132.8945,29.5 L132.8945,17.1069 L140.6143,17.1069 L140.6143,19.2651 L135.3433,19.2651 L135.3433,21.938 L140.1162,21.938 L140.1162,24.0962 L135.3433,24.0962 L135.3433,27.3418 L140.6143,27.3418 Z " fill="#000000"/><text fill="#000000" font-family="sans-serif" font-size="14" lengthAdjust="spacing" textLength="71.832" x="151" y="28.291">SpaceType</text><line style="stroke:#181818;stroke-width:0.5;" x1="123" x2="224.832" y1="39" y2="39"/><text fill="#000000" font-family="sans-serif" font-size="14" lengthAdjust="spacing" textLength="62.2344" x="128" y="56.5352">REGULAR</text><text fill="#000000" font-family="sans-serif" font-size="14" lengthAdjust="spacing" textLength="65.3105" x="128" y="73.0234">DISABLED</text><text fill="#000000" font-family="sans-serif" font-size="14" lengthAdjust="spacing" textLength="63.752" x="128" y="89.5117">ELECTRIC</text><line style="stroke:#181818;stroke-width:0.5;" x1="123" x2="224.832" y1="96.4648" y2="96.4648"/></g><!--class Ticket--><g class="entity" data-qualified-name="Ticket" data-source-line="11" id="ent0005"><rect fill="#F1F1F1" height="64.4883" rx="2.5" ry="2.5" style="stroke:#181818;stroke-width:0.5;" width="168.4199" x="114.71" y="181.46"/><ellipse cx="174.0254" cy="197.46" fill="#ADD1B2" rx="11" ry="11" style="stroke:#181818;stroke-width:1;"/><path d="M176.4986,203.6031 Q175.9175,203.9019 175.2784,204.0513 Q174.6392,204.2007 173.9336,204.2007 Q171.4268,204.2007 170.107,202.5489 Q168.7871,200.897 168.7871,197.7759 Q168.7871,194.6465 170.107,192.9947 Q171.4268,191.3428 173.9336,191.3428 Q174.6392,191.3428 175.2867,191.4922 Q175.9341,191.6416 176.4986,191.9405 L176.4986,194.6631 Q175.8677,194.0821 175.2742,193.8123 Q174.6807,193.5425 174.0498,193.5425 Q172.7051,193.5425 172.0203,194.6092 Q171.3355,195.6758 171.3355,197.7759 Q171.3355,199.8677 172.0203,200.9344 Q172.7051,202.001 174.0498,202.001 Q174.6807,202.001 175.2742,201.7312 Q175.8677,201.4615 176.4986,200.8804 Z " fill="#000000"/><text fill="#000000" font-family="sans-serif" font-size="14" lengthAdjust="spacing" textLength="41.2891" x="194.5254" y="202.751">Ticket</text><line style="stroke:#181818;stroke-width:0.5;" x1="115.71" x2="282.1299" y1="213.46" y2="213.46"/><g data-visibility-modifier="PUBLIC_FIELD"><ellipse cx="125.71" cy="227.2041" fill="none" rx="3" ry="3" style="stroke:#038048;stroke-width:1;"/></g><text fill="#000000" font-family="sans-serif" font-size="14" lengthAdjust="spacing" textLength="142.4199" x="134.71" y="230.9952">entryTime: DateTime</text><line style="stroke:#181818;stroke-width:0.5;" x1="115.71" x2="282.1299" y1="237.9483" y2="237.9483"/></g><!--reverse link Garage to Level--><g class="link" data-entity-1="ent0001" data-entity-2="ent0002" data-link-type="composition" data-source-line="15" id="lnk6"><path codeLine="15" d="M46.92,92.08 C46.92,121.57 46.92,160.01 46.92,189.45" fill="none" id="Garage-backto-Level" style="stroke:#181818;stroke-width:1;"/><polygon fill="#181818" points="46.92,80.08,42.92,86.08,46.92,92.08,50.92,86.08,46.92,80.08" style="stroke:#181818;stroke-width:1;stroke-linejoin:miter;stroke-miterlimit:10;"/><text fill="#000000" font-family="sans-serif" font-size="13" lengthAdjust="spacing" textLength="35.3564" x="47.92" y="148.0284">levels</text><text fill="#000000" font-family="sans-serif" font-size="13" lengthAdjust="spacing" textLength="8.2202" x="37.9721" y="100.4496">1</text><text fill="#000000" font-family="sans-serif" font-size="13" lengthAdjust="spacing" textLength="22.7119" x="22.1928" y="178.9196">1..*</text></g><!--reverse link Level to ParkingSpace--><g class="link" data-entity-1="ent0002" data-entity-2="ent0003" data-link-type="composition" data-source-line="16" id="lnk7"><path codeLine="16" d="M65.3795,248.5884 C78.0095,271.7784 91.73,296.96 105.74,322.66" fill="none" id="Level-backto-ParkingSpace" style="stroke:#181818;stroke-width:1;"/><polygon fill="#181818" points="59.64,238.05,58.997,245.2324,65.3795,248.5884,66.0226,241.406,59.64,238.05" style="stroke:#181818;stroke-width:1;stroke-linejoin:miter;stroke-miterlimit:10;"/><text fill="#000000" font-family="sans-serif" font-size="13" lengthAdjust="spacing" textLength="42.5166" x="90.47" y="289.5184">spaces</text><text fill="#000000" font-family="sans-serif" font-size="13" lengthAdjust="spacing" textLength="8.2202" x="53.7927" y="258.4172">1</text><text fill="#000000" font-family="sans-serif" font-size="13" lengthAdjust="spacing" textLength="22.7119" x="78.002" y="312.0033">1..*</text></g><!--link Ticket to ParkingSpace--><g class="link" data-entity-1="ent0005" data-entity-2="ent0003" data-link-type="association" data-source-line="17" id="lnk8"><path codeLine="17" d="M181.67,246.36 C169.24,269.19 152.52,299.87 140.1,322.67" fill="none" id="Ticket-ParkingSpace" style="stroke:#181818;stroke-width:1;"/><text fill="#000000" font-family="sans-serif" font-size="13" lengthAdjust="spacing" textLength="57.5352" x="166.47" y="289.5184">parkedAt</text><text fill="#000000" font-family="sans-serif" font-size="13" lengthAdjust="spacing" textLength="24.667" x="152.1578" y="266.6127">0..1</text><text fill="#000000" font-family="sans-serif" font-size="13" lengthAdjust="spacing" textLength="24.667" x="117.2378" y="312.0154">0..1</text></g><?plantuml-src NOxD2eCm48JlUOebHulINhrP3IBaK3HzW90k8luW9Yr8wRjtOuHIJ_FDCfcC6RIrKEf5jyZCPYI-SDZvffU-czfcrWRXpG1ERfqnXUsW2Dc7uVGSVuSjLOloBhEQgAYQx2f5GIYao5LTvVGabAlEzEX2BKvkMLKtKdUX7NgY70l3W5yuH75CcYGH3miXXS6hPS4UCd_BKx1UBTk_vESaeRXF1pgaPxBuoDmN?></g></svg>