<svg id="my-svg" width="100%" xmlns="http://www.w3.org/2000/svg" xmlns:xlink="http://www.w3.org/1999/xlink" class="classDiagram" style="max-width: 366.352px; background-color: white;" viewBox="0 0 366.3515625 560" role="graphics-document document" aria-roledescription="class"><style>#my-svg{font-family:"trebuchet ms",verdana,arial,sans-serif;font-size:16px;fill:#333;}@keyframes edge-animation-frame{from{stroke-dashoffset:0;}}@keyframes dash{to{stroke-dashoffset:0;}}#my-svg .edge-animation-slow{stroke-dasharray:9,5!important;stroke-dashoffset:900;animation:dash 50s linear infinite;stroke-linecap:round;}#my-svg .edge-animation-fast{stroke-dasharray:9,5!important;stroke-dashoffset:900;animation:dash 20s linear infinite;stroke-linecap:round;}#my-svg .error-icon{fill:#552222;}#my-svg .error-text{fill:#552222;stroke:#552222;}#my-svg .edge-thickness-normal{stroke-width:1px;}#my-svg .edge-thickness-thick{stroke-width:3.5px;}#my-svg .edge-pattern-solid{stroke-dasharray:0;}#my-svg .edge-thickness-invisible{stroke-width:0;fill:none;}#my-svg .edge-pattern-dashed{stroke-dasharray:3;}#my-svg .edge-pattern-dotted{stroke-dasharray:2;}#my-svg .marker{fill:#333333;stroke:#333333;}#my-svg .marker.cross{stroke:#333333;}#my-svg svg{font-family:"trebuchet ms",verdana,arial,sans-serif;font-size:16px;}#my-svg p{margin:0;}#my-svg g.classGroup text{fill:#9370DB;stroke:none;font-family:"trebuchet ms",verdana,arial,sans-serif;font-size:10px;}#my-svg g.classGroup text .title{font-weight:bolder;}#my-svg .cluster-label text{fill:#333;}#my-svg .cluster-label span{color:#333;}#my-svg .cluster-label span p{background-color:transparent;}#my-svg .cluster rect{fill:#ffffde;stroke:#aaaa33;stroke-width:1px;}#my-svg .cluster text{fill:#333;}#my-svg .cluster span{color:#333;}#my-svg .nodeLabel,#my-svg .edgeLabel{color:#131300;}#my-svg .noteLabel .nodeLabel,#my-svg .noteLabel .edgeLabel{color:black;}#my-svg .edgeLabel .label rect{fill:#ECECFF;}#my-svg .label text{fill:#131300;}#my-svg .labelBkg{background:#ECECFF;}#my-svg .edgeLabel .label span{background:#ECECFF;}#my-svg .classTitle{font-weight:bolder;}#my-svg .node rect,#my-svg .node circle,#my-svg .node ellipse,#my-svg .node polygon,#my-svg .node path{fill:#ECECFF;stroke:#9370DB;stroke-width:1;}#my-svg .divider{stroke:#9370DB;stroke-width:1;}#my-svg g.clickable{cursor:pointer;}#my-svg g.classGroup rect{fill:#ECECFF;stroke:#9370DB;}#my-svg g.classGroup line{stroke:#9370DB;stroke-width:1;}#my-svg .classLabel .box{stroke:none;stroke-width:0;fill:#ECECFF;opacity:0.5;}#my-svg .classLabel .label{fill:#9370DB;font-size:10px;}#my-svg .relation{stroke:#333333;stroke-width:1;fill:none;}#my-svg .dashed-line{stroke-dasharray:3;}#my-svg .dotted-line{stroke-dasharray:1 2;}#my-svg [id$="-compositionStart"],#my-svg .composition{fill:#333333!important;stroke:#333333!important;stroke-width:1;}#my-svg [id$="-compositionEnd"],#my-svg .composition{fill:#333333!important;stroke:#333333!important;stroke-width:1;}#my-svg [id$="-dependencyStart"],#my-svg .dependency{fill:#333333!important;stroke:#333333!important;stroke-width:1;}#my-svg [id$="-dependencyEnd"],#my-svg .dependency{fill:#333333!important;stroke:#333333!important;stroke-width:1;}#my-svg [id$="-extensionStart"],#my-svg .extension{fill:transparent!important;stroke:#333333!important;stroke-width:1;}#my-svg [id$="-extensionEnd"],#my-svg .extension{fill:transparent!important;stroke:#333333!important;stroke-width:1;}#my-svg [id$="-aggregationStart"],#my-svg .aggregation{fill:transparent!important;stroke:#333333!important;stroke-width:1;}#my-svg [id$="-aggregationEnd"],#my-svg .aggregation{fill:transparent!important;stroke:#333333!important;stroke-width:1;}#my-svg [id$="-lollipopStart"],#my-svg .lollipop{fill:#ECECFF!important;stroke:#333333!important;stroke-width:1;}#my-svg [id$="-lollipopEnd"],#my-svg .lollipop{fill:#ECECFF!important;stroke:#333333!important;stroke-width:1;}#my-svg .edgeTerminals{font-size:11px;line-height:initial;}#my-svg .classTitleText{text-anchor:middle;font-size:18px;fill:#333;}#my-svg .edgeLabel[data-look="neo"]{background-color:rgba(232,232,232, 0.8);text-align:center;}#my-svg .edgeLabel[data-look="neo"] p{background-color:rgba(232,232,232, 0.8);}#my-svg .edgeLabel[data-look="neo"] rect{opacity:0.5;background-color:rgba(232,232,232, 0.8);fill:rgba(232,232,232, 0.8);}#my-svg .label-icon{display:inline-block;height:1em;overflow:visible;vertical-align:-0.125em;}#my-svg .node .label-icon path{fill:currentColor;stroke:revert;stroke-width:revert;}#my-svg .node .neo-node{stroke:#9370DB;}#my-svg [data-look="neo"].node rect,#my-svg [data-look="neo"].cluster rect,#my-svg [data-look="neo"].node polygon{stroke:#9370DB;filter:drop-shadow(1px 2px 2px rgba(185, 185, 185, 1));}#my-svg [data-look="neo"].swimlane.cluster rect{filter:none;}#my-svg [data-look="neo"].node path{stroke:#9370DB;stroke-width:1px;}#my-svg [data-look="neo"].node .outer-path{filter:drop-shadow(1px 2px 2px rgba(185, 185, 185, 1));}#my-svg [data-look="neo"].node .neo-line path{stroke:#9370DB;filter:none;}#my-svg [data-look="neo"].node circle{stroke:#9370DB;filter:drop-shadow(1px 2px 2px rgba(185, 185, 185, 1));}#my-svg [data-look="neo"].node circle .state-start{fill:#000000;}#my-svg [data-look="neo"].icon-shape .icon{fill:#9370DB;filter:drop-shadow(1px 2px 2px rgba(185, 185, 185, 1));}#my-svg [data-look="neo"].icon-shape .icon-neo path{stroke:#9370DB;filter:drop-shadow(1px 2px 2px rgba(185, 185, 185, 1));}#my-svg :root{--mermaid-font-family:"trebuchet ms",verdana,arial,sans-serif;}</style><g><defs><marker id="my-svg_class-aggregationStart" class="marker aggregation class" refX="18" refY="7" markerWidth="190" markerHeight="240" orient="auto"><path d="M 18,7 L9,13 L1,7 L9,1 Z"/></marker></defs><defs><marker id="my-svg_class-aggregationEnd" class="marker aggregation class" refX="1" refY="7" markerWidth="20" markerHeight="28" orient="auto"><path d="M 18,7 L9,13 L1,7 L9,1 Z"/></marker></defs><defs><marker id="my-svg_class-aggregationStart-margin" class="marker aggregation class" refX="15" refY="7" markerWidth="190" markerHeight="240" orient="auto" markerUnits="userSpaceOnUse"><path d="M 18,7 L9,13 L1,7 L9,1 Z" style="stroke-width: 2;"/></marker></defs><defs><marker id="my-svg_class-aggregationEnd-margin" class="marker aggregation class" refX="1" refY="7" markerWidth="20" markerHeight="28" orient="auto" markerUnits="userSpaceOnUse"><path d="M 18,7 L9,13 L1,7 L9,1 Z" style="stroke-width: 2;"/></marker></defs><defs><marker id="my-svg_class-extensionStart" class="marker extension class" refX="18" refY="7" markerWidth="20" markerHeight="28" orient="auto" markerUnits="userSpaceOnUse"><path d="M 1,7 L18,13 V 1 Z"/></marker></defs><defs><marker id="my-svg_class-extensionEnd" class="marker extension class" refX="1" refY="7" markerWidth="20" markerHeight="28" orient="auto"><path d="M 1,1 V 13 L18,7 Z"/></marker></defs><marker id="my-svg_class-extensionStart-margin" class="marker extension class" refX="18" refY="7" markerWidth="20" markerHeight="28" orient="auto" markerUnits="userSpaceOnUse" viewBox="0 0 20 14"><polygon points="10,7 18,13 18,1" style="stroke-width: 2; stroke-dasharray: 0;"/></marker><defs><marker id="my-svg_class-extensionEnd-margin" class="marker extension class" refX="9" refY="7" markerWidth="20" markerHeight="28" orient="auto" markerUnits="userSpaceOnUse" viewBox="0 0 20 14"><polygon points="10,1 10,13 18,7" style="stroke-width: 2; stroke-dasharray: 0;"/></marker></defs><defs><marker id="my-svg_class-compositionStart" class="marker composition class" refX="18" refY="7" markerWidth="190" markerHeight="240" orient="auto"><path d="M 18,7 L9,13 L1,7 L9,1 Z"/></marker></defs><defs><marker id="my-svg_class-compositionEnd" class="marker composition class" refX="1" refY="7" markerWidth="20" markerHeight="28" orient="auto"><path d="M 18,7 L9,13 L1,7 L9,1 Z"/></marker></defs><defs><marker id="my-svg_class-compositionStart-margin" class="marker composition class" refX="15" refY="7" markerWidth="190" markerHeight="240" orient="auto" markerUnits="userSpaceOnUse"><path viewBox="0 0 15 15" d="M 18,7 L9,13 L1,7 L9,1 Z" style="stroke-width: 0;"/></marker></defs><defs><marker id="my-svg_class-compositionEnd-margin" class="marker composition class" refX="3.5" refY="7" markerWidth="20" markerHeight="28" orient="auto" markerUnits="userSpaceOnUse"><path d="M 18,7 L9,13 L1,7 L9,1 Z" style="stroke-width: 0;"/></marker></defs><defs><marker id="my-svg_class-dependencyStart" class="marker dependency class" refX="6" refY="7" markerWidth="190" markerHeight="240" orient="auto"><path d="M 5,7 L9,13 L1,7 L9,1 Z"/></marker></defs><defs><marker id="my-svg_class-dependencyEnd" class="marker dependency class" refX="13" refY="7" markerWidth="20" markerHeight="28" orient="auto"><path d="M 18,7 L9,13 L14,7 L9,1 Z"/></marker></defs><defs><marker id="my-svg_class-dependencyStart-margin" class="marker dependency class" refX="4" refY="7" markerWidth="190" markerHeight="240" orient="auto" markerUnits="userSpaceOnUse"><path d="M 5,7 L9,13 L1,7 L9,1 Z" style="stroke-width: 0;"/></marker></defs><defs><marker id="my-svg_class-dependencyEnd-margin" class="marker dependency class" refX="16" refY="7" markerWidth="20" markerHeight="28" orient="auto" markerUnits="userSpaceOnUse"><path d="M 18,7 L9,13 L14,7 L9,1 Z" style="stroke-width: 0;"/></marker></defs><defs><marker id="my-svg_class-lollipopStart" class="marker lollipop class" refX="13" refY="7" markerWidth="190" markerHeight="240" orient="auto"><circle fill="transparent" cx="7" cy="7" r="6"/></marker></defs><defs><marker id="my-svg_class-lollipopEnd" class="marker lollipop class" refX="1" refY="7" markerWidth="190" markerHeight="240" orient="auto"><circle fill="transparent" cx="7" cy="7" r="6"/></marker></defs><defs><marker id="my-svg_class-lollipopStart-margin" class="marker lollipop class" refX="13" refY="7" markerWidth="190" markerHeight="240" orient="auto" markerUnits="userSpaceOnUse"><circle fill="transparent" cx="7" cy="7" r="6" stroke-width="2"/></marker></defs><defs><marker id="my-svg_class-lollipopEnd-margin" class="marker lollipop class" refX="1" refY="7" markerWidth="190" markerHeight="240" orient="auto" markerUnits="userSpaceOnUse"><circle fill="transparent" cx="7" cy="7" r="6" stroke-width="2"/></marker></defs><g class="root"><g class="clusters"/><g class="edgePaths"><path d="M312.352,109.25L312.352,112.542C312.352,115.833,312.352,122.417,312.352,136.875C312.352,151.333,312.352,173.667,312.352,184.833L312.352,196" id="my-svg-id_Library_Book_1" class="edge-thickness-normal edge-pattern-solid relation" style=";;;" data-edge="true" data-et="edge" data-id="id_Library_Book_1" data-points="W3sieCI6MzEyLjM1MTU2MjUsInkiOjkyfSx7IngiOjMxMi4zNTE1NjI1LCJ5IjoxMjl9LHsieCI6MzEyLjM1MTU2MjUsInkiOjE5Nn1d" data-look="classic" marker-start="url(#my-svg_class-compositionStart)"/><path d="M120.074,310L120.074,316.167C120.074,322.333,120.074,334.667,124.974,347C129.873,359.333,139.673,371.667,144.572,377.833L149.472,384" id="my-svg-id_Member_Loan_2" class="edge-thickness-normal edge-pattern-solid relation" style=";;;" data-edge="true" data-et="edge" data-id="id_Member_Loan_2" data-points="W3sieCI6MTIwLjA3NDIxODc1LCJ5IjozMTB9LHsieCI6MTIwLjA3NDIxODc1LCJ5IjozNDd9LHsieCI6MTQ5LjQ3MTk5NDQ0NzMxNDA1LCJ5IjozODR9XQ==" data-look="classic"/><path d="M312.352,280L312.352,291.167C312.352,302.333,312.352,324.667,307.452,342C302.552,359.333,292.753,371.667,287.853,377.833L282.954,384" id="my-svg-id_Book_Loan_3" class="edge-thickness-normal edge-pattern-solid relation" style=";;;" data-edge="true" data-et="edge" data-id="id_Book_Loan_3" data-points="W3sieCI6MzEyLjM1MTU2MjUsInkiOjI4MH0seyJ4IjozMTIuMzUxNTYyNSwieSI6MzQ3fSx7IngiOjI4Mi45NTM3ODY4MDI2ODU5NSwieSI6Mzg0fV0=" data-look="classic"/></g><g class="edgeLabels"><g class="edgeLabel" transform="translate(312.3515625, 129)"><g class="label" data-id="id_Library_Book_1" transform="translate(-20.3203125, -12)"><foreignObject width="40.640625" height="24"><div xmlns="http://www.w3.org/1999/xhtml" class="labelBkg" style="display: table-cell; white-space: nowrap; line-height: 1.5; max-width: 200px; text-align: center;"><span class="edgeLabel"><p>books</p></span></div></foreignObject></g></g><g class="edgeLabel" transform="translate(120.07421875, 347)"><g class="label" data-id="id_Member_Loan_2" transform="translate(-18.46875, -12)"><foreignObject width="36.9375" height="24"><div xmlns="http://www.w3.org/1999/xhtml" class="labelBkg" style="display: table-cell; white-space: nowrap; line-height: 1.5; max-width: 200px; text-align: center;"><span class="edgeLabel"><p>loans</p></span></div></foreignObject></g></g><g class="edgeLabel" transform="translate(312.3515625, 347)"><g class="label" data-id="id_Book_Loan_3" transform="translate(-18.46875, -12)"><foreignObject width="36.9375" height="24"><div xmlns="http://www.w3.org/1999/xhtml" class="labelBkg" style="display: table-cell; white-space: nowrap; line-height: 1.5; max-width: 200px; text-align: center;"><span class="edgeLabel"><p>loans</p></span></div></foreignObject></g></g><g class="edgeTerminals" transform="translate(297.3515612500001, 109.49999892857143)"><g class="inner" transform="translate(-2.890625, -8.25)"><foreignObject width="5.78125" height="16.5" style="width: 9px; height: 12px;"><div xmlns="http://www.w3.org/1999/xhtml" style="display: table-cell; white-space: nowrap; line-height: 1.5;"><span class="edgeLabel"><p>1</p></span></div></foreignObject></g></g><g class="edgeTerminals" transform="translate(105.07421937500001, 327.50000053571426)"><g class="inner" transform="translate(-2.890625, -8.25)"><foreignObject width="5.78125" height="16.5" style="width: 9px; height: 12px;"><div xmlns="http://www.w3.org/1999/xhtml" style="display: table-cell; white-space: nowrap; line-height: 1.5;"><span class="edgeLabel"><p>1</p></span></div></foreignObject></g></g><g class="edgeTerminals" transform="translate(297.3515612500001, 297.4999989285714)"><g class="inner" transform="translate(-2.890625, -8.25)"><foreignObject width="5.78125" height="16.5" style="width: 9px; height: 12px;"><div xmlns="http://www.w3.org/1999/xhtml" style="display: table-cell; white-space: nowrap; line-height: 1.5;"><span class="edgeLabel"><p>1</p></span></div></foreignObject></g></g><g class="edgeTerminals" transform="translate(322.35156125, 173.49999892857144)"><g class="inner" transform="translate(-8.9453125, -8.25)"/><foreignObject width="17.890625" height="16.5" style="width: 36px; height: 12px;"><div xmlns="http://www.w3.org/1999/xhtml" style="display: table-cell; white-space: nowrap; line-height: 1.5;"><span class="edgeLabel"><p>0..*</p></span></div></foreignObject></g><g class="edgeTerminals" transform="translate(145.32983718185264, 355.96710812722324)"><g class="inner" transform="translate(-8.9453125, -8.25)"/><foreignObject width="17.890625" height="16.5" style="width: 36px; height: 12px;"><div xmlns="http://www.w3.org/1999/xhtml" style="display: table-cell; white-space: nowrap; line-height: 1.5;"><span class="edgeLabel"><p>0..*</p></span></div></foreignObject></g><g class="edgeTerminals" transform="translate(300.58450653306204, 374.62957417157804)"><g class="inner" transform="translate(-8.9453125, -8.25)"/><foreignObject width="17.890625" height="16.5" style="width: 36px; height: 12px;"><div xmlns="http://www.w3.org/1999/xhtml" style="display: table-cell; white-space: nowrap; line-height: 1.5;"><span class="edgeLabel"><p>0..*</p></span></div></foreignObject></g></g><g class="nodes"><g class="node default" id="my-svg-classId-Library-0" data-look="classic" transform="translate(312.3515625, 50)"><g class="basic label-container outer-path"><path d="M-38.578125 -42 L38.578125 -42 L38.578125 42 L-38.578125 42" stroke="none" stroke-width="0" fill="#ECECFF" style=""/><path d="M-38.578125 -42 C-20.068289316622923 -42, -1.558453633245847 -42, 38.578125 -42 M-38.578125 -42 C-20.163404621896845 -42, -1.74868424379369 -42, 38.578125 -42 M38.578125 -42 C38.578125 -9.472054057791489, 38.578125 23.055891884417022, 38.578125 42 M38.578125 -42 C38.578125 -24.87605301884507, 38.578125 -7.75210603769014, 38.578125 42 M38.578125 42 C17.642137326777917 42, -3.2938503464441666 42, -38.578125 42 M38.578125 42 C12.564297271048257 42, -13.449530457903485 42, -38.578125 42 M-38.578125 42 C-38.578125 22.21665336954182, -38.578125 2.4333067390836405, -38.578125 -42 M-38.578125 42 C-38.578125 12.61843333366819, -38.578125 -16.76313333266362, -38.578125 -42" stroke="#9370DB" stroke-width="1.3" fill="none" stroke-dasharray="0 0" style=""/></g><g class="annotation-group text" transform="translate(0, -18)"/><g class="label-group text" transform="translate(-26.578125, -18)"><g class="label" style="font-weight: bolder" transform="translate(0,-12)"><foreignObject width="53.15625" height="24"><div xmlns="http://www.w3.org/1999/xhtml" style="display: table-cell; white-space: nowrap; line-height: 1.5; max-width: 98px; text-align: center;"><span class="nodeLabel markdown-node-label" style=""><p>Library</p></span></div></foreignObject></g></g><g class="members-group text" transform="translate(-26.578125, 30)"/><g class="methods-group text" transform="translate(-26.578125, 60)"/><g class="divider" style=""><path d="M-38.578125 6 C-17.360101211003933 6.000275000713344, 3.8579225779921344 6.0005500014266895, 38.578125 6.001 M-38.578125 6 C-22.076398350020998 6.000213874140462, -5.574671700041996 6.000427748280923, 38.578125 6.001" stroke="#9370DB" stroke-width="1.3" fill="none" stroke-dasharray="0 0" style=""/></g><g class="divider" style=""><path d="M-38.578125 24 C-10.763392387865089 24.000360498762085, 17.051340224269822 24.000720997524173, 38.578125 24.001 M-38.578125 24 C-9.705029792274985 24.000374215895768, 19.16806541545003 24.000748431791532, 38.578125 24.001" stroke="#9370DB" stroke-width="1.3" fill="none" stroke-dasharray="0 0" style=""/></g></g><g class="node default" id="my-svg-classId-Book-1" data-look="classic" transform="translate(312.3515625, 238)"><g class="basic label-container outer-path"><path d="M-30.203125 -42 L30.203125 -42 L30.203125 42 L-30.203125 42" stroke="none" stroke-width="0" fill="#ECECFF" style=""/><path d="M-30.203125 -42 C-16.800833451107255 -42, -3.398541902214511 -42, 30.203125 -42 M-30.203125 -42 C-17.927826195404034 -42, -5.652527390808068 -42, 30.203125 -42 M30.203125 -42 C30.203125 -16.25468877227074, 30.203125 9.49062245545852, 30.203125 42 M30.203125 -42 C30.203125 -18.05152866074909, 30.203125 5.896942678501823, 30.203125 42 M30.203125 42 C13.158541980206191 42, -3.8860410395876173 42, -30.203125 42 M30.203125 42 C11.50918248804723 42, -7.18476002390554 42, -30.203125 42 M-30.203125 42 C-30.203125 15.298861990259716, -30.203125 -11.402276019480567, -30.203125 -42 M-30.203125 42 C-30.203125 16.343715273123127, -30.203125 -9.312569453753746, -30.203125 -42" stroke="#9370DB" stroke-width="1.3" fill="none" stroke-dasharray="0 0" style=""/></g><g class="annotation-group text" transform="translate(0, -18)"/><g class="label-group text" transform="translate(-18.203125, -18)"><g class="label" style="font-weight: bolder" transform="translate(0,-12)"><foreignObject width="36.40625" height="24"><div xmlns="http://www.w3.org/1999/xhtml" style="display: table-cell; white-space: nowrap; line-height: 1.5; max-width: 85px; text-align: center;"><span class="nodeLabel markdown-node-label" style=""><p>Book</p></span></div></foreignObject></g></g><g class="members-group text" transform="translate(-18.203125, 30)"/><g class="methods-group text" transform="translate(-18.203125, 60)"/><g class="divider" style=""><path d="M-30.203125 6 C-13.006189130430428 6.000284688022672, 4.1907467391391435 6.000569376045346, 30.203125 6.001 M-30.203125 6 C-17.840766509781744 6.000204653632533, -5.478408019563485 6.000409307265067, 30.203125 6.001" stroke="#9370DB" stroke-width="1.3" fill="none" stroke-dasharray="0 0" style=""/></g><g class="divider" style=""><path d="M-30.203125 24 C-15.06406525275465 24.000250620751117, 0.07499449449069928 24.00050124150224, 30.203125 24.001 M-30.203125 24 C-9.452790597316344 24.00034351303719, 11.297543805367312 24.000687026074377, 30.203125 24.001" stroke="#9370DB" stroke-width="1.3" fill="none" stroke-dasharray="0 0" style=""/></g></g><g class="node default" id="my-svg-classId-Member-2" data-look="classic" transform="translate(120.07421875, 238)"><g class="basic label-container outer-path"><path d="M-112.07421875 -72 L112.07421875 -72 L112.07421875 72 L-112.07421875 72" stroke="none" stroke-width="0" fill="#ECECFF" style=""/><path d="M-112.07421875 -72 C-61.54906645957463 -72, -11.023914169149265 -72, 112.07421875 -72 M-112.07421875 -72 C-53.937650889705345 -72, 4.198916970589309 -72, 112.07421875 -72 M112.07421875 -72 C112.07421875 -30.864561254569466, 112.07421875 10.270877490861068, 112.07421875 72 M112.07421875 -72 C112.07421875 -26.36533880470268, 112.07421875 19.26932239059464, 112.07421875 72 M112.07421875 72 C54.29549473452269 72, -3.4832292809546175 72, -112.07421875 72 M112.07421875 72 C22.67703456973652 72, -66.72014961052696 72, -112.07421875 72 M-112.07421875 72 C-112.07421875 20.79008215394547, -112.07421875 -30.41983569210906, -112.07421875 -72 M-112.07421875 72 C-112.07421875 18.65192620095381, -112.07421875 -34.69614759809238, -112.07421875 -72" stroke="#9370DB" stroke-width="1.3" fill="none" stroke-dasharray="0 0" style=""/></g><g class="annotation-group text" transform="translate(0, -48)"/><g class="label-group text" transform="translate(-30.1015625, -48)"><g class="label" style="font-weight: bolder" transform="translate(0,-12)"><foreignObject width="60.203125" height="24"><div xmlns="http://www.w3.org/1999/xhtml" style="display: table-cell; white-space: nowrap; line-height: 1.5; max-width: 104px; text-align: center;"><span class="nodeLabel markdown-node-label" style=""><p>Member</p></span></div></foreignObject></g></g><g class="members-group text" transform="translate(-100.07421875, 0)"><g class="label" style="" transform="translate(0,-12)"><foreignObject width="170.046875" height="24"><div xmlns="http://www.w3.org/1999/xhtml" style="display: table-cell; white-space: nowrap; line-height: 1.5; max-width: 212px; text-align: center;"><span class="nodeLabel markdown-node-label" style=""><p>+String memberNumber</p></span></div></foreignObject></g><g class="label" style="" transform="translate(0,12)"><foreignObject width="93.96875" height="24"><div xmlns="http://www.w3.org/1999/xhtml" style="display: table-cell; white-space: nowrap; line-height: 1.5; max-width: 141px; text-align: center;"><span class="nodeLabel markdown-node-label" style=""><p>+String name</p></span></div></foreignObject></g></g><g class="methods-group text" transform="translate(-100.07421875, 72)"/><g class="divider" style=""><path d="M-112.07421875 -24 C-65.36800842459004 -23.999791628213668, -18.661798099180075 -23.999583256427336, 112.07421875 -23.999 M-112.07421875 -24 C-40.70813047303206 -23.999681612376722, 30.657957803935886 -23.999363224753445, 112.07421875 -23.999" stroke="#9370DB" stroke-width="1.3" fill="none" stroke-dasharray="0 0" style=""/></g><g class="divider" style=""><path d="M-112.07421875 48 C-38.79522477521931 48.00032692172559, 34.48376919956138 48.00065384345117, 112.07421875 48.001 M-112.07421875 48 C-37.3850972027641 48.00033321276909, 37.3040243444718 48.000666425538185, 112.07421875 48.001" stroke="#9370DB" stroke-width="1.3" fill="none" stroke-dasharray="0 0" style=""/></g></g><g class="node default" id="my-svg-classId-Loan-3" data-look="classic" transform="translate(216.212890625, 468)"><g class="basic label-container outer-path"><path d="M-91.9453125 -84 L91.9453125 -84 L91.9453125 84 L-91.9453125 84" stroke="none" stroke-width="0" fill="#ECECFF" style=""/><path d="M-91.9453125 -84 C-43.619942854995884 -84, 4.705426790008232 -84, 91.9453125 -84 M-91.9453125 -84 C-36.70257957984589 -84, 18.540153340308223 -84, 91.9453125 -84 M91.9453125 -84 C91.9453125 -49.09818290581541, 91.9453125 -14.196365811630827, 91.9453125 84 M91.9453125 -84 C91.9453125 -29.39288638293248, 91.9453125 25.214227234135038, 91.9453125 84 M91.9453125 84 C25.953757462580313 84, -40.037797574839374 84, -91.9453125 84 M91.9453125 84 C39.98097506753204 84, -11.983362364935914 84, -91.9453125 84 M-91.9453125 84 C-91.9453125 32.04609310115591, -91.9453125 -19.907813797688178, -91.9453125 -84 M-91.9453125 84 C-91.9453125 36.87709247610836, -91.9453125 -10.245815047783282, -91.9453125 -84" stroke="#9370DB" stroke-width="1.3" fill="none" stroke-dasharray="0 0" style=""/></g><g class="annotation-group text" transform="translate(0, -60)"/><g class="label-group text" transform="translate(-17.9375, -60)"><g class="label" style="font-weight: bolder" transform="translate(0,-12)"><foreignObject width="35.875" height="24"><div xmlns="http://www.w3.org/1999/xhtml" style="display: table-cell; white-space: nowrap; line-height: 1.5; max-width: 83px; text-align: center;"><span class="nodeLabel markdown-node-label" style=""><p>Loan</p></span></div></foreignObject></g></g><g class="members-group text" transform="translate(-79.9453125, -12)"><g class="label" style="" transform="translate(0,-12)"><foreignObject width="110.25" height="24"><div xmlns="http://www.w3.org/1999/xhtml" style="display: table-cell; white-space: nowrap; line-height: 1.5; max-width: 155px; text-align: center;"><span class="nodeLabel markdown-node-label" style=""><p>+Date loanDate</p></span></div></foreignObject></g><g class="label" style="" transform="translate(0,12)"><foreignObject width="124.78125" height="24"><div xmlns="http://www.w3.org/1999/xhtml" style="display: table-cell; white-space: nowrap; line-height: 1.5; max-width: 166px; text-align: center;"><span class="nodeLabel markdown-node-label" style=""><p>+Date returnDate</p></span></div></foreignObject></g></g><g class="methods-group text" transform="translate(-79.9453125, 60)"><g class="label" style="" transform="translate(0,-12)"><foreignObject width="141.953125" height="24"><div xmlns="http://www.w3.org/1999/xhtml" style="display: table-cell; white-space: nowrap; line-height: 1.5; max-width: 183px; text-align: center;"><span class="nodeLabel markdown-node-label" style=""><p>+extend() : Boolean</p></span></div></foreignObject></g></g><g class="divider" style=""><path d="M-91.9453125 -36 C-26.684574801007315 -35.99964511112136, 38.57616289798537 -35.99929022224272, 91.9453125 -35.999 M-91.9453125 -36 C-50.18752173732624 -35.99977292050227, -8.429730974652486 -35.99954584100453, 91.9453125 -35.999" stroke="#9370DB" stroke-width="1.3" fill="none" stroke-dasharray="0 0" style=""/></g><g class="divider" style=""><path d="M-91.9453125 36 C-45.59624587883061 36.00025204692529, 0.752820742338784 36.00050409385058, 91.9453125 36.001 M-91.9453125 36 C-26.352184921095244 36.000356696419836, 39.24094265780951 36.00071339283967, 91.9453125 36.001" stroke="#9370DB" stroke-width="1.3" fill="none" stroke-dasharray="0 0" style=""/></g></g></g></g></g><defs><filter id="my-svg-drop-shadow" height="130%" width="130%"><feDropShadow dx="4" dy="4" stdDeviation="0" flood-opacity="0.06" flood-color="#000000"/></filter></defs><defs><filter id="my-svg-drop-shadow-small" height="150%" width="150%"><feDropShadow dx="2" dy="2" stdDeviation="0" flood-opacity="0.06" flood-color="#000000"/></filter></defs></svg>