<svg xmlns="http://www.w3.org/2000/svg" xmlns:xlink="http://www.w3.org/1999/xlink" contentStyleType="text/css" data-diagram-type="CLASS" height="402px" preserveAspectRatio="none" style="width:314px;height:402px;background:#FFFFFF;" version="1.1" viewBox="0 0 314 402" width="314px" zoomAndPan="magnify"><?plantuml 1.2026.6?><defs/><g><!--class Library--><g class="entity" data-qualified-name="Library" data-source-line="1" id="ent0001"><rect fill="#F1F1F1" height="48" rx="2.5" ry="2.5" style="stroke:#181818;stroke-width:0.5;" width="78.8262" x="7" y="7"/><ellipse cx="22" cy="23" fill="#ADD1B2" rx="11" ry="11" style="stroke:#181818;stroke-width:1;"/><path d="M24.4731,29.1431 Q23.8921,29.4419 23.2529,29.5913 Q22.6138,29.7407 21.9082,29.7407 Q19.4014,29.7407 18.0815,28.0889 Q16.7617,26.437 16.7617,23.3159 Q16.7617,20.1865 18.0815,18.5347 Q19.4014,16.8828 21.9082,16.8828 Q22.6138,16.8828 23.2612,17.0322 Q23.9087,17.1816 24.4731,17.4805 L24.4731,20.2031 Q23.8423,19.6221 23.2488,19.3523 Q22.6553,19.0825 22.0244,19.0825 Q20.6797,19.0825 19.9949,20.1492 Q19.3101,21.2158 19.3101,23.3159 Q19.3101,25.4077 19.9949,26.4744 Q20.6797,27.541 22.0244,27.541 Q22.6553,27.541 23.2488,27.2712 Q23.8423,27.0015 24.4731,26.4204 Z " fill="#000000"/><text fill="#000000" font-family="sans-serif" font-size="14" lengthAdjust="spacing" textLength="46.8262" x="36" y="28.291">Library</text><line style="stroke:#181818;stroke-width:0.5;" x1="8" x2="84.8262" y1="39" y2="39"/><line style="stroke:#181818;stroke-width:0.5;" x1="8" x2="84.8262" y1="47" y2="47"/></g><!--class Book--><g class="entity" data-qualified-name="Book" data-source-line="4" id="ent0002"><rect fill="#F1F1F1" height="48" rx="2.5" ry="2.5" style="stroke:#181818;stroke-width:0.5;" width="65.4346" x="13.7" y="148.49"/><ellipse cx="28.7" cy="164.49" fill="#ADD1B2" rx="11" ry="11" style="stroke:#181818;stroke-width:1;"/><path d="M31.1731,170.6331 Q30.5921,170.9319 29.9529,171.0813 Q29.3138,171.2307 28.6082,171.2307 Q26.1014,171.2307 24.7815,169.5789 Q23.4617,167.927 23.4617,164.8059 Q23.4617,161.6765 24.7815,160.0247 Q26.1014,158.3728 28.6082,158.3728 Q29.3138,158.3728 29.9612,158.5222 Q30.6087,158.6716 31.1731,158.9705 L31.1731,161.6931 Q30.5423,161.1121 29.9488,160.8423 Q29.3553,160.5725 28.7244,160.5725 Q27.3797,160.5725 26.6949,161.6392 Q26.0101,162.7058 26.0101,164.8059 Q26.0101,166.8977 26.6949,167.9644 Q27.3797,169.031 28.7244,169.031 Q29.3553,169.031 29.9488,168.7612 Q30.5423,168.4915 31.1731,167.9104 Z " fill="#000000"/><text fill="#000000" font-family="sans-serif" font-size="14" lengthAdjust="spacing" textLength="33.4346" x="42.7" y="169.781">Book</text><line style="stroke:#181818;stroke-width:0.5;" x1="14.7" x2="78.1346" y1="180.49" y2="180.49"/><line style="stroke:#181818;stroke-width:0.5;" x1="14.7" x2="78.1346" y1="188.49" y2="188.49"/></g><!--class Member--><g class="entity" data-qualified-name="Member" data-source-line="7" id="ent0003"><rect fill="#F1F1F1" height="80.9766" rx="2.5" ry="2.5" style="stroke:#181818;stroke-width:0.5;" width="185.5508" x="113.64" y="132"/><ellipse cx="174.5311" cy="148" fill="#ADD1B2" rx="11" ry="11" style="stroke:#181818;stroke-width:1;"/><path d="M177.0043,154.1431 Q176.4232,154.4419 175.784,154.5913 Q175.1449,154.7407 174.4393,154.7407 Q171.9325,154.7407 170.6127,153.0889 Q169.2928,151.437 169.2928,148.3159 Q169.2928,145.1865 170.6127,143.5347 Q171.9325,141.8828 174.4393,141.8828 Q175.1449,141.8828 175.7923,142.0322 Q176.4398,142.1816 177.0043,142.4805 L177.0043,145.2031 Q176.3734,144.6221 175.7799,144.3523 Q175.1864,144.0825 174.5555,144.0825 Q173.2108,144.0825 172.526,145.1492 Q171.8412,146.2158 171.8412,148.3159 Q171.8412,150.4077 172.526,151.4744 Q173.2108,152.541 174.5555,152.541 Q175.1864,152.541 175.7799,152.2712 Q176.3734,152.0015 177.0043,151.4204 Z " fill="#000000"/><text fill="#000000" font-family="sans-serif" font-size="14" lengthAdjust="spacing" textLength="55.2686" x="195.0311" y="153.291">Member</text><line style="stroke:#181818;stroke-width:0.5;" x1="114.64" x2="298.1908" y1="164" y2="164"/><g data-visibility-modifier="PUBLIC_FIELD"><ellipse cx="124.64" cy="177.7441" fill="none" rx="3" ry="3" style="stroke:#038048;stroke-width:1;"/></g><text fill="#000000" font-family="sans-serif" font-size="14" lengthAdjust="spacing" textLength="159.5508" x="133.64" y="181.5352">memberNumber: String</text><g data-visibility-modifier="PUBLIC_FIELD"><ellipse cx="124.64" cy="194.2324" fill="none" rx="3" ry="3" style="stroke:#038048;stroke-width:1;"/></g><text fill="#000000" font-family="sans-serif" font-size="14" lengthAdjust="spacing" textLength="86.1191" x="133.64" y="198.0234">name: String</text><line style="stroke:#181818;stroke-width:0.5;" x1="114.64" x2="298.1908" y1="204.9766" y2="204.9766"/></g><!--class Loan--><g class="entity" data-qualified-name="Loan" data-source-line="12" id="ent0004"><rect fill="#F1F1F1" height="97.4648" rx="2.5" ry="2.5" style="stroke:#181818;stroke-width:0.5;" width="144.4053" x="78.21" y="289.98"/><ellipse cx="129.9204" cy="305.98" fill="#ADD1B2" rx="11" ry="11" style="stroke:#181818;stroke-width:1;"/><path d="M132.3936,312.1231 Q131.8125,312.4219 131.1734,312.5713 Q130.5342,312.7207 129.8287,312.7207 Q127.3218,312.7207 126.002,311.0689 Q124.6822,309.417 124.6822,306.2959 Q124.6822,303.1665 126.002,301.5147 Q127.3218,299.8628 129.8287,299.8628 Q130.5342,299.8628 131.1817,300.0122 Q131.8291,300.1616 132.3936,300.4605 L132.3936,303.1831 Q131.7627,302.6021 131.1692,302.3323 Q130.5757,302.0625 129.9449,302.0625 Q128.6001,302.0625 127.9153,303.1292 Q127.2305,304.1958 127.2305,306.2959 Q127.2305,308.3877 127.9153,309.4544 Q128.6001,310.521 129.9449,310.521 Q130.5757,310.521 131.1692,310.2512 Q131.7627,309.9815 132.3936,309.4004 Z " fill="#000000"/><text fill="#000000" font-family="sans-serif" font-size="14" lengthAdjust="spacing" textLength="32.4844" x="150.4204" y="311.271">Loan</text><line style="stroke:#181818;stroke-width:0.5;" x1="79.21" x2="221.6153" y1="321.98" y2="321.98"/><g data-visibility-modifier="PUBLIC_FIELD"><ellipse cx="89.21" cy="335.7241" fill="none" rx="3" ry="3" style="stroke:#038048;stroke-width:1;"/></g><text fill="#000000" font-family="sans-serif" font-size="14" lengthAdjust="spacing" textLength="100.4336" x="98.21" y="339.5152">loanDate: Date</text><g data-visibility-modifier="PUBLIC_FIELD"><ellipse cx="89.21" cy="352.2124" fill="none" rx="3" ry="3" style="stroke:#038048;stroke-width:1;"/></g><text fill="#000000" font-family="sans-serif" font-size="14" lengthAdjust="spacing" textLength="113.2373" x="98.21" y="356.0034">returnDate: Date</text><line style="stroke:#181818;stroke-width:0.5;" x1="79.21" x2="221.6153" y1="362.9566" y2="362.9566"/><g data-visibility-modifier="PUBLIC_METHOD"><ellipse cx="89.21" cy="376.7007" fill="#84BE84" rx="3" ry="3" style="stroke:#038048;stroke-width:1;"/></g><text fill="#000000" font-family="sans-serif" font-size="14" lengthAdjust="spacing" textLength="118.4053" x="98.21" y="380.4917">extend(): Boolean</text></g><!--reverse link Library to Book--><g class="link" data-entity-1="ent0001" data-entity-2="ent0002" data-link-type="composition" data-source-line="18" id="lnk5"><path codeLine="18" d="M46.41,67.35 C46.41,93.09 46.41,122.28 46.41,148.06" fill="none" id="Library-backto-Book" style="stroke:#181818;stroke-width:1;"/><polygon fill="#181818" points="46.41,55.35,42.41,61.35,46.41,67.35,50.41,61.35,46.41,55.35" style="stroke:#181818;stroke-width:1;stroke-linejoin:miter;stroke-miterlimit:10;"/><text fill="#000000" font-family="sans-serif" font-size="13" lengthAdjust="spacing" textLength="53.2061" x="47.41" y="98.5684">contains</text><text fill="#000000" font-family="sans-serif" font-size="13" lengthAdjust="spacing" textLength="8.2202" x="37.4611" y="75.7196">1</text><text fill="#000000" font-family="sans-serif" font-size="13" lengthAdjust="spacing" textLength="22.7119" x="21.8137" y="137.8833">0..*</text></g><!--link Member to Loan--><g class="link" data-entity-1="ent0003" data-entity-2="ent0004" data-link-type="association" data-source-line="19" id="lnk6"><path codeLine="19" d="M192.86,213.24 C185.02,236.21 175.11,265.27 166.84,289.54" fill="none" id="Member-Loan" style="stroke:#181818;stroke-width:1;"/><text fill="#000000" font-family="sans-serif" font-size="13" lengthAdjust="spacing" textLength="51.4351" x="182.77" y="256.5484">borrows</text><text fill="#000000" font-family="sans-serif" font-size="13" lengthAdjust="spacing" textLength="8.2202" x="182.0797" y="233.5232">1</text><text fill="#000000" font-family="sans-serif" font-size="13" lengthAdjust="spacing" textLength="22.7119" x="145.6533" y="279.1606">0..*</text></g><!--link Book to Loan--><g class="link" data-entity-1="ent0002" data-entity-2="ent0004" data-link-type="association" data-source-line="20" id="lnk7"><path codeLine="20" d="M61.09,196.67 C76.32,220.72 100.58,259.02 119.97,289.64" fill="none" id="Book-Loan" style="stroke:#181818;stroke-width:1;"/><text fill="#000000" font-family="sans-serif" font-size="13" lengthAdjust="spacing" textLength="21.874" x="99.41" y="256.5484">has</text><text fill="#000000" font-family="sans-serif" font-size="13" lengthAdjust="spacing" textLength="8.2202" x="55.7183" y="216.9982">1</text><text fill="#000000" font-family="sans-serif" font-size="13" lengthAdjust="spacing" textLength="22.7119" x="92.1922" y="279.2747">0..*</text></g><?plantuml-src ROv12i9034NtSuemAwsqw7QMuhAwyGHf3LfiCv2PeYBUtMQgLSHDI1x_XrUt60AKJIKeDxYRXp5rGcllpz_tbhgAP200YoxjkrwdWtsKXe_A6JkQxgbPUkInrmxR1kEGqQb4AFRom-WQYG-pkLE7bf3rrTlGhYnaUGvsMHIP7IqTr9uZDXpCor9Jdr0IS51v4Ny99dN-9auOdW00?></g></svg>