<svg id="my-svg" width="100%" xmlns="http://www.w3.org/2000/svg" xmlns:xlink="http://www.w3.org/1999/xlink" class="classDiagram" style="max-width: 626.264px; background-color: white;" viewBox="0 0 626.263671875 694" role="graphics-document document" aria-roledescription="class"><style>#my-svg{font-family:"trebuchet ms",verdana,arial,sans-serif;font-size:16px;fill:#333;}@keyframes edge-animation-frame{from{stroke-dashoffset:0;}}@keyframes dash{to{stroke-dashoffset:0;}}#my-svg .edge-animation-slow{stroke-dasharray:9,5!important;stroke-dashoffset:900;animation:dash 50s linear infinite;stroke-linecap:round;}#my-svg .edge-animation-fast{stroke-dasharray:9,5!important;stroke-dashoffset:900;animation:dash 20s linear infinite;stroke-linecap:round;}#my-svg .error-icon{fill:#552222;}#my-svg .error-text{fill:#552222;stroke:#552222;}#my-svg .edge-thickness-normal{stroke-width:1px;}#my-svg .edge-thickness-thick{stroke-width:3.5px;}#my-svg .edge-pattern-solid{stroke-dasharray:0;}#my-svg .edge-thickness-invisible{stroke-width:0;fill:none;}#my-svg .edge-pattern-dashed{stroke-dasharray:3;}#my-svg .edge-pattern-dotted{stroke-dasharray:2;}#my-svg .marker{fill:#333333;stroke:#333333;}#my-svg .marker.cross{stroke:#333333;}#my-svg svg{font-family:"trebuchet ms",verdana,arial,sans-serif;font-size:16px;}#my-svg p{margin:0;}#my-svg g.classGroup text{fill:#9370DB;stroke:none;font-family:"trebuchet ms",verdana,arial,sans-serif;font-size:10px;}#my-svg g.classGroup text .title{font-weight:bolder;}#my-svg .cluster-label text{fill:#333;}#my-svg .cluster-label span{color:#333;}#my-svg .cluster-label span p{background-color:transparent;}#my-svg .cluster rect{fill:#ffffde;stroke:#aaaa33;stroke-width:1px;}#my-svg .cluster text{fill:#333;}#my-svg .cluster span{color:#333;}#my-svg .nodeLabel,#my-svg .edgeLabel{color:#131300;}#my-svg .noteLabel .nodeLabel,#my-svg .noteLabel .edgeLabel{color:black;}#my-svg .edgeLabel .label rect{fill:#ECECFF;}#my-svg .label text{fill:#131300;}#my-svg .labelBkg{background:#ECECFF;}#my-svg .edgeLabel .label span{background:#ECECFF;}#my-svg .classTitle{font-weight:bolder;}#my-svg .node rect,#my-svg .node circle,#my-svg .node ellipse,#my-svg .node polygon,#my-svg .node path{fill:#ECECFF;stroke:#9370DB;stroke-width:1;}#my-svg .divider{stroke:#9370DB;stroke-width:1;}#my-svg g.clickable{cursor:pointer;}#my-svg g.classGroup rect{fill:#ECECFF;stroke:#9370DB;}#my-svg g.classGroup line{stroke:#9370DB;stroke-width:1;}#my-svg .classLabel .box{stroke:none;stroke-width:0;fill:#ECECFF;opacity:0.5;}#my-svg .classLabel .label{fill:#9370DB;font-size:10px;}#my-svg .relation{stroke:#333333;stroke-width:1;fill:none;}#my-svg .dashed-line{stroke-dasharray:3;}#my-svg .dotted-line{stroke-dasharray:1 2;}#my-svg [id$="-compositionStart"],#my-svg .composition{fill:#333333!important;stroke:#333333!important;stroke-width:1;}#my-svg [id$="-compositionEnd"],#my-svg .composition{fill:#333333!important;stroke:#333333!important;stroke-width:1;}#my-svg [id$="-dependencyStart"],#my-svg .dependency{fill:#333333!important;stroke:#333333!important;stroke-width:1;}#my-svg [id$="-dependencyEnd"],#my-svg .dependency{fill:#333333!important;stroke:#333333!important;stroke-width:1;}#my-svg [id$="-extensionStart"],#my-svg .extension{fill:transparent!important;stroke:#333333!important;stroke-width:1;}#my-svg [id$="-extensionEnd"],#my-svg .extension{fill:transparent!important;stroke:#333333!important;stroke-width:1;}#my-svg [id$="-aggregationStart"],#my-svg .aggregation{fill:transparent!important;stroke:#333333!important;stroke-width:1;}#my-svg [id$="-aggregationEnd"],#my-svg .aggregation{fill:transparent!important;stroke:#333333!important;stroke-width:1;}#my-svg [id$="-lollipopStart"],#my-svg .lollipop{fill:#ECECFF!important;stroke:#333333!important;stroke-width:1;}#my-svg [id$="-lollipopEnd"],#my-svg .lollipop{fill:#ECECFF!important;stroke:#333333!important;stroke-width:1;}#my-svg .edgeTerminals{font-size:11px;line-height:initial;}#my-svg .classTitleText{text-anchor:middle;font-size:18px;fill:#333;}#my-svg .edgeLabel[data-look="neo"]{background-color:rgba(232,232,232, 0.8);text-align:center;}#my-svg .edgeLabel[data-look="neo"] p{background-color:rgba(232,232,232, 0.8);}#my-svg .edgeLabel[data-look="neo"] rect{opacity:0.5;background-color:rgba(232,232,232, 0.8);fill:rgba(232,232,232, 0.8);}#my-svg .label-icon{display:inline-block;height:1em;overflow:visible;vertical-align:-0.125em;}#my-svg .node .label-icon path{fill:currentColor;stroke:revert;stroke-width:revert;}#my-svg .node .neo-node{stroke:#9370DB;}#my-svg [data-look="neo"].node rect,#my-svg [data-look="neo"].cluster rect,#my-svg [data-look="neo"].node polygon{stroke:#9370DB;filter:drop-shadow(1px 2px 2px rgba(185, 185, 185, 1));}#my-svg [data-look="neo"].swimlane.cluster rect{filter:none;}#my-svg [data-look="neo"].node path{stroke:#9370DB;stroke-width:1px;}#my-svg [data-look="neo"].node .outer-path{filter:drop-shadow(1px 2px 2px rgba(185, 185, 185, 1));}#my-svg [data-look="neo"].node .neo-line path{stroke:#9370DB;filter:none;}#my-svg [data-look="neo"].node circle{stroke:#9370DB;filter:drop-shadow(1px 2px 2px rgba(185, 185, 185, 1));}#my-svg [data-look="neo"].node circle .state-start{fill:#000000;}#my-svg [data-look="neo"].icon-shape .icon{fill:#9370DB;filter:drop-shadow(1px 2px 2px rgba(185, 185, 185, 1));}#my-svg [data-look="neo"].icon-shape .icon-neo path{stroke:#9370DB;filter:drop-shadow(1px 2px 2px rgba(185, 185, 185, 1));}#my-svg :root{--mermaid-font-family:"trebuchet ms",verdana,arial,sans-serif;}</style><g><defs><marker id="my-svg_class-aggregationStart" class="marker aggregation class" refX="18" refY="7" markerWidth="190" markerHeight="240" orient="auto"><path d="M 18,7 L9,13 L1,7 L9,1 Z"/></marker></defs><defs><marker id="my-svg_class-aggregationEnd" class="marker aggregation class" refX="1" refY="7" markerWidth="20" markerHeight="28" orient="auto"><path d="M 18,7 L9,13 L1,7 L9,1 Z"/></marker></defs><defs><marker id="my-svg_class-aggregationStart-margin" class="marker aggregation class" refX="15" refY="7" markerWidth="190" markerHeight="240" orient="auto" markerUnits="userSpaceOnUse"><path d="M 18,7 L9,13 L1,7 L9,1 Z" style="stroke-width: 2;"/></marker></defs><defs><marker id="my-svg_class-aggregationEnd-margin" class="marker aggregation class" refX="1" refY="7" markerWidth="20" markerHeight="28" orient="auto" markerUnits="userSpaceOnUse"><path d="M 18,7 L9,13 L1,7 L9,1 Z" style="stroke-width: 2;"/></marker></defs><defs><marker id="my-svg_class-extensionStart" class="marker extension class" refX="18" refY="7" markerWidth="20" markerHeight="28" orient="auto" markerUnits="userSpaceOnUse"><path d="M 1,7 L18,13 V 1 Z"/></marker></defs><defs><marker id="my-svg_class-extensionEnd" class="marker extension class" refX="1" refY="7" markerWidth="20" markerHeight="28" orient="auto"><path d="M 1,1 V 13 L18,7 Z"/></marker></defs><marker id="my-svg_class-extensionStart-margin" class="marker extension class" refX="18" refY="7" markerWidth="20" markerHeight="28" orient="auto" markerUnits="userSpaceOnUse" viewBox="0 0 20 14"><polygon points="10,7 18,13 18,1" style="stroke-width: 2; stroke-dasharray: 0;"/></marker><defs><marker id="my-svg_class-extensionEnd-margin" class="marker extension class" refX="9" refY="7" markerWidth="20" markerHeight="28" orient="auto" markerUnits="userSpaceOnUse" viewBox="0 0 20 14"><polygon points="10,1 10,13 18,7" style="stroke-width: 2; stroke-dasharray: 0;"/></marker></defs><defs><marker id="my-svg_class-compositionStart" class="marker composition class" refX="18" refY="7" markerWidth="190" markerHeight="240" orient="auto"><path d="M 18,7 L9,13 L1,7 L9,1 Z"/></marker></defs><defs><marker id="my-svg_class-compositionEnd" class="marker composition class" refX="1" refY="7" markerWidth="20" markerHeight="28" orient="auto"><path d="M 18,7 L9,13 L1,7 L9,1 Z"/></marker></defs><defs><marker id="my-svg_class-compositionStart-margin" class="marker composition class" refX="15" refY="7" markerWidth="190" markerHeight="240" orient="auto" markerUnits="userSpaceOnUse"><path viewBox="0 0 15 15" d="M 18,7 L9,13 L1,7 L9,1 Z" style="stroke-width: 0;"/></marker></defs><defs><marker id="my-svg_class-compositionEnd-margin" class="marker composition class" refX="3.5" refY="7" markerWidth="20" markerHeight="28" orient="auto" markerUnits="userSpaceOnUse"><path d="M 18,7 L9,13 L1,7 L9,1 Z" style="stroke-width: 0;"/></marker></defs><defs><marker id="my-svg_class-dependencyStart" class="marker dependency class" refX="6" refY="7" markerWidth="190" markerHeight="240" orient="auto"><path d="M 5,7 L9,13 L1,7 L9,1 Z"/></marker></defs><defs><marker id="my-svg_class-dependencyEnd" class="marker dependency class" refX="13" refY="7" markerWidth="20" markerHeight="28" orient="auto"><path d="M 18,7 L9,13 L14,7 L9,1 Z"/></marker></defs><defs><marker id="my-svg_class-dependencyStart-margin" class="marker dependency class" refX="4" refY="7" markerWidth="190" markerHeight="240" orient="auto" markerUnits="userSpaceOnUse"><path d="M 5,7 L9,13 L1,7 L9,1 Z" style="stroke-width: 0;"/></marker></defs><defs><marker id="my-svg_class-dependencyEnd-margin" class="marker dependency class" refX="16" refY="7" markerWidth="20" markerHeight="28" orient="auto" markerUnits="userSpaceOnUse"><path d="M 18,7 L9,13 L14,7 L9,1 Z" style="stroke-width: 0;"/></marker></defs><defs><marker id="my-svg_class-lollipopStart" class="marker lollipop class" refX="13" refY="7" markerWidth="190" markerHeight="240" orient="auto"><circle fill="transparent" cx="7" cy="7" r="6"/></marker></defs><defs><marker id="my-svg_class-lollipopEnd" class="marker lollipop class" refX="1" refY="7" markerWidth="190" markerHeight="240" orient="auto"><circle fill="transparent" cx="7" cy="7" r="6"/></marker></defs><defs><marker id="my-svg_class-lollipopStart-margin" class="marker lollipop class" refX="13" refY="7" markerWidth="190" markerHeight="240" orient="auto" markerUnits="userSpaceOnUse"><circle fill="transparent" cx="7" cy="7" r="6" stroke-width="2"/></marker></defs><defs><marker id="my-svg_class-lollipopEnd-margin" class="marker lollipop class" refX="1" refY="7" markerWidth="190" markerHeight="240" orient="auto" markerUnits="userSpaceOnUse"><circle fill="transparent" cx="7" cy="7" r="6" stroke-width="2"/></marker></defs><g class="root"><g class="clusters"/><g class="edgePaths"><path d="M216.714,131.136L255.937,144.78C295.159,158.424,373.604,185.712,417.731,205.523C461.858,225.333,471.667,237.667,476.572,243.833L481.477,250" id="my-svg-id_Person_Patient_1" class="edge-thickness-normal edge-pattern-solid relation" style=";;;" data-edge="true" data-et="edge" data-id="id_Person_Patient_1" data-points="W3sieCI6MjAwLjQyMTg3NSwieSI6MTI1LjQ2ODI0NDExOTY0NTM2fSx7IngiOjQ1Mi4wNDg4MjgxMjUsInkiOjIxM30seyJ4Ijo0ODEuNDc2NTgyNjM1MzA5MywieSI6MjUwfV0=" data-look="classic" marker-start="url(#my-svg_class-extensionStart)"/><path d="M104.211,193.25L104.211,196.542C104.211,199.833,104.211,206.417,106.662,218.875C109.114,231.333,114.017,249.667,116.468,258.833L118.92,268" id="my-svg-id_Person_Doctor_2" class="edge-thickness-normal edge-pattern-solid relation" style=";;;" data-edge="true" data-et="edge" data-id="id_Person_Doctor_2" data-points="W3sieCI6MTA0LjIxMDkzNzUsInkiOjE3Nn0seyJ4IjoxMDQuMjEwOTM3NSwieSI6MjEzfSx7IngiOjExOC45MTk5ODIyODA5Mjc4NCwieSI6MjY4fV0=" data-look="classic" marker-start="url(#my-svg_class-extensionStart)"/><path d="M36.357,190.191L33.73,193.993C31.103,197.794,25.85,205.397,23.223,225.365C20.596,245.333,20.596,277.667,20.596,310C20.596,342.333,20.596,374.667,20.596,404C20.596,433.333,20.596,459.667,20.596,486C20.596,512.333,20.596,538.667,57.391,563.264C94.186,587.861,167.775,610.722,204.57,622.153L241.365,633.583" id="my-svg-id_Person_Nurse_3" class="edge-thickness-normal edge-pattern-solid relation" style=";;;" data-edge="true" data-et="edge" data-id="id_Person_Nurse_3" data-points="W3sieCI6NDYuMTYzOTk3OTMzODg0Mjk2LCJ5IjoxNzZ9LHsieCI6MjAuNTk1NzAzMTI1LCJ5IjoyMTN9LHsieCI6MjAuNTk1NzAzMTI1LCJ5IjozMTB9LHsieCI6MjAuNTk1NzAzMTI1LCJ5Ijo0MDd9LHsieCI6MjAuNTk1NzAzMTI1LCJ5Ijo0ODZ9LHsieCI6MjAuNTk1NzAzMTI1LCJ5Ijo1NjV9LHsieCI6MjQxLjM2NTIzNDM3NSwieSI6NjMzLjU4MzMyNDM3Mjg5NzZ9XQ==" data-look="classic" marker-start="url(#my-svg_class-extensionStart)"/><path d="M529.197,545.25L529.197,548.542C529.197,551.833,529.197,558.417,492.402,573.139C455.607,587.861,382.018,610.722,345.223,622.153L308.428,633.583" id="my-svg-id_Ward_Nurse_4" class="edge-thickness-normal edge-pattern-solid relation" style=";;;" data-edge="true" data-et="edge" data-id="id_Ward_Nurse_4" data-points="W3sieCI6NTI5LjE5NzI2NTYyNSwieSI6NTI4fSx7IngiOjUyOS4xOTcyNjU2MjUsInkiOjU2NX0seyJ4IjozMDguNDI3NzM0Mzc1LCJ5Ijo2MzMuNTgzMzI0MzcyODk3Nn1d" data-look="classic" marker-start="url(#my-svg_class-aggregationStart)"/><path d="M529.197,370L529.197,376.167C529.197,382.333,529.197,394.667,529.197,407C529.197,419.333,529.197,431.667,529.197,437.833L529.197,444" id="my-svg-id_Patient_Ward_5" class="edge-thickness-normal edge-pattern-solid relation" style=";;;" data-edge="true" data-et="edge" data-id="id_Patient_Ward_5" data-points="W3sieCI6NTI5LjE5NzI2NTYyNSwieSI6MzcwfSx7IngiOjUyOS4xOTcyNjU2MjUsInkiOjQwN30seyJ4Ijo1MjkuMTk3MjY1NjI1LCJ5Ijo0NDR9XQ==" data-look="classic"/><path d="M371.547,123.932L399.702,138.776C427.857,153.621,484.167,183.311,511.605,204.322C539.042,225.333,537.608,237.667,536.891,243.833L536.174,250" id="my-svg-id_Appointment_Patient_6" class="edge-thickness-normal edge-pattern-solid relation" style=";;;" data-edge="true" data-et="edge" data-id="id_Appointment_Patient_6" data-points="W3sieCI6MzcxLjU0Njg3NSwieSI6MTIzLjkzMTY0MjU1MzE5MTV9LHsieCI6NTQwLjQ3NjU2MjUsInkiOjIxM30seyJ4Ijo1MzYuMTc0MTUwMjg5OTQ4NCwieSI6MjUwfV0=" data-look="classic"/><path d="M266.932,134L253.121,147.167C239.311,160.333,211.691,186.667,192.785,209C173.88,231.333,163.689,249.667,158.594,258.833L153.498,268" id="my-svg-id_Appointment_Doctor_7" class="edge-thickness-normal edge-pattern-solid relation" style=";;;" data-edge="true" data-et="edge" data-id="id_Appointment_Doctor_7" data-points="W3sieCI6MjY2LjkzMTU1OTkxNzM1NTM0LCJ5IjoxMzR9LHsieCI6MTg0LjA3MDMxMjUsInkiOjIxM30seyJ4IjoxNTMuNDk4MjY4MzYzNDAyMDgsInkiOjI2OH1d" data-look="classic"/><path d="M310.984,151.25L310.984,161.542C310.984,171.833,310.984,192.417,310.984,211.875C310.984,231.333,310.984,249.667,310.984,258.833L310.984,268" id="my-svg-id_Appointment_TreatmentStep_8" class="edge-thickness-normal edge-pattern-solid relation" style=";;;" data-edge="true" data-et="edge" data-id="id_Appointment_TreatmentStep_8" data-points="W3sieCI6MzEwLjk4NDM3NSwieSI6MTM0fSx7IngiOjMxMC45ODQzNzUsInkiOjIxM30seyJ4IjozMTAuOTg0Mzc1LCJ5IjoyNjh9XQ==" data-look="classic" marker-start="url(#my-svg_class-compositionStart)"/></g><g class="edgeLabels"><g class="edgeLabel"><g class="label" data-id="id_Person_Patient_1" transform="translate(0, 0)"><foreignObject width="0" height="0"><div xmlns="http://www.w3.org/1999/xhtml" class="labelBkg" style="display: table-cell; white-space: nowrap; line-height: 1.5; max-width: 200px; text-align: center;"><span class="edgeLabel"></span></div></foreignObject></g></g><g class="edgeLabel"><g class="label" data-id="id_Person_Doctor_2" transform="translate(0, 0)"><foreignObject width="0" height="0"><div xmlns="http://www.w3.org/1999/xhtml" class="labelBkg" style="display: table-cell; white-space: nowrap; line-height: 1.5; max-width: 200px; text-align: center;"><span class="edgeLabel"></span></div></foreignObject></g></g><g class="edgeLabel"><g class="label" data-id="id_Person_Nurse_3" transform="translate(0, 0)"><foreignObject width="0" height="0"><div xmlns="http://www.w3.org/1999/xhtml" class="labelBkg" style="display: table-cell; white-space: nowrap; line-height: 1.5; max-width: 200px; text-align: center;"><span class="edgeLabel"></span></div></foreignObject></g></g><g class="edgeLabel" transform="translate(529.197265625, 565)"><g class="label" data-id="id_Ward_Nurse_4" transform="translate(-33.8203125, -12)"><foreignObject width="67.640625" height="24"><div xmlns="http://www.w3.org/1999/xhtml" class="labelBkg" style="display: table-cell; white-space: nowrap; line-height: 1.5; max-width: 200px; text-align: center;"><span class="edgeLabel"><p>staffedBy</p></span></div></foreignObject></g></g><g class="edgeLabel" transform="translate(529.197265625, 407)"><g class="label" data-id="id_Patient_Ward_5" transform="translate(-38.109375, -12)"><foreignObject width="76.21875" height="24"><div xmlns="http://www.w3.org/1999/xhtml" class="labelBkg" style="display: table-cell; white-space: nowrap; line-height: 1.5; max-width: 200px; text-align: center;"><span class="edgeLabel"><p>assignedTo</p></span></div></foreignObject></g></g><g class="edgeLabel" transform="translate(472.48666, 177.15225)"><g class="label" data-id="id_Appointment_Patient_6" transform="translate(-26.0234375, -12)"><foreignObject width="52.046875" height="24"><div xmlns="http://www.w3.org/1999/xhtml" class="labelBkg" style="display: table-cell; white-space: nowrap; line-height: 1.5; max-width: 200px; text-align: center;"><span class="edgeLabel"><p>patient</p></span></div></foreignObject></g></g><g class="edgeLabel" transform="translate(202.72908, 195.21071)"><g class="label" data-id="id_Appointment_Doctor_7" transform="translate(-23.2890625, -12)"><foreignObject width="46.578125" height="24"><div xmlns="http://www.w3.org/1999/xhtml" class="labelBkg" style="display: table-cell; white-space: nowrap; line-height: 1.5; max-width: 200px; text-align: center;"><span class="edgeLabel"><p>doctor</p></span></div></foreignObject></g></g><g class="edgeLabel" transform="translate(310.984375, 213)"><g class="label" data-id="id_Appointment_TreatmentStep_8" transform="translate(-55.6484375, -12)"><foreignObject width="111.296875" height="24"><div xmlns="http://www.w3.org/1999/xhtml" class="labelBkg" style="display: table-cell; white-space: nowrap; line-height: 1.5; max-width: 200px; text-align: center;"><span class="edgeLabel"><p>treatmentSteps</p></span></div></foreignObject></g></g><g class="edgeTerminals" transform="translate(514.1972678125002, 545.500001875)"><g class="inner" transform="translate(-2.890625, -8.25)"><foreignObject width="5.78125" height="16.5" style="width: 9px; height: 12px;"><div xmlns="http://www.w3.org/1999/xhtml" style="display: table-cell; white-space: nowrap; line-height: 1.5;"><span class="edgeLabel"><p>1</p></span></div></foreignObject></g></g><g class="edgeTerminals" transform="translate(514.1972678125002, 387.500001875)"><g class="inner" transform="translate(-2.890625, -8.25)"><foreignObject width="5.78125" height="16.5" style="width: 9px; height: 12px;"><div xmlns="http://www.w3.org/1999/xhtml" style="display: table-cell; white-space: nowrap; line-height: 1.5;"><span class="edgeLabel"><p>1</p></span></div></foreignObject></g></g><g class="edgeTerminals" transform="translate(380.0310594156551, 145.36219607338248)"><g class="inner" transform="translate(-2.890625, -8.25)"><foreignObject width="5.78125" height="16.5" style="width: 9px; height: 12px;"><div xmlns="http://www.w3.org/1999/xhtml" style="display: table-cell; white-space: nowrap; line-height: 1.5;"><span class="edgeLabel"><p>1</p></span></div></foreignObject></g></g><g class="edgeTerminals" transform="translate(243.91496631888393, 135.21920357005285)"><g class="inner" transform="translate(-2.890625, -8.25)"><foreignObject width="5.78125" height="16.5" style="width: 9px; height: 12px;"><div xmlns="http://www.w3.org/1999/xhtml" style="display: table-cell; white-space: nowrap; line-height: 1.5;"><span class="edgeLabel"><p>1</p></span></div></foreignObject></g></g><g class="edgeTerminals" transform="translate(295.98437750000016, 151.50000214285714)"><g class="inner" transform="translate(-2.890625, -8.25)"><foreignObject width="5.78125" height="16.5" style="width: 9px; height: 12px;"><div xmlns="http://www.w3.org/1999/xhtml" style="display: table-cell; white-space: nowrap; line-height: 1.5;"><span class="edgeLabel"><p>1</p></span></div></foreignObject></g></g><g class="edgeTerminals" transform="translate(324.58993845997486, 637.7162976605371)"><g class="inner" transform="translate(-8.9453125, -8.25)"/><foreignObject width="17.890625" height="16.5" style="width: 36px; height: 12px;"><div xmlns="http://www.w3.org/1999/xhtml" style="display: table-cell; white-space: nowrap; line-height: 1.5;"><span class="edgeLabel"><p>1..*</p></span></div></foreignObject></g><g class="edgeTerminals" transform="translate(539.1972678125, 421.500001875)"><g class="inner" transform="translate(-2.890625, -8.25)"/><foreignObject width="5.78125" height="16.5" style="width: 9px; height: 12px;"><div xmlns="http://www.w3.org/1999/xhtml" style="display: table-cell; white-space: nowrap; line-height: 1.5;"><span class="edgeLabel"><p>1</p></span></div></foreignObject></g><g class="edgeTerminals" transform="translate(548.0950618844454, 229.34967197168726)"><g class="inner" transform="translate(-2.890625, -8.25)"/><foreignObject width="5.78125" height="16.5" style="width: 9px; height: 12px;"><div xmlns="http://www.w3.org/1999/xhtml" style="display: table-cell; white-space: nowrap; line-height: 1.5;"><span class="edgeLabel"><p>1</p></span></div></foreignObject></g><g class="edgeTerminals" transform="translate(170.1112140832837, 254.99184278955045)"><g class="inner" transform="translate(-2.890625, -8.25)"/><foreignObject width="5.78125" height="16.5" style="width: 9px; height: 12px;"><div xmlns="http://www.w3.org/1999/xhtml" style="display: table-cell; white-space: nowrap; line-height: 1.5;"><span class="edgeLabel"><p>1</p></span></div></foreignObject></g><g class="edgeTerminals" transform="translate(320.9843774999998, 245.50000214285714)"><g class="inner" transform="translate(-8.9453125, -8.25)"/><foreignObject width="17.890625" height="16.5" style="width: 36px; height: 12px;"><div xmlns="http://www.w3.org/1999/xhtml" style="display: table-cell; white-space: nowrap; line-height: 1.5;"><span class="edgeLabel"><p>0..*</p></span></div></foreignObject></g></g><g class="nodes"><g class="node default" id="my-svg-classId-Person-0" data-look="classic" transform="translate(104.2109375, 92)"><g class="basic label-container outer-path"><path d="M-96.2109375 -84 L96.2109375 -84 L96.2109375 84 L-96.2109375 84" stroke="none" stroke-width="0" fill="#ECECFF" style=""/><path d="M-96.2109375 -84 C-38.79731378037935 -84, 18.616309939241305 -84, 96.2109375 -84 M-96.2109375 -84 C-45.57987143539149 -84, 5.051194629217022 -84, 96.2109375 -84 M96.2109375 -84 C96.2109375 -28.225694207108084, 96.2109375 27.54861158578383, 96.2109375 84 M96.2109375 -84 C96.2109375 -33.36988218749071, 96.2109375 17.26023562501858, 96.2109375 84 M96.2109375 84 C36.835709169088695 84, -22.53951916182261 84, -96.2109375 84 M96.2109375 84 C37.75105621435759 84, -20.70882507128482 84, -96.2109375 84 M-96.2109375 84 C-96.2109375 30.196892226904872, -96.2109375 -23.606215546190256, -96.2109375 -84 M-96.2109375 84 C-96.2109375 48.19124436338422, -96.2109375 12.382488726768443, -96.2109375 -84" stroke="#9370DB" stroke-width="1.3" fill="none" stroke-dasharray="0 0" style=""/></g><g class="annotation-group text" transform="translate(-37.90625, -60)"><g class="label" style="" transform="translate(0,-12)"><foreignObject width="75.8125" height="24"><div xmlns="http://www.w3.org/1999/xhtml" style="display: table-cell; white-space: nowrap; line-height: 1.5; max-width: 116px; text-align: center;"><span class="nodeLabel markdown-node-label" style=""><p>«abstract»</p></span></div></foreignObject></g></g><g class="label-group text" transform="translate(-25.03125, -36)"><g class="label" style="font-weight: bolder" transform="translate(0,-12)"><foreignObject width="50.0625" height="24"><div xmlns="http://www.w3.org/1999/xhtml" style="display: table-cell; white-space: nowrap; line-height: 1.5; max-width: 94px; text-align: center;"><span class="nodeLabel markdown-node-label" style=""><p>Person</p></span></div></foreignObject></g></g><g class="members-group text" transform="translate(-84.2109375, 12)"><g class="label" style="" transform="translate(0,-12)"><foreignObject width="93.96875" height="24"><div xmlns="http://www.w3.org/1999/xhtml" style="display: table-cell; white-space: nowrap; line-height: 1.5; max-width: 141px; text-align: center;"><span class="nodeLabel markdown-node-label" style=""><p>+String name</p></span></div></foreignObject></g><g class="label" style="" transform="translate(0,12)"><foreignObject width="130.515625" height="24"><div xmlns="http://www.w3.org/1999/xhtml" style="display: table-cell; white-space: nowrap; line-height: 1.5; max-width: 174px; text-align: center;"><span class="nodeLabel markdown-node-label" style=""><p>+Date dateOfBirth</p></span></div></foreignObject></g></g><g class="methods-group text" transform="translate(-84.2109375, 84)"/><g class="divider" style=""><path d="M-96.2109375 -12 C-56.616004653903666 -11.999794228526014, -17.02107180780733 -11.999588457052026, 96.2109375 -11.999 M-96.2109375 -12 C-53.68812601875487 -11.99977901259157, -11.165314537509744 -11.999558025183143, 96.2109375 -11.999" stroke="#9370DB" stroke-width="1.3" fill="none" stroke-dasharray="0 0" style=""/></g><g class="divider" style=""><path d="M-96.2109375 60 C-54.907807887789154 60.000214648826244, -13.604678275578308 60.00042929765249, 96.2109375 60.001 M-96.2109375 60 C-25.5395714591684 60.000367273035046, 45.1317945816632 60.00073454607009, 96.2109375 60.001" stroke="#9370DB" stroke-width="1.3" fill="none" stroke-dasharray="0 0" style=""/></g></g><g class="node default" id="my-svg-classId-Patient-1" data-look="classic" transform="translate(529.197265625, 310)"><g class="basic label-container outer-path"><path d="M-89.06640625 -60 L89.06640625 -60 L89.06640625 60 L-89.06640625 60" stroke="none" stroke-width="0" fill="#ECECFF" style=""/><path d="M-89.06640625 -60 C-41.70488301513759 -60, 5.656640219724821 -60, 89.06640625 -60 M-89.06640625 -60 C-41.19585769021568 -60, 6.674690869568636 -60, 89.06640625 -60 M89.06640625 -60 C89.06640625 -20.231289328501987, 89.06640625 19.537421342996026, 89.06640625 60 M89.06640625 -60 C89.06640625 -29.824930879554685, 89.06640625 0.3501382408906295, 89.06640625 60 M89.06640625 60 C24.443240105469087 60, -40.179926039061826 60, -89.06640625 60 M89.06640625 60 C37.0139083276871 60, -15.038589594625805 60, -89.06640625 60 M-89.06640625 60 C-89.06640625 34.124700697354406, -89.06640625 8.249401394708812, -89.06640625 -60 M-89.06640625 60 C-89.06640625 24.644095887779002, -89.06640625 -10.711808224441995, -89.06640625 -60" stroke="#9370DB" stroke-width="1.3" fill="none" stroke-dasharray="0 0" style=""/></g><g class="annotation-group text" transform="translate(0, -36)"/><g class="label-group text" transform="translate(-26.6328125, -36)"><g class="label" style="font-weight: bolder" transform="translate(0,-12)"><foreignObject width="53.265625" height="24"><div xmlns="http://www.w3.org/1999/xhtml" style="display: table-cell; white-space: nowrap; line-height: 1.5; max-width: 94px; text-align: center;"><span class="nodeLabel markdown-node-label" style=""><p>Patient</p></span></div></foreignObject></g></g><g class="members-group text" transform="translate(-77.06640625, 12)"><g class="label" style="" transform="translate(0,-12)"><foreignObject width="127.5" height="24"><div xmlns="http://www.w3.org/1999/xhtml" style="display: table-cell; white-space: nowrap; line-height: 1.5; max-width: 175px; text-align: center;"><span class="nodeLabel markdown-node-label" style=""><p>+String bloodType</p></span></div></foreignObject></g></g><g class="methods-group text" transform="translate(-77.06640625, 60)"/><g class="divider" style=""><path d="M-89.06640625 -12 C-49.77861190716032 -11.999779446617435, -10.490817564320636 -11.999558893234868, 89.06640625 -11.999 M-89.06640625 -12 C-38.464815689335076 -11.999715933354162, 12.136774871329848 -11.999431866708322, 89.06640625 -11.999" stroke="#9370DB" stroke-width="1.3" fill="none" stroke-dasharray="0 0" style=""/></g><g class="divider" style=""><path d="M-89.06640625 36 C-37.18283557856675 36.00029126341151, 14.700735092866495 36.00058252682303, 89.06640625 36.001 M-89.06640625 36 C-52.37582616422065 36.000205973170075, -15.685246078441295 36.00041194634016, 89.06640625 36.001" stroke="#9370DB" stroke-width="1.3" fill="none" stroke-dasharray="0 0" style=""/></g></g><g class="node default" id="my-svg-classId-Doctor-2" data-look="classic" transform="translate(130.15234375, 310)"><g class="basic label-container outer-path"><path d="M-36.8828125 -42 L36.8828125 -42 L36.8828125 42 L-36.8828125 42" stroke="none" stroke-width="0" fill="#ECECFF" style=""/><path d="M-36.8828125 -42 C-16.866775150428822 -42, 3.149262199142356 -42, 36.8828125 -42 M-36.8828125 -42 C-15.551831630132696 -42, 5.779149239734608 -42, 36.8828125 -42 M36.8828125 -42 C36.8828125 -20.383588611204893, 36.8828125 1.232822777590215, 36.8828125 42 M36.8828125 -42 C36.8828125 -8.93690438489837, 36.8828125 24.12619123020326, 36.8828125 42 M36.8828125 42 C12.749773190609684 42, -11.383266118780632 42, -36.8828125 42 M36.8828125 42 C21.959747619082936 42, 7.036682738165872 42, -36.8828125 42 M-36.8828125 42 C-36.8828125 15.40054468502996, -36.8828125 -11.19891062994008, -36.8828125 -42 M-36.8828125 42 C-36.8828125 15.826539369219237, -36.8828125 -10.346921261561526, -36.8828125 -42" stroke="#9370DB" stroke-width="1.3" fill="none" stroke-dasharray="0 0" style=""/></g><g class="annotation-group text" transform="translate(0, -18)"/><g class="label-group text" transform="translate(-24.8828125, -18)"><g class="label" style="font-weight: bolder" transform="translate(0,-12)"><foreignObject width="49.765625" height="24"><div xmlns="http://www.w3.org/1999/xhtml" style="display: table-cell; white-space: nowrap; line-height: 1.5; max-width: 95px; text-align: center;"><span class="nodeLabel markdown-node-label" style=""><p>Doctor</p></span></div></foreignObject></g></g><g class="members-group text" transform="translate(-24.8828125, 30)"/><g class="methods-group text" transform="translate(-24.8828125, 60)"/><g class="divider" style=""><path d="M-36.8828125 6 C-12.049022055443231 6.0003366580361055, 12.784768389113538 6.00067331607221, 36.8828125 6.001 M-36.8828125 6 C-19.411604001788415 6.00023684756278, -1.9403955035768305 6.000473695125561, 36.8828125 6.001" stroke="#9370DB" stroke-width="1.3" fill="none" stroke-dasharray="0 0" style=""/></g><g class="divider" style=""><path d="M-36.8828125 24 C-16.78727238868945 24.00027242418283, 3.3082677226211032 24.000544848365653, 36.8828125 24.001 M-36.8828125 24 C-12.469060687414796 24.00033096380343, 11.944691125170408 24.000661927606867, 36.8828125 24.001" stroke="#9370DB" stroke-width="1.3" fill="none" stroke-dasharray="0 0" style=""/></g></g><g class="node default" id="my-svg-classId-Nurse-3" data-look="classic" transform="translate(274.896484375, 644)"><g class="basic label-container outer-path"><path d="M-33.53125 -42 L33.53125 -42 L33.53125 42 L-33.53125 42" stroke="none" stroke-width="0" fill="#ECECFF" style=""/><path d="M-33.53125 -42 C-13.614243092287037 -42, 6.3027638154259265 -42, 33.53125 -42 M-33.53125 -42 C-12.980213756789976 -42, 7.570822486420049 -42, 33.53125 -42 M33.53125 -42 C33.53125 -21.21180033801359, 33.53125 -0.42360067602717777, 33.53125 42 M33.53125 -42 C33.53125 -17.684983812478535, 33.53125 6.63003237504293, 33.53125 42 M33.53125 42 C10.210285167724976 42, -13.110679664550048 42, -33.53125 42 M33.53125 42 C11.167910061098478 42, -11.195429877803043 42, -33.53125 42 M-33.53125 42 C-33.53125 17.70097645432203, -33.53125 -6.598047091355937, -33.53125 -42 M-33.53125 42 C-33.53125 19.699857107720074, -33.53125 -2.6002857845598513, -33.53125 -42" stroke="#9370DB" stroke-width="1.3" fill="none" stroke-dasharray="0 0" style=""/></g><g class="annotation-group text" transform="translate(0, -18)"/><g class="label-group text" transform="translate(-21.53125, -18)"><g class="label" style="font-weight: bolder" transform="translate(0,-12)"><foreignObject width="43.0625" height="24"><div xmlns="http://www.w3.org/1999/xhtml" style="display: table-cell; white-space: nowrap; line-height: 1.5; max-width: 88px; text-align: center;"><span class="nodeLabel markdown-node-label" style=""><p>Nurse</p></span></div></foreignObject></g></g><g class="members-group text" transform="translate(-21.53125, 30)"/><g class="methods-group text" transform="translate(-21.53125, 60)"/><g class="divider" style=""><path d="M-33.53125 6 C-9.523358066823121 6.000357992796767, 14.484533866353758 6.000715985593534, 33.53125 6.001 M-33.53125 6 C-16.114702386126687 6.0002597062085945, 1.3018452277466253 6.000519412417189, 33.53125 6.001" stroke="#9370DB" stroke-width="1.3" fill="none" stroke-dasharray="0 0" style=""/></g><g class="divider" style=""><path d="M-33.53125 24 C-17.570270685799386 24.000238001555477, -1.6092913715987756 24.000476003110954, 33.53125 24.001 M-33.53125 24 C-17.70750952730006 24.000235955123546, -1.8837690546001191 24.00047191024709, 33.53125 24.001" stroke="#9370DB" stroke-width="1.3" fill="none" stroke-dasharray="0 0" style=""/></g></g><g class="node default" id="my-svg-classId-Ward-4" data-look="classic" transform="translate(529.197265625, 486)"><g class="basic label-container outer-path"><path d="M-31.1015625 -42 L31.1015625 -42 L31.1015625 42 L-31.1015625 42" stroke="none" stroke-width="0" fill="#ECECFF" style=""/><path d="M-31.1015625 -42 C-15.878991107186781 -42, -0.6564197143735626 -42, 31.1015625 -42 M-31.1015625 -42 C-9.315953209863736 -42, 12.469656080272529 -42, 31.1015625 -42 M31.1015625 -42 C31.1015625 -20.925244291321203, 31.1015625 0.1495114173575942, 31.1015625 42 M31.1015625 -42 C31.1015625 -17.449333725707252, 31.1015625 7.101332548585496, 31.1015625 42 M31.1015625 42 C17.392153807925617 42, 3.682745115851233 42, -31.1015625 42 M31.1015625 42 C16.346593932575768 42, 1.5916253651515362 42, -31.1015625 42 M-31.1015625 42 C-31.1015625 13.352077400595888, -31.1015625 -15.295845198808223, -31.1015625 -42 M-31.1015625 42 C-31.1015625 24.917543490537536, -31.1015625 7.835086981075072, -31.1015625 -42" stroke="#9370DB" stroke-width="1.3" fill="none" stroke-dasharray="0 0" style=""/></g><g class="annotation-group text" transform="translate(0, -18)"/><g class="label-group text" transform="translate(-19.1015625, -18)"><g class="label" style="font-weight: bolder" transform="translate(0,-12)"><foreignObject width="38.203125" height="24"><div xmlns="http://www.w3.org/1999/xhtml" style="display: table-cell; white-space: nowrap; line-height: 1.5; max-width: 84px; text-align: center;"><span class="nodeLabel markdown-node-label" style=""><p>Ward</p></span></div></foreignObject></g></g><g class="members-group text" transform="translate(-19.1015625, 30)"/><g class="methods-group text" transform="translate(-19.1015625, 60)"/><g class="divider" style=""><path d="M-31.1015625 6 C-14.343813698791031 6.000269403648148, 2.4139351024179376 6.000538807296296, 31.1015625 6.001 M-31.1015625 6 C-13.106938486372691 6.000289288102706, 4.887685527254618 6.000578576205412, 31.1015625 6.001" stroke="#9370DB" stroke-width="1.3" fill="none" stroke-dasharray="0 0" style=""/></g><g class="divider" style=""><path d="M-31.1015625 24 C-10.606189605602342 24.00032949104879, 9.889183288795316 24.000658982097583, 31.1015625 24.001 M-31.1015625 24 C-12.83467103949473 24.00029366517294, 5.432220421010541 24.00058733034588, 31.1015625 24.001" stroke="#9370DB" stroke-width="1.3" fill="none" stroke-dasharray="0 0" style=""/></g></g><g class="node default" id="my-svg-classId-Appointment-5" data-look="classic" transform="translate(310.984375, 92)"><g class="basic label-container outer-path"><path d="M-60.5625 -42 L60.5625 -42 L60.5625 42 L-60.5625 42" stroke="none" stroke-width="0" fill="#ECECFF" style=""/><path d="M-60.5625 -42 C-19.857986354622106 -42, 20.846527290755787 -42, 60.5625 -42 M-60.5625 -42 C-27.58724119158299 -42, 5.38801761683402 -42, 60.5625 -42 M60.5625 -42 C60.5625 -9.244916638959928, 60.5625 23.510166722080143, 60.5625 42 M60.5625 -42 C60.5625 -24.051678712765167, 60.5625 -6.103357425530334, 60.5625 42 M60.5625 42 C34.77282641175763 42, 8.983152823515255 42, -60.5625 42 M60.5625 42 C34.585296830280384 42, 8.608093660560762 42, -60.5625 42 M-60.5625 42 C-60.5625 18.551379023924873, -60.5625 -4.897241952150253, -60.5625 -42 M-60.5625 42 C-60.5625 18.275286601420934, -60.5625 -5.449426797158132, -60.5625 -42" stroke="#9370DB" stroke-width="1.3" fill="none" stroke-dasharray="0 0" style=""/></g><g class="annotation-group text" transform="translate(0, -18)"/><g class="label-group text" transform="translate(-48.5625, -18)"><g class="label" style="font-weight: bolder" transform="translate(0,-12)"><foreignObject width="97.125" height="24"><div xmlns="http://www.w3.org/1999/xhtml" style="display: table-cell; white-space: nowrap; line-height: 1.5; max-width: 134px; text-align: center;"><span class="nodeLabel markdown-node-label" style=""><p>Appointment</p></span></div></foreignObject></g></g><g class="members-group text" transform="translate(-48.5625, 30)"/><g class="methods-group text" transform="translate(-48.5625, 60)"/><g class="divider" style=""><path d="M-60.5625 6 C-34.88703313474448 6.00021197495864, -9.211566269488955 6.00042394991728, 60.5625 6.001 M-60.5625 6 C-15.89100034563998 6.000368804950707, 28.78049930872004 6.000737609901414, 60.5625 6.001" stroke="#9370DB" stroke-width="1.3" fill="none" stroke-dasharray="0 0" style=""/></g><g class="divider" style=""><path d="M-60.5625 24 C-13.208895285256396 24.00039094823294, 34.14470942948721 24.000781896465877, 60.5625 24.001 M-60.5625 24 C-13.076564636661324 24.000392040746036, 34.40937072667735 24.000784081492068, 60.5625 24.001" stroke="#9370DB" stroke-width="1.3" fill="none" stroke-dasharray="0 0" style=""/></g></g><g class="node default" id="my-svg-classId-TreatmentStep-6" data-look="classic" transform="translate(310.984375, 310)"><g class="basic label-container outer-path"><path d="M-67.4140625 -42 L67.4140625 -42 L67.4140625 42 L-67.4140625 42" stroke="none" stroke-width="0" fill="#ECECFF" style=""/><path d="M-67.4140625 -42 C-39.865279429087714 -42, -12.316496358175428 -42, 67.4140625 -42 M-67.4140625 -42 C-19.915502590229366 -42, 27.58305731954127 -42, 67.4140625 -42 M67.4140625 -42 C67.4140625 -20.608487041324057, 67.4140625 0.7830259173518854, 67.4140625 42 M67.4140625 -42 C67.4140625 -17.59631949737877, 67.4140625 6.807361005242463, 67.4140625 42 M67.4140625 42 C29.18702145493372 42, -9.040019590132559 42, -67.4140625 42 M67.4140625 42 C31.02146136329995 42, -5.3711397734001025 42, -67.4140625 42 M-67.4140625 42 C-67.4140625 14.47916437483698, -67.4140625 -13.04167125032604, -67.4140625 -42 M-67.4140625 42 C-67.4140625 22.13455610381064, -67.4140625 2.2691122076212835, -67.4140625 -42" stroke="#9370DB" stroke-width="1.3" fill="none" stroke-dasharray="0 0" style=""/></g><g class="annotation-group text" transform="translate(0, -18)"/><g class="label-group text" transform="translate(-55.4140625, -18)"><g class="label" style="font-weight: bolder" transform="translate(0,-12)"><foreignObject width="110.828125" height="24"><div xmlns="http://www.w3.org/1999/xhtml" style="display: table-cell; white-space: nowrap; line-height: 1.5; max-width: 144px; text-align: center;"><span class="nodeLabel markdown-node-label" style=""><p>TreatmentStep</p></span></div></foreignObject></g></g><g class="members-group text" transform="translate(-55.4140625, 30)"/><g class="methods-group text" transform="translate(-55.4140625, 60)"/><g class="divider" style=""><path d="M-67.4140625 6 C-33.3691220906715 6.000252506221601, 0.6758183186569937 6.0005050124432024, 67.4140625 6.001 M-67.4140625 6 C-21.838354282474974 6.000338028198623, 23.737353935050052 6.000676056397247, 67.4140625 6.001" stroke="#9370DB" stroke-width="1.3" fill="none" stroke-dasharray="0 0" style=""/></g><g class="divider" style=""><path d="M-67.4140625 24 C-14.3768388179896 24.000393369140763, 38.6603848640208 24.000786738281526, 67.4140625 24.001 M-67.4140625 24 C-39.40168796818567 24.000207763584427, -11.389313436371346 24.000415527168858, 67.4140625 24.001" stroke="#9370DB" stroke-width="1.3" fill="none" stroke-dasharray="0 0" style=""/></g></g></g></g></g><defs><filter id="my-svg-drop-shadow" height="130%" width="130%"><feDropShadow dx="4" dy="4" stdDeviation="0" flood-opacity="0.06" flood-color="#000000"/></filter></defs><defs><filter id="my-svg-drop-shadow-small" height="150%" width="150%"><feDropShadow dx="2" dy="2" stdDeviation="0" flood-opacity="0.06" flood-color="#000000"/></filter></defs></svg>