<svg xmlns="http://www.w3.org/2000/svg" xmlns:xlink="http://www.w3.org/1999/xlink" contentStyleType="text/css" data-diagram-type="CLASS" height="634px" preserveAspectRatio="none" style="width:424px;height:634px;background:#FFFFFF;" version="1.1" viewBox="0 0 424 634" width="424px" zoomAndPan="magnify"><?plantuml 1.2026.6?><defs/><g><!--class Person--><g class="entity" data-qualified-name="Person" data-source-line="1" id="ent0001"><rect fill="#F1F1F1" height="80.9766" rx="2.5" ry="2.5" style="stroke:#181818;stroke-width:0.5;" width="143.4688" x="45.5" y="538.48"/><ellipse cx="90.1387" cy="554.48" fill="#A9DCDF" rx="11" ry="11" style="stroke:#181818;stroke-width:1;"/><path d="M90.002,549.8281 L88.8481,554.8999 L91.1641,554.8999 Z M88.5078,547.5869 L91.5044,547.5869 L94.8496,559.98 L92.4009,559.98 L91.6372,556.917 L88.3584,556.917 L87.6113,559.98 L85.1626,559.98 Z " fill="#000000"/><text fill="#000000" font-family="sans-serif" font-size="14" font-style="italic" lengthAdjust="spacing" textLength="45.6914" x="110.6387" y="559.771">Person</text><line style="stroke:#181818;stroke-width:0.5;" x1="46.5" x2="187.9688" y1="570.48" y2="570.48"/><g data-visibility-modifier="PUBLIC_FIELD"><ellipse cx="56.5" cy="584.2241" fill="none" rx="3" ry="3" style="stroke:#038048;stroke-width:1;"/></g><text fill="#000000" font-family="sans-serif" font-size="14" lengthAdjust="spacing" textLength="86.1191" x="65.5" y="588.0152">name: String</text><g data-visibility-modifier="PUBLIC_FIELD"><ellipse cx="56.5" cy="600.7124" fill="none" rx="3" ry="3" style="stroke:#038048;stroke-width:1;"/></g><text fill="#000000" font-family="sans-serif" font-size="14" lengthAdjust="spacing" textLength="117.4688" x="65.5" y="604.5034">dateOfBirth: Date</text><line style="stroke:#181818;stroke-width:0.5;" x1="46.5" x2="187.9688" y1="611.4566" y2="611.4566"/></g><!--class Patient--><g class="entity" data-qualified-name="Patient" data-source-line="6" id="ent0002"><rect fill="#F1F1F1" height="64.4883" rx="2.5" ry="2.5" style="stroke:#181818;stroke-width:0.5;" width="146.4766" x="7" y="132"/><ellipse cx="52.7495" cy="148" fill="#ADD1B2" rx="11" ry="11" style="stroke:#181818;stroke-width:1;"/><path d="M55.2227,154.1431 Q54.6416,154.4419 54.0024,154.5913 Q53.3633,154.7407 52.6577,154.7407 Q50.1509,154.7407 48.8311,153.0889 Q47.5112,151.437 47.5112,148.3159 Q47.5112,145.1865 48.8311,143.5347 Q50.1509,141.8828 52.6577,141.8828 Q53.3633,141.8828 54.0107,142.0322 Q54.6582,142.1816 55.2227,142.4805 L55.2227,145.2031 Q54.5918,144.6221 53.9983,144.3523 Q53.4048,144.0825 52.7739,144.0825 Q51.4292,144.0825 50.7444,145.1492 Q50.0596,146.2158 50.0596,148.3159 Q50.0596,150.4077 50.7444,151.4744 Q51.4292,152.541 52.7739,152.541 Q53.4048,152.541 53.9983,152.2712 Q54.5918,152.0015 55.2227,151.4204 Z " fill="#000000"/><text fill="#000000" font-family="sans-serif" font-size="14" lengthAdjust="spacing" textLength="46.4775" x="73.2495" y="153.291">Patient</text><line style="stroke:#181818;stroke-width:0.5;" x1="8" x2="152.4766" y1="164" y2="164"/><g data-visibility-modifier="PUBLIC_FIELD"><ellipse cx="18" cy="177.7441" fill="none" rx="3" ry="3" style="stroke:#038048;stroke-width:1;"/></g><text fill="#000000" font-family="sans-serif" font-size="14" lengthAdjust="spacing" textLength="120.4766" x="27" y="181.5352">bloodType: String</text><line style="stroke:#181818;stroke-width:0.5;" x1="8" x2="152.4766" y1="188.4883" y2="188.4883"/></g><!--class Doctor--><g class="entity" data-qualified-name="Doctor" data-source-line="10" id="ent0003"><rect fill="#F1F1F1" height="48" rx="2.5" ry="2.5" style="stroke:#181818;stroke-width:0.5;" width="77.8213" x="167.33" y="226.48"/><ellipse cx="182.33" cy="242.48" fill="#ADD1B2" rx="11" ry="11" style="stroke:#181818;stroke-width:1;"/><path d="M184.8031,248.6231 Q184.2221,248.9219 183.5829,249.0713 Q182.9438,249.2207 182.2382,249.2207 Q179.7314,249.2207 178.4115,247.5689 Q177.0917,245.917 177.0917,242.7959 Q177.0917,239.6665 178.4115,238.0147 Q179.7314,236.3628 182.2382,236.3628 Q182.9438,236.3628 183.5912,236.5122 Q184.2387,236.6616 184.8031,236.9605 L184.8031,239.6831 Q184.1723,239.1021 183.5788,238.8323 Q182.9853,238.5625 182.3544,238.5625 Q181.0097,238.5625 180.3249,239.6292 Q179.6401,240.6958 179.6401,242.7959 Q179.6401,244.8877 180.3249,245.9544 Q181.0097,247.021 182.3544,247.021 Q182.9853,247.021 183.5788,246.7512 Q184.1723,246.4815 184.8031,245.9004 Z " fill="#000000"/><text fill="#000000" font-family="sans-serif" font-size="14" lengthAdjust="spacing" textLength="45.8213" x="196.33" y="247.771">Doctor</text><line style="stroke:#181818;stroke-width:0.5;" x1="168.33" x2="244.1513" y1="258.48" y2="258.48"/><line style="stroke:#181818;stroke-width:0.5;" x1="168.33" x2="244.1513" y1="266.48" y2="266.48"/></g><!--class Nurse--><g class="entity" data-qualified-name="Nurse" data-source-line="11" id="ent0004"><rect fill="#F1F1F1" height="48" rx="2.5" ry="2.5" style="stroke:#181818;stroke-width:0.5;" width="71.6963" x="81.39" y="429.48"/><ellipse cx="96.39" cy="445.48" fill="#ADD1B2" rx="11" ry="11" style="stroke:#181818;stroke-width:1;"/><path d="M98.8631,451.6231 Q98.2821,451.9219 97.6429,452.0713 Q97.0038,452.2207 96.2982,452.2207 Q93.7914,452.2207 92.4715,450.5689 Q91.1517,448.917 91.1517,445.7959 Q91.1517,442.6665 92.4715,441.0147 Q93.7914,439.3628 96.2982,439.3628 Q97.0038,439.3628 97.6512,439.5122 Q98.2987,439.6616 98.8631,439.9605 L98.8631,442.6831 Q98.2323,442.1021 97.6388,441.8323 Q97.0453,441.5625 96.4144,441.5625 Q95.0697,441.5625 94.3849,442.6292 Q93.7001,443.6958 93.7001,445.7959 Q93.7001,447.8877 94.3849,448.9544 Q95.0697,450.021 96.4144,450.021 Q97.0453,450.021 97.6388,449.7512 Q98.2323,449.4815 98.8631,448.9004 Z " fill="#000000"/><text fill="#000000" font-family="sans-serif" font-size="14" lengthAdjust="spacing" textLength="39.6963" x="110.39" y="450.771">Nurse</text><line style="stroke:#181818;stroke-width:0.5;" x1="82.39" x2="152.0863" y1="461.48" y2="461.48"/><line style="stroke:#181818;stroke-width:0.5;" x1="82.39" x2="152.0863" y1="469.48" y2="469.48"/></g><!--class Ward--><g class="entity" data-qualified-name="Ward" data-source-line="13" id="ent0005"><rect fill="#F1F1F1" height="48" rx="2.5" ry="2.5" style="stroke:#181818;stroke-width:0.5;" width="66.248" x="82.11" y="304.48"/><ellipse cx="97.11" cy="320.48" fill="#ADD1B2" rx="11" ry="11" style="stroke:#181818;stroke-width:1;"/><path d="M99.5831,326.6231 Q99.0021,326.9219 98.3629,327.0713 Q97.7238,327.2207 97.0182,327.2207 Q94.5114,327.2207 93.1915,325.5689 Q91.8717,323.917 91.8717,320.7959 Q91.8717,317.6665 93.1915,316.0147 Q94.5114,314.3628 97.0182,314.3628 Q97.7238,314.3628 98.3712,314.5122 Q99.0187,314.6616 99.5831,314.9605 L99.5831,317.6831 Q98.9523,317.1021 98.3588,316.8323 Q97.7653,316.5625 97.1344,316.5625 Q95.7897,316.5625 95.1049,317.6292 Q94.4201,318.6958 94.4201,320.7959 Q94.4201,322.8877 95.1049,323.9544 Q95.7897,325.021 97.1344,325.021 Q97.7653,325.021 98.3588,324.7512 Q98.9523,324.4815 99.5831,323.9004 Z " fill="#000000"/><text fill="#000000" font-family="sans-serif" font-size="14" lengthAdjust="spacing" textLength="34.248" x="111.11" y="325.771">Ward</text><line style="stroke:#181818;stroke-width:0.5;" x1="83.11" x2="147.358" y1="336.48" y2="336.48"/><line style="stroke:#181818;stroke-width:0.5;" x1="83.11" x2="147.358" y1="344.48" y2="344.48"/></g><!--class Appointment--><g class="entity" data-qualified-name="Appointment" data-source-line="14" id="ent0006"><rect fill="#F1F1F1" height="48" rx="2.5" ry="2.5" style="stroke:#181818;stroke-width:0.5;" width="120.6484" x="145.91" y="7"/><ellipse cx="160.91" cy="23" fill="#ADD1B2" rx="11" ry="11" style="stroke:#181818;stroke-width:1;"/><path d="M163.3831,29.1431 Q162.8021,29.4419 162.1629,29.5913 Q161.5238,29.7407 160.8182,29.7407 Q158.3114,29.7407 156.9915,28.0889 Q155.6717,26.437 155.6717,23.3159 Q155.6717,20.1865 156.9915,18.5347 Q158.3114,16.8828 160.8182,16.8828 Q161.5238,16.8828 162.1712,17.0322 Q162.8187,17.1816 163.3831,17.4805 L163.3831,20.2031 Q162.7523,19.6221 162.1588,19.3523 Q161.5653,19.0825 160.9344,19.0825 Q159.5897,19.0825 158.9049,20.1492 Q158.2201,21.2158 158.2201,23.3159 Q158.2201,25.4077 158.9049,26.4744 Q159.5897,27.541 160.9344,27.541 Q161.5653,27.541 162.1588,27.2712 Q162.7523,27.0015 163.3831,26.4204 Z " fill="#000000"/><text fill="#000000" font-family="sans-serif" font-size="14" lengthAdjust="spacing" textLength="88.6484" x="174.91" y="28.291">Appointment</text><line style="stroke:#181818;stroke-width:0.5;" x1="146.91" x2="265.5584" y1="39" y2="39"/><line style="stroke:#181818;stroke-width:0.5;" x1="146.91" x2="265.5584" y1="47" y2="47"/></g><!--class TreatmentStep--><g class="entity" data-qualified-name="TreatmentStep" data-source-line="15" id="ent0007"><rect fill="#F1F1F1" height="64.4883" rx="2.5" ry="2.5" style="stroke:#181818;stroke-width:0.5;" width="150.9063" x="258.79" y="132"/><ellipse cx="282.5087" cy="148" fill="#ADD1B2" rx="11" ry="11" style="stroke:#181818;stroke-width:1;"/><path d="M284.9819,154.1431 Q284.4008,154.4419 283.7617,154.5913 Q283.1225,154.7407 282.417,154.7407 Q279.9101,154.7407 278.5903,153.0889 Q277.2705,151.437 277.2705,148.3159 Q277.2705,145.1865 278.5903,143.5347 Q279.9101,141.8828 282.417,141.8828 Q283.1225,141.8828 283.77,142.0322 Q284.4174,142.1816 284.9819,142.4805 L284.9819,145.2031 Q284.351,144.6221 283.7575,144.3523 Q283.164,144.0825 282.5332,144.0825 Q281.1884,144.0825 280.5036,145.1492 Q279.8188,146.2158 279.8188,148.3159 Q279.8188,150.4077 280.5036,151.4744 Q281.1884,152.541 282.5332,152.541 Q283.164,152.541 283.7575,152.2712 Q284.351,152.0015 284.9819,151.4204 Z " fill="#000000"/><text fill="#000000" font-family="sans-serif" font-size="14" lengthAdjust="spacing" textLength="99.5313" x="298.4462" y="153.291">TreatmentStep</text><line style="stroke:#181818;stroke-width:0.5;" x1="259.79" x2="408.6962" y1="164" y2="164"/><g data-visibility-modifier="PUBLIC_FIELD"><ellipse cx="269.79" cy="177.7441" fill="none" rx="3" ry="3" style="stroke:#038048;stroke-width:1;"/></g><text fill="#000000" font-family="sans-serif" font-size="14" lengthAdjust="spacing" textLength="124.9063" x="278.79" y="181.5352">description: String</text><line style="stroke:#181818;stroke-width:0.5;" x1="259.79" x2="408.6962" y1="188.4883" y2="188.4883"/></g><!--reverse link Patient to Person--><g class="link" data-entity-1="ent0002" data-entity-2="ent0001" data-link-type="extension" data-source-line="19" id="lnk8"><path codeLine="19" d="M64.8585,213.9998 C62.1785,223.4698 64.58,216.64 63.24,226.48 C55.61,282.51 33.4,354.21 64.24,477.48 C69.55,498.72 80.22,520.44 90.6,538.22" fill="none" id="Patient-backto-Person" style="stroke:#181818;stroke-width:1;"/><polygon fill="none" points="69.76,196.68,59.0852,212.366,70.6318,215.6336,69.76,196.68" style="stroke:#181818;stroke-width:1;stroke-linejoin:miter;stroke-miterlimit:10;"/></g><!--reverse link Doctor to Person--><g class="link" data-entity-1="ent0003" data-entity-2="ent0001" data-link-type="extension" data-source-line="20" id="lnk9"><path codeLine="20" d="M203.9516,292.8346 C201.3316,334.5446 194.3,406.14 170.24,477.48 C163.18,498.42 152.15,520.27 141.98,538.23" fill="none" id="Doctor-backto-Person" style="stroke:#181818;stroke-width:1;"/><polygon fill="none" points="205.08,274.87,197.9634,292.4584,209.9398,293.2107,205.08,274.87" style="stroke:#181818;stroke-width:1;stroke-linejoin:miter;stroke-miterlimit:10;"/></g><!--reverse link Nurse to Person--><g class="link" data-entity-1="ent0004" data-entity-2="ent0001" data-link-type="extension" data-source-line="21" id="lnk10"><path codeLine="21" d="M117.24,495.71 C117.24,512.76 117.24,518.33 117.24,538.33" fill="none" id="Nurse-backto-Person" style="stroke:#181818;stroke-width:1;"/><polygon fill="none" points="117.24,477.71,111.24,495.71,123.24,495.71,117.24,477.71" style="stroke:#181818;stroke-width:1;stroke-linejoin:miter;stroke-miterlimit:10;"/></g><!--reverse link Ward to Nurse--><g class="link" data-entity-1="ent0005" data-entity-2="ent0004" data-link-type="composition" data-source-line="23" id="lnk11"><path codeLine="23" d="M115.8174,364.9084 C116.1774,386.7884 116.5,407.29 116.86,429.15" fill="none" id="Ward-backto-Nurse" style="stroke:#181818;stroke-width:1;"/><polygon fill="#181818" points="115.62,352.91,111.7192,358.975,115.8174,364.9084,119.7182,358.8434,115.62,352.91" style="stroke:#181818;stroke-width:1;stroke-linejoin:miter;stroke-miterlimit:10;"/><text fill="#000000" font-family="sans-serif" font-size="13" lengthAdjust="spacing" textLength="57.9224" x="117.36" y="396.0484">staffedBy</text><text fill="#000000" font-family="sans-serif" font-size="13" lengthAdjust="spacing" textLength="8.2202" x="106.8097" y="372.8981">1</text><text fill="#000000" font-family="sans-serif" font-size="13" lengthAdjust="spacing" textLength="22.7119" x="92.0356" y="418.6017">1..*</text></g><!--link Patient to Ward--><g class="link" data-entity-1="ent0002" data-entity-2="ent0005" data-link-type="association" data-source-line="25" id="lnk12"><path codeLine="25" d="M73.94,196.63 C70.77,218.89 69.11,249.2 77.24,274.48 C80.67,285.15 87.13,295.5 93.76,304.17" fill="none" id="Patient-Ward" style="stroke:#181818;stroke-width:1;"/><text fill="#000000" font-family="sans-serif" font-size="13" lengthAdjust="spacing" textLength="71.9951" x="78.24" y="255.5484">assignedTo</text><text fill="#000000" font-family="sans-serif" font-size="13" lengthAdjust="spacing" textLength="8.2202" x="63.9342" y="217.0815">1</text><text fill="#000000" font-family="sans-serif" font-size="13" lengthAdjust="spacing" textLength="8.2202" x="79.2605" y="293.6268">1</text></g><!--link Appointment to Patient--><g class="link" data-entity-1="ent0006" data-entity-2="ent0002" data-link-type="association" data-source-line="27" id="lnk13"><path codeLine="27" d="M145.47,54.23 C130.66,62.05 116,72.18 105.24,85 C94.23,98.1 88.05,116.11 84.59,131.55" fill="none" id="Appointment-Patient" style="stroke:#181818;stroke-width:1;"/><text fill="#000000" font-family="sans-serif" font-size="13" lengthAdjust="spacing" textLength="56.6274" x="106.24" y="98.5684">concerns</text><text fill="#000000" font-family="sans-serif" font-size="13" lengthAdjust="spacing" textLength="22.7119" x="115.2134" y="53.6351">0..*</text><text fill="#000000" font-family="sans-serif" font-size="13" lengthAdjust="spacing" textLength="8.2202" x="76.6809" y="121.2357">1</text></g><!--link Appointment to Doctor--><g class="link" data-entity-1="ent0006" data-entity-2="ent0003" data-link-type="association" data-source-line="28" id="lnk14"><path codeLine="28" d="M206.24,55.27 C206.24,97.02 206.24,184.18 206.24,226.05" fill="none" id="Appointment-Doctor" style="stroke:#181818;stroke-width:1;"/><text fill="#000000" font-family="sans-serif" font-size="13" lengthAdjust="spacing" textLength="50.8955" x="207.24" y="98.5684">involves</text><text fill="#000000" font-family="sans-serif" font-size="13" lengthAdjust="spacing" textLength="22.7119" x="181.6469" y="75.6201">0..*</text><text fill="#000000" font-family="sans-serif" font-size="13" lengthAdjust="spacing" textLength="8.2202" x="197.2917" y="215.8733">1</text></g><!--reverse link Appointment to TreatmentStep--><g class="link" data-entity-1="ent0006" data-entity-2="ent0007" data-link-type="composition" data-source-line="30" id="lnk15"><path codeLine="30" d="M243.169,63.1398 C253.529,72.1398 256.16,74.83 266.24,85 C280.81,99.69 296.02,116.97 308.34,131.55" fill="none" id="Appointment-backto-TreatmentStep" style="stroke:#181818;stroke-width:1;"/><polygon fill="#181818" points="234.11,55.27,236.0162,62.2246,243.169,63.1398,241.2628,56.1852,234.11,55.27" style="stroke:#181818;stroke-width:1;stroke-linejoin:miter;stroke-miterlimit:10;"/><text fill="#000000" font-family="sans-serif" font-size="13" lengthAdjust="spacing" textLength="69.8306" x="282.89" y="98.5684">documents</text><text fill="#000000" font-family="sans-serif" font-size="13" lengthAdjust="spacing" textLength="8.2202" x="231.9566" y="75.6201">1</text><text fill="#000000" font-family="sans-serif" font-size="13" lengthAdjust="spacing" textLength="22.7119" x="279.1448" y="121.2357">0..*</text></g><?plantuml-src VL31Ra8X4Bpp5HkEDffw9RtKU6wR-1BF2FiioPCbi9gOsdyl3tZLrqDlpEpCpYpwa3Xgms06dH9yO4pauKi0F7bzGWKxZiuVHsmrutk_SP4_5Mmp4Dz2D9jcXvwhxp0GsUuQxkPVtPOCKspWxHmJJfEzZhOzNqCWv_cK5pQcYwWBtZ666c8ncUW2E_AFCLEHbzjosOuHDNH6bUWP8yO28DSI5fcKwzLg8Mj3K91OzptQpVKUC2gBK9RgMPIBkgD7sv4G3oU0V2wxcdZoAp3a3KQV_X6tvWgSlz1mmVHdyzIsckQ_fC2IEOym_G00?></g></svg>