<svg xmlns="http://www.w3.org/2000/svg" xmlns:xlink="http://www.w3.org/1999/xlink" contentStyleType="text/css" data-diagram-type="CLASS" height="394px" preserveAspectRatio="none" style="width:2203px;height:394px;background:#FFFFFF;" version="1.1" viewBox="0 0 2203 394" width="2203px" zoomAndPan="magnify"><?plantuml 1.2026.6?><defs/><g><!--class Payload Instrument--><g class="entity" data-qualified-name="Payload Instrument" data-source-line="3" id="ent0001"><rect fill="#F1F1F1" height="48" rx="2.5" ry="2.5" style="stroke:#181818;stroke-width:0.5;" width="162.71" x="70.69" y="331"/><ellipse cx="85.69" cy="347" fill="#A9DCDF" rx="11" ry="11" style="stroke:#181818;stroke-width:1;"/><path d="M85.5533,342.3481 L84.3995,347.4199 L86.7154,347.4199 Z M84.0591,340.1069 L87.0557,340.1069 L90.4009,352.5 L87.9522,352.5 L87.1885,349.437 L83.9097,349.437 L83.1627,352.5 L80.7139,352.5 Z " fill="#000000"/><text fill="#000000" font-family="sans-serif" font-size="14" font-style="italic" lengthAdjust="spacing" textLength="130.71" x="99.69" y="352.291">Payload Instrument</text><line style="stroke:#181818;stroke-width:0.5;" x1="71.69" x2="232.4" y1="363" y2="363"/><line style="stroke:#181818;stroke-width:0.5;" x1="71.69" x2="232.4" y1="371" y2="371"/></g><!--class Optical Camera--><g class="entity" data-qualified-name="Optical Camera" data-source-line="4" id="ent0002"><rect fill="#F1F1F1" height="48" rx="2.5" ry="2.5" style="stroke:#181818;stroke-width:0.5;" width="136.0977" x="7" y="223"/><ellipse cx="22" cy="239" fill="#ADD1B2" rx="11" ry="11" style="stroke:#181818;stroke-width:1;"/><path d="M24.4731,245.1431 Q23.8921,245.4419 23.2529,245.5913 Q22.6138,245.7407 21.9082,245.7407 Q19.4014,245.7407 18.0815,244.0889 Q16.7617,242.437 16.7617,239.3159 Q16.7617,236.1865 18.0815,234.5347 Q19.4014,232.8828 21.9082,232.8828 Q22.6138,232.8828 23.2612,233.0322 Q23.9087,233.1816 24.4731,233.4805 L24.4731,236.2031 Q23.8423,235.6221 23.2488,235.3523 Q22.6553,235.0825 22.0244,235.0825 Q20.6797,235.0825 19.9949,236.1492 Q19.3101,237.2158 19.3101,239.3159 Q19.3101,241.4077 19.9949,242.4744 Q20.6797,243.541 22.0244,243.541 Q22.6553,243.541 23.2488,243.2712 Q23.8423,243.0015 24.4731,242.4204 Z " fill="#000000"/><text fill="#000000" font-family="sans-serif" font-size="14" lengthAdjust="spacing" textLength="104.0977" x="36" y="244.291">Optical Camera</text><line style="stroke:#181818;stroke-width:0.5;" x1="8" x2="142.0977" y1="255" y2="255"/><line style="stroke:#181818;stroke-width:0.5;" x1="8" x2="142.0977" y1="263" y2="263"/></g><!--class SAR Radar--><g class="entity" data-qualified-name="SAR Radar" data-source-line="5" id="ent0003"><rect fill="#F1F1F1" height="48" rx="2.5" ry="2.5" style="stroke:#181818;stroke-width:0.5;" width="101.3369" x="178.38" y="223"/><ellipse cx="193.38" cy="239" fill="#ADD1B2" rx="11" ry="11" style="stroke:#181818;stroke-width:1;"/><path d="M195.8531,245.1431 Q195.2721,245.4419 194.6329,245.5913 Q193.9938,245.7407 193.2882,245.7407 Q190.7814,245.7407 189.4615,244.0889 Q188.1417,242.437 188.1417,239.3159 Q188.1417,236.1865 189.4615,234.5347 Q190.7814,232.8828 193.2882,232.8828 Q193.9938,232.8828 194.6412,233.0322 Q195.2887,233.1816 195.8531,233.4805 L195.8531,236.2031 Q195.2223,235.6221 194.6288,235.3523 Q194.0353,235.0825 193.4044,235.0825 Q192.0597,235.0825 191.3749,236.1492 Q190.6901,237.2158 190.6901,239.3159 Q190.6901,241.4077 191.3749,242.4744 Q192.0597,243.541 193.4044,243.541 Q194.0353,243.541 194.6288,243.2712 Q195.2223,243.0015 195.8531,242.4204 Z " fill="#000000"/><text fill="#000000" font-family="sans-serif" font-size="14" lengthAdjust="spacing" textLength="69.3369" x="207.38" y="244.291">SAR Radar</text><line style="stroke:#181818;stroke-width:0.5;" x1="179.38" x2="278.7169" y1="255" y2="255"/><line style="stroke:#181818;stroke-width:0.5;" x1="179.38" x2="278.7169" y1="263" y2="263"/></g><!--class Satellite--><g class="entity" data-qualified-name="Satellite" data-source-line="7" id="ent0004"><rect fill="#F1F1F1" height="48" rx="2.5" ry="2.5" style="stroke:#181818;stroke-width:0.5;" width="85.4844" x="992.31" y="7"/><ellipse cx="1007.31" cy="23" fill="#ADD1B2" rx="11" ry="11" style="stroke:#181818;stroke-width:1;"/><path d="M1009.7831,29.1431 Q1009.2021,29.4419 1008.5629,29.5913 Q1007.9238,29.7407 1007.2182,29.7407 Q1004.7114,29.7407 1003.3915,28.0889 Q1002.0717,26.437 1002.0717,23.3159 Q1002.0717,20.1865 1003.3915,18.5347 Q1004.7114,16.8828 1007.2182,16.8828 Q1007.9238,16.8828 1008.5712,17.0322 Q1009.2187,17.1816 1009.7831,17.4805 L1009.7831,20.2031 Q1009.1523,19.6221 1008.5588,19.3523 Q1007.9653,19.0825 1007.3344,19.0825 Q1005.9897,19.0825 1005.3049,20.1492 Q1004.6201,21.2158 1004.6201,23.3159 Q1004.6201,25.4077 1005.3049,26.4744 Q1005.9897,27.541 1007.3344,27.541 Q1007.9653,27.541 1008.5588,27.2712 Q1009.1523,27.0015 1009.7831,26.4204 Z " fill="#000000"/><text fill="#000000" font-family="sans-serif" font-size="14" lengthAdjust="spacing" textLength="53.4844" x="1021.31" y="28.291">Satellite</text><line style="stroke:#181818;stroke-width:0.5;" x1="993.31" x2="1076.7944" y1="39" y2="39"/><line style="stroke:#181818;stroke-width:0.5;" x1="993.31" x2="1076.7944" y1="47" y2="47"/></g><!--class Payload Subsystem--><g class="entity" data-qualified-name="Payload Subsystem" data-source-line="9" id="ent0005"><rect fill="#F1F1F1" height="48" rx="2.5" ry="2.5" style="stroke:#181818;stroke-width:0.5;" width="161.1377" x="148.48" y="115"/><ellipse cx="163.48" cy="131" fill="#ADD1B2" rx="11" ry="11" style="stroke:#181818;stroke-width:1;"/><path d="M165.9531,137.1431 Q165.3721,137.4419 164.7329,137.5913 Q164.0938,137.7407 163.3882,137.7407 Q160.8814,137.7407 159.5615,136.0889 Q158.2417,134.437 158.2417,131.3159 Q158.2417,128.1865 159.5615,126.5347 Q160.8814,124.8828 163.3882,124.8828 Q164.0938,124.8828 164.7412,125.0322 Q165.3887,125.1816 165.9531,125.4805 L165.9531,128.2031 Q165.3223,127.6221 164.7288,127.3523 Q164.1353,127.0825 163.5044,127.0825 Q162.1597,127.0825 161.4749,128.1492 Q160.7901,129.2158 160.7901,131.3159 Q160.7901,133.4077 161.4749,134.4744 Q162.1597,135.541 163.5044,135.541 Q164.1353,135.541 164.7288,135.2712 Q165.3223,135.0015 165.9531,134.4204 Z " fill="#000000"/><text fill="#000000" font-family="sans-serif" font-size="14" lengthAdjust="spacing" textLength="129.1377" x="177.48" y="136.291">Payload Subsystem</text><line style="stroke:#181818;stroke-width:0.5;" x1="149.48" x2="308.6177" y1="147" y2="147"/><line style="stroke:#181818;stroke-width:0.5;" x1="149.48" x2="308.6177" y1="155" y2="155"/></g><!--class Structure and Thermal Control--><g class="entity" data-qualified-name="Structure and Thermal Control" data-source-line="10" id="ent0006"><rect fill="#F1F1F1" height="48" rx="2.5" ry="2.5" style="stroke:#181818;stroke-width:0.5;" width="238.8418" x="508.63" y="115"/><ellipse cx="523.63" cy="131" fill="#ADD1B2" rx="11" ry="11" style="stroke:#181818;stroke-width:1;"/><path d="M526.1031,137.1431 Q525.5221,137.4419 524.8829,137.5913 Q524.2438,137.7407 523.5382,137.7407 Q521.0314,137.7407 519.7115,136.0889 Q518.3917,134.437 518.3917,131.3159 Q518.3917,128.1865 519.7115,126.5347 Q521.0314,124.8828 523.5382,124.8828 Q524.2438,124.8828 524.8912,125.0322 Q525.5387,125.1816 526.1031,125.4805 L526.1031,128.2031 Q525.4723,127.6221 524.8788,127.3523 Q524.2853,127.0825 523.6544,127.0825 Q522.3097,127.0825 521.6249,128.1492 Q520.9401,129.2158 520.9401,131.3159 Q520.9401,133.4077 521.6249,134.4744 Q522.3097,135.541 523.6544,135.541 Q524.2853,135.541 524.8788,135.2712 Q525.4723,135.0015 526.1031,134.4204 Z " fill="#000000"/><text fill="#000000" font-family="sans-serif" font-size="14" lengthAdjust="spacing" textLength="206.8418" x="537.63" y="136.291">Structure and Thermal Control</text><line style="stroke:#181818;stroke-width:0.5;" x1="509.63" x2="746.4718" y1="147" y2="147"/><line style="stroke:#181818;stroke-width:0.5;" x1="509.63" x2="746.4718" y1="155" y2="155"/></g><!--class Electrical Power Supply--><g class="entity" data-qualified-name="Electrical Power Supply" data-source-line="11" id="ent0007"><rect fill="#F1F1F1" height="48" rx="2.5" ry="2.5" style="stroke:#181818;stroke-width:0.5;" width="187.292" x="941.4" y="115"/><ellipse cx="956.4" cy="131" fill="#ADD1B2" rx="11" ry="11" style="stroke:#181818;stroke-width:1;"/><path d="M958.8731,137.1431 Q958.2921,137.4419 957.6529,137.5913 Q957.0138,137.7407 956.3082,137.7407 Q953.8014,137.7407 952.4815,136.0889 Q951.1617,134.437 951.1617,131.3159 Q951.1617,128.1865 952.4815,126.5347 Q953.8014,124.8828 956.3082,124.8828 Q957.0138,124.8828 957.6612,125.0322 Q958.3087,125.1816 958.8731,125.4805 L958.8731,128.2031 Q958.2423,127.6221 957.6488,127.3523 Q957.0553,127.0825 956.4244,127.0825 Q955.0797,127.0825 954.3949,128.1492 Q953.7101,129.2158 953.7101,131.3159 Q953.7101,133.4077 954.3949,134.4744 Q955.0797,135.541 956.4244,135.541 Q957.0553,135.541 957.6488,135.2712 Q958.2423,135.0015 958.8731,134.4204 Z " fill="#000000"/><text fill="#000000" font-family="sans-serif" font-size="14" lengthAdjust="spacing" textLength="155.292" x="970.4" y="136.291">Electrical Power Supply</text><line style="stroke:#181818;stroke-width:0.5;" x1="942.4" x2="1127.692" y1="147" y2="147"/><line style="stroke:#181818;stroke-width:0.5;" x1="942.4" x2="1127.692" y1="155" y2="155"/></g><!--class Attitude and Orbit Control System--><g class="entity" data-qualified-name="Attitude and Orbit Control System" data-source-line="12" id="ent0008"><rect fill="#F1F1F1" height="48" rx="2.5" ry="2.5" style="stroke:#181818;stroke-width:0.5;" width="263.0479" x="1257.52" y="115"/><ellipse cx="1272.52" cy="131" fill="#ADD1B2" rx="11" ry="11" style="stroke:#181818;stroke-width:1;"/><path d="M1274.9931,137.1431 Q1274.4121,137.4419 1273.7729,137.5913 Q1273.1338,137.7407 1272.4282,137.7407 Q1269.9214,137.7407 1268.6015,136.0889 Q1267.2817,134.437 1267.2817,131.3159 Q1267.2817,128.1865 1268.6015,126.5347 Q1269.9214,124.8828 1272.4282,124.8828 Q1273.1338,124.8828 1273.7812,125.0322 Q1274.4287,125.1816 1274.9931,125.4805 L1274.9931,128.2031 Q1274.3623,127.6221 1273.7688,127.3523 Q1273.1753,127.0825 1272.5444,127.0825 Q1271.1997,127.0825 1270.5149,128.1492 Q1269.8301,129.2158 1269.8301,131.3159 Q1269.8301,133.4077 1270.5149,134.4744 Q1271.1997,135.541 1272.5444,135.541 Q1273.1753,135.541 1273.7688,135.2712 Q1274.3623,135.0015 1274.9931,134.4204 Z " fill="#000000"/><text fill="#000000" font-family="sans-serif" font-size="14" lengthAdjust="spacing" textLength="231.0479" x="1286.52" y="136.291">Attitude and Orbit Control System</text><line style="stroke:#181818;stroke-width:0.5;" x1="1258.52" x2="1519.5679" y1="147" y2="147"/><line style="stroke:#181818;stroke-width:0.5;" x1="1258.52" x2="1519.5679" y1="155" y2="155"/></g><!--class Telemetry, Tracking & Command--><g class="entity" data-qualified-name="Telemetry. Tracking . Command" data-source-line="13" id="ent0009"><rect fill="#F1F1F1" height="48" rx="2.5" ry="2.5" style="stroke:#181818;stroke-width:0.5;" width="255.918" x="1757.09" y="115"/><ellipse cx="1772.09" cy="131" fill="#ADD1B2" rx="11" ry="11" style="stroke:#181818;stroke-width:1;"/><path d="M1774.5631,137.1431 Q1773.9821,137.4419 1773.3429,137.5913 Q1772.7038,137.7407 1771.9982,137.7407 Q1769.4914,137.7407 1768.1715,136.0889 Q1766.8517,134.437 1766.8517,131.3159 Q1766.8517,128.1865 1768.1715,126.5347 Q1769.4914,124.8828 1771.9982,124.8828 Q1772.7038,124.8828 1773.3512,125.0322 Q1773.9987,125.1816 1774.5631,125.4805 L1774.5631,128.2031 Q1773.9323,127.6221 1773.3388,127.3523 Q1772.7453,127.0825 1772.1144,127.0825 Q1770.7697,127.0825 1770.0849,128.1492 Q1769.4001,129.2158 1769.4001,131.3159 Q1769.4001,133.4077 1770.0849,134.4744 Q1770.7697,135.541 1772.1144,135.541 Q1772.7453,135.541 1773.3388,135.2712 Q1773.9323,135.0015 1774.5631,134.4204 Z " fill="#000000"/><text fill="#000000" font-family="sans-serif" font-size="14" lengthAdjust="spacing" textLength="223.918" x="1786.09" y="136.291">Telemetry, Tracking &amp; Command</text><line style="stroke:#181818;stroke-width:0.5;" x1="1758.09" x2="2012.008" y1="147" y2="147"/><line style="stroke:#181818;stroke-width:0.5;" x1="1758.09" x2="2012.008" y1="155" y2="155"/></g><!--class Primary Structure--><g class="entity" data-qualified-name="Primary Structure" data-source-line="15" id="ent0010"><rect fill="#F1F1F1" height="48" rx="2.5" ry="2.5" style="stroke:#181818;stroke-width:0.5;" width="149.6055" x="314.25" y="223"/><ellipse cx="329.25" cy="239" fill="#ADD1B2" rx="11" ry="11" style="stroke:#181818;stroke-width:1;"/><path d="M331.7231,245.1431 Q331.1421,245.4419 330.5029,245.5913 Q329.8638,245.7407 329.1582,245.7407 Q326.6514,245.7407 325.3315,244.0889 Q324.0117,242.437 324.0117,239.3159 Q324.0117,236.1865 325.3315,234.5347 Q326.6514,232.8828 329.1582,232.8828 Q329.8638,232.8828 330.5112,233.0322 Q331.1587,233.1816 331.7231,233.4805 L331.7231,236.2031 Q331.0923,235.6221 330.4988,235.3523 Q329.9053,235.0825 329.2744,235.0825 Q327.9297,235.0825 327.2449,236.1492 Q326.5601,237.2158 326.5601,239.3159 Q326.5601,241.4077 327.2449,242.4744 Q327.9297,243.541 329.2744,243.541 Q329.9053,243.541 330.4988,243.2712 Q331.0923,243.0015 331.7231,242.4204 Z " fill="#000000"/><text fill="#000000" font-family="sans-serif" font-size="14" lengthAdjust="spacing" textLength="117.6055" x="343.25" y="244.291">Primary Structure</text><line style="stroke:#181818;stroke-width:0.5;" x1="315.25" x2="462.8555" y1="255" y2="255"/><line style="stroke:#181818;stroke-width:0.5;" x1="315.25" x2="462.8555" y1="263" y2="263"/></g><!--class Solar Panels--><g class="entity" data-qualified-name="Solar Panels" data-source-line="16" id="ent0011"><rect fill="#F1F1F1" height="48" rx="2.5" ry="2.5" style="stroke:#181818;stroke-width:0.5;" width="113.2178" x="498.44" y="223"/><ellipse cx="513.44" cy="239" fill="#ADD1B2" rx="11" ry="11" style="stroke:#181818;stroke-width:1;"/><path d="M515.9131,245.1431 Q515.3321,245.4419 514.6929,245.5913 Q514.0538,245.7407 513.3482,245.7407 Q510.8414,245.7407 509.5215,244.0889 Q508.2017,242.437 508.2017,239.3159 Q508.2017,236.1865 509.5215,234.5347 Q510.8414,232.8828 513.3482,232.8828 Q514.0538,232.8828 514.7012,233.0322 Q515.3487,233.1816 515.9131,233.4805 L515.9131,236.2031 Q515.2823,235.6221 514.6888,235.3523 Q514.0953,235.0825 513.4644,235.0825 Q512.1197,235.0825 511.4349,236.1492 Q510.7501,237.2158 510.7501,239.3159 Q510.7501,241.4077 511.4349,242.4744 Q512.1197,243.541 513.4644,243.541 Q514.0953,243.541 514.6888,243.2712 Q515.2823,243.0015 515.9131,242.4204 Z " fill="#000000"/><text fill="#000000" font-family="sans-serif" font-size="14" lengthAdjust="spacing" textLength="81.2178" x="527.44" y="244.291">Solar Panels</text><line style="stroke:#181818;stroke-width:0.5;" x1="499.44" x2="610.6578" y1="255" y2="255"/><line style="stroke:#181818;stroke-width:0.5;" x1="499.44" x2="610.6578" y1="263" y2="263"/></g><!--class Heat Shield--><g class="entity" data-qualified-name="Heat Shield" data-source-line="17" id="ent0012"><rect fill="#F1F1F1" height="48" rx="2.5" ry="2.5" style="stroke:#181818;stroke-width:0.5;" width="108.4189" x="646.84" y="223"/><ellipse cx="661.84" cy="239" fill="#ADD1B2" rx="11" ry="11" style="stroke:#181818;stroke-width:1;"/><path d="M664.3131,245.1431 Q663.7321,245.4419 663.0929,245.5913 Q662.4538,245.7407 661.7482,245.7407 Q659.2414,245.7407 657.9215,244.0889 Q656.6017,242.437 656.6017,239.3159 Q656.6017,236.1865 657.9215,234.5347 Q659.2414,232.8828 661.7482,232.8828 Q662.4538,232.8828 663.1012,233.0322 Q663.7487,233.1816 664.3131,233.4805 L664.3131,236.2031 Q663.6823,235.6221 663.0888,235.3523 Q662.4953,235.0825 661.8644,235.0825 Q660.5197,235.0825 659.8349,236.1492 Q659.1501,237.2158 659.1501,239.3159 Q659.1501,241.4077 659.8349,242.4744 Q660.5197,243.541 661.8644,243.541 Q662.4953,243.541 663.0888,243.2712 Q663.6823,243.0015 664.3131,242.4204 Z " fill="#000000"/><text fill="#000000" font-family="sans-serif" font-size="14" lengthAdjust="spacing" textLength="76.4189" x="675.84" y="244.291">Heat Shield</text><line style="stroke:#181818;stroke-width:0.5;" x1="647.84" x2="754.2589" y1="255" y2="255"/><line style="stroke:#181818;stroke-width:0.5;" x1="647.84" x2="754.2589" y1="263" y2="263"/></g><!--class Battery Array--><g class="entity" data-qualified-name="Battery Array" data-source-line="19" id="ent0013"><rect fill="#F1F1F1" height="48" rx="2.5" ry="2.5" style="stroke:#181818;stroke-width:0.5;" width="119.6914" x="790.2" y="223"/><ellipse cx="805.2" cy="239" fill="#ADD1B2" rx="11" ry="11" style="stroke:#181818;stroke-width:1;"/><path d="M807.6731,245.1431 Q807.0921,245.4419 806.4529,245.5913 Q805.8138,245.7407 805.1082,245.7407 Q802.6014,245.7407 801.2815,244.0889 Q799.9617,242.437 799.9617,239.3159 Q799.9617,236.1865 801.2815,234.5347 Q802.6014,232.8828 805.1082,232.8828 Q805.8138,232.8828 806.4612,233.0322 Q807.1087,233.1816 807.6731,233.4805 L807.6731,236.2031 Q807.0423,235.6221 806.4488,235.3523 Q805.8553,235.0825 805.2244,235.0825 Q803.8797,235.0825 803.1949,236.1492 Q802.5101,237.2158 802.5101,239.3159 Q802.5101,241.4077 803.1949,242.4744 Q803.8797,243.541 805.2244,243.541 Q805.8553,243.541 806.4488,243.2712 Q807.0423,243.0015 807.6731,242.4204 Z " fill="#000000"/><text fill="#000000" font-family="sans-serif" font-size="14" lengthAdjust="spacing" textLength="87.6914" x="819.2" y="244.291">Battery Array</text><line style="stroke:#181818;stroke-width:0.5;" x1="791.2" x2="908.8914" y1="255" y2="255"/><line style="stroke:#181818;stroke-width:0.5;" x1="791.2" x2="908.8914" y1="263" y2="263"/></g><!--class Solar Power Regulator--><g class="entity" data-qualified-name="Solar Power Regulator" data-source-line="20" id="ent0014"><rect fill="#F1F1F1" height="48" rx="2.5" ry="2.5" style="stroke:#181818;stroke-width:0.5;" width="180.5723" x="944.76" y="223"/><ellipse cx="959.76" cy="239" fill="#ADD1B2" rx="11" ry="11" style="stroke:#181818;stroke-width:1;"/><path d="M962.2331,245.1431 Q961.6521,245.4419 961.0129,245.5913 Q960.3738,245.7407 959.6682,245.7407 Q957.1614,245.7407 955.8415,244.0889 Q954.5217,242.437 954.5217,239.3159 Q954.5217,236.1865 955.8415,234.5347 Q957.1614,232.8828 959.6682,232.8828 Q960.3738,232.8828 961.0212,233.0322 Q961.6687,233.1816 962.2331,233.4805 L962.2331,236.2031 Q961.6023,235.6221 961.0088,235.3523 Q960.4153,235.0825 959.7844,235.0825 Q958.4397,235.0825 957.7549,236.1492 Q957.0701,237.2158 957.0701,239.3159 Q957.0701,241.4077 957.7549,242.4744 Q958.4397,243.541 959.7844,243.541 Q960.4153,243.541 961.0088,243.2712 Q961.6023,243.0015 962.2331,242.4204 Z " fill="#000000"/><text fill="#000000" font-family="sans-serif" font-size="14" lengthAdjust="spacing" textLength="148.5723" x="973.76" y="244.291">Solar Power Regulator</text><line style="stroke:#181818;stroke-width:0.5;" x1="945.76" x2="1124.3323" y1="255" y2="255"/><line style="stroke:#181818;stroke-width:0.5;" x1="945.76" x2="1124.3323" y1="263" y2="263"/></g><!--class PDU--><g class="entity" data-qualified-name="PDU" data-source-line="21" id="ent0015"><rect fill="#F1F1F1" height="48" rx="2.5" ry="2.5" style="stroke:#181818;stroke-width:0.5;" width="59.9248" x="1160.09" y="223"/><ellipse cx="1175.09" cy="239" fill="#ADD1B2" rx="11" ry="11" style="stroke:#181818;stroke-width:1;"/><path d="M1177.5631,245.1431 Q1176.9821,245.4419 1176.3429,245.5913 Q1175.7038,245.7407 1174.9982,245.7407 Q1172.4914,245.7407 1171.1715,244.0889 Q1169.8517,242.437 1169.8517,239.3159 Q1169.8517,236.1865 1171.1715,234.5347 Q1172.4914,232.8828 1174.9982,232.8828 Q1175.7038,232.8828 1176.3512,233.0322 Q1176.9987,233.1816 1177.5631,233.4805 L1177.5631,236.2031 Q1176.9323,235.6221 1176.3388,235.3523 Q1175.7453,235.0825 1175.1144,235.0825 Q1173.7697,235.0825 1173.0849,236.1492 Q1172.4001,237.2158 1172.4001,239.3159 Q1172.4001,241.4077 1173.0849,242.4744 Q1173.7697,243.541 1175.1144,243.541 Q1175.7453,243.541 1176.3388,243.2712 Q1176.9323,243.0015 1177.5631,242.4204 Z " fill="#000000"/><text fill="#000000" font-family="sans-serif" font-size="14" lengthAdjust="spacing" textLength="27.9248" x="1189.09" y="244.291">PDU</text><line style="stroke:#181818;stroke-width:0.5;" x1="1161.09" x2="1219.0148" y1="255" y2="255"/><line style="stroke:#181818;stroke-width:0.5;" x1="1161.09" x2="1219.0148" y1="263" y2="263"/></g><!--class Star Sensor--><g class="entity" data-qualified-name="Star Sensor" data-source-line="23" id="ent0016"><rect fill="#F1F1F1" height="48" rx="2.5" ry="2.5" style="stroke:#181818;stroke-width:0.5;" width="108.1592" x="1254.97" y="223"/><ellipse cx="1269.97" cy="239" fill="#ADD1B2" rx="11" ry="11" style="stroke:#181818;stroke-width:1;"/><path d="M1272.4431,245.1431 Q1271.8621,245.4419 1271.2229,245.5913 Q1270.5838,245.7407 1269.8782,245.7407 Q1267.3714,245.7407 1266.0515,244.0889 Q1264.7317,242.437 1264.7317,239.3159 Q1264.7317,236.1865 1266.0515,234.5347 Q1267.3714,232.8828 1269.8782,232.8828 Q1270.5838,232.8828 1271.2312,233.0322 Q1271.8787,233.1816 1272.4431,233.4805 L1272.4431,236.2031 Q1271.8123,235.6221 1271.2188,235.3523 Q1270.6253,235.0825 1269.9944,235.0825 Q1268.6497,235.0825 1267.9649,236.1492 Q1267.2801,237.2158 1267.2801,239.3159 Q1267.2801,241.4077 1267.9649,242.4744 Q1268.6497,243.541 1269.9944,243.541 Q1270.6253,243.541 1271.2188,243.2712 Q1271.8123,243.0015 1272.4431,242.4204 Z " fill="#000000"/><text fill="#000000" font-family="sans-serif" font-size="14" lengthAdjust="spacing" textLength="76.1592" x="1283.97" y="244.291">Star Sensor</text><line style="stroke:#181818;stroke-width:0.5;" x1="1255.97" x2="1362.1292" y1="255" y2="255"/><line style="stroke:#181818;stroke-width:0.5;" x1="1255.97" x2="1362.1292" y1="263" y2="263"/></g><!--class Reaction Wheels--><g class="entity" data-qualified-name="Reaction Wheels" data-source-line="24" id="ent0017"><rect fill="#F1F1F1" height="48" rx="2.5" ry="2.5" style="stroke:#181818;stroke-width:0.5;" width="142.0039" x="1398.05" y="223"/><ellipse cx="1413.05" cy="239" fill="#ADD1B2" rx="11" ry="11" style="stroke:#181818;stroke-width:1;"/><path d="M1415.5231,245.1431 Q1414.9421,245.4419 1414.3029,245.5913 Q1413.6638,245.7407 1412.9582,245.7407 Q1410.4514,245.7407 1409.1315,244.0889 Q1407.8117,242.437 1407.8117,239.3159 Q1407.8117,236.1865 1409.1315,234.5347 Q1410.4514,232.8828 1412.9582,232.8828 Q1413.6638,232.8828 1414.3112,233.0322 Q1414.9587,233.1816 1415.5231,233.4805 L1415.5231,236.2031 Q1414.8923,235.6221 1414.2988,235.3523 Q1413.7053,235.0825 1413.0744,235.0825 Q1411.7297,235.0825 1411.0449,236.1492 Q1410.3601,237.2158 1410.3601,239.3159 Q1410.3601,241.4077 1411.0449,242.4744 Q1411.7297,243.541 1413.0744,243.541 Q1413.7053,243.541 1414.2988,243.2712 Q1414.8923,243.0015 1415.5231,242.4204 Z " fill="#000000"/><text fill="#000000" font-family="sans-serif" font-size="14" lengthAdjust="spacing" textLength="110.0039" x="1427.05" y="244.291">Reaction Wheels</text><line style="stroke:#181818;stroke-width:0.5;" x1="1399.05" x2="1539.0539" y1="255" y2="255"/><line style="stroke:#181818;stroke-width:0.5;" x1="1399.05" x2="1539.0539" y1="263" y2="263"/></g><!--class Thrusters--><g class="entity" data-qualified-name="Thrusters" data-source-line="25" id="ent0018"><rect fill="#F1F1F1" height="48" rx="2.5" ry="2.5" style="stroke:#181818;stroke-width:0.5;" width="96.9961" x="1574.55" y="223"/><ellipse cx="1589.55" cy="239" fill="#ADD1B2" rx="11" ry="11" style="stroke:#181818;stroke-width:1;"/><path d="M1592.0231,245.1431 Q1591.4421,245.4419 1590.8029,245.5913 Q1590.1638,245.7407 1589.4582,245.7407 Q1586.9514,245.7407 1585.6315,244.0889 Q1584.3117,242.437 1584.3117,239.3159 Q1584.3117,236.1865 1585.6315,234.5347 Q1586.9514,232.8828 1589.4582,232.8828 Q1590.1638,232.8828 1590.8112,233.0322 Q1591.4587,233.1816 1592.0231,233.4805 L1592.0231,236.2031 Q1591.3923,235.6221 1590.7988,235.3523 Q1590.2053,235.0825 1589.5744,235.0825 Q1588.2297,235.0825 1587.5449,236.1492 Q1586.8601,237.2158 1586.8601,239.3159 Q1586.8601,241.4077 1587.5449,242.4744 Q1588.2297,243.541 1589.5744,243.541 Q1590.2053,243.541 1590.7988,243.2712 Q1591.3923,243.0015 1592.0231,242.4204 Z " fill="#000000"/><text fill="#000000" font-family="sans-serif" font-size="14" lengthAdjust="spacing" textLength="64.9961" x="1603.55" y="244.291">Thrusters</text><line style="stroke:#181818;stroke-width:0.5;" x1="1575.55" x2="1670.5461" y1="255" y2="255"/><line style="stroke:#181818;stroke-width:0.5;" x1="1575.55" x2="1670.5461" y1="263" y2="263"/></g><!--class On-Board Computer--><g class="entity" data-qualified-name="On-Board Computer" data-source-line="27" id="ent0019"><rect fill="#F1F1F1" height="48" rx="2.5" ry="2.5" style="stroke:#181818;stroke-width:0.5;" width="170.6396" x="1706.73" y="223"/><ellipse cx="1721.73" cy="239" fill="#ADD1B2" rx="11" ry="11" style="stroke:#181818;stroke-width:1;"/><path d="M1724.2031,245.1431 Q1723.6221,245.4419 1722.9829,245.5913 Q1722.3438,245.7407 1721.6382,245.7407 Q1719.1314,245.7407 1717.8115,244.0889 Q1716.4917,242.437 1716.4917,239.3159 Q1716.4917,236.1865 1717.8115,234.5347 Q1719.1314,232.8828 1721.6382,232.8828 Q1722.3438,232.8828 1722.9912,233.0322 Q1723.6387,233.1816 1724.2031,233.4805 L1724.2031,236.2031 Q1723.5723,235.6221 1722.9788,235.3523 Q1722.3853,235.0825 1721.7544,235.0825 Q1720.4097,235.0825 1719.7249,236.1492 Q1719.0401,237.2158 1719.0401,239.3159 Q1719.0401,241.4077 1719.7249,242.4744 Q1720.4097,243.541 1721.7544,243.541 Q1722.3853,243.541 1722.9788,243.2712 Q1723.5723,243.0015 1724.2031,242.4204 Z " fill="#000000"/><text fill="#000000" font-family="sans-serif" font-size="14" lengthAdjust="spacing" textLength="138.6396" x="1735.73" y="244.291">On-Board Computer</text><line style="stroke:#181818;stroke-width:0.5;" x1="1707.73" x2="1876.3696" y1="255" y2="255"/><line style="stroke:#181818;stroke-width:0.5;" x1="1707.73" x2="1876.3696" y1="263" y2="263"/></g><!--class RF Transmitter--><g class="entity" data-qualified-name="RF Transmitter" data-source-line="28" id="ent0020"><rect fill="#F1F1F1" height="48" rx="2.5" ry="2.5" style="stroke:#181818;stroke-width:0.5;" width="132.0439" x="1912.03" y="223"/><ellipse cx="1927.03" cy="239" fill="#ADD1B2" rx="11" ry="11" style="stroke:#181818;stroke-width:1;"/><path d="M1929.5031,245.1431 Q1928.9221,245.4419 1928.2829,245.5913 Q1927.6438,245.7407 1926.9382,245.7407 Q1924.4314,245.7407 1923.1115,244.0889 Q1921.7917,242.437 1921.7917,239.3159 Q1921.7917,236.1865 1923.1115,234.5347 Q1924.4314,232.8828 1926.9382,232.8828 Q1927.6438,232.8828 1928.2912,233.0322 Q1928.9387,233.1816 1929.5031,233.4805 L1929.5031,236.2031 Q1928.8723,235.6221 1928.2788,235.3523 Q1927.6853,235.0825 1927.0544,235.0825 Q1925.7097,235.0825 1925.0249,236.1492 Q1924.3401,237.2158 1924.3401,239.3159 Q1924.3401,241.4077 1925.0249,242.4744 Q1925.7097,243.541 1927.0544,243.541 Q1927.6853,243.541 1928.2788,243.2712 Q1928.8723,243.0015 1929.5031,242.4204 Z " fill="#000000"/><text fill="#000000" font-family="sans-serif" font-size="14" lengthAdjust="spacing" textLength="100.0439" x="1941.03" y="244.291">RF Transmitter</text><line style="stroke:#181818;stroke-width:0.5;" x1="1913.03" x2="2043.0739" y1="255" y2="255"/><line style="stroke:#181818;stroke-width:0.5;" x1="1913.03" x2="2043.0739" y1="263" y2="263"/></g><!--class RF Receiver--><g class="entity" data-qualified-name="RF Receiver" data-source-line="29" id="ent0021"><rect fill="#F1F1F1" height="48" rx="2.5" ry="2.5" style="stroke:#181818;stroke-width:0.5;" width="109.2324" x="2079.43" y="223"/><ellipse cx="2094.43" cy="239" fill="#ADD1B2" rx="11" ry="11" style="stroke:#181818;stroke-width:1;"/><path d="M2096.9031,245.1431 Q2096.3221,245.4419 2095.6829,245.5913 Q2095.0438,245.7407 2094.3382,245.7407 Q2091.8314,245.7407 2090.5115,244.0889 Q2089.1917,242.437 2089.1917,239.3159 Q2089.1917,236.1865 2090.5115,234.5347 Q2091.8314,232.8828 2094.3382,232.8828 Q2095.0438,232.8828 2095.6912,233.0322 Q2096.3387,233.1816 2096.9031,233.4805 L2096.9031,236.2031 Q2096.2723,235.6221 2095.6788,235.3523 Q2095.0853,235.0825 2094.4544,235.0825 Q2093.1097,235.0825 2092.4249,236.1492 Q2091.7401,237.2158 2091.7401,239.3159 Q2091.7401,241.4077 2092.4249,242.4744 Q2093.1097,243.541 2094.4544,243.541 Q2095.0853,243.541 2095.6788,243.2712 Q2096.2723,243.0015 2096.9031,242.4204 Z " fill="#000000"/><text fill="#000000" font-family="sans-serif" font-size="14" lengthAdjust="spacing" textLength="77.2324" x="2108.43" y="244.291">RF Receiver</text><line style="stroke:#181818;stroke-width:0.5;" x1="2080.43" x2="2187.6624" y1="255" y2="255"/><line style="stroke:#181818;stroke-width:0.5;" x1="2080.43" x2="2187.6624" y1="263" y2="263"/></g><!--reverse link Optical Camera to Payload Instrument--><g class="link" data-entity-1="ent0002" data-entity-2="ent0001" data-link-type="extension" data-source-line="31" id="lnk22"><path codeLine="31" d="M102.5273,285.8244 C115.3673,303.5044 122.36,313.13 135.19,330.79" fill="none" id="Optical Camera-backto-Payload Instrument" style="stroke:#181818;stroke-width:1;"/><polygon fill="none" points="91.95,271.26,97.6725,289.3501,107.3821,282.2986,91.95,271.26" style="stroke:#181818;stroke-width:1;stroke-linejoin:miter;stroke-miterlimit:10;"/></g><!--reverse link SAR Radar to Payload Instrument--><g class="link" data-entity-1="ent0003" data-entity-2="ent0001" data-link-type="extension" data-source-line="32" id="lnk23"><path codeLine="32" d="M201.5727,285.8244 C188.7327,303.5044 181.74,313.13 168.91,330.79" fill="none" id="SAR Radar-backto-Payload Instrument" style="stroke:#181818;stroke-width:1;"/><polygon fill="none" points="212.15,271.26,196.7179,282.2986,206.4275,289.3501,212.15,271.26" style="stroke:#181818;stroke-width:1;stroke-linejoin:miter;stroke-miterlimit:10;"/></g><!--reverse link Satellite to Payload Subsystem--><g class="link" data-entity-1="ent0004" data-entity-2="ent0005" data-link-type="composition" data-source-line="34" id="lnk24"><path codeLine="34" d="M980.1025,39.2249 C851.1625,56.1849 478.52,105.19 309.86,127.37" fill="none" id="Satellite-backto-Payload Subsystem" style="stroke:#181818;stroke-width:1;"/><polygon fill="#181818" points="992,37.66,985.5296,34.4766,980.1025,39.2249,986.5729,42.4083,992,37.66" style="stroke:#181818;stroke-width:1;stroke-linejoin:miter;stroke-miterlimit:10;"/><text fill="#000000" font-family="sans-serif" font-size="13" lengthAdjust="spacing" textLength="8.2202" x="976.2252" y="35.115">1</text><text fill="#000000" font-family="sans-serif" font-size="13" lengthAdjust="spacing" textLength="8.2202" x="317.6887" y="123.1891">1</text></g><!--reverse link Satellite to Structure and Thermal Control--><g class="link" data-entity-1="ent0004" data-entity-2="ent0006" data-link-type="composition" data-source-line="35" id="lnk25"><path codeLine="35" d="M980.2674,46.2645 C915.4174,63.1545 803.01,92.43 717.95,114.59" fill="none" id="Satellite-backto-Structure and Thermal Control" style="stroke:#181818;stroke-width:1;"/><polygon fill="#181818" points="991.88,43.24,985.0655,40.8814,980.2674,46.2645,987.0819,48.6231,991.88,43.24" style="stroke:#181818;stroke-width:1;stroke-linejoin:miter;stroke-miterlimit:10;"/><text fill="#000000" font-family="sans-serif" font-size="13" lengthAdjust="spacing" textLength="8.2202" x="976.0853" y="59.1035">1</text><text fill="#000000" font-family="sans-serif" font-size="13" lengthAdjust="spacing" textLength="8.2202" x="730.9147" y="104.4181">1</text></g><!--reverse link Satellite to Electrical Power Supply--><g class="link" data-entity-1="ent0004" data-entity-2="ent0007" data-link-type="composition" data-source-line="36" id="lnk26"><path codeLine="36" d="M1035.05,67.26 C1035.05,84.94 1035.05,97.13 1035.05,114.79" fill="none" id="Satellite-backto-Electrical Power Supply" style="stroke:#181818;stroke-width:1;"/><polygon fill="#181818" points="1035.05,55.26,1031.05,61.26,1035.05,67.26,1039.05,61.26,1035.05,55.26" style="stroke:#181818;stroke-width:1;stroke-linejoin:miter;stroke-miterlimit:10;"/><text fill="#000000" font-family="sans-serif" font-size="13" lengthAdjust="spacing" textLength="8.2202" x="1026.1013" y="75.6077">1</text><text fill="#000000" font-family="sans-serif" font-size="13" lengthAdjust="spacing" textLength="8.2202" x="1026.0542" y="104.2725">1</text></g><!--reverse link Satellite to Attitude and Orbit Control System--><g class="link" data-entity-1="ent0004" data-entity-2="ent0008" data-link-type="composition" data-source-line="37" id="lnk27"><path codeLine="37" d="M1089.5958,48.332 C1147.2758,65.602 1239.14,93.11 1310.78,114.56" fill="none" id="Satellite-backto-Attitude and Orbit Control System" style="stroke:#181818;stroke-width:1;"/><polygon fill="#181818" points="1078.1,44.89,1082.7006,50.4429,1089.5958,48.332,1084.9952,42.7791,1078.1,44.89" style="stroke:#181818;stroke-width:1;stroke-linejoin:miter;stroke-miterlimit:10;"/><text fill="#000000" font-family="sans-serif" font-size="13" lengthAdjust="spacing" textLength="8.2202" x="1085.9105" y="43.5424">1</text><text fill="#000000" font-family="sans-serif" font-size="13" lengthAdjust="spacing" textLength="8.2202" x="1282.755" y="104.3808">1</text></g><!--reverse link Satellite to Telemetry, Tracking & Command--><g class="link" data-entity-1="ent0004" data-entity-2="ent0009" data-link-type="composition" data-source-line="38" id="lnk28"><path codeLine="38" d="M1089.9878,38.8545 C1213.7578,54.2845 1562.36,97.76 1756.94,122.02" fill="none" id="Satellite-backto-Telemetry, Tracking &amp; Command" style="stroke:#181818;stroke-width:1;"/><polygon fill="#181818" points="1078.08,37.37,1083.5391,42.0815,1089.9878,38.8545,1084.5287,34.143,1078.08,37.37" style="stroke:#181818;stroke-width:1;stroke-linejoin:miter;stroke-miterlimit:10;"/><text fill="#000000" font-family="sans-serif" font-size="13" lengthAdjust="spacing" textLength="8.2202" x="1085.8872" y="34.7769">1</text><text fill="#000000" font-family="sans-serif" font-size="13" lengthAdjust="spacing" textLength="8.2202" x="1740.8963" y="118.1061">1</text></g><!--reverse link Payload Subsystem to Optical Camera--><g class="link" data-entity-1="ent0005" data-entity-2="ent0002" data-link-type="composition" data-source-line="40" id="lnk29"><path codeLine="40" d="M185.3645,170.0628 C159.7745,187.6728 134.67,204.97 109.03,222.61" fill="none" id="Payload Subsystem-backto-Optical Camera" style="stroke:#181818;stroke-width:1;"/><polygon fill="#181818" points="195.25,163.26,188.0397,163.3662,185.3645,170.0628,192.5749,169.9565,195.25,163.26" style="stroke:#181818;stroke-width:1;stroke-linejoin:miter;stroke-miterlimit:10;"/><text fill="#000000" font-family="sans-serif" font-size="13" lengthAdjust="spacing" textLength="8.2202" x="178.0634" y="183.6077">1</text><text fill="#000000" font-family="sans-serif" font-size="13" lengthAdjust="spacing" textLength="8.2202" x="108.3647" y="212.443">1</text></g><!--reverse link Payload Subsystem to SAR Radar--><g class="link" data-entity-1="ent0005" data-entity-2="ent0003" data-link-type="composition" data-source-line="41" id="lnk30"><path codeLine="41" d="M229.05,175.26 C229.05,192.94 229.05,205.13 229.05,222.79" fill="none" id="Payload Subsystem-backto-SAR Radar" style="stroke:#181818;stroke-width:1;"/><polygon fill="#181818" points="229.05,163.26,225.05,169.26,229.05,175.26,233.05,169.26,229.05,163.26" style="stroke:#181818;stroke-width:1;stroke-linejoin:miter;stroke-miterlimit:10;"/><text fill="#000000" font-family="sans-serif" font-size="13" lengthAdjust="spacing" textLength="8.2202" x="220.1021" y="183.6077">1</text><text fill="#000000" font-family="sans-serif" font-size="13" lengthAdjust="spacing" textLength="8.2202" x="220.0536" y="212.2725">1</text></g><!--reverse link Structure and Thermal Control to Primary Structure--><g class="link" data-entity-1="ent0006" data-entity-2="ent0010" data-link-type="composition" data-source-line="43" id="lnk31"><path codeLine="43" d="M564.3308,168.256 C524.6108,185.876 481.35,205.06 441.66,222.67" fill="none" id="Structure and Thermal Control-backto-Primary Structure" style="stroke:#181818;stroke-width:1;"/><polygon fill="#181818" points="575.3,163.39,568.1934,162.1666,564.3308,168.256,571.4374,169.4794,575.3,163.39" style="stroke:#181818;stroke-width:1;stroke-linejoin:miter;stroke-miterlimit:10;"/><text fill="#000000" font-family="sans-serif" font-size="13" lengthAdjust="spacing" textLength="8.2202" x="554.2018" y="183.3688">1</text><text fill="#000000" font-family="sans-serif" font-size="13" lengthAdjust="spacing" textLength="8.2202" x="446.1438" y="212.1217">1</text></g><!--reverse link Structure and Thermal Control to Solar Panels--><g class="link" data-entity-1="ent0006" data-entity-2="ent0011" data-link-type="composition" data-source-line="44" id="lnk32"><path codeLine="44" d="M605.226,173.1446 C593.056,190.8246 583.19,205.13 571.03,222.79" fill="none" id="Structure and Thermal Control-backto-Solar Panels" style="stroke:#181818;stroke-width:1;"/><polygon fill="#181818" points="612.03,163.26,605.3331,165.9343,605.226,173.1446,611.9228,170.4703,612.03,163.26" style="stroke:#181818;stroke-width:1;stroke-linejoin:miter;stroke-miterlimit:10;"/><text fill="#000000" font-family="sans-serif" font-size="13" lengthAdjust="spacing" textLength="8.2202" x="599.1767" y="183.6077">1</text><text fill="#000000" font-family="sans-serif" font-size="13" lengthAdjust="spacing" textLength="8.2202" x="566.1284" y="212.2725">1</text></g><!--reverse link Structure and Thermal Control to Heat Shield--><g class="link" data-entity-1="ent0006" data-entity-2="ent0012" data-link-type="composition" data-source-line="45" id="lnk33"><path codeLine="45" d="M650.874,173.1446 C663.044,190.8246 672.9,205.13 685.07,222.79" fill="none" id="Structure and Thermal Control-backto-Heat Shield" style="stroke:#181818;stroke-width:1;"/><polygon fill="#181818" points="644.07,163.26,644.1772,170.4703,650.874,173.1446,650.7669,165.9343,644.07,163.26" style="stroke:#181818;stroke-width:1;stroke-linejoin:miter;stroke-miterlimit:10;"/><text fill="#000000" font-family="sans-serif" font-size="13" lengthAdjust="spacing" textLength="8.2202" x="639.0265" y="183.6077">1</text><text fill="#000000" font-family="sans-serif" font-size="13" lengthAdjust="spacing" textLength="8.2202" x="671.9785" y="212.2725">1</text></g><!--reverse link Electrical Power Supply to Battery Array--><g class="link" data-entity-1="ent0007" data-entity-2="ent0013" data-link-type="composition" data-source-line="47" id="lnk34"><path codeLine="47" d="M984.0376,169.225 C953.2976,186.835 921.67,204.97 890.87,222.61" fill="none" id="Electrical Power Supply-backto-Battery Array" style="stroke:#181818;stroke-width:1;"/><polygon fill="#181818" points="994.45,163.26,987.2555,162.7717,984.0376,169.225,991.2321,169.7133,994.45,163.26" style="stroke:#181818;stroke-width:1;stroke-linejoin:miter;stroke-miterlimit:10;"/><text fill="#000000" font-family="sans-serif" font-size="13" lengthAdjust="spacing" textLength="8.2202" x="975.6066" y="183.6077">1</text><text fill="#000000" font-family="sans-serif" font-size="13" lengthAdjust="spacing" textLength="8.2202" x="891.8728" y="212.443">1</text></g><!--reverse link Electrical Power Supply to Solar Power Regulator--><g class="link" data-entity-1="ent0007" data-entity-2="ent0014" data-link-type="composition" data-source-line="48" id="lnk35"><path codeLine="48" d="M1035.05,175.26 C1035.05,192.94 1035.05,205.13 1035.05,222.79" fill="none" id="Electrical Power Supply-backto-Solar Power Regulator" style="stroke:#181818;stroke-width:1;"/><polygon fill="#181818" points="1035.05,163.26,1031.05,169.26,1035.05,175.26,1039.05,169.26,1035.05,163.26" style="stroke:#181818;stroke-width:1;stroke-linejoin:miter;stroke-miterlimit:10;"/><text fill="#000000" font-family="sans-serif" font-size="13" lengthAdjust="spacing" textLength="8.2202" x="1026.1028" y="183.6077">1</text><text fill="#000000" font-family="sans-serif" font-size="13" lengthAdjust="spacing" textLength="8.2202" x="1026.0542" y="212.2725">1</text></g><!--reverse link Electrical Power Supply to PDU--><g class="link" data-entity-1="ent0007" data-entity-2="ent0015" data-link-type="composition" data-source-line="49" id="lnk36"><path codeLine="49" d="M1078.9657,170.0332 C1106.0657,188.5632 1133.73,207.48 1159.78,225.3" fill="none" id="Electrical Power Supply-backto-PDU" style="stroke:#181818;stroke-width:1;"/><polygon fill="#181818" points="1069.06,163.26,1071.7551,169.9485,1078.9657,170.0332,1076.2706,163.3447,1069.06,163.26" style="stroke:#181818;stroke-width:1;stroke-linejoin:miter;stroke-miterlimit:10;"/><text fill="#000000" font-family="sans-serif" font-size="13" lengthAdjust="spacing" textLength="8.2202" x="1068.4028" y="183.6077">1</text><text fill="#000000" font-family="sans-serif" font-size="13" lengthAdjust="spacing" textLength="8.2202" x="1143.88" y="216.1518">1</text></g><!--reverse link Attitude and Orbit Control System to Star Sensor--><g class="link" data-entity-1="ent0008" data-entity-2="ent0016" data-link-type="composition" data-source-line="51" id="lnk37"><path codeLine="51" d="M1364.2623,172.8392 C1350.9223,190.5192 1339.89,205.13 1326.56,222.79" fill="none" id="Attitude and Orbit Control System-backto-Star Sensor" style="stroke:#181818;stroke-width:1;"/><polygon fill="#181818" points="1371.49,163.26,1364.6831,165.6403,1364.2623,172.8392,1371.0692,170.4588,1371.49,163.26" style="stroke:#181818;stroke-width:1;stroke-linejoin:miter;stroke-miterlimit:10;"/><text fill="#000000" font-family="sans-serif" font-size="13" lengthAdjust="spacing" textLength="8.2202" x="1358.2631" y="183.6077">1</text><text fill="#000000" font-family="sans-serif" font-size="13" lengthAdjust="spacing" textLength="8.2202" x="1322.0503" y="212.2725">1</text></g><!--reverse link Attitude and Orbit Control System to Reaction Wheels--><g class="link" data-entity-1="ent0008" data-entity-2="ent0017" data-link-type="composition" data-source-line="52" id="lnk38"><path codeLine="52" d="M1413.8343,172.8418 C1427.1643,190.5218 1438.21,205.13 1451.53,222.79" fill="none" id="Attitude and Orbit Control System-backto-Reaction Wheels" style="stroke:#181818;stroke-width:1;"/><polygon fill="#181818" points="1406.61,163.26,1407.0282,170.459,1413.8343,172.8418,1413.416,165.6428,1406.61,163.26" style="stroke:#181818;stroke-width:1;stroke-linejoin:miter;stroke-miterlimit:10;"/><text fill="#000000" font-family="sans-serif" font-size="13" lengthAdjust="spacing" textLength="8.2202" x="1401.9436" y="183.6077">1</text><text fill="#000000" font-family="sans-serif" font-size="13" lengthAdjust="spacing" textLength="8.2202" x="1438.0432" y="212.2725">1</text></g><!--reverse link Attitude and Orbit Control System to Thrusters--><g class="link" data-entity-1="ent0008" data-entity-2="ent0018" data-link-type="composition" data-source-line="53" id="lnk39"><path codeLine="53" d="M1451.6205,168.3422 C1491.4605,186.3922 1535.25,206.23 1574.34,223.93" fill="none" id="Attitude and Orbit Control System-backto-Thrusters" style="stroke:#181818;stroke-width:1;"/><polygon fill="#181818" points="1440.69,163.39,1444.5045,169.5096,1451.6205,168.3422,1447.806,162.2226,1440.69,163.39" style="stroke:#181818;stroke-width:1;stroke-linejoin:miter;stroke-miterlimit:10;"/><text fill="#000000" font-family="sans-serif" font-size="13" lengthAdjust="spacing" textLength="8.2202" x="1443.7336" y="183.3688">1</text><text fill="#000000" font-family="sans-serif" font-size="13" lengthAdjust="spacing" textLength="8.2202" x="1558.2859" y="216.8411">1</text></g><!--reverse link Telemetry, Tracking & Command to On-Board Computer--><g class="link" data-entity-1="ent0009" data-entity-2="ent0019" data-link-type="composition" data-source-line="55" id="lnk40"><path codeLine="55" d="M1856.7264,172.2808 C1841.2164,189.9608 1827.9,205.13 1812.41,222.79" fill="none" id="Telemetry, Tracking &amp; Command-backto-On-Board Computer" style="stroke:#181818;stroke-width:1;"/><polygon fill="#181818" points="1864.64,163.26,1857.6763,165.1325,1856.7264,172.2808,1863.6901,170.4083,1864.64,163.26" style="stroke:#181818;stroke-width:1;stroke-linejoin:miter;stroke-miterlimit:10;"/><text fill="#000000" font-family="sans-serif" font-size="13" lengthAdjust="spacing" textLength="8.2202" x="1850.7171" y="183.6077">1</text><text fill="#000000" font-family="sans-serif" font-size="13" lengthAdjust="spacing" textLength="8.2202" x="1808.6305" y="212.2725">1</text></g><!--reverse link Telemetry, Tracking & Command to RF Transmitter--><g class="link" data-entity-1="ent0009" data-entity-2="ent0020" data-link-type="composition" data-source-line="56" id="lnk41"><path codeLine="56" d="M1913.3707,172.2833 C1928.8707,189.9633 1942.19,205.13 1957.69,222.79" fill="none" id="Telemetry, Tracking &amp; Command-backto-RF Transmitter" style="stroke:#181818;stroke-width:1;"/><polygon fill="#181818" points="1905.46,163.26,1906.4076,170.4086,1913.3707,172.2833,1912.4231,165.1348,1905.46,163.26" style="stroke:#181818;stroke-width:1;stroke-linejoin:miter;stroke-miterlimit:10;"/><text fill="#000000" font-family="sans-serif" font-size="13" lengthAdjust="spacing" textLength="8.2202" x="1901.487" y="183.6077">1</text><text fill="#000000" font-family="sans-serif" font-size="13" lengthAdjust="spacing" textLength="8.2202" x="1943.4755" y="212.2725">1</text></g><!--reverse link Telemetry, Tracking & Command to RF Receiver--><g class="link" data-entity-1="ent0009" data-entity-2="ent0021" data-link-type="composition" data-source-line="57" id="lnk42"><path codeLine="57" d="M1951.0412,168.0903 C1992.4312,185.7103 2037.88,205.06 2079.24,222.67" fill="none" id="Telemetry, Tracking &amp; Command-backto-RF Receiver" style="stroke:#181818;stroke-width:1;"/><polygon fill="#181818" points="1940,163.39,1943.9538,169.4205,1951.0412,168.0903,1947.0873,162.0598,1940,163.39" style="stroke:#181818;stroke-width:1;stroke-linejoin:miter;stroke-miterlimit:10;"/><text fill="#000000" font-family="sans-serif" font-size="13" lengthAdjust="spacing" textLength="8.2202" x="1943.8079" y="183.3688">1</text><text fill="#000000" font-family="sans-serif" font-size="13" lengthAdjust="spacing" textLength="8.2202" x="2063.3527" y="215.9821">1</text></g><?plantuml-src bLHDYzim4BtxLmm-jB1i3ksnz99iTccX9S5EwNbY3x6e98VHU8kXFxxoxiPMb7WTdmIZUK_pyPu-Gjwwdp_WCwpMwo_mY2mLRFQE-1b5rHPo5D9Q2IK9xfqm5WA5HkSWtMAhQopXk_Nnnf2LD7cxsXn55QZX0Gqnzk5ycK669NAQzA4J_n0wyURDthLEo0nu_quX3HEWBM5N4PlkaTeArxhFUjHK2B-ylwt_4dkYur6t_VrIH4bJlf9iUA_aHD4D8tnlHveC2RVtiFET_r7s01zyiZ4U6XJCoY2tq9St55nhPDYY9Utwu3T2WRnIf0EE5OgGvrWoOnlZNxh8wD1eb9hxs-twLp18yPavMHSaPEJNrMtnTqLX1RkA6zyekm6-iOjLZLnstHqRVpUGF7NDMsUKHE6C2bBFNIo9DmvV_oqMroKIgE2Th2HG1gIVKhZhClrvJHwZkHE26SMDIcWKSOEeHh5JChlIyZb1RBT9G6Z4YI55mx-K-YpykI5cGSzjCxgYSr1agnjH8xQx4VrgoniK4MirCF1iz8NLPpE4dyA492FrNNuTi_3n1pCNF7n3_m40?></g></svg>