<svg xmlns="http://www.w3.org/2000/svg" xmlns:xlink="http://www.w3.org/1999/xlink" contentStyleType="text/css" data-diagram-type="CLASS" height="394px" preserveAspectRatio="none" style="width:815px;height:394px;background:#FFFFFF;" version="1.1" viewBox="0 0 815 394" width="815px" zoomAndPan="magnify"><?plantuml 1.2026.6?><defs/><g><!--class Sensor--><g class="entity" data-qualified-name="Sensor" data-source-line="1" id="ent0001"><rect fill="#F1F1F1" height="48" rx="2.5" ry="2.5" style="stroke:#181818;stroke-width:0.5;" width="77.4932" x="122.13" y="331"/><ellipse cx="137.13" cy="347" fill="#A9DCDF" rx="11" ry="11" style="stroke:#181818;stroke-width:1;"/><path d="M136.9933,342.3481 L135.8395,347.4199 L138.1554,347.4199 Z M135.4991,340.1069 L138.4957,340.1069 L141.8409,352.5 L139.3922,352.5 L138.6285,349.437 L135.3497,349.437 L134.6027,352.5 L132.1539,352.5 Z " fill="#000000"/><text fill="#000000" font-family="sans-serif" font-size="14" font-style="italic" lengthAdjust="spacing" textLength="45.4932" x="151.13" y="352.291">Sensor</text><line style="stroke:#181818;stroke-width:0.5;" x1="123.13" x2="198.6232" y1="363" y2="363"/><line style="stroke:#181818;stroke-width:0.5;" x1="123.13" x2="198.6232" y1="371" y2="371"/></g><!--class Camera--><g class="entity" data-qualified-name="Camera" data-source-line="2" id="ent0002"><rect fill="#F1F1F1" height="48" rx="2.5" ry="2.5" style="stroke:#181818;stroke-width:0.5;" width="83.748" x="7" y="223"/><ellipse cx="22" cy="239" fill="#ADD1B2" rx="11" ry="11" style="stroke:#181818;stroke-width:1;"/><path d="M24.4731,245.1431 Q23.8921,245.4419 23.2529,245.5913 Q22.6138,245.7407 21.9082,245.7407 Q19.4014,245.7407 18.0815,244.0889 Q16.7617,242.437 16.7617,239.3159 Q16.7617,236.1865 18.0815,234.5347 Q19.4014,232.8828 21.9082,232.8828 Q22.6138,232.8828 23.2612,233.0322 Q23.9087,233.1816 24.4731,233.4805 L24.4731,236.2031 Q23.8423,235.6221 23.2488,235.3523 Q22.6553,235.0825 22.0244,235.0825 Q20.6797,235.0825 19.9949,236.1492 Q19.3101,237.2158 19.3101,239.3159 Q19.3101,241.4077 19.9949,242.4744 Q20.6797,243.541 22.0244,243.541 Q22.6553,243.541 23.2488,243.2712 Q23.8423,243.0015 24.4731,242.4204 Z " fill="#000000"/><text fill="#000000" font-family="sans-serif" font-size="14" lengthAdjust="spacing" textLength="51.748" x="36" y="244.291">Camera</text><line style="stroke:#181818;stroke-width:0.5;" x1="8" x2="89.748" y1="255" y2="255"/><line style="stroke:#181818;stroke-width:0.5;" x1="8" x2="89.748" y1="263" y2="263"/></g><!--class Radar--><g class="entity" data-qualified-name="Radar" data-source-line="3" id="ent0003"><rect fill="#F1F1F1" height="48" rx="2.5" ry="2.5" style="stroke:#181818;stroke-width:0.5;" width="70.8555" x="125.45" y="223"/><ellipse cx="140.45" cy="239" fill="#ADD1B2" rx="11" ry="11" style="stroke:#181818;stroke-width:1;"/><path d="M142.9231,245.1431 Q142.3421,245.4419 141.7029,245.5913 Q141.0638,245.7407 140.3582,245.7407 Q137.8514,245.7407 136.5315,244.0889 Q135.2117,242.437 135.2117,239.3159 Q135.2117,236.1865 136.5315,234.5347 Q137.8514,232.8828 140.3582,232.8828 Q141.0638,232.8828 141.7112,233.0322 Q142.3587,233.1816 142.9231,233.4805 L142.9231,236.2031 Q142.2923,235.6221 141.6988,235.3523 Q141.1053,235.0825 140.4744,235.0825 Q139.1297,235.0825 138.4449,236.1492 Q137.7601,237.2158 137.7601,239.3159 Q137.7601,241.4077 138.4449,242.4744 Q139.1297,243.541 140.4744,243.541 Q141.1053,243.541 141.6988,243.2712 Q142.2923,243.0015 142.9231,242.4204 Z " fill="#000000"/><text fill="#000000" font-family="sans-serif" font-size="14" lengthAdjust="spacing" textLength="38.8555" x="154.45" y="244.291">Radar</text><line style="stroke:#181818;stroke-width:0.5;" x1="126.45" x2="195.3055" y1="255" y2="255"/><line style="stroke:#181818;stroke-width:0.5;" x1="126.45" x2="195.3055" y1="263" y2="263"/></g><!--class Lidar--><g class="entity" data-qualified-name="Lidar" data-source-line="4" id="ent0004"><rect fill="#F1F1F1" height="48" rx="2.5" ry="2.5" style="stroke:#181818;stroke-width:0.5;" width="65.7832" x="230.98" y="223"/><ellipse cx="245.98" cy="239" fill="#ADD1B2" rx="11" ry="11" style="stroke:#181818;stroke-width:1;"/><path d="M248.4531,245.1431 Q247.8721,245.4419 247.2329,245.5913 Q246.5938,245.7407 245.8882,245.7407 Q243.3814,245.7407 242.0615,244.0889 Q240.7417,242.437 240.7417,239.3159 Q240.7417,236.1865 242.0615,234.5347 Q243.3814,232.8828 245.8882,232.8828 Q246.5938,232.8828 247.2412,233.0322 Q247.8887,233.1816 248.4531,233.4805 L248.4531,236.2031 Q247.8223,235.6221 247.2288,235.3523 Q246.6353,235.0825 246.0044,235.0825 Q244.6597,235.0825 243.9749,236.1492 Q243.2901,237.2158 243.2901,239.3159 Q243.2901,241.4077 243.9749,242.4744 Q244.6597,243.541 246.0044,243.541 Q246.6353,243.541 247.2288,243.2712 Q247.8223,243.0015 248.4531,242.4204 Z " fill="#000000"/><text fill="#000000" font-family="sans-serif" font-size="14" lengthAdjust="spacing" textLength="33.7832" x="259.98" y="244.291">Lidar</text><line style="stroke:#181818;stroke-width:0.5;" x1="231.98" x2="295.7632" y1="255" y2="255"/><line style="stroke:#181818;stroke-width:0.5;" x1="231.98" x2="295.7632" y1="263" y2="263"/></g><!--class SensorSuite--><g class="entity" data-qualified-name="SensorSuite" data-source-line="5" id="ent0005"><rect fill="#F1F1F1" height="48" rx="2.5" ry="2.5" style="stroke:#181818;stroke-width:0.5;" width="110.8047" x="140.47" y="115"/><ellipse cx="155.47" cy="131" fill="#ADD1B2" rx="11" ry="11" style="stroke:#181818;stroke-width:1;"/><path d="M157.9431,137.1431 Q157.3621,137.4419 156.7229,137.5913 Q156.0838,137.7407 155.3782,137.7407 Q152.8714,137.7407 151.5515,136.0889 Q150.2317,134.437 150.2317,131.3159 Q150.2317,128.1865 151.5515,126.5347 Q152.8714,124.8828 155.3782,124.8828 Q156.0838,124.8828 156.7312,125.0322 Q157.3787,125.1816 157.9431,125.4805 L157.9431,128.2031 Q157.3123,127.6221 156.7188,127.3523 Q156.1253,127.0825 155.4944,127.0825 Q154.1497,127.0825 153.4649,128.1492 Q152.7801,129.2158 152.7801,131.3159 Q152.7801,133.4077 153.4649,134.4744 Q154.1497,135.541 155.4944,135.541 Q156.1253,135.541 156.7188,135.2712 Q157.3123,135.0015 157.9431,134.4204 Z " fill="#000000"/><text fill="#000000" font-family="sans-serif" font-size="14" lengthAdjust="spacing" textLength="78.8047" x="169.47" y="136.291">SensorSuite</text><line style="stroke:#181818;stroke-width:0.5;" x1="141.47" x2="250.2747" y1="147" y2="147"/><line style="stroke:#181818;stroke-width:0.5;" x1="141.47" x2="250.2747" y1="155" y2="155"/></g><!--class FusionProcessingUnit--><g class="entity" data-qualified-name="FusionProcessingUnit" data-source-line="6" id="ent0006"><rect fill="#F1F1F1" height="48" rx="2.5" ry="2.5" style="stroke:#181818;stroke-width:0.5;" width="177.1133" x="304.32" y="115"/><ellipse cx="319.32" cy="131" fill="#ADD1B2" rx="11" ry="11" style="stroke:#181818;stroke-width:1;"/><path d="M321.7931,137.1431 Q321.2121,137.4419 320.5729,137.5913 Q319.9338,137.7407 319.2282,137.7407 Q316.7214,137.7407 315.4015,136.0889 Q314.0817,134.437 314.0817,131.3159 Q314.0817,128.1865 315.4015,126.5347 Q316.7214,124.8828 319.2282,124.8828 Q319.9338,124.8828 320.5812,125.0322 Q321.2287,125.1816 321.7931,125.4805 L321.7931,128.2031 Q321.1623,127.6221 320.5688,127.3523 Q319.9753,127.0825 319.3444,127.0825 Q317.9997,127.0825 317.3149,128.1492 Q316.6301,129.2158 316.6301,131.3159 Q316.6301,133.4077 317.3149,134.4744 Q317.9997,135.541 319.3444,135.541 Q319.9753,135.541 320.5688,135.2712 Q321.1623,135.0015 321.7931,134.4204 Z " fill="#000000"/><text fill="#000000" font-family="sans-serif" font-size="14" lengthAdjust="spacing" textLength="145.1133" x="333.32" y="136.291">FusionProcessingUnit</text><line style="stroke:#181818;stroke-width:0.5;" x1="305.32" x2="480.4333" y1="147" y2="147"/><line style="stroke:#181818;stroke-width:0.5;" x1="305.32" x2="480.4333" y1="155" y2="155"/></g><!--class EnvironmentModel--><g class="entity" data-qualified-name="EnvironmentModel" data-source-line="7" id="ent0007"><rect fill="#F1F1F1" height="48" rx="2.5" ry="2.5" style="stroke:#181818;stroke-width:0.5;" width="158.6973" x="331.53" y="223"/><ellipse cx="346.53" cy="239" fill="#ADD1B2" rx="11" ry="11" style="stroke:#181818;stroke-width:1;"/><path d="M349.0031,245.1431 Q348.4221,245.4419 347.7829,245.5913 Q347.1438,245.7407 346.4382,245.7407 Q343.9314,245.7407 342.6115,244.0889 Q341.2917,242.437 341.2917,239.3159 Q341.2917,236.1865 342.6115,234.5347 Q343.9314,232.8828 346.4382,232.8828 Q347.1438,232.8828 347.7912,233.0322 Q348.4387,233.1816 349.0031,233.4805 L349.0031,236.2031 Q348.3723,235.6221 347.7788,235.3523 Q347.1853,235.0825 346.5544,235.0825 Q345.2097,235.0825 344.5249,236.1492 Q343.8401,237.2158 343.8401,239.3159 Q343.8401,241.4077 344.5249,242.4744 Q345.2097,243.541 346.5544,243.541 Q347.1853,243.541 347.7788,243.2712 Q348.3723,243.0015 349.0031,242.4204 Z " fill="#000000"/><text fill="#000000" font-family="sans-serif" font-size="14" lengthAdjust="spacing" textLength="126.6973" x="360.53" y="244.291">EnvironmentModel</text><line style="stroke:#181818;stroke-width:0.5;" x1="332.53" x2="489.2273" y1="255" y2="255"/><line style="stroke:#181818;stroke-width:0.5;" x1="332.53" x2="489.2273" y1="263" y2="263"/></g><!--class DriverAssistanceControlUnit--><g class="entity" data-qualified-name="DriverAssistanceControlUnit" data-source-line="8" id="ent0008"><rect fill="#F1F1F1" height="48" rx="2.5" ry="2.5" style="stroke:#181818;stroke-width:0.5;" width="223.0371" x="516.36" y="115"/><ellipse cx="531.36" cy="131" fill="#ADD1B2" rx="11" ry="11" style="stroke:#181818;stroke-width:1;"/><path d="M533.8331,137.1431 Q533.2521,137.4419 532.6129,137.5913 Q531.9738,137.7407 531.2682,137.7407 Q528.7614,137.7407 527.4415,136.0889 Q526.1217,134.437 526.1217,131.3159 Q526.1217,128.1865 527.4415,126.5347 Q528.7614,124.8828 531.2682,124.8828 Q531.9738,124.8828 532.6212,125.0322 Q533.2687,125.1816 533.8331,125.4805 L533.8331,128.2031 Q533.2023,127.6221 532.6088,127.3523 Q532.0153,127.0825 531.3844,127.0825 Q530.0397,127.0825 529.3549,128.1492 Q528.6701,129.2158 528.6701,131.3159 Q528.6701,133.4077 529.3549,134.4744 Q530.0397,135.541 531.3844,135.541 Q532.0153,135.541 532.6088,135.2712 Q533.2023,135.0015 533.8331,134.4204 Z " fill="#000000"/><text fill="#000000" font-family="sans-serif" font-size="14" lengthAdjust="spacing" textLength="191.0371" x="545.36" y="136.291">DriverAssistanceControlUnit</text><line style="stroke:#181818;stroke-width:0.5;" x1="517.36" x2="738.3971" y1="147" y2="147"/><line style="stroke:#181818;stroke-width:0.5;" x1="517.36" x2="738.3971" y1="155" y2="155"/></g><!--class SteeringSystem--><g class="entity" data-qualified-name="SteeringSystem" data-source-line="9" id="ent0009"><rect fill="#F1F1F1" height="48" rx="2.5" ry="2.5" style="stroke:#181818;stroke-width:0.5;" width="135.667" x="499.04" y="7"/><ellipse cx="514.04" cy="23" fill="#ADD1B2" rx="11" ry="11" style="stroke:#181818;stroke-width:1;"/><path d="M516.5131,29.1431 Q515.9321,29.4419 515.2929,29.5913 Q514.6538,29.7407 513.9482,29.7407 Q511.4414,29.7407 510.1215,28.0889 Q508.8017,26.437 508.8017,23.3159 Q508.8017,20.1865 510.1215,18.5347 Q511.4414,16.8828 513.9482,16.8828 Q514.6538,16.8828 515.3012,17.0322 Q515.9487,17.1816 516.5131,17.4805 L516.5131,20.2031 Q515.8823,19.6221 515.2888,19.3523 Q514.6953,19.0825 514.0644,19.0825 Q512.7197,19.0825 512.0349,20.1492 Q511.3501,21.2158 511.3501,23.3159 Q511.3501,25.4077 512.0349,26.4744 Q512.7197,27.541 514.0644,27.541 Q514.6953,27.541 515.2888,27.2712 Q515.8823,27.0015 516.5131,26.4204 Z " fill="#000000"/><text fill="#000000" font-family="sans-serif" font-size="14" lengthAdjust="spacing" textLength="103.667" x="528.04" y="28.291">SteeringSystem</text><line style="stroke:#181818;stroke-width:0.5;" x1="500.04" x2="633.707" y1="39" y2="39"/><line style="stroke:#181818;stroke-width:0.5;" x1="500.04" x2="633.707" y1="47" y2="47"/></g><!--class BrakingSystem--><g class="entity" data-qualified-name="BrakingSystem" data-source-line="10" id="ent0010"><rect fill="#F1F1F1" height="48" rx="2.5" ry="2.5" style="stroke:#181818;stroke-width:0.5;" width="131.2578" x="669.25" y="7"/><ellipse cx="684.25" cy="23" fill="#ADD1B2" rx="11" ry="11" style="stroke:#181818;stroke-width:1;"/><path d="M686.7231,29.1431 Q686.1421,29.4419 685.5029,29.5913 Q684.8638,29.7407 684.1582,29.7407 Q681.6514,29.7407 680.3315,28.0889 Q679.0117,26.437 679.0117,23.3159 Q679.0117,20.1865 680.3315,18.5347 Q681.6514,16.8828 684.1582,16.8828 Q684.8638,16.8828 685.5112,17.0322 Q686.1587,17.1816 686.7231,17.4805 L686.7231,20.2031 Q686.0923,19.6221 685.4988,19.3523 Q684.9053,19.0825 684.2744,19.0825 Q682.9297,19.0825 682.2449,20.1492 Q681.5601,21.2158 681.5601,23.3159 Q681.5601,25.4077 682.2449,26.4744 Q682.9297,27.541 684.2744,27.541 Q684.9053,27.541 685.4988,27.2712 Q686.0923,27.0015 686.7231,26.4204 Z " fill="#000000"/><text fill="#000000" font-family="sans-serif" font-size="14" lengthAdjust="spacing" textLength="99.2578" x="698.25" y="28.291">BrakingSystem</text><line style="stroke:#181818;stroke-width:0.5;" x1="670.25" x2="799.5078" y1="39" y2="39"/><line style="stroke:#181818;stroke-width:0.5;" x1="670.25" x2="799.5078" y1="47" y2="47"/></g><!--class ADASSubsystem--><g class="entity" data-qualified-name="ADASSubsystem" data-source-line="11" id="ent0011"><rect fill="#F1F1F1" height="48" rx="2.5" ry="2.5" style="stroke:#181818;stroke-width:0.5;" width="142.0791" x="321.83" y="7"/><ellipse cx="336.83" cy="23" fill="#ADD1B2" rx="11" ry="11" style="stroke:#181818;stroke-width:1;"/><path d="M339.3031,29.1431 Q338.7221,29.4419 338.0829,29.5913 Q337.4438,29.7407 336.7382,29.7407 Q334.2314,29.7407 332.9115,28.0889 Q331.5917,26.437 331.5917,23.3159 Q331.5917,20.1865 332.9115,18.5347 Q334.2314,16.8828 336.7382,16.8828 Q337.4438,16.8828 338.0912,17.0322 Q338.7387,17.1816 339.3031,17.4805 L339.3031,20.2031 Q338.6723,19.6221 338.0788,19.3523 Q337.4853,19.0825 336.8544,19.0825 Q335.5097,19.0825 334.8249,20.1492 Q334.1401,21.2158 334.1401,23.3159 Q334.1401,25.4077 334.8249,26.4744 Q335.5097,27.541 336.8544,27.541 Q337.4853,27.541 338.0788,27.2712 Q338.6723,27.0015 339.3031,26.4204 Z " fill="#000000"/><text fill="#000000" font-family="sans-serif" font-size="14" lengthAdjust="spacing" textLength="110.0791" x="350.83" y="28.291">ADASSubsystem</text><line style="stroke:#181818;stroke-width:0.5;" x1="322.83" x2="462.9091" y1="39" y2="39"/><line style="stroke:#181818;stroke-width:0.5;" x1="322.83" x2="462.9091" y1="47" y2="47"/></g><!--reverse link Camera to Sensor--><g class="link" data-entity-1="ent0002" data-entity-2="ent0001" data-link-type="extension" data-source-line="13" id="lnk12"><path codeLine="13" d="M86.523,283.6332 C105.203,301.3132 117.69,313.13 136.35,330.79" fill="none" id="Camera-backto-Sensor" style="stroke:#181818;stroke-width:1;"/><polygon fill="none" points="73.45,271.26,82.3986,287.9909,90.6474,279.2755,73.45,271.26" style="stroke:#181818;stroke-width:1;stroke-linejoin:miter;stroke-miterlimit:10;"/></g><!--reverse link Radar to Sensor--><g class="link" data-entity-1="ent0003" data-entity-2="ent0001" data-link-type="extension" data-source-line="14" id="lnk13"><path codeLine="14" d="M160.87,289.26 C160.87,306.94 160.87,313.13 160.87,330.79" fill="none" id="Radar-backto-Sensor" style="stroke:#181818;stroke-width:1;"/><polygon fill="none" points="160.87,271.26,154.87,289.26,166.87,289.26,160.87,271.26" style="stroke:#181818;stroke-width:1;stroke-linejoin:miter;stroke-miterlimit:10;"/></g><!--reverse link Lidar to Sensor--><g class="link" data-entity-1="ent0004" data-entity-2="ent0001" data-link-type="extension" data-source-line="15" id="lnk14"><path codeLine="15" d="M228.7297,284.1728 C211.5597,301.8528 200.59,313.13 183.43,330.79" fill="none" id="Lidar-backto-Sensor" style="stroke:#181818;stroke-width:1;"/><polygon fill="none" points="241.27,271.26,224.4254,279.9927,233.034,288.3529,241.27,271.26" style="stroke:#181818;stroke-width:1;stroke-linejoin:miter;stroke-miterlimit:10;"/></g><!--reverse link SensorSuite to Camera--><g class="link" data-entity-1="ent0005" data-entity-2="ent0002" data-link-type="composition" data-source-line="17" id="lnk15"><path codeLine="17" d="M153.8768,170.2789 C129.4568,187.8889 105.78,204.97 81.31,222.61" fill="none" id="SensorSuite-backto-Camera" style="stroke:#181818;stroke-width:1;"/><polygon fill="#181818" points="163.61,163.26,156.4038,163.5251,153.8768,170.2789,161.083,170.0138,163.61,163.26" style="stroke:#181818;stroke-width:1;stroke-linejoin:miter;stroke-miterlimit:10;"/><text fill="#000000" font-family="sans-serif" font-size="13" lengthAdjust="spacing" textLength="8.2202" x="146.7979" y="183.6077">1</text><text fill="#000000" font-family="sans-serif" font-size="13" lengthAdjust="spacing" textLength="22.7119" x="64.6218" y="212.443">0..*</text></g><!--reverse link SensorSuite to Radar--><g class="link" data-entity-1="ent0005" data-entity-2="ent0003" data-link-type="composition" data-source-line="18" id="lnk16"><path codeLine="18" d="M184.432,174.6564 C178.602,192.3364 174.37,205.13 168.54,222.79" fill="none" id="SensorSuite-backto-Radar" style="stroke:#181818;stroke-width:1;"/><polygon fill="#181818" points="188.19,163.26,182.5122,167.7055,184.432,174.6564,190.1098,170.2109,188.19,163.26" style="stroke:#181818;stroke-width:1;stroke-linejoin:miter;stroke-miterlimit:10;"/><text fill="#000000" font-family="sans-serif" font-size="13" lengthAdjust="spacing" textLength="8.2202" x="177.3693" y="183.6077">1</text><text fill="#000000" font-family="sans-serif" font-size="13" lengthAdjust="spacing" textLength="22.7119" x="145.7759" y="212.2725">0..*</text></g><!--reverse link SensorSuite to Lidar--><g class="link" data-entity-1="ent0005" data-entity-2="ent0004" data-link-type="composition" data-source-line="19" id="lnk17"><path codeLine="19" d="M217.2746,173.3634 C228.6046,191.0434 237.66,205.13 248.99,222.79" fill="none" id="SensorSuite-backto-Lidar" style="stroke:#181818;stroke-width:1;"/><polygon fill="#181818" points="210.8,163.26,210.6695,170.4699,217.2746,173.3634,217.4051,166.1535,210.8,163.26" style="stroke:#181818;stroke-width:1;stroke-linejoin:miter;stroke-miterlimit:10;"/><text fill="#000000" font-family="sans-serif" font-size="13" lengthAdjust="spacing" textLength="8.2202" x="205.4905" y="183.6077">1</text><text fill="#000000" font-family="sans-serif" font-size="13" lengthAdjust="spacing" textLength="22.7119" x="220.4491" y="212.2725">1..*</text></g><!--reverse link FusionProcessingUnit to EnvironmentModel--><g class="link" data-entity-1="ent0006" data-entity-2="ent0007" data-link-type="composition" data-source-line="21" id="lnk18"><path codeLine="21" d="M398.834,175.0898 C401.844,192.7698 403.93,205.13 406.93,222.79" fill="none" id="FusionProcessingUnit-backto-EnvironmentModel" style="stroke:#181818;stroke-width:1;"/><polygon fill="#181818" points="396.82,163.26,393.8837,169.8462,398.834,175.0898,401.7703,168.5036,396.82,163.26" style="stroke:#181818;stroke-width:1;stroke-linejoin:miter;stroke-miterlimit:10;"/><text fill="#000000" font-family="sans-serif" font-size="13" lengthAdjust="spacing" textLength="8.2202" x="388.833" y="183.6077">1</text><text fill="#000000" font-family="sans-serif" font-size="13" lengthAdjust="spacing" textLength="8.2202" x="396.9214" y="212.2725">1</text></g><!--reverse link ADASSubsystem to SensorSuite--><g class="link" data-entity-1="ent0011" data-entity-2="ent0005" data-link-type="composition" data-source-line="23" id="lnk19"><path codeLine="23" d="M339.0725,60.9457 C306.3425,78.5557 272.14,96.97 239.35,114.61" fill="none" id="ADASSubsystem-backto-SensorSuite" style="stroke:#181818;stroke-width:1;"/><polygon fill="#181818" points="349.64,55.26,342.461,54.5804,339.0725,60.9457,346.2515,61.6254,349.64,55.26" style="stroke:#181818;stroke-width:1;stroke-linejoin:miter;stroke-miterlimit:10;"/><text fill="#000000" font-family="sans-serif" font-size="13" lengthAdjust="spacing" textLength="8.2202" x="330.1546" y="75.6077">1</text><text fill="#000000" font-family="sans-serif" font-size="13" lengthAdjust="spacing" textLength="8.2202" x="240.9995" y="104.443">1</text></g><!--reverse link ADASSubsystem to FusionProcessingUnit--><g class="link" data-entity-1="ent0011" data-entity-2="ent0006" data-link-type="composition" data-source-line="24" id="lnk20"><path codeLine="24" d="M392.87,67.26 C392.87,84.94 392.87,97.13 392.87,114.79" fill="none" id="ADASSubsystem-backto-FusionProcessingUnit" style="stroke:#181818;stroke-width:1;"/><polygon fill="#181818" points="392.87,55.26,388.87,61.26,392.87,67.26,396.87,61.26,392.87,55.26" style="stroke:#181818;stroke-width:1;stroke-linejoin:miter;stroke-miterlimit:10;"/><text fill="#000000" font-family="sans-serif" font-size="13" lengthAdjust="spacing" textLength="8.2202" x="383.9219" y="75.6077">1</text><text fill="#000000" font-family="sans-serif" font-size="13" lengthAdjust="spacing" textLength="8.2202" x="383.8715" y="104.2725">1</text></g><!--reverse link ADASSubsystem to DriverAssistanceControlUnit--><g class="link" data-entity-1="ent0011" data-entity-2="ent0008" data-link-type="composition" data-source-line="25" id="lnk21"><path codeLine="25" d="M455.6785,60.3244 C494.7385,77.9444 537.11,97.06 576.14,114.67" fill="none" id="ADASSubsystem-backto-DriverAssistanceControlUnit" style="stroke:#181818;stroke-width:1;"/><polygon fill="#181818" points="444.74,55.39,448.5645,61.5034,455.6785,60.3244,451.8541,54.211,444.74,55.39" style="stroke:#181818;stroke-width:1;stroke-linejoin:miter;stroke-miterlimit:10;"/><text fill="#000000" font-family="sans-serif" font-size="13" lengthAdjust="spacing" textLength="8.2202" x="447.8355" y="75.3688">1</text><text fill="#000000" font-family="sans-serif" font-size="13" lengthAdjust="spacing" textLength="8.2202" x="553.8852" y="104.1217">1</text></g><?plantuml-src VP51Yy8m48Nl-HKXHq7PthrKtJtjWXZs1unraB3j16QcWk2FjpGfsshrbddlcy1x0qTHXafjLOE8zKWIsQHX2mqovE409nYCx_3_JXk-3OfP-MebHDfph50aqFcNWcRhaow18pL8-XDFM6Tvn-62N7QqA525sqZAiHujUaNaxYz_5SKcYnk6lqUjt9NUjqT9caaHxFgsN0xP-Y0JfOypKSmebNM5iulESn-hrS8DhRmXKbMpGD43gJypLzG8TSzrcKcy2Jk-msjgzZQlyJU7kGC0?></g></svg>